%TF.GenerationSoftware,KiCad,Pcbnew,10.0.3*%
%TF.CreationDate,2026-06-06T15:00:51+02:00*%
%TF.ProjectId,SysEx_Patcher,53797345-785f-4506-9174-636865722e6b,rev?*%
%TF.SameCoordinates,Original*%
%TF.FileFunction,Legend,Top*%
%TF.FilePolarity,Positive*%
%FSLAX46Y46*%
G04 Gerber Fmt 4.6, Leading zero omitted, Abs format (unit mm)*
G04 Created by KiCad (PCBNEW 10.0.3) date 2026-06-06 15:00:51*
%MOMM*%
%LPD*%
G01*
G04 APERTURE LIST*
%ADD10C,0.150000*%
%ADD11C,0.120000*%
G04 APERTURE END LIST*
D10*
X161857142Y-69008557D02*
X161342856Y-69008557D01*
X161599999Y-69008557D02*
X161599999Y-68108557D01*
X161599999Y-68108557D02*
X161514285Y-68237128D01*
X161514285Y-68237128D02*
X161428570Y-68322842D01*
X161428570Y-68322842D02*
X161342856Y-68365700D01*
X162414285Y-68108557D02*
X162499999Y-68108557D01*
X162499999Y-68108557D02*
X162585713Y-68151414D01*
X162585713Y-68151414D02*
X162628571Y-68194271D01*
X162628571Y-68194271D02*
X162671428Y-68279985D01*
X162671428Y-68279985D02*
X162714285Y-68451414D01*
X162714285Y-68451414D02*
X162714285Y-68665700D01*
X162714285Y-68665700D02*
X162671428Y-68837128D01*
X162671428Y-68837128D02*
X162628571Y-68922842D01*
X162628571Y-68922842D02*
X162585713Y-68965700D01*
X162585713Y-68965700D02*
X162499999Y-69008557D01*
X162499999Y-69008557D02*
X162414285Y-69008557D01*
X162414285Y-69008557D02*
X162328571Y-68965700D01*
X162328571Y-68965700D02*
X162285713Y-68922842D01*
X162285713Y-68922842D02*
X162242856Y-68837128D01*
X162242856Y-68837128D02*
X162199999Y-68665700D01*
X162199999Y-68665700D02*
X162199999Y-68451414D01*
X162199999Y-68451414D02*
X162242856Y-68279985D01*
X162242856Y-68279985D02*
X162285713Y-68194271D01*
X162285713Y-68194271D02*
X162328571Y-68151414D01*
X162328571Y-68151414D02*
X162414285Y-68108557D01*
X163271428Y-68108557D02*
X163357142Y-68108557D01*
X163357142Y-68108557D02*
X163442856Y-68151414D01*
X163442856Y-68151414D02*
X163485714Y-68194271D01*
X163485714Y-68194271D02*
X163528571Y-68279985D01*
X163528571Y-68279985D02*
X163571428Y-68451414D01*
X163571428Y-68451414D02*
X163571428Y-68665700D01*
X163571428Y-68665700D02*
X163528571Y-68837128D01*
X163528571Y-68837128D02*
X163485714Y-68922842D01*
X163485714Y-68922842D02*
X163442856Y-68965700D01*
X163442856Y-68965700D02*
X163357142Y-69008557D01*
X163357142Y-69008557D02*
X163271428Y-69008557D01*
X163271428Y-69008557D02*
X163185714Y-68965700D01*
X163185714Y-68965700D02*
X163142856Y-68922842D01*
X163142856Y-68922842D02*
X163099999Y-68837128D01*
X163099999Y-68837128D02*
X163057142Y-68665700D01*
X163057142Y-68665700D02*
X163057142Y-68451414D01*
X163057142Y-68451414D02*
X163099999Y-68279985D01*
X163099999Y-68279985D02*
X163142856Y-68194271D01*
X163142856Y-68194271D02*
X163185714Y-68151414D01*
X163185714Y-68151414D02*
X163271428Y-68108557D01*
X164342857Y-68408557D02*
X164342857Y-69008557D01*
X163957142Y-68408557D02*
X163957142Y-68879985D01*
X163957142Y-68879985D02*
X163999999Y-68965700D01*
X163999999Y-68965700D02*
X164085714Y-69008557D01*
X164085714Y-69008557D02*
X164214285Y-69008557D01*
X164214285Y-69008557D02*
X164299999Y-68965700D01*
X164299999Y-68965700D02*
X164342857Y-68922842D01*
X165071428Y-68537128D02*
X164771428Y-68537128D01*
X164771428Y-69008557D02*
X164771428Y-68108557D01*
X164771428Y-68108557D02*
X165200000Y-68108557D01*
X135551414Y-56485713D02*
X135508557Y-56571428D01*
X135508557Y-56571428D02*
X135508557Y-56699999D01*
X135508557Y-56699999D02*
X135551414Y-56828570D01*
X135551414Y-56828570D02*
X135637128Y-56914285D01*
X135637128Y-56914285D02*
X135722842Y-56957142D01*
X135722842Y-56957142D02*
X135894271Y-56999999D01*
X135894271Y-56999999D02*
X136022842Y-56999999D01*
X136022842Y-56999999D02*
X136194271Y-56957142D01*
X136194271Y-56957142D02*
X136279985Y-56914285D01*
X136279985Y-56914285D02*
X136365700Y-56828570D01*
X136365700Y-56828570D02*
X136408557Y-56699999D01*
X136408557Y-56699999D02*
X136408557Y-56614285D01*
X136408557Y-56614285D02*
X136365700Y-56485713D01*
X136365700Y-56485713D02*
X136322842Y-56442856D01*
X136322842Y-56442856D02*
X136022842Y-56442856D01*
X136022842Y-56442856D02*
X136022842Y-56614285D01*
X136408557Y-56057142D02*
X135508557Y-56057142D01*
X135508557Y-56057142D02*
X136408557Y-55542856D01*
X136408557Y-55542856D02*
X135508557Y-55542856D01*
X136408557Y-55114285D02*
X135508557Y-55114285D01*
X135508557Y-55114285D02*
X135508557Y-54899999D01*
X135508557Y-54899999D02*
X135551414Y-54771428D01*
X135551414Y-54771428D02*
X135637128Y-54685713D01*
X135637128Y-54685713D02*
X135722842Y-54642856D01*
X135722842Y-54642856D02*
X135894271Y-54599999D01*
X135894271Y-54599999D02*
X136022842Y-54599999D01*
X136022842Y-54599999D02*
X136194271Y-54642856D01*
X136194271Y-54642856D02*
X136279985Y-54685713D01*
X136279985Y-54685713D02*
X136365700Y-54771428D01*
X136365700Y-54771428D02*
X136408557Y-54899999D01*
X136408557Y-54899999D02*
X136408557Y-55114285D01*
X138605700Y-56957143D02*
X138605700Y-56271429D01*
X138948557Y-56614286D02*
X138262842Y-56614286D01*
X138048557Y-55414285D02*
X138048557Y-55842857D01*
X138048557Y-55842857D02*
X138477128Y-55885714D01*
X138477128Y-55885714D02*
X138434271Y-55842857D01*
X138434271Y-55842857D02*
X138391414Y-55757143D01*
X138391414Y-55757143D02*
X138391414Y-55542857D01*
X138391414Y-55542857D02*
X138434271Y-55457143D01*
X138434271Y-55457143D02*
X138477128Y-55414285D01*
X138477128Y-55414285D02*
X138562842Y-55371428D01*
X138562842Y-55371428D02*
X138777128Y-55371428D01*
X138777128Y-55371428D02*
X138862842Y-55414285D01*
X138862842Y-55414285D02*
X138905700Y-55457143D01*
X138905700Y-55457143D02*
X138948557Y-55542857D01*
X138948557Y-55542857D02*
X138948557Y-55757143D01*
X138948557Y-55757143D02*
X138905700Y-55842857D01*
X138905700Y-55842857D02*
X138862842Y-55885714D01*
X138048557Y-55114285D02*
X138948557Y-54814285D01*
X138948557Y-54814285D02*
X138048557Y-54514285D01*
X140631414Y-56485713D02*
X140588557Y-56571428D01*
X140588557Y-56571428D02*
X140588557Y-56699999D01*
X140588557Y-56699999D02*
X140631414Y-56828570D01*
X140631414Y-56828570D02*
X140717128Y-56914285D01*
X140717128Y-56914285D02*
X140802842Y-56957142D01*
X140802842Y-56957142D02*
X140974271Y-56999999D01*
X140974271Y-56999999D02*
X141102842Y-56999999D01*
X141102842Y-56999999D02*
X141274271Y-56957142D01*
X141274271Y-56957142D02*
X141359985Y-56914285D01*
X141359985Y-56914285D02*
X141445700Y-56828570D01*
X141445700Y-56828570D02*
X141488557Y-56699999D01*
X141488557Y-56699999D02*
X141488557Y-56614285D01*
X141488557Y-56614285D02*
X141445700Y-56485713D01*
X141445700Y-56485713D02*
X141402842Y-56442856D01*
X141402842Y-56442856D02*
X141102842Y-56442856D01*
X141102842Y-56442856D02*
X141102842Y-56614285D01*
X141488557Y-56057142D02*
X140588557Y-56057142D01*
X140588557Y-56057142D02*
X141488557Y-55542856D01*
X141488557Y-55542856D02*
X140588557Y-55542856D01*
X141488557Y-55114285D02*
X140588557Y-55114285D01*
X140588557Y-55114285D02*
X140588557Y-54899999D01*
X140588557Y-54899999D02*
X140631414Y-54771428D01*
X140631414Y-54771428D02*
X140717128Y-54685713D01*
X140717128Y-54685713D02*
X140802842Y-54642856D01*
X140802842Y-54642856D02*
X140974271Y-54599999D01*
X140974271Y-54599999D02*
X141102842Y-54599999D01*
X141102842Y-54599999D02*
X141274271Y-54642856D01*
X141274271Y-54642856D02*
X141359985Y-54685713D01*
X141359985Y-54685713D02*
X141445700Y-54771428D01*
X141445700Y-54771428D02*
X141488557Y-54899999D01*
X141488557Y-54899999D02*
X141488557Y-55114285D01*
X143128557Y-56785713D02*
X144028557Y-56485713D01*
X144028557Y-56485713D02*
X143128557Y-56185713D01*
X144028557Y-55885713D02*
X143128557Y-55885713D01*
X144028557Y-55457142D02*
X143128557Y-55457142D01*
X143128557Y-55457142D02*
X144028557Y-54942856D01*
X144028557Y-54942856D02*
X143128557Y-54942856D01*
X165551414Y-28485713D02*
X165508557Y-28571428D01*
X165508557Y-28571428D02*
X165508557Y-28699999D01*
X165508557Y-28699999D02*
X165551414Y-28828570D01*
X165551414Y-28828570D02*
X165637128Y-28914285D01*
X165637128Y-28914285D02*
X165722842Y-28957142D01*
X165722842Y-28957142D02*
X165894271Y-28999999D01*
X165894271Y-28999999D02*
X166022842Y-28999999D01*
X166022842Y-28999999D02*
X166194271Y-28957142D01*
X166194271Y-28957142D02*
X166279985Y-28914285D01*
X166279985Y-28914285D02*
X166365700Y-28828570D01*
X166365700Y-28828570D02*
X166408557Y-28699999D01*
X166408557Y-28699999D02*
X166408557Y-28614285D01*
X166408557Y-28614285D02*
X166365700Y-28485713D01*
X166365700Y-28485713D02*
X166322842Y-28442856D01*
X166322842Y-28442856D02*
X166022842Y-28442856D01*
X166022842Y-28442856D02*
X166022842Y-28614285D01*
X166408557Y-28057142D02*
X165508557Y-28057142D01*
X165508557Y-28057142D02*
X166408557Y-27542856D01*
X166408557Y-27542856D02*
X165508557Y-27542856D01*
X166408557Y-27114285D02*
X165508557Y-27114285D01*
X165508557Y-27114285D02*
X165508557Y-26899999D01*
X165508557Y-26899999D02*
X165551414Y-26771428D01*
X165551414Y-26771428D02*
X165637128Y-26685713D01*
X165637128Y-26685713D02*
X165722842Y-26642856D01*
X165722842Y-26642856D02*
X165894271Y-26599999D01*
X165894271Y-26599999D02*
X166022842Y-26599999D01*
X166022842Y-26599999D02*
X166194271Y-26642856D01*
X166194271Y-26642856D02*
X166279985Y-26685713D01*
X166279985Y-26685713D02*
X166365700Y-26771428D01*
X166365700Y-26771428D02*
X166408557Y-26899999D01*
X166408557Y-26899999D02*
X166408557Y-27114285D01*
X168048557Y-28999999D02*
X168948557Y-28699999D01*
X168948557Y-28699999D02*
X168048557Y-28399999D01*
X168862842Y-27585713D02*
X168905700Y-27628570D01*
X168905700Y-27628570D02*
X168948557Y-27757142D01*
X168948557Y-27757142D02*
X168948557Y-27842856D01*
X168948557Y-27842856D02*
X168905700Y-27971427D01*
X168905700Y-27971427D02*
X168819985Y-28057142D01*
X168819985Y-28057142D02*
X168734271Y-28099999D01*
X168734271Y-28099999D02*
X168562842Y-28142856D01*
X168562842Y-28142856D02*
X168434271Y-28142856D01*
X168434271Y-28142856D02*
X168262842Y-28099999D01*
X168262842Y-28099999D02*
X168177128Y-28057142D01*
X168177128Y-28057142D02*
X168091414Y-27971427D01*
X168091414Y-27971427D02*
X168048557Y-27842856D01*
X168048557Y-27842856D02*
X168048557Y-27757142D01*
X168048557Y-27757142D02*
X168091414Y-27628570D01*
X168091414Y-27628570D02*
X168134271Y-27585713D01*
X168862842Y-26685713D02*
X168905700Y-26728570D01*
X168905700Y-26728570D02*
X168948557Y-26857142D01*
X168948557Y-26857142D02*
X168948557Y-26942856D01*
X168948557Y-26942856D02*
X168905700Y-27071427D01*
X168905700Y-27071427D02*
X168819985Y-27157142D01*
X168819985Y-27157142D02*
X168734271Y-27199999D01*
X168734271Y-27199999D02*
X168562842Y-27242856D01*
X168562842Y-27242856D02*
X168434271Y-27242856D01*
X168434271Y-27242856D02*
X168262842Y-27199999D01*
X168262842Y-27199999D02*
X168177128Y-27157142D01*
X168177128Y-27157142D02*
X168091414Y-27071427D01*
X168091414Y-27071427D02*
X168048557Y-26942856D01*
X168048557Y-26942856D02*
X168048557Y-26857142D01*
X168048557Y-26857142D02*
X168091414Y-26728570D01*
X168091414Y-26728570D02*
X168134271Y-26685713D01*
X171445700Y-28871428D02*
X171488557Y-28742857D01*
X171488557Y-28742857D02*
X171488557Y-28528571D01*
X171488557Y-28528571D02*
X171445700Y-28442857D01*
X171445700Y-28442857D02*
X171402842Y-28399999D01*
X171402842Y-28399999D02*
X171317128Y-28357142D01*
X171317128Y-28357142D02*
X171231414Y-28357142D01*
X171231414Y-28357142D02*
X171145700Y-28399999D01*
X171145700Y-28399999D02*
X171102842Y-28442857D01*
X171102842Y-28442857D02*
X171059985Y-28528571D01*
X171059985Y-28528571D02*
X171017128Y-28699999D01*
X171017128Y-28699999D02*
X170974271Y-28785714D01*
X170974271Y-28785714D02*
X170931414Y-28828571D01*
X170931414Y-28828571D02*
X170845700Y-28871428D01*
X170845700Y-28871428D02*
X170759985Y-28871428D01*
X170759985Y-28871428D02*
X170674271Y-28828571D01*
X170674271Y-28828571D02*
X170631414Y-28785714D01*
X170631414Y-28785714D02*
X170588557Y-28699999D01*
X170588557Y-28699999D02*
X170588557Y-28485714D01*
X170588557Y-28485714D02*
X170631414Y-28357142D01*
X171402842Y-27457142D02*
X171445700Y-27499999D01*
X171445700Y-27499999D02*
X171488557Y-27628571D01*
X171488557Y-27628571D02*
X171488557Y-27714285D01*
X171488557Y-27714285D02*
X171445700Y-27842856D01*
X171445700Y-27842856D02*
X171359985Y-27928571D01*
X171359985Y-27928571D02*
X171274271Y-27971428D01*
X171274271Y-27971428D02*
X171102842Y-28014285D01*
X171102842Y-28014285D02*
X170974271Y-28014285D01*
X170974271Y-28014285D02*
X170802842Y-27971428D01*
X170802842Y-27971428D02*
X170717128Y-27928571D01*
X170717128Y-27928571D02*
X170631414Y-27842856D01*
X170631414Y-27842856D02*
X170588557Y-27714285D01*
X170588557Y-27714285D02*
X170588557Y-27628571D01*
X170588557Y-27628571D02*
X170631414Y-27499999D01*
X170631414Y-27499999D02*
X170674271Y-27457142D01*
X171488557Y-26642856D02*
X171488557Y-27071428D01*
X171488557Y-27071428D02*
X170588557Y-27071428D01*
X173985700Y-28892857D02*
X174028557Y-28764286D01*
X174028557Y-28764286D02*
X174028557Y-28550000D01*
X174028557Y-28550000D02*
X173985700Y-28464286D01*
X173985700Y-28464286D02*
X173942842Y-28421428D01*
X173942842Y-28421428D02*
X173857128Y-28378571D01*
X173857128Y-28378571D02*
X173771414Y-28378571D01*
X173771414Y-28378571D02*
X173685700Y-28421428D01*
X173685700Y-28421428D02*
X173642842Y-28464286D01*
X173642842Y-28464286D02*
X173599985Y-28550000D01*
X173599985Y-28550000D02*
X173557128Y-28721428D01*
X173557128Y-28721428D02*
X173514271Y-28807143D01*
X173514271Y-28807143D02*
X173471414Y-28850000D01*
X173471414Y-28850000D02*
X173385700Y-28892857D01*
X173385700Y-28892857D02*
X173299985Y-28892857D01*
X173299985Y-28892857D02*
X173214271Y-28850000D01*
X173214271Y-28850000D02*
X173171414Y-28807143D01*
X173171414Y-28807143D02*
X173128557Y-28721428D01*
X173128557Y-28721428D02*
X173128557Y-28507143D01*
X173128557Y-28507143D02*
X173171414Y-28378571D01*
X174028557Y-27992857D02*
X173128557Y-27992857D01*
X173128557Y-27992857D02*
X173128557Y-27778571D01*
X173128557Y-27778571D02*
X173171414Y-27650000D01*
X173171414Y-27650000D02*
X173257128Y-27564285D01*
X173257128Y-27564285D02*
X173342842Y-27521428D01*
X173342842Y-27521428D02*
X173514271Y-27478571D01*
X173514271Y-27478571D02*
X173642842Y-27478571D01*
X173642842Y-27478571D02*
X173814271Y-27521428D01*
X173814271Y-27521428D02*
X173899985Y-27564285D01*
X173899985Y-27564285D02*
X173985700Y-27650000D01*
X173985700Y-27650000D02*
X174028557Y-27778571D01*
X174028557Y-27778571D02*
X174028557Y-27992857D01*
X173771414Y-27135714D02*
X173771414Y-26707143D01*
X174028557Y-27221428D02*
X173128557Y-26921428D01*
X173128557Y-26921428D02*
X174028557Y-26621428D01*
X40811904Y-47093604D02*
X40811904Y-45793604D01*
X40811904Y-45793604D02*
X41245238Y-46722176D01*
X41245238Y-46722176D02*
X41678571Y-45793604D01*
X41678571Y-45793604D02*
X41678571Y-47093604D01*
X42297618Y-47093604D02*
X42297618Y-45793604D01*
X42916666Y-47093604D02*
X42916666Y-45793604D01*
X42916666Y-45793604D02*
X43226190Y-45793604D01*
X43226190Y-45793604D02*
X43411904Y-45855509D01*
X43411904Y-45855509D02*
X43535714Y-45979319D01*
X43535714Y-45979319D02*
X43597619Y-46103128D01*
X43597619Y-46103128D02*
X43659523Y-46350747D01*
X43659523Y-46350747D02*
X43659523Y-46536461D01*
X43659523Y-46536461D02*
X43597619Y-46784080D01*
X43597619Y-46784080D02*
X43535714Y-46907890D01*
X43535714Y-46907890D02*
X43411904Y-47031700D01*
X43411904Y-47031700D02*
X43226190Y-47093604D01*
X43226190Y-47093604D02*
X42916666Y-47093604D01*
X44216666Y-47093604D02*
X44216666Y-45793604D01*
X45826190Y-47093604D02*
X45826190Y-45793604D01*
X46445238Y-47093604D02*
X46445238Y-45793604D01*
X46445238Y-45793604D02*
X47188095Y-47093604D01*
X47188095Y-47093604D02*
X47188095Y-45793604D01*
X67945237Y-47093604D02*
X67945237Y-45793604D01*
X67945237Y-45793604D02*
X68378571Y-46722176D01*
X68378571Y-46722176D02*
X68811904Y-45793604D01*
X68811904Y-45793604D02*
X68811904Y-47093604D01*
X69430951Y-47093604D02*
X69430951Y-45793604D01*
X70049999Y-47093604D02*
X70049999Y-45793604D01*
X70049999Y-45793604D02*
X70359523Y-45793604D01*
X70359523Y-45793604D02*
X70545237Y-45855509D01*
X70545237Y-45855509D02*
X70669047Y-45979319D01*
X70669047Y-45979319D02*
X70730952Y-46103128D01*
X70730952Y-46103128D02*
X70792856Y-46350747D01*
X70792856Y-46350747D02*
X70792856Y-46536461D01*
X70792856Y-46536461D02*
X70730952Y-46784080D01*
X70730952Y-46784080D02*
X70669047Y-46907890D01*
X70669047Y-46907890D02*
X70545237Y-47031700D01*
X70545237Y-47031700D02*
X70359523Y-47093604D01*
X70359523Y-47093604D02*
X70049999Y-47093604D01*
X71349999Y-47093604D02*
X71349999Y-45793604D01*
X73207142Y-45793604D02*
X73454761Y-45793604D01*
X73454761Y-45793604D02*
X73578571Y-45855509D01*
X73578571Y-45855509D02*
X73702380Y-45979319D01*
X73702380Y-45979319D02*
X73764285Y-46226938D01*
X73764285Y-46226938D02*
X73764285Y-46660271D01*
X73764285Y-46660271D02*
X73702380Y-46907890D01*
X73702380Y-46907890D02*
X73578571Y-47031700D01*
X73578571Y-47031700D02*
X73454761Y-47093604D01*
X73454761Y-47093604D02*
X73207142Y-47093604D01*
X73207142Y-47093604D02*
X73083333Y-47031700D01*
X73083333Y-47031700D02*
X72959523Y-46907890D01*
X72959523Y-46907890D02*
X72897619Y-46660271D01*
X72897619Y-46660271D02*
X72897619Y-46226938D01*
X72897619Y-46226938D02*
X72959523Y-45979319D01*
X72959523Y-45979319D02*
X73083333Y-45855509D01*
X73083333Y-45855509D02*
X73207142Y-45793604D01*
X74321428Y-45793604D02*
X74321428Y-46845985D01*
X74321428Y-46845985D02*
X74383333Y-46969795D01*
X74383333Y-46969795D02*
X74445238Y-47031700D01*
X74445238Y-47031700D02*
X74569047Y-47093604D01*
X74569047Y-47093604D02*
X74816666Y-47093604D01*
X74816666Y-47093604D02*
X74940476Y-47031700D01*
X74940476Y-47031700D02*
X75002381Y-46969795D01*
X75002381Y-46969795D02*
X75064285Y-46845985D01*
X75064285Y-46845985D02*
X75064285Y-45793604D01*
X75497619Y-45793604D02*
X76240476Y-45793604D01*
X75869048Y-47093604D02*
X75869048Y-45793604D01*
X159666667Y-61906533D02*
X160733334Y-61906533D01*
X160200000Y-62439866D02*
X160200000Y-61373200D01*
X108254761Y-72404819D02*
X107921428Y-71928628D01*
X107683333Y-72404819D02*
X107683333Y-71404819D01*
X107683333Y-71404819D02*
X108064285Y-71404819D01*
X108064285Y-71404819D02*
X108159523Y-71452438D01*
X108159523Y-71452438D02*
X108207142Y-71500057D01*
X108207142Y-71500057D02*
X108254761Y-71595295D01*
X108254761Y-71595295D02*
X108254761Y-71738152D01*
X108254761Y-71738152D02*
X108207142Y-71833390D01*
X108207142Y-71833390D02*
X108159523Y-71881009D01*
X108159523Y-71881009D02*
X108064285Y-71928628D01*
X108064285Y-71928628D02*
X107683333Y-71928628D01*
X108540476Y-71404819D02*
X108873809Y-72404819D01*
X108873809Y-72404819D02*
X109207142Y-71404819D01*
X109445238Y-71404819D02*
X110064285Y-71404819D01*
X110064285Y-71404819D02*
X109730952Y-71785771D01*
X109730952Y-71785771D02*
X109873809Y-71785771D01*
X109873809Y-71785771D02*
X109969047Y-71833390D01*
X109969047Y-71833390D02*
X110016666Y-71881009D01*
X110016666Y-71881009D02*
X110064285Y-71976247D01*
X110064285Y-71976247D02*
X110064285Y-72214342D01*
X110064285Y-72214342D02*
X110016666Y-72309580D01*
X110016666Y-72309580D02*
X109969047Y-72357200D01*
X109969047Y-72357200D02*
X109873809Y-72404819D01*
X109873809Y-72404819D02*
X109588095Y-72404819D01*
X109588095Y-72404819D02*
X109492857Y-72357200D01*
X109492857Y-72357200D02*
X109445238Y-72309580D01*
X156987142Y-141374819D02*
X156653809Y-140898628D01*
X156415714Y-141374819D02*
X156415714Y-140374819D01*
X156415714Y-140374819D02*
X156796666Y-140374819D01*
X156796666Y-140374819D02*
X156891904Y-140422438D01*
X156891904Y-140422438D02*
X156939523Y-140470057D01*
X156939523Y-140470057D02*
X156987142Y-140565295D01*
X156987142Y-140565295D02*
X156987142Y-140708152D01*
X156987142Y-140708152D02*
X156939523Y-140803390D01*
X156939523Y-140803390D02*
X156891904Y-140851009D01*
X156891904Y-140851009D02*
X156796666Y-140898628D01*
X156796666Y-140898628D02*
X156415714Y-140898628D01*
X157368095Y-140470057D02*
X157415714Y-140422438D01*
X157415714Y-140422438D02*
X157510952Y-140374819D01*
X157510952Y-140374819D02*
X157749047Y-140374819D01*
X157749047Y-140374819D02*
X157844285Y-140422438D01*
X157844285Y-140422438D02*
X157891904Y-140470057D01*
X157891904Y-140470057D02*
X157939523Y-140565295D01*
X157939523Y-140565295D02*
X157939523Y-140660533D01*
X157939523Y-140660533D02*
X157891904Y-140803390D01*
X157891904Y-140803390D02*
X157320476Y-141374819D01*
X157320476Y-141374819D02*
X157939523Y-141374819D01*
X158844285Y-140374819D02*
X158368095Y-140374819D01*
X158368095Y-140374819D02*
X158320476Y-140851009D01*
X158320476Y-140851009D02*
X158368095Y-140803390D01*
X158368095Y-140803390D02*
X158463333Y-140755771D01*
X158463333Y-140755771D02*
X158701428Y-140755771D01*
X158701428Y-140755771D02*
X158796666Y-140803390D01*
X158796666Y-140803390D02*
X158844285Y-140851009D01*
X158844285Y-140851009D02*
X158891904Y-140946247D01*
X158891904Y-140946247D02*
X158891904Y-141184342D01*
X158891904Y-141184342D02*
X158844285Y-141279580D01*
X158844285Y-141279580D02*
X158796666Y-141327200D01*
X158796666Y-141327200D02*
X158701428Y-141374819D01*
X158701428Y-141374819D02*
X158463333Y-141374819D01*
X158463333Y-141374819D02*
X158368095Y-141327200D01*
X158368095Y-141327200D02*
X158320476Y-141279580D01*
X60987142Y-117374819D02*
X60653809Y-116898628D01*
X60415714Y-117374819D02*
X60415714Y-116374819D01*
X60415714Y-116374819D02*
X60796666Y-116374819D01*
X60796666Y-116374819D02*
X60891904Y-116422438D01*
X60891904Y-116422438D02*
X60939523Y-116470057D01*
X60939523Y-116470057D02*
X60987142Y-116565295D01*
X60987142Y-116565295D02*
X60987142Y-116708152D01*
X60987142Y-116708152D02*
X60939523Y-116803390D01*
X60939523Y-116803390D02*
X60891904Y-116851009D01*
X60891904Y-116851009D02*
X60796666Y-116898628D01*
X60796666Y-116898628D02*
X60415714Y-116898628D01*
X61939523Y-117374819D02*
X61368095Y-117374819D01*
X61653809Y-117374819D02*
X61653809Y-116374819D01*
X61653809Y-116374819D02*
X61558571Y-116517676D01*
X61558571Y-116517676D02*
X61463333Y-116612914D01*
X61463333Y-116612914D02*
X61368095Y-116660533D01*
X62510952Y-116803390D02*
X62415714Y-116755771D01*
X62415714Y-116755771D02*
X62368095Y-116708152D01*
X62368095Y-116708152D02*
X62320476Y-116612914D01*
X62320476Y-116612914D02*
X62320476Y-116565295D01*
X62320476Y-116565295D02*
X62368095Y-116470057D01*
X62368095Y-116470057D02*
X62415714Y-116422438D01*
X62415714Y-116422438D02*
X62510952Y-116374819D01*
X62510952Y-116374819D02*
X62701428Y-116374819D01*
X62701428Y-116374819D02*
X62796666Y-116422438D01*
X62796666Y-116422438D02*
X62844285Y-116470057D01*
X62844285Y-116470057D02*
X62891904Y-116565295D01*
X62891904Y-116565295D02*
X62891904Y-116612914D01*
X62891904Y-116612914D02*
X62844285Y-116708152D01*
X62844285Y-116708152D02*
X62796666Y-116755771D01*
X62796666Y-116755771D02*
X62701428Y-116803390D01*
X62701428Y-116803390D02*
X62510952Y-116803390D01*
X62510952Y-116803390D02*
X62415714Y-116851009D01*
X62415714Y-116851009D02*
X62368095Y-116898628D01*
X62368095Y-116898628D02*
X62320476Y-116993866D01*
X62320476Y-116993866D02*
X62320476Y-117184342D01*
X62320476Y-117184342D02*
X62368095Y-117279580D01*
X62368095Y-117279580D02*
X62415714Y-117327200D01*
X62415714Y-117327200D02*
X62510952Y-117374819D01*
X62510952Y-117374819D02*
X62701428Y-117374819D01*
X62701428Y-117374819D02*
X62796666Y-117327200D01*
X62796666Y-117327200D02*
X62844285Y-117279580D01*
X62844285Y-117279580D02*
X62891904Y-117184342D01*
X62891904Y-117184342D02*
X62891904Y-116993866D01*
X62891904Y-116993866D02*
X62844285Y-116898628D01*
X62844285Y-116898628D02*
X62796666Y-116851009D01*
X62796666Y-116851009D02*
X62701428Y-116803390D01*
X36215238Y-139454819D02*
X36215238Y-140169104D01*
X36215238Y-140169104D02*
X36167619Y-140311961D01*
X36167619Y-140311961D02*
X36072381Y-140407200D01*
X36072381Y-140407200D02*
X35929524Y-140454819D01*
X35929524Y-140454819D02*
X35834286Y-140454819D01*
X36691429Y-140454819D02*
X36691429Y-139454819D01*
X36691429Y-139454819D02*
X37024762Y-140169104D01*
X37024762Y-140169104D02*
X37358095Y-139454819D01*
X37358095Y-139454819D02*
X37358095Y-140454819D01*
X37834286Y-140454819D02*
X37834286Y-139454819D01*
X37834286Y-139454819D02*
X38072381Y-139454819D01*
X38072381Y-139454819D02*
X38215238Y-139502438D01*
X38215238Y-139502438D02*
X38310476Y-139597676D01*
X38310476Y-139597676D02*
X38358095Y-139692914D01*
X38358095Y-139692914D02*
X38405714Y-139883390D01*
X38405714Y-139883390D02*
X38405714Y-140026247D01*
X38405714Y-140026247D02*
X38358095Y-140216723D01*
X38358095Y-140216723D02*
X38310476Y-140311961D01*
X38310476Y-140311961D02*
X38215238Y-140407200D01*
X38215238Y-140407200D02*
X38072381Y-140454819D01*
X38072381Y-140454819D02*
X37834286Y-140454819D01*
X39358095Y-140454819D02*
X38786667Y-140454819D01*
X39072381Y-140454819D02*
X39072381Y-139454819D01*
X39072381Y-139454819D02*
X38977143Y-139597676D01*
X38977143Y-139597676D02*
X38881905Y-139692914D01*
X38881905Y-139692914D02*
X38786667Y-139740533D01*
X38913333Y-63084819D02*
X38580000Y-62608628D01*
X38341905Y-63084819D02*
X38341905Y-62084819D01*
X38341905Y-62084819D02*
X38722857Y-62084819D01*
X38722857Y-62084819D02*
X38818095Y-62132438D01*
X38818095Y-62132438D02*
X38865714Y-62180057D01*
X38865714Y-62180057D02*
X38913333Y-62275295D01*
X38913333Y-62275295D02*
X38913333Y-62418152D01*
X38913333Y-62418152D02*
X38865714Y-62513390D01*
X38865714Y-62513390D02*
X38818095Y-62561009D01*
X38818095Y-62561009D02*
X38722857Y-62608628D01*
X38722857Y-62608628D02*
X38341905Y-62608628D01*
X39865714Y-63084819D02*
X39294286Y-63084819D01*
X39580000Y-63084819D02*
X39580000Y-62084819D01*
X39580000Y-62084819D02*
X39484762Y-62227676D01*
X39484762Y-62227676D02*
X39389524Y-62322914D01*
X39389524Y-62322914D02*
X39294286Y-62370533D01*
X107778571Y-120404819D02*
X107445238Y-119928628D01*
X107207143Y-120404819D02*
X107207143Y-119404819D01*
X107207143Y-119404819D02*
X107588095Y-119404819D01*
X107588095Y-119404819D02*
X107683333Y-119452438D01*
X107683333Y-119452438D02*
X107730952Y-119500057D01*
X107730952Y-119500057D02*
X107778571Y-119595295D01*
X107778571Y-119595295D02*
X107778571Y-119738152D01*
X107778571Y-119738152D02*
X107730952Y-119833390D01*
X107730952Y-119833390D02*
X107683333Y-119881009D01*
X107683333Y-119881009D02*
X107588095Y-119928628D01*
X107588095Y-119928628D02*
X107207143Y-119928628D01*
X108064286Y-119404819D02*
X108397619Y-120404819D01*
X108397619Y-120404819D02*
X108730952Y-119404819D01*
X109588095Y-120404819D02*
X109016667Y-120404819D01*
X109302381Y-120404819D02*
X109302381Y-119404819D01*
X109302381Y-119404819D02*
X109207143Y-119547676D01*
X109207143Y-119547676D02*
X109111905Y-119642914D01*
X109111905Y-119642914D02*
X109016667Y-119690533D01*
X110540476Y-120404819D02*
X109969048Y-120404819D01*
X110254762Y-120404819D02*
X110254762Y-119404819D01*
X110254762Y-119404819D02*
X110159524Y-119547676D01*
X110159524Y-119547676D02*
X110064286Y-119642914D01*
X110064286Y-119642914D02*
X109969048Y-119690533D01*
X131916666Y-29004819D02*
X131916666Y-29719104D01*
X131916666Y-29719104D02*
X131869047Y-29861961D01*
X131869047Y-29861961D02*
X131773809Y-29957200D01*
X131773809Y-29957200D02*
X131630952Y-30004819D01*
X131630952Y-30004819D02*
X131535714Y-30004819D01*
X132297619Y-29004819D02*
X132916666Y-29004819D01*
X132916666Y-29004819D02*
X132583333Y-29385771D01*
X132583333Y-29385771D02*
X132726190Y-29385771D01*
X132726190Y-29385771D02*
X132821428Y-29433390D01*
X132821428Y-29433390D02*
X132869047Y-29481009D01*
X132869047Y-29481009D02*
X132916666Y-29576247D01*
X132916666Y-29576247D02*
X132916666Y-29814342D01*
X132916666Y-29814342D02*
X132869047Y-29909580D01*
X132869047Y-29909580D02*
X132821428Y-29957200D01*
X132821428Y-29957200D02*
X132726190Y-30004819D01*
X132726190Y-30004819D02*
X132440476Y-30004819D01*
X132440476Y-30004819D02*
X132345238Y-29957200D01*
X132345238Y-29957200D02*
X132297619Y-29909580D01*
X139778571Y-144404819D02*
X139445238Y-143928628D01*
X139207143Y-144404819D02*
X139207143Y-143404819D01*
X139207143Y-143404819D02*
X139588095Y-143404819D01*
X139588095Y-143404819D02*
X139683333Y-143452438D01*
X139683333Y-143452438D02*
X139730952Y-143500057D01*
X139730952Y-143500057D02*
X139778571Y-143595295D01*
X139778571Y-143595295D02*
X139778571Y-143738152D01*
X139778571Y-143738152D02*
X139730952Y-143833390D01*
X139730952Y-143833390D02*
X139683333Y-143881009D01*
X139683333Y-143881009D02*
X139588095Y-143928628D01*
X139588095Y-143928628D02*
X139207143Y-143928628D01*
X140064286Y-143404819D02*
X140397619Y-144404819D01*
X140397619Y-144404819D02*
X140730952Y-143404819D01*
X141588095Y-144404819D02*
X141016667Y-144404819D01*
X141302381Y-144404819D02*
X141302381Y-143404819D01*
X141302381Y-143404819D02*
X141207143Y-143547676D01*
X141207143Y-143547676D02*
X141111905Y-143642914D01*
X141111905Y-143642914D02*
X141016667Y-143690533D01*
X142445238Y-143404819D02*
X142254762Y-143404819D01*
X142254762Y-143404819D02*
X142159524Y-143452438D01*
X142159524Y-143452438D02*
X142111905Y-143500057D01*
X142111905Y-143500057D02*
X142016667Y-143642914D01*
X142016667Y-143642914D02*
X141969048Y-143833390D01*
X141969048Y-143833390D02*
X141969048Y-144214342D01*
X141969048Y-144214342D02*
X142016667Y-144309580D01*
X142016667Y-144309580D02*
X142064286Y-144357200D01*
X142064286Y-144357200D02*
X142159524Y-144404819D01*
X142159524Y-144404819D02*
X142350000Y-144404819D01*
X142350000Y-144404819D02*
X142445238Y-144357200D01*
X142445238Y-144357200D02*
X142492857Y-144309580D01*
X142492857Y-144309580D02*
X142540476Y-144214342D01*
X142540476Y-144214342D02*
X142540476Y-143976247D01*
X142540476Y-143976247D02*
X142492857Y-143881009D01*
X142492857Y-143881009D02*
X142445238Y-143833390D01*
X142445238Y-143833390D02*
X142350000Y-143785771D01*
X142350000Y-143785771D02*
X142159524Y-143785771D01*
X142159524Y-143785771D02*
X142064286Y-143833390D01*
X142064286Y-143833390D02*
X142016667Y-143881009D01*
X142016667Y-143881009D02*
X141969048Y-143976247D01*
X169463333Y-81374819D02*
X169130000Y-80898628D01*
X168891905Y-81374819D02*
X168891905Y-80374819D01*
X168891905Y-80374819D02*
X169272857Y-80374819D01*
X169272857Y-80374819D02*
X169368095Y-80422438D01*
X169368095Y-80422438D02*
X169415714Y-80470057D01*
X169415714Y-80470057D02*
X169463333Y-80565295D01*
X169463333Y-80565295D02*
X169463333Y-80708152D01*
X169463333Y-80708152D02*
X169415714Y-80803390D01*
X169415714Y-80803390D02*
X169368095Y-80851009D01*
X169368095Y-80851009D02*
X169272857Y-80898628D01*
X169272857Y-80898628D02*
X168891905Y-80898628D01*
X170320476Y-80374819D02*
X170130000Y-80374819D01*
X170130000Y-80374819D02*
X170034762Y-80422438D01*
X170034762Y-80422438D02*
X169987143Y-80470057D01*
X169987143Y-80470057D02*
X169891905Y-80612914D01*
X169891905Y-80612914D02*
X169844286Y-80803390D01*
X169844286Y-80803390D02*
X169844286Y-81184342D01*
X169844286Y-81184342D02*
X169891905Y-81279580D01*
X169891905Y-81279580D02*
X169939524Y-81327200D01*
X169939524Y-81327200D02*
X170034762Y-81374819D01*
X170034762Y-81374819D02*
X170225238Y-81374819D01*
X170225238Y-81374819D02*
X170320476Y-81327200D01*
X170320476Y-81327200D02*
X170368095Y-81279580D01*
X170368095Y-81279580D02*
X170415714Y-81184342D01*
X170415714Y-81184342D02*
X170415714Y-80946247D01*
X170415714Y-80946247D02*
X170368095Y-80851009D01*
X170368095Y-80851009D02*
X170320476Y-80803390D01*
X170320476Y-80803390D02*
X170225238Y-80755771D01*
X170225238Y-80755771D02*
X170034762Y-80755771D01*
X170034762Y-80755771D02*
X169939524Y-80803390D01*
X169939524Y-80803390D02*
X169891905Y-80851009D01*
X169891905Y-80851009D02*
X169844286Y-80946247D01*
X45176666Y-91454819D02*
X45176666Y-92169104D01*
X45176666Y-92169104D02*
X45129047Y-92311961D01*
X45129047Y-92311961D02*
X45033809Y-92407200D01*
X45033809Y-92407200D02*
X44890952Y-92454819D01*
X44890952Y-92454819D02*
X44795714Y-92454819D01*
X45652857Y-92454819D02*
X45652857Y-91454819D01*
X45652857Y-91454819D02*
X45986190Y-92169104D01*
X45986190Y-92169104D02*
X46319523Y-91454819D01*
X46319523Y-91454819D02*
X46319523Y-92454819D01*
X46748095Y-92169104D02*
X47224285Y-92169104D01*
X46652857Y-92454819D02*
X46986190Y-91454819D01*
X46986190Y-91454819D02*
X47319523Y-92454819D01*
X48176666Y-92454819D02*
X47605238Y-92454819D01*
X47890952Y-92454819D02*
X47890952Y-91454819D01*
X47890952Y-91454819D02*
X47795714Y-91597676D01*
X47795714Y-91597676D02*
X47700476Y-91692914D01*
X47700476Y-91692914D02*
X47605238Y-91740533D01*
X100985238Y-139454819D02*
X100985238Y-140169104D01*
X100985238Y-140169104D02*
X100937619Y-140311961D01*
X100937619Y-140311961D02*
X100842381Y-140407200D01*
X100842381Y-140407200D02*
X100699524Y-140454819D01*
X100699524Y-140454819D02*
X100604286Y-140454819D01*
X101461429Y-140454819D02*
X101461429Y-139454819D01*
X101461429Y-139454819D02*
X101794762Y-140169104D01*
X101794762Y-140169104D02*
X102128095Y-139454819D01*
X102128095Y-139454819D02*
X102128095Y-140454819D01*
X102604286Y-140454819D02*
X102604286Y-139454819D01*
X102604286Y-139454819D02*
X102842381Y-139454819D01*
X102842381Y-139454819D02*
X102985238Y-139502438D01*
X102985238Y-139502438D02*
X103080476Y-139597676D01*
X103080476Y-139597676D02*
X103128095Y-139692914D01*
X103128095Y-139692914D02*
X103175714Y-139883390D01*
X103175714Y-139883390D02*
X103175714Y-140026247D01*
X103175714Y-140026247D02*
X103128095Y-140216723D01*
X103128095Y-140216723D02*
X103080476Y-140311961D01*
X103080476Y-140311961D02*
X102985238Y-140407200D01*
X102985238Y-140407200D02*
X102842381Y-140454819D01*
X102842381Y-140454819D02*
X102604286Y-140454819D01*
X104032857Y-139788152D02*
X104032857Y-140454819D01*
X103794762Y-139407200D02*
X103556667Y-140121485D01*
X103556667Y-140121485D02*
X104175714Y-140121485D01*
X72913333Y-57084819D02*
X72580000Y-56608628D01*
X72341905Y-57084819D02*
X72341905Y-56084819D01*
X72341905Y-56084819D02*
X72722857Y-56084819D01*
X72722857Y-56084819D02*
X72818095Y-56132438D01*
X72818095Y-56132438D02*
X72865714Y-56180057D01*
X72865714Y-56180057D02*
X72913333Y-56275295D01*
X72913333Y-56275295D02*
X72913333Y-56418152D01*
X72913333Y-56418152D02*
X72865714Y-56513390D01*
X72865714Y-56513390D02*
X72818095Y-56561009D01*
X72818095Y-56561009D02*
X72722857Y-56608628D01*
X72722857Y-56608628D02*
X72341905Y-56608628D01*
X73770476Y-56418152D02*
X73770476Y-57084819D01*
X73532381Y-56037200D02*
X73294286Y-56751485D01*
X73294286Y-56751485D02*
X73913333Y-56751485D01*
X46908095Y-171834819D02*
X46908095Y-172644342D01*
X46908095Y-172644342D02*
X46955714Y-172739580D01*
X46955714Y-172739580D02*
X47003333Y-172787200D01*
X47003333Y-172787200D02*
X47098571Y-172834819D01*
X47098571Y-172834819D02*
X47289047Y-172834819D01*
X47289047Y-172834819D02*
X47384285Y-172787200D01*
X47384285Y-172787200D02*
X47431904Y-172739580D01*
X47431904Y-172739580D02*
X47479523Y-172644342D01*
X47479523Y-172644342D02*
X47479523Y-171834819D01*
X47908095Y-171930057D02*
X47955714Y-171882438D01*
X47955714Y-171882438D02*
X48050952Y-171834819D01*
X48050952Y-171834819D02*
X48289047Y-171834819D01*
X48289047Y-171834819D02*
X48384285Y-171882438D01*
X48384285Y-171882438D02*
X48431904Y-171930057D01*
X48431904Y-171930057D02*
X48479523Y-172025295D01*
X48479523Y-172025295D02*
X48479523Y-172120533D01*
X48479523Y-172120533D02*
X48431904Y-172263390D01*
X48431904Y-172263390D02*
X47860476Y-172834819D01*
X47860476Y-172834819D02*
X48479523Y-172834819D01*
X116437142Y-170084819D02*
X116103809Y-169608628D01*
X115865714Y-170084819D02*
X115865714Y-169084819D01*
X115865714Y-169084819D02*
X116246666Y-169084819D01*
X116246666Y-169084819D02*
X116341904Y-169132438D01*
X116341904Y-169132438D02*
X116389523Y-169180057D01*
X116389523Y-169180057D02*
X116437142Y-169275295D01*
X116437142Y-169275295D02*
X116437142Y-169418152D01*
X116437142Y-169418152D02*
X116389523Y-169513390D01*
X116389523Y-169513390D02*
X116341904Y-169561009D01*
X116341904Y-169561009D02*
X116246666Y-169608628D01*
X116246666Y-169608628D02*
X115865714Y-169608628D01*
X116818095Y-169180057D02*
X116865714Y-169132438D01*
X116865714Y-169132438D02*
X116960952Y-169084819D01*
X116960952Y-169084819D02*
X117199047Y-169084819D01*
X117199047Y-169084819D02*
X117294285Y-169132438D01*
X117294285Y-169132438D02*
X117341904Y-169180057D01*
X117341904Y-169180057D02*
X117389523Y-169275295D01*
X117389523Y-169275295D02*
X117389523Y-169370533D01*
X117389523Y-169370533D02*
X117341904Y-169513390D01*
X117341904Y-169513390D02*
X116770476Y-170084819D01*
X116770476Y-170084819D02*
X117389523Y-170084819D01*
X117722857Y-169084819D02*
X118389523Y-169084819D01*
X118389523Y-169084819D02*
X117960952Y-170084819D01*
X98857142Y-127859580D02*
X98809523Y-127907200D01*
X98809523Y-127907200D02*
X98666666Y-127954819D01*
X98666666Y-127954819D02*
X98571428Y-127954819D01*
X98571428Y-127954819D02*
X98428571Y-127907200D01*
X98428571Y-127907200D02*
X98333333Y-127811961D01*
X98333333Y-127811961D02*
X98285714Y-127716723D01*
X98285714Y-127716723D02*
X98238095Y-127526247D01*
X98238095Y-127526247D02*
X98238095Y-127383390D01*
X98238095Y-127383390D02*
X98285714Y-127192914D01*
X98285714Y-127192914D02*
X98333333Y-127097676D01*
X98333333Y-127097676D02*
X98428571Y-127002438D01*
X98428571Y-127002438D02*
X98571428Y-126954819D01*
X98571428Y-126954819D02*
X98666666Y-126954819D01*
X98666666Y-126954819D02*
X98809523Y-127002438D01*
X98809523Y-127002438D02*
X98857142Y-127050057D01*
X99809523Y-127954819D02*
X99238095Y-127954819D01*
X99523809Y-127954819D02*
X99523809Y-126954819D01*
X99523809Y-126954819D02*
X99428571Y-127097676D01*
X99428571Y-127097676D02*
X99333333Y-127192914D01*
X99333333Y-127192914D02*
X99238095Y-127240533D01*
X100761904Y-127954819D02*
X100190476Y-127954819D01*
X100476190Y-127954819D02*
X100476190Y-126954819D01*
X100476190Y-126954819D02*
X100380952Y-127097676D01*
X100380952Y-127097676D02*
X100285714Y-127192914D01*
X100285714Y-127192914D02*
X100190476Y-127240533D01*
X162857142Y-127859580D02*
X162809523Y-127907200D01*
X162809523Y-127907200D02*
X162666666Y-127954819D01*
X162666666Y-127954819D02*
X162571428Y-127954819D01*
X162571428Y-127954819D02*
X162428571Y-127907200D01*
X162428571Y-127907200D02*
X162333333Y-127811961D01*
X162333333Y-127811961D02*
X162285714Y-127716723D01*
X162285714Y-127716723D02*
X162238095Y-127526247D01*
X162238095Y-127526247D02*
X162238095Y-127383390D01*
X162238095Y-127383390D02*
X162285714Y-127192914D01*
X162285714Y-127192914D02*
X162333333Y-127097676D01*
X162333333Y-127097676D02*
X162428571Y-127002438D01*
X162428571Y-127002438D02*
X162571428Y-126954819D01*
X162571428Y-126954819D02*
X162666666Y-126954819D01*
X162666666Y-126954819D02*
X162809523Y-127002438D01*
X162809523Y-127002438D02*
X162857142Y-127050057D01*
X163809523Y-127954819D02*
X163238095Y-127954819D01*
X163523809Y-127954819D02*
X163523809Y-126954819D01*
X163523809Y-126954819D02*
X163428571Y-127097676D01*
X163428571Y-127097676D02*
X163333333Y-127192914D01*
X163333333Y-127192914D02*
X163238095Y-127240533D01*
X164142857Y-126954819D02*
X164761904Y-126954819D01*
X164761904Y-126954819D02*
X164428571Y-127335771D01*
X164428571Y-127335771D02*
X164571428Y-127335771D01*
X164571428Y-127335771D02*
X164666666Y-127383390D01*
X164666666Y-127383390D02*
X164714285Y-127431009D01*
X164714285Y-127431009D02*
X164761904Y-127526247D01*
X164761904Y-127526247D02*
X164761904Y-127764342D01*
X164761904Y-127764342D02*
X164714285Y-127859580D01*
X164714285Y-127859580D02*
X164666666Y-127907200D01*
X164666666Y-127907200D02*
X164571428Y-127954819D01*
X164571428Y-127954819D02*
X164285714Y-127954819D01*
X164285714Y-127954819D02*
X164190476Y-127907200D01*
X164190476Y-127907200D02*
X164142857Y-127859580D01*
X176301905Y-129184819D02*
X176301905Y-128184819D01*
X176301905Y-128184819D02*
X176540000Y-128184819D01*
X176540000Y-128184819D02*
X176682857Y-128232438D01*
X176682857Y-128232438D02*
X176778095Y-128327676D01*
X176778095Y-128327676D02*
X176825714Y-128422914D01*
X176825714Y-128422914D02*
X176873333Y-128613390D01*
X176873333Y-128613390D02*
X176873333Y-128756247D01*
X176873333Y-128756247D02*
X176825714Y-128946723D01*
X176825714Y-128946723D02*
X176778095Y-129041961D01*
X176778095Y-129041961D02*
X176682857Y-129137200D01*
X176682857Y-129137200D02*
X176540000Y-129184819D01*
X176540000Y-129184819D02*
X176301905Y-129184819D01*
X177778095Y-128184819D02*
X177301905Y-128184819D01*
X177301905Y-128184819D02*
X177254286Y-128661009D01*
X177254286Y-128661009D02*
X177301905Y-128613390D01*
X177301905Y-128613390D02*
X177397143Y-128565771D01*
X177397143Y-128565771D02*
X177635238Y-128565771D01*
X177635238Y-128565771D02*
X177730476Y-128613390D01*
X177730476Y-128613390D02*
X177778095Y-128661009D01*
X177778095Y-128661009D02*
X177825714Y-128756247D01*
X177825714Y-128756247D02*
X177825714Y-128994342D01*
X177825714Y-128994342D02*
X177778095Y-129089580D01*
X177778095Y-129089580D02*
X177730476Y-129137200D01*
X177730476Y-129137200D02*
X177635238Y-129184819D01*
X177635238Y-129184819D02*
X177397143Y-129184819D01*
X177397143Y-129184819D02*
X177301905Y-129137200D01*
X177301905Y-129137200D02*
X177254286Y-129089580D01*
X130857142Y-151859580D02*
X130809523Y-151907200D01*
X130809523Y-151907200D02*
X130666666Y-151954819D01*
X130666666Y-151954819D02*
X130571428Y-151954819D01*
X130571428Y-151954819D02*
X130428571Y-151907200D01*
X130428571Y-151907200D02*
X130333333Y-151811961D01*
X130333333Y-151811961D02*
X130285714Y-151716723D01*
X130285714Y-151716723D02*
X130238095Y-151526247D01*
X130238095Y-151526247D02*
X130238095Y-151383390D01*
X130238095Y-151383390D02*
X130285714Y-151192914D01*
X130285714Y-151192914D02*
X130333333Y-151097676D01*
X130333333Y-151097676D02*
X130428571Y-151002438D01*
X130428571Y-151002438D02*
X130571428Y-150954819D01*
X130571428Y-150954819D02*
X130666666Y-150954819D01*
X130666666Y-150954819D02*
X130809523Y-151002438D01*
X130809523Y-151002438D02*
X130857142Y-151050057D01*
X131809523Y-151954819D02*
X131238095Y-151954819D01*
X131523809Y-151954819D02*
X131523809Y-150954819D01*
X131523809Y-150954819D02*
X131428571Y-151097676D01*
X131428571Y-151097676D02*
X131333333Y-151192914D01*
X131333333Y-151192914D02*
X131238095Y-151240533D01*
X132666666Y-150954819D02*
X132476190Y-150954819D01*
X132476190Y-150954819D02*
X132380952Y-151002438D01*
X132380952Y-151002438D02*
X132333333Y-151050057D01*
X132333333Y-151050057D02*
X132238095Y-151192914D01*
X132238095Y-151192914D02*
X132190476Y-151383390D01*
X132190476Y-151383390D02*
X132190476Y-151764342D01*
X132190476Y-151764342D02*
X132238095Y-151859580D01*
X132238095Y-151859580D02*
X132285714Y-151907200D01*
X132285714Y-151907200D02*
X132380952Y-151954819D01*
X132380952Y-151954819D02*
X132571428Y-151954819D01*
X132571428Y-151954819D02*
X132666666Y-151907200D01*
X132666666Y-151907200D02*
X132714285Y-151859580D01*
X132714285Y-151859580D02*
X132761904Y-151764342D01*
X132761904Y-151764342D02*
X132761904Y-151526247D01*
X132761904Y-151526247D02*
X132714285Y-151431009D01*
X132714285Y-151431009D02*
X132666666Y-151383390D01*
X132666666Y-151383390D02*
X132571428Y-151335771D01*
X132571428Y-151335771D02*
X132380952Y-151335771D01*
X132380952Y-151335771D02*
X132285714Y-151383390D01*
X132285714Y-151383390D02*
X132238095Y-151431009D01*
X132238095Y-151431009D02*
X132190476Y-151526247D01*
X66857142Y-151859580D02*
X66809523Y-151907200D01*
X66809523Y-151907200D02*
X66666666Y-151954819D01*
X66666666Y-151954819D02*
X66571428Y-151954819D01*
X66571428Y-151954819D02*
X66428571Y-151907200D01*
X66428571Y-151907200D02*
X66333333Y-151811961D01*
X66333333Y-151811961D02*
X66285714Y-151716723D01*
X66285714Y-151716723D02*
X66238095Y-151526247D01*
X66238095Y-151526247D02*
X66238095Y-151383390D01*
X66238095Y-151383390D02*
X66285714Y-151192914D01*
X66285714Y-151192914D02*
X66333333Y-151097676D01*
X66333333Y-151097676D02*
X66428571Y-151002438D01*
X66428571Y-151002438D02*
X66571428Y-150954819D01*
X66571428Y-150954819D02*
X66666666Y-150954819D01*
X66666666Y-150954819D02*
X66809523Y-151002438D01*
X66809523Y-151002438D02*
X66857142Y-151050057D01*
X67809523Y-151954819D02*
X67238095Y-151954819D01*
X67523809Y-151954819D02*
X67523809Y-150954819D01*
X67523809Y-150954819D02*
X67428571Y-151097676D01*
X67428571Y-151097676D02*
X67333333Y-151192914D01*
X67333333Y-151192914D02*
X67238095Y-151240533D01*
X68666666Y-151288152D02*
X68666666Y-151954819D01*
X68428571Y-150907200D02*
X68190476Y-151621485D01*
X68190476Y-151621485D02*
X68809523Y-151621485D01*
X169463333Y-103374819D02*
X169130000Y-102898628D01*
X168891905Y-103374819D02*
X168891905Y-102374819D01*
X168891905Y-102374819D02*
X169272857Y-102374819D01*
X169272857Y-102374819D02*
X169368095Y-102422438D01*
X169368095Y-102422438D02*
X169415714Y-102470057D01*
X169415714Y-102470057D02*
X169463333Y-102565295D01*
X169463333Y-102565295D02*
X169463333Y-102708152D01*
X169463333Y-102708152D02*
X169415714Y-102803390D01*
X169415714Y-102803390D02*
X169368095Y-102851009D01*
X169368095Y-102851009D02*
X169272857Y-102898628D01*
X169272857Y-102898628D02*
X168891905Y-102898628D01*
X169796667Y-102374819D02*
X170463333Y-102374819D01*
X170463333Y-102374819D02*
X170034762Y-103374819D01*
X37071905Y-57334819D02*
X37071905Y-56334819D01*
X37071905Y-56334819D02*
X37310000Y-56334819D01*
X37310000Y-56334819D02*
X37452857Y-56382438D01*
X37452857Y-56382438D02*
X37548095Y-56477676D01*
X37548095Y-56477676D02*
X37595714Y-56572914D01*
X37595714Y-56572914D02*
X37643333Y-56763390D01*
X37643333Y-56763390D02*
X37643333Y-56906247D01*
X37643333Y-56906247D02*
X37595714Y-57096723D01*
X37595714Y-57096723D02*
X37548095Y-57191961D01*
X37548095Y-57191961D02*
X37452857Y-57287200D01*
X37452857Y-57287200D02*
X37310000Y-57334819D01*
X37310000Y-57334819D02*
X37071905Y-57334819D01*
X38595714Y-57334819D02*
X38024286Y-57334819D01*
X38310000Y-57334819D02*
X38310000Y-56334819D01*
X38310000Y-56334819D02*
X38214762Y-56477676D01*
X38214762Y-56477676D02*
X38119524Y-56572914D01*
X38119524Y-56572914D02*
X38024286Y-56620533D01*
X33738095Y-57654819D02*
X33738095Y-56654819D01*
X34309523Y-57654819D02*
X33880952Y-57083390D01*
X34309523Y-56654819D02*
X33738095Y-57226247D01*
X99333333Y-103859580D02*
X99285714Y-103907200D01*
X99285714Y-103907200D02*
X99142857Y-103954819D01*
X99142857Y-103954819D02*
X99047619Y-103954819D01*
X99047619Y-103954819D02*
X98904762Y-103907200D01*
X98904762Y-103907200D02*
X98809524Y-103811961D01*
X98809524Y-103811961D02*
X98761905Y-103716723D01*
X98761905Y-103716723D02*
X98714286Y-103526247D01*
X98714286Y-103526247D02*
X98714286Y-103383390D01*
X98714286Y-103383390D02*
X98761905Y-103192914D01*
X98761905Y-103192914D02*
X98809524Y-103097676D01*
X98809524Y-103097676D02*
X98904762Y-103002438D01*
X98904762Y-103002438D02*
X99047619Y-102954819D01*
X99047619Y-102954819D02*
X99142857Y-102954819D01*
X99142857Y-102954819D02*
X99285714Y-103002438D01*
X99285714Y-103002438D02*
X99333333Y-103050057D01*
X99666667Y-102954819D02*
X100333333Y-102954819D01*
X100333333Y-102954819D02*
X99904762Y-103954819D01*
X92987142Y-141374819D02*
X92653809Y-140898628D01*
X92415714Y-141374819D02*
X92415714Y-140374819D01*
X92415714Y-140374819D02*
X92796666Y-140374819D01*
X92796666Y-140374819D02*
X92891904Y-140422438D01*
X92891904Y-140422438D02*
X92939523Y-140470057D01*
X92939523Y-140470057D02*
X92987142Y-140565295D01*
X92987142Y-140565295D02*
X92987142Y-140708152D01*
X92987142Y-140708152D02*
X92939523Y-140803390D01*
X92939523Y-140803390D02*
X92891904Y-140851009D01*
X92891904Y-140851009D02*
X92796666Y-140898628D01*
X92796666Y-140898628D02*
X92415714Y-140898628D01*
X93368095Y-140470057D02*
X93415714Y-140422438D01*
X93415714Y-140422438D02*
X93510952Y-140374819D01*
X93510952Y-140374819D02*
X93749047Y-140374819D01*
X93749047Y-140374819D02*
X93844285Y-140422438D01*
X93844285Y-140422438D02*
X93891904Y-140470057D01*
X93891904Y-140470057D02*
X93939523Y-140565295D01*
X93939523Y-140565295D02*
X93939523Y-140660533D01*
X93939523Y-140660533D02*
X93891904Y-140803390D01*
X93891904Y-140803390D02*
X93320476Y-141374819D01*
X93320476Y-141374819D02*
X93939523Y-141374819D01*
X94272857Y-140374819D02*
X94891904Y-140374819D01*
X94891904Y-140374819D02*
X94558571Y-140755771D01*
X94558571Y-140755771D02*
X94701428Y-140755771D01*
X94701428Y-140755771D02*
X94796666Y-140803390D01*
X94796666Y-140803390D02*
X94844285Y-140851009D01*
X94844285Y-140851009D02*
X94891904Y-140946247D01*
X94891904Y-140946247D02*
X94891904Y-141184342D01*
X94891904Y-141184342D02*
X94844285Y-141279580D01*
X94844285Y-141279580D02*
X94796666Y-141327200D01*
X94796666Y-141327200D02*
X94701428Y-141374819D01*
X94701428Y-141374819D02*
X94415714Y-141374819D01*
X94415714Y-141374819D02*
X94320476Y-141327200D01*
X94320476Y-141327200D02*
X94272857Y-141279580D01*
X60987142Y-69374819D02*
X60653809Y-68898628D01*
X60415714Y-69374819D02*
X60415714Y-68374819D01*
X60415714Y-68374819D02*
X60796666Y-68374819D01*
X60796666Y-68374819D02*
X60891904Y-68422438D01*
X60891904Y-68422438D02*
X60939523Y-68470057D01*
X60939523Y-68470057D02*
X60987142Y-68565295D01*
X60987142Y-68565295D02*
X60987142Y-68708152D01*
X60987142Y-68708152D02*
X60939523Y-68803390D01*
X60939523Y-68803390D02*
X60891904Y-68851009D01*
X60891904Y-68851009D02*
X60796666Y-68898628D01*
X60796666Y-68898628D02*
X60415714Y-68898628D01*
X61939523Y-69374819D02*
X61368095Y-69374819D01*
X61653809Y-69374819D02*
X61653809Y-68374819D01*
X61653809Y-68374819D02*
X61558571Y-68517676D01*
X61558571Y-68517676D02*
X61463333Y-68612914D01*
X61463333Y-68612914D02*
X61368095Y-68660533D01*
X62558571Y-68374819D02*
X62653809Y-68374819D01*
X62653809Y-68374819D02*
X62749047Y-68422438D01*
X62749047Y-68422438D02*
X62796666Y-68470057D01*
X62796666Y-68470057D02*
X62844285Y-68565295D01*
X62844285Y-68565295D02*
X62891904Y-68755771D01*
X62891904Y-68755771D02*
X62891904Y-68993866D01*
X62891904Y-68993866D02*
X62844285Y-69184342D01*
X62844285Y-69184342D02*
X62796666Y-69279580D01*
X62796666Y-69279580D02*
X62749047Y-69327200D01*
X62749047Y-69327200D02*
X62653809Y-69374819D01*
X62653809Y-69374819D02*
X62558571Y-69374819D01*
X62558571Y-69374819D02*
X62463333Y-69327200D01*
X62463333Y-69327200D02*
X62415714Y-69279580D01*
X62415714Y-69279580D02*
X62368095Y-69184342D01*
X62368095Y-69184342D02*
X62320476Y-68993866D01*
X62320476Y-68993866D02*
X62320476Y-68755771D01*
X62320476Y-68755771D02*
X62368095Y-68565295D01*
X62368095Y-68565295D02*
X62415714Y-68470057D01*
X62415714Y-68470057D02*
X62463333Y-68422438D01*
X62463333Y-68422438D02*
X62558571Y-68374819D01*
X68036666Y-91454819D02*
X68036666Y-92169104D01*
X68036666Y-92169104D02*
X67989047Y-92311961D01*
X67989047Y-92311961D02*
X67893809Y-92407200D01*
X67893809Y-92407200D02*
X67750952Y-92454819D01*
X67750952Y-92454819D02*
X67655714Y-92454819D01*
X68512857Y-92454819D02*
X68512857Y-91454819D01*
X68512857Y-91454819D02*
X68846190Y-92169104D01*
X68846190Y-92169104D02*
X69179523Y-91454819D01*
X69179523Y-91454819D02*
X69179523Y-92454819D01*
X69608095Y-92169104D02*
X70084285Y-92169104D01*
X69512857Y-92454819D02*
X69846190Y-91454819D01*
X69846190Y-91454819D02*
X70179523Y-92454819D01*
X70465238Y-91550057D02*
X70512857Y-91502438D01*
X70512857Y-91502438D02*
X70608095Y-91454819D01*
X70608095Y-91454819D02*
X70846190Y-91454819D01*
X70846190Y-91454819D02*
X70941428Y-91502438D01*
X70941428Y-91502438D02*
X70989047Y-91550057D01*
X70989047Y-91550057D02*
X71036666Y-91645295D01*
X71036666Y-91645295D02*
X71036666Y-91740533D01*
X71036666Y-91740533D02*
X70989047Y-91883390D01*
X70989047Y-91883390D02*
X70417619Y-92454819D01*
X70417619Y-92454819D02*
X71036666Y-92454819D01*
X140254761Y-72404819D02*
X139921428Y-71928628D01*
X139683333Y-72404819D02*
X139683333Y-71404819D01*
X139683333Y-71404819D02*
X140064285Y-71404819D01*
X140064285Y-71404819D02*
X140159523Y-71452438D01*
X140159523Y-71452438D02*
X140207142Y-71500057D01*
X140207142Y-71500057D02*
X140254761Y-71595295D01*
X140254761Y-71595295D02*
X140254761Y-71738152D01*
X140254761Y-71738152D02*
X140207142Y-71833390D01*
X140207142Y-71833390D02*
X140159523Y-71881009D01*
X140159523Y-71881009D02*
X140064285Y-71928628D01*
X140064285Y-71928628D02*
X139683333Y-71928628D01*
X140540476Y-71404819D02*
X140873809Y-72404819D01*
X140873809Y-72404819D02*
X141207142Y-71404819D01*
X141969047Y-71738152D02*
X141969047Y-72404819D01*
X141730952Y-71357200D02*
X141492857Y-72071485D01*
X141492857Y-72071485D02*
X142111904Y-72071485D01*
X71666666Y-43454819D02*
X71666666Y-44169104D01*
X71666666Y-44169104D02*
X71619047Y-44311961D01*
X71619047Y-44311961D02*
X71523809Y-44407200D01*
X71523809Y-44407200D02*
X71380952Y-44454819D01*
X71380952Y-44454819D02*
X71285714Y-44454819D01*
X72095238Y-43550057D02*
X72142857Y-43502438D01*
X72142857Y-43502438D02*
X72238095Y-43454819D01*
X72238095Y-43454819D02*
X72476190Y-43454819D01*
X72476190Y-43454819D02*
X72571428Y-43502438D01*
X72571428Y-43502438D02*
X72619047Y-43550057D01*
X72619047Y-43550057D02*
X72666666Y-43645295D01*
X72666666Y-43645295D02*
X72666666Y-43740533D01*
X72666666Y-43740533D02*
X72619047Y-43883390D01*
X72619047Y-43883390D02*
X72047619Y-44454819D01*
X72047619Y-44454819D02*
X72666666Y-44454819D01*
X90896666Y-91454819D02*
X90896666Y-92169104D01*
X90896666Y-92169104D02*
X90849047Y-92311961D01*
X90849047Y-92311961D02*
X90753809Y-92407200D01*
X90753809Y-92407200D02*
X90610952Y-92454819D01*
X90610952Y-92454819D02*
X90515714Y-92454819D01*
X91372857Y-92454819D02*
X91372857Y-91454819D01*
X91372857Y-91454819D02*
X91706190Y-92169104D01*
X91706190Y-92169104D02*
X92039523Y-91454819D01*
X92039523Y-91454819D02*
X92039523Y-92454819D01*
X92468095Y-92169104D02*
X92944285Y-92169104D01*
X92372857Y-92454819D02*
X92706190Y-91454819D01*
X92706190Y-91454819D02*
X93039523Y-92454819D01*
X93277619Y-91454819D02*
X93896666Y-91454819D01*
X93896666Y-91454819D02*
X93563333Y-91835771D01*
X93563333Y-91835771D02*
X93706190Y-91835771D01*
X93706190Y-91835771D02*
X93801428Y-91883390D01*
X93801428Y-91883390D02*
X93849047Y-91931009D01*
X93849047Y-91931009D02*
X93896666Y-92026247D01*
X93896666Y-92026247D02*
X93896666Y-92264342D01*
X93896666Y-92264342D02*
X93849047Y-92359580D01*
X93849047Y-92359580D02*
X93801428Y-92407200D01*
X93801428Y-92407200D02*
X93706190Y-92454819D01*
X93706190Y-92454819D02*
X93420476Y-92454819D01*
X93420476Y-92454819D02*
X93325238Y-92407200D01*
X93325238Y-92407200D02*
X93277619Y-92359580D01*
X76254761Y-72404819D02*
X75921428Y-71928628D01*
X75683333Y-72404819D02*
X75683333Y-71404819D01*
X75683333Y-71404819D02*
X76064285Y-71404819D01*
X76064285Y-71404819D02*
X76159523Y-71452438D01*
X76159523Y-71452438D02*
X76207142Y-71500057D01*
X76207142Y-71500057D02*
X76254761Y-71595295D01*
X76254761Y-71595295D02*
X76254761Y-71738152D01*
X76254761Y-71738152D02*
X76207142Y-71833390D01*
X76207142Y-71833390D02*
X76159523Y-71881009D01*
X76159523Y-71881009D02*
X76064285Y-71928628D01*
X76064285Y-71928628D02*
X75683333Y-71928628D01*
X76540476Y-71404819D02*
X76873809Y-72404819D01*
X76873809Y-72404819D02*
X77207142Y-71404819D01*
X77492857Y-71500057D02*
X77540476Y-71452438D01*
X77540476Y-71452438D02*
X77635714Y-71404819D01*
X77635714Y-71404819D02*
X77873809Y-71404819D01*
X77873809Y-71404819D02*
X77969047Y-71452438D01*
X77969047Y-71452438D02*
X78016666Y-71500057D01*
X78016666Y-71500057D02*
X78064285Y-71595295D01*
X78064285Y-71595295D02*
X78064285Y-71690533D01*
X78064285Y-71690533D02*
X78016666Y-71833390D01*
X78016666Y-71833390D02*
X77445238Y-72404819D01*
X77445238Y-72404819D02*
X78064285Y-72404819D01*
X92987142Y-69374819D02*
X92653809Y-68898628D01*
X92415714Y-69374819D02*
X92415714Y-68374819D01*
X92415714Y-68374819D02*
X92796666Y-68374819D01*
X92796666Y-68374819D02*
X92891904Y-68422438D01*
X92891904Y-68422438D02*
X92939523Y-68470057D01*
X92939523Y-68470057D02*
X92987142Y-68565295D01*
X92987142Y-68565295D02*
X92987142Y-68708152D01*
X92987142Y-68708152D02*
X92939523Y-68803390D01*
X92939523Y-68803390D02*
X92891904Y-68851009D01*
X92891904Y-68851009D02*
X92796666Y-68898628D01*
X92796666Y-68898628D02*
X92415714Y-68898628D01*
X93939523Y-69374819D02*
X93368095Y-69374819D01*
X93653809Y-69374819D02*
X93653809Y-68374819D01*
X93653809Y-68374819D02*
X93558571Y-68517676D01*
X93558571Y-68517676D02*
X93463333Y-68612914D01*
X93463333Y-68612914D02*
X93368095Y-68660533D01*
X94891904Y-69374819D02*
X94320476Y-69374819D01*
X94606190Y-69374819D02*
X94606190Y-68374819D01*
X94606190Y-68374819D02*
X94510952Y-68517676D01*
X94510952Y-68517676D02*
X94415714Y-68612914D01*
X94415714Y-68612914D02*
X94320476Y-68660533D01*
X163333333Y-79859580D02*
X163285714Y-79907200D01*
X163285714Y-79907200D02*
X163142857Y-79954819D01*
X163142857Y-79954819D02*
X163047619Y-79954819D01*
X163047619Y-79954819D02*
X162904762Y-79907200D01*
X162904762Y-79907200D02*
X162809524Y-79811961D01*
X162809524Y-79811961D02*
X162761905Y-79716723D01*
X162761905Y-79716723D02*
X162714286Y-79526247D01*
X162714286Y-79526247D02*
X162714286Y-79383390D01*
X162714286Y-79383390D02*
X162761905Y-79192914D01*
X162761905Y-79192914D02*
X162809524Y-79097676D01*
X162809524Y-79097676D02*
X162904762Y-79002438D01*
X162904762Y-79002438D02*
X163047619Y-78954819D01*
X163047619Y-78954819D02*
X163142857Y-78954819D01*
X163142857Y-78954819D02*
X163285714Y-79002438D01*
X163285714Y-79002438D02*
X163333333Y-79050057D01*
X164238095Y-78954819D02*
X163761905Y-78954819D01*
X163761905Y-78954819D02*
X163714286Y-79431009D01*
X163714286Y-79431009D02*
X163761905Y-79383390D01*
X163761905Y-79383390D02*
X163857143Y-79335771D01*
X163857143Y-79335771D02*
X164095238Y-79335771D01*
X164095238Y-79335771D02*
X164190476Y-79383390D01*
X164190476Y-79383390D02*
X164238095Y-79431009D01*
X164238095Y-79431009D02*
X164285714Y-79526247D01*
X164285714Y-79526247D02*
X164285714Y-79764342D01*
X164285714Y-79764342D02*
X164238095Y-79859580D01*
X164238095Y-79859580D02*
X164190476Y-79907200D01*
X164190476Y-79907200D02*
X164095238Y-79954819D01*
X164095238Y-79954819D02*
X163857143Y-79954819D01*
X163857143Y-79954819D02*
X163761905Y-79907200D01*
X163761905Y-79907200D02*
X163714286Y-79859580D01*
X75778571Y-120404819D02*
X75445238Y-119928628D01*
X75207143Y-120404819D02*
X75207143Y-119404819D01*
X75207143Y-119404819D02*
X75588095Y-119404819D01*
X75588095Y-119404819D02*
X75683333Y-119452438D01*
X75683333Y-119452438D02*
X75730952Y-119500057D01*
X75730952Y-119500057D02*
X75778571Y-119595295D01*
X75778571Y-119595295D02*
X75778571Y-119738152D01*
X75778571Y-119738152D02*
X75730952Y-119833390D01*
X75730952Y-119833390D02*
X75683333Y-119881009D01*
X75683333Y-119881009D02*
X75588095Y-119928628D01*
X75588095Y-119928628D02*
X75207143Y-119928628D01*
X76064286Y-119404819D02*
X76397619Y-120404819D01*
X76397619Y-120404819D02*
X76730952Y-119404819D01*
X77588095Y-120404819D02*
X77016667Y-120404819D01*
X77302381Y-120404819D02*
X77302381Y-119404819D01*
X77302381Y-119404819D02*
X77207143Y-119547676D01*
X77207143Y-119547676D02*
X77111905Y-119642914D01*
X77111905Y-119642914D02*
X77016667Y-119690533D01*
X78207143Y-119404819D02*
X78302381Y-119404819D01*
X78302381Y-119404819D02*
X78397619Y-119452438D01*
X78397619Y-119452438D02*
X78445238Y-119500057D01*
X78445238Y-119500057D02*
X78492857Y-119595295D01*
X78492857Y-119595295D02*
X78540476Y-119785771D01*
X78540476Y-119785771D02*
X78540476Y-120023866D01*
X78540476Y-120023866D02*
X78492857Y-120214342D01*
X78492857Y-120214342D02*
X78445238Y-120309580D01*
X78445238Y-120309580D02*
X78397619Y-120357200D01*
X78397619Y-120357200D02*
X78302381Y-120404819D01*
X78302381Y-120404819D02*
X78207143Y-120404819D01*
X78207143Y-120404819D02*
X78111905Y-120357200D01*
X78111905Y-120357200D02*
X78064286Y-120309580D01*
X78064286Y-120309580D02*
X78016667Y-120214342D01*
X78016667Y-120214342D02*
X77969048Y-120023866D01*
X77969048Y-120023866D02*
X77969048Y-119785771D01*
X77969048Y-119785771D02*
X78016667Y-119595295D01*
X78016667Y-119595295D02*
X78064286Y-119500057D01*
X78064286Y-119500057D02*
X78111905Y-119452438D01*
X78111905Y-119452438D02*
X78207143Y-119404819D01*
X124987142Y-93374819D02*
X124653809Y-92898628D01*
X124415714Y-93374819D02*
X124415714Y-92374819D01*
X124415714Y-92374819D02*
X124796666Y-92374819D01*
X124796666Y-92374819D02*
X124891904Y-92422438D01*
X124891904Y-92422438D02*
X124939523Y-92470057D01*
X124939523Y-92470057D02*
X124987142Y-92565295D01*
X124987142Y-92565295D02*
X124987142Y-92708152D01*
X124987142Y-92708152D02*
X124939523Y-92803390D01*
X124939523Y-92803390D02*
X124891904Y-92851009D01*
X124891904Y-92851009D02*
X124796666Y-92898628D01*
X124796666Y-92898628D02*
X124415714Y-92898628D01*
X125939523Y-93374819D02*
X125368095Y-93374819D01*
X125653809Y-93374819D02*
X125653809Y-92374819D01*
X125653809Y-92374819D02*
X125558571Y-92517676D01*
X125558571Y-92517676D02*
X125463333Y-92612914D01*
X125463333Y-92612914D02*
X125368095Y-92660533D01*
X126796666Y-92374819D02*
X126606190Y-92374819D01*
X126606190Y-92374819D02*
X126510952Y-92422438D01*
X126510952Y-92422438D02*
X126463333Y-92470057D01*
X126463333Y-92470057D02*
X126368095Y-92612914D01*
X126368095Y-92612914D02*
X126320476Y-92803390D01*
X126320476Y-92803390D02*
X126320476Y-93184342D01*
X126320476Y-93184342D02*
X126368095Y-93279580D01*
X126368095Y-93279580D02*
X126415714Y-93327200D01*
X126415714Y-93327200D02*
X126510952Y-93374819D01*
X126510952Y-93374819D02*
X126701428Y-93374819D01*
X126701428Y-93374819D02*
X126796666Y-93327200D01*
X126796666Y-93327200D02*
X126844285Y-93279580D01*
X126844285Y-93279580D02*
X126891904Y-93184342D01*
X126891904Y-93184342D02*
X126891904Y-92946247D01*
X126891904Y-92946247D02*
X126844285Y-92851009D01*
X126844285Y-92851009D02*
X126796666Y-92803390D01*
X126796666Y-92803390D02*
X126701428Y-92755771D01*
X126701428Y-92755771D02*
X126510952Y-92755771D01*
X126510952Y-92755771D02*
X126415714Y-92803390D01*
X126415714Y-92803390D02*
X126368095Y-92851009D01*
X126368095Y-92851009D02*
X126320476Y-92946247D01*
X95690476Y-35104819D02*
X95690476Y-35819104D01*
X95690476Y-35819104D02*
X95642857Y-35961961D01*
X95642857Y-35961961D02*
X95547619Y-36057200D01*
X95547619Y-36057200D02*
X95404762Y-36104819D01*
X95404762Y-36104819D02*
X95309524Y-36104819D01*
X96690476Y-36104819D02*
X96119048Y-36104819D01*
X96404762Y-36104819D02*
X96404762Y-35104819D01*
X96404762Y-35104819D02*
X96309524Y-35247676D01*
X96309524Y-35247676D02*
X96214286Y-35342914D01*
X96214286Y-35342914D02*
X96119048Y-35390533D01*
X97309524Y-35104819D02*
X97404762Y-35104819D01*
X97404762Y-35104819D02*
X97500000Y-35152438D01*
X97500000Y-35152438D02*
X97547619Y-35200057D01*
X97547619Y-35200057D02*
X97595238Y-35295295D01*
X97595238Y-35295295D02*
X97642857Y-35485771D01*
X97642857Y-35485771D02*
X97642857Y-35723866D01*
X97642857Y-35723866D02*
X97595238Y-35914342D01*
X97595238Y-35914342D02*
X97547619Y-36009580D01*
X97547619Y-36009580D02*
X97500000Y-36057200D01*
X97500000Y-36057200D02*
X97404762Y-36104819D01*
X97404762Y-36104819D02*
X97309524Y-36104819D01*
X97309524Y-36104819D02*
X97214286Y-36057200D01*
X97214286Y-36057200D02*
X97166667Y-36009580D01*
X97166667Y-36009580D02*
X97119048Y-35914342D01*
X97119048Y-35914342D02*
X97071429Y-35723866D01*
X97071429Y-35723866D02*
X97071429Y-35485771D01*
X97071429Y-35485771D02*
X97119048Y-35295295D01*
X97119048Y-35295295D02*
X97166667Y-35200057D01*
X97166667Y-35200057D02*
X97214286Y-35152438D01*
X97214286Y-35152438D02*
X97309524Y-35104819D01*
X140254761Y-96404819D02*
X139921428Y-95928628D01*
X139683333Y-96404819D02*
X139683333Y-95404819D01*
X139683333Y-95404819D02*
X140064285Y-95404819D01*
X140064285Y-95404819D02*
X140159523Y-95452438D01*
X140159523Y-95452438D02*
X140207142Y-95500057D01*
X140207142Y-95500057D02*
X140254761Y-95595295D01*
X140254761Y-95595295D02*
X140254761Y-95738152D01*
X140254761Y-95738152D02*
X140207142Y-95833390D01*
X140207142Y-95833390D02*
X140159523Y-95881009D01*
X140159523Y-95881009D02*
X140064285Y-95928628D01*
X140064285Y-95928628D02*
X139683333Y-95928628D01*
X140540476Y-95404819D02*
X140873809Y-96404819D01*
X140873809Y-96404819D02*
X141207142Y-95404819D01*
X141683333Y-95833390D02*
X141588095Y-95785771D01*
X141588095Y-95785771D02*
X141540476Y-95738152D01*
X141540476Y-95738152D02*
X141492857Y-95642914D01*
X141492857Y-95642914D02*
X141492857Y-95595295D01*
X141492857Y-95595295D02*
X141540476Y-95500057D01*
X141540476Y-95500057D02*
X141588095Y-95452438D01*
X141588095Y-95452438D02*
X141683333Y-95404819D01*
X141683333Y-95404819D02*
X141873809Y-95404819D01*
X141873809Y-95404819D02*
X141969047Y-95452438D01*
X141969047Y-95452438D02*
X142016666Y-95500057D01*
X142016666Y-95500057D02*
X142064285Y-95595295D01*
X142064285Y-95595295D02*
X142064285Y-95642914D01*
X142064285Y-95642914D02*
X142016666Y-95738152D01*
X142016666Y-95738152D02*
X141969047Y-95785771D01*
X141969047Y-95785771D02*
X141873809Y-95833390D01*
X141873809Y-95833390D02*
X141683333Y-95833390D01*
X141683333Y-95833390D02*
X141588095Y-95881009D01*
X141588095Y-95881009D02*
X141540476Y-95928628D01*
X141540476Y-95928628D02*
X141492857Y-96023866D01*
X141492857Y-96023866D02*
X141492857Y-96214342D01*
X141492857Y-96214342D02*
X141540476Y-96309580D01*
X141540476Y-96309580D02*
X141588095Y-96357200D01*
X141588095Y-96357200D02*
X141683333Y-96404819D01*
X141683333Y-96404819D02*
X141873809Y-96404819D01*
X141873809Y-96404819D02*
X141969047Y-96357200D01*
X141969047Y-96357200D02*
X142016666Y-96309580D01*
X142016666Y-96309580D02*
X142064285Y-96214342D01*
X142064285Y-96214342D02*
X142064285Y-96023866D01*
X142064285Y-96023866D02*
X142016666Y-95928628D01*
X142016666Y-95928628D02*
X141969047Y-95881009D01*
X141969047Y-95881009D02*
X141873809Y-95833390D01*
X156987142Y-93374819D02*
X156653809Y-92898628D01*
X156415714Y-93374819D02*
X156415714Y-92374819D01*
X156415714Y-92374819D02*
X156796666Y-92374819D01*
X156796666Y-92374819D02*
X156891904Y-92422438D01*
X156891904Y-92422438D02*
X156939523Y-92470057D01*
X156939523Y-92470057D02*
X156987142Y-92565295D01*
X156987142Y-92565295D02*
X156987142Y-92708152D01*
X156987142Y-92708152D02*
X156939523Y-92803390D01*
X156939523Y-92803390D02*
X156891904Y-92851009D01*
X156891904Y-92851009D02*
X156796666Y-92898628D01*
X156796666Y-92898628D02*
X156415714Y-92898628D01*
X157939523Y-93374819D02*
X157368095Y-93374819D01*
X157653809Y-93374819D02*
X157653809Y-92374819D01*
X157653809Y-92374819D02*
X157558571Y-92517676D01*
X157558571Y-92517676D02*
X157463333Y-92612914D01*
X157463333Y-92612914D02*
X157368095Y-92660533D01*
X158272857Y-92374819D02*
X158939523Y-92374819D01*
X158939523Y-92374819D02*
X158510952Y-93374819D01*
X96913333Y-64084819D02*
X96580000Y-63608628D01*
X96341905Y-64084819D02*
X96341905Y-63084819D01*
X96341905Y-63084819D02*
X96722857Y-63084819D01*
X96722857Y-63084819D02*
X96818095Y-63132438D01*
X96818095Y-63132438D02*
X96865714Y-63180057D01*
X96865714Y-63180057D02*
X96913333Y-63275295D01*
X96913333Y-63275295D02*
X96913333Y-63418152D01*
X96913333Y-63418152D02*
X96865714Y-63513390D01*
X96865714Y-63513390D02*
X96818095Y-63561009D01*
X96818095Y-63561009D02*
X96722857Y-63608628D01*
X96722857Y-63608628D02*
X96341905Y-63608628D01*
X97246667Y-63084819D02*
X97865714Y-63084819D01*
X97865714Y-63084819D02*
X97532381Y-63465771D01*
X97532381Y-63465771D02*
X97675238Y-63465771D01*
X97675238Y-63465771D02*
X97770476Y-63513390D01*
X97770476Y-63513390D02*
X97818095Y-63561009D01*
X97818095Y-63561009D02*
X97865714Y-63656247D01*
X97865714Y-63656247D02*
X97865714Y-63894342D01*
X97865714Y-63894342D02*
X97818095Y-63989580D01*
X97818095Y-63989580D02*
X97770476Y-64037200D01*
X97770476Y-64037200D02*
X97675238Y-64084819D01*
X97675238Y-64084819D02*
X97389524Y-64084819D01*
X97389524Y-64084819D02*
X97294286Y-64037200D01*
X97294286Y-64037200D02*
X97246667Y-63989580D01*
X92987142Y-117374819D02*
X92653809Y-116898628D01*
X92415714Y-117374819D02*
X92415714Y-116374819D01*
X92415714Y-116374819D02*
X92796666Y-116374819D01*
X92796666Y-116374819D02*
X92891904Y-116422438D01*
X92891904Y-116422438D02*
X92939523Y-116470057D01*
X92939523Y-116470057D02*
X92987142Y-116565295D01*
X92987142Y-116565295D02*
X92987142Y-116708152D01*
X92987142Y-116708152D02*
X92939523Y-116803390D01*
X92939523Y-116803390D02*
X92891904Y-116851009D01*
X92891904Y-116851009D02*
X92796666Y-116898628D01*
X92796666Y-116898628D02*
X92415714Y-116898628D01*
X93939523Y-117374819D02*
X93368095Y-117374819D01*
X93653809Y-117374819D02*
X93653809Y-116374819D01*
X93653809Y-116374819D02*
X93558571Y-116517676D01*
X93558571Y-116517676D02*
X93463333Y-116612914D01*
X93463333Y-116612914D02*
X93368095Y-116660533D01*
X94415714Y-117374819D02*
X94606190Y-117374819D01*
X94606190Y-117374819D02*
X94701428Y-117327200D01*
X94701428Y-117327200D02*
X94749047Y-117279580D01*
X94749047Y-117279580D02*
X94844285Y-117136723D01*
X94844285Y-117136723D02*
X94891904Y-116946247D01*
X94891904Y-116946247D02*
X94891904Y-116565295D01*
X94891904Y-116565295D02*
X94844285Y-116470057D01*
X94844285Y-116470057D02*
X94796666Y-116422438D01*
X94796666Y-116422438D02*
X94701428Y-116374819D01*
X94701428Y-116374819D02*
X94510952Y-116374819D01*
X94510952Y-116374819D02*
X94415714Y-116422438D01*
X94415714Y-116422438D02*
X94368095Y-116470057D01*
X94368095Y-116470057D02*
X94320476Y-116565295D01*
X94320476Y-116565295D02*
X94320476Y-116803390D01*
X94320476Y-116803390D02*
X94368095Y-116898628D01*
X94368095Y-116898628D02*
X94415714Y-116946247D01*
X94415714Y-116946247D02*
X94510952Y-116993866D01*
X94510952Y-116993866D02*
X94701428Y-116993866D01*
X94701428Y-116993866D02*
X94796666Y-116946247D01*
X94796666Y-116946247D02*
X94844285Y-116898628D01*
X94844285Y-116898628D02*
X94891904Y-116803390D01*
X60987142Y-141374819D02*
X60653809Y-140898628D01*
X60415714Y-141374819D02*
X60415714Y-140374819D01*
X60415714Y-140374819D02*
X60796666Y-140374819D01*
X60796666Y-140374819D02*
X60891904Y-140422438D01*
X60891904Y-140422438D02*
X60939523Y-140470057D01*
X60939523Y-140470057D02*
X60987142Y-140565295D01*
X60987142Y-140565295D02*
X60987142Y-140708152D01*
X60987142Y-140708152D02*
X60939523Y-140803390D01*
X60939523Y-140803390D02*
X60891904Y-140851009D01*
X60891904Y-140851009D02*
X60796666Y-140898628D01*
X60796666Y-140898628D02*
X60415714Y-140898628D01*
X61368095Y-140470057D02*
X61415714Y-140422438D01*
X61415714Y-140422438D02*
X61510952Y-140374819D01*
X61510952Y-140374819D02*
X61749047Y-140374819D01*
X61749047Y-140374819D02*
X61844285Y-140422438D01*
X61844285Y-140422438D02*
X61891904Y-140470057D01*
X61891904Y-140470057D02*
X61939523Y-140565295D01*
X61939523Y-140565295D02*
X61939523Y-140660533D01*
X61939523Y-140660533D02*
X61891904Y-140803390D01*
X61891904Y-140803390D02*
X61320476Y-141374819D01*
X61320476Y-141374819D02*
X61939523Y-141374819D01*
X62320476Y-140470057D02*
X62368095Y-140422438D01*
X62368095Y-140422438D02*
X62463333Y-140374819D01*
X62463333Y-140374819D02*
X62701428Y-140374819D01*
X62701428Y-140374819D02*
X62796666Y-140422438D01*
X62796666Y-140422438D02*
X62844285Y-140470057D01*
X62844285Y-140470057D02*
X62891904Y-140565295D01*
X62891904Y-140565295D02*
X62891904Y-140660533D01*
X62891904Y-140660533D02*
X62844285Y-140803390D01*
X62844285Y-140803390D02*
X62272857Y-141374819D01*
X62272857Y-141374819D02*
X62891904Y-141374819D01*
X124987142Y-117374819D02*
X124653809Y-116898628D01*
X124415714Y-117374819D02*
X124415714Y-116374819D01*
X124415714Y-116374819D02*
X124796666Y-116374819D01*
X124796666Y-116374819D02*
X124891904Y-116422438D01*
X124891904Y-116422438D02*
X124939523Y-116470057D01*
X124939523Y-116470057D02*
X124987142Y-116565295D01*
X124987142Y-116565295D02*
X124987142Y-116708152D01*
X124987142Y-116708152D02*
X124939523Y-116803390D01*
X124939523Y-116803390D02*
X124891904Y-116851009D01*
X124891904Y-116851009D02*
X124796666Y-116898628D01*
X124796666Y-116898628D02*
X124415714Y-116898628D01*
X125368095Y-116470057D02*
X125415714Y-116422438D01*
X125415714Y-116422438D02*
X125510952Y-116374819D01*
X125510952Y-116374819D02*
X125749047Y-116374819D01*
X125749047Y-116374819D02*
X125844285Y-116422438D01*
X125844285Y-116422438D02*
X125891904Y-116470057D01*
X125891904Y-116470057D02*
X125939523Y-116565295D01*
X125939523Y-116565295D02*
X125939523Y-116660533D01*
X125939523Y-116660533D02*
X125891904Y-116803390D01*
X125891904Y-116803390D02*
X125320476Y-117374819D01*
X125320476Y-117374819D02*
X125939523Y-117374819D01*
X126558571Y-116374819D02*
X126653809Y-116374819D01*
X126653809Y-116374819D02*
X126749047Y-116422438D01*
X126749047Y-116422438D02*
X126796666Y-116470057D01*
X126796666Y-116470057D02*
X126844285Y-116565295D01*
X126844285Y-116565295D02*
X126891904Y-116755771D01*
X126891904Y-116755771D02*
X126891904Y-116993866D01*
X126891904Y-116993866D02*
X126844285Y-117184342D01*
X126844285Y-117184342D02*
X126796666Y-117279580D01*
X126796666Y-117279580D02*
X126749047Y-117327200D01*
X126749047Y-117327200D02*
X126653809Y-117374819D01*
X126653809Y-117374819D02*
X126558571Y-117374819D01*
X126558571Y-117374819D02*
X126463333Y-117327200D01*
X126463333Y-117327200D02*
X126415714Y-117279580D01*
X126415714Y-117279580D02*
X126368095Y-117184342D01*
X126368095Y-117184342D02*
X126320476Y-116993866D01*
X126320476Y-116993866D02*
X126320476Y-116755771D01*
X126320476Y-116755771D02*
X126368095Y-116565295D01*
X126368095Y-116565295D02*
X126415714Y-116470057D01*
X126415714Y-116470057D02*
X126463333Y-116422438D01*
X126463333Y-116422438D02*
X126558571Y-116374819D01*
X137857142Y-169859580D02*
X137809523Y-169907200D01*
X137809523Y-169907200D02*
X137666666Y-169954819D01*
X137666666Y-169954819D02*
X137571428Y-169954819D01*
X137571428Y-169954819D02*
X137428571Y-169907200D01*
X137428571Y-169907200D02*
X137333333Y-169811961D01*
X137333333Y-169811961D02*
X137285714Y-169716723D01*
X137285714Y-169716723D02*
X137238095Y-169526247D01*
X137238095Y-169526247D02*
X137238095Y-169383390D01*
X137238095Y-169383390D02*
X137285714Y-169192914D01*
X137285714Y-169192914D02*
X137333333Y-169097676D01*
X137333333Y-169097676D02*
X137428571Y-169002438D01*
X137428571Y-169002438D02*
X137571428Y-168954819D01*
X137571428Y-168954819D02*
X137666666Y-168954819D01*
X137666666Y-168954819D02*
X137809523Y-169002438D01*
X137809523Y-169002438D02*
X137857142Y-169050057D01*
X138809523Y-169954819D02*
X138238095Y-169954819D01*
X138523809Y-169954819D02*
X138523809Y-168954819D01*
X138523809Y-168954819D02*
X138428571Y-169097676D01*
X138428571Y-169097676D02*
X138333333Y-169192914D01*
X138333333Y-169192914D02*
X138238095Y-169240533D01*
X139380952Y-169383390D02*
X139285714Y-169335771D01*
X139285714Y-169335771D02*
X139238095Y-169288152D01*
X139238095Y-169288152D02*
X139190476Y-169192914D01*
X139190476Y-169192914D02*
X139190476Y-169145295D01*
X139190476Y-169145295D02*
X139238095Y-169050057D01*
X139238095Y-169050057D02*
X139285714Y-169002438D01*
X139285714Y-169002438D02*
X139380952Y-168954819D01*
X139380952Y-168954819D02*
X139571428Y-168954819D01*
X139571428Y-168954819D02*
X139666666Y-169002438D01*
X139666666Y-169002438D02*
X139714285Y-169050057D01*
X139714285Y-169050057D02*
X139761904Y-169145295D01*
X139761904Y-169145295D02*
X139761904Y-169192914D01*
X139761904Y-169192914D02*
X139714285Y-169288152D01*
X139714285Y-169288152D02*
X139666666Y-169335771D01*
X139666666Y-169335771D02*
X139571428Y-169383390D01*
X139571428Y-169383390D02*
X139380952Y-169383390D01*
X139380952Y-169383390D02*
X139285714Y-169431009D01*
X139285714Y-169431009D02*
X139238095Y-169478628D01*
X139238095Y-169478628D02*
X139190476Y-169573866D01*
X139190476Y-169573866D02*
X139190476Y-169764342D01*
X139190476Y-169764342D02*
X139238095Y-169859580D01*
X139238095Y-169859580D02*
X139285714Y-169907200D01*
X139285714Y-169907200D02*
X139380952Y-169954819D01*
X139380952Y-169954819D02*
X139571428Y-169954819D01*
X139571428Y-169954819D02*
X139666666Y-169907200D01*
X139666666Y-169907200D02*
X139714285Y-169859580D01*
X139714285Y-169859580D02*
X139761904Y-169764342D01*
X139761904Y-169764342D02*
X139761904Y-169573866D01*
X139761904Y-169573866D02*
X139714285Y-169478628D01*
X139714285Y-169478628D02*
X139666666Y-169431009D01*
X139666666Y-169431009D02*
X139571428Y-169383390D01*
X44254761Y-120404819D02*
X43921428Y-119928628D01*
X43683333Y-120404819D02*
X43683333Y-119404819D01*
X43683333Y-119404819D02*
X44064285Y-119404819D01*
X44064285Y-119404819D02*
X44159523Y-119452438D01*
X44159523Y-119452438D02*
X44207142Y-119500057D01*
X44207142Y-119500057D02*
X44254761Y-119595295D01*
X44254761Y-119595295D02*
X44254761Y-119738152D01*
X44254761Y-119738152D02*
X44207142Y-119833390D01*
X44207142Y-119833390D02*
X44159523Y-119881009D01*
X44159523Y-119881009D02*
X44064285Y-119928628D01*
X44064285Y-119928628D02*
X43683333Y-119928628D01*
X44540476Y-119404819D02*
X44873809Y-120404819D01*
X44873809Y-120404819D02*
X45207142Y-119404819D01*
X45588095Y-120404819D02*
X45778571Y-120404819D01*
X45778571Y-120404819D02*
X45873809Y-120357200D01*
X45873809Y-120357200D02*
X45921428Y-120309580D01*
X45921428Y-120309580D02*
X46016666Y-120166723D01*
X46016666Y-120166723D02*
X46064285Y-119976247D01*
X46064285Y-119976247D02*
X46064285Y-119595295D01*
X46064285Y-119595295D02*
X46016666Y-119500057D01*
X46016666Y-119500057D02*
X45969047Y-119452438D01*
X45969047Y-119452438D02*
X45873809Y-119404819D01*
X45873809Y-119404819D02*
X45683333Y-119404819D01*
X45683333Y-119404819D02*
X45588095Y-119452438D01*
X45588095Y-119452438D02*
X45540476Y-119500057D01*
X45540476Y-119500057D02*
X45492857Y-119595295D01*
X45492857Y-119595295D02*
X45492857Y-119833390D01*
X45492857Y-119833390D02*
X45540476Y-119928628D01*
X45540476Y-119928628D02*
X45588095Y-119976247D01*
X45588095Y-119976247D02*
X45683333Y-120023866D01*
X45683333Y-120023866D02*
X45873809Y-120023866D01*
X45873809Y-120023866D02*
X45969047Y-119976247D01*
X45969047Y-119976247D02*
X46016666Y-119928628D01*
X46016666Y-119928628D02*
X46064285Y-119833390D01*
X162607142Y-59959580D02*
X162559523Y-60007200D01*
X162559523Y-60007200D02*
X162416666Y-60054819D01*
X162416666Y-60054819D02*
X162321428Y-60054819D01*
X162321428Y-60054819D02*
X162178571Y-60007200D01*
X162178571Y-60007200D02*
X162083333Y-59911961D01*
X162083333Y-59911961D02*
X162035714Y-59816723D01*
X162035714Y-59816723D02*
X161988095Y-59626247D01*
X161988095Y-59626247D02*
X161988095Y-59483390D01*
X161988095Y-59483390D02*
X162035714Y-59292914D01*
X162035714Y-59292914D02*
X162083333Y-59197676D01*
X162083333Y-59197676D02*
X162178571Y-59102438D01*
X162178571Y-59102438D02*
X162321428Y-59054819D01*
X162321428Y-59054819D02*
X162416666Y-59054819D01*
X162416666Y-59054819D02*
X162559523Y-59102438D01*
X162559523Y-59102438D02*
X162607142Y-59150057D01*
X163559523Y-60054819D02*
X162988095Y-60054819D01*
X163273809Y-60054819D02*
X163273809Y-59054819D01*
X163273809Y-59054819D02*
X163178571Y-59197676D01*
X163178571Y-59197676D02*
X163083333Y-59292914D01*
X163083333Y-59292914D02*
X162988095Y-59340533D01*
X164035714Y-60054819D02*
X164226190Y-60054819D01*
X164226190Y-60054819D02*
X164321428Y-60007200D01*
X164321428Y-60007200D02*
X164369047Y-59959580D01*
X164369047Y-59959580D02*
X164464285Y-59816723D01*
X164464285Y-59816723D02*
X164511904Y-59626247D01*
X164511904Y-59626247D02*
X164511904Y-59245295D01*
X164511904Y-59245295D02*
X164464285Y-59150057D01*
X164464285Y-59150057D02*
X164416666Y-59102438D01*
X164416666Y-59102438D02*
X164321428Y-59054819D01*
X164321428Y-59054819D02*
X164130952Y-59054819D01*
X164130952Y-59054819D02*
X164035714Y-59102438D01*
X164035714Y-59102438D02*
X163988095Y-59150057D01*
X163988095Y-59150057D02*
X163940476Y-59245295D01*
X163940476Y-59245295D02*
X163940476Y-59483390D01*
X163940476Y-59483390D02*
X163988095Y-59578628D01*
X163988095Y-59578628D02*
X164035714Y-59626247D01*
X164035714Y-59626247D02*
X164130952Y-59673866D01*
X164130952Y-59673866D02*
X164321428Y-59673866D01*
X164321428Y-59673866D02*
X164416666Y-59626247D01*
X164416666Y-59626247D02*
X164464285Y-59578628D01*
X164464285Y-59578628D02*
X164511904Y-59483390D01*
X44254761Y-96404819D02*
X43921428Y-95928628D01*
X43683333Y-96404819D02*
X43683333Y-95404819D01*
X43683333Y-95404819D02*
X44064285Y-95404819D01*
X44064285Y-95404819D02*
X44159523Y-95452438D01*
X44159523Y-95452438D02*
X44207142Y-95500057D01*
X44207142Y-95500057D02*
X44254761Y-95595295D01*
X44254761Y-95595295D02*
X44254761Y-95738152D01*
X44254761Y-95738152D02*
X44207142Y-95833390D01*
X44207142Y-95833390D02*
X44159523Y-95881009D01*
X44159523Y-95881009D02*
X44064285Y-95928628D01*
X44064285Y-95928628D02*
X43683333Y-95928628D01*
X44540476Y-95404819D02*
X44873809Y-96404819D01*
X44873809Y-96404819D02*
X45207142Y-95404819D01*
X46016666Y-95404819D02*
X45540476Y-95404819D01*
X45540476Y-95404819D02*
X45492857Y-95881009D01*
X45492857Y-95881009D02*
X45540476Y-95833390D01*
X45540476Y-95833390D02*
X45635714Y-95785771D01*
X45635714Y-95785771D02*
X45873809Y-95785771D01*
X45873809Y-95785771D02*
X45969047Y-95833390D01*
X45969047Y-95833390D02*
X46016666Y-95881009D01*
X46016666Y-95881009D02*
X46064285Y-95976247D01*
X46064285Y-95976247D02*
X46064285Y-96214342D01*
X46064285Y-96214342D02*
X46016666Y-96309580D01*
X46016666Y-96309580D02*
X45969047Y-96357200D01*
X45969047Y-96357200D02*
X45873809Y-96404819D01*
X45873809Y-96404819D02*
X45635714Y-96404819D01*
X45635714Y-96404819D02*
X45540476Y-96357200D01*
X45540476Y-96357200D02*
X45492857Y-96309580D01*
X156987142Y-117374819D02*
X156653809Y-116898628D01*
X156415714Y-117374819D02*
X156415714Y-116374819D01*
X156415714Y-116374819D02*
X156796666Y-116374819D01*
X156796666Y-116374819D02*
X156891904Y-116422438D01*
X156891904Y-116422438D02*
X156939523Y-116470057D01*
X156939523Y-116470057D02*
X156987142Y-116565295D01*
X156987142Y-116565295D02*
X156987142Y-116708152D01*
X156987142Y-116708152D02*
X156939523Y-116803390D01*
X156939523Y-116803390D02*
X156891904Y-116851009D01*
X156891904Y-116851009D02*
X156796666Y-116898628D01*
X156796666Y-116898628D02*
X156415714Y-116898628D01*
X157368095Y-116470057D02*
X157415714Y-116422438D01*
X157415714Y-116422438D02*
X157510952Y-116374819D01*
X157510952Y-116374819D02*
X157749047Y-116374819D01*
X157749047Y-116374819D02*
X157844285Y-116422438D01*
X157844285Y-116422438D02*
X157891904Y-116470057D01*
X157891904Y-116470057D02*
X157939523Y-116565295D01*
X157939523Y-116565295D02*
X157939523Y-116660533D01*
X157939523Y-116660533D02*
X157891904Y-116803390D01*
X157891904Y-116803390D02*
X157320476Y-117374819D01*
X157320476Y-117374819D02*
X157939523Y-117374819D01*
X158891904Y-117374819D02*
X158320476Y-117374819D01*
X158606190Y-117374819D02*
X158606190Y-116374819D01*
X158606190Y-116374819D02*
X158510952Y-116517676D01*
X158510952Y-116517676D02*
X158415714Y-116612914D01*
X158415714Y-116612914D02*
X158320476Y-116660533D01*
X176301905Y-85184819D02*
X176301905Y-84184819D01*
X176301905Y-84184819D02*
X176540000Y-84184819D01*
X176540000Y-84184819D02*
X176682857Y-84232438D01*
X176682857Y-84232438D02*
X176778095Y-84327676D01*
X176778095Y-84327676D02*
X176825714Y-84422914D01*
X176825714Y-84422914D02*
X176873333Y-84613390D01*
X176873333Y-84613390D02*
X176873333Y-84756247D01*
X176873333Y-84756247D02*
X176825714Y-84946723D01*
X176825714Y-84946723D02*
X176778095Y-85041961D01*
X176778095Y-85041961D02*
X176682857Y-85137200D01*
X176682857Y-85137200D02*
X176540000Y-85184819D01*
X176540000Y-85184819D02*
X176301905Y-85184819D01*
X177206667Y-84184819D02*
X177825714Y-84184819D01*
X177825714Y-84184819D02*
X177492381Y-84565771D01*
X177492381Y-84565771D02*
X177635238Y-84565771D01*
X177635238Y-84565771D02*
X177730476Y-84613390D01*
X177730476Y-84613390D02*
X177778095Y-84661009D01*
X177778095Y-84661009D02*
X177825714Y-84756247D01*
X177825714Y-84756247D02*
X177825714Y-84994342D01*
X177825714Y-84994342D02*
X177778095Y-85089580D01*
X177778095Y-85089580D02*
X177730476Y-85137200D01*
X177730476Y-85137200D02*
X177635238Y-85184819D01*
X177635238Y-85184819D02*
X177349524Y-85184819D01*
X177349524Y-85184819D02*
X177254286Y-85137200D01*
X177254286Y-85137200D02*
X177206667Y-85089580D01*
X98857142Y-151859580D02*
X98809523Y-151907200D01*
X98809523Y-151907200D02*
X98666666Y-151954819D01*
X98666666Y-151954819D02*
X98571428Y-151954819D01*
X98571428Y-151954819D02*
X98428571Y-151907200D01*
X98428571Y-151907200D02*
X98333333Y-151811961D01*
X98333333Y-151811961D02*
X98285714Y-151716723D01*
X98285714Y-151716723D02*
X98238095Y-151526247D01*
X98238095Y-151526247D02*
X98238095Y-151383390D01*
X98238095Y-151383390D02*
X98285714Y-151192914D01*
X98285714Y-151192914D02*
X98333333Y-151097676D01*
X98333333Y-151097676D02*
X98428571Y-151002438D01*
X98428571Y-151002438D02*
X98571428Y-150954819D01*
X98571428Y-150954819D02*
X98666666Y-150954819D01*
X98666666Y-150954819D02*
X98809523Y-151002438D01*
X98809523Y-151002438D02*
X98857142Y-151050057D01*
X99809523Y-151954819D02*
X99238095Y-151954819D01*
X99523809Y-151954819D02*
X99523809Y-150954819D01*
X99523809Y-150954819D02*
X99428571Y-151097676D01*
X99428571Y-151097676D02*
X99333333Y-151192914D01*
X99333333Y-151192914D02*
X99238095Y-151240533D01*
X100714285Y-150954819D02*
X100238095Y-150954819D01*
X100238095Y-150954819D02*
X100190476Y-151431009D01*
X100190476Y-151431009D02*
X100238095Y-151383390D01*
X100238095Y-151383390D02*
X100333333Y-151335771D01*
X100333333Y-151335771D02*
X100571428Y-151335771D01*
X100571428Y-151335771D02*
X100666666Y-151383390D01*
X100666666Y-151383390D02*
X100714285Y-151431009D01*
X100714285Y-151431009D02*
X100761904Y-151526247D01*
X100761904Y-151526247D02*
X100761904Y-151764342D01*
X100761904Y-151764342D02*
X100714285Y-151859580D01*
X100714285Y-151859580D02*
X100666666Y-151907200D01*
X100666666Y-151907200D02*
X100571428Y-151954819D01*
X100571428Y-151954819D02*
X100333333Y-151954819D01*
X100333333Y-151954819D02*
X100238095Y-151907200D01*
X100238095Y-151907200D02*
X100190476Y-151859580D01*
X131333333Y-103859580D02*
X131285714Y-103907200D01*
X131285714Y-103907200D02*
X131142857Y-103954819D01*
X131142857Y-103954819D02*
X131047619Y-103954819D01*
X131047619Y-103954819D02*
X130904762Y-103907200D01*
X130904762Y-103907200D02*
X130809524Y-103811961D01*
X130809524Y-103811961D02*
X130761905Y-103716723D01*
X130761905Y-103716723D02*
X130714286Y-103526247D01*
X130714286Y-103526247D02*
X130714286Y-103383390D01*
X130714286Y-103383390D02*
X130761905Y-103192914D01*
X130761905Y-103192914D02*
X130809524Y-103097676D01*
X130809524Y-103097676D02*
X130904762Y-103002438D01*
X130904762Y-103002438D02*
X131047619Y-102954819D01*
X131047619Y-102954819D02*
X131142857Y-102954819D01*
X131142857Y-102954819D02*
X131285714Y-103002438D01*
X131285714Y-103002438D02*
X131333333Y-103050057D01*
X131904762Y-103383390D02*
X131809524Y-103335771D01*
X131809524Y-103335771D02*
X131761905Y-103288152D01*
X131761905Y-103288152D02*
X131714286Y-103192914D01*
X131714286Y-103192914D02*
X131714286Y-103145295D01*
X131714286Y-103145295D02*
X131761905Y-103050057D01*
X131761905Y-103050057D02*
X131809524Y-103002438D01*
X131809524Y-103002438D02*
X131904762Y-102954819D01*
X131904762Y-102954819D02*
X132095238Y-102954819D01*
X132095238Y-102954819D02*
X132190476Y-103002438D01*
X132190476Y-103002438D02*
X132238095Y-103050057D01*
X132238095Y-103050057D02*
X132285714Y-103145295D01*
X132285714Y-103145295D02*
X132285714Y-103192914D01*
X132285714Y-103192914D02*
X132238095Y-103288152D01*
X132238095Y-103288152D02*
X132190476Y-103335771D01*
X132190476Y-103335771D02*
X132095238Y-103383390D01*
X132095238Y-103383390D02*
X131904762Y-103383390D01*
X131904762Y-103383390D02*
X131809524Y-103431009D01*
X131809524Y-103431009D02*
X131761905Y-103478628D01*
X131761905Y-103478628D02*
X131714286Y-103573866D01*
X131714286Y-103573866D02*
X131714286Y-103764342D01*
X131714286Y-103764342D02*
X131761905Y-103859580D01*
X131761905Y-103859580D02*
X131809524Y-103907200D01*
X131809524Y-103907200D02*
X131904762Y-103954819D01*
X131904762Y-103954819D02*
X132095238Y-103954819D01*
X132095238Y-103954819D02*
X132190476Y-103907200D01*
X132190476Y-103907200D02*
X132238095Y-103859580D01*
X132238095Y-103859580D02*
X132285714Y-103764342D01*
X132285714Y-103764342D02*
X132285714Y-103573866D01*
X132285714Y-103573866D02*
X132238095Y-103478628D01*
X132238095Y-103478628D02*
X132190476Y-103431009D01*
X132190476Y-103431009D02*
X132095238Y-103383390D01*
X67333333Y-79859580D02*
X67285714Y-79907200D01*
X67285714Y-79907200D02*
X67142857Y-79954819D01*
X67142857Y-79954819D02*
X67047619Y-79954819D01*
X67047619Y-79954819D02*
X66904762Y-79907200D01*
X66904762Y-79907200D02*
X66809524Y-79811961D01*
X66809524Y-79811961D02*
X66761905Y-79716723D01*
X66761905Y-79716723D02*
X66714286Y-79526247D01*
X66714286Y-79526247D02*
X66714286Y-79383390D01*
X66714286Y-79383390D02*
X66761905Y-79192914D01*
X66761905Y-79192914D02*
X66809524Y-79097676D01*
X66809524Y-79097676D02*
X66904762Y-79002438D01*
X66904762Y-79002438D02*
X67047619Y-78954819D01*
X67047619Y-78954819D02*
X67142857Y-78954819D01*
X67142857Y-78954819D02*
X67285714Y-79002438D01*
X67285714Y-79002438D02*
X67333333Y-79050057D01*
X67714286Y-79050057D02*
X67761905Y-79002438D01*
X67761905Y-79002438D02*
X67857143Y-78954819D01*
X67857143Y-78954819D02*
X68095238Y-78954819D01*
X68095238Y-78954819D02*
X68190476Y-79002438D01*
X68190476Y-79002438D02*
X68238095Y-79050057D01*
X68238095Y-79050057D02*
X68285714Y-79145295D01*
X68285714Y-79145295D02*
X68285714Y-79240533D01*
X68285714Y-79240533D02*
X68238095Y-79383390D01*
X68238095Y-79383390D02*
X67666667Y-79954819D01*
X67666667Y-79954819D02*
X68285714Y-79954819D01*
X31916667Y-128407200D02*
X32059524Y-128454819D01*
X32059524Y-128454819D02*
X32297619Y-128454819D01*
X32297619Y-128454819D02*
X32392857Y-128407200D01*
X32392857Y-128407200D02*
X32440476Y-128359580D01*
X32440476Y-128359580D02*
X32488095Y-128264342D01*
X32488095Y-128264342D02*
X32488095Y-128169104D01*
X32488095Y-128169104D02*
X32440476Y-128073866D01*
X32440476Y-128073866D02*
X32392857Y-128026247D01*
X32392857Y-128026247D02*
X32297619Y-127978628D01*
X32297619Y-127978628D02*
X32107143Y-127931009D01*
X32107143Y-127931009D02*
X32011905Y-127883390D01*
X32011905Y-127883390D02*
X31964286Y-127835771D01*
X31964286Y-127835771D02*
X31916667Y-127740533D01*
X31916667Y-127740533D02*
X31916667Y-127645295D01*
X31916667Y-127645295D02*
X31964286Y-127550057D01*
X31964286Y-127550057D02*
X32011905Y-127502438D01*
X32011905Y-127502438D02*
X32107143Y-127454819D01*
X32107143Y-127454819D02*
X32345238Y-127454819D01*
X32345238Y-127454819D02*
X32488095Y-127502438D01*
X32821429Y-127454819D02*
X33059524Y-128454819D01*
X33059524Y-128454819D02*
X33250000Y-127740533D01*
X33250000Y-127740533D02*
X33440476Y-128454819D01*
X33440476Y-128454819D02*
X33678572Y-127454819D01*
X34488095Y-127788152D02*
X34488095Y-128454819D01*
X34250000Y-127407200D02*
X34011905Y-128121485D01*
X34011905Y-128121485D02*
X34630952Y-128121485D01*
X169463333Y-125374819D02*
X169130000Y-124898628D01*
X168891905Y-125374819D02*
X168891905Y-124374819D01*
X168891905Y-124374819D02*
X169272857Y-124374819D01*
X169272857Y-124374819D02*
X169368095Y-124422438D01*
X169368095Y-124422438D02*
X169415714Y-124470057D01*
X169415714Y-124470057D02*
X169463333Y-124565295D01*
X169463333Y-124565295D02*
X169463333Y-124708152D01*
X169463333Y-124708152D02*
X169415714Y-124803390D01*
X169415714Y-124803390D02*
X169368095Y-124851009D01*
X169368095Y-124851009D02*
X169272857Y-124898628D01*
X169272857Y-124898628D02*
X168891905Y-124898628D01*
X170034762Y-124803390D02*
X169939524Y-124755771D01*
X169939524Y-124755771D02*
X169891905Y-124708152D01*
X169891905Y-124708152D02*
X169844286Y-124612914D01*
X169844286Y-124612914D02*
X169844286Y-124565295D01*
X169844286Y-124565295D02*
X169891905Y-124470057D01*
X169891905Y-124470057D02*
X169939524Y-124422438D01*
X169939524Y-124422438D02*
X170034762Y-124374819D01*
X170034762Y-124374819D02*
X170225238Y-124374819D01*
X170225238Y-124374819D02*
X170320476Y-124422438D01*
X170320476Y-124422438D02*
X170368095Y-124470057D01*
X170368095Y-124470057D02*
X170415714Y-124565295D01*
X170415714Y-124565295D02*
X170415714Y-124612914D01*
X170415714Y-124612914D02*
X170368095Y-124708152D01*
X170368095Y-124708152D02*
X170320476Y-124755771D01*
X170320476Y-124755771D02*
X170225238Y-124803390D01*
X170225238Y-124803390D02*
X170034762Y-124803390D01*
X170034762Y-124803390D02*
X169939524Y-124851009D01*
X169939524Y-124851009D02*
X169891905Y-124898628D01*
X169891905Y-124898628D02*
X169844286Y-124993866D01*
X169844286Y-124993866D02*
X169844286Y-125184342D01*
X169844286Y-125184342D02*
X169891905Y-125279580D01*
X169891905Y-125279580D02*
X169939524Y-125327200D01*
X169939524Y-125327200D02*
X170034762Y-125374819D01*
X170034762Y-125374819D02*
X170225238Y-125374819D01*
X170225238Y-125374819D02*
X170320476Y-125327200D01*
X170320476Y-125327200D02*
X170368095Y-125279580D01*
X170368095Y-125279580D02*
X170415714Y-125184342D01*
X170415714Y-125184342D02*
X170415714Y-124993866D01*
X170415714Y-124993866D02*
X170368095Y-124898628D01*
X170368095Y-124898628D02*
X170320476Y-124851009D01*
X170320476Y-124851009D02*
X170225238Y-124803390D01*
X44254761Y-72404819D02*
X43921428Y-71928628D01*
X43683333Y-72404819D02*
X43683333Y-71404819D01*
X43683333Y-71404819D02*
X44064285Y-71404819D01*
X44064285Y-71404819D02*
X44159523Y-71452438D01*
X44159523Y-71452438D02*
X44207142Y-71500057D01*
X44207142Y-71500057D02*
X44254761Y-71595295D01*
X44254761Y-71595295D02*
X44254761Y-71738152D01*
X44254761Y-71738152D02*
X44207142Y-71833390D01*
X44207142Y-71833390D02*
X44159523Y-71881009D01*
X44159523Y-71881009D02*
X44064285Y-71928628D01*
X44064285Y-71928628D02*
X43683333Y-71928628D01*
X44540476Y-71404819D02*
X44873809Y-72404819D01*
X44873809Y-72404819D02*
X45207142Y-71404819D01*
X46064285Y-72404819D02*
X45492857Y-72404819D01*
X45778571Y-72404819D02*
X45778571Y-71404819D01*
X45778571Y-71404819D02*
X45683333Y-71547676D01*
X45683333Y-71547676D02*
X45588095Y-71642914D01*
X45588095Y-71642914D02*
X45492857Y-71690533D01*
X139778571Y-120404819D02*
X139445238Y-119928628D01*
X139207143Y-120404819D02*
X139207143Y-119404819D01*
X139207143Y-119404819D02*
X139588095Y-119404819D01*
X139588095Y-119404819D02*
X139683333Y-119452438D01*
X139683333Y-119452438D02*
X139730952Y-119500057D01*
X139730952Y-119500057D02*
X139778571Y-119595295D01*
X139778571Y-119595295D02*
X139778571Y-119738152D01*
X139778571Y-119738152D02*
X139730952Y-119833390D01*
X139730952Y-119833390D02*
X139683333Y-119881009D01*
X139683333Y-119881009D02*
X139588095Y-119928628D01*
X139588095Y-119928628D02*
X139207143Y-119928628D01*
X140064286Y-119404819D02*
X140397619Y-120404819D01*
X140397619Y-120404819D02*
X140730952Y-119404819D01*
X141588095Y-120404819D02*
X141016667Y-120404819D01*
X141302381Y-120404819D02*
X141302381Y-119404819D01*
X141302381Y-119404819D02*
X141207143Y-119547676D01*
X141207143Y-119547676D02*
X141111905Y-119642914D01*
X141111905Y-119642914D02*
X141016667Y-119690533D01*
X141969048Y-119500057D02*
X142016667Y-119452438D01*
X142016667Y-119452438D02*
X142111905Y-119404819D01*
X142111905Y-119404819D02*
X142350000Y-119404819D01*
X142350000Y-119404819D02*
X142445238Y-119452438D01*
X142445238Y-119452438D02*
X142492857Y-119500057D01*
X142492857Y-119500057D02*
X142540476Y-119595295D01*
X142540476Y-119595295D02*
X142540476Y-119690533D01*
X142540476Y-119690533D02*
X142492857Y-119833390D01*
X142492857Y-119833390D02*
X141921429Y-120404819D01*
X141921429Y-120404819D02*
X142540476Y-120404819D01*
X124987142Y-69374819D02*
X124653809Y-68898628D01*
X124415714Y-69374819D02*
X124415714Y-68374819D01*
X124415714Y-68374819D02*
X124796666Y-68374819D01*
X124796666Y-68374819D02*
X124891904Y-68422438D01*
X124891904Y-68422438D02*
X124939523Y-68470057D01*
X124939523Y-68470057D02*
X124987142Y-68565295D01*
X124987142Y-68565295D02*
X124987142Y-68708152D01*
X124987142Y-68708152D02*
X124939523Y-68803390D01*
X124939523Y-68803390D02*
X124891904Y-68851009D01*
X124891904Y-68851009D02*
X124796666Y-68898628D01*
X124796666Y-68898628D02*
X124415714Y-68898628D01*
X125939523Y-69374819D02*
X125368095Y-69374819D01*
X125653809Y-69374819D02*
X125653809Y-68374819D01*
X125653809Y-68374819D02*
X125558571Y-68517676D01*
X125558571Y-68517676D02*
X125463333Y-68612914D01*
X125463333Y-68612914D02*
X125368095Y-68660533D01*
X126320476Y-68470057D02*
X126368095Y-68422438D01*
X126368095Y-68422438D02*
X126463333Y-68374819D01*
X126463333Y-68374819D02*
X126701428Y-68374819D01*
X126701428Y-68374819D02*
X126796666Y-68422438D01*
X126796666Y-68422438D02*
X126844285Y-68470057D01*
X126844285Y-68470057D02*
X126891904Y-68565295D01*
X126891904Y-68565295D02*
X126891904Y-68660533D01*
X126891904Y-68660533D02*
X126844285Y-68803390D01*
X126844285Y-68803390D02*
X126272857Y-69374819D01*
X126272857Y-69374819D02*
X126891904Y-69374819D01*
X176301905Y-151184819D02*
X176301905Y-150184819D01*
X176301905Y-150184819D02*
X176540000Y-150184819D01*
X176540000Y-150184819D02*
X176682857Y-150232438D01*
X176682857Y-150232438D02*
X176778095Y-150327676D01*
X176778095Y-150327676D02*
X176825714Y-150422914D01*
X176825714Y-150422914D02*
X176873333Y-150613390D01*
X176873333Y-150613390D02*
X176873333Y-150756247D01*
X176873333Y-150756247D02*
X176825714Y-150946723D01*
X176825714Y-150946723D02*
X176778095Y-151041961D01*
X176778095Y-151041961D02*
X176682857Y-151137200D01*
X176682857Y-151137200D02*
X176540000Y-151184819D01*
X176540000Y-151184819D02*
X176301905Y-151184819D01*
X177730476Y-150184819D02*
X177540000Y-150184819D01*
X177540000Y-150184819D02*
X177444762Y-150232438D01*
X177444762Y-150232438D02*
X177397143Y-150280057D01*
X177397143Y-150280057D02*
X177301905Y-150422914D01*
X177301905Y-150422914D02*
X177254286Y-150613390D01*
X177254286Y-150613390D02*
X177254286Y-150994342D01*
X177254286Y-150994342D02*
X177301905Y-151089580D01*
X177301905Y-151089580D02*
X177349524Y-151137200D01*
X177349524Y-151137200D02*
X177444762Y-151184819D01*
X177444762Y-151184819D02*
X177635238Y-151184819D01*
X177635238Y-151184819D02*
X177730476Y-151137200D01*
X177730476Y-151137200D02*
X177778095Y-151089580D01*
X177778095Y-151089580D02*
X177825714Y-150994342D01*
X177825714Y-150994342D02*
X177825714Y-150756247D01*
X177825714Y-150756247D02*
X177778095Y-150661009D01*
X177778095Y-150661009D02*
X177730476Y-150613390D01*
X177730476Y-150613390D02*
X177635238Y-150565771D01*
X177635238Y-150565771D02*
X177444762Y-150565771D01*
X177444762Y-150565771D02*
X177349524Y-150613390D01*
X177349524Y-150613390D02*
X177301905Y-150661009D01*
X177301905Y-150661009D02*
X177254286Y-150756247D01*
X176301905Y-107184819D02*
X176301905Y-106184819D01*
X176301905Y-106184819D02*
X176540000Y-106184819D01*
X176540000Y-106184819D02*
X176682857Y-106232438D01*
X176682857Y-106232438D02*
X176778095Y-106327676D01*
X176778095Y-106327676D02*
X176825714Y-106422914D01*
X176825714Y-106422914D02*
X176873333Y-106613390D01*
X176873333Y-106613390D02*
X176873333Y-106756247D01*
X176873333Y-106756247D02*
X176825714Y-106946723D01*
X176825714Y-106946723D02*
X176778095Y-107041961D01*
X176778095Y-107041961D02*
X176682857Y-107137200D01*
X176682857Y-107137200D02*
X176540000Y-107184819D01*
X176540000Y-107184819D02*
X176301905Y-107184819D01*
X177730476Y-106518152D02*
X177730476Y-107184819D01*
X177492381Y-106137200D02*
X177254286Y-106851485D01*
X177254286Y-106851485D02*
X177873333Y-106851485D01*
X66857142Y-127859580D02*
X66809523Y-127907200D01*
X66809523Y-127907200D02*
X66666666Y-127954819D01*
X66666666Y-127954819D02*
X66571428Y-127954819D01*
X66571428Y-127954819D02*
X66428571Y-127907200D01*
X66428571Y-127907200D02*
X66333333Y-127811961D01*
X66333333Y-127811961D02*
X66285714Y-127716723D01*
X66285714Y-127716723D02*
X66238095Y-127526247D01*
X66238095Y-127526247D02*
X66238095Y-127383390D01*
X66238095Y-127383390D02*
X66285714Y-127192914D01*
X66285714Y-127192914D02*
X66333333Y-127097676D01*
X66333333Y-127097676D02*
X66428571Y-127002438D01*
X66428571Y-127002438D02*
X66571428Y-126954819D01*
X66571428Y-126954819D02*
X66666666Y-126954819D01*
X66666666Y-126954819D02*
X66809523Y-127002438D01*
X66809523Y-127002438D02*
X66857142Y-127050057D01*
X67809523Y-127954819D02*
X67238095Y-127954819D01*
X67523809Y-127954819D02*
X67523809Y-126954819D01*
X67523809Y-126954819D02*
X67428571Y-127097676D01*
X67428571Y-127097676D02*
X67333333Y-127192914D01*
X67333333Y-127192914D02*
X67238095Y-127240533D01*
X68428571Y-126954819D02*
X68523809Y-126954819D01*
X68523809Y-126954819D02*
X68619047Y-127002438D01*
X68619047Y-127002438D02*
X68666666Y-127050057D01*
X68666666Y-127050057D02*
X68714285Y-127145295D01*
X68714285Y-127145295D02*
X68761904Y-127335771D01*
X68761904Y-127335771D02*
X68761904Y-127573866D01*
X68761904Y-127573866D02*
X68714285Y-127764342D01*
X68714285Y-127764342D02*
X68666666Y-127859580D01*
X68666666Y-127859580D02*
X68619047Y-127907200D01*
X68619047Y-127907200D02*
X68523809Y-127954819D01*
X68523809Y-127954819D02*
X68428571Y-127954819D01*
X68428571Y-127954819D02*
X68333333Y-127907200D01*
X68333333Y-127907200D02*
X68285714Y-127859580D01*
X68285714Y-127859580D02*
X68238095Y-127764342D01*
X68238095Y-127764342D02*
X68190476Y-127573866D01*
X68190476Y-127573866D02*
X68190476Y-127335771D01*
X68190476Y-127335771D02*
X68238095Y-127145295D01*
X68238095Y-127145295D02*
X68285714Y-127050057D01*
X68285714Y-127050057D02*
X68333333Y-127002438D01*
X68333333Y-127002438D02*
X68428571Y-126954819D01*
X163286666Y-31454819D02*
X163286666Y-32169104D01*
X163286666Y-32169104D02*
X163239047Y-32311961D01*
X163239047Y-32311961D02*
X163143809Y-32407200D01*
X163143809Y-32407200D02*
X163000952Y-32454819D01*
X163000952Y-32454819D02*
X162905714Y-32454819D01*
X164239047Y-31454819D02*
X163762857Y-31454819D01*
X163762857Y-31454819D02*
X163715238Y-31931009D01*
X163715238Y-31931009D02*
X163762857Y-31883390D01*
X163762857Y-31883390D02*
X163858095Y-31835771D01*
X163858095Y-31835771D02*
X164096190Y-31835771D01*
X164096190Y-31835771D02*
X164191428Y-31883390D01*
X164191428Y-31883390D02*
X164239047Y-31931009D01*
X164239047Y-31931009D02*
X164286666Y-32026247D01*
X164286666Y-32026247D02*
X164286666Y-32264342D01*
X164286666Y-32264342D02*
X164239047Y-32359580D01*
X164239047Y-32359580D02*
X164191428Y-32407200D01*
X164191428Y-32407200D02*
X164096190Y-32454819D01*
X164096190Y-32454819D02*
X163858095Y-32454819D01*
X163858095Y-32454819D02*
X163762857Y-32407200D01*
X163762857Y-32407200D02*
X163715238Y-32359580D01*
X31916667Y-84407200D02*
X32059524Y-84454819D01*
X32059524Y-84454819D02*
X32297619Y-84454819D01*
X32297619Y-84454819D02*
X32392857Y-84407200D01*
X32392857Y-84407200D02*
X32440476Y-84359580D01*
X32440476Y-84359580D02*
X32488095Y-84264342D01*
X32488095Y-84264342D02*
X32488095Y-84169104D01*
X32488095Y-84169104D02*
X32440476Y-84073866D01*
X32440476Y-84073866D02*
X32392857Y-84026247D01*
X32392857Y-84026247D02*
X32297619Y-83978628D01*
X32297619Y-83978628D02*
X32107143Y-83931009D01*
X32107143Y-83931009D02*
X32011905Y-83883390D01*
X32011905Y-83883390D02*
X31964286Y-83835771D01*
X31964286Y-83835771D02*
X31916667Y-83740533D01*
X31916667Y-83740533D02*
X31916667Y-83645295D01*
X31916667Y-83645295D02*
X31964286Y-83550057D01*
X31964286Y-83550057D02*
X32011905Y-83502438D01*
X32011905Y-83502438D02*
X32107143Y-83454819D01*
X32107143Y-83454819D02*
X32345238Y-83454819D01*
X32345238Y-83454819D02*
X32488095Y-83502438D01*
X32821429Y-83454819D02*
X33059524Y-84454819D01*
X33059524Y-84454819D02*
X33250000Y-83740533D01*
X33250000Y-83740533D02*
X33440476Y-84454819D01*
X33440476Y-84454819D02*
X33678572Y-83454819D01*
X34011905Y-83550057D02*
X34059524Y-83502438D01*
X34059524Y-83502438D02*
X34154762Y-83454819D01*
X34154762Y-83454819D02*
X34392857Y-83454819D01*
X34392857Y-83454819D02*
X34488095Y-83502438D01*
X34488095Y-83502438D02*
X34535714Y-83550057D01*
X34535714Y-83550057D02*
X34583333Y-83645295D01*
X34583333Y-83645295D02*
X34583333Y-83740533D01*
X34583333Y-83740533D02*
X34535714Y-83883390D01*
X34535714Y-83883390D02*
X33964286Y-84454819D01*
X33964286Y-84454819D02*
X34583333Y-84454819D01*
X99333333Y-79859580D02*
X99285714Y-79907200D01*
X99285714Y-79907200D02*
X99142857Y-79954819D01*
X99142857Y-79954819D02*
X99047619Y-79954819D01*
X99047619Y-79954819D02*
X98904762Y-79907200D01*
X98904762Y-79907200D02*
X98809524Y-79811961D01*
X98809524Y-79811961D02*
X98761905Y-79716723D01*
X98761905Y-79716723D02*
X98714286Y-79526247D01*
X98714286Y-79526247D02*
X98714286Y-79383390D01*
X98714286Y-79383390D02*
X98761905Y-79192914D01*
X98761905Y-79192914D02*
X98809524Y-79097676D01*
X98809524Y-79097676D02*
X98904762Y-79002438D01*
X98904762Y-79002438D02*
X99047619Y-78954819D01*
X99047619Y-78954819D02*
X99142857Y-78954819D01*
X99142857Y-78954819D02*
X99285714Y-79002438D01*
X99285714Y-79002438D02*
X99333333Y-79050057D01*
X99666667Y-78954819D02*
X100285714Y-78954819D01*
X100285714Y-78954819D02*
X99952381Y-79335771D01*
X99952381Y-79335771D02*
X100095238Y-79335771D01*
X100095238Y-79335771D02*
X100190476Y-79383390D01*
X100190476Y-79383390D02*
X100238095Y-79431009D01*
X100238095Y-79431009D02*
X100285714Y-79526247D01*
X100285714Y-79526247D02*
X100285714Y-79764342D01*
X100285714Y-79764342D02*
X100238095Y-79859580D01*
X100238095Y-79859580D02*
X100190476Y-79907200D01*
X100190476Y-79907200D02*
X100095238Y-79954819D01*
X100095238Y-79954819D02*
X99809524Y-79954819D01*
X99809524Y-79954819D02*
X99714286Y-79907200D01*
X99714286Y-79907200D02*
X99666667Y-79859580D01*
X156987142Y-69374819D02*
X156653809Y-68898628D01*
X156415714Y-69374819D02*
X156415714Y-68374819D01*
X156415714Y-68374819D02*
X156796666Y-68374819D01*
X156796666Y-68374819D02*
X156891904Y-68422438D01*
X156891904Y-68422438D02*
X156939523Y-68470057D01*
X156939523Y-68470057D02*
X156987142Y-68565295D01*
X156987142Y-68565295D02*
X156987142Y-68708152D01*
X156987142Y-68708152D02*
X156939523Y-68803390D01*
X156939523Y-68803390D02*
X156891904Y-68851009D01*
X156891904Y-68851009D02*
X156796666Y-68898628D01*
X156796666Y-68898628D02*
X156415714Y-68898628D01*
X157939523Y-69374819D02*
X157368095Y-69374819D01*
X157653809Y-69374819D02*
X157653809Y-68374819D01*
X157653809Y-68374819D02*
X157558571Y-68517676D01*
X157558571Y-68517676D02*
X157463333Y-68612914D01*
X157463333Y-68612914D02*
X157368095Y-68660533D01*
X158272857Y-68374819D02*
X158891904Y-68374819D01*
X158891904Y-68374819D02*
X158558571Y-68755771D01*
X158558571Y-68755771D02*
X158701428Y-68755771D01*
X158701428Y-68755771D02*
X158796666Y-68803390D01*
X158796666Y-68803390D02*
X158844285Y-68851009D01*
X158844285Y-68851009D02*
X158891904Y-68946247D01*
X158891904Y-68946247D02*
X158891904Y-69184342D01*
X158891904Y-69184342D02*
X158844285Y-69279580D01*
X158844285Y-69279580D02*
X158796666Y-69327200D01*
X158796666Y-69327200D02*
X158701428Y-69374819D01*
X158701428Y-69374819D02*
X158415714Y-69374819D01*
X158415714Y-69374819D02*
X158320476Y-69327200D01*
X158320476Y-69327200D02*
X158272857Y-69279580D01*
X76254761Y-96404819D02*
X75921428Y-95928628D01*
X75683333Y-96404819D02*
X75683333Y-95404819D01*
X75683333Y-95404819D02*
X76064285Y-95404819D01*
X76064285Y-95404819D02*
X76159523Y-95452438D01*
X76159523Y-95452438D02*
X76207142Y-95500057D01*
X76207142Y-95500057D02*
X76254761Y-95595295D01*
X76254761Y-95595295D02*
X76254761Y-95738152D01*
X76254761Y-95738152D02*
X76207142Y-95833390D01*
X76207142Y-95833390D02*
X76159523Y-95881009D01*
X76159523Y-95881009D02*
X76064285Y-95928628D01*
X76064285Y-95928628D02*
X75683333Y-95928628D01*
X76540476Y-95404819D02*
X76873809Y-96404819D01*
X76873809Y-96404819D02*
X77207142Y-95404819D01*
X77969047Y-95404819D02*
X77778571Y-95404819D01*
X77778571Y-95404819D02*
X77683333Y-95452438D01*
X77683333Y-95452438D02*
X77635714Y-95500057D01*
X77635714Y-95500057D02*
X77540476Y-95642914D01*
X77540476Y-95642914D02*
X77492857Y-95833390D01*
X77492857Y-95833390D02*
X77492857Y-96214342D01*
X77492857Y-96214342D02*
X77540476Y-96309580D01*
X77540476Y-96309580D02*
X77588095Y-96357200D01*
X77588095Y-96357200D02*
X77683333Y-96404819D01*
X77683333Y-96404819D02*
X77873809Y-96404819D01*
X77873809Y-96404819D02*
X77969047Y-96357200D01*
X77969047Y-96357200D02*
X78016666Y-96309580D01*
X78016666Y-96309580D02*
X78064285Y-96214342D01*
X78064285Y-96214342D02*
X78064285Y-95976247D01*
X78064285Y-95976247D02*
X78016666Y-95881009D01*
X78016666Y-95881009D02*
X77969047Y-95833390D01*
X77969047Y-95833390D02*
X77873809Y-95785771D01*
X77873809Y-95785771D02*
X77683333Y-95785771D01*
X77683333Y-95785771D02*
X77588095Y-95833390D01*
X77588095Y-95833390D02*
X77540476Y-95881009D01*
X77540476Y-95881009D02*
X77492857Y-95976247D01*
X31916667Y-150407200D02*
X32059524Y-150454819D01*
X32059524Y-150454819D02*
X32297619Y-150454819D01*
X32297619Y-150454819D02*
X32392857Y-150407200D01*
X32392857Y-150407200D02*
X32440476Y-150359580D01*
X32440476Y-150359580D02*
X32488095Y-150264342D01*
X32488095Y-150264342D02*
X32488095Y-150169104D01*
X32488095Y-150169104D02*
X32440476Y-150073866D01*
X32440476Y-150073866D02*
X32392857Y-150026247D01*
X32392857Y-150026247D02*
X32297619Y-149978628D01*
X32297619Y-149978628D02*
X32107143Y-149931009D01*
X32107143Y-149931009D02*
X32011905Y-149883390D01*
X32011905Y-149883390D02*
X31964286Y-149835771D01*
X31964286Y-149835771D02*
X31916667Y-149740533D01*
X31916667Y-149740533D02*
X31916667Y-149645295D01*
X31916667Y-149645295D02*
X31964286Y-149550057D01*
X31964286Y-149550057D02*
X32011905Y-149502438D01*
X32011905Y-149502438D02*
X32107143Y-149454819D01*
X32107143Y-149454819D02*
X32345238Y-149454819D01*
X32345238Y-149454819D02*
X32488095Y-149502438D01*
X32821429Y-149454819D02*
X33059524Y-150454819D01*
X33059524Y-150454819D02*
X33250000Y-149740533D01*
X33250000Y-149740533D02*
X33440476Y-150454819D01*
X33440476Y-150454819D02*
X33678572Y-149454819D01*
X34535714Y-149454819D02*
X34059524Y-149454819D01*
X34059524Y-149454819D02*
X34011905Y-149931009D01*
X34011905Y-149931009D02*
X34059524Y-149883390D01*
X34059524Y-149883390D02*
X34154762Y-149835771D01*
X34154762Y-149835771D02*
X34392857Y-149835771D01*
X34392857Y-149835771D02*
X34488095Y-149883390D01*
X34488095Y-149883390D02*
X34535714Y-149931009D01*
X34535714Y-149931009D02*
X34583333Y-150026247D01*
X34583333Y-150026247D02*
X34583333Y-150264342D01*
X34583333Y-150264342D02*
X34535714Y-150359580D01*
X34535714Y-150359580D02*
X34488095Y-150407200D01*
X34488095Y-150407200D02*
X34392857Y-150454819D01*
X34392857Y-150454819D02*
X34154762Y-150454819D01*
X34154762Y-150454819D02*
X34059524Y-150407200D01*
X34059524Y-150407200D02*
X34011905Y-150359580D01*
X131333333Y-79859580D02*
X131285714Y-79907200D01*
X131285714Y-79907200D02*
X131142857Y-79954819D01*
X131142857Y-79954819D02*
X131047619Y-79954819D01*
X131047619Y-79954819D02*
X130904762Y-79907200D01*
X130904762Y-79907200D02*
X130809524Y-79811961D01*
X130809524Y-79811961D02*
X130761905Y-79716723D01*
X130761905Y-79716723D02*
X130714286Y-79526247D01*
X130714286Y-79526247D02*
X130714286Y-79383390D01*
X130714286Y-79383390D02*
X130761905Y-79192914D01*
X130761905Y-79192914D02*
X130809524Y-79097676D01*
X130809524Y-79097676D02*
X130904762Y-79002438D01*
X130904762Y-79002438D02*
X131047619Y-78954819D01*
X131047619Y-78954819D02*
X131142857Y-78954819D01*
X131142857Y-78954819D02*
X131285714Y-79002438D01*
X131285714Y-79002438D02*
X131333333Y-79050057D01*
X132190476Y-79288152D02*
X132190476Y-79954819D01*
X131952381Y-78907200D02*
X131714286Y-79621485D01*
X131714286Y-79621485D02*
X132333333Y-79621485D01*
X107778571Y-144404819D02*
X107445238Y-143928628D01*
X107207143Y-144404819D02*
X107207143Y-143404819D01*
X107207143Y-143404819D02*
X107588095Y-143404819D01*
X107588095Y-143404819D02*
X107683333Y-143452438D01*
X107683333Y-143452438D02*
X107730952Y-143500057D01*
X107730952Y-143500057D02*
X107778571Y-143595295D01*
X107778571Y-143595295D02*
X107778571Y-143738152D01*
X107778571Y-143738152D02*
X107730952Y-143833390D01*
X107730952Y-143833390D02*
X107683333Y-143881009D01*
X107683333Y-143881009D02*
X107588095Y-143928628D01*
X107588095Y-143928628D02*
X107207143Y-143928628D01*
X108064286Y-143404819D02*
X108397619Y-144404819D01*
X108397619Y-144404819D02*
X108730952Y-143404819D01*
X109588095Y-144404819D02*
X109016667Y-144404819D01*
X109302381Y-144404819D02*
X109302381Y-143404819D01*
X109302381Y-143404819D02*
X109207143Y-143547676D01*
X109207143Y-143547676D02*
X109111905Y-143642914D01*
X109111905Y-143642914D02*
X109016667Y-143690533D01*
X110492857Y-143404819D02*
X110016667Y-143404819D01*
X110016667Y-143404819D02*
X109969048Y-143881009D01*
X109969048Y-143881009D02*
X110016667Y-143833390D01*
X110016667Y-143833390D02*
X110111905Y-143785771D01*
X110111905Y-143785771D02*
X110350000Y-143785771D01*
X110350000Y-143785771D02*
X110445238Y-143833390D01*
X110445238Y-143833390D02*
X110492857Y-143881009D01*
X110492857Y-143881009D02*
X110540476Y-143976247D01*
X110540476Y-143976247D02*
X110540476Y-144214342D01*
X110540476Y-144214342D02*
X110492857Y-144309580D01*
X110492857Y-144309580D02*
X110445238Y-144357200D01*
X110445238Y-144357200D02*
X110350000Y-144404819D01*
X110350000Y-144404819D02*
X110111905Y-144404819D01*
X110111905Y-144404819D02*
X110016667Y-144357200D01*
X110016667Y-144357200D02*
X109969048Y-144309580D01*
X78125238Y-139454819D02*
X78125238Y-140169104D01*
X78125238Y-140169104D02*
X78077619Y-140311961D01*
X78077619Y-140311961D02*
X77982381Y-140407200D01*
X77982381Y-140407200D02*
X77839524Y-140454819D01*
X77839524Y-140454819D02*
X77744286Y-140454819D01*
X78601429Y-140454819D02*
X78601429Y-139454819D01*
X78601429Y-139454819D02*
X78934762Y-140169104D01*
X78934762Y-140169104D02*
X79268095Y-139454819D01*
X79268095Y-139454819D02*
X79268095Y-140454819D01*
X79744286Y-140454819D02*
X79744286Y-139454819D01*
X79744286Y-139454819D02*
X79982381Y-139454819D01*
X79982381Y-139454819D02*
X80125238Y-139502438D01*
X80125238Y-139502438D02*
X80220476Y-139597676D01*
X80220476Y-139597676D02*
X80268095Y-139692914D01*
X80268095Y-139692914D02*
X80315714Y-139883390D01*
X80315714Y-139883390D02*
X80315714Y-140026247D01*
X80315714Y-140026247D02*
X80268095Y-140216723D01*
X80268095Y-140216723D02*
X80220476Y-140311961D01*
X80220476Y-140311961D02*
X80125238Y-140407200D01*
X80125238Y-140407200D02*
X79982381Y-140454819D01*
X79982381Y-140454819D02*
X79744286Y-140454819D01*
X80649048Y-139454819D02*
X81268095Y-139454819D01*
X81268095Y-139454819D02*
X80934762Y-139835771D01*
X80934762Y-139835771D02*
X81077619Y-139835771D01*
X81077619Y-139835771D02*
X81172857Y-139883390D01*
X81172857Y-139883390D02*
X81220476Y-139931009D01*
X81220476Y-139931009D02*
X81268095Y-140026247D01*
X81268095Y-140026247D02*
X81268095Y-140264342D01*
X81268095Y-140264342D02*
X81220476Y-140359580D01*
X81220476Y-140359580D02*
X81172857Y-140407200D01*
X81172857Y-140407200D02*
X81077619Y-140454819D01*
X81077619Y-140454819D02*
X80791905Y-140454819D01*
X80791905Y-140454819D02*
X80696667Y-140407200D01*
X80696667Y-140407200D02*
X80649048Y-140359580D01*
X130857142Y-127859580D02*
X130809523Y-127907200D01*
X130809523Y-127907200D02*
X130666666Y-127954819D01*
X130666666Y-127954819D02*
X130571428Y-127954819D01*
X130571428Y-127954819D02*
X130428571Y-127907200D01*
X130428571Y-127907200D02*
X130333333Y-127811961D01*
X130333333Y-127811961D02*
X130285714Y-127716723D01*
X130285714Y-127716723D02*
X130238095Y-127526247D01*
X130238095Y-127526247D02*
X130238095Y-127383390D01*
X130238095Y-127383390D02*
X130285714Y-127192914D01*
X130285714Y-127192914D02*
X130333333Y-127097676D01*
X130333333Y-127097676D02*
X130428571Y-127002438D01*
X130428571Y-127002438D02*
X130571428Y-126954819D01*
X130571428Y-126954819D02*
X130666666Y-126954819D01*
X130666666Y-126954819D02*
X130809523Y-127002438D01*
X130809523Y-127002438D02*
X130857142Y-127050057D01*
X131809523Y-127954819D02*
X131238095Y-127954819D01*
X131523809Y-127954819D02*
X131523809Y-126954819D01*
X131523809Y-126954819D02*
X131428571Y-127097676D01*
X131428571Y-127097676D02*
X131333333Y-127192914D01*
X131333333Y-127192914D02*
X131238095Y-127240533D01*
X132190476Y-127050057D02*
X132238095Y-127002438D01*
X132238095Y-127002438D02*
X132333333Y-126954819D01*
X132333333Y-126954819D02*
X132571428Y-126954819D01*
X132571428Y-126954819D02*
X132666666Y-127002438D01*
X132666666Y-127002438D02*
X132714285Y-127050057D01*
X132714285Y-127050057D02*
X132761904Y-127145295D01*
X132761904Y-127145295D02*
X132761904Y-127240533D01*
X132761904Y-127240533D02*
X132714285Y-127383390D01*
X132714285Y-127383390D02*
X132142857Y-127954819D01*
X132142857Y-127954819D02*
X132761904Y-127954819D01*
X31916667Y-106407200D02*
X32059524Y-106454819D01*
X32059524Y-106454819D02*
X32297619Y-106454819D01*
X32297619Y-106454819D02*
X32392857Y-106407200D01*
X32392857Y-106407200D02*
X32440476Y-106359580D01*
X32440476Y-106359580D02*
X32488095Y-106264342D01*
X32488095Y-106264342D02*
X32488095Y-106169104D01*
X32488095Y-106169104D02*
X32440476Y-106073866D01*
X32440476Y-106073866D02*
X32392857Y-106026247D01*
X32392857Y-106026247D02*
X32297619Y-105978628D01*
X32297619Y-105978628D02*
X32107143Y-105931009D01*
X32107143Y-105931009D02*
X32011905Y-105883390D01*
X32011905Y-105883390D02*
X31964286Y-105835771D01*
X31964286Y-105835771D02*
X31916667Y-105740533D01*
X31916667Y-105740533D02*
X31916667Y-105645295D01*
X31916667Y-105645295D02*
X31964286Y-105550057D01*
X31964286Y-105550057D02*
X32011905Y-105502438D01*
X32011905Y-105502438D02*
X32107143Y-105454819D01*
X32107143Y-105454819D02*
X32345238Y-105454819D01*
X32345238Y-105454819D02*
X32488095Y-105502438D01*
X32821429Y-105454819D02*
X33059524Y-106454819D01*
X33059524Y-106454819D02*
X33250000Y-105740533D01*
X33250000Y-105740533D02*
X33440476Y-106454819D01*
X33440476Y-106454819D02*
X33678572Y-105454819D01*
X33964286Y-105454819D02*
X34583333Y-105454819D01*
X34583333Y-105454819D02*
X34250000Y-105835771D01*
X34250000Y-105835771D02*
X34392857Y-105835771D01*
X34392857Y-105835771D02*
X34488095Y-105883390D01*
X34488095Y-105883390D02*
X34535714Y-105931009D01*
X34535714Y-105931009D02*
X34583333Y-106026247D01*
X34583333Y-106026247D02*
X34583333Y-106264342D01*
X34583333Y-106264342D02*
X34535714Y-106359580D01*
X34535714Y-106359580D02*
X34488095Y-106407200D01*
X34488095Y-106407200D02*
X34392857Y-106454819D01*
X34392857Y-106454819D02*
X34107143Y-106454819D01*
X34107143Y-106454819D02*
X34011905Y-106407200D01*
X34011905Y-106407200D02*
X33964286Y-106359580D01*
X62885238Y-139454819D02*
X62885238Y-140169104D01*
X62885238Y-140169104D02*
X62837619Y-140311961D01*
X62837619Y-140311961D02*
X62742381Y-140407200D01*
X62742381Y-140407200D02*
X62599524Y-140454819D01*
X62599524Y-140454819D02*
X62504286Y-140454819D01*
X63361429Y-140454819D02*
X63361429Y-139454819D01*
X63361429Y-139454819D02*
X63694762Y-140169104D01*
X63694762Y-140169104D02*
X64028095Y-139454819D01*
X64028095Y-139454819D02*
X64028095Y-140454819D01*
X64504286Y-140454819D02*
X64504286Y-139454819D01*
X64504286Y-139454819D02*
X64742381Y-139454819D01*
X64742381Y-139454819D02*
X64885238Y-139502438D01*
X64885238Y-139502438D02*
X64980476Y-139597676D01*
X64980476Y-139597676D02*
X65028095Y-139692914D01*
X65028095Y-139692914D02*
X65075714Y-139883390D01*
X65075714Y-139883390D02*
X65075714Y-140026247D01*
X65075714Y-140026247D02*
X65028095Y-140216723D01*
X65028095Y-140216723D02*
X64980476Y-140311961D01*
X64980476Y-140311961D02*
X64885238Y-140407200D01*
X64885238Y-140407200D02*
X64742381Y-140454819D01*
X64742381Y-140454819D02*
X64504286Y-140454819D01*
X65456667Y-139550057D02*
X65504286Y-139502438D01*
X65504286Y-139502438D02*
X65599524Y-139454819D01*
X65599524Y-139454819D02*
X65837619Y-139454819D01*
X65837619Y-139454819D02*
X65932857Y-139502438D01*
X65932857Y-139502438D02*
X65980476Y-139550057D01*
X65980476Y-139550057D02*
X66028095Y-139645295D01*
X66028095Y-139645295D02*
X66028095Y-139740533D01*
X66028095Y-139740533D02*
X65980476Y-139883390D01*
X65980476Y-139883390D02*
X65409048Y-140454819D01*
X65409048Y-140454819D02*
X66028095Y-140454819D01*
X162857142Y-151859580D02*
X162809523Y-151907200D01*
X162809523Y-151907200D02*
X162666666Y-151954819D01*
X162666666Y-151954819D02*
X162571428Y-151954819D01*
X162571428Y-151954819D02*
X162428571Y-151907200D01*
X162428571Y-151907200D02*
X162333333Y-151811961D01*
X162333333Y-151811961D02*
X162285714Y-151716723D01*
X162285714Y-151716723D02*
X162238095Y-151526247D01*
X162238095Y-151526247D02*
X162238095Y-151383390D01*
X162238095Y-151383390D02*
X162285714Y-151192914D01*
X162285714Y-151192914D02*
X162333333Y-151097676D01*
X162333333Y-151097676D02*
X162428571Y-151002438D01*
X162428571Y-151002438D02*
X162571428Y-150954819D01*
X162571428Y-150954819D02*
X162666666Y-150954819D01*
X162666666Y-150954819D02*
X162809523Y-151002438D01*
X162809523Y-151002438D02*
X162857142Y-151050057D01*
X163809523Y-151954819D02*
X163238095Y-151954819D01*
X163523809Y-151954819D02*
X163523809Y-150954819D01*
X163523809Y-150954819D02*
X163428571Y-151097676D01*
X163428571Y-151097676D02*
X163333333Y-151192914D01*
X163333333Y-151192914D02*
X163238095Y-151240533D01*
X164142857Y-150954819D02*
X164809523Y-150954819D01*
X164809523Y-150954819D02*
X164380952Y-151954819D01*
X92987142Y-93374819D02*
X92653809Y-92898628D01*
X92415714Y-93374819D02*
X92415714Y-92374819D01*
X92415714Y-92374819D02*
X92796666Y-92374819D01*
X92796666Y-92374819D02*
X92891904Y-92422438D01*
X92891904Y-92422438D02*
X92939523Y-92470057D01*
X92939523Y-92470057D02*
X92987142Y-92565295D01*
X92987142Y-92565295D02*
X92987142Y-92708152D01*
X92987142Y-92708152D02*
X92939523Y-92803390D01*
X92939523Y-92803390D02*
X92891904Y-92851009D01*
X92891904Y-92851009D02*
X92796666Y-92898628D01*
X92796666Y-92898628D02*
X92415714Y-92898628D01*
X93939523Y-93374819D02*
X93368095Y-93374819D01*
X93653809Y-93374819D02*
X93653809Y-92374819D01*
X93653809Y-92374819D02*
X93558571Y-92517676D01*
X93558571Y-92517676D02*
X93463333Y-92612914D01*
X93463333Y-92612914D02*
X93368095Y-92660533D01*
X94844285Y-92374819D02*
X94368095Y-92374819D01*
X94368095Y-92374819D02*
X94320476Y-92851009D01*
X94320476Y-92851009D02*
X94368095Y-92803390D01*
X94368095Y-92803390D02*
X94463333Y-92755771D01*
X94463333Y-92755771D02*
X94701428Y-92755771D01*
X94701428Y-92755771D02*
X94796666Y-92803390D01*
X94796666Y-92803390D02*
X94844285Y-92851009D01*
X94844285Y-92851009D02*
X94891904Y-92946247D01*
X94891904Y-92946247D02*
X94891904Y-93184342D01*
X94891904Y-93184342D02*
X94844285Y-93279580D01*
X94844285Y-93279580D02*
X94796666Y-93327200D01*
X94796666Y-93327200D02*
X94701428Y-93374819D01*
X94701428Y-93374819D02*
X94463333Y-93374819D01*
X94463333Y-93374819D02*
X94368095Y-93327200D01*
X94368095Y-93327200D02*
X94320476Y-93279580D01*
X43666666Y-43454819D02*
X43666666Y-44169104D01*
X43666666Y-44169104D02*
X43619047Y-44311961D01*
X43619047Y-44311961D02*
X43523809Y-44407200D01*
X43523809Y-44407200D02*
X43380952Y-44454819D01*
X43380952Y-44454819D02*
X43285714Y-44454819D01*
X44666666Y-44454819D02*
X44095238Y-44454819D01*
X44380952Y-44454819D02*
X44380952Y-43454819D01*
X44380952Y-43454819D02*
X44285714Y-43597676D01*
X44285714Y-43597676D02*
X44190476Y-43692914D01*
X44190476Y-43692914D02*
X44095238Y-43740533D01*
X75778571Y-144404819D02*
X75445238Y-143928628D01*
X75207143Y-144404819D02*
X75207143Y-143404819D01*
X75207143Y-143404819D02*
X75588095Y-143404819D01*
X75588095Y-143404819D02*
X75683333Y-143452438D01*
X75683333Y-143452438D02*
X75730952Y-143500057D01*
X75730952Y-143500057D02*
X75778571Y-143595295D01*
X75778571Y-143595295D02*
X75778571Y-143738152D01*
X75778571Y-143738152D02*
X75730952Y-143833390D01*
X75730952Y-143833390D02*
X75683333Y-143881009D01*
X75683333Y-143881009D02*
X75588095Y-143928628D01*
X75588095Y-143928628D02*
X75207143Y-143928628D01*
X76064286Y-143404819D02*
X76397619Y-144404819D01*
X76397619Y-144404819D02*
X76730952Y-143404819D01*
X77588095Y-144404819D02*
X77016667Y-144404819D01*
X77302381Y-144404819D02*
X77302381Y-143404819D01*
X77302381Y-143404819D02*
X77207143Y-143547676D01*
X77207143Y-143547676D02*
X77111905Y-143642914D01*
X77111905Y-143642914D02*
X77016667Y-143690533D01*
X78445238Y-143738152D02*
X78445238Y-144404819D01*
X78207143Y-143357200D02*
X77969048Y-144071485D01*
X77969048Y-144071485D02*
X78588095Y-144071485D01*
X133286666Y-59454819D02*
X133286666Y-60169104D01*
X133286666Y-60169104D02*
X133239047Y-60311961D01*
X133239047Y-60311961D02*
X133143809Y-60407200D01*
X133143809Y-60407200D02*
X133000952Y-60454819D01*
X133000952Y-60454819D02*
X132905714Y-60454819D01*
X134191428Y-59788152D02*
X134191428Y-60454819D01*
X133953333Y-59407200D02*
X133715238Y-60121485D01*
X133715238Y-60121485D02*
X134334285Y-60121485D01*
X153841905Y-49984819D02*
X153841905Y-48984819D01*
X153841905Y-48984819D02*
X154080000Y-48984819D01*
X154080000Y-48984819D02*
X154222857Y-49032438D01*
X154222857Y-49032438D02*
X154318095Y-49127676D01*
X154318095Y-49127676D02*
X154365714Y-49222914D01*
X154365714Y-49222914D02*
X154413333Y-49413390D01*
X154413333Y-49413390D02*
X154413333Y-49556247D01*
X154413333Y-49556247D02*
X154365714Y-49746723D01*
X154365714Y-49746723D02*
X154318095Y-49841961D01*
X154318095Y-49841961D02*
X154222857Y-49937200D01*
X154222857Y-49937200D02*
X154080000Y-49984819D01*
X154080000Y-49984819D02*
X153841905Y-49984819D01*
X154794286Y-49080057D02*
X154841905Y-49032438D01*
X154841905Y-49032438D02*
X154937143Y-48984819D01*
X154937143Y-48984819D02*
X155175238Y-48984819D01*
X155175238Y-48984819D02*
X155270476Y-49032438D01*
X155270476Y-49032438D02*
X155318095Y-49080057D01*
X155318095Y-49080057D02*
X155365714Y-49175295D01*
X155365714Y-49175295D02*
X155365714Y-49270533D01*
X155365714Y-49270533D02*
X155318095Y-49413390D01*
X155318095Y-49413390D02*
X154746667Y-49984819D01*
X154746667Y-49984819D02*
X155365714Y-49984819D01*
X155794286Y-49984819D02*
X155794286Y-48984819D01*
X155794286Y-48984819D02*
X156032381Y-48984819D01*
X156032381Y-48984819D02*
X156175238Y-49032438D01*
X156175238Y-49032438D02*
X156270476Y-49127676D01*
X156270476Y-49127676D02*
X156318095Y-49222914D01*
X156318095Y-49222914D02*
X156365714Y-49413390D01*
X156365714Y-49413390D02*
X156365714Y-49556247D01*
X156365714Y-49556247D02*
X156318095Y-49746723D01*
X156318095Y-49746723D02*
X156270476Y-49841961D01*
X156270476Y-49841961D02*
X156175238Y-49937200D01*
X156175238Y-49937200D02*
X156032381Y-49984819D01*
X156032381Y-49984819D02*
X155794286Y-49984819D01*
X149738095Y-50354819D02*
X149738095Y-49354819D01*
X150309523Y-50354819D02*
X149880952Y-49783390D01*
X150309523Y-49354819D02*
X149738095Y-49926247D01*
X51048095Y-51124819D02*
X51048095Y-51934342D01*
X51048095Y-51934342D02*
X51095714Y-52029580D01*
X51095714Y-52029580D02*
X51143333Y-52077200D01*
X51143333Y-52077200D02*
X51238571Y-52124819D01*
X51238571Y-52124819D02*
X51429047Y-52124819D01*
X51429047Y-52124819D02*
X51524285Y-52077200D01*
X51524285Y-52077200D02*
X51571904Y-52029580D01*
X51571904Y-52029580D02*
X51619523Y-51934342D01*
X51619523Y-51934342D02*
X51619523Y-51124819D01*
X52619523Y-52124819D02*
X52048095Y-52124819D01*
X52333809Y-52124819D02*
X52333809Y-51124819D01*
X52333809Y-51124819D02*
X52238571Y-51267676D01*
X52238571Y-51267676D02*
X52143333Y-51362914D01*
X52143333Y-51362914D02*
X52048095Y-51410533D01*
X124987142Y-141374819D02*
X124653809Y-140898628D01*
X124415714Y-141374819D02*
X124415714Y-140374819D01*
X124415714Y-140374819D02*
X124796666Y-140374819D01*
X124796666Y-140374819D02*
X124891904Y-140422438D01*
X124891904Y-140422438D02*
X124939523Y-140470057D01*
X124939523Y-140470057D02*
X124987142Y-140565295D01*
X124987142Y-140565295D02*
X124987142Y-140708152D01*
X124987142Y-140708152D02*
X124939523Y-140803390D01*
X124939523Y-140803390D02*
X124891904Y-140851009D01*
X124891904Y-140851009D02*
X124796666Y-140898628D01*
X124796666Y-140898628D02*
X124415714Y-140898628D01*
X125368095Y-140470057D02*
X125415714Y-140422438D01*
X125415714Y-140422438D02*
X125510952Y-140374819D01*
X125510952Y-140374819D02*
X125749047Y-140374819D01*
X125749047Y-140374819D02*
X125844285Y-140422438D01*
X125844285Y-140422438D02*
X125891904Y-140470057D01*
X125891904Y-140470057D02*
X125939523Y-140565295D01*
X125939523Y-140565295D02*
X125939523Y-140660533D01*
X125939523Y-140660533D02*
X125891904Y-140803390D01*
X125891904Y-140803390D02*
X125320476Y-141374819D01*
X125320476Y-141374819D02*
X125939523Y-141374819D01*
X126796666Y-140708152D02*
X126796666Y-141374819D01*
X126558571Y-140327200D02*
X126320476Y-141041485D01*
X126320476Y-141041485D02*
X126939523Y-141041485D01*
X43778571Y-144404819D02*
X43445238Y-143928628D01*
X43207143Y-144404819D02*
X43207143Y-143404819D01*
X43207143Y-143404819D02*
X43588095Y-143404819D01*
X43588095Y-143404819D02*
X43683333Y-143452438D01*
X43683333Y-143452438D02*
X43730952Y-143500057D01*
X43730952Y-143500057D02*
X43778571Y-143595295D01*
X43778571Y-143595295D02*
X43778571Y-143738152D01*
X43778571Y-143738152D02*
X43730952Y-143833390D01*
X43730952Y-143833390D02*
X43683333Y-143881009D01*
X43683333Y-143881009D02*
X43588095Y-143928628D01*
X43588095Y-143928628D02*
X43207143Y-143928628D01*
X44064286Y-143404819D02*
X44397619Y-144404819D01*
X44397619Y-144404819D02*
X44730952Y-143404819D01*
X45588095Y-144404819D02*
X45016667Y-144404819D01*
X45302381Y-144404819D02*
X45302381Y-143404819D01*
X45302381Y-143404819D02*
X45207143Y-143547676D01*
X45207143Y-143547676D02*
X45111905Y-143642914D01*
X45111905Y-143642914D02*
X45016667Y-143690533D01*
X45921429Y-143404819D02*
X46540476Y-143404819D01*
X46540476Y-143404819D02*
X46207143Y-143785771D01*
X46207143Y-143785771D02*
X46350000Y-143785771D01*
X46350000Y-143785771D02*
X46445238Y-143833390D01*
X46445238Y-143833390D02*
X46492857Y-143881009D01*
X46492857Y-143881009D02*
X46540476Y-143976247D01*
X46540476Y-143976247D02*
X46540476Y-144214342D01*
X46540476Y-144214342D02*
X46492857Y-144309580D01*
X46492857Y-144309580D02*
X46445238Y-144357200D01*
X46445238Y-144357200D02*
X46350000Y-144404819D01*
X46350000Y-144404819D02*
X46064286Y-144404819D01*
X46064286Y-144404819D02*
X45969048Y-144357200D01*
X45969048Y-144357200D02*
X45921429Y-144309580D01*
X96913333Y-58084819D02*
X96580000Y-57608628D01*
X96341905Y-58084819D02*
X96341905Y-57084819D01*
X96341905Y-57084819D02*
X96722857Y-57084819D01*
X96722857Y-57084819D02*
X96818095Y-57132438D01*
X96818095Y-57132438D02*
X96865714Y-57180057D01*
X96865714Y-57180057D02*
X96913333Y-57275295D01*
X96913333Y-57275295D02*
X96913333Y-57418152D01*
X96913333Y-57418152D02*
X96865714Y-57513390D01*
X96865714Y-57513390D02*
X96818095Y-57561009D01*
X96818095Y-57561009D02*
X96722857Y-57608628D01*
X96722857Y-57608628D02*
X96341905Y-57608628D01*
X97294286Y-57180057D02*
X97341905Y-57132438D01*
X97341905Y-57132438D02*
X97437143Y-57084819D01*
X97437143Y-57084819D02*
X97675238Y-57084819D01*
X97675238Y-57084819D02*
X97770476Y-57132438D01*
X97770476Y-57132438D02*
X97818095Y-57180057D01*
X97818095Y-57180057D02*
X97865714Y-57275295D01*
X97865714Y-57275295D02*
X97865714Y-57370533D01*
X97865714Y-57370533D02*
X97818095Y-57513390D01*
X97818095Y-57513390D02*
X97246667Y-58084819D01*
X97246667Y-58084819D02*
X97865714Y-58084819D01*
X60987142Y-93374819D02*
X60653809Y-92898628D01*
X60415714Y-93374819D02*
X60415714Y-92374819D01*
X60415714Y-92374819D02*
X60796666Y-92374819D01*
X60796666Y-92374819D02*
X60891904Y-92422438D01*
X60891904Y-92422438D02*
X60939523Y-92470057D01*
X60939523Y-92470057D02*
X60987142Y-92565295D01*
X60987142Y-92565295D02*
X60987142Y-92708152D01*
X60987142Y-92708152D02*
X60939523Y-92803390D01*
X60939523Y-92803390D02*
X60891904Y-92851009D01*
X60891904Y-92851009D02*
X60796666Y-92898628D01*
X60796666Y-92898628D02*
X60415714Y-92898628D01*
X61939523Y-93374819D02*
X61368095Y-93374819D01*
X61653809Y-93374819D02*
X61653809Y-92374819D01*
X61653809Y-92374819D02*
X61558571Y-92517676D01*
X61558571Y-92517676D02*
X61463333Y-92612914D01*
X61463333Y-92612914D02*
X61368095Y-92660533D01*
X62796666Y-92708152D02*
X62796666Y-93374819D01*
X62558571Y-92327200D02*
X62320476Y-93041485D01*
X62320476Y-93041485D02*
X62939523Y-93041485D01*
X108254761Y-96404819D02*
X107921428Y-95928628D01*
X107683333Y-96404819D02*
X107683333Y-95404819D01*
X107683333Y-95404819D02*
X108064285Y-95404819D01*
X108064285Y-95404819D02*
X108159523Y-95452438D01*
X108159523Y-95452438D02*
X108207142Y-95500057D01*
X108207142Y-95500057D02*
X108254761Y-95595295D01*
X108254761Y-95595295D02*
X108254761Y-95738152D01*
X108254761Y-95738152D02*
X108207142Y-95833390D01*
X108207142Y-95833390D02*
X108159523Y-95881009D01*
X108159523Y-95881009D02*
X108064285Y-95928628D01*
X108064285Y-95928628D02*
X107683333Y-95928628D01*
X108540476Y-95404819D02*
X108873809Y-96404819D01*
X108873809Y-96404819D02*
X109207142Y-95404819D01*
X109445238Y-95404819D02*
X110111904Y-95404819D01*
X110111904Y-95404819D02*
X109683333Y-96404819D01*
X67333333Y-103859580D02*
X67285714Y-103907200D01*
X67285714Y-103907200D02*
X67142857Y-103954819D01*
X67142857Y-103954819D02*
X67047619Y-103954819D01*
X67047619Y-103954819D02*
X66904762Y-103907200D01*
X66904762Y-103907200D02*
X66809524Y-103811961D01*
X66809524Y-103811961D02*
X66761905Y-103716723D01*
X66761905Y-103716723D02*
X66714286Y-103526247D01*
X66714286Y-103526247D02*
X66714286Y-103383390D01*
X66714286Y-103383390D02*
X66761905Y-103192914D01*
X66761905Y-103192914D02*
X66809524Y-103097676D01*
X66809524Y-103097676D02*
X66904762Y-103002438D01*
X66904762Y-103002438D02*
X67047619Y-102954819D01*
X67047619Y-102954819D02*
X67142857Y-102954819D01*
X67142857Y-102954819D02*
X67285714Y-103002438D01*
X67285714Y-103002438D02*
X67333333Y-103050057D01*
X68190476Y-102954819D02*
X68000000Y-102954819D01*
X68000000Y-102954819D02*
X67904762Y-103002438D01*
X67904762Y-103002438D02*
X67857143Y-103050057D01*
X67857143Y-103050057D02*
X67761905Y-103192914D01*
X67761905Y-103192914D02*
X67714286Y-103383390D01*
X67714286Y-103383390D02*
X67714286Y-103764342D01*
X67714286Y-103764342D02*
X67761905Y-103859580D01*
X67761905Y-103859580D02*
X67809524Y-103907200D01*
X67809524Y-103907200D02*
X67904762Y-103954819D01*
X67904762Y-103954819D02*
X68095238Y-103954819D01*
X68095238Y-103954819D02*
X68190476Y-103907200D01*
X68190476Y-103907200D02*
X68238095Y-103859580D01*
X68238095Y-103859580D02*
X68285714Y-103764342D01*
X68285714Y-103764342D02*
X68285714Y-103526247D01*
X68285714Y-103526247D02*
X68238095Y-103431009D01*
X68238095Y-103431009D02*
X68190476Y-103383390D01*
X68190476Y-103383390D02*
X68095238Y-103335771D01*
X68095238Y-103335771D02*
X67904762Y-103335771D01*
X67904762Y-103335771D02*
X67809524Y-103383390D01*
X67809524Y-103383390D02*
X67761905Y-103431009D01*
X67761905Y-103431009D02*
X67714286Y-103526247D01*
X169463333Y-147374819D02*
X169130000Y-146898628D01*
X168891905Y-147374819D02*
X168891905Y-146374819D01*
X168891905Y-146374819D02*
X169272857Y-146374819D01*
X169272857Y-146374819D02*
X169368095Y-146422438D01*
X169368095Y-146422438D02*
X169415714Y-146470057D01*
X169415714Y-146470057D02*
X169463333Y-146565295D01*
X169463333Y-146565295D02*
X169463333Y-146708152D01*
X169463333Y-146708152D02*
X169415714Y-146803390D01*
X169415714Y-146803390D02*
X169368095Y-146851009D01*
X169368095Y-146851009D02*
X169272857Y-146898628D01*
X169272857Y-146898628D02*
X168891905Y-146898628D01*
X169939524Y-147374819D02*
X170130000Y-147374819D01*
X170130000Y-147374819D02*
X170225238Y-147327200D01*
X170225238Y-147327200D02*
X170272857Y-147279580D01*
X170272857Y-147279580D02*
X170368095Y-147136723D01*
X170368095Y-147136723D02*
X170415714Y-146946247D01*
X170415714Y-146946247D02*
X170415714Y-146565295D01*
X170415714Y-146565295D02*
X170368095Y-146470057D01*
X170368095Y-146470057D02*
X170320476Y-146422438D01*
X170320476Y-146422438D02*
X170225238Y-146374819D01*
X170225238Y-146374819D02*
X170034762Y-146374819D01*
X170034762Y-146374819D02*
X169939524Y-146422438D01*
X169939524Y-146422438D02*
X169891905Y-146470057D01*
X169891905Y-146470057D02*
X169844286Y-146565295D01*
X169844286Y-146565295D02*
X169844286Y-146803390D01*
X169844286Y-146803390D02*
X169891905Y-146898628D01*
X169891905Y-146898628D02*
X169939524Y-146946247D01*
X169939524Y-146946247D02*
X170034762Y-146993866D01*
X170034762Y-146993866D02*
X170225238Y-146993866D01*
X170225238Y-146993866D02*
X170320476Y-146946247D01*
X170320476Y-146946247D02*
X170368095Y-146898628D01*
X170368095Y-146898628D02*
X170415714Y-146803390D01*
X72913333Y-63084819D02*
X72580000Y-62608628D01*
X72341905Y-63084819D02*
X72341905Y-62084819D01*
X72341905Y-62084819D02*
X72722857Y-62084819D01*
X72722857Y-62084819D02*
X72818095Y-62132438D01*
X72818095Y-62132438D02*
X72865714Y-62180057D01*
X72865714Y-62180057D02*
X72913333Y-62275295D01*
X72913333Y-62275295D02*
X72913333Y-62418152D01*
X72913333Y-62418152D02*
X72865714Y-62513390D01*
X72865714Y-62513390D02*
X72818095Y-62561009D01*
X72818095Y-62561009D02*
X72722857Y-62608628D01*
X72722857Y-62608628D02*
X72341905Y-62608628D01*
X73818095Y-62084819D02*
X73341905Y-62084819D01*
X73341905Y-62084819D02*
X73294286Y-62561009D01*
X73294286Y-62561009D02*
X73341905Y-62513390D01*
X73341905Y-62513390D02*
X73437143Y-62465771D01*
X73437143Y-62465771D02*
X73675238Y-62465771D01*
X73675238Y-62465771D02*
X73770476Y-62513390D01*
X73770476Y-62513390D02*
X73818095Y-62561009D01*
X73818095Y-62561009D02*
X73865714Y-62656247D01*
X73865714Y-62656247D02*
X73865714Y-62894342D01*
X73865714Y-62894342D02*
X73818095Y-62989580D01*
X73818095Y-62989580D02*
X73770476Y-63037200D01*
X73770476Y-63037200D02*
X73675238Y-63084819D01*
X73675238Y-63084819D02*
X73437143Y-63084819D01*
X73437143Y-63084819D02*
X73341905Y-63037200D01*
X73341905Y-63037200D02*
X73294286Y-62989580D01*
X163333333Y-103859580D02*
X163285714Y-103907200D01*
X163285714Y-103907200D02*
X163142857Y-103954819D01*
X163142857Y-103954819D02*
X163047619Y-103954819D01*
X163047619Y-103954819D02*
X162904762Y-103907200D01*
X162904762Y-103907200D02*
X162809524Y-103811961D01*
X162809524Y-103811961D02*
X162761905Y-103716723D01*
X162761905Y-103716723D02*
X162714286Y-103526247D01*
X162714286Y-103526247D02*
X162714286Y-103383390D01*
X162714286Y-103383390D02*
X162761905Y-103192914D01*
X162761905Y-103192914D02*
X162809524Y-103097676D01*
X162809524Y-103097676D02*
X162904762Y-103002438D01*
X162904762Y-103002438D02*
X163047619Y-102954819D01*
X163047619Y-102954819D02*
X163142857Y-102954819D01*
X163142857Y-102954819D02*
X163285714Y-103002438D01*
X163285714Y-103002438D02*
X163333333Y-103050057D01*
X163809524Y-103954819D02*
X164000000Y-103954819D01*
X164000000Y-103954819D02*
X164095238Y-103907200D01*
X164095238Y-103907200D02*
X164142857Y-103859580D01*
X164142857Y-103859580D02*
X164238095Y-103716723D01*
X164238095Y-103716723D02*
X164285714Y-103526247D01*
X164285714Y-103526247D02*
X164285714Y-103145295D01*
X164285714Y-103145295D02*
X164238095Y-103050057D01*
X164238095Y-103050057D02*
X164190476Y-103002438D01*
X164190476Y-103002438D02*
X164095238Y-102954819D01*
X164095238Y-102954819D02*
X163904762Y-102954819D01*
X163904762Y-102954819D02*
X163809524Y-103002438D01*
X163809524Y-103002438D02*
X163761905Y-103050057D01*
X163761905Y-103050057D02*
X163714286Y-103145295D01*
X163714286Y-103145295D02*
X163714286Y-103383390D01*
X163714286Y-103383390D02*
X163761905Y-103478628D01*
X163761905Y-103478628D02*
X163809524Y-103526247D01*
X163809524Y-103526247D02*
X163904762Y-103573866D01*
X163904762Y-103573866D02*
X164095238Y-103573866D01*
X164095238Y-103573866D02*
X164190476Y-103526247D01*
X164190476Y-103526247D02*
X164238095Y-103478628D01*
X164238095Y-103478628D02*
X164285714Y-103383390D01*
X82333333Y-59859580D02*
X82285714Y-59907200D01*
X82285714Y-59907200D02*
X82142857Y-59954819D01*
X82142857Y-59954819D02*
X82047619Y-59954819D01*
X82047619Y-59954819D02*
X81904762Y-59907200D01*
X81904762Y-59907200D02*
X81809524Y-59811961D01*
X81809524Y-59811961D02*
X81761905Y-59716723D01*
X81761905Y-59716723D02*
X81714286Y-59526247D01*
X81714286Y-59526247D02*
X81714286Y-59383390D01*
X81714286Y-59383390D02*
X81761905Y-59192914D01*
X81761905Y-59192914D02*
X81809524Y-59097676D01*
X81809524Y-59097676D02*
X81904762Y-59002438D01*
X81904762Y-59002438D02*
X82047619Y-58954819D01*
X82047619Y-58954819D02*
X82142857Y-58954819D01*
X82142857Y-58954819D02*
X82285714Y-59002438D01*
X82285714Y-59002438D02*
X82333333Y-59050057D01*
X83285714Y-59954819D02*
X82714286Y-59954819D01*
X83000000Y-59954819D02*
X83000000Y-58954819D01*
X83000000Y-58954819D02*
X82904762Y-59097676D01*
X82904762Y-59097676D02*
X82809524Y-59192914D01*
X82809524Y-59192914D02*
X82714286Y-59240533D01*
%TO.C,RV3*%
D11*
X111479000Y-64880000D02*
X121520000Y-64880000D01*
X111479000Y-68816000D02*
X111479000Y-64880000D01*
X111479000Y-77120000D02*
X111479000Y-73183000D01*
X111479000Y-77120000D02*
X112800000Y-77120000D01*
X115250000Y-77120000D02*
X115630000Y-77120000D01*
X117371000Y-77120000D02*
X118130000Y-77120000D01*
X119870000Y-77120000D02*
X121520000Y-77120000D01*
X121520000Y-68816000D02*
X121520000Y-64880000D01*
X121520000Y-77120000D02*
X121520000Y-73183000D01*
%TO.C,R25*%
X160000000Y-136880000D02*
X160000000Y-137650000D01*
X160000000Y-144960000D02*
X160000000Y-144190000D01*
X158630000Y-137650000D02*
X161370000Y-137650000D01*
X161370000Y-144190000D01*
X158630000Y-144190000D01*
X158630000Y-137650000D01*
%TO.C,R18*%
X64000000Y-112880000D02*
X64000000Y-113650000D01*
X64000000Y-120960000D02*
X64000000Y-120190000D01*
X62630000Y-113650000D02*
X65370000Y-113650000D01*
X65370000Y-120190000D01*
X62630000Y-120190000D01*
X62630000Y-113650000D01*
%TO.C,JMD1*%
X38620000Y-141380000D02*
X38620000Y-140000000D01*
X40000000Y-141380000D02*
X38620000Y-141380000D01*
X41270000Y-138620000D02*
X64240000Y-138620000D01*
X41270000Y-141380000D02*
X41270000Y-138620000D01*
X41270000Y-141380000D02*
X64240000Y-141380000D01*
X64240000Y-141380000D02*
X64240000Y-138620000D01*
%TO.C,R1*%
X35040000Y-65000000D02*
X35810000Y-65000000D01*
X43120000Y-65000000D02*
X42350000Y-65000000D01*
X35810000Y-63630000D02*
X42350000Y-63630000D01*
X42350000Y-66370000D01*
X35810000Y-66370000D01*
X35810000Y-63630000D01*
%TO.C,RV11*%
X111479000Y-112880000D02*
X121520000Y-112880000D01*
X111479000Y-116816000D02*
X111479000Y-112880000D01*
X111479000Y-125120000D02*
X111479000Y-121183000D01*
X111479000Y-125120000D02*
X112800000Y-125120000D01*
X115250000Y-125120000D02*
X115630000Y-125120000D01*
X117371000Y-125120000D02*
X118130000Y-125120000D01*
X119870000Y-125120000D02*
X121520000Y-125120000D01*
X121520000Y-116816000D02*
X121520000Y-112880000D01*
X121520000Y-125120000D02*
X121520000Y-121183000D01*
%TO.C,J3*%
X133400000Y-24200000D02*
X142600000Y-24200000D01*
X133400000Y-33000000D02*
X133400000Y-24200000D01*
X133400000Y-38900000D02*
X133400000Y-37000000D01*
X136100000Y-38900000D02*
X133400000Y-38900000D01*
X141750000Y-39100000D02*
X142800000Y-39100000D01*
X142600000Y-24200000D02*
X142600000Y-38900000D01*
X142600000Y-38900000D02*
X140000000Y-38900000D01*
X142800000Y-38050000D02*
X142800000Y-39100000D01*
%TO.C,RV16*%
X143479000Y-136880000D02*
X153520000Y-136880000D01*
X143479000Y-140816000D02*
X143479000Y-136880000D01*
X143479000Y-149120000D02*
X143479000Y-145183000D01*
X143479000Y-149120000D02*
X144800000Y-149120000D01*
X147250000Y-149120000D02*
X147630000Y-149120000D01*
X149371000Y-149120000D02*
X150130000Y-149120000D01*
X151870000Y-149120000D02*
X153520000Y-149120000D01*
X153520000Y-140816000D02*
X153520000Y-136880000D01*
X153520000Y-149120000D02*
X153520000Y-145183000D01*
%TO.C,R6*%
X172000000Y-76880000D02*
X172000000Y-77650000D01*
X172000000Y-84960000D02*
X172000000Y-84190000D01*
X170630000Y-77650000D02*
X173370000Y-77650000D01*
X173370000Y-84190000D01*
X170630000Y-84190000D01*
X170630000Y-77650000D01*
%TO.C,JMA1*%
X47510000Y-93380000D02*
X47510000Y-92000000D01*
X48890000Y-93380000D02*
X47510000Y-93380000D01*
X50160000Y-90620000D02*
X68050000Y-90620000D01*
X50160000Y-93380000D02*
X50160000Y-90620000D01*
X50160000Y-93380000D02*
X68050000Y-93380000D01*
X68050000Y-93380000D02*
X68050000Y-90620000D01*
%TO.C,JMD4*%
X103390000Y-141380000D02*
X103390000Y-140000000D01*
X104770000Y-141380000D02*
X103390000Y-141380000D01*
X106040000Y-138620000D02*
X108690000Y-138620000D01*
X106040000Y-141380000D02*
X106040000Y-138620000D01*
X106040000Y-141380000D02*
X108690000Y-141380000D01*
X108690000Y-141380000D02*
X108690000Y-138620000D01*
%TO.C,R4*%
X69040000Y-59000000D02*
X69810000Y-59000000D01*
X77120000Y-59000000D02*
X76350000Y-59000000D01*
X69810000Y-57630000D02*
X76350000Y-57630000D01*
X76350000Y-60370000D01*
X69810000Y-60370000D01*
X69810000Y-57630000D01*
%TO.C,U2*%
X48670000Y-165920000D02*
X48670000Y-171380000D01*
X48670000Y-173380000D02*
X48670000Y-178840000D01*
X48670000Y-178840000D02*
X79270000Y-178840000D01*
X79270000Y-165920000D02*
X48670000Y-165920000D01*
X79270000Y-178840000D02*
X79270000Y-165920000D01*
X48670000Y-171380000D02*
G75*
G02*
X48670000Y-173380000I0J-1000000D01*
G01*
%TO.C,R27*%
X113040000Y-172000000D02*
X113810000Y-172000000D01*
X121120000Y-172000000D02*
X120350000Y-172000000D01*
X113810000Y-170630000D02*
X120350000Y-170630000D01*
X120350000Y-173370000D01*
X113810000Y-173370000D01*
X113810000Y-170630000D01*
%TO.C,C11*%
X100630000Y-124880000D02*
X100967000Y-124880000D01*
X100630000Y-130120000D02*
X100630000Y-124880000D01*
X100967000Y-130120000D02*
X100630000Y-130120000D01*
X103033000Y-124880000D02*
X103370000Y-124880000D01*
X103370000Y-124880000D02*
X103370000Y-130120000D01*
X103370000Y-130120000D02*
X103033000Y-130120000D01*
%TO.C,C13*%
X164630000Y-124880000D02*
X164967000Y-124880000D01*
X164630000Y-130120000D02*
X164630000Y-124880000D01*
X164967000Y-130120000D02*
X164630000Y-130120000D01*
X167033000Y-124880000D02*
X167370000Y-124880000D01*
X167370000Y-124880000D02*
X167370000Y-130120000D01*
X167370000Y-130120000D02*
X167033000Y-130120000D01*
%TO.C,D5*%
X178764000Y-130290000D02*
X178920000Y-130290000D01*
X181080000Y-130290000D02*
X181236000Y-130290000D01*
X178764484Y-130290000D02*
G75*
G02*
X178920000Y-127058563I1235516J1560000D01*
G01*
X178920000Y-129770961D02*
G75*
G02*
X178920000Y-127689039I1080000J1040961D01*
G01*
X181080000Y-127058563D02*
G75*
G02*
X181235516Y-130290000I-1080000J-1671437D01*
G01*
X181080000Y-127689039D02*
G75*
G02*
X181080000Y-129770961I-1080000J-1040961D01*
G01*
%TO.C,C16*%
X132630000Y-148880000D02*
X132967000Y-148880000D01*
X132630000Y-154120000D02*
X132630000Y-148880000D01*
X132967000Y-154120000D02*
X132630000Y-154120000D01*
X135033000Y-148880000D02*
X135370000Y-148880000D01*
X135370000Y-148880000D02*
X135370000Y-154120000D01*
X135370000Y-154120000D02*
X135033000Y-154120000D01*
%TO.C,C14*%
X68630000Y-148880000D02*
X68967000Y-148880000D01*
X68630000Y-154120000D02*
X68630000Y-148880000D01*
X68967000Y-154120000D02*
X68630000Y-154120000D01*
X71033000Y-148880000D02*
X71370000Y-148880000D01*
X71370000Y-148880000D02*
X71370000Y-154120000D01*
X71370000Y-154120000D02*
X71033000Y-154120000D01*
%TO.C,R7*%
X172000000Y-98880000D02*
X172000000Y-99650000D01*
X172000000Y-106960000D02*
X172000000Y-106190000D01*
X170630000Y-99650000D02*
X173370000Y-99650000D01*
X173370000Y-106190000D01*
X170630000Y-106190000D01*
X170630000Y-99650000D01*
%TO.C,D1*%
X35040000Y-59000000D02*
X35690000Y-59000000D01*
X36290000Y-57880000D02*
X36290000Y-60120000D01*
X36410000Y-57880000D02*
X36410000Y-60120000D01*
X36530000Y-57880000D02*
X36530000Y-60120000D01*
X40580000Y-59000000D02*
X39930000Y-59000000D01*
X35690000Y-57880000D02*
X39930000Y-57880000D01*
X39930000Y-60120000D01*
X35690000Y-60120000D01*
X35690000Y-57880000D01*
%TO.C,C7*%
X100630000Y-100880000D02*
X100967000Y-100880000D01*
X100630000Y-106120000D02*
X100630000Y-100880000D01*
X100967000Y-106120000D02*
X100630000Y-106120000D01*
X103033000Y-100880000D02*
X103370000Y-100880000D01*
X103370000Y-100880000D02*
X103370000Y-106120000D01*
X103370000Y-106120000D02*
X103033000Y-106120000D01*
%TO.C,R23*%
X96000000Y-136880000D02*
X96000000Y-137650000D01*
X96000000Y-144960000D02*
X96000000Y-144190000D01*
X94630000Y-137650000D02*
X97370000Y-137650000D01*
X97370000Y-144190000D01*
X94630000Y-144190000D01*
X94630000Y-137650000D01*
%TO.C,R10*%
X64000000Y-64880000D02*
X64000000Y-65650000D01*
X64000000Y-72960000D02*
X64000000Y-72190000D01*
X62630000Y-65650000D02*
X65370000Y-65650000D01*
X65370000Y-72190000D01*
X62630000Y-72190000D01*
X62630000Y-65650000D01*
%TO.C,JMA2*%
X70370000Y-93380000D02*
X70370000Y-92000000D01*
X71750000Y-93380000D02*
X70370000Y-93380000D01*
X73020000Y-90620000D02*
X90910000Y-90620000D01*
X73020000Y-93380000D02*
X73020000Y-90620000D01*
X73020000Y-93380000D02*
X90910000Y-93380000D01*
X90910000Y-93380000D02*
X90910000Y-90620000D01*
%TO.C,RV4*%
X143479000Y-64880000D02*
X153520000Y-64880000D01*
X143479000Y-68816000D02*
X143479000Y-64880000D01*
X143479000Y-77120000D02*
X143479000Y-73183000D01*
X143479000Y-77120000D02*
X144800000Y-77120000D01*
X147250000Y-77120000D02*
X147630000Y-77120000D01*
X149371000Y-77120000D02*
X150130000Y-77120000D01*
X151870000Y-77120000D02*
X153520000Y-77120000D01*
X153520000Y-68816000D02*
X153520000Y-64880000D01*
X153520000Y-77120000D02*
X153520000Y-73183000D01*
%TO.C,J2*%
X83400000Y-34400000D02*
G75*
G02*
X60600000Y-34400000I-11400000J0D01*
G01*
X60600000Y-34400000D02*
G75*
G02*
X83400000Y-34400000I11400000J0D01*
G01*
%TO.C,JMA3*%
X93230000Y-93380000D02*
X93230000Y-92000000D01*
X94610000Y-93380000D02*
X93230000Y-93380000D01*
X95880000Y-90620000D02*
X113770000Y-90620000D01*
X95880000Y-93380000D02*
X95880000Y-90620000D01*
X95880000Y-93380000D02*
X113770000Y-93380000D01*
X113770000Y-93380000D02*
X113770000Y-90620000D01*
%TO.C,RV2*%
X79479000Y-64880000D02*
X89520000Y-64880000D01*
X79479000Y-68816000D02*
X79479000Y-64880000D01*
X79479000Y-77120000D02*
X79479000Y-73183000D01*
X79479000Y-77120000D02*
X80800000Y-77120000D01*
X83250000Y-77120000D02*
X83630000Y-77120000D01*
X85371000Y-77120000D02*
X86130000Y-77120000D01*
X87870000Y-77120000D02*
X89520000Y-77120000D01*
X89520000Y-68816000D02*
X89520000Y-64880000D01*
X89520000Y-77120000D02*
X89520000Y-73183000D01*
%TO.C,R11*%
X96000000Y-64880000D02*
X96000000Y-65650000D01*
X96000000Y-72960000D02*
X96000000Y-72190000D01*
X94630000Y-65650000D02*
X97370000Y-65650000D01*
X97370000Y-72190000D01*
X94630000Y-72190000D01*
X94630000Y-65650000D01*
%TO.C,C5*%
X164630000Y-76880000D02*
X164967000Y-76880000D01*
X164630000Y-82120000D02*
X164630000Y-76880000D01*
X164967000Y-82120000D02*
X164630000Y-82120000D01*
X167033000Y-76880000D02*
X167370000Y-76880000D01*
X167370000Y-76880000D02*
X167370000Y-82120000D01*
X167370000Y-82120000D02*
X167033000Y-82120000D01*
%TO.C,RV10*%
X79479000Y-112880000D02*
X89520000Y-112880000D01*
X79479000Y-116816000D02*
X79479000Y-112880000D01*
X79479000Y-125120000D02*
X79479000Y-121183000D01*
X79479000Y-125120000D02*
X80800000Y-125120000D01*
X83250000Y-125120000D02*
X83630000Y-125120000D01*
X85371000Y-125120000D02*
X86130000Y-125120000D01*
X87870000Y-125120000D02*
X89520000Y-125120000D01*
X89520000Y-116816000D02*
X89520000Y-112880000D01*
X89520000Y-125120000D02*
X89520000Y-121183000D01*
%TO.C,R16*%
X128000000Y-88880000D02*
X128000000Y-89650000D01*
X128000000Y-96960000D02*
X128000000Y-96190000D01*
X126630000Y-89650000D02*
X129370000Y-89650000D01*
X129370000Y-96190000D01*
X126630000Y-96190000D01*
X126630000Y-89650000D01*
%TO.C,J10*%
X97790000Y-24930000D02*
X113780000Y-24930000D01*
X97790000Y-49470000D02*
X97790000Y-24930000D01*
X101610000Y-16030000D02*
X101610000Y-24930000D01*
X112850000Y-16030000D02*
X101610000Y-16030000D01*
X112850000Y-16030000D02*
X112850000Y-24930000D01*
X113780000Y-49470000D02*
X97790000Y-49470000D01*
X113780000Y-49470000D02*
X113780000Y-24930000D01*
%TO.C,RV8*%
X143479000Y-88880000D02*
X153520000Y-88880000D01*
X143479000Y-92816000D02*
X143479000Y-88880000D01*
X143479000Y-101120000D02*
X143479000Y-97183000D01*
X143479000Y-101120000D02*
X144800000Y-101120000D01*
X147250000Y-101120000D02*
X147630000Y-101120000D01*
X149371000Y-101120000D02*
X150130000Y-101120000D01*
X151870000Y-101120000D02*
X153520000Y-101120000D01*
X153520000Y-92816000D02*
X153520000Y-88880000D01*
X153520000Y-101120000D02*
X153520000Y-97183000D01*
%TO.C,R17*%
X160000000Y-88880000D02*
X160000000Y-89650000D01*
X160000000Y-96960000D02*
X160000000Y-96190000D01*
X158630000Y-89650000D02*
X161370000Y-89650000D01*
X161370000Y-96190000D01*
X158630000Y-96190000D01*
X158630000Y-89650000D01*
%TO.C,R3*%
X93040000Y-66000000D02*
X93810000Y-66000000D01*
X101120000Y-66000000D02*
X100350000Y-66000000D01*
X93810000Y-64630000D02*
X100350000Y-64630000D01*
X100350000Y-67370000D01*
X93810000Y-67370000D01*
X93810000Y-64630000D01*
%TO.C,R19*%
X96000000Y-112880000D02*
X96000000Y-113650000D01*
X96000000Y-120960000D02*
X96000000Y-120190000D01*
X94630000Y-113650000D02*
X97370000Y-113650000D01*
X97370000Y-120190000D01*
X94630000Y-120190000D01*
X94630000Y-113650000D01*
%TO.C,R22*%
X64000000Y-136880000D02*
X64000000Y-137650000D01*
X64000000Y-144960000D02*
X64000000Y-144190000D01*
X62630000Y-137650000D02*
X65370000Y-137650000D01*
X65370000Y-144190000D01*
X62630000Y-144190000D01*
X62630000Y-137650000D01*
%TO.C,R20*%
X128000000Y-112880000D02*
X128000000Y-113650000D01*
X128000000Y-120960000D02*
X128000000Y-120190000D01*
X126630000Y-113650000D02*
X129370000Y-113650000D01*
X129370000Y-120190000D01*
X126630000Y-120190000D01*
X126630000Y-113650000D01*
%TO.C,C18*%
X135880000Y-170630000D02*
X141120000Y-170630000D01*
X135880000Y-170967000D02*
X135880000Y-170630000D01*
X135880000Y-173370000D02*
X135880000Y-173033000D01*
X141120000Y-170630000D02*
X141120000Y-170967000D01*
X141120000Y-173033000D02*
X141120000Y-173370000D01*
X141120000Y-173370000D02*
X135880000Y-173370000D01*
%TO.C,RV9*%
X47479000Y-112880000D02*
X57520000Y-112880000D01*
X47479000Y-116816000D02*
X47479000Y-112880000D01*
X47479000Y-125120000D02*
X47479000Y-121183000D01*
X47479000Y-125120000D02*
X48800000Y-125120000D01*
X51250000Y-125120000D02*
X51630000Y-125120000D01*
X53371000Y-125120000D02*
X54130000Y-125120000D01*
X55870000Y-125120000D02*
X57520000Y-125120000D01*
X57520000Y-116816000D02*
X57520000Y-112880000D01*
X57520000Y-125120000D02*
X57520000Y-121183000D01*
%TO.C,C19*%
X159749759Y-62161000D02*
X160379759Y-62161000D01*
X160064759Y-61846000D02*
X160064759Y-62476000D01*
X163250000Y-60770000D02*
X163250000Y-67230000D01*
X163290000Y-60770000D02*
X163290000Y-67230000D01*
X163330000Y-60771000D02*
X163330000Y-67229000D01*
X163370000Y-60772000D02*
X163370000Y-67228000D01*
X163410000Y-60774000D02*
X163410000Y-67226000D01*
X163450000Y-60776000D02*
X163450000Y-67224000D01*
X163490000Y-60779000D02*
X163490000Y-62960000D01*
X163490000Y-65040000D02*
X163490000Y-67221000D01*
X163530000Y-60782000D02*
X163530000Y-62960000D01*
X163530000Y-65040000D02*
X163530000Y-67218000D01*
X163570000Y-60786000D02*
X163570000Y-62960000D01*
X163570000Y-65040000D02*
X163570000Y-67214000D01*
X163610000Y-60790000D02*
X163610000Y-62960000D01*
X163610000Y-65040000D02*
X163610000Y-67210000D01*
X163650000Y-60795000D02*
X163650000Y-62960000D01*
X163650000Y-65040000D02*
X163650000Y-67205000D01*
X163690000Y-60800000D02*
X163690000Y-62960000D01*
X163690000Y-65040000D02*
X163690000Y-67200000D01*
X163730000Y-60805000D02*
X163730000Y-62960000D01*
X163730000Y-65040000D02*
X163730000Y-67195000D01*
X163770000Y-60812000D02*
X163770000Y-62960000D01*
X163770000Y-65040000D02*
X163770000Y-67188000D01*
X163810000Y-60818000D02*
X163810000Y-62960000D01*
X163810000Y-65040000D02*
X163810000Y-67182000D01*
X163850000Y-60826000D02*
X163850000Y-62960000D01*
X163850000Y-65040000D02*
X163850000Y-67174000D01*
X163890000Y-60833000D02*
X163890000Y-62960000D01*
X163890000Y-65040000D02*
X163890000Y-67167000D01*
X163930000Y-60841000D02*
X163930000Y-62960000D01*
X163930000Y-65040000D02*
X163930000Y-67159000D01*
X163970000Y-60850000D02*
X163970000Y-62960000D01*
X163970000Y-65040000D02*
X163970000Y-67150000D01*
X164010000Y-60860000D02*
X164010000Y-62960000D01*
X164010000Y-65040000D02*
X164010000Y-67140000D01*
X164050000Y-60869000D02*
X164050000Y-62960000D01*
X164050000Y-65040000D02*
X164050000Y-67131000D01*
X164090000Y-60880000D02*
X164090000Y-62960000D01*
X164090000Y-65040000D02*
X164090000Y-67120000D01*
X164130000Y-60891000D02*
X164130000Y-62960000D01*
X164130000Y-65040000D02*
X164130000Y-67109000D01*
X164170000Y-60902000D02*
X164170000Y-62960000D01*
X164170000Y-65040000D02*
X164170000Y-67098000D01*
X164210000Y-60914000D02*
X164210000Y-62960000D01*
X164210000Y-65040000D02*
X164210000Y-67086000D01*
X164250000Y-60927000D02*
X164250000Y-62960000D01*
X164250000Y-65040000D02*
X164250000Y-67073000D01*
X164290000Y-60940000D02*
X164290000Y-62960000D01*
X164290000Y-65040000D02*
X164290000Y-67060000D01*
X164330000Y-60953000D02*
X164330000Y-62960000D01*
X164330000Y-65040000D02*
X164330000Y-67047000D01*
X164370000Y-60968000D02*
X164370000Y-62960000D01*
X164370000Y-65040000D02*
X164370000Y-67032000D01*
X164410000Y-60983000D02*
X164410000Y-62960000D01*
X164410000Y-65040000D02*
X164410000Y-67017000D01*
X164450000Y-60998000D02*
X164450000Y-62960000D01*
X164450000Y-65040000D02*
X164450000Y-67002000D01*
X164490000Y-61014000D02*
X164490000Y-62960000D01*
X164490000Y-65040000D02*
X164490000Y-66986000D01*
X164530000Y-61031000D02*
X164530000Y-62960000D01*
X164530000Y-65040000D02*
X164530000Y-66969000D01*
X164570000Y-61048000D02*
X164570000Y-62960000D01*
X164570000Y-65040000D02*
X164570000Y-66952000D01*
X164610000Y-61066000D02*
X164610000Y-62960000D01*
X164610000Y-65040000D02*
X164610000Y-66934000D01*
X164650000Y-61085000D02*
X164650000Y-62960000D01*
X164650000Y-65040000D02*
X164650000Y-66915000D01*
X164690000Y-61104000D02*
X164690000Y-62960000D01*
X164690000Y-65040000D02*
X164690000Y-66896000D01*
X164730000Y-61124000D02*
X164730000Y-62960000D01*
X164730000Y-65040000D02*
X164730000Y-66876000D01*
X164770000Y-61145000D02*
X164770000Y-62960000D01*
X164770000Y-65040000D02*
X164770000Y-66855000D01*
X164810000Y-61166000D02*
X164810000Y-62960000D01*
X164810000Y-65040000D02*
X164810000Y-66834000D01*
X164850000Y-61188000D02*
X164850000Y-62960000D01*
X164850000Y-65040000D02*
X164850000Y-66812000D01*
X164890000Y-61211000D02*
X164890000Y-62960000D01*
X164890000Y-65040000D02*
X164890000Y-66789000D01*
X164930000Y-61235000D02*
X164930000Y-62960000D01*
X164930000Y-65040000D02*
X164930000Y-66765000D01*
X164970000Y-61259000D02*
X164970000Y-62960000D01*
X164970000Y-65040000D02*
X164970000Y-66741000D01*
X165010000Y-61284000D02*
X165010000Y-62960000D01*
X165010000Y-65040000D02*
X165010000Y-66716000D01*
X165050000Y-61310000D02*
X165050000Y-62960000D01*
X165050000Y-65040000D02*
X165050000Y-66690000D01*
X165090000Y-61337000D02*
X165090000Y-62960000D01*
X165090000Y-65040000D02*
X165090000Y-66663000D01*
X165130000Y-61364000D02*
X165130000Y-62960000D01*
X165130000Y-65040000D02*
X165130000Y-66636000D01*
X165170000Y-61393000D02*
X165170000Y-62960000D01*
X165170000Y-65040000D02*
X165170000Y-66607000D01*
X165210000Y-61423000D02*
X165210000Y-62960000D01*
X165210000Y-65040000D02*
X165210000Y-66577000D01*
X165250000Y-61453000D02*
X165250000Y-62960000D01*
X165250000Y-65040000D02*
X165250000Y-66547000D01*
X165290000Y-61484000D02*
X165290000Y-62960000D01*
X165290000Y-65040000D02*
X165290000Y-66516000D01*
X165330000Y-61517000D02*
X165330000Y-62960000D01*
X165330000Y-65040000D02*
X165330000Y-66483000D01*
X165370000Y-61550000D02*
X165370000Y-62960000D01*
X165370000Y-65040000D02*
X165370000Y-66450000D01*
X165410000Y-61585000D02*
X165410000Y-62960000D01*
X165410000Y-65040000D02*
X165410000Y-66415000D01*
X165450000Y-61621000D02*
X165450000Y-62960000D01*
X165450000Y-65040000D02*
X165450000Y-66379000D01*
X165490000Y-61658000D02*
X165490000Y-62960000D01*
X165490000Y-65040000D02*
X165490000Y-66342000D01*
X165530000Y-61696000D02*
X165530000Y-62960000D01*
X165530000Y-65040000D02*
X165530000Y-66304000D01*
X165570000Y-61736000D02*
X165570000Y-66264000D01*
X165610000Y-61777000D02*
X165610000Y-66223000D01*
X165650000Y-61819000D02*
X165650000Y-66181000D01*
X165690000Y-61863000D02*
X165690000Y-66137000D01*
X165730000Y-61909000D02*
X165730000Y-66091000D01*
X165770000Y-61956000D02*
X165770000Y-66044000D01*
X165810000Y-62005000D02*
X165810000Y-65995000D01*
X165850000Y-62057000D02*
X165850000Y-65943000D01*
X165890000Y-62110000D02*
X165890000Y-65890000D01*
X165930000Y-62166000D02*
X165930000Y-65834000D01*
X165970000Y-62225000D02*
X165970000Y-65775000D01*
X166010000Y-62286000D02*
X166010000Y-65714000D01*
X166050000Y-62351000D02*
X166050000Y-65649000D01*
X166090000Y-62419000D02*
X166090000Y-65581000D01*
X166130000Y-62491000D02*
X166130000Y-65509000D01*
X166170000Y-62568000D02*
X166170000Y-65432000D01*
X166210000Y-62650000D02*
X166210000Y-65350000D01*
X166250000Y-62739000D02*
X166250000Y-65261000D01*
X166290000Y-62835000D02*
X166290000Y-65165000D01*
X166330000Y-62942000D02*
X166330000Y-65058000D01*
X166370000Y-63061000D02*
X166370000Y-64939000D01*
X166410000Y-63199000D02*
X166410000Y-64801000D01*
X166450000Y-63367000D02*
X166450000Y-64633000D01*
X166490000Y-63598000D02*
X166490000Y-64402000D01*
X166520000Y-64000000D02*
G75*
G02*
X159980000Y-64000000I-3270000J0D01*
G01*
X159980000Y-64000000D02*
G75*
G02*
X166520000Y-64000000I3270000J0D01*
G01*
%TO.C,RV5*%
X47479000Y-88880000D02*
X57520000Y-88880000D01*
X47479000Y-92816000D02*
X47479000Y-88880000D01*
X47479000Y-101120000D02*
X47479000Y-97183000D01*
X47479000Y-101120000D02*
X48800000Y-101120000D01*
X51250000Y-101120000D02*
X51630000Y-101120000D01*
X53371000Y-101120000D02*
X54130000Y-101120000D01*
X55870000Y-101120000D02*
X57520000Y-101120000D01*
X57520000Y-92816000D02*
X57520000Y-88880000D01*
X57520000Y-101120000D02*
X57520000Y-97183000D01*
%TO.C,R21*%
X160000000Y-112880000D02*
X160000000Y-113650000D01*
X160000000Y-120960000D02*
X160000000Y-120190000D01*
X158630000Y-113650000D02*
X161370000Y-113650000D01*
X161370000Y-120190000D01*
X158630000Y-120190000D01*
X158630000Y-113650000D01*
%TO.C,D3*%
X178764000Y-86290000D02*
X178920000Y-86290000D01*
X181080000Y-86290000D02*
X181236000Y-86290000D01*
X178764484Y-86290000D02*
G75*
G02*
X178920000Y-83058563I1235516J1560000D01*
G01*
X178920000Y-85770961D02*
G75*
G02*
X178920000Y-83689039I1080000J1040961D01*
G01*
X181080000Y-83058563D02*
G75*
G02*
X181235516Y-86290000I-1080000J-1671437D01*
G01*
X181080000Y-83689039D02*
G75*
G02*
X181080000Y-85770961I-1080000J-1040961D01*
G01*
%TO.C,C15*%
X100630000Y-148880000D02*
X100967000Y-148880000D01*
X100630000Y-154120000D02*
X100630000Y-148880000D01*
X100967000Y-154120000D02*
X100630000Y-154120000D01*
X103033000Y-148880000D02*
X103370000Y-148880000D01*
X103370000Y-148880000D02*
X103370000Y-154120000D01*
X103370000Y-154120000D02*
X103033000Y-154120000D01*
%TO.C,C8*%
X132630000Y-100880000D02*
X132967000Y-100880000D01*
X132630000Y-106120000D02*
X132630000Y-100880000D01*
X132967000Y-106120000D02*
X132630000Y-106120000D01*
X135033000Y-100880000D02*
X135370000Y-100880000D01*
X135370000Y-100880000D02*
X135370000Y-106120000D01*
X135370000Y-106120000D02*
X135033000Y-106120000D01*
%TO.C,C2*%
X68630000Y-76880000D02*
X68967000Y-76880000D01*
X68630000Y-82120000D02*
X68630000Y-76880000D01*
X68967000Y-82120000D02*
X68630000Y-82120000D01*
X71033000Y-76880000D02*
X71370000Y-76880000D01*
X71370000Y-76880000D02*
X71370000Y-82120000D01*
X71370000Y-82120000D02*
X71033000Y-82120000D01*
%TO.C,SW4*%
X29750000Y-131500000D02*
X29750000Y-133000000D01*
X31000000Y-135500000D02*
X35500000Y-135500000D01*
X35500000Y-129000000D02*
X31000000Y-129000000D01*
X36750000Y-133000000D02*
X36750000Y-131500000D01*
%TO.C,R8*%
X172000000Y-120880000D02*
X172000000Y-121650000D01*
X172000000Y-128960000D02*
X172000000Y-128190000D01*
X170630000Y-121650000D02*
X173370000Y-121650000D01*
X173370000Y-128190000D01*
X170630000Y-128190000D01*
X170630000Y-121650000D01*
%TO.C,RV1*%
X47479000Y-64880000D02*
X57520000Y-64880000D01*
X47479000Y-68816000D02*
X47479000Y-64880000D01*
X47479000Y-77120000D02*
X47479000Y-73183000D01*
X47479000Y-77120000D02*
X48800000Y-77120000D01*
X51250000Y-77120000D02*
X51630000Y-77120000D01*
X53371000Y-77120000D02*
X54130000Y-77120000D01*
X55870000Y-77120000D02*
X57520000Y-77120000D01*
X57520000Y-68816000D02*
X57520000Y-64880000D01*
X57520000Y-77120000D02*
X57520000Y-73183000D01*
%TO.C,RV12*%
X143479000Y-112880000D02*
X153520000Y-112880000D01*
X143479000Y-116816000D02*
X143479000Y-112880000D01*
X143479000Y-125120000D02*
X143479000Y-121183000D01*
X143479000Y-125120000D02*
X144800000Y-125120000D01*
X147250000Y-125120000D02*
X147630000Y-125120000D01*
X149371000Y-125120000D02*
X150130000Y-125120000D01*
X151870000Y-125120000D02*
X153520000Y-125120000D01*
X153520000Y-116816000D02*
X153520000Y-112880000D01*
X153520000Y-125120000D02*
X153520000Y-121183000D01*
%TO.C,R12*%
X128000000Y-64880000D02*
X128000000Y-65650000D01*
X128000000Y-72960000D02*
X128000000Y-72190000D01*
X126630000Y-65650000D02*
X129370000Y-65650000D01*
X129370000Y-72190000D01*
X126630000Y-72190000D01*
X126630000Y-65650000D01*
%TO.C,D6*%
X178764000Y-152290000D02*
X178920000Y-152290000D01*
X181080000Y-152290000D02*
X181236000Y-152290000D01*
X178764484Y-152290000D02*
G75*
G02*
X178920000Y-149058563I1235516J1560000D01*
G01*
X178920000Y-151770961D02*
G75*
G02*
X178920000Y-149689039I1080000J1040961D01*
G01*
X181080000Y-149058563D02*
G75*
G02*
X181235516Y-152290000I-1080000J-1671437D01*
G01*
X181080000Y-149689039D02*
G75*
G02*
X181080000Y-151770961I-1080000J-1040961D01*
G01*
%TO.C,D4*%
X178764000Y-108290000D02*
X178920000Y-108290000D01*
X181080000Y-108290000D02*
X181236000Y-108290000D01*
X178764484Y-108290000D02*
G75*
G02*
X178920000Y-105058563I1235516J1560000D01*
G01*
X178920000Y-107770961D02*
G75*
G02*
X178920000Y-105689039I1080000J1040961D01*
G01*
X181080000Y-105058563D02*
G75*
G02*
X181235516Y-108290000I-1080000J-1671437D01*
G01*
X181080000Y-105689039D02*
G75*
G02*
X181080000Y-107770961I-1080000J-1040961D01*
G01*
%TO.C,C10*%
X68630000Y-124880000D02*
X68967000Y-124880000D01*
X68630000Y-130120000D02*
X68630000Y-124880000D01*
X68967000Y-130120000D02*
X68630000Y-130120000D01*
X71033000Y-124880000D02*
X71370000Y-124880000D01*
X71370000Y-124880000D02*
X71370000Y-130120000D01*
X71370000Y-130120000D02*
X71033000Y-130120000D01*
%TO.C,J5*%
X164620000Y-33380000D02*
X164620000Y-32000000D01*
X166000000Y-33380000D02*
X164620000Y-33380000D01*
X167270000Y-30620000D02*
X175000000Y-30620000D01*
X167270000Y-33380000D02*
X167270000Y-30620000D01*
X167270000Y-33380000D02*
X175000000Y-33380000D01*
X175000000Y-33380000D02*
X175000000Y-30620000D01*
%TO.C,SW2*%
X29750000Y-87500000D02*
X29750000Y-89000000D01*
X31000000Y-91500000D02*
X35500000Y-91500000D01*
X35500000Y-85000000D02*
X31000000Y-85000000D01*
X36750000Y-89000000D02*
X36750000Y-87500000D01*
%TO.C,C3*%
X100630000Y-76880000D02*
X100967000Y-76880000D01*
X100630000Y-82120000D02*
X100630000Y-76880000D01*
X100967000Y-82120000D02*
X100630000Y-82120000D01*
X103033000Y-76880000D02*
X103370000Y-76880000D01*
X103370000Y-76880000D02*
X103370000Y-82120000D01*
X103370000Y-82120000D02*
X103033000Y-82120000D01*
%TO.C,R13*%
X160000000Y-64880000D02*
X160000000Y-65650000D01*
X160000000Y-72960000D02*
X160000000Y-72190000D01*
X158630000Y-65650000D02*
X161370000Y-65650000D01*
X161370000Y-72190000D01*
X158630000Y-72190000D01*
X158630000Y-65650000D01*
%TO.C,RV6*%
X79479000Y-88880000D02*
X89520000Y-88880000D01*
X79479000Y-92816000D02*
X79479000Y-88880000D01*
X79479000Y-101120000D02*
X79479000Y-97183000D01*
X79479000Y-101120000D02*
X80800000Y-101120000D01*
X83250000Y-101120000D02*
X83630000Y-101120000D01*
X85371000Y-101120000D02*
X86130000Y-101120000D01*
X87870000Y-101120000D02*
X89520000Y-101120000D01*
X89520000Y-92816000D02*
X89520000Y-88880000D01*
X89520000Y-101120000D02*
X89520000Y-97183000D01*
%TO.C,SW5*%
X29750000Y-153500000D02*
X29750000Y-155000000D01*
X31000000Y-157500000D02*
X35500000Y-157500000D01*
X35500000Y-151000000D02*
X31000000Y-151000000D01*
X36750000Y-155000000D02*
X36750000Y-153500000D01*
%TO.C,C4*%
X132630000Y-76880000D02*
X132967000Y-76880000D01*
X132630000Y-82120000D02*
X132630000Y-76880000D01*
X132967000Y-82120000D02*
X132630000Y-82120000D01*
X135033000Y-76880000D02*
X135370000Y-76880000D01*
X135370000Y-76880000D02*
X135370000Y-82120000D01*
X135370000Y-82120000D02*
X135033000Y-82120000D01*
%TO.C,RV15*%
X111479000Y-136880000D02*
X121520000Y-136880000D01*
X111479000Y-140816000D02*
X111479000Y-136880000D01*
X111479000Y-149120000D02*
X111479000Y-145183000D01*
X111479000Y-149120000D02*
X112800000Y-149120000D01*
X115250000Y-149120000D02*
X115630000Y-149120000D01*
X117371000Y-149120000D02*
X118130000Y-149120000D01*
X119870000Y-149120000D02*
X121520000Y-149120000D01*
X121520000Y-140816000D02*
X121520000Y-136880000D01*
X121520000Y-149120000D02*
X121520000Y-145183000D01*
%TO.C,JMD3*%
X80530000Y-141380000D02*
X80530000Y-140000000D01*
X81910000Y-141380000D02*
X80530000Y-141380000D01*
X83180000Y-138620000D02*
X85830000Y-138620000D01*
X83180000Y-141380000D02*
X83180000Y-138620000D01*
X83180000Y-141380000D02*
X85830000Y-141380000D01*
X85830000Y-141380000D02*
X85830000Y-138620000D01*
%TO.C,C12*%
X132630000Y-124880000D02*
X132967000Y-124880000D01*
X132630000Y-130120000D02*
X132630000Y-124880000D01*
X132967000Y-130120000D02*
X132630000Y-130120000D01*
X135033000Y-124880000D02*
X135370000Y-124880000D01*
X135370000Y-124880000D02*
X135370000Y-130120000D01*
X135370000Y-130120000D02*
X135033000Y-130120000D01*
%TO.C,SW3*%
X29750000Y-109500000D02*
X29750000Y-111000000D01*
X31000000Y-113500000D02*
X35500000Y-113500000D01*
X35500000Y-107000000D02*
X31000000Y-107000000D01*
X36750000Y-111000000D02*
X36750000Y-109500000D01*
%TO.C,JMD2*%
X65290000Y-141380000D02*
X65290000Y-140000000D01*
X66670000Y-141380000D02*
X65290000Y-141380000D01*
X67940000Y-138620000D02*
X73130000Y-138620000D01*
X67940000Y-141380000D02*
X67940000Y-138620000D01*
X67940000Y-141380000D02*
X73130000Y-141380000D01*
X73130000Y-141380000D02*
X73130000Y-138620000D01*
%TO.C,C17*%
X164630000Y-148880000D02*
X164967000Y-148880000D01*
X164630000Y-154120000D02*
X164630000Y-148880000D01*
X164967000Y-154120000D02*
X164630000Y-154120000D01*
X167033000Y-148880000D02*
X167370000Y-148880000D01*
X167370000Y-148880000D02*
X167370000Y-154120000D01*
X167370000Y-154120000D02*
X167033000Y-154120000D01*
%TO.C,R15*%
X96000000Y-88880000D02*
X96000000Y-89650000D01*
X96000000Y-96960000D02*
X96000000Y-96190000D01*
X94630000Y-89650000D02*
X97370000Y-89650000D01*
X97370000Y-96190000D01*
X94630000Y-96190000D01*
X94630000Y-89650000D01*
%TO.C,J1*%
X55400000Y-34400000D02*
G75*
G02*
X32600000Y-34400000I-11400000J0D01*
G01*
X32600000Y-34400000D02*
G75*
G02*
X55400000Y-34400000I11400000J0D01*
G01*
%TO.C,RV14*%
X79479000Y-136880000D02*
X89520000Y-136880000D01*
X79479000Y-140816000D02*
X79479000Y-136880000D01*
X79479000Y-149120000D02*
X79479000Y-145183000D01*
X79479000Y-149120000D02*
X80800000Y-149120000D01*
X83250000Y-149120000D02*
X83630000Y-149120000D01*
X85371000Y-149120000D02*
X86130000Y-149120000D01*
X87870000Y-149120000D02*
X89520000Y-149120000D01*
X89520000Y-140816000D02*
X89520000Y-136880000D01*
X89520000Y-149120000D02*
X89520000Y-145183000D01*
%TO.C,J4*%
X134620000Y-61380000D02*
X134620000Y-60000000D01*
X136000000Y-61380000D02*
X134620000Y-61380000D01*
X137270000Y-58620000D02*
X145000000Y-58620000D01*
X137270000Y-61380000D02*
X137270000Y-58620000D01*
X137270000Y-61380000D02*
X145000000Y-61380000D01*
X145000000Y-61380000D02*
X145000000Y-58620000D01*
%TO.C,D2D*%
X151340000Y-52000000D02*
X152360000Y-52000000D01*
X153140000Y-50530000D02*
X153140000Y-53470000D01*
X153260000Y-50530000D02*
X153260000Y-53470000D01*
X153380000Y-50530000D02*
X153380000Y-53470000D01*
X158820000Y-52000000D02*
X157800000Y-52000000D01*
X152360000Y-50530000D02*
X157800000Y-50530000D01*
X157800000Y-53470000D01*
X152360000Y-53470000D01*
X152360000Y-50530000D01*
%TO.C,U1*%
X49160000Y-52670000D02*
X49160000Y-62950000D01*
X49160000Y-62950000D02*
X54460000Y-62950000D01*
X50810000Y-52670000D02*
X49160000Y-52670000D01*
X54460000Y-52670000D02*
X52810000Y-52670000D01*
X54460000Y-62950000D02*
X54460000Y-52670000D01*
X52810000Y-52670000D02*
G75*
G02*
X50810000Y-52670000I-1000000J0D01*
G01*
%TO.C,R24*%
X128000000Y-136880000D02*
X128000000Y-137650000D01*
X128000000Y-144960000D02*
X128000000Y-144190000D01*
X126630000Y-137650000D02*
X129370000Y-137650000D01*
X129370000Y-144190000D01*
X126630000Y-144190000D01*
X126630000Y-137650000D01*
%TO.C,RV13*%
X47479000Y-136880000D02*
X57520000Y-136880000D01*
X47479000Y-140816000D02*
X47479000Y-136880000D01*
X47479000Y-149120000D02*
X47479000Y-145183000D01*
X47479000Y-149120000D02*
X48800000Y-149120000D01*
X51250000Y-149120000D02*
X51630000Y-149120000D01*
X53371000Y-149120000D02*
X54130000Y-149120000D01*
X55870000Y-149120000D02*
X57520000Y-149120000D01*
X57520000Y-140816000D02*
X57520000Y-136880000D01*
X57520000Y-149120000D02*
X57520000Y-145183000D01*
%TO.C,R2*%
X93040000Y-60000000D02*
X93810000Y-60000000D01*
X101120000Y-60000000D02*
X100350000Y-60000000D01*
X93810000Y-58630000D02*
X100350000Y-58630000D01*
X100350000Y-61370000D01*
X93810000Y-61370000D01*
X93810000Y-58630000D01*
%TO.C,R14*%
X64000000Y-88880000D02*
X64000000Y-89650000D01*
X64000000Y-96960000D02*
X64000000Y-96190000D01*
X62630000Y-89650000D02*
X65370000Y-89650000D01*
X65370000Y-96190000D01*
X62630000Y-96190000D01*
X62630000Y-89650000D01*
%TO.C,RV7*%
X111479000Y-88880000D02*
X121520000Y-88880000D01*
X111479000Y-92816000D02*
X111479000Y-88880000D01*
X111479000Y-101120000D02*
X111479000Y-97183000D01*
X111479000Y-101120000D02*
X112800000Y-101120000D01*
X115250000Y-101120000D02*
X115630000Y-101120000D01*
X117371000Y-101120000D02*
X118130000Y-101120000D01*
X119870000Y-101120000D02*
X121520000Y-101120000D01*
X121520000Y-92816000D02*
X121520000Y-88880000D01*
X121520000Y-101120000D02*
X121520000Y-97183000D01*
%TO.C,C6*%
X68630000Y-100880000D02*
X68967000Y-100880000D01*
X68630000Y-106120000D02*
X68630000Y-100880000D01*
X68967000Y-106120000D02*
X68630000Y-106120000D01*
X71033000Y-100880000D02*
X71370000Y-100880000D01*
X71370000Y-100880000D02*
X71370000Y-106120000D01*
X71370000Y-106120000D02*
X71033000Y-106120000D01*
%TO.C,R9*%
X172000000Y-142880000D02*
X172000000Y-143650000D01*
X172000000Y-150960000D02*
X172000000Y-150190000D01*
X170630000Y-143650000D02*
X173370000Y-143650000D01*
X173370000Y-150190000D01*
X170630000Y-150190000D01*
X170630000Y-143650000D01*
%TO.C,R5*%
X69040000Y-65000000D02*
X69810000Y-65000000D01*
X77120000Y-65000000D02*
X76350000Y-65000000D01*
X69810000Y-63630000D02*
X76350000Y-63630000D01*
X76350000Y-66370000D01*
X69810000Y-66370000D01*
X69810000Y-63630000D01*
%TO.C,C9*%
X164630000Y-100880000D02*
X164967000Y-100880000D01*
X164630000Y-106120000D02*
X164630000Y-100880000D01*
X164967000Y-106120000D02*
X164630000Y-106120000D01*
X167033000Y-100880000D02*
X167370000Y-100880000D01*
X167370000Y-100880000D02*
X167370000Y-106120000D01*
X167370000Y-106120000D02*
X167033000Y-106120000D01*
%TO.C,C1*%
X79880000Y-60630000D02*
X85120000Y-60630000D01*
X79880000Y-60967000D02*
X79880000Y-60630000D01*
X79880000Y-63370000D02*
X79880000Y-63033000D01*
X85120000Y-60630000D02*
X85120000Y-60967000D01*
X85120000Y-63033000D02*
X85120000Y-63370000D01*
X85120000Y-63370000D02*
X79880000Y-63370000D01*
%TD*%
M02*
