%TF.GenerationSoftware,KiCad,Pcbnew,10.0.3*%
%TF.CreationDate,2026-06-06T00:10:00+02:00*%
%TF.ProjectId,SysEx_Patcher,53797345-785f-4506-9174-636865722e6b,rev?*%
%TF.SameCoordinates,Original*%
%TF.FileFunction,Soldermask,Bot*%
%TF.FilePolarity,Negative*%
%FSLAX46Y46*%
G04 Gerber Fmt 4.6, Leading zero omitted, Abs format (unit mm)*
G04 Created by KiCad (PCBNEW 10.0.3) date 2026-06-06 00:10:00*
%MOMM*%
%LPD*%
G01*
G04 APERTURE LIST*
G04 Aperture macros list*
%AMRoundRect*
0 Rectangle with rounded corners*
0 $1 Rounding radius*
0 $2 $3 $4 $5 $6 $7 $8 $9 X,Y pos of 4 corners*
0 Add a 4 corners polygon primitive as box body*
4,1,4,$2,$3,$4,$5,$6,$7,$8,$9,$2,$3,0*
0 Add four circle primitives for the rounded corners*
1,1,$1+$1,$2,$3*
1,1,$1+$1,$4,$5*
1,1,$1+$1,$6,$7*
1,1,$1+$1,$8,$9*
0 Add four rect primitives between the rounded corners*
20,1,$1+$1,$2,$3,$4,$5,0*
20,1,$1+$1,$4,$5,$6,$7,0*
20,1,$1+$1,$6,$7,$8,$9,0*
20,1,$1+$1,$8,$9,$2,$3,0*%
G04 Aperture macros list end*
%ADD10C,1.600000*%
%ADD11R,1.800000X1.800000*%
%ADD12C,1.800000*%
%ADD13RoundRect,0.750000X-1.250000X-0.750000X1.250000X-0.750000X1.250000X0.750000X-1.250000X0.750000X0*%
%ADD14R,1.700000X1.700000*%
%ADD15C,1.700000*%
%ADD16RoundRect,0.250000X-0.550000X-0.550000X0.550000X-0.550000X0.550000X0.550000X-0.550000X0.550000X0*%
%ADD17C,2.000000*%
%ADD18RoundRect,0.249999X-0.850001X-0.850001X0.850001X-0.850001X0.850001X0.850001X-0.850001X0.850001X0*%
%ADD19C,2.200000*%
%ADD20O,2.200000X3.500000*%
%ADD21R,1.500000X2.500000*%
%ADD22O,1.500000X2.500000*%
%ADD23R,3.500000X3.500000*%
%ADD24RoundRect,0.750000X-0.750000X-1.000000X0.750000X-1.000000X0.750000X1.000000X-0.750000X1.000000X0*%
%ADD25RoundRect,0.875000X-0.875000X-0.875000X0.875000X-0.875000X0.875000X0.875000X-0.875000X0.875000X0*%
G04 APERTURE END LIST*
D10*
%TO.C,R9*%
X150000000Y-112000000D03*
X150000000Y-101840000D03*
%TD*%
D11*
%TO.C,D4*%
X158000000Y-72000000D03*
D12*
X158000000Y-69460000D03*
%TD*%
D10*
%TO.C,C3*%
X82000000Y-56000000D03*
X82000000Y-51000000D03*
%TD*%
D11*
%TO.C,RV12*%
X126000000Y-104000000D03*
D12*
X128500000Y-104000000D03*
X131000000Y-104000000D03*
D13*
X124100000Y-97000000D03*
X132900000Y-97000000D03*
%TD*%
D10*
%TO.C,C7*%
X82000000Y-82000000D03*
X82000000Y-77000000D03*
%TD*%
%TO.C,R16*%
X108000000Y-74000000D03*
X108000000Y-63840000D03*
%TD*%
D11*
%TO.C,RV6*%
X62000000Y-78000000D03*
D12*
X64500000Y-78000000D03*
X67000000Y-78000000D03*
D13*
X60100000Y-71000000D03*
X68900000Y-71000000D03*
%TD*%
D10*
%TO.C,C4*%
X114000000Y-56000000D03*
X114000000Y-51000000D03*
%TD*%
%TO.C,R20*%
X108000000Y-100000000D03*
X108000000Y-89840000D03*
%TD*%
D14*
%TO.C,J2*%
X44000000Y-10000000D03*
D15*
X44000000Y-12540000D03*
X44000000Y-15080000D03*
X44000000Y-17620000D03*
X44000000Y-20160000D03*
%TD*%
D10*
%TO.C,C12*%
X114000000Y-108000000D03*
X114000000Y-103000000D03*
%TD*%
D11*
%TO.C,RV15*%
X94000000Y-130000000D03*
D12*
X96500000Y-130000000D03*
X99000000Y-130000000D03*
D13*
X92100000Y-123000000D03*
X100900000Y-123000000D03*
%TD*%
D10*
%TO.C,R15*%
X76000000Y-74000000D03*
X76000000Y-63840000D03*
%TD*%
%TO.C,C5*%
X146000000Y-56000000D03*
X146000000Y-51000000D03*
%TD*%
%TO.C,R2*%
X38000000Y-27000000D03*
X48160000Y-27000000D03*
%TD*%
D11*
%TO.C,RV9*%
X30000000Y-104000000D03*
D12*
X32500000Y-104000000D03*
X35000000Y-104000000D03*
D13*
X28100000Y-97000000D03*
X36900000Y-97000000D03*
%TD*%
D14*
%TO.C,JMD3*%
X61910000Y-198000000D03*
D15*
X64450000Y-198000000D03*
%TD*%
D14*
%TO.C,JMA1*%
X28890000Y-150000000D03*
D15*
X31430000Y-150000000D03*
X33970000Y-150000000D03*
X36510000Y-150000000D03*
X39050000Y-150000000D03*
X41590000Y-150000000D03*
X44130000Y-150000000D03*
X46670000Y-150000000D03*
%TD*%
D10*
%TO.C,R12*%
X108000000Y-48000000D03*
X108000000Y-37840000D03*
%TD*%
%TO.C,C17*%
X146000000Y-134000000D03*
X146000000Y-129000000D03*
%TD*%
%TO.C,R1*%
X22000000Y-27000000D03*
X32160000Y-27000000D03*
%TD*%
%TO.C,R21*%
X140000000Y-100000000D03*
X140000000Y-89840000D03*
%TD*%
%TO.C,R5*%
X78000000Y-27000000D03*
X88160000Y-27000000D03*
%TD*%
D11*
%TO.C,RV16*%
X126000000Y-130000000D03*
D12*
X128500000Y-130000000D03*
X131000000Y-130000000D03*
D13*
X124100000Y-123000000D03*
X132900000Y-123000000D03*
%TD*%
D11*
%TO.C,RV13*%
X30000000Y-130000000D03*
D12*
X32500000Y-130000000D03*
X35000000Y-130000000D03*
D13*
X28100000Y-123000000D03*
X36900000Y-123000000D03*
%TD*%
D16*
%TO.C,U2*%
X120000000Y-150000000D03*
D10*
X120000000Y-152540000D03*
X120000000Y-155080000D03*
X120000000Y-157620000D03*
X120000000Y-160160000D03*
X120000000Y-162700000D03*
X120000000Y-165240000D03*
X120000000Y-167780000D03*
X120000000Y-170320000D03*
X120000000Y-172860000D03*
X120000000Y-175400000D03*
X120000000Y-177940000D03*
X135240000Y-177940000D03*
X135240000Y-175400000D03*
X135240000Y-172860000D03*
X135240000Y-170320000D03*
X135240000Y-167780000D03*
X135240000Y-165240000D03*
X135240000Y-162700000D03*
X135240000Y-160160000D03*
X135240000Y-157620000D03*
X135240000Y-155080000D03*
X135240000Y-152540000D03*
X135240000Y-150000000D03*
%TD*%
%TO.C,C14*%
X50000000Y-134000000D03*
X50000000Y-129000000D03*
%TD*%
%TO.C,R27*%
X100000000Y-162000000D03*
X110160000Y-162000000D03*
%TD*%
%TO.C,C15*%
X82000000Y-134000000D03*
X82000000Y-129000000D03*
%TD*%
D11*
%TO.C,RV4*%
X126000000Y-52000000D03*
D12*
X128500000Y-52000000D03*
X131000000Y-52000000D03*
D13*
X124100000Y-45000000D03*
X132900000Y-45000000D03*
%TD*%
D10*
%TO.C,R4*%
X78000000Y-35000000D03*
X88160000Y-35000000D03*
%TD*%
%TO.C,R19*%
X76000000Y-100000000D03*
X76000000Y-89840000D03*
%TD*%
%TO.C,C13*%
X146000000Y-108000000D03*
X146000000Y-103000000D03*
%TD*%
%TO.C,R17*%
X140000000Y-74000000D03*
X140000000Y-63840000D03*
%TD*%
%TO.C,R14*%
X44000000Y-74000000D03*
X44000000Y-63840000D03*
%TD*%
%TO.C,R7*%
X150000000Y-72000000D03*
X150000000Y-61840000D03*
%TD*%
D11*
%TO.C,RV11*%
X94000000Y-104000000D03*
D12*
X96500000Y-104000000D03*
X99000000Y-104000000D03*
D13*
X92100000Y-97000000D03*
X100900000Y-97000000D03*
%TD*%
D10*
%TO.C,R3*%
X38000000Y-35000000D03*
X48160000Y-35000000D03*
%TD*%
%TO.C,C6*%
X50000000Y-82000000D03*
X50000000Y-77000000D03*
%TD*%
%TO.C,R8*%
X150000000Y-92000000D03*
X150000000Y-81840000D03*
%TD*%
%TO.C,R11*%
X76000000Y-48000000D03*
X76000000Y-37840000D03*
%TD*%
D14*
%TO.C,J10*%
X78000000Y-10000000D03*
D15*
X78000000Y-12540000D03*
X78000000Y-15080000D03*
%TD*%
D14*
%TO.C,JMD4*%
X84770000Y-198000000D03*
D15*
X87310000Y-198000000D03*
%TD*%
D10*
%TO.C,R25*%
X140000000Y-126000000D03*
X140000000Y-115840000D03*
%TD*%
%TO.C,C11*%
X82000000Y-108000000D03*
X82000000Y-103000000D03*
%TD*%
%TO.C,C10*%
X50000000Y-108000000D03*
X50000000Y-103000000D03*
%TD*%
%TO.C,R10*%
X44000000Y-48000000D03*
X44000000Y-37840000D03*
%TD*%
%TO.C,R22*%
X44000000Y-126000000D03*
X44000000Y-115840000D03*
%TD*%
D16*
%TO.C,U1*%
X58000000Y-23000000D03*
D10*
X58000000Y-25540000D03*
X58000000Y-28080000D03*
X58000000Y-30620000D03*
X65620000Y-30620000D03*
X65620000Y-28080000D03*
X65620000Y-25540000D03*
X65620000Y-23000000D03*
%TD*%
D17*
%TO.C,SW3*%
X10000000Y-72000000D03*
X16500000Y-72000000D03*
X10000000Y-76500000D03*
X16500000Y-76500000D03*
%TD*%
D10*
%TO.C,R24*%
X108000000Y-126000000D03*
X108000000Y-115840000D03*
%TD*%
D18*
%TO.C,D2D*%
X150000000Y-22000000D03*
D19*
X160160000Y-22000000D03*
%TD*%
D11*
%TO.C,RV10*%
X62000000Y-104000000D03*
D12*
X64500000Y-104000000D03*
X67000000Y-104000000D03*
D13*
X60100000Y-97000000D03*
X68900000Y-97000000D03*
%TD*%
D10*
%TO.C,C18*%
X150000000Y-162000000D03*
X155000000Y-162000000D03*
%TD*%
D17*
%TO.C,SW2*%
X10000000Y-52000000D03*
X16500000Y-52000000D03*
X10000000Y-56500000D03*
X16500000Y-56500000D03*
%TD*%
%TO.C,SW4*%
X10000000Y-92000000D03*
X16500000Y-92000000D03*
X10000000Y-96500000D03*
X16500000Y-96500000D03*
%TD*%
D10*
%TO.C,R18*%
X44000000Y-100000000D03*
X44000000Y-89840000D03*
%TD*%
D11*
%TO.C,D3*%
X158000000Y-52000000D03*
D12*
X158000000Y-49460000D03*
%TD*%
D14*
%TO.C,JMA2*%
X51750000Y-150000000D03*
D15*
X54290000Y-150000000D03*
X56830000Y-150000000D03*
X59370000Y-150000000D03*
X61910000Y-150000000D03*
X64450000Y-150000000D03*
X66990000Y-150000000D03*
X69530000Y-150000000D03*
%TD*%
D20*
%TO.C,SW1*%
X97900000Y-28000000D03*
X106100000Y-28000000D03*
D21*
X100000000Y-28000000D03*
D22*
X102000000Y-28000000D03*
X104000000Y-28000000D03*
%TD*%
D11*
%TO.C,RV2*%
X62000000Y-52000000D03*
D12*
X64500000Y-52000000D03*
X67000000Y-52000000D03*
D13*
X60100000Y-45000000D03*
X68900000Y-45000000D03*
%TD*%
D23*
%TO.C,J3*%
X150000000Y-12000000D03*
D24*
X144000000Y-12000000D03*
D25*
X147000000Y-16700000D03*
%TD*%
D10*
%TO.C,R6*%
X150000000Y-52000000D03*
X150000000Y-41840000D03*
%TD*%
D11*
%TO.C,RV14*%
X62000000Y-130000000D03*
D12*
X64500000Y-130000000D03*
X67000000Y-130000000D03*
D13*
X60100000Y-123000000D03*
X68900000Y-123000000D03*
%TD*%
D10*
%TO.C,C16*%
X114000000Y-134000000D03*
X114000000Y-129000000D03*
%TD*%
%TO.C,R13*%
X140000000Y-48000000D03*
X140000000Y-37840000D03*
%TD*%
D11*
%TO.C,D5*%
X158000000Y-92000000D03*
D12*
X158000000Y-89460000D03*
%TD*%
D16*
%TO.C,D1*%
X22000000Y-35000000D03*
D10*
X29620000Y-35000000D03*
%TD*%
D14*
%TO.C,JMD1*%
X20000000Y-198000000D03*
D15*
X22540000Y-198000000D03*
X25080000Y-198000000D03*
X27620000Y-198000000D03*
X30160000Y-198000000D03*
X32700000Y-198000000D03*
X35240000Y-198000000D03*
X37780000Y-198000000D03*
X40320000Y-198000000D03*
X42860000Y-198000000D03*
%TD*%
D14*
%TO.C,J1*%
X22000000Y-10000000D03*
D15*
X22000000Y-12540000D03*
X22000000Y-15080000D03*
X22000000Y-17620000D03*
X22000000Y-20160000D03*
%TD*%
D11*
%TO.C,D6*%
X158000000Y-112000000D03*
D12*
X158000000Y-109460000D03*
%TD*%
D10*
%TO.C,C1*%
X92000000Y-31000000D03*
X97000000Y-31000000D03*
%TD*%
D11*
%TO.C,RV3*%
X94000000Y-52000000D03*
D12*
X96500000Y-52000000D03*
X99000000Y-52000000D03*
D13*
X92100000Y-45000000D03*
X100900000Y-45000000D03*
%TD*%
D14*
%TO.C,J5*%
X118000000Y-10000000D03*
D15*
X118000000Y-12540000D03*
X118000000Y-15080000D03*
X118000000Y-17620000D03*
%TD*%
D17*
%TO.C,SW5*%
X10000000Y-112000000D03*
X16500000Y-112000000D03*
X10000000Y-116500000D03*
X16500000Y-116500000D03*
%TD*%
D11*
%TO.C,RV7*%
X94000000Y-78000000D03*
D12*
X96500000Y-78000000D03*
X99000000Y-78000000D03*
D13*
X92100000Y-71000000D03*
X100900000Y-71000000D03*
%TD*%
D11*
%TO.C,RV1*%
X30000000Y-52000000D03*
D12*
X32500000Y-52000000D03*
X35000000Y-52000000D03*
D13*
X28100000Y-45000000D03*
X36900000Y-45000000D03*
%TD*%
D14*
%TO.C,JMA3*%
X74610000Y-150000000D03*
D15*
X77150000Y-150000000D03*
X79690000Y-150000000D03*
X82230000Y-150000000D03*
X84770000Y-150000000D03*
X87310000Y-150000000D03*
X89850000Y-150000000D03*
X92390000Y-150000000D03*
%TD*%
D10*
%TO.C,C2*%
X50000000Y-56000000D03*
X50000000Y-51000000D03*
%TD*%
D11*
%TO.C,RV8*%
X126000000Y-78000000D03*
D12*
X128500000Y-78000000D03*
X131000000Y-78000000D03*
D13*
X124100000Y-71000000D03*
X132900000Y-71000000D03*
%TD*%
D11*
%TO.C,RV5*%
X30000000Y-78000000D03*
D12*
X32500000Y-78000000D03*
X35000000Y-78000000D03*
D13*
X28100000Y-71000000D03*
X36900000Y-71000000D03*
%TD*%
D14*
%TO.C,J4*%
X132000000Y-22000000D03*
D15*
X132000000Y-24540000D03*
X132000000Y-27080000D03*
X132000000Y-29620000D03*
%TD*%
D10*
%TO.C,C9*%
X146000000Y-82000000D03*
X146000000Y-77000000D03*
%TD*%
%TO.C,R23*%
X76000000Y-126000000D03*
X76000000Y-115840000D03*
%TD*%
%TO.C,C8*%
X114000000Y-82000000D03*
X114000000Y-77000000D03*
%TD*%
D14*
%TO.C,JMD2*%
X46670000Y-198000000D03*
D15*
X49210000Y-198000000D03*
X51750000Y-198000000D03*
%TD*%
M02*
