%TF.GenerationSoftware,KiCad,Pcbnew,10.0.3*%
%TF.CreationDate,2026-06-06T00:44:33+02:00*%
%TF.ProjectId,SysEx_Patcher,53797345-785f-4506-9174-636865722e6b,rev?*%
%TF.SameCoordinates,Original*%
%TF.FileFunction,Copper,L2,Inr*%
%TF.FilePolarity,Positive*%
%FSLAX46Y46*%
G04 Gerber Fmt 4.6, Leading zero omitted, Abs format (unit mm)*
G04 Created by KiCad (PCBNEW 10.0.3) date 2026-06-06 00:44:33*
%MOMM*%
%LPD*%
G01*
G04 APERTURE LIST*
G04 Aperture macros list*
%AMRoundRect*
0 Rectangle with rounded corners*
0 $1 Rounding radius*
0 $2 $3 $4 $5 $6 $7 $8 $9 X,Y pos of 4 corners*
0 Add a 4 corners polygon primitive as box body*
4,1,4,$2,$3,$4,$5,$6,$7,$8,$9,$2,$3,0*
0 Add four circle primitives for the rounded corners*
1,1,$1+$1,$2,$3*
1,1,$1+$1,$4,$5*
1,1,$1+$1,$6,$7*
1,1,$1+$1,$8,$9*
0 Add four rect primitives between the rounded corners*
20,1,$1+$1,$2,$3,$4,$5,0*
20,1,$1+$1,$4,$5,$6,$7,0*
20,1,$1+$1,$6,$7,$8,$9,0*
20,1,$1+$1,$8,$9,$2,$3,0*%
G04 Aperture macros list end*
%TA.AperFunction,ComponentPad*%
%ADD10C,3.400000*%
%TD*%
%TA.AperFunction,ComponentPad*%
%ADD11C,3.000000*%
%TD*%
%TA.AperFunction,ComponentPad*%
%ADD12C,1.600000*%
%TD*%
%TA.AperFunction,ComponentPad*%
%ADD13R,1.800000X1.800000*%
%TD*%
%TA.AperFunction,ComponentPad*%
%ADD14C,1.800000*%
%TD*%
%TA.AperFunction,ComponentPad*%
%ADD15RoundRect,0.750000X-1.250000X-0.750000X1.250000X-0.750000X1.250000X0.750000X-1.250000X0.750000X0*%
%TD*%
%TA.AperFunction,ComponentPad*%
%ADD16R,1.700000X1.700000*%
%TD*%
%TA.AperFunction,ComponentPad*%
%ADD17C,1.700000*%
%TD*%
%TA.AperFunction,ComponentPad*%
%ADD18C,2.600000*%
%TD*%
%TA.AperFunction,ComponentPad*%
%ADD19C,2.400000*%
%TD*%
%TA.AperFunction,ComponentPad*%
%ADD20C,2.000000*%
%TD*%
%TA.AperFunction,ComponentPad*%
%ADD21RoundRect,0.250000X-0.550000X-0.550000X0.550000X-0.550000X0.550000X0.550000X-0.550000X0.550000X0*%
%TD*%
%TA.AperFunction,ComponentPad*%
%ADD22RoundRect,0.249999X-0.850001X-0.850001X0.850001X-0.850001X0.850001X0.850001X-0.850001X0.850001X0*%
%TD*%
%TA.AperFunction,ComponentPad*%
%ADD23C,2.200000*%
%TD*%
%TA.AperFunction,ComponentPad*%
%ADD24O,2.200000X3.500000*%
%TD*%
%TA.AperFunction,ComponentPad*%
%ADD25R,1.500000X2.500000*%
%TD*%
%TA.AperFunction,ComponentPad*%
%ADD26O,1.500000X2.500000*%
%TD*%
%TA.AperFunction,ComponentPad*%
%ADD27R,3.500000X3.500000*%
%TD*%
%TA.AperFunction,ComponentPad*%
%ADD28RoundRect,0.750000X-0.750000X-1.000000X0.750000X-1.000000X0.750000X1.000000X-0.750000X1.000000X0*%
%TD*%
%TA.AperFunction,ComponentPad*%
%ADD29RoundRect,0.875000X-0.875000X-0.875000X0.875000X-0.875000X0.875000X0.875000X-0.875000X0.875000X0*%
%TD*%
%TA.AperFunction,ViaPad*%
%ADD30C,0.600000*%
%TD*%
%TA.AperFunction,Conductor*%
%ADD31C,0.200000*%
%TD*%
G04 APERTURE END LIST*
D10*
%TO.N,+5V*%
%TO.C,J10*%
X91080000Y-19720000D03*
%TO.N,GND*%
X80920000Y-19720000D03*
D11*
%TO.N,JACK_W*%
X86000000Y-14000000D03*
%TD*%
D12*
%TO.N,JACK_W*%
%TO.C,R27*%
X100000000Y-184000000D03*
%TO.N,MUX_CH1*%
X110160000Y-184000000D03*
%TD*%
%TO.N,+5V*%
%TO.C,C1*%
X70000000Y-37000000D03*
%TO.N,GND*%
X75000000Y-37000000D03*
%TD*%
D13*
%TO.N,+5V*%
%TO.C,RV11*%
X94000000Y-118000000D03*
D14*
%TO.N,POT11_W*%
X96500000Y-118000000D03*
%TO.N,GND*%
X99000000Y-118000000D03*
D15*
%TO.N,N/C*%
X92100000Y-111000000D03*
X100900000Y-111000000D03*
%TD*%
D16*
%TO.N,GND*%
%TO.C,J4*%
X150000000Y-26000000D03*
D17*
%TO.N,+5V*%
X150000000Y-28540000D03*
%TO.N,GND*%
X150000000Y-31080000D03*
%TO.N,VIN_RAW*%
X150000000Y-33620000D03*
%TD*%
D13*
%TO.N,+5V*%
%TO.C,RV9*%
X30000000Y-118000000D03*
D14*
%TO.N,POT9_W*%
X32500000Y-118000000D03*
%TO.N,GND*%
X35000000Y-118000000D03*
D15*
%TO.N,N/C*%
X28100000Y-111000000D03*
X36900000Y-111000000D03*
%TD*%
D16*
%TO.N,GND*%
%TO.C,J5*%
X150000000Y-10000000D03*
D17*
%TO.N,+5V*%
X150000000Y-12540000D03*
%TO.N,D21_SCL*%
X150000000Y-15080000D03*
%TO.N,D20_SDA*%
X150000000Y-17620000D03*
%TD*%
D12*
%TO.N,POT4_W*%
%TO.C,R13*%
X140000000Y-62000000D03*
%TO.N,A12*%
X140000000Y-51840000D03*
%TD*%
D18*
%TO.N,*%
%TO.C,J2*%
X47000000Y-23700000D03*
X57000000Y-23700000D03*
D19*
%TO.N,N/C*%
X44700000Y-14000000D03*
%TO.N,GND*%
X52000000Y-14000000D03*
%TO.N,N/C*%
X59300000Y-14000000D03*
%TO.N,MIDI_OUT_4*%
X57000000Y-11500000D03*
%TO.N,MIDI_OUT_5*%
X47000000Y-11500000D03*
%TD*%
D16*
%TO.N,A8*%
%TO.C,JMA3*%
X74610000Y-172000000D03*
D17*
%TO.N,A9*%
X77150000Y-172000000D03*
%TO.N,A10*%
X79690000Y-172000000D03*
%TO.N,A11*%
X82230000Y-172000000D03*
%TO.N,A12*%
X84770000Y-172000000D03*
%TO.N,A13*%
X87310000Y-172000000D03*
%TO.N,A14*%
X89850000Y-172000000D03*
%TO.N,A15*%
X92390000Y-172000000D03*
%TD*%
D12*
%TO.N,POT15_W*%
%TO.C,R24*%
X108000000Y-140000000D03*
%TO.N,A11*%
X108000000Y-129840000D03*
%TD*%
%TO.N,POT6_W*%
%TO.C,R15*%
X76000000Y-88000000D03*
%TO.N,A4*%
X76000000Y-77840000D03*
%TD*%
D13*
%TO.N,+5V*%
%TO.C,RV8*%
X126000000Y-92000000D03*
D14*
%TO.N,POT8_W*%
X128500000Y-92000000D03*
%TO.N,GND*%
X131000000Y-92000000D03*
D15*
%TO.N,N/C*%
X124100000Y-85000000D03*
X132900000Y-85000000D03*
%TD*%
D12*
%TO.N,A0*%
%TO.C,C2*%
X50000000Y-70000000D03*
%TO.N,GND*%
X50000000Y-65000000D03*
%TD*%
D13*
%TO.N,+5V*%
%TO.C,RV2*%
X62000000Y-66000000D03*
D14*
%TO.N,POT2_W*%
X64500000Y-66000000D03*
%TO.N,GND*%
X67000000Y-66000000D03*
D15*
%TO.N,N/C*%
X60100000Y-59000000D03*
X68900000Y-59000000D03*
%TD*%
D13*
%TO.N,+5V*%
%TO.C,RV13*%
X30000000Y-144000000D03*
D14*
%TO.N,POT13_W*%
X32500000Y-144000000D03*
%TO.N,GND*%
X35000000Y-144000000D03*
D15*
%TO.N,N/C*%
X28100000Y-137000000D03*
X36900000Y-137000000D03*
%TD*%
D12*
%TO.N,A5*%
%TO.C,C3*%
X82000000Y-70000000D03*
%TO.N,GND*%
X82000000Y-65000000D03*
%TD*%
%TO.N,POT12_W*%
%TO.C,R21*%
X140000000Y-114000000D03*
%TO.N,A14*%
X140000000Y-103840000D03*
%TD*%
D13*
%TO.N,+5V*%
%TO.C,RV5*%
X30000000Y-92000000D03*
D14*
%TO.N,POT5_W*%
X32500000Y-92000000D03*
%TO.N,GND*%
X35000000Y-92000000D03*
D15*
%TO.N,N/C*%
X28100000Y-85000000D03*
X36900000Y-85000000D03*
%TD*%
D12*
%TO.N,POT13_W*%
%TO.C,R22*%
X44000000Y-140000000D03*
%TO.N,A3*%
X44000000Y-129840000D03*
%TD*%
D20*
%TO.N,D8*%
%TO.C,SW3*%
X10000000Y-88000000D03*
X16500000Y-88000000D03*
%TO.N,GND*%
X10000000Y-92500000D03*
X16500000Y-92500000D03*
%TD*%
D13*
%TO.N,+5V*%
%TO.C,RV14*%
X62000000Y-144000000D03*
D14*
%TO.N,POT14_W*%
X64500000Y-144000000D03*
%TO.N,GND*%
X67000000Y-144000000D03*
D15*
%TO.N,N/C*%
X60100000Y-137000000D03*
X68900000Y-137000000D03*
%TD*%
D21*
%TO.N,A15*%
%TO.C,U2*%
X120000000Y-172000000D03*
D12*
%TO.N,MUX_CH7*%
X120000000Y-174540000D03*
%TO.N,MUX_CH6*%
X120000000Y-177080000D03*
%TO.N,MUX_CH5*%
X120000000Y-179620000D03*
%TO.N,MUX_CH4*%
X120000000Y-182160000D03*
%TO.N,MUX_CH3*%
X120000000Y-184700000D03*
%TO.N,MUX_CH2*%
X120000000Y-187240000D03*
%TO.N,MUX_CH1*%
X120000000Y-189780000D03*
%TO.N,MUX_CH0*%
X120000000Y-192320000D03*
%TO.N,D2*%
X120000000Y-194860000D03*
%TO.N,D3*%
X120000000Y-197400000D03*
%TO.N,GND*%
X120000000Y-199940000D03*
%TO.N,D13*%
X135240000Y-199940000D03*
%TO.N,D4*%
X135240000Y-197400000D03*
%TO.N,GND*%
X135240000Y-194860000D03*
%TO.N,MUX_CH15*%
X135240000Y-192320000D03*
%TO.N,MUX_CH14*%
X135240000Y-189780000D03*
%TO.N,MUX_CH13*%
X135240000Y-187240000D03*
%TO.N,MUX_CH12*%
X135240000Y-184700000D03*
%TO.N,MUX_CH11*%
X135240000Y-182160000D03*
%TO.N,MUX_CH10*%
X135240000Y-179620000D03*
%TO.N,MUX_CH9*%
X135240000Y-177080000D03*
%TO.N,MUX_CH8*%
X135240000Y-174540000D03*
%TO.N,+5V*%
X135240000Y-172000000D03*
%TD*%
%TO.N,POT8_W*%
%TO.C,R17*%
X140000000Y-88000000D03*
%TO.N,A13*%
X140000000Y-77840000D03*
%TD*%
D22*
%TO.N,+5V*%
%TO.C,D2D*%
X120000000Y-26000000D03*
D23*
%TO.N,VIN_RAW*%
X130160000Y-26000000D03*
%TD*%
D24*
%TO.N,*%
%TO.C,SW1*%
X79900000Y-35000000D03*
X88100000Y-35000000D03*
D25*
%TO.N,OPTO_VO*%
X82000000Y-35000000D03*
D26*
%TO.N,D0_RX*%
X84000000Y-35000000D03*
%TO.N,N/C*%
X86000000Y-35000000D03*
%TD*%
D16*
%TO.N,D20_SDA*%
%TO.C,JMD4*%
X84770000Y-220000000D03*
D17*
%TO.N,D21_SCL*%
X87310000Y-220000000D03*
%TD*%
D12*
%TO.N,POT11_W*%
%TO.C,R20*%
X108000000Y-114000000D03*
%TO.N,A10*%
X108000000Y-103840000D03*
%TD*%
D13*
%TO.N,+5V*%
%TO.C,RV10*%
X62000000Y-118000000D03*
D14*
%TO.N,POT10_W*%
X64500000Y-118000000D03*
%TO.N,GND*%
X67000000Y-118000000D03*
D15*
%TO.N,N/C*%
X60100000Y-111000000D03*
X68900000Y-111000000D03*
%TD*%
D12*
%TO.N,A10*%
%TO.C,C12*%
X114000000Y-122000000D03*
%TO.N,GND*%
X114000000Y-117000000D03*
%TD*%
D13*
%TO.N,+5V*%
%TO.C,RV6*%
X62000000Y-92000000D03*
D14*
%TO.N,POT6_W*%
X64500000Y-92000000D03*
%TO.N,GND*%
X67000000Y-92000000D03*
D15*
%TO.N,N/C*%
X60100000Y-85000000D03*
X68900000Y-85000000D03*
%TD*%
D13*
%TO.N,GND*%
%TO.C,D5*%
X160000000Y-110000000D03*
D14*
%TO.N,LED3_A*%
X160000000Y-107460000D03*
%TD*%
D12*
%TO.N,POT1_W*%
%TO.C,R10*%
X44000000Y-62000000D03*
%TO.N,A0*%
X44000000Y-51840000D03*
%TD*%
%TO.N,OPTO_VB*%
%TO.C,R4*%
X56000000Y-41000000D03*
%TO.N,GND*%
X66160000Y-41000000D03*
%TD*%
D16*
%TO.N,D1_TX*%
%TO.C,JMD3*%
X61910000Y-220000000D03*
D17*
%TO.N,D0_RX*%
X64450000Y-220000000D03*
%TD*%
D12*
%TO.N,MIDI_IN_4*%
%TO.C,R1*%
X20000000Y-33000000D03*
%TO.N,OPTO_ANODE*%
X30160000Y-33000000D03*
%TD*%
%TO.N,MUX_CH1*%
%TO.C,C18*%
X150000000Y-184000000D03*
%TO.N,GND*%
X155000000Y-184000000D03*
%TD*%
D13*
%TO.N,GND*%
%TO.C,D6*%
X160000000Y-132000000D03*
D14*
%TO.N,LED4_A*%
X160000000Y-129460000D03*
%TD*%
D13*
%TO.N,+5V*%
%TO.C,RV7*%
X94000000Y-92000000D03*
D14*
%TO.N,POT7_W*%
X96500000Y-92000000D03*
%TO.N,GND*%
X99000000Y-92000000D03*
D15*
%TO.N,N/C*%
X92100000Y-85000000D03*
X100900000Y-85000000D03*
%TD*%
D12*
%TO.N,A14*%
%TO.C,C13*%
X146000000Y-122000000D03*
%TO.N,GND*%
X146000000Y-117000000D03*
%TD*%
%TO.N,A7*%
%TO.C,C15*%
X82000000Y-148000000D03*
%TO.N,GND*%
X82000000Y-143000000D03*
%TD*%
D16*
%TO.N,D10*%
%TO.C,JMD2*%
X46670000Y-220000000D03*
D17*
%TO.N,D11*%
X49210000Y-220000000D03*
%TO.N,D12*%
X51750000Y-220000000D03*
%TD*%
D12*
%TO.N,POT9_W*%
%TO.C,R18*%
X44000000Y-114000000D03*
%TO.N,A2*%
X44000000Y-103840000D03*
%TD*%
%TO.N,A6*%
%TO.C,C11*%
X82000000Y-122000000D03*
%TO.N,GND*%
X82000000Y-117000000D03*
%TD*%
D13*
%TO.N,+5V*%
%TO.C,RV3*%
X94000000Y-66000000D03*
D14*
%TO.N,POT3_W*%
X96500000Y-66000000D03*
%TO.N,GND*%
X99000000Y-66000000D03*
D15*
%TO.N,N/C*%
X92100000Y-59000000D03*
X100900000Y-59000000D03*
%TD*%
D12*
%TO.N,POT5_W*%
%TO.C,R14*%
X44000000Y-88000000D03*
%TO.N,A1*%
X44000000Y-77840000D03*
%TD*%
D18*
%TO.N,*%
%TO.C,J1*%
X17000000Y-23700000D03*
X27000000Y-23700000D03*
D19*
%TO.N,N/C*%
X14700000Y-14000000D03*
%TO.N,GND*%
X22000000Y-14000000D03*
%TO.N,N/C*%
X29300000Y-14000000D03*
%TO.N,MIDI_IN_4*%
X27000000Y-11500000D03*
%TO.N,OPTO_CATHODE*%
X17000000Y-11500000D03*
%TD*%
D13*
%TO.N,+5V*%
%TO.C,RV16*%
X126000000Y-144000000D03*
D14*
%TO.N,POT16_W*%
X128500000Y-144000000D03*
%TO.N,GND*%
X131000000Y-144000000D03*
D15*
%TO.N,N/C*%
X124100000Y-137000000D03*
X132900000Y-137000000D03*
%TD*%
D12*
%TO.N,POT2_W*%
%TO.C,R11*%
X76000000Y-62000000D03*
%TO.N,A5*%
X76000000Y-51840000D03*
%TD*%
%TO.N,A9*%
%TO.C,C8*%
X114000000Y-96000000D03*
%TO.N,GND*%
X114000000Y-91000000D03*
%TD*%
%TO.N,A11*%
%TO.C,C16*%
X114000000Y-148000000D03*
%TO.N,GND*%
X114000000Y-143000000D03*
%TD*%
%TO.N,D9*%
%TO.C,R9*%
X152000000Y-132000000D03*
%TO.N,LED4_A*%
X152000000Y-121840000D03*
%TD*%
D20*
%TO.N,D7*%
%TO.C,SW2*%
X10000000Y-66000000D03*
X16500000Y-66000000D03*
%TO.N,GND*%
X10000000Y-70500000D03*
X16500000Y-70500000D03*
%TD*%
D12*
%TO.N,A8*%
%TO.C,C4*%
X114000000Y-70000000D03*
%TO.N,GND*%
X114000000Y-65000000D03*
%TD*%
D20*
%TO.N,D6*%
%TO.C,SW4*%
X10000000Y-110000000D03*
X16500000Y-110000000D03*
%TO.N,GND*%
X10000000Y-114500000D03*
X16500000Y-114500000D03*
%TD*%
D12*
%TO.N,A13*%
%TO.C,C9*%
X146000000Y-96000000D03*
%TO.N,GND*%
X146000000Y-91000000D03*
%TD*%
D16*
%TO.N,N/C*%
%TO.C,JMA1*%
X28890000Y-172000000D03*
D17*
X31430000Y-172000000D03*
X33970000Y-172000000D03*
X36510000Y-172000000D03*
%TO.N,+5V*%
X39050000Y-172000000D03*
%TO.N,GND*%
X41590000Y-172000000D03*
X44130000Y-172000000D03*
%TO.N,VIN_RAW*%
X46670000Y-172000000D03*
%TD*%
D13*
%TO.N,+5V*%
%TO.C,RV12*%
X126000000Y-118000000D03*
D14*
%TO.N,POT12_W*%
X128500000Y-118000000D03*
%TO.N,GND*%
X131000000Y-118000000D03*
D15*
%TO.N,N/C*%
X124100000Y-111000000D03*
X132900000Y-111000000D03*
%TD*%
D12*
%TO.N,MUX_CH0*%
%TO.C,C17*%
X146000000Y-148000000D03*
%TO.N,GND*%
X146000000Y-143000000D03*
%TD*%
D21*
%TO.N,N/C*%
%TO.C,U1*%
X38000000Y-37000000D03*
D12*
%TO.N,OPTO_ANODE*%
X38000000Y-39540000D03*
%TO.N,OPTO_CATHODE*%
X38000000Y-42080000D03*
%TO.N,N/C*%
X38000000Y-44620000D03*
%TO.N,GND*%
X45620000Y-44620000D03*
%TO.N,OPTO_VO*%
X45620000Y-42080000D03*
%TO.N,OPTO_VB*%
X45620000Y-39540000D03*
%TO.N,+5V*%
X45620000Y-37000000D03*
%TD*%
%TO.N,A1*%
%TO.C,C6*%
X50000000Y-96000000D03*
%TO.N,GND*%
X50000000Y-91000000D03*
%TD*%
%TO.N,MIDI_OUT_5*%
%TO.C,R3*%
X100000000Y-41000000D03*
%TO.N,D1_TX*%
X110160000Y-41000000D03*
%TD*%
D13*
%TO.N,GND*%
%TO.C,D3*%
X160000000Y-66000000D03*
D14*
%TO.N,LED1_A*%
X160000000Y-63460000D03*
%TD*%
D12*
%TO.N,POT3_W*%
%TO.C,R12*%
X108000000Y-62000000D03*
%TO.N,A8*%
X108000000Y-51840000D03*
%TD*%
%TO.N,POT7_W*%
%TO.C,R16*%
X108000000Y-88000000D03*
%TO.N,A9*%
X108000000Y-77840000D03*
%TD*%
%TO.N,POT16_W*%
%TO.C,R25*%
X140000000Y-140000000D03*
%TO.N,MUX_CH0*%
X140000000Y-129840000D03*
%TD*%
D16*
%TO.N,A0*%
%TO.C,JMA2*%
X51750000Y-172000000D03*
D17*
%TO.N,A1*%
X54290000Y-172000000D03*
%TO.N,A2*%
X56830000Y-172000000D03*
%TO.N,A3*%
X59370000Y-172000000D03*
%TO.N,A4*%
X61910000Y-172000000D03*
%TO.N,A5*%
X64450000Y-172000000D03*
%TO.N,A6*%
X66990000Y-172000000D03*
%TO.N,A7*%
X69530000Y-172000000D03*
%TD*%
D16*
%TO.N,D2*%
%TO.C,JMD1*%
X20000000Y-220000000D03*
D17*
%TO.N,D3*%
X22540000Y-220000000D03*
%TO.N,D4*%
X25080000Y-220000000D03*
%TO.N,GND*%
X27620000Y-220000000D03*
%TO.N,D13*%
X30160000Y-220000000D03*
%TO.N,D5*%
X32700000Y-220000000D03*
%TO.N,D6*%
X35240000Y-220000000D03*
%TO.N,D7*%
X37780000Y-220000000D03*
%TO.N,D8*%
X40320000Y-220000000D03*
%TO.N,D9*%
X42860000Y-220000000D03*
%TD*%
D12*
%TO.N,A4*%
%TO.C,C7*%
X82000000Y-96000000D03*
%TO.N,GND*%
X82000000Y-91000000D03*
%TD*%
D13*
%TO.N,+5V*%
%TO.C,RV15*%
X94000000Y-144000000D03*
D14*
%TO.N,POT15_W*%
X96500000Y-144000000D03*
%TO.N,GND*%
X99000000Y-144000000D03*
D15*
%TO.N,N/C*%
X92100000Y-137000000D03*
X100900000Y-137000000D03*
%TD*%
D12*
%TO.N,POT14_W*%
%TO.C,R23*%
X76000000Y-140000000D03*
%TO.N,A7*%
X76000000Y-129840000D03*
%TD*%
%TO.N,MIDI_OUT_4*%
%TO.C,R2*%
X100000000Y-33000000D03*
%TO.N,+5V*%
X110160000Y-33000000D03*
%TD*%
D20*
%TO.N,D5*%
%TO.C,SW5*%
X10000000Y-132000000D03*
X16500000Y-132000000D03*
%TO.N,GND*%
X10000000Y-136500000D03*
X16500000Y-136500000D03*
%TD*%
D12*
%TO.N,D10*%
%TO.C,R8*%
X152000000Y-110000000D03*
%TO.N,LED3_A*%
X152000000Y-99840000D03*
%TD*%
%TO.N,POT10_W*%
%TO.C,R19*%
X76000000Y-114000000D03*
%TO.N,A6*%
X76000000Y-103840000D03*
%TD*%
D13*
%TO.N,GND*%
%TO.C,D4*%
X160000000Y-88000000D03*
D14*
%TO.N,LED2_A*%
X160000000Y-85460000D03*
%TD*%
D12*
%TO.N,OPTO_VO*%
%TO.C,R5*%
X56000000Y-33000000D03*
%TO.N,+5V*%
X66160000Y-33000000D03*
%TD*%
D21*
%TO.N,OPTO_ANODE*%
%TO.C,D1*%
X20000000Y-41000000D03*
D12*
%TO.N,OPTO_CATHODE*%
X27620000Y-41000000D03*
%TD*%
D27*
%TO.N,VIN_RAW*%
%TO.C,J3*%
X120000000Y-14000000D03*
D28*
%TO.N,GND*%
X114000000Y-14000000D03*
D29*
%TO.N,N/C*%
X117000000Y-18700000D03*
%TD*%
D12*
%TO.N,D11*%
%TO.C,R7*%
X152000000Y-88000000D03*
%TO.N,LED2_A*%
X152000000Y-77840000D03*
%TD*%
%TO.N,A12*%
%TO.C,C5*%
X146000000Y-70000000D03*
%TO.N,GND*%
X146000000Y-65000000D03*
%TD*%
%TO.N,A3*%
%TO.C,C14*%
X50000000Y-148000000D03*
%TO.N,GND*%
X50000000Y-143000000D03*
%TD*%
%TO.N,A2*%
%TO.C,C10*%
X50000000Y-122000000D03*
%TO.N,GND*%
X50000000Y-117000000D03*
%TD*%
D13*
%TO.N,+5V*%
%TO.C,RV4*%
X126000000Y-66000000D03*
D14*
%TO.N,POT4_W*%
X128500000Y-66000000D03*
%TO.N,GND*%
X131000000Y-66000000D03*
D15*
%TO.N,N/C*%
X124100000Y-59000000D03*
X132900000Y-59000000D03*
%TD*%
D13*
%TO.N,+5V*%
%TO.C,RV1*%
X30000000Y-66000000D03*
D14*
%TO.N,POT1_W*%
X32500000Y-66000000D03*
%TO.N,GND*%
X35000000Y-66000000D03*
D15*
%TO.N,N/C*%
X28100000Y-59000000D03*
X36900000Y-59000000D03*
%TD*%
D12*
%TO.N,D12*%
%TO.C,R6*%
X152000000Y-66000000D03*
%TO.N,LED1_A*%
X152000000Y-55840000D03*
%TD*%
D30*
%TO.N,JACK_W*%
X95241500Y-184000000D03*
%TO.N,+5V*%
X132620900Y-27591300D03*
%TO.N,VIN_RAW*%
X46670000Y-56727000D03*
%TO.N,A8*%
X98555200Y-138677800D03*
%TO.N,A12*%
X84770000Y-86899800D03*
%TO.N,A9*%
X106050100Y-143099900D03*
%TO.N,A13*%
X87310000Y-117136700D03*
%TO.N,A6*%
X73099400Y-173166400D03*
%TO.N,D12*%
X148337700Y-221155600D03*
%TO.N,D11*%
X49090600Y-120203600D03*
%TO.N,D10*%
X46670000Y-181480300D03*
%TO.N,D9*%
X152000000Y-198838300D03*
%TD*%
%TO.N,OPTO_CATHODE*%
D31*
X27620000Y-41000000D02*
X36920000Y-41000000D01*
X36920000Y-41000000D02*
X38000000Y-42080000D01*
%TO.N,MIDI_OUT_4*%
X78500000Y-11500000D02*
X57000000Y-11500000D01*
X100000000Y-33000000D02*
X78500000Y-11500000D01*
%TO.N,MIDI_OUT_5*%
X100000000Y-41000000D02*
X81098300Y-22098300D01*
X57598300Y-22098300D02*
X47000000Y-11500000D01*
X81098300Y-22098300D02*
X57598300Y-22098300D01*
%TO.N,JACK_W*%
X100000000Y-184000000D02*
X95241500Y-184000000D01*
%TO.N,+5V*%
X63952700Y-119201700D02*
X63201700Y-118450700D01*
X62000000Y-118000000D02*
X63201700Y-118000000D01*
X32426100Y-67675000D02*
X59123300Y-67675000D01*
X66160000Y-33000000D02*
X65032100Y-31872100D01*
X95952700Y-119201700D02*
X95201700Y-118450700D01*
X97360000Y-26000000D02*
X91080000Y-19720000D01*
X62000000Y-66000000D02*
X60798300Y-66000000D01*
X126000000Y-118000000D02*
X124798300Y-118000000D01*
X91596600Y-119201700D02*
X63952700Y-119201700D01*
X124798300Y-66000000D02*
X123596600Y-67201700D01*
X92798300Y-118000000D02*
X91596600Y-119201700D01*
X94000000Y-66000000D02*
X95201700Y-66000000D01*
X70000000Y-37000000D02*
X66160000Y-33160000D01*
X94000000Y-118000000D02*
X95201700Y-118000000D01*
X110160000Y-26000000D02*
X110160000Y-33000000D01*
X149051300Y-27591300D02*
X150000000Y-28540000D01*
X120000000Y-26000000D02*
X110160000Y-26000000D01*
X95201700Y-118450700D02*
X95201700Y-118000000D01*
X94000000Y-118000000D02*
X92798300Y-118000000D01*
X95201700Y-66450700D02*
X95201700Y-66000000D01*
X30000000Y-66000000D02*
X31201700Y-66000000D01*
X50747900Y-31872100D02*
X45620000Y-37000000D01*
X31201700Y-66450600D02*
X32426100Y-67675000D01*
X123596600Y-119201700D02*
X95952700Y-119201700D01*
X124798300Y-118000000D02*
X123596600Y-119201700D01*
X59123300Y-67675000D02*
X60798300Y-66000000D01*
X63201700Y-118450700D02*
X63201700Y-118000000D01*
X132620900Y-27591300D02*
X149051300Y-27591300D01*
X31201700Y-66000000D02*
X31201700Y-66450600D01*
X110160000Y-26000000D02*
X97360000Y-26000000D01*
X123596600Y-67201700D02*
X95952700Y-67201700D01*
X95952700Y-67201700D02*
X95201700Y-66450700D01*
X65032100Y-31872100D02*
X50747900Y-31872100D01*
X66160000Y-33160000D02*
X66160000Y-33000000D01*
X126000000Y-66000000D02*
X124798300Y-66000000D01*
%TO.N,VIN_RAW*%
X120000000Y-14000000D02*
X120000000Y-16051700D01*
X130160000Y-26000000D02*
X120211700Y-16051700D01*
X130160000Y-26000000D02*
X137780000Y-33620000D01*
X130160000Y-26000000D02*
X99433000Y-56727000D01*
X120211700Y-16051700D02*
X120000000Y-16051700D01*
X99433000Y-56727000D02*
X46670000Y-56727000D01*
X137780000Y-33620000D02*
X150000000Y-33620000D01*
%TO.N,OPTO_ANODE*%
X20000000Y-41000000D02*
X28000000Y-33000000D01*
X28000000Y-33000000D02*
X30160000Y-33000000D01*
X36700000Y-39540000D02*
X38000000Y-39540000D01*
X30160000Y-33000000D02*
X36700000Y-39540000D01*
%TO.N,OPTO_VO*%
X61113300Y-38113300D02*
X60793700Y-37793700D01*
X80438400Y-38113300D02*
X61113300Y-38113300D01*
X56417400Y-42170000D02*
X45710000Y-42170000D01*
X82000000Y-36551700D02*
X80438400Y-38113300D01*
X60793700Y-37793700D02*
X56417400Y-42170000D01*
X82000000Y-35000000D02*
X82000000Y-36551700D01*
X45710000Y-42170000D02*
X45620000Y-42080000D01*
X60793700Y-37793700D02*
X56000000Y-33000000D01*
%TO.N,OPTO_VB*%
X54540000Y-39540000D02*
X45620000Y-39540000D01*
X56000000Y-41000000D02*
X54540000Y-39540000D01*
%TO.N,D7*%
X16500000Y-66000000D02*
X10000000Y-66000000D01*
%TO.N,D8*%
X16500000Y-88000000D02*
X10000000Y-88000000D01*
%TO.N,D6*%
X16500000Y-110000000D02*
X10000000Y-110000000D01*
%TO.N,D5*%
X16500000Y-132000000D02*
X10000000Y-132000000D01*
%TO.N,POT1_W*%
X33764700Y-67264700D02*
X32500000Y-66000000D01*
X38735300Y-67264700D02*
X33764700Y-67264700D01*
X44000000Y-62000000D02*
X38735300Y-67264700D01*
%TO.N,POT2_W*%
X68500000Y-62000000D02*
X64500000Y-66000000D01*
X76000000Y-62000000D02*
X68500000Y-62000000D01*
%TO.N,POT3_W*%
X108000000Y-62000000D02*
X100500000Y-62000000D01*
X100500000Y-62000000D02*
X96500000Y-66000000D01*
%TO.N,A8*%
X95241500Y-150216800D02*
X95241500Y-141991500D01*
X74610000Y-172000000D02*
X74610000Y-170848300D01*
X95241500Y-141991500D02*
X98555200Y-138677800D01*
X74610000Y-170848300D02*
X95241500Y-150216800D01*
%TO.N,POT4_W*%
X132500000Y-62000000D02*
X128500000Y-66000000D01*
X140000000Y-62000000D02*
X132500000Y-62000000D01*
%TO.N,A12*%
X106021800Y-86899800D02*
X84770000Y-86899800D01*
X122921600Y-70000000D02*
X106021800Y-86899800D01*
X146000000Y-70000000D02*
X122921600Y-70000000D01*
%TO.N,POT5_W*%
X44000000Y-88000000D02*
X36500000Y-88000000D01*
X36500000Y-88000000D02*
X32500000Y-92000000D01*
%TO.N,A1*%
X50000000Y-96000000D02*
X46539300Y-92539300D01*
X46539300Y-80379300D02*
X44000000Y-77840000D01*
X46539300Y-92539300D02*
X46539300Y-80379300D01*
%TO.N,POT6_W*%
X68500000Y-88000000D02*
X64500000Y-92000000D01*
X76000000Y-88000000D02*
X68500000Y-88000000D01*
%TO.N,POT7_W*%
X108000000Y-88000000D02*
X100500000Y-88000000D01*
X100500000Y-88000000D02*
X96500000Y-92000000D01*
%TO.N,A9*%
X77150000Y-172000000D02*
X106050100Y-143099900D01*
%TO.N,POT8_W*%
X140000000Y-88000000D02*
X132500000Y-88000000D01*
X132500000Y-88000000D02*
X128500000Y-92000000D01*
%TO.N,A13*%
X99098600Y-107566400D02*
X89528300Y-117136700D01*
X89528300Y-117136700D02*
X87310000Y-117136700D01*
X134433600Y-107566400D02*
X99098600Y-107566400D01*
X146000000Y-96000000D02*
X134433600Y-107566400D01*
%TO.N,POT9_W*%
X44000000Y-114000000D02*
X36500000Y-114000000D01*
X36500000Y-114000000D02*
X32500000Y-118000000D01*
%TO.N,A2*%
X46539300Y-106379300D02*
X44000000Y-103840000D01*
X50000000Y-122000000D02*
X46539300Y-118539300D01*
X46539300Y-118539300D02*
X46539300Y-106379300D01*
%TO.N,POT10_W*%
X66992500Y-115507500D02*
X74492500Y-115507500D01*
X64500000Y-118000000D02*
X66992500Y-115507500D01*
X74492500Y-115507500D02*
X76000000Y-114000000D01*
%TO.N,A6*%
X68156400Y-173166400D02*
X73099400Y-173166400D01*
X66990000Y-172000000D02*
X68156400Y-173166400D01*
%TO.N,POT11_W*%
X100500000Y-114000000D02*
X96500000Y-118000000D01*
X108000000Y-114000000D02*
X100500000Y-114000000D01*
%TO.N,A10*%
X79690000Y-172000000D02*
X114000000Y-137690000D01*
X114000000Y-137690000D02*
X114000000Y-122000000D01*
%TO.N,POT12_W*%
X132500000Y-114000000D02*
X128500000Y-118000000D01*
X140000000Y-114000000D02*
X132500000Y-114000000D01*
%TO.N,A14*%
X94631500Y-170033400D02*
X91816600Y-170033400D01*
X142664900Y-122000000D02*
X94631500Y-170033400D01*
X91816600Y-170033400D02*
X89850000Y-172000000D01*
X146000000Y-122000000D02*
X142664900Y-122000000D01*
%TO.N,POT13_W*%
X36500000Y-140000000D02*
X32500000Y-144000000D01*
X44000000Y-140000000D02*
X36500000Y-140000000D01*
%TO.N,A3*%
X46420000Y-144420000D02*
X50000000Y-148000000D01*
X44000000Y-129840000D02*
X46420000Y-132260000D01*
X46420000Y-132260000D02*
X46420000Y-144420000D01*
%TO.N,POT14_W*%
X68500000Y-140000000D02*
X64500000Y-144000000D01*
X76000000Y-140000000D02*
X68500000Y-140000000D01*
%TO.N,A7*%
X69530000Y-172000000D02*
X69530000Y-160470000D01*
X69530000Y-160470000D02*
X82000000Y-148000000D01*
%TO.N,POT15_W*%
X108000000Y-140000000D02*
X100500000Y-140000000D01*
X100500000Y-140000000D02*
X96500000Y-144000000D01*
%TO.N,A11*%
X83381700Y-170848300D02*
X85282400Y-170848300D01*
X86862300Y-173181000D02*
X87816400Y-173181000D01*
X85282400Y-170848300D02*
X86158300Y-171724200D01*
X87816400Y-173181000D02*
X88580000Y-172417400D01*
X112161000Y-148000000D02*
X114000000Y-148000000D01*
X86158300Y-171724200D02*
X86158300Y-172477000D01*
X82230000Y-172000000D02*
X83381700Y-170848300D01*
X86158300Y-172477000D02*
X86862300Y-173181000D01*
X88580000Y-172417400D02*
X88580000Y-171581000D01*
X88580000Y-171581000D02*
X112161000Y-148000000D01*
%TO.N,POT16_W*%
X140000000Y-140000000D02*
X132500000Y-140000000D01*
X132500000Y-140000000D02*
X128500000Y-144000000D01*
%TO.N,D12*%
X52905600Y-221155600D02*
X148337700Y-221155600D01*
X51750000Y-220000000D02*
X52905600Y-221155600D01*
%TO.N,LED1_A*%
X159620000Y-63460000D02*
X152000000Y-55840000D01*
X160000000Y-63460000D02*
X159620000Y-63460000D01*
%TO.N,D11*%
X54229800Y-115064400D02*
X49090600Y-120203600D01*
X152000000Y-88000000D02*
X146500000Y-93500000D01*
X69738500Y-115064400D02*
X54229800Y-115064400D01*
X146500000Y-93500000D02*
X91302900Y-93500000D01*
X91302900Y-93500000D02*
X69738500Y-115064400D01*
%TO.N,LED2_A*%
X160000000Y-85460000D02*
X159620000Y-85460000D01*
X159620000Y-85460000D02*
X152000000Y-77840000D01*
%TO.N,D10*%
X150644600Y-110000000D02*
X140902200Y-119742400D01*
X55678300Y-172472000D02*
X46670000Y-181480300D01*
X140902200Y-119742400D02*
X103685600Y-119742400D01*
X55678300Y-167749700D02*
X55678300Y-172472000D01*
X103685600Y-119742400D02*
X55678300Y-167749700D01*
X152000000Y-110000000D02*
X150644600Y-110000000D01*
%TO.N,LED3_A*%
X159620000Y-107460000D02*
X152000000Y-99840000D01*
X160000000Y-107460000D02*
X159620000Y-107460000D01*
%TO.N,D9*%
X65637100Y-201940000D02*
X131059500Y-201940000D01*
X131059500Y-201940000D02*
X134161200Y-198838300D01*
X47960700Y-219616400D02*
X65637100Y-201940000D01*
X47701400Y-221151700D02*
X47960700Y-220892400D01*
X42860000Y-220000000D02*
X44011700Y-221151700D01*
X47960700Y-220892400D02*
X47960700Y-219616400D01*
X44011700Y-221151700D02*
X47701400Y-221151700D01*
X134161200Y-198838300D02*
X152000000Y-198838300D01*
%TO.N,LED4_A*%
X160000000Y-129460000D02*
X159620000Y-129460000D01*
X159620000Y-129460000D02*
X152000000Y-121840000D01*
%TO.N,A15*%
X92390000Y-172000000D02*
X120000000Y-172000000D01*
%TO.N,D2*%
X46003800Y-194860000D02*
X120000000Y-194860000D01*
X20000000Y-220000000D02*
X21151700Y-220000000D01*
X21151700Y-220000000D02*
X21151700Y-219712100D01*
X21151700Y-219712100D02*
X46003800Y-194860000D01*
%TO.N,D3*%
X45140000Y-197400000D02*
X120000000Y-197400000D01*
X22540000Y-220000000D02*
X45140000Y-197400000D01*
%TO.N,D4*%
X133888800Y-197400000D02*
X132569900Y-198718900D01*
X135240000Y-197400000D02*
X133888800Y-197400000D01*
X46361100Y-198718900D02*
X25080000Y-220000000D01*
X132569900Y-198718900D02*
X46361100Y-198718900D01*
%TO.N,D13*%
X50480000Y-219630600D02*
X66343100Y-203767500D01*
X131412600Y-203767500D02*
X131412600Y-203767400D01*
X49329500Y-221557600D02*
X50480000Y-220407100D01*
X50480000Y-220407100D02*
X50480000Y-219630600D01*
X30160000Y-220000000D02*
X31717600Y-221557600D01*
X131412600Y-203767400D02*
X135240000Y-199940000D01*
X31717600Y-221557600D02*
X49329500Y-221557600D01*
X66343100Y-203767500D02*
X131412600Y-203767500D01*
%TO.N,MUX_CH1*%
X150000000Y-184000000D02*
X148030000Y-185970000D01*
X148030000Y-185970000D02*
X123810000Y-185970000D01*
X114220000Y-184000000D02*
X110160000Y-184000000D01*
X123810000Y-185970000D02*
X120000000Y-189780000D01*
X120000000Y-189780000D02*
X114220000Y-184000000D01*
%TD*%
M02*
