%TF.GenerationSoftware,KiCad,Pcbnew,10.0.3*%
%TF.CreationDate,2026-06-08T13:20:37+02:00*%
%TF.ProjectId,SysEx_Patcher,53797345-785f-4506-9174-636865722e6b,rev?*%
%TF.SameCoordinates,Original*%
%TF.FileFunction,Copper,L2,Inr*%
%TF.FilePolarity,Positive*%
%FSLAX46Y46*%
G04 Gerber Fmt 4.6, Leading zero omitted, Abs format (unit mm)*
G04 Created by KiCad (PCBNEW 10.0.3) date 2026-06-08 13:20:37*
%MOMM*%
%LPD*%
G01*
G04 APERTURE LIST*
G04 Aperture macros list*
%AMRoundRect*
0 Rectangle with rounded corners*
0 $1 Rounding radius*
0 $2 $3 $4 $5 $6 $7 $8 $9 X,Y pos of 4 corners*
0 Add a 4 corners polygon primitive as box body*
4,1,4,$2,$3,$4,$5,$6,$7,$8,$9,$2,$3,0*
0 Add four circle primitives for the rounded corners*
1,1,$1+$1,$2,$3*
1,1,$1+$1,$4,$5*
1,1,$1+$1,$6,$7*
1,1,$1+$1,$8,$9*
0 Add four rect primitives between the rounded corners*
20,1,$1+$1,$2,$3,$4,$5,0*
20,1,$1+$1,$4,$5,$6,$7,0*
20,1,$1+$1,$6,$7,$8,$9,0*
20,1,$1+$1,$8,$9,$2,$3,0*%
G04 Aperture macros list end*
%TA.AperFunction,ComponentPad*%
%ADD10C,1.600000*%
%TD*%
%TA.AperFunction,ComponentPad*%
%ADD11R,1.700000X1.700000*%
%TD*%
%TA.AperFunction,ComponentPad*%
%ADD12C,1.700000*%
%TD*%
%TA.AperFunction,ComponentPad*%
%ADD13R,1.800000X1.800000*%
%TD*%
%TA.AperFunction,ComponentPad*%
%ADD14C,1.800000*%
%TD*%
%TA.AperFunction,ComponentPad*%
%ADD15RoundRect,0.750000X-1.250000X-0.750000X1.250000X-0.750000X1.250000X0.750000X-1.250000X0.750000X0*%
%TD*%
%TA.AperFunction,ComponentPad*%
%ADD16RoundRect,0.250000X-0.550000X-0.550000X0.550000X-0.550000X0.550000X0.550000X-0.550000X0.550000X0*%
%TD*%
%TA.AperFunction,ComponentPad*%
%ADD17C,2.600000*%
%TD*%
%TA.AperFunction,ComponentPad*%
%ADD18C,2.400000*%
%TD*%
%TA.AperFunction,ComponentPad*%
%ADD19C,2.000000*%
%TD*%
%TA.AperFunction,ComponentPad*%
%ADD20R,3.500000X3.500000*%
%TD*%
%TA.AperFunction,ComponentPad*%
%ADD21RoundRect,0.750000X-0.750000X-1.000000X0.750000X-1.000000X0.750000X1.000000X-0.750000X1.000000X0*%
%TD*%
%TA.AperFunction,ComponentPad*%
%ADD22RoundRect,0.875000X-0.875000X-0.875000X0.875000X-0.875000X0.875000X0.875000X-0.875000X0.875000X0*%
%TD*%
%TA.AperFunction,ComponentPad*%
%ADD23RoundRect,0.249999X-0.850001X-0.850001X0.850001X-0.850001X0.850001X0.850001X-0.850001X0.850001X0*%
%TD*%
%TA.AperFunction,ComponentPad*%
%ADD24C,2.200000*%
%TD*%
%TA.AperFunction,ComponentPad*%
%ADD25C,3.000000*%
%TD*%
%TA.AperFunction,ViaPad*%
%ADD26C,0.600000*%
%TD*%
%TA.AperFunction,Conductor*%
%ADD27C,0.200000*%
%TD*%
G04 APERTURE END LIST*
D10*
%TO.N,POT8_W*%
%TO.C,R17*%
X157000000Y-98000000D03*
%TO.N,A13*%
X167160000Y-98000000D03*
%TD*%
D11*
%TO.N,GND*%
%TO.C,JMX1*%
X128980000Y-129180000D03*
D12*
X131520000Y-129180000D03*
%TO.N,D52*%
X128980000Y-126640000D03*
%TO.N,D53*%
X131520000Y-126640000D03*
%TO.N,D50*%
X128980000Y-124100000D03*
%TO.N,D51*%
X131520000Y-124100000D03*
%TO.N,D48*%
X128980000Y-121560000D03*
%TO.N,D49*%
X131520000Y-121560000D03*
%TO.N,D46*%
X128980000Y-119020000D03*
%TO.N,D47*%
X131520000Y-119020000D03*
%TO.N,D44*%
X128980000Y-116480000D03*
%TO.N,D45*%
X131520000Y-116480000D03*
%TO.N,D42*%
X128980000Y-113940000D03*
%TO.N,D43*%
X131520000Y-113940000D03*
%TO.N,D40*%
X128980000Y-111400000D03*
%TO.N,D41*%
X131520000Y-111400000D03*
%TO.N,D38*%
X128980000Y-108860000D03*
%TO.N,D39*%
X131520000Y-108860000D03*
%TO.N,D36*%
X128980000Y-106320000D03*
%TO.N,D37*%
X131520000Y-106320000D03*
%TO.N,D34*%
X128980000Y-103780000D03*
%TO.N,D35*%
X131520000Y-103780000D03*
%TO.N,D32*%
X128980000Y-101240000D03*
%TO.N,D33*%
X131520000Y-101240000D03*
%TO.N,D30*%
X128980000Y-98700000D03*
%TO.N,D31*%
X131520000Y-98700000D03*
%TO.N,D28*%
X128980000Y-96160000D03*
%TO.N,D29*%
X131520000Y-96160000D03*
%TO.N,D26*%
X128980000Y-93620000D03*
%TO.N,D27*%
X131520000Y-93620000D03*
%TO.N,D24*%
X128980000Y-91080000D03*
%TO.N,D25*%
X131520000Y-91080000D03*
%TO.N,D22*%
X128980000Y-88540000D03*
%TO.N,D23*%
X131520000Y-88540000D03*
%TO.N,+5V*%
X128980000Y-86000000D03*
X131520000Y-86000000D03*
%TD*%
D11*
%TO.N,D7*%
%TO.C,JMD2*%
X80720000Y-86000000D03*
D12*
%TO.N,D6*%
X78180000Y-86000000D03*
%TO.N,D5*%
X75640000Y-86000000D03*
%TO.N,D4*%
X73100000Y-86000000D03*
%TO.N,D3*%
X70560000Y-86000000D03*
%TO.N,D2*%
X68020000Y-86000000D03*
%TO.N,D1_TX*%
X65480000Y-86000000D03*
%TO.N,D0_RX*%
X62940000Y-86000000D03*
%TD*%
D10*
%TO.N,MIDI_OUT_4*%
%TO.C,R2*%
X92000000Y-60000000D03*
%TO.N,+5V*%
X102160000Y-60000000D03*
%TD*%
D13*
%TO.N,+5V*%
%TO.C,RV4*%
X146000000Y-80000000D03*
D14*
%TO.N,POT4_W*%
X148500000Y-80000000D03*
%TO.N,GND*%
X151000000Y-80000000D03*
D15*
%TO.N,N/C*%
X144100000Y-73000000D03*
X152900000Y-73000000D03*
%TD*%
D10*
%TO.N,A11*%
%TO.C,C16*%
X125000000Y-151000000D03*
%TO.N,GND*%
X130000000Y-151000000D03*
%TD*%
%TO.N,POT3_W*%
%TO.C,R12*%
X125000000Y-74000000D03*
%TO.N,A8*%
X135160000Y-74000000D03*
%TD*%
D16*
%TO.N,OPTO_ANODE*%
%TO.C,D1*%
X34000000Y-59000000D03*
D10*
%TO.N,OPTO_CATHODE*%
X41620000Y-59000000D03*
%TD*%
D13*
%TO.N,GND*%
%TO.C,D9*%
X35000000Y-160000000D03*
D14*
%TO.N,LED7_A*%
X37540000Y-160000000D03*
%TD*%
D10*
%TO.N,+5V*%
%TO.C,C1*%
X80000000Y-62000000D03*
%TO.N,GND*%
X85000000Y-62000000D03*
%TD*%
%TO.N,POT9_W*%
%TO.C,R18*%
X61000000Y-122000000D03*
%TO.N,A2*%
X71160000Y-122000000D03*
%TD*%
D16*
%TO.N,A15*%
%TO.C,U2*%
X50000000Y-180000000D03*
D10*
%TO.N,MUX_CH7*%
X52540000Y-180000000D03*
%TO.N,MUX_CH6*%
X55080000Y-180000000D03*
%TO.N,MUX_CH5*%
X57620000Y-180000000D03*
%TO.N,MUX_CH4*%
X60160000Y-180000000D03*
%TO.N,MUX_CH3*%
X62700000Y-180000000D03*
%TO.N,MUX_CH2*%
X65240000Y-180000000D03*
%TO.N,MUX_CH1*%
X67780000Y-180000000D03*
%TO.N,MUX_CH0*%
X70320000Y-180000000D03*
%TO.N,D2*%
X72860000Y-180000000D03*
%TO.N,D3*%
X75400000Y-180000000D03*
%TO.N,GND*%
X77940000Y-180000000D03*
%TO.N,D13*%
X77940000Y-164760000D03*
%TO.N,D4*%
X75400000Y-164760000D03*
%TO.N,GND*%
X72860000Y-164760000D03*
%TO.N,MUX_CH15*%
X70320000Y-164760000D03*
%TO.N,MUX_CH14*%
X67780000Y-164760000D03*
%TO.N,MUX_CH13*%
X65240000Y-164760000D03*
%TO.N,MUX_CH12*%
X62700000Y-164760000D03*
%TO.N,MUX_CH11*%
X60160000Y-164760000D03*
%TO.N,MUX_CH10*%
X57620000Y-164760000D03*
%TO.N,MUX_CH9*%
X55080000Y-164760000D03*
%TO.N,MUX_CH8*%
X52540000Y-164760000D03*
%TO.N,+5V*%
X50000000Y-164760000D03*
%TD*%
D13*
%TO.N,+5V*%
%TO.C,RV1*%
X50000000Y-80000000D03*
D14*
%TO.N,POT1_W*%
X52500000Y-80000000D03*
%TO.N,GND*%
X55000000Y-80000000D03*
D15*
%TO.N,N/C*%
X48100000Y-73000000D03*
X56900000Y-73000000D03*
%TD*%
D10*
%TO.N,D25*%
%TO.C,R29*%
X43000000Y-100000000D03*
%TO.N,LED6_A*%
X43000000Y-89840000D03*
%TD*%
D17*
%TO.N,*%
%TO.C,J1*%
X39000000Y-28300000D03*
X49000000Y-28300000D03*
D18*
%TO.N,N/C*%
X36700000Y-38000000D03*
%TO.N,GND*%
X44000000Y-38000000D03*
%TO.N,N/C*%
X51300000Y-38000000D03*
%TO.N,MIDI_IN_4*%
X49000000Y-40500000D03*
%TO.N,OPTO_CATHODE*%
X39000000Y-40500000D03*
%TD*%
D19*
%TO.N,D5*%
%TO.C,SW5*%
X168000000Y-156000000D03*
X174500000Y-156000000D03*
%TO.N,GND*%
X168000000Y-160500000D03*
X174500000Y-160500000D03*
%TD*%
D11*
%TO.N,D14*%
%TO.C,JMD3*%
X103580000Y-86000000D03*
D12*
%TO.N,D15*%
X101040000Y-86000000D03*
%TO.N,D16*%
X98500000Y-86000000D03*
%TO.N,D17*%
X95960000Y-86000000D03*
%TO.N,D18*%
X93420000Y-86000000D03*
%TO.N,D19*%
X90880000Y-86000000D03*
%TO.N,D20_SDA*%
X88340000Y-86000000D03*
%TO.N,D21_SCL*%
X85800000Y-86000000D03*
%TD*%
D13*
%TO.N,GND*%
%TO.C,D5*%
X178000000Y-132000000D03*
D14*
%TO.N,LED3_A*%
X180540000Y-132000000D03*
%TD*%
D19*
%TO.N,D26*%
%TO.C,SW8*%
X26000000Y-160000000D03*
X32500000Y-160000000D03*
%TO.N,GND*%
X26000000Y-164500000D03*
X32500000Y-164500000D03*
%TD*%
%TO.N,D7*%
%TO.C,SW2*%
X168000000Y-84000000D03*
X174500000Y-84000000D03*
%TO.N,GND*%
X168000000Y-88500000D03*
X174500000Y-88500000D03*
%TD*%
D16*
%TO.N,N/C*%
%TO.C,U1*%
X48000000Y-54000000D03*
D10*
%TO.N,OPTO_ANODE*%
X48000000Y-56540000D03*
%TO.N,OPTO_CATHODE*%
X48000000Y-59080000D03*
%TO.N,N/C*%
X48000000Y-61620000D03*
%TO.N,GND*%
X55620000Y-61620000D03*
%TO.N,D0_RX*%
X55620000Y-59080000D03*
%TO.N,OPTO_VB*%
X55620000Y-56540000D03*
%TO.N,+5V*%
X55620000Y-54000000D03*
%TD*%
%TO.N,A5*%
%TO.C,C3*%
X93000000Y-79000000D03*
%TO.N,GND*%
X98000000Y-79000000D03*
%TD*%
%TO.N,A8*%
%TO.C,C4*%
X125000000Y-79000000D03*
%TO.N,GND*%
X130000000Y-79000000D03*
%TD*%
D13*
%TO.N,+5V*%
%TO.C,RV5*%
X50000000Y-104000000D03*
D14*
%TO.N,POT5_W*%
X52500000Y-104000000D03*
%TO.N,GND*%
X55000000Y-104000000D03*
D15*
%TO.N,N/C*%
X48100000Y-97000000D03*
X56900000Y-97000000D03*
%TD*%
D10*
%TO.N,POT2_W*%
%TO.C,R11*%
X93000000Y-74000000D03*
%TO.N,A5*%
X103160000Y-74000000D03*
%TD*%
D13*
%TO.N,GND*%
%TO.C,D7*%
X178000000Y-60000000D03*
D14*
%TO.N,LED5_A*%
X180540000Y-60000000D03*
%TD*%
D11*
%TO.N,GND*%
%TO.C,J5*%
X166000000Y-32000000D03*
D12*
%TO.N,+5V*%
X168540000Y-32000000D03*
%TO.N,D21_SCL*%
X171080000Y-32000000D03*
%TO.N,D20_SDA*%
X173620000Y-32000000D03*
%TD*%
D11*
%TO.N,A8*%
%TO.C,JMA2*%
X108660000Y-134260000D03*
D12*
%TO.N,A9*%
X106120000Y-134260000D03*
%TO.N,A10*%
X103580000Y-134260000D03*
%TO.N,A11*%
X101040000Y-134260000D03*
%TO.N,A12*%
X98500000Y-134260000D03*
%TO.N,A13*%
X95960000Y-134260000D03*
%TO.N,A14*%
X93420000Y-134260000D03*
%TO.N,A15*%
X90880000Y-134260000D03*
%TD*%
D20*
%TO.N,VIN_RAW*%
%TO.C,J3*%
X138000000Y-38000000D03*
D21*
%TO.N,GND*%
X138000000Y-32000000D03*
D22*
%TO.N,N/C*%
X133300000Y-35000000D03*
%TD*%
D17*
%TO.N,*%
%TO.C,J2*%
X67000000Y-28300000D03*
X77000000Y-28300000D03*
D18*
%TO.N,N/C*%
X64700000Y-38000000D03*
%TO.N,GND*%
X72000000Y-38000000D03*
%TO.N,N/C*%
X79300000Y-38000000D03*
%TO.N,MIDI_OUT_4*%
X77000000Y-40500000D03*
%TO.N,MIDI_OUT_5*%
X67000000Y-40500000D03*
%TD*%
D13*
%TO.N,+5V*%
%TO.C,RV8*%
X146000000Y-104000000D03*
D14*
%TO.N,POT8_W*%
X148500000Y-104000000D03*
%TO.N,GND*%
X151000000Y-104000000D03*
D15*
%TO.N,N/C*%
X144100000Y-97000000D03*
X152900000Y-97000000D03*
%TD*%
D10*
%TO.N,A1*%
%TO.C,C6*%
X61000000Y-103000000D03*
%TO.N,GND*%
X66000000Y-103000000D03*
%TD*%
%TO.N,A6*%
%TO.C,C11*%
X93000000Y-127000000D03*
%TO.N,GND*%
X98000000Y-127000000D03*
%TD*%
%TO.N,D23*%
%TO.C,R28*%
X186000000Y-60000000D03*
%TO.N,LED5_A*%
X186000000Y-49840000D03*
%TD*%
D13*
%TO.N,+5V*%
%TO.C,RV11*%
X114000000Y-128000000D03*
D14*
%TO.N,POT11_W*%
X116500000Y-128000000D03*
%TO.N,GND*%
X119000000Y-128000000D03*
D15*
%TO.N,N/C*%
X112100000Y-121000000D03*
X120900000Y-121000000D03*
%TD*%
D11*
%TO.N,N/C*%
%TO.C,JMP1*%
X62940000Y-134260000D03*
D12*
X60400000Y-134260000D03*
X57860000Y-134260000D03*
X55320000Y-134260000D03*
%TO.N,+5V*%
X52780000Y-134260000D03*
%TO.N,GND*%
X50240000Y-134260000D03*
X47700000Y-134260000D03*
%TO.N,VIN_RAW*%
X45160000Y-134260000D03*
%TD*%
D10*
%TO.N,D27*%
%TO.C,R30*%
X43000000Y-160000000D03*
%TO.N,LED7_A*%
X43000000Y-149840000D03*
%TD*%
D11*
%TO.N,A0*%
%TO.C,JMA1*%
X85800000Y-134260000D03*
D12*
%TO.N,A1*%
X83260000Y-134260000D03*
%TO.N,A2*%
X80720000Y-134260000D03*
%TO.N,A3*%
X78180000Y-134260000D03*
%TO.N,A4*%
X75640000Y-134260000D03*
%TO.N,A5*%
X73100000Y-134260000D03*
%TO.N,A6*%
X70560000Y-134260000D03*
%TO.N,A7*%
X68020000Y-134260000D03*
%TD*%
D10*
%TO.N,D12*%
%TO.C,R6*%
X186000000Y-84000000D03*
%TO.N,LED1_A*%
X186000000Y-73840000D03*
%TD*%
%TO.N,POT14_W*%
%TO.C,R23*%
X93000000Y-146000000D03*
%TO.N,A7*%
X103160000Y-146000000D03*
%TD*%
%TO.N,POT16_W*%
%TO.C,R25*%
X157000000Y-146000000D03*
%TO.N,MUX_CH0*%
X167160000Y-146000000D03*
%TD*%
D13*
%TO.N,+5V*%
%TO.C,RV2*%
X82000000Y-80000000D03*
D14*
%TO.N,POT2_W*%
X84500000Y-80000000D03*
%TO.N,GND*%
X87000000Y-80000000D03*
D15*
%TO.N,N/C*%
X80100000Y-73000000D03*
X88900000Y-73000000D03*
%TD*%
D13*
%TO.N,+5V*%
%TO.C,RV10*%
X82000000Y-128000000D03*
D14*
%TO.N,POT10_W*%
X84500000Y-128000000D03*
%TO.N,GND*%
X87000000Y-128000000D03*
D15*
%TO.N,N/C*%
X80100000Y-121000000D03*
X88900000Y-121000000D03*
%TD*%
D10*
%TO.N,MIDI_IN_4*%
%TO.C,R1*%
X34000000Y-65000000D03*
%TO.N,OPTO_ANODE*%
X44160000Y-65000000D03*
%TD*%
%TO.N,D10*%
%TO.C,R8*%
X186000000Y-132000000D03*
%TO.N,LED3_A*%
X186000000Y-121840000D03*
%TD*%
%TO.N,A4*%
%TO.C,C7*%
X93000000Y-103000000D03*
%TO.N,GND*%
X98000000Y-103000000D03*
%TD*%
D13*
%TO.N,+5V*%
%TO.C,RV6*%
X82000000Y-104000000D03*
D14*
%TO.N,POT6_W*%
X84500000Y-104000000D03*
%TO.N,GND*%
X87000000Y-104000000D03*
D15*
%TO.N,N/C*%
X80100000Y-97000000D03*
X88900000Y-97000000D03*
%TD*%
D23*
%TO.N,+5V*%
%TO.C,D2D*%
X150000000Y-52000000D03*
D24*
%TO.N,VIN_RAW*%
X160160000Y-52000000D03*
%TD*%
D13*
%TO.N,GND*%
%TO.C,D8*%
X35000000Y-100000000D03*
D14*
%TO.N,LED6_A*%
X37540000Y-100000000D03*
%TD*%
D13*
%TO.N,+5V*%
%TO.C,RV15*%
X114000000Y-152000000D03*
D14*
%TO.N,POT15_W*%
X116500000Y-152000000D03*
%TO.N,GND*%
X119000000Y-152000000D03*
D15*
%TO.N,N/C*%
X112100000Y-145000000D03*
X120900000Y-145000000D03*
%TD*%
D13*
%TO.N,+5V*%
%TO.C,RV7*%
X114000000Y-104000000D03*
D14*
%TO.N,POT7_W*%
X116500000Y-104000000D03*
%TO.N,GND*%
X119000000Y-104000000D03*
D15*
%TO.N,N/C*%
X112100000Y-97000000D03*
X120900000Y-97000000D03*
%TD*%
D10*
%TO.N,A0*%
%TO.C,C2*%
X61000000Y-79000000D03*
%TO.N,GND*%
X66000000Y-79000000D03*
%TD*%
D13*
%TO.N,+5V*%
%TO.C,RV12*%
X146000000Y-128000000D03*
D14*
%TO.N,POT12_W*%
X148500000Y-128000000D03*
%TO.N,GND*%
X151000000Y-128000000D03*
D15*
%TO.N,N/C*%
X144100000Y-121000000D03*
X152900000Y-121000000D03*
%TD*%
D13*
%TO.N,GND*%
%TO.C,D6*%
X178000000Y-156000000D03*
D14*
%TO.N,LED4_A*%
X180540000Y-156000000D03*
%TD*%
D10*
%TO.N,POT1_W*%
%TO.C,R10*%
X61000000Y-74000000D03*
%TO.N,A0*%
X71160000Y-74000000D03*
%TD*%
D13*
%TO.N,GND*%
%TO.C,D3*%
X178000000Y-84000000D03*
D14*
%TO.N,LED1_A*%
X180540000Y-84000000D03*
%TD*%
D19*
%TO.N,D22*%
%TO.C,SW6*%
X168000000Y-60000000D03*
X174500000Y-60000000D03*
%TO.N,GND*%
X168000000Y-64500000D03*
X174500000Y-64500000D03*
%TD*%
D13*
%TO.N,+5V*%
%TO.C,RV14*%
X82000000Y-152000000D03*
D14*
%TO.N,POT14_W*%
X84500000Y-152000000D03*
%TO.N,GND*%
X87000000Y-152000000D03*
D15*
%TO.N,N/C*%
X80100000Y-145000000D03*
X88900000Y-145000000D03*
%TD*%
D10*
%TO.N,MIDI_OUT_5*%
%TO.C,R3*%
X92000000Y-66000000D03*
%TO.N,D1_TX*%
X102160000Y-66000000D03*
%TD*%
%TO.N,D11*%
%TO.C,R7*%
X186000000Y-108000000D03*
%TO.N,LED2_A*%
X186000000Y-97840000D03*
%TD*%
D11*
%TO.N,GND*%
%TO.C,J4*%
X136000000Y-60000000D03*
D12*
%TO.N,+5V*%
X138540000Y-60000000D03*
%TO.N,GND*%
X141080000Y-60000000D03*
%TO.N,VIN_RAW*%
X143620000Y-60000000D03*
%TD*%
D10*
%TO.N,A3*%
%TO.C,C14*%
X61000000Y-151000000D03*
%TO.N,GND*%
X66000000Y-151000000D03*
%TD*%
%TO.N,A13*%
%TO.C,C9*%
X157000000Y-103000000D03*
%TO.N,GND*%
X162000000Y-103000000D03*
%TD*%
%TO.N,POT4_W*%
%TO.C,R13*%
X157000000Y-74000000D03*
%TO.N,A12*%
X167160000Y-74000000D03*
%TD*%
%TO.N,POT11_W*%
%TO.C,R20*%
X125000000Y-122000000D03*
%TO.N,A10*%
X135160000Y-122000000D03*
%TD*%
D13*
%TO.N,+5V*%
%TO.C,RV3*%
X114000000Y-80000000D03*
D14*
%TO.N,POT3_W*%
X116500000Y-80000000D03*
%TO.N,GND*%
X119000000Y-80000000D03*
D15*
%TO.N,N/C*%
X112100000Y-73000000D03*
X120900000Y-73000000D03*
%TD*%
D10*
%TO.N,A7*%
%TO.C,C15*%
X93000000Y-151000000D03*
%TO.N,GND*%
X98000000Y-151000000D03*
%TD*%
%TO.N,A9*%
%TO.C,C8*%
X122000000Y-103000000D03*
%TO.N,GND*%
X127000000Y-103000000D03*
%TD*%
%TO.N,POT13_W*%
%TO.C,R22*%
X61000000Y-146000000D03*
%TO.N,A3*%
X71160000Y-146000000D03*
%TD*%
D13*
%TO.N,GND*%
%TO.C,D4*%
X178000000Y-108000000D03*
D14*
%TO.N,LED2_A*%
X180540000Y-108000000D03*
%TD*%
D13*
%TO.N,+5V*%
%TO.C,RV13*%
X50000000Y-152000000D03*
D14*
%TO.N,POT13_W*%
X52500000Y-152000000D03*
%TO.N,GND*%
X55000000Y-152000000D03*
D15*
%TO.N,N/C*%
X48100000Y-145000000D03*
X56900000Y-145000000D03*
%TD*%
D10*
%TO.N,POT15_W*%
%TO.C,R24*%
X125000000Y-146000000D03*
%TO.N,A11*%
X135160000Y-146000000D03*
%TD*%
D13*
%TO.N,+5V*%
%TO.C,RV9*%
X50000000Y-128000000D03*
D14*
%TO.N,POT9_W*%
X52500000Y-128000000D03*
%TO.N,GND*%
X55000000Y-128000000D03*
D15*
%TO.N,N/C*%
X48100000Y-121000000D03*
X56900000Y-121000000D03*
%TD*%
D10*
%TO.N,A14*%
%TO.C,C13*%
X157000000Y-127000000D03*
%TO.N,GND*%
X162000000Y-127000000D03*
%TD*%
%TO.N,A2*%
%TO.C,C10*%
X61000000Y-127000000D03*
%TO.N,GND*%
X66000000Y-127000000D03*
%TD*%
D19*
%TO.N,D6*%
%TO.C,SW4*%
X168000000Y-132000000D03*
X174500000Y-132000000D03*
%TO.N,GND*%
X168000000Y-136500000D03*
X174500000Y-136500000D03*
%TD*%
D11*
%TO.N,D21_SCL*%
%TO.C,JMD1*%
X53796000Y-86000000D03*
D12*
%TO.N,D20_SDA*%
X51256000Y-86000000D03*
%TO.N,AREF*%
X48716000Y-86000000D03*
%TO.N,GND*%
X46176000Y-86000000D03*
%TO.N,D13*%
X43636000Y-86000000D03*
%TO.N,D12*%
X41096000Y-86000000D03*
%TO.N,D11*%
X38556000Y-86000000D03*
%TO.N,D10*%
X36016000Y-86000000D03*
%TO.N,D9*%
X33476000Y-86000000D03*
%TO.N,D8*%
X30936000Y-86000000D03*
%TD*%
D10*
%TO.N,OPTO_VB*%
%TO.C,R4*%
X68000000Y-59000000D03*
%TO.N,GND*%
X78160000Y-59000000D03*
%TD*%
D16*
%TO.N,+5V*%
%TO.C,C19*%
X162000000Y-64000000D03*
D10*
%TO.N,GND*%
X164500000Y-64000000D03*
%TD*%
D19*
%TO.N,D24*%
%TO.C,SW7*%
X26000000Y-100000000D03*
X32500000Y-100000000D03*
%TO.N,GND*%
X26000000Y-104500000D03*
X32500000Y-104500000D03*
%TD*%
D10*
%TO.N,MUX_CH1*%
%TO.C,C18*%
X136000000Y-172000000D03*
%TO.N,GND*%
X141000000Y-172000000D03*
%TD*%
D13*
%TO.N,+5V*%
%TO.C,RV16*%
X146000000Y-152000000D03*
D14*
%TO.N,POT16_W*%
X148500000Y-152000000D03*
%TO.N,GND*%
X151000000Y-152000000D03*
D15*
%TO.N,N/C*%
X144100000Y-145000000D03*
X152900000Y-145000000D03*
%TD*%
D10*
%TO.N,POT6_W*%
%TO.C,R15*%
X93000000Y-98000000D03*
%TO.N,A4*%
X103160000Y-98000000D03*
%TD*%
%TO.N,D9*%
%TO.C,R9*%
X186000000Y-156000000D03*
%TO.N,LED4_A*%
X186000000Y-145840000D03*
%TD*%
D19*
%TO.N,D8*%
%TO.C,SW3*%
X168000000Y-108000000D03*
X174500000Y-108000000D03*
%TO.N,GND*%
X168000000Y-112500000D03*
X174500000Y-112500000D03*
%TD*%
D10*
%TO.N,A10*%
%TO.C,C12*%
X122000000Y-127000000D03*
%TO.N,GND*%
X127000000Y-127000000D03*
%TD*%
%TO.N,POT5_W*%
%TO.C,R14*%
X61000000Y-98000000D03*
%TO.N,A1*%
X71160000Y-98000000D03*
%TD*%
%TO.N,JACK_W*%
%TO.C,R27*%
X112000000Y-172000000D03*
%TO.N,MUX_CH1*%
X122160000Y-172000000D03*
%TD*%
%TO.N,D0_RX*%
%TO.C,R5*%
X68000000Y-65000000D03*
%TO.N,+5V*%
X78160000Y-65000000D03*
%TD*%
%TO.N,POT7_W*%
%TO.C,R16*%
X125000000Y-98000000D03*
%TO.N,A9*%
X135160000Y-98000000D03*
%TD*%
%TO.N,POT10_W*%
%TO.C,R19*%
X93000000Y-122000000D03*
%TO.N,A6*%
X103160000Y-122000000D03*
%TD*%
D25*
%TO.N,GND*%
%TO.C,J10*%
X111430000Y-29300000D03*
%TO.N,+5V*%
X100000000Y-35650000D03*
%TO.N,N/C*%
X111430000Y-35650000D03*
%TO.N,GND*%
X100000000Y-29300000D03*
%TO.N,JACK_W*%
X100000000Y-42000000D03*
%TO.N,N/C*%
X111430000Y-42000000D03*
%TD*%
D10*
%TO.N,MUX_CH0*%
%TO.C,C17*%
X157000000Y-151000000D03*
%TO.N,GND*%
X162000000Y-151000000D03*
%TD*%
%TO.N,POT12_W*%
%TO.C,R21*%
X157000000Y-122000000D03*
%TO.N,A14*%
X167160000Y-122000000D03*
%TD*%
%TO.N,A12*%
%TO.C,C5*%
X157000000Y-79000000D03*
%TO.N,GND*%
X162000000Y-79000000D03*
%TD*%
D26*
%TO.N,A13*%
X147250000Y-135465700D03*
%TO.N,+5V*%
X114406200Y-86133800D03*
%TO.N,D13*%
X45136500Y-154987500D03*
%TO.N,D25*%
X48956700Y-92350000D03*
%TO.N,D5*%
X75640000Y-116390500D03*
%TO.N,D26*%
X42792800Y-93578600D03*
%TO.N,D7*%
X89610100Y-84873900D03*
%TO.N,D21_SCL*%
X87407200Y-81573500D03*
%TO.N,VIN_RAW*%
X115298300Y-106530400D03*
%TO.N,A1*%
X72468800Y-131105300D03*
%TO.N,D23*%
X135966400Y-76500000D03*
%TO.N,D27*%
X45495500Y-96662000D03*
X124823600Y-96414000D03*
%TO.N,D10*%
X41371500Y-95010200D03*
%TO.N,A0*%
X76671900Y-130306100D03*
%TO.N,D22*%
X136293000Y-74810900D03*
%TO.N,D1_TX*%
X65480000Y-83289400D03*
%TO.N,A12*%
X104590000Y-83698400D03*
%TO.N,D6*%
X83082900Y-95465200D03*
%TO.N,D24*%
X37158000Y-91710000D03*
%TD*%
%TO.N,A13*%
D27*
X157000000Y-103000000D02*
X147250000Y-112750000D01*
X147250000Y-112750000D02*
X147250000Y-135465700D01*
%TO.N,MIDI_OUT_4*%
X77000000Y-40500000D02*
X92000000Y-55500000D01*
X92000000Y-55500000D02*
X92000000Y-60000000D01*
%TO.N,+5V*%
X82000000Y-104000000D02*
X82000000Y-102798300D01*
X50000000Y-126798300D02*
X50406200Y-126392100D01*
X50000000Y-104000000D02*
X50000000Y-105201700D01*
X114406200Y-150392100D02*
X114406200Y-129607900D01*
X146000000Y-128000000D02*
X146000000Y-129201700D01*
X51201700Y-77596600D02*
X50000000Y-78798300D01*
X114406200Y-102392100D02*
X114000000Y-102798300D01*
X50000000Y-95091100D02*
X50000000Y-80000000D01*
X52780000Y-148018300D02*
X50000000Y-150798300D01*
X77765700Y-65394300D02*
X78160000Y-65000000D01*
X168540000Y-57460000D02*
X162000000Y-64000000D01*
X146000000Y-126798300D02*
X146406200Y-126392100D01*
X114000000Y-80000000D02*
X114000000Y-81201700D01*
X114000000Y-150798300D02*
X114406200Y-150392100D01*
X82000000Y-128000000D02*
X82000000Y-126798300D01*
X82000000Y-80000000D02*
X82000000Y-78798300D01*
X114000000Y-81201700D02*
X114406200Y-81607900D01*
X162000000Y-64000000D02*
X150000000Y-52000000D01*
X51201700Y-58418300D02*
X51201700Y-77596600D01*
X146000000Y-104000000D02*
X146000000Y-105201700D01*
X82000000Y-104000000D02*
X82000000Y-105201700D01*
X146000000Y-150798300D02*
X146406200Y-150392100D01*
X138540000Y-60000000D02*
X138540000Y-71338300D01*
X146000000Y-80000000D02*
X146000000Y-78798300D01*
X52780000Y-134260000D02*
X50000000Y-131480000D01*
X114000000Y-152000000D02*
X114000000Y-150798300D01*
X50000000Y-102798300D02*
X50442000Y-102356300D01*
X50000000Y-164760000D02*
X50000000Y-152000000D01*
X146459100Y-81660800D02*
X146000000Y-81201700D01*
X77765700Y-74564000D02*
X77765700Y-65394300D01*
X146406200Y-105607900D02*
X146000000Y-105201700D01*
X82000000Y-105201700D02*
X82437900Y-105639600D01*
X114000000Y-128000000D02*
X114000000Y-129201700D01*
X146406200Y-126392100D02*
X146406200Y-105607900D01*
X146000000Y-152000000D02*
X146000000Y-150798300D01*
X50406200Y-105607900D02*
X50000000Y-105201700D01*
X50000000Y-131480000D02*
X50000000Y-128000000D01*
X146406200Y-150392100D02*
X146406200Y-129607900D01*
X82459400Y-81661100D02*
X82000000Y-81201700D01*
X146000000Y-80000000D02*
X146000000Y-81201700D01*
X78160000Y-63840000D02*
X78160000Y-65000000D01*
X114406200Y-129607900D02*
X114000000Y-129201700D01*
X82000000Y-78798300D02*
X77765700Y-74564000D01*
X146000000Y-128000000D02*
X146000000Y-126798300D01*
X82459400Y-102338900D02*
X82459400Y-81661100D01*
X80000000Y-62000000D02*
X78160000Y-63840000D01*
X146000000Y-104000000D02*
X146000000Y-102798300D01*
X146459100Y-102339200D02*
X146459100Y-81660800D01*
X114000000Y-104000000D02*
X114000000Y-102798300D01*
X114406200Y-81607900D02*
X114406200Y-86133800D01*
X82000000Y-102798300D02*
X82459400Y-102338900D01*
X168540000Y-32000000D02*
X168540000Y-57460000D01*
X100000000Y-35650000D02*
X98198300Y-37451700D01*
X82437900Y-126360400D02*
X82000000Y-126798300D01*
X98198300Y-56038300D02*
X102160000Y-60000000D01*
X82437900Y-105639600D02*
X82437900Y-126360400D01*
X55620000Y-54000000D02*
X51201700Y-58418300D01*
X146000000Y-102798300D02*
X146459100Y-102339200D01*
X50000000Y-128000000D02*
X50000000Y-126798300D01*
X50000000Y-80000000D02*
X50000000Y-78798300D01*
X50000000Y-104000000D02*
X50000000Y-102798300D01*
X146406200Y-129607900D02*
X146000000Y-129201700D01*
X50442000Y-95533100D02*
X50000000Y-95091100D01*
X52780000Y-134260000D02*
X52780000Y-148018300D01*
X82000000Y-80000000D02*
X82000000Y-81201700D01*
X50406200Y-126392100D02*
X50406200Y-105607900D01*
X50000000Y-152000000D02*
X50000000Y-150798300D01*
X50442000Y-102356300D02*
X50442000Y-95533100D01*
X114406200Y-86133800D02*
X114406200Y-102392100D01*
X98198300Y-37451700D02*
X98198300Y-56038300D01*
X138540000Y-71338300D02*
X146000000Y-78798300D01*
%TO.N,POT4_W*%
X155349200Y-75650800D02*
X157000000Y-74000000D01*
X148500000Y-80000000D02*
X152849200Y-75650800D01*
X152849200Y-75650800D02*
X155349200Y-75650800D01*
%TO.N,A8*%
X123663800Y-80336200D02*
X125000000Y-79000000D01*
X123663800Y-114536700D02*
X123663800Y-80336200D01*
X108660000Y-134260000D02*
X108660000Y-129540500D01*
X108660000Y-129540500D02*
X123663800Y-114536700D01*
X125000000Y-79000000D02*
X130000000Y-74000000D01*
X130000000Y-74000000D02*
X135160000Y-74000000D01*
%TO.N,OPTO_ANODE*%
X44160000Y-60380000D02*
X44160000Y-65000000D01*
X48000000Y-56540000D02*
X44160000Y-60380000D01*
%TO.N,OPTO_CATHODE*%
X39000000Y-40500000D02*
X41620000Y-43120000D01*
X41620000Y-43120000D02*
X41620000Y-59000000D01*
%TO.N,LED7_A*%
X43000000Y-149840000D02*
X37540000Y-155300000D01*
X37540000Y-155300000D02*
X37540000Y-160000000D01*
%TO.N,D2*%
X66816300Y-127741800D02*
X68020000Y-126538100D01*
X72860000Y-180000000D02*
X68970000Y-176110000D01*
X68020000Y-126538100D02*
X68020000Y-86000000D01*
X68970000Y-148156700D02*
X66816300Y-146003000D01*
X66816300Y-146003000D02*
X66816300Y-127741800D01*
X68970000Y-176110000D02*
X68970000Y-148156700D01*
%TO.N,D3*%
X74130000Y-152227500D02*
X74130000Y-178730000D01*
X69369400Y-87190600D02*
X69369400Y-147466900D01*
X69369400Y-147466900D02*
X74130000Y-152227500D01*
X74130000Y-178730000D02*
X75400000Y-180000000D01*
X70560000Y-86000000D02*
X69369400Y-87190600D01*
%TO.N,D13*%
X44159600Y-94764100D02*
X41849500Y-97074200D01*
X45136500Y-147475700D02*
X45136500Y-154987500D01*
X44159600Y-86523600D02*
X44159600Y-94764100D01*
X41849500Y-97074200D02*
X41849500Y-144188700D01*
X43636000Y-86000000D02*
X44159600Y-86523600D01*
X41849500Y-144188700D02*
X45136500Y-147475700D01*
%TO.N,D4*%
X75400000Y-152788200D02*
X75400000Y-164760000D01*
X71796100Y-141883500D02*
X70006300Y-143673300D01*
X70006300Y-147394500D02*
X75400000Y-152788200D01*
X73100000Y-86000000D02*
X73100000Y-132270000D01*
X73100000Y-132270000D02*
X71796100Y-133573900D01*
X70006300Y-143673300D02*
X70006300Y-147394500D01*
X71796100Y-133573900D02*
X71796100Y-141883500D01*
%TO.N,D25*%
X48956700Y-92350000D02*
X43000000Y-98306700D01*
X43000000Y-98306700D02*
X43000000Y-100000000D01*
%TO.N,LED6_A*%
X43000000Y-89840000D02*
X41974400Y-90865600D01*
X41974400Y-90865600D02*
X41974400Y-95565600D01*
X41974400Y-95565600D02*
X37540000Y-100000000D01*
%TO.N,MIDI_IN_4*%
X43026100Y-59198600D02*
X37224700Y-65000000D01*
X43026100Y-46473900D02*
X43026100Y-59198600D01*
X37224700Y-65000000D02*
X34000000Y-65000000D01*
X49000000Y-40500000D02*
X43026100Y-46473900D01*
%TO.N,D5*%
X75640000Y-86000000D02*
X75640000Y-116390500D01*
%TO.N,LED3_A*%
X186000000Y-121840000D02*
X180540000Y-127300000D01*
X180540000Y-127300000D02*
X180540000Y-132000000D01*
%TO.N,D26*%
X32500000Y-160000000D02*
X32500000Y-107100000D01*
X39278600Y-98952200D02*
X42792800Y-95438000D01*
X42792800Y-95438000D02*
X42792800Y-93578600D01*
X32500000Y-107100000D02*
X39278600Y-100321400D01*
X39278600Y-100321400D02*
X39278600Y-98952200D01*
%TO.N,D0_RX*%
X62940000Y-70060000D02*
X68000000Y-65000000D01*
X62940000Y-86000000D02*
X62940000Y-70060000D01*
%TO.N,A5*%
X92046700Y-79953300D02*
X93000000Y-79000000D01*
X83201700Y-97278600D02*
X92046700Y-88433600D01*
X98000000Y-74000000D02*
X103160000Y-74000000D01*
X93000000Y-79000000D02*
X98000000Y-74000000D01*
X73568900Y-134260000D02*
X77988200Y-129840700D01*
X73100000Y-134260000D02*
X73568900Y-134260000D01*
X92046700Y-88433600D02*
X92046700Y-79953300D01*
X77988200Y-129840700D02*
X82424900Y-129840700D01*
X82424900Y-129840700D02*
X83201700Y-129063900D01*
X83201700Y-129063900D02*
X83201700Y-97278600D01*
%TO.N,POT5_W*%
X56849200Y-99650800D02*
X59349200Y-99650800D01*
X52500000Y-104000000D02*
X56849200Y-99650800D01*
X59349200Y-99650800D02*
X61000000Y-98000000D01*
%TO.N,LED5_A*%
X186000000Y-49840000D02*
X186000000Y-54540000D01*
X186000000Y-54540000D02*
X180540000Y-60000000D01*
%TO.N,D21_SCL*%
X87407200Y-84392800D02*
X87407200Y-81573500D01*
X85800000Y-86000000D02*
X87407200Y-84392800D01*
%TO.N,VIN_RAW*%
X135952500Y-54380000D02*
X115298300Y-75034200D01*
X138000000Y-38000000D02*
X138000000Y-54380000D01*
X115298300Y-75034200D02*
X115298300Y-106530400D01*
X138000000Y-54380000D02*
X143620000Y-60000000D01*
X138000000Y-54380000D02*
X135952500Y-54380000D01*
%TO.N,MIDI_OUT_5*%
X92000000Y-65500000D02*
X92000000Y-66000000D01*
X67000000Y-40500000D02*
X92000000Y-65500000D01*
%TO.N,A1*%
X71160000Y-98000000D02*
X72468800Y-99308800D01*
X72468800Y-99308800D02*
X72468800Y-131105300D01*
%TO.N,A6*%
X93000000Y-127000000D02*
X98000000Y-122000000D01*
X98000000Y-122000000D02*
X103160000Y-122000000D01*
%TO.N,D23*%
X131520000Y-88540000D02*
X135966400Y-84093600D01*
X135966400Y-84093600D02*
X135966400Y-76500000D01*
%TO.N,D27*%
X45495500Y-96662000D02*
X45495500Y-132695500D01*
X126347600Y-94890000D02*
X124823600Y-96414000D01*
X45495500Y-132695500D02*
X46321800Y-133521800D01*
X45801100Y-157198900D02*
X43000000Y-160000000D01*
X46321800Y-136248000D02*
X45731900Y-136837900D01*
X45731900Y-154482000D02*
X45801100Y-154551200D01*
X46321800Y-133521800D02*
X46321800Y-136248000D01*
X45801100Y-154551200D02*
X45801100Y-157198900D01*
X131520000Y-93620000D02*
X130250000Y-94890000D01*
X45731900Y-136837900D02*
X45731900Y-154482000D01*
X130250000Y-94890000D02*
X126347600Y-94890000D01*
%TO.N,LED1_A*%
X186000000Y-73840000D02*
X180540000Y-79300000D01*
X180540000Y-79300000D02*
X180540000Y-84000000D01*
%TO.N,POT14_W*%
X91349200Y-147650800D02*
X93000000Y-146000000D01*
X84500000Y-152000000D02*
X88849200Y-147650800D01*
X88849200Y-147650800D02*
X91349200Y-147650800D01*
%TO.N,A7*%
X93000000Y-151000000D02*
X98000000Y-146000000D01*
X98000000Y-146000000D02*
X103160000Y-146000000D01*
%TO.N,D10*%
X41371500Y-91355500D02*
X41371500Y-95010200D01*
X36016000Y-86000000D02*
X41371500Y-91355500D01*
%TO.N,A4*%
X78267200Y-131632800D02*
X82595700Y-131632800D01*
X75640000Y-134260000D02*
X78267200Y-131632800D01*
X82595700Y-131632800D02*
X85749900Y-128478600D01*
X85749900Y-110250100D02*
X93000000Y-103000000D01*
X85749900Y-128478600D02*
X85749900Y-110250100D01*
%TO.N,POT15_W*%
X120849200Y-147650800D02*
X123349200Y-147650800D01*
X116500000Y-152000000D02*
X120849200Y-147650800D01*
X123349200Y-147650800D02*
X125000000Y-146000000D01*
%TO.N,A0*%
X74370000Y-128004200D02*
X74370000Y-77210000D01*
X74370000Y-77210000D02*
X71160000Y-74000000D01*
X76671900Y-130306100D02*
X74370000Y-128004200D01*
%TO.N,POT12_W*%
X152849200Y-123650800D02*
X155349200Y-123650800D01*
X148500000Y-128000000D02*
X152849200Y-123650800D01*
X155349200Y-123650800D02*
X157000000Y-122000000D01*
%TO.N,LED4_A*%
X180540000Y-151300000D02*
X180540000Y-156000000D01*
X186000000Y-145840000D02*
X180540000Y-151300000D01*
%TO.N,D22*%
X130250000Y-87270000D02*
X130250000Y-80853900D01*
X130250000Y-80853900D02*
X136293000Y-74810900D01*
X128980000Y-88540000D02*
X130250000Y-87270000D01*
%TO.N,D1_TX*%
X65480000Y-86000000D02*
X65480000Y-83289400D01*
%TO.N,LED2_A*%
X180540000Y-103300000D02*
X180540000Y-108000000D01*
X186000000Y-97840000D02*
X180540000Y-103300000D01*
%TO.N,A3*%
X78180000Y-134260000D02*
X78180000Y-138980000D01*
X78180000Y-138980000D02*
X71160000Y-146000000D01*
%TO.N,A12*%
X104731700Y-83840100D02*
X104590000Y-83698400D01*
X104355000Y-87351700D02*
X104731700Y-86975000D01*
X104731700Y-86975000D02*
X104731700Y-83840100D01*
X98500000Y-134260000D02*
X104355000Y-128405000D01*
X157000000Y-79000000D02*
X162000000Y-74000000D01*
X104355000Y-128405000D02*
X104355000Y-87351700D01*
X162000000Y-74000000D02*
X167160000Y-74000000D01*
%TO.N,A10*%
X135160000Y-122000000D02*
X134330000Y-122830000D01*
X126170000Y-122830000D02*
X122000000Y-127000000D01*
X134330000Y-122830000D02*
X126170000Y-122830000D01*
%TO.N,A9*%
X106120000Y-118880000D02*
X122000000Y-103000000D01*
X106120000Y-134260000D02*
X106120000Y-118880000D01*
%TO.N,A14*%
X157000000Y-127000000D02*
X162000000Y-122000000D01*
X162000000Y-122000000D02*
X167160000Y-122000000D01*
%TO.N,D24*%
X32500000Y-96368000D02*
X32500000Y-100000000D01*
X37158000Y-91710000D02*
X32500000Y-96368000D01*
%TO.N,JACK_W*%
X104933100Y-101430600D02*
X105191700Y-101172000D01*
X105191700Y-47191700D02*
X100000000Y-42000000D01*
X104933100Y-164933100D02*
X104933100Y-101430600D01*
X112000000Y-172000000D02*
X104933100Y-164933100D01*
X105191700Y-101172000D02*
X105191700Y-47191700D01*
%TD*%
M02*
