M48
; DRILL file KiCad 10.0.3 date 2026-06-06T00:10:00
; FORMAT={-:-/ absolute / metric / decimal}
; #@! TF.CreationDate,2026-06-06T00:10:00+02:00
; #@! TF.GenerationSoftware,Kicad,Pcbnew,10.0.3
; #@! TF.FileFunction,MixedPlating,1,4
FMAT,2
METRIC
; #@! TA.AperFunction,Plated,PTH,ViaDrill
T1C0.300
; #@! TA.AperFunction,Plated,PTH,ComponentDrill
T2C0.800
; #@! TA.AperFunction,Plated,PTH,ComponentDrill
T3C0.900
; #@! TA.AperFunction,Plated,PTH,ComponentDrill
T4C1.000
; #@! TA.AperFunction,Plated,PTH,ComponentDrill
T5C1.100
; #@! TA.AperFunction,Plated,PTH,ComponentDrill
T6C1.500
; #@! TA.AperFunction,Plated,PTH,ComponentDrill
T7C1.800
%
G90
G05
T1
X46.102Y-41.566
X46.85Y-117.032
X50.48Y-164.762
X52.071Y-53.5
X83.851Y-56.0
X84.77Y-78.958
X96.279Y-162.0
X111.645Y-107.599
X148.888Y-174.13
T2
X22.0Y-27.0
X22.0Y-35.0
X29.62Y-35.0
X32.16Y-27.0
X38.0Y-27.0
X38.0Y-35.0
X44.0Y-37.84
X44.0Y-48.0
X44.0Y-63.84
X44.0Y-74.0
X44.0Y-89.84
X44.0Y-100.0
X44.0Y-115.84
X44.0Y-126.0
X48.16Y-27.0
X48.16Y-35.0
X50.0Y-51.0
X50.0Y-56.0
X50.0Y-77.0
X50.0Y-82.0
X50.0Y-103.0
X50.0Y-108.0
X50.0Y-129.0
X50.0Y-134.0
X58.0Y-23.0
X58.0Y-25.54
X58.0Y-28.08
X58.0Y-30.62
X65.62Y-23.0
X65.62Y-25.54
X65.62Y-28.08
X65.62Y-30.62
X76.0Y-37.84
X76.0Y-48.0
X76.0Y-63.84
X76.0Y-74.0
X76.0Y-89.84
X76.0Y-100.0
X76.0Y-115.84
X76.0Y-126.0
X78.0Y-27.0
X78.0Y-35.0
X82.0Y-51.0
X82.0Y-56.0
X82.0Y-77.0
X82.0Y-82.0
X82.0Y-103.0
X82.0Y-108.0
X82.0Y-129.0
X82.0Y-134.0
X88.16Y-27.0
X88.16Y-35.0
X92.0Y-31.0
X97.0Y-31.0
X100.0Y-28.0
X100.0Y-162.0
X102.0Y-28.0
X104.0Y-28.0
X108.0Y-37.84
X108.0Y-48.0
X108.0Y-63.84
X108.0Y-74.0
X108.0Y-89.84
X108.0Y-100.0
X108.0Y-115.84
X108.0Y-126.0
X110.16Y-162.0
X114.0Y-51.0
X114.0Y-56.0
X114.0Y-77.0
X114.0Y-82.0
X114.0Y-103.0
X114.0Y-108.0
X114.0Y-129.0
X114.0Y-134.0
X120.0Y-150.0
X120.0Y-152.54
X120.0Y-155.08
X120.0Y-157.62
X120.0Y-160.16
X120.0Y-162.7
X120.0Y-165.24
X120.0Y-167.78
X120.0Y-170.32
X120.0Y-172.86
X120.0Y-175.4
X120.0Y-177.94
X135.24Y-150.0
X135.24Y-152.54
X135.24Y-155.08
X135.24Y-157.62
X135.24Y-160.16
X135.24Y-162.7
X135.24Y-165.24
X135.24Y-167.78
X135.24Y-170.32
X135.24Y-172.86
X135.24Y-175.4
X135.24Y-177.94
X140.0Y-37.84
X140.0Y-48.0
X140.0Y-63.84
X140.0Y-74.0
X140.0Y-89.84
X140.0Y-100.0
X140.0Y-115.84
X140.0Y-126.0
X146.0Y-51.0
X146.0Y-56.0
X146.0Y-77.0
X146.0Y-82.0
X146.0Y-103.0
X146.0Y-108.0
X146.0Y-129.0
X146.0Y-134.0
X150.0Y-41.84
X150.0Y-52.0
X150.0Y-61.84
X150.0Y-72.0
X150.0Y-81.84
X150.0Y-92.0
X150.0Y-101.84
X150.0Y-112.0
X150.0Y-162.0
X155.0Y-162.0
T3
X158.0Y-49.46
X158.0Y-52.0
X158.0Y-69.46
X158.0Y-72.0
X158.0Y-89.46
X158.0Y-92.0
X158.0Y-109.46
X158.0Y-112.0
T4
X20.0Y-198.0
X22.0Y-10.0
X22.0Y-12.54
X22.0Y-15.08
X22.0Y-17.62
X22.0Y-20.16
X22.54Y-198.0
X25.08Y-198.0
X27.62Y-198.0
X28.89Y-150.0
X30.0Y-52.0
X30.0Y-78.0
X30.0Y-104.0
X30.0Y-130.0
X30.16Y-198.0
X31.43Y-150.0
X32.5Y-52.0
X32.5Y-78.0
X32.5Y-104.0
X32.5Y-130.0
X32.7Y-198.0
X33.97Y-150.0
X35.0Y-52.0
X35.0Y-78.0
X35.0Y-104.0
X35.0Y-130.0
X35.24Y-198.0
X36.51Y-150.0
X37.78Y-198.0
X39.05Y-150.0
X40.32Y-198.0
X41.59Y-150.0
X42.86Y-198.0
X44.0Y-10.0
X44.0Y-12.54
X44.0Y-15.08
X44.0Y-17.62
X44.0Y-20.16
X44.13Y-150.0
X46.67Y-150.0
X46.67Y-198.0
X49.21Y-198.0
X51.75Y-150.0
X51.75Y-198.0
X54.29Y-150.0
X56.83Y-150.0
X59.37Y-150.0
X61.91Y-150.0
X61.91Y-198.0
X62.0Y-52.0
X62.0Y-78.0
X62.0Y-104.0
X62.0Y-130.0
X64.45Y-150.0
X64.45Y-198.0
X64.5Y-52.0
X64.5Y-78.0
X64.5Y-104.0
X64.5Y-130.0
X66.99Y-150.0
X67.0Y-52.0
X67.0Y-78.0
X67.0Y-104.0
X67.0Y-130.0
X69.53Y-150.0
X74.61Y-150.0
X77.15Y-150.0
X78.0Y-10.0
X78.0Y-12.54
X78.0Y-15.08
X79.69Y-150.0
X82.23Y-150.0
X84.77Y-150.0
X84.77Y-198.0
X87.31Y-150.0
X87.31Y-198.0
X89.85Y-150.0
X92.39Y-150.0
X94.0Y-52.0
X94.0Y-78.0
X94.0Y-104.0
X94.0Y-130.0
X96.5Y-52.0
X96.5Y-78.0
X96.5Y-104.0
X96.5Y-130.0
X99.0Y-52.0
X99.0Y-78.0
X99.0Y-104.0
X99.0Y-130.0
X118.0Y-10.0
X118.0Y-12.54
X118.0Y-15.08
X118.0Y-17.62
X126.0Y-52.0
X126.0Y-78.0
X126.0Y-104.0
X126.0Y-130.0
X128.5Y-52.0
X128.5Y-78.0
X128.5Y-104.0
X128.5Y-130.0
X131.0Y-52.0
X131.0Y-78.0
X131.0Y-104.0
X131.0Y-130.0
X132.0Y-22.0
X132.0Y-24.54
X132.0Y-27.08
X132.0Y-29.62
T5
X10.0Y-52.0
X10.0Y-56.5
X10.0Y-72.0
X10.0Y-76.5
X10.0Y-92.0
X10.0Y-96.5
X10.0Y-112.0
X10.0Y-116.5
X16.5Y-52.0
X16.5Y-56.5
X16.5Y-72.0
X16.5Y-76.5
X16.5Y-92.0
X16.5Y-96.5
X16.5Y-112.0
X16.5Y-116.5
X150.0Y-22.0
X160.16Y-22.0
T6
X97.9Y-28.0
X106.1Y-28.0
T4
X144.0Y-11.0G85X144.0Y-13.0
G05
X146.0Y-16.7G85X148.0Y-16.7
G05
X150.0Y-11.0G85X150.0Y-13.0
G05
T7
X27.95Y-45.0G85X28.25Y-45.0
G05
X27.95Y-71.0G85X28.25Y-71.0
G05
X27.95Y-97.0G85X28.25Y-97.0
G05
X27.95Y-123.0G85X28.25Y-123.0
G05
X36.75Y-45.0G85X37.05Y-45.0
G05
X36.75Y-71.0G85X37.05Y-71.0
G05
X36.75Y-97.0G85X37.05Y-97.0
G05
X36.75Y-123.0G85X37.05Y-123.0
G05
X59.95Y-45.0G85X60.25Y-45.0
G05
X59.95Y-71.0G85X60.25Y-71.0
G05
X59.95Y-97.0G85X60.25Y-97.0
G05
X59.95Y-123.0G85X60.25Y-123.0
G05
X68.75Y-45.0G85X69.05Y-45.0
G05
X68.75Y-71.0G85X69.05Y-71.0
G05
X68.75Y-97.0G85X69.05Y-97.0
G05
X68.75Y-123.0G85X69.05Y-123.0
G05
X91.95Y-45.0G85X92.25Y-45.0
G05
X91.95Y-71.0G85X92.25Y-71.0
G05
X91.95Y-97.0G85X92.25Y-97.0
G05
X91.95Y-123.0G85X92.25Y-123.0
G05
X100.75Y-45.0G85X101.05Y-45.0
G05
X100.75Y-71.0G85X101.05Y-71.0
G05
X100.75Y-97.0G85X101.05Y-97.0
G05
X100.75Y-123.0G85X101.05Y-123.0
G05
X123.95Y-45.0G85X124.25Y-45.0
G05
X123.95Y-71.0G85X124.25Y-71.0
G05
X123.95Y-97.0G85X124.25Y-97.0
G05
X123.95Y-123.0G85X124.25Y-123.0
G05
X132.75Y-45.0G85X133.05Y-45.0
G05
X132.75Y-71.0G85X133.05Y-71.0
G05
X132.75Y-97.0G85X133.05Y-97.0
G05
X132.75Y-123.0G85X133.05Y-123.0
G05
M30
