%TF.GenerationSoftware,KiCad,Pcbnew,10.0.3*%
%TF.CreationDate,2026-06-08T13:20:37+02:00*%
%TF.ProjectId,SysEx_Patcher,53797345-785f-4506-9174-636865722e6b,rev?*%
%TF.SameCoordinates,Original*%
%TF.FileFunction,Legend,Top*%
%TF.FilePolarity,Positive*%
%FSLAX46Y46*%
G04 Gerber Fmt 4.6, Leading zero omitted, Abs format (unit mm)*
G04 Created by KiCad (PCBNEW 10.0.3) date 2026-06-08 13:20:37*
%MOMM*%
%LPD*%
G01*
G04 APERTURE LIST*
%ADD10C,0.150000*%
%ADD11C,0.120000*%
%ADD12C,0.360000*%
G04 APERTURE END LIST*
D10*
X161857142Y-69008557D02*
X161342856Y-69008557D01*
X161599999Y-69008557D02*
X161599999Y-68108557D01*
X161599999Y-68108557D02*
X161514285Y-68237128D01*
X161514285Y-68237128D02*
X161428570Y-68322842D01*
X161428570Y-68322842D02*
X161342856Y-68365700D01*
X162414285Y-68108557D02*
X162499999Y-68108557D01*
X162499999Y-68108557D02*
X162585713Y-68151414D01*
X162585713Y-68151414D02*
X162628571Y-68194271D01*
X162628571Y-68194271D02*
X162671428Y-68279985D01*
X162671428Y-68279985D02*
X162714285Y-68451414D01*
X162714285Y-68451414D02*
X162714285Y-68665700D01*
X162714285Y-68665700D02*
X162671428Y-68837128D01*
X162671428Y-68837128D02*
X162628571Y-68922842D01*
X162628571Y-68922842D02*
X162585713Y-68965700D01*
X162585713Y-68965700D02*
X162499999Y-69008557D01*
X162499999Y-69008557D02*
X162414285Y-69008557D01*
X162414285Y-69008557D02*
X162328571Y-68965700D01*
X162328571Y-68965700D02*
X162285713Y-68922842D01*
X162285713Y-68922842D02*
X162242856Y-68837128D01*
X162242856Y-68837128D02*
X162199999Y-68665700D01*
X162199999Y-68665700D02*
X162199999Y-68451414D01*
X162199999Y-68451414D02*
X162242856Y-68279985D01*
X162242856Y-68279985D02*
X162285713Y-68194271D01*
X162285713Y-68194271D02*
X162328571Y-68151414D01*
X162328571Y-68151414D02*
X162414285Y-68108557D01*
X163271428Y-68108557D02*
X163357142Y-68108557D01*
X163357142Y-68108557D02*
X163442856Y-68151414D01*
X163442856Y-68151414D02*
X163485714Y-68194271D01*
X163485714Y-68194271D02*
X163528571Y-68279985D01*
X163528571Y-68279985D02*
X163571428Y-68451414D01*
X163571428Y-68451414D02*
X163571428Y-68665700D01*
X163571428Y-68665700D02*
X163528571Y-68837128D01*
X163528571Y-68837128D02*
X163485714Y-68922842D01*
X163485714Y-68922842D02*
X163442856Y-68965700D01*
X163442856Y-68965700D02*
X163357142Y-69008557D01*
X163357142Y-69008557D02*
X163271428Y-69008557D01*
X163271428Y-69008557D02*
X163185714Y-68965700D01*
X163185714Y-68965700D02*
X163142856Y-68922842D01*
X163142856Y-68922842D02*
X163099999Y-68837128D01*
X163099999Y-68837128D02*
X163057142Y-68665700D01*
X163057142Y-68665700D02*
X163057142Y-68451414D01*
X163057142Y-68451414D02*
X163099999Y-68279985D01*
X163099999Y-68279985D02*
X163142856Y-68194271D01*
X163142856Y-68194271D02*
X163185714Y-68151414D01*
X163185714Y-68151414D02*
X163271428Y-68108557D01*
X164342857Y-68408557D02*
X164342857Y-69008557D01*
X163957142Y-68408557D02*
X163957142Y-68879985D01*
X163957142Y-68879985D02*
X163999999Y-68965700D01*
X163999999Y-68965700D02*
X164085714Y-69008557D01*
X164085714Y-69008557D02*
X164214285Y-69008557D01*
X164214285Y-69008557D02*
X164299999Y-68965700D01*
X164299999Y-68965700D02*
X164342857Y-68922842D01*
X165071428Y-68537128D02*
X164771428Y-68537128D01*
X164771428Y-69008557D02*
X164771428Y-68108557D01*
X164771428Y-68108557D02*
X165200000Y-68108557D01*
X135551414Y-56485713D02*
X135508557Y-56571428D01*
X135508557Y-56571428D02*
X135508557Y-56699999D01*
X135508557Y-56699999D02*
X135551414Y-56828570D01*
X135551414Y-56828570D02*
X135637128Y-56914285D01*
X135637128Y-56914285D02*
X135722842Y-56957142D01*
X135722842Y-56957142D02*
X135894271Y-56999999D01*
X135894271Y-56999999D02*
X136022842Y-56999999D01*
X136022842Y-56999999D02*
X136194271Y-56957142D01*
X136194271Y-56957142D02*
X136279985Y-56914285D01*
X136279985Y-56914285D02*
X136365700Y-56828570D01*
X136365700Y-56828570D02*
X136408557Y-56699999D01*
X136408557Y-56699999D02*
X136408557Y-56614285D01*
X136408557Y-56614285D02*
X136365700Y-56485713D01*
X136365700Y-56485713D02*
X136322842Y-56442856D01*
X136322842Y-56442856D02*
X136022842Y-56442856D01*
X136022842Y-56442856D02*
X136022842Y-56614285D01*
X136408557Y-56057142D02*
X135508557Y-56057142D01*
X135508557Y-56057142D02*
X136408557Y-55542856D01*
X136408557Y-55542856D02*
X135508557Y-55542856D01*
X136408557Y-55114285D02*
X135508557Y-55114285D01*
X135508557Y-55114285D02*
X135508557Y-54899999D01*
X135508557Y-54899999D02*
X135551414Y-54771428D01*
X135551414Y-54771428D02*
X135637128Y-54685713D01*
X135637128Y-54685713D02*
X135722842Y-54642856D01*
X135722842Y-54642856D02*
X135894271Y-54599999D01*
X135894271Y-54599999D02*
X136022842Y-54599999D01*
X136022842Y-54599999D02*
X136194271Y-54642856D01*
X136194271Y-54642856D02*
X136279985Y-54685713D01*
X136279985Y-54685713D02*
X136365700Y-54771428D01*
X136365700Y-54771428D02*
X136408557Y-54899999D01*
X136408557Y-54899999D02*
X136408557Y-55114285D01*
X138605700Y-56957143D02*
X138605700Y-56271429D01*
X138948557Y-56614286D02*
X138262842Y-56614286D01*
X138048557Y-55414285D02*
X138048557Y-55842857D01*
X138048557Y-55842857D02*
X138477128Y-55885714D01*
X138477128Y-55885714D02*
X138434271Y-55842857D01*
X138434271Y-55842857D02*
X138391414Y-55757143D01*
X138391414Y-55757143D02*
X138391414Y-55542857D01*
X138391414Y-55542857D02*
X138434271Y-55457143D01*
X138434271Y-55457143D02*
X138477128Y-55414285D01*
X138477128Y-55414285D02*
X138562842Y-55371428D01*
X138562842Y-55371428D02*
X138777128Y-55371428D01*
X138777128Y-55371428D02*
X138862842Y-55414285D01*
X138862842Y-55414285D02*
X138905700Y-55457143D01*
X138905700Y-55457143D02*
X138948557Y-55542857D01*
X138948557Y-55542857D02*
X138948557Y-55757143D01*
X138948557Y-55757143D02*
X138905700Y-55842857D01*
X138905700Y-55842857D02*
X138862842Y-55885714D01*
X138048557Y-55114285D02*
X138948557Y-54814285D01*
X138948557Y-54814285D02*
X138048557Y-54514285D01*
X140631414Y-56485713D02*
X140588557Y-56571428D01*
X140588557Y-56571428D02*
X140588557Y-56699999D01*
X140588557Y-56699999D02*
X140631414Y-56828570D01*
X140631414Y-56828570D02*
X140717128Y-56914285D01*
X140717128Y-56914285D02*
X140802842Y-56957142D01*
X140802842Y-56957142D02*
X140974271Y-56999999D01*
X140974271Y-56999999D02*
X141102842Y-56999999D01*
X141102842Y-56999999D02*
X141274271Y-56957142D01*
X141274271Y-56957142D02*
X141359985Y-56914285D01*
X141359985Y-56914285D02*
X141445700Y-56828570D01*
X141445700Y-56828570D02*
X141488557Y-56699999D01*
X141488557Y-56699999D02*
X141488557Y-56614285D01*
X141488557Y-56614285D02*
X141445700Y-56485713D01*
X141445700Y-56485713D02*
X141402842Y-56442856D01*
X141402842Y-56442856D02*
X141102842Y-56442856D01*
X141102842Y-56442856D02*
X141102842Y-56614285D01*
X141488557Y-56057142D02*
X140588557Y-56057142D01*
X140588557Y-56057142D02*
X141488557Y-55542856D01*
X141488557Y-55542856D02*
X140588557Y-55542856D01*
X141488557Y-55114285D02*
X140588557Y-55114285D01*
X140588557Y-55114285D02*
X140588557Y-54899999D01*
X140588557Y-54899999D02*
X140631414Y-54771428D01*
X140631414Y-54771428D02*
X140717128Y-54685713D01*
X140717128Y-54685713D02*
X140802842Y-54642856D01*
X140802842Y-54642856D02*
X140974271Y-54599999D01*
X140974271Y-54599999D02*
X141102842Y-54599999D01*
X141102842Y-54599999D02*
X141274271Y-54642856D01*
X141274271Y-54642856D02*
X141359985Y-54685713D01*
X141359985Y-54685713D02*
X141445700Y-54771428D01*
X141445700Y-54771428D02*
X141488557Y-54899999D01*
X141488557Y-54899999D02*
X141488557Y-55114285D01*
X143128557Y-56785713D02*
X144028557Y-56485713D01*
X144028557Y-56485713D02*
X143128557Y-56185713D01*
X144028557Y-55885713D02*
X143128557Y-55885713D01*
X144028557Y-55457142D02*
X143128557Y-55457142D01*
X143128557Y-55457142D02*
X144028557Y-54942856D01*
X144028557Y-54942856D02*
X143128557Y-54942856D01*
X165551414Y-28485713D02*
X165508557Y-28571428D01*
X165508557Y-28571428D02*
X165508557Y-28699999D01*
X165508557Y-28699999D02*
X165551414Y-28828570D01*
X165551414Y-28828570D02*
X165637128Y-28914285D01*
X165637128Y-28914285D02*
X165722842Y-28957142D01*
X165722842Y-28957142D02*
X165894271Y-28999999D01*
X165894271Y-28999999D02*
X166022842Y-28999999D01*
X166022842Y-28999999D02*
X166194271Y-28957142D01*
X166194271Y-28957142D02*
X166279985Y-28914285D01*
X166279985Y-28914285D02*
X166365700Y-28828570D01*
X166365700Y-28828570D02*
X166408557Y-28699999D01*
X166408557Y-28699999D02*
X166408557Y-28614285D01*
X166408557Y-28614285D02*
X166365700Y-28485713D01*
X166365700Y-28485713D02*
X166322842Y-28442856D01*
X166322842Y-28442856D02*
X166022842Y-28442856D01*
X166022842Y-28442856D02*
X166022842Y-28614285D01*
X166408557Y-28057142D02*
X165508557Y-28057142D01*
X165508557Y-28057142D02*
X166408557Y-27542856D01*
X166408557Y-27542856D02*
X165508557Y-27542856D01*
X166408557Y-27114285D02*
X165508557Y-27114285D01*
X165508557Y-27114285D02*
X165508557Y-26899999D01*
X165508557Y-26899999D02*
X165551414Y-26771428D01*
X165551414Y-26771428D02*
X165637128Y-26685713D01*
X165637128Y-26685713D02*
X165722842Y-26642856D01*
X165722842Y-26642856D02*
X165894271Y-26599999D01*
X165894271Y-26599999D02*
X166022842Y-26599999D01*
X166022842Y-26599999D02*
X166194271Y-26642856D01*
X166194271Y-26642856D02*
X166279985Y-26685713D01*
X166279985Y-26685713D02*
X166365700Y-26771428D01*
X166365700Y-26771428D02*
X166408557Y-26899999D01*
X166408557Y-26899999D02*
X166408557Y-27114285D01*
X168048557Y-28999999D02*
X168948557Y-28699999D01*
X168948557Y-28699999D02*
X168048557Y-28399999D01*
X168862842Y-27585713D02*
X168905700Y-27628570D01*
X168905700Y-27628570D02*
X168948557Y-27757142D01*
X168948557Y-27757142D02*
X168948557Y-27842856D01*
X168948557Y-27842856D02*
X168905700Y-27971427D01*
X168905700Y-27971427D02*
X168819985Y-28057142D01*
X168819985Y-28057142D02*
X168734271Y-28099999D01*
X168734271Y-28099999D02*
X168562842Y-28142856D01*
X168562842Y-28142856D02*
X168434271Y-28142856D01*
X168434271Y-28142856D02*
X168262842Y-28099999D01*
X168262842Y-28099999D02*
X168177128Y-28057142D01*
X168177128Y-28057142D02*
X168091414Y-27971427D01*
X168091414Y-27971427D02*
X168048557Y-27842856D01*
X168048557Y-27842856D02*
X168048557Y-27757142D01*
X168048557Y-27757142D02*
X168091414Y-27628570D01*
X168091414Y-27628570D02*
X168134271Y-27585713D01*
X168862842Y-26685713D02*
X168905700Y-26728570D01*
X168905700Y-26728570D02*
X168948557Y-26857142D01*
X168948557Y-26857142D02*
X168948557Y-26942856D01*
X168948557Y-26942856D02*
X168905700Y-27071427D01*
X168905700Y-27071427D02*
X168819985Y-27157142D01*
X168819985Y-27157142D02*
X168734271Y-27199999D01*
X168734271Y-27199999D02*
X168562842Y-27242856D01*
X168562842Y-27242856D02*
X168434271Y-27242856D01*
X168434271Y-27242856D02*
X168262842Y-27199999D01*
X168262842Y-27199999D02*
X168177128Y-27157142D01*
X168177128Y-27157142D02*
X168091414Y-27071427D01*
X168091414Y-27071427D02*
X168048557Y-26942856D01*
X168048557Y-26942856D02*
X168048557Y-26857142D01*
X168048557Y-26857142D02*
X168091414Y-26728570D01*
X168091414Y-26728570D02*
X168134271Y-26685713D01*
X171445700Y-28871428D02*
X171488557Y-28742857D01*
X171488557Y-28742857D02*
X171488557Y-28528571D01*
X171488557Y-28528571D02*
X171445700Y-28442857D01*
X171445700Y-28442857D02*
X171402842Y-28399999D01*
X171402842Y-28399999D02*
X171317128Y-28357142D01*
X171317128Y-28357142D02*
X171231414Y-28357142D01*
X171231414Y-28357142D02*
X171145700Y-28399999D01*
X171145700Y-28399999D02*
X171102842Y-28442857D01*
X171102842Y-28442857D02*
X171059985Y-28528571D01*
X171059985Y-28528571D02*
X171017128Y-28699999D01*
X171017128Y-28699999D02*
X170974271Y-28785714D01*
X170974271Y-28785714D02*
X170931414Y-28828571D01*
X170931414Y-28828571D02*
X170845700Y-28871428D01*
X170845700Y-28871428D02*
X170759985Y-28871428D01*
X170759985Y-28871428D02*
X170674271Y-28828571D01*
X170674271Y-28828571D02*
X170631414Y-28785714D01*
X170631414Y-28785714D02*
X170588557Y-28699999D01*
X170588557Y-28699999D02*
X170588557Y-28485714D01*
X170588557Y-28485714D02*
X170631414Y-28357142D01*
X171402842Y-27457142D02*
X171445700Y-27499999D01*
X171445700Y-27499999D02*
X171488557Y-27628571D01*
X171488557Y-27628571D02*
X171488557Y-27714285D01*
X171488557Y-27714285D02*
X171445700Y-27842856D01*
X171445700Y-27842856D02*
X171359985Y-27928571D01*
X171359985Y-27928571D02*
X171274271Y-27971428D01*
X171274271Y-27971428D02*
X171102842Y-28014285D01*
X171102842Y-28014285D02*
X170974271Y-28014285D01*
X170974271Y-28014285D02*
X170802842Y-27971428D01*
X170802842Y-27971428D02*
X170717128Y-27928571D01*
X170717128Y-27928571D02*
X170631414Y-27842856D01*
X170631414Y-27842856D02*
X170588557Y-27714285D01*
X170588557Y-27714285D02*
X170588557Y-27628571D01*
X170588557Y-27628571D02*
X170631414Y-27499999D01*
X170631414Y-27499999D02*
X170674271Y-27457142D01*
X171488557Y-26642856D02*
X171488557Y-27071428D01*
X171488557Y-27071428D02*
X170588557Y-27071428D01*
X173985700Y-28892857D02*
X174028557Y-28764286D01*
X174028557Y-28764286D02*
X174028557Y-28550000D01*
X174028557Y-28550000D02*
X173985700Y-28464286D01*
X173985700Y-28464286D02*
X173942842Y-28421428D01*
X173942842Y-28421428D02*
X173857128Y-28378571D01*
X173857128Y-28378571D02*
X173771414Y-28378571D01*
X173771414Y-28378571D02*
X173685700Y-28421428D01*
X173685700Y-28421428D02*
X173642842Y-28464286D01*
X173642842Y-28464286D02*
X173599985Y-28550000D01*
X173599985Y-28550000D02*
X173557128Y-28721428D01*
X173557128Y-28721428D02*
X173514271Y-28807143D01*
X173514271Y-28807143D02*
X173471414Y-28850000D01*
X173471414Y-28850000D02*
X173385700Y-28892857D01*
X173385700Y-28892857D02*
X173299985Y-28892857D01*
X173299985Y-28892857D02*
X173214271Y-28850000D01*
X173214271Y-28850000D02*
X173171414Y-28807143D01*
X173171414Y-28807143D02*
X173128557Y-28721428D01*
X173128557Y-28721428D02*
X173128557Y-28507143D01*
X173128557Y-28507143D02*
X173171414Y-28378571D01*
X174028557Y-27992857D02*
X173128557Y-27992857D01*
X173128557Y-27992857D02*
X173128557Y-27778571D01*
X173128557Y-27778571D02*
X173171414Y-27650000D01*
X173171414Y-27650000D02*
X173257128Y-27564285D01*
X173257128Y-27564285D02*
X173342842Y-27521428D01*
X173342842Y-27521428D02*
X173514271Y-27478571D01*
X173514271Y-27478571D02*
X173642842Y-27478571D01*
X173642842Y-27478571D02*
X173814271Y-27521428D01*
X173814271Y-27521428D02*
X173899985Y-27564285D01*
X173899985Y-27564285D02*
X173985700Y-27650000D01*
X173985700Y-27650000D02*
X174028557Y-27778571D01*
X174028557Y-27778571D02*
X174028557Y-27992857D01*
X173771414Y-27135714D02*
X173771414Y-26707143D01*
X174028557Y-27221428D02*
X173128557Y-26921428D01*
X173128557Y-26921428D02*
X174028557Y-26621428D01*
X40811904Y-47093604D02*
X40811904Y-45793604D01*
X40811904Y-45793604D02*
X41245238Y-46722176D01*
X41245238Y-46722176D02*
X41678571Y-45793604D01*
X41678571Y-45793604D02*
X41678571Y-47093604D01*
X42297618Y-47093604D02*
X42297618Y-45793604D01*
X42916666Y-47093604D02*
X42916666Y-45793604D01*
X42916666Y-45793604D02*
X43226190Y-45793604D01*
X43226190Y-45793604D02*
X43411904Y-45855509D01*
X43411904Y-45855509D02*
X43535714Y-45979319D01*
X43535714Y-45979319D02*
X43597619Y-46103128D01*
X43597619Y-46103128D02*
X43659523Y-46350747D01*
X43659523Y-46350747D02*
X43659523Y-46536461D01*
X43659523Y-46536461D02*
X43597619Y-46784080D01*
X43597619Y-46784080D02*
X43535714Y-46907890D01*
X43535714Y-46907890D02*
X43411904Y-47031700D01*
X43411904Y-47031700D02*
X43226190Y-47093604D01*
X43226190Y-47093604D02*
X42916666Y-47093604D01*
X44216666Y-47093604D02*
X44216666Y-45793604D01*
X45826190Y-47093604D02*
X45826190Y-45793604D01*
X46445238Y-47093604D02*
X46445238Y-45793604D01*
X46445238Y-45793604D02*
X47188095Y-47093604D01*
X47188095Y-47093604D02*
X47188095Y-45793604D01*
X67945237Y-47093604D02*
X67945237Y-45793604D01*
X67945237Y-45793604D02*
X68378571Y-46722176D01*
X68378571Y-46722176D02*
X68811904Y-45793604D01*
X68811904Y-45793604D02*
X68811904Y-47093604D01*
X69430951Y-47093604D02*
X69430951Y-45793604D01*
X70049999Y-47093604D02*
X70049999Y-45793604D01*
X70049999Y-45793604D02*
X70359523Y-45793604D01*
X70359523Y-45793604D02*
X70545237Y-45855509D01*
X70545237Y-45855509D02*
X70669047Y-45979319D01*
X70669047Y-45979319D02*
X70730952Y-46103128D01*
X70730952Y-46103128D02*
X70792856Y-46350747D01*
X70792856Y-46350747D02*
X70792856Y-46536461D01*
X70792856Y-46536461D02*
X70730952Y-46784080D01*
X70730952Y-46784080D02*
X70669047Y-46907890D01*
X70669047Y-46907890D02*
X70545237Y-47031700D01*
X70545237Y-47031700D02*
X70359523Y-47093604D01*
X70359523Y-47093604D02*
X70049999Y-47093604D01*
X71349999Y-47093604D02*
X71349999Y-45793604D01*
X73207142Y-45793604D02*
X73454761Y-45793604D01*
X73454761Y-45793604D02*
X73578571Y-45855509D01*
X73578571Y-45855509D02*
X73702380Y-45979319D01*
X73702380Y-45979319D02*
X73764285Y-46226938D01*
X73764285Y-46226938D02*
X73764285Y-46660271D01*
X73764285Y-46660271D02*
X73702380Y-46907890D01*
X73702380Y-46907890D02*
X73578571Y-47031700D01*
X73578571Y-47031700D02*
X73454761Y-47093604D01*
X73454761Y-47093604D02*
X73207142Y-47093604D01*
X73207142Y-47093604D02*
X73083333Y-47031700D01*
X73083333Y-47031700D02*
X72959523Y-46907890D01*
X72959523Y-46907890D02*
X72897619Y-46660271D01*
X72897619Y-46660271D02*
X72897619Y-46226938D01*
X72897619Y-46226938D02*
X72959523Y-45979319D01*
X72959523Y-45979319D02*
X73083333Y-45855509D01*
X73083333Y-45855509D02*
X73207142Y-45793604D01*
X74321428Y-45793604D02*
X74321428Y-46845985D01*
X74321428Y-46845985D02*
X74383333Y-46969795D01*
X74383333Y-46969795D02*
X74445238Y-47031700D01*
X74445238Y-47031700D02*
X74569047Y-47093604D01*
X74569047Y-47093604D02*
X74816666Y-47093604D01*
X74816666Y-47093604D02*
X74940476Y-47031700D01*
X74940476Y-47031700D02*
X75002381Y-46969795D01*
X75002381Y-46969795D02*
X75064285Y-46845985D01*
X75064285Y-46845985D02*
X75064285Y-45793604D01*
X75497619Y-45793604D02*
X76240476Y-45793604D01*
X75869048Y-47093604D02*
X75869048Y-45793604D01*
X159666667Y-61906533D02*
X160733334Y-61906533D01*
X160200000Y-62439866D02*
X160200000Y-61373200D01*
X161437142Y-96084819D02*
X161103809Y-95608628D01*
X160865714Y-96084819D02*
X160865714Y-95084819D01*
X160865714Y-95084819D02*
X161246666Y-95084819D01*
X161246666Y-95084819D02*
X161341904Y-95132438D01*
X161341904Y-95132438D02*
X161389523Y-95180057D01*
X161389523Y-95180057D02*
X161437142Y-95275295D01*
X161437142Y-95275295D02*
X161437142Y-95418152D01*
X161437142Y-95418152D02*
X161389523Y-95513390D01*
X161389523Y-95513390D02*
X161341904Y-95561009D01*
X161341904Y-95561009D02*
X161246666Y-95608628D01*
X161246666Y-95608628D02*
X160865714Y-95608628D01*
X162389523Y-96084819D02*
X161818095Y-96084819D01*
X162103809Y-96084819D02*
X162103809Y-95084819D01*
X162103809Y-95084819D02*
X162008571Y-95227676D01*
X162008571Y-95227676D02*
X161913333Y-95322914D01*
X161913333Y-95322914D02*
X161818095Y-95370533D01*
X162722857Y-95084819D02*
X163389523Y-95084819D01*
X163389523Y-95084819D02*
X162960952Y-96084819D01*
X127599047Y-126254819D02*
X127599047Y-126969104D01*
X127599047Y-126969104D02*
X127551428Y-127111961D01*
X127551428Y-127111961D02*
X127456190Y-127207200D01*
X127456190Y-127207200D02*
X127313333Y-127254819D01*
X127313333Y-127254819D02*
X127218095Y-127254819D01*
X128075238Y-127254819D02*
X128075238Y-126254819D01*
X128075238Y-126254819D02*
X128408571Y-126969104D01*
X128408571Y-126969104D02*
X128741904Y-126254819D01*
X128741904Y-126254819D02*
X128741904Y-127254819D01*
X129122857Y-126254819D02*
X129789523Y-127254819D01*
X129789523Y-126254819D02*
X129122857Y-127254819D01*
X130694285Y-127254819D02*
X130122857Y-127254819D01*
X130408571Y-127254819D02*
X130408571Y-126254819D01*
X130408571Y-126254819D02*
X130313333Y-126397676D01*
X130313333Y-126397676D02*
X130218095Y-126492914D01*
X130218095Y-126492914D02*
X130122857Y-126540533D01*
X79315238Y-83074819D02*
X79315238Y-83789104D01*
X79315238Y-83789104D02*
X79267619Y-83931961D01*
X79267619Y-83931961D02*
X79172381Y-84027200D01*
X79172381Y-84027200D02*
X79029524Y-84074819D01*
X79029524Y-84074819D02*
X78934286Y-84074819D01*
X79791429Y-84074819D02*
X79791429Y-83074819D01*
X79791429Y-83074819D02*
X80124762Y-83789104D01*
X80124762Y-83789104D02*
X80458095Y-83074819D01*
X80458095Y-83074819D02*
X80458095Y-84074819D01*
X80934286Y-84074819D02*
X80934286Y-83074819D01*
X80934286Y-83074819D02*
X81172381Y-83074819D01*
X81172381Y-83074819D02*
X81315238Y-83122438D01*
X81315238Y-83122438D02*
X81410476Y-83217676D01*
X81410476Y-83217676D02*
X81458095Y-83312914D01*
X81458095Y-83312914D02*
X81505714Y-83503390D01*
X81505714Y-83503390D02*
X81505714Y-83646247D01*
X81505714Y-83646247D02*
X81458095Y-83836723D01*
X81458095Y-83836723D02*
X81410476Y-83931961D01*
X81410476Y-83931961D02*
X81315238Y-84027200D01*
X81315238Y-84027200D02*
X81172381Y-84074819D01*
X81172381Y-84074819D02*
X80934286Y-84074819D01*
X81886667Y-83170057D02*
X81934286Y-83122438D01*
X81934286Y-83122438D02*
X82029524Y-83074819D01*
X82029524Y-83074819D02*
X82267619Y-83074819D01*
X82267619Y-83074819D02*
X82362857Y-83122438D01*
X82362857Y-83122438D02*
X82410476Y-83170057D01*
X82410476Y-83170057D02*
X82458095Y-83265295D01*
X82458095Y-83265295D02*
X82458095Y-83360533D01*
X82458095Y-83360533D02*
X82410476Y-83503390D01*
X82410476Y-83503390D02*
X81839048Y-84074819D01*
X81839048Y-84074819D02*
X82458095Y-84074819D01*
X96913333Y-58084819D02*
X96580000Y-57608628D01*
X96341905Y-58084819D02*
X96341905Y-57084819D01*
X96341905Y-57084819D02*
X96722857Y-57084819D01*
X96722857Y-57084819D02*
X96818095Y-57132438D01*
X96818095Y-57132438D02*
X96865714Y-57180057D01*
X96865714Y-57180057D02*
X96913333Y-57275295D01*
X96913333Y-57275295D02*
X96913333Y-57418152D01*
X96913333Y-57418152D02*
X96865714Y-57513390D01*
X96865714Y-57513390D02*
X96818095Y-57561009D01*
X96818095Y-57561009D02*
X96722857Y-57608628D01*
X96722857Y-57608628D02*
X96341905Y-57608628D01*
X97294286Y-57180057D02*
X97341905Y-57132438D01*
X97341905Y-57132438D02*
X97437143Y-57084819D01*
X97437143Y-57084819D02*
X97675238Y-57084819D01*
X97675238Y-57084819D02*
X97770476Y-57132438D01*
X97770476Y-57132438D02*
X97818095Y-57180057D01*
X97818095Y-57180057D02*
X97865714Y-57275295D01*
X97865714Y-57275295D02*
X97865714Y-57370533D01*
X97865714Y-57370533D02*
X97818095Y-57513390D01*
X97818095Y-57513390D02*
X97246667Y-58084819D01*
X97246667Y-58084819D02*
X97865714Y-58084819D01*
X140254761Y-74404819D02*
X139921428Y-73928628D01*
X139683333Y-74404819D02*
X139683333Y-73404819D01*
X139683333Y-73404819D02*
X140064285Y-73404819D01*
X140064285Y-73404819D02*
X140159523Y-73452438D01*
X140159523Y-73452438D02*
X140207142Y-73500057D01*
X140207142Y-73500057D02*
X140254761Y-73595295D01*
X140254761Y-73595295D02*
X140254761Y-73738152D01*
X140254761Y-73738152D02*
X140207142Y-73833390D01*
X140207142Y-73833390D02*
X140159523Y-73881009D01*
X140159523Y-73881009D02*
X140064285Y-73928628D01*
X140064285Y-73928628D02*
X139683333Y-73928628D01*
X140540476Y-73404819D02*
X140873809Y-74404819D01*
X140873809Y-74404819D02*
X141207142Y-73404819D01*
X141969047Y-73738152D02*
X141969047Y-74404819D01*
X141730952Y-73357200D02*
X141492857Y-74071485D01*
X141492857Y-74071485D02*
X142111904Y-74071485D01*
X126857142Y-148859580D02*
X126809523Y-148907200D01*
X126809523Y-148907200D02*
X126666666Y-148954819D01*
X126666666Y-148954819D02*
X126571428Y-148954819D01*
X126571428Y-148954819D02*
X126428571Y-148907200D01*
X126428571Y-148907200D02*
X126333333Y-148811961D01*
X126333333Y-148811961D02*
X126285714Y-148716723D01*
X126285714Y-148716723D02*
X126238095Y-148526247D01*
X126238095Y-148526247D02*
X126238095Y-148383390D01*
X126238095Y-148383390D02*
X126285714Y-148192914D01*
X126285714Y-148192914D02*
X126333333Y-148097676D01*
X126333333Y-148097676D02*
X126428571Y-148002438D01*
X126428571Y-148002438D02*
X126571428Y-147954819D01*
X126571428Y-147954819D02*
X126666666Y-147954819D01*
X126666666Y-147954819D02*
X126809523Y-148002438D01*
X126809523Y-148002438D02*
X126857142Y-148050057D01*
X127809523Y-148954819D02*
X127238095Y-148954819D01*
X127523809Y-148954819D02*
X127523809Y-147954819D01*
X127523809Y-147954819D02*
X127428571Y-148097676D01*
X127428571Y-148097676D02*
X127333333Y-148192914D01*
X127333333Y-148192914D02*
X127238095Y-148240533D01*
X128666666Y-147954819D02*
X128476190Y-147954819D01*
X128476190Y-147954819D02*
X128380952Y-148002438D01*
X128380952Y-148002438D02*
X128333333Y-148050057D01*
X128333333Y-148050057D02*
X128238095Y-148192914D01*
X128238095Y-148192914D02*
X128190476Y-148383390D01*
X128190476Y-148383390D02*
X128190476Y-148764342D01*
X128190476Y-148764342D02*
X128238095Y-148859580D01*
X128238095Y-148859580D02*
X128285714Y-148907200D01*
X128285714Y-148907200D02*
X128380952Y-148954819D01*
X128380952Y-148954819D02*
X128571428Y-148954819D01*
X128571428Y-148954819D02*
X128666666Y-148907200D01*
X128666666Y-148907200D02*
X128714285Y-148859580D01*
X128714285Y-148859580D02*
X128761904Y-148764342D01*
X128761904Y-148764342D02*
X128761904Y-148526247D01*
X128761904Y-148526247D02*
X128714285Y-148431009D01*
X128714285Y-148431009D02*
X128666666Y-148383390D01*
X128666666Y-148383390D02*
X128571428Y-148335771D01*
X128571428Y-148335771D02*
X128380952Y-148335771D01*
X128380952Y-148335771D02*
X128285714Y-148383390D01*
X128285714Y-148383390D02*
X128238095Y-148431009D01*
X128238095Y-148431009D02*
X128190476Y-148526247D01*
X129437142Y-72084819D02*
X129103809Y-71608628D01*
X128865714Y-72084819D02*
X128865714Y-71084819D01*
X128865714Y-71084819D02*
X129246666Y-71084819D01*
X129246666Y-71084819D02*
X129341904Y-71132438D01*
X129341904Y-71132438D02*
X129389523Y-71180057D01*
X129389523Y-71180057D02*
X129437142Y-71275295D01*
X129437142Y-71275295D02*
X129437142Y-71418152D01*
X129437142Y-71418152D02*
X129389523Y-71513390D01*
X129389523Y-71513390D02*
X129341904Y-71561009D01*
X129341904Y-71561009D02*
X129246666Y-71608628D01*
X129246666Y-71608628D02*
X128865714Y-71608628D01*
X130389523Y-72084819D02*
X129818095Y-72084819D01*
X130103809Y-72084819D02*
X130103809Y-71084819D01*
X130103809Y-71084819D02*
X130008571Y-71227676D01*
X130008571Y-71227676D02*
X129913333Y-71322914D01*
X129913333Y-71322914D02*
X129818095Y-71370533D01*
X130770476Y-71180057D02*
X130818095Y-71132438D01*
X130818095Y-71132438D02*
X130913333Y-71084819D01*
X130913333Y-71084819D02*
X131151428Y-71084819D01*
X131151428Y-71084819D02*
X131246666Y-71132438D01*
X131246666Y-71132438D02*
X131294285Y-71180057D01*
X131294285Y-71180057D02*
X131341904Y-71275295D01*
X131341904Y-71275295D02*
X131341904Y-71370533D01*
X131341904Y-71370533D02*
X131294285Y-71513390D01*
X131294285Y-71513390D02*
X130722857Y-72084819D01*
X130722857Y-72084819D02*
X131341904Y-72084819D01*
X37071905Y-57334819D02*
X37071905Y-56334819D01*
X37071905Y-56334819D02*
X37310000Y-56334819D01*
X37310000Y-56334819D02*
X37452857Y-56382438D01*
X37452857Y-56382438D02*
X37548095Y-56477676D01*
X37548095Y-56477676D02*
X37595714Y-56572914D01*
X37595714Y-56572914D02*
X37643333Y-56763390D01*
X37643333Y-56763390D02*
X37643333Y-56906247D01*
X37643333Y-56906247D02*
X37595714Y-57096723D01*
X37595714Y-57096723D02*
X37548095Y-57191961D01*
X37548095Y-57191961D02*
X37452857Y-57287200D01*
X37452857Y-57287200D02*
X37310000Y-57334819D01*
X37310000Y-57334819D02*
X37071905Y-57334819D01*
X38595714Y-57334819D02*
X38024286Y-57334819D01*
X38310000Y-57334819D02*
X38310000Y-56334819D01*
X38310000Y-56334819D02*
X38214762Y-56477676D01*
X38214762Y-56477676D02*
X38119524Y-56572914D01*
X38119524Y-56572914D02*
X38024286Y-56620533D01*
X33738095Y-57654819D02*
X33738095Y-56654819D01*
X34309523Y-57654819D02*
X33880952Y-57083390D01*
X34309523Y-56654819D02*
X33738095Y-57226247D01*
X35531905Y-157494819D02*
X35531905Y-156494819D01*
X35531905Y-156494819D02*
X35770000Y-156494819D01*
X35770000Y-156494819D02*
X35912857Y-156542438D01*
X35912857Y-156542438D02*
X36008095Y-156637676D01*
X36008095Y-156637676D02*
X36055714Y-156732914D01*
X36055714Y-156732914D02*
X36103333Y-156923390D01*
X36103333Y-156923390D02*
X36103333Y-157066247D01*
X36103333Y-157066247D02*
X36055714Y-157256723D01*
X36055714Y-157256723D02*
X36008095Y-157351961D01*
X36008095Y-157351961D02*
X35912857Y-157447200D01*
X35912857Y-157447200D02*
X35770000Y-157494819D01*
X35770000Y-157494819D02*
X35531905Y-157494819D01*
X36579524Y-157494819D02*
X36770000Y-157494819D01*
X36770000Y-157494819D02*
X36865238Y-157447200D01*
X36865238Y-157447200D02*
X36912857Y-157399580D01*
X36912857Y-157399580D02*
X37008095Y-157256723D01*
X37008095Y-157256723D02*
X37055714Y-157066247D01*
X37055714Y-157066247D02*
X37055714Y-156685295D01*
X37055714Y-156685295D02*
X37008095Y-156590057D01*
X37008095Y-156590057D02*
X36960476Y-156542438D01*
X36960476Y-156542438D02*
X36865238Y-156494819D01*
X36865238Y-156494819D02*
X36674762Y-156494819D01*
X36674762Y-156494819D02*
X36579524Y-156542438D01*
X36579524Y-156542438D02*
X36531905Y-156590057D01*
X36531905Y-156590057D02*
X36484286Y-156685295D01*
X36484286Y-156685295D02*
X36484286Y-156923390D01*
X36484286Y-156923390D02*
X36531905Y-157018628D01*
X36531905Y-157018628D02*
X36579524Y-157066247D01*
X36579524Y-157066247D02*
X36674762Y-157113866D01*
X36674762Y-157113866D02*
X36865238Y-157113866D01*
X36865238Y-157113866D02*
X36960476Y-157066247D01*
X36960476Y-157066247D02*
X37008095Y-157018628D01*
X37008095Y-157018628D02*
X37055714Y-156923390D01*
X82333333Y-59859580D02*
X82285714Y-59907200D01*
X82285714Y-59907200D02*
X82142857Y-59954819D01*
X82142857Y-59954819D02*
X82047619Y-59954819D01*
X82047619Y-59954819D02*
X81904762Y-59907200D01*
X81904762Y-59907200D02*
X81809524Y-59811961D01*
X81809524Y-59811961D02*
X81761905Y-59716723D01*
X81761905Y-59716723D02*
X81714286Y-59526247D01*
X81714286Y-59526247D02*
X81714286Y-59383390D01*
X81714286Y-59383390D02*
X81761905Y-59192914D01*
X81761905Y-59192914D02*
X81809524Y-59097676D01*
X81809524Y-59097676D02*
X81904762Y-59002438D01*
X81904762Y-59002438D02*
X82047619Y-58954819D01*
X82047619Y-58954819D02*
X82142857Y-58954819D01*
X82142857Y-58954819D02*
X82285714Y-59002438D01*
X82285714Y-59002438D02*
X82333333Y-59050057D01*
X83285714Y-59954819D02*
X82714286Y-59954819D01*
X83000000Y-59954819D02*
X83000000Y-58954819D01*
X83000000Y-58954819D02*
X82904762Y-59097676D01*
X82904762Y-59097676D02*
X82809524Y-59192914D01*
X82809524Y-59192914D02*
X82714286Y-59240533D01*
X65437142Y-120084819D02*
X65103809Y-119608628D01*
X64865714Y-120084819D02*
X64865714Y-119084819D01*
X64865714Y-119084819D02*
X65246666Y-119084819D01*
X65246666Y-119084819D02*
X65341904Y-119132438D01*
X65341904Y-119132438D02*
X65389523Y-119180057D01*
X65389523Y-119180057D02*
X65437142Y-119275295D01*
X65437142Y-119275295D02*
X65437142Y-119418152D01*
X65437142Y-119418152D02*
X65389523Y-119513390D01*
X65389523Y-119513390D02*
X65341904Y-119561009D01*
X65341904Y-119561009D02*
X65246666Y-119608628D01*
X65246666Y-119608628D02*
X64865714Y-119608628D01*
X66389523Y-120084819D02*
X65818095Y-120084819D01*
X66103809Y-120084819D02*
X66103809Y-119084819D01*
X66103809Y-119084819D02*
X66008571Y-119227676D01*
X66008571Y-119227676D02*
X65913333Y-119322914D01*
X65913333Y-119322914D02*
X65818095Y-119370533D01*
X66960952Y-119513390D02*
X66865714Y-119465771D01*
X66865714Y-119465771D02*
X66818095Y-119418152D01*
X66818095Y-119418152D02*
X66770476Y-119322914D01*
X66770476Y-119322914D02*
X66770476Y-119275295D01*
X66770476Y-119275295D02*
X66818095Y-119180057D01*
X66818095Y-119180057D02*
X66865714Y-119132438D01*
X66865714Y-119132438D02*
X66960952Y-119084819D01*
X66960952Y-119084819D02*
X67151428Y-119084819D01*
X67151428Y-119084819D02*
X67246666Y-119132438D01*
X67246666Y-119132438D02*
X67294285Y-119180057D01*
X67294285Y-119180057D02*
X67341904Y-119275295D01*
X67341904Y-119275295D02*
X67341904Y-119322914D01*
X67341904Y-119322914D02*
X67294285Y-119418152D01*
X67294285Y-119418152D02*
X67246666Y-119465771D01*
X67246666Y-119465771D02*
X67151428Y-119513390D01*
X67151428Y-119513390D02*
X66960952Y-119513390D01*
X66960952Y-119513390D02*
X66865714Y-119561009D01*
X66865714Y-119561009D02*
X66818095Y-119608628D01*
X66818095Y-119608628D02*
X66770476Y-119703866D01*
X66770476Y-119703866D02*
X66770476Y-119894342D01*
X66770476Y-119894342D02*
X66818095Y-119989580D01*
X66818095Y-119989580D02*
X66865714Y-120037200D01*
X66865714Y-120037200D02*
X66960952Y-120084819D01*
X66960952Y-120084819D02*
X67151428Y-120084819D01*
X67151428Y-120084819D02*
X67246666Y-120037200D01*
X67246666Y-120037200D02*
X67294285Y-119989580D01*
X67294285Y-119989580D02*
X67341904Y-119894342D01*
X67341904Y-119894342D02*
X67341904Y-119703866D01*
X67341904Y-119703866D02*
X67294285Y-119608628D01*
X67294285Y-119608628D02*
X67246666Y-119561009D01*
X67246666Y-119561009D02*
X67151428Y-119513390D01*
X46908095Y-171834819D02*
X46908095Y-172644342D01*
X46908095Y-172644342D02*
X46955714Y-172739580D01*
X46955714Y-172739580D02*
X47003333Y-172787200D01*
X47003333Y-172787200D02*
X47098571Y-172834819D01*
X47098571Y-172834819D02*
X47289047Y-172834819D01*
X47289047Y-172834819D02*
X47384285Y-172787200D01*
X47384285Y-172787200D02*
X47431904Y-172739580D01*
X47431904Y-172739580D02*
X47479523Y-172644342D01*
X47479523Y-172644342D02*
X47479523Y-171834819D01*
X47908095Y-171930057D02*
X47955714Y-171882438D01*
X47955714Y-171882438D02*
X48050952Y-171834819D01*
X48050952Y-171834819D02*
X48289047Y-171834819D01*
X48289047Y-171834819D02*
X48384285Y-171882438D01*
X48384285Y-171882438D02*
X48431904Y-171930057D01*
X48431904Y-171930057D02*
X48479523Y-172025295D01*
X48479523Y-172025295D02*
X48479523Y-172120533D01*
X48479523Y-172120533D02*
X48431904Y-172263390D01*
X48431904Y-172263390D02*
X47860476Y-172834819D01*
X47860476Y-172834819D02*
X48479523Y-172834819D01*
X44254761Y-74404819D02*
X43921428Y-73928628D01*
X43683333Y-74404819D02*
X43683333Y-73404819D01*
X43683333Y-73404819D02*
X44064285Y-73404819D01*
X44064285Y-73404819D02*
X44159523Y-73452438D01*
X44159523Y-73452438D02*
X44207142Y-73500057D01*
X44207142Y-73500057D02*
X44254761Y-73595295D01*
X44254761Y-73595295D02*
X44254761Y-73738152D01*
X44254761Y-73738152D02*
X44207142Y-73833390D01*
X44207142Y-73833390D02*
X44159523Y-73881009D01*
X44159523Y-73881009D02*
X44064285Y-73928628D01*
X44064285Y-73928628D02*
X43683333Y-73928628D01*
X44540476Y-73404819D02*
X44873809Y-74404819D01*
X44873809Y-74404819D02*
X45207142Y-73404819D01*
X46064285Y-74404819D02*
X45492857Y-74404819D01*
X45778571Y-74404819D02*
X45778571Y-73404819D01*
X45778571Y-73404819D02*
X45683333Y-73547676D01*
X45683333Y-73547676D02*
X45588095Y-73642914D01*
X45588095Y-73642914D02*
X45492857Y-73690533D01*
X39987142Y-95374819D02*
X39653809Y-94898628D01*
X39415714Y-95374819D02*
X39415714Y-94374819D01*
X39415714Y-94374819D02*
X39796666Y-94374819D01*
X39796666Y-94374819D02*
X39891904Y-94422438D01*
X39891904Y-94422438D02*
X39939523Y-94470057D01*
X39939523Y-94470057D02*
X39987142Y-94565295D01*
X39987142Y-94565295D02*
X39987142Y-94708152D01*
X39987142Y-94708152D02*
X39939523Y-94803390D01*
X39939523Y-94803390D02*
X39891904Y-94851009D01*
X39891904Y-94851009D02*
X39796666Y-94898628D01*
X39796666Y-94898628D02*
X39415714Y-94898628D01*
X40368095Y-94470057D02*
X40415714Y-94422438D01*
X40415714Y-94422438D02*
X40510952Y-94374819D01*
X40510952Y-94374819D02*
X40749047Y-94374819D01*
X40749047Y-94374819D02*
X40844285Y-94422438D01*
X40844285Y-94422438D02*
X40891904Y-94470057D01*
X40891904Y-94470057D02*
X40939523Y-94565295D01*
X40939523Y-94565295D02*
X40939523Y-94660533D01*
X40939523Y-94660533D02*
X40891904Y-94803390D01*
X40891904Y-94803390D02*
X40320476Y-95374819D01*
X40320476Y-95374819D02*
X40939523Y-95374819D01*
X41415714Y-95374819D02*
X41606190Y-95374819D01*
X41606190Y-95374819D02*
X41701428Y-95327200D01*
X41701428Y-95327200D02*
X41749047Y-95279580D01*
X41749047Y-95279580D02*
X41844285Y-95136723D01*
X41844285Y-95136723D02*
X41891904Y-94946247D01*
X41891904Y-94946247D02*
X41891904Y-94565295D01*
X41891904Y-94565295D02*
X41844285Y-94470057D01*
X41844285Y-94470057D02*
X41796666Y-94422438D01*
X41796666Y-94422438D02*
X41701428Y-94374819D01*
X41701428Y-94374819D02*
X41510952Y-94374819D01*
X41510952Y-94374819D02*
X41415714Y-94422438D01*
X41415714Y-94422438D02*
X41368095Y-94470057D01*
X41368095Y-94470057D02*
X41320476Y-94565295D01*
X41320476Y-94565295D02*
X41320476Y-94803390D01*
X41320476Y-94803390D02*
X41368095Y-94898628D01*
X41368095Y-94898628D02*
X41415714Y-94946247D01*
X41415714Y-94946247D02*
X41510952Y-94993866D01*
X41510952Y-94993866D02*
X41701428Y-94993866D01*
X41701428Y-94993866D02*
X41796666Y-94946247D01*
X41796666Y-94946247D02*
X41844285Y-94898628D01*
X41844285Y-94898628D02*
X41891904Y-94803390D01*
X43666666Y-43454819D02*
X43666666Y-44169104D01*
X43666666Y-44169104D02*
X43619047Y-44311961D01*
X43619047Y-44311961D02*
X43523809Y-44407200D01*
X43523809Y-44407200D02*
X43380952Y-44454819D01*
X43380952Y-44454819D02*
X43285714Y-44454819D01*
X44666666Y-44454819D02*
X44095238Y-44454819D01*
X44380952Y-44454819D02*
X44380952Y-43454819D01*
X44380952Y-43454819D02*
X44285714Y-43597676D01*
X44285714Y-43597676D02*
X44190476Y-43692914D01*
X44190476Y-43692914D02*
X44095238Y-43740533D01*
X169916667Y-154407200D02*
X170059524Y-154454819D01*
X170059524Y-154454819D02*
X170297619Y-154454819D01*
X170297619Y-154454819D02*
X170392857Y-154407200D01*
X170392857Y-154407200D02*
X170440476Y-154359580D01*
X170440476Y-154359580D02*
X170488095Y-154264342D01*
X170488095Y-154264342D02*
X170488095Y-154169104D01*
X170488095Y-154169104D02*
X170440476Y-154073866D01*
X170440476Y-154073866D02*
X170392857Y-154026247D01*
X170392857Y-154026247D02*
X170297619Y-153978628D01*
X170297619Y-153978628D02*
X170107143Y-153931009D01*
X170107143Y-153931009D02*
X170011905Y-153883390D01*
X170011905Y-153883390D02*
X169964286Y-153835771D01*
X169964286Y-153835771D02*
X169916667Y-153740533D01*
X169916667Y-153740533D02*
X169916667Y-153645295D01*
X169916667Y-153645295D02*
X169964286Y-153550057D01*
X169964286Y-153550057D02*
X170011905Y-153502438D01*
X170011905Y-153502438D02*
X170107143Y-153454819D01*
X170107143Y-153454819D02*
X170345238Y-153454819D01*
X170345238Y-153454819D02*
X170488095Y-153502438D01*
X170821429Y-153454819D02*
X171059524Y-154454819D01*
X171059524Y-154454819D02*
X171250000Y-153740533D01*
X171250000Y-153740533D02*
X171440476Y-154454819D01*
X171440476Y-154454819D02*
X171678572Y-153454819D01*
X172535714Y-153454819D02*
X172059524Y-153454819D01*
X172059524Y-153454819D02*
X172011905Y-153931009D01*
X172011905Y-153931009D02*
X172059524Y-153883390D01*
X172059524Y-153883390D02*
X172154762Y-153835771D01*
X172154762Y-153835771D02*
X172392857Y-153835771D01*
X172392857Y-153835771D02*
X172488095Y-153883390D01*
X172488095Y-153883390D02*
X172535714Y-153931009D01*
X172535714Y-153931009D02*
X172583333Y-154026247D01*
X172583333Y-154026247D02*
X172583333Y-154264342D01*
X172583333Y-154264342D02*
X172535714Y-154359580D01*
X172535714Y-154359580D02*
X172488095Y-154407200D01*
X172488095Y-154407200D02*
X172392857Y-154454819D01*
X172392857Y-154454819D02*
X172154762Y-154454819D01*
X172154762Y-154454819D02*
X172059524Y-154407200D01*
X172059524Y-154407200D02*
X172011905Y-154359580D01*
X102175238Y-83074819D02*
X102175238Y-83789104D01*
X102175238Y-83789104D02*
X102127619Y-83931961D01*
X102127619Y-83931961D02*
X102032381Y-84027200D01*
X102032381Y-84027200D02*
X101889524Y-84074819D01*
X101889524Y-84074819D02*
X101794286Y-84074819D01*
X102651429Y-84074819D02*
X102651429Y-83074819D01*
X102651429Y-83074819D02*
X102984762Y-83789104D01*
X102984762Y-83789104D02*
X103318095Y-83074819D01*
X103318095Y-83074819D02*
X103318095Y-84074819D01*
X103794286Y-84074819D02*
X103794286Y-83074819D01*
X103794286Y-83074819D02*
X104032381Y-83074819D01*
X104032381Y-83074819D02*
X104175238Y-83122438D01*
X104175238Y-83122438D02*
X104270476Y-83217676D01*
X104270476Y-83217676D02*
X104318095Y-83312914D01*
X104318095Y-83312914D02*
X104365714Y-83503390D01*
X104365714Y-83503390D02*
X104365714Y-83646247D01*
X104365714Y-83646247D02*
X104318095Y-83836723D01*
X104318095Y-83836723D02*
X104270476Y-83931961D01*
X104270476Y-83931961D02*
X104175238Y-84027200D01*
X104175238Y-84027200D02*
X104032381Y-84074819D01*
X104032381Y-84074819D02*
X103794286Y-84074819D01*
X104699048Y-83074819D02*
X105318095Y-83074819D01*
X105318095Y-83074819D02*
X104984762Y-83455771D01*
X104984762Y-83455771D02*
X105127619Y-83455771D01*
X105127619Y-83455771D02*
X105222857Y-83503390D01*
X105222857Y-83503390D02*
X105270476Y-83551009D01*
X105270476Y-83551009D02*
X105318095Y-83646247D01*
X105318095Y-83646247D02*
X105318095Y-83884342D01*
X105318095Y-83884342D02*
X105270476Y-83979580D01*
X105270476Y-83979580D02*
X105222857Y-84027200D01*
X105222857Y-84027200D02*
X105127619Y-84074819D01*
X105127619Y-84074819D02*
X104841905Y-84074819D01*
X104841905Y-84074819D02*
X104746667Y-84027200D01*
X104746667Y-84027200D02*
X104699048Y-83979580D01*
X178531905Y-129494819D02*
X178531905Y-128494819D01*
X178531905Y-128494819D02*
X178770000Y-128494819D01*
X178770000Y-128494819D02*
X178912857Y-128542438D01*
X178912857Y-128542438D02*
X179008095Y-128637676D01*
X179008095Y-128637676D02*
X179055714Y-128732914D01*
X179055714Y-128732914D02*
X179103333Y-128923390D01*
X179103333Y-128923390D02*
X179103333Y-129066247D01*
X179103333Y-129066247D02*
X179055714Y-129256723D01*
X179055714Y-129256723D02*
X179008095Y-129351961D01*
X179008095Y-129351961D02*
X178912857Y-129447200D01*
X178912857Y-129447200D02*
X178770000Y-129494819D01*
X178770000Y-129494819D02*
X178531905Y-129494819D01*
X180008095Y-128494819D02*
X179531905Y-128494819D01*
X179531905Y-128494819D02*
X179484286Y-128971009D01*
X179484286Y-128971009D02*
X179531905Y-128923390D01*
X179531905Y-128923390D02*
X179627143Y-128875771D01*
X179627143Y-128875771D02*
X179865238Y-128875771D01*
X179865238Y-128875771D02*
X179960476Y-128923390D01*
X179960476Y-128923390D02*
X180008095Y-128971009D01*
X180008095Y-128971009D02*
X180055714Y-129066247D01*
X180055714Y-129066247D02*
X180055714Y-129304342D01*
X180055714Y-129304342D02*
X180008095Y-129399580D01*
X180008095Y-129399580D02*
X179960476Y-129447200D01*
X179960476Y-129447200D02*
X179865238Y-129494819D01*
X179865238Y-129494819D02*
X179627143Y-129494819D01*
X179627143Y-129494819D02*
X179531905Y-129447200D01*
X179531905Y-129447200D02*
X179484286Y-129399580D01*
X27916667Y-158407200D02*
X28059524Y-158454819D01*
X28059524Y-158454819D02*
X28297619Y-158454819D01*
X28297619Y-158454819D02*
X28392857Y-158407200D01*
X28392857Y-158407200D02*
X28440476Y-158359580D01*
X28440476Y-158359580D02*
X28488095Y-158264342D01*
X28488095Y-158264342D02*
X28488095Y-158169104D01*
X28488095Y-158169104D02*
X28440476Y-158073866D01*
X28440476Y-158073866D02*
X28392857Y-158026247D01*
X28392857Y-158026247D02*
X28297619Y-157978628D01*
X28297619Y-157978628D02*
X28107143Y-157931009D01*
X28107143Y-157931009D02*
X28011905Y-157883390D01*
X28011905Y-157883390D02*
X27964286Y-157835771D01*
X27964286Y-157835771D02*
X27916667Y-157740533D01*
X27916667Y-157740533D02*
X27916667Y-157645295D01*
X27916667Y-157645295D02*
X27964286Y-157550057D01*
X27964286Y-157550057D02*
X28011905Y-157502438D01*
X28011905Y-157502438D02*
X28107143Y-157454819D01*
X28107143Y-157454819D02*
X28345238Y-157454819D01*
X28345238Y-157454819D02*
X28488095Y-157502438D01*
X28821429Y-157454819D02*
X29059524Y-158454819D01*
X29059524Y-158454819D02*
X29250000Y-157740533D01*
X29250000Y-157740533D02*
X29440476Y-158454819D01*
X29440476Y-158454819D02*
X29678572Y-157454819D01*
X30202381Y-157883390D02*
X30107143Y-157835771D01*
X30107143Y-157835771D02*
X30059524Y-157788152D01*
X30059524Y-157788152D02*
X30011905Y-157692914D01*
X30011905Y-157692914D02*
X30011905Y-157645295D01*
X30011905Y-157645295D02*
X30059524Y-157550057D01*
X30059524Y-157550057D02*
X30107143Y-157502438D01*
X30107143Y-157502438D02*
X30202381Y-157454819D01*
X30202381Y-157454819D02*
X30392857Y-157454819D01*
X30392857Y-157454819D02*
X30488095Y-157502438D01*
X30488095Y-157502438D02*
X30535714Y-157550057D01*
X30535714Y-157550057D02*
X30583333Y-157645295D01*
X30583333Y-157645295D02*
X30583333Y-157692914D01*
X30583333Y-157692914D02*
X30535714Y-157788152D01*
X30535714Y-157788152D02*
X30488095Y-157835771D01*
X30488095Y-157835771D02*
X30392857Y-157883390D01*
X30392857Y-157883390D02*
X30202381Y-157883390D01*
X30202381Y-157883390D02*
X30107143Y-157931009D01*
X30107143Y-157931009D02*
X30059524Y-157978628D01*
X30059524Y-157978628D02*
X30011905Y-158073866D01*
X30011905Y-158073866D02*
X30011905Y-158264342D01*
X30011905Y-158264342D02*
X30059524Y-158359580D01*
X30059524Y-158359580D02*
X30107143Y-158407200D01*
X30107143Y-158407200D02*
X30202381Y-158454819D01*
X30202381Y-158454819D02*
X30392857Y-158454819D01*
X30392857Y-158454819D02*
X30488095Y-158407200D01*
X30488095Y-158407200D02*
X30535714Y-158359580D01*
X30535714Y-158359580D02*
X30583333Y-158264342D01*
X30583333Y-158264342D02*
X30583333Y-158073866D01*
X30583333Y-158073866D02*
X30535714Y-157978628D01*
X30535714Y-157978628D02*
X30488095Y-157931009D01*
X30488095Y-157931009D02*
X30392857Y-157883390D01*
X169916667Y-82407200D02*
X170059524Y-82454819D01*
X170059524Y-82454819D02*
X170297619Y-82454819D01*
X170297619Y-82454819D02*
X170392857Y-82407200D01*
X170392857Y-82407200D02*
X170440476Y-82359580D01*
X170440476Y-82359580D02*
X170488095Y-82264342D01*
X170488095Y-82264342D02*
X170488095Y-82169104D01*
X170488095Y-82169104D02*
X170440476Y-82073866D01*
X170440476Y-82073866D02*
X170392857Y-82026247D01*
X170392857Y-82026247D02*
X170297619Y-81978628D01*
X170297619Y-81978628D02*
X170107143Y-81931009D01*
X170107143Y-81931009D02*
X170011905Y-81883390D01*
X170011905Y-81883390D02*
X169964286Y-81835771D01*
X169964286Y-81835771D02*
X169916667Y-81740533D01*
X169916667Y-81740533D02*
X169916667Y-81645295D01*
X169916667Y-81645295D02*
X169964286Y-81550057D01*
X169964286Y-81550057D02*
X170011905Y-81502438D01*
X170011905Y-81502438D02*
X170107143Y-81454819D01*
X170107143Y-81454819D02*
X170345238Y-81454819D01*
X170345238Y-81454819D02*
X170488095Y-81502438D01*
X170821429Y-81454819D02*
X171059524Y-82454819D01*
X171059524Y-82454819D02*
X171250000Y-81740533D01*
X171250000Y-81740533D02*
X171440476Y-82454819D01*
X171440476Y-82454819D02*
X171678572Y-81454819D01*
X172011905Y-81550057D02*
X172059524Y-81502438D01*
X172059524Y-81502438D02*
X172154762Y-81454819D01*
X172154762Y-81454819D02*
X172392857Y-81454819D01*
X172392857Y-81454819D02*
X172488095Y-81502438D01*
X172488095Y-81502438D02*
X172535714Y-81550057D01*
X172535714Y-81550057D02*
X172583333Y-81645295D01*
X172583333Y-81645295D02*
X172583333Y-81740533D01*
X172583333Y-81740533D02*
X172535714Y-81883390D01*
X172535714Y-81883390D02*
X171964286Y-82454819D01*
X171964286Y-82454819D02*
X172583333Y-82454819D01*
X51048095Y-51124819D02*
X51048095Y-51934342D01*
X51048095Y-51934342D02*
X51095714Y-52029580D01*
X51095714Y-52029580D02*
X51143333Y-52077200D01*
X51143333Y-52077200D02*
X51238571Y-52124819D01*
X51238571Y-52124819D02*
X51429047Y-52124819D01*
X51429047Y-52124819D02*
X51524285Y-52077200D01*
X51524285Y-52077200D02*
X51571904Y-52029580D01*
X51571904Y-52029580D02*
X51619523Y-51934342D01*
X51619523Y-51934342D02*
X51619523Y-51124819D01*
X52619523Y-52124819D02*
X52048095Y-52124819D01*
X52333809Y-52124819D02*
X52333809Y-51124819D01*
X52333809Y-51124819D02*
X52238571Y-51267676D01*
X52238571Y-51267676D02*
X52143333Y-51362914D01*
X52143333Y-51362914D02*
X52048095Y-51410533D01*
X95333333Y-76859580D02*
X95285714Y-76907200D01*
X95285714Y-76907200D02*
X95142857Y-76954819D01*
X95142857Y-76954819D02*
X95047619Y-76954819D01*
X95047619Y-76954819D02*
X94904762Y-76907200D01*
X94904762Y-76907200D02*
X94809524Y-76811961D01*
X94809524Y-76811961D02*
X94761905Y-76716723D01*
X94761905Y-76716723D02*
X94714286Y-76526247D01*
X94714286Y-76526247D02*
X94714286Y-76383390D01*
X94714286Y-76383390D02*
X94761905Y-76192914D01*
X94761905Y-76192914D02*
X94809524Y-76097676D01*
X94809524Y-76097676D02*
X94904762Y-76002438D01*
X94904762Y-76002438D02*
X95047619Y-75954819D01*
X95047619Y-75954819D02*
X95142857Y-75954819D01*
X95142857Y-75954819D02*
X95285714Y-76002438D01*
X95285714Y-76002438D02*
X95333333Y-76050057D01*
X95666667Y-75954819D02*
X96285714Y-75954819D01*
X96285714Y-75954819D02*
X95952381Y-76335771D01*
X95952381Y-76335771D02*
X96095238Y-76335771D01*
X96095238Y-76335771D02*
X96190476Y-76383390D01*
X96190476Y-76383390D02*
X96238095Y-76431009D01*
X96238095Y-76431009D02*
X96285714Y-76526247D01*
X96285714Y-76526247D02*
X96285714Y-76764342D01*
X96285714Y-76764342D02*
X96238095Y-76859580D01*
X96238095Y-76859580D02*
X96190476Y-76907200D01*
X96190476Y-76907200D02*
X96095238Y-76954819D01*
X96095238Y-76954819D02*
X95809524Y-76954819D01*
X95809524Y-76954819D02*
X95714286Y-76907200D01*
X95714286Y-76907200D02*
X95666667Y-76859580D01*
X127333333Y-76859580D02*
X127285714Y-76907200D01*
X127285714Y-76907200D02*
X127142857Y-76954819D01*
X127142857Y-76954819D02*
X127047619Y-76954819D01*
X127047619Y-76954819D02*
X126904762Y-76907200D01*
X126904762Y-76907200D02*
X126809524Y-76811961D01*
X126809524Y-76811961D02*
X126761905Y-76716723D01*
X126761905Y-76716723D02*
X126714286Y-76526247D01*
X126714286Y-76526247D02*
X126714286Y-76383390D01*
X126714286Y-76383390D02*
X126761905Y-76192914D01*
X126761905Y-76192914D02*
X126809524Y-76097676D01*
X126809524Y-76097676D02*
X126904762Y-76002438D01*
X126904762Y-76002438D02*
X127047619Y-75954819D01*
X127047619Y-75954819D02*
X127142857Y-75954819D01*
X127142857Y-75954819D02*
X127285714Y-76002438D01*
X127285714Y-76002438D02*
X127333333Y-76050057D01*
X128190476Y-76288152D02*
X128190476Y-76954819D01*
X127952381Y-75907200D02*
X127714286Y-76621485D01*
X127714286Y-76621485D02*
X128333333Y-76621485D01*
X44254761Y-98404819D02*
X43921428Y-97928628D01*
X43683333Y-98404819D02*
X43683333Y-97404819D01*
X43683333Y-97404819D02*
X44064285Y-97404819D01*
X44064285Y-97404819D02*
X44159523Y-97452438D01*
X44159523Y-97452438D02*
X44207142Y-97500057D01*
X44207142Y-97500057D02*
X44254761Y-97595295D01*
X44254761Y-97595295D02*
X44254761Y-97738152D01*
X44254761Y-97738152D02*
X44207142Y-97833390D01*
X44207142Y-97833390D02*
X44159523Y-97881009D01*
X44159523Y-97881009D02*
X44064285Y-97928628D01*
X44064285Y-97928628D02*
X43683333Y-97928628D01*
X44540476Y-97404819D02*
X44873809Y-98404819D01*
X44873809Y-98404819D02*
X45207142Y-97404819D01*
X46016666Y-97404819D02*
X45540476Y-97404819D01*
X45540476Y-97404819D02*
X45492857Y-97881009D01*
X45492857Y-97881009D02*
X45540476Y-97833390D01*
X45540476Y-97833390D02*
X45635714Y-97785771D01*
X45635714Y-97785771D02*
X45873809Y-97785771D01*
X45873809Y-97785771D02*
X45969047Y-97833390D01*
X45969047Y-97833390D02*
X46016666Y-97881009D01*
X46016666Y-97881009D02*
X46064285Y-97976247D01*
X46064285Y-97976247D02*
X46064285Y-98214342D01*
X46064285Y-98214342D02*
X46016666Y-98309580D01*
X46016666Y-98309580D02*
X45969047Y-98357200D01*
X45969047Y-98357200D02*
X45873809Y-98404819D01*
X45873809Y-98404819D02*
X45635714Y-98404819D01*
X45635714Y-98404819D02*
X45540476Y-98357200D01*
X45540476Y-98357200D02*
X45492857Y-98309580D01*
X97437142Y-72084819D02*
X97103809Y-71608628D01*
X96865714Y-72084819D02*
X96865714Y-71084819D01*
X96865714Y-71084819D02*
X97246666Y-71084819D01*
X97246666Y-71084819D02*
X97341904Y-71132438D01*
X97341904Y-71132438D02*
X97389523Y-71180057D01*
X97389523Y-71180057D02*
X97437142Y-71275295D01*
X97437142Y-71275295D02*
X97437142Y-71418152D01*
X97437142Y-71418152D02*
X97389523Y-71513390D01*
X97389523Y-71513390D02*
X97341904Y-71561009D01*
X97341904Y-71561009D02*
X97246666Y-71608628D01*
X97246666Y-71608628D02*
X96865714Y-71608628D01*
X98389523Y-72084819D02*
X97818095Y-72084819D01*
X98103809Y-72084819D02*
X98103809Y-71084819D01*
X98103809Y-71084819D02*
X98008571Y-71227676D01*
X98008571Y-71227676D02*
X97913333Y-71322914D01*
X97913333Y-71322914D02*
X97818095Y-71370533D01*
X99341904Y-72084819D02*
X98770476Y-72084819D01*
X99056190Y-72084819D02*
X99056190Y-71084819D01*
X99056190Y-71084819D02*
X98960952Y-71227676D01*
X98960952Y-71227676D02*
X98865714Y-71322914D01*
X98865714Y-71322914D02*
X98770476Y-71370533D01*
X178531905Y-57494819D02*
X178531905Y-56494819D01*
X178531905Y-56494819D02*
X178770000Y-56494819D01*
X178770000Y-56494819D02*
X178912857Y-56542438D01*
X178912857Y-56542438D02*
X179008095Y-56637676D01*
X179008095Y-56637676D02*
X179055714Y-56732914D01*
X179055714Y-56732914D02*
X179103333Y-56923390D01*
X179103333Y-56923390D02*
X179103333Y-57066247D01*
X179103333Y-57066247D02*
X179055714Y-57256723D01*
X179055714Y-57256723D02*
X179008095Y-57351961D01*
X179008095Y-57351961D02*
X178912857Y-57447200D01*
X178912857Y-57447200D02*
X178770000Y-57494819D01*
X178770000Y-57494819D02*
X178531905Y-57494819D01*
X179436667Y-56494819D02*
X180103333Y-56494819D01*
X180103333Y-56494819D02*
X179674762Y-57494819D01*
X163286666Y-31454819D02*
X163286666Y-32169104D01*
X163286666Y-32169104D02*
X163239047Y-32311961D01*
X163239047Y-32311961D02*
X163143809Y-32407200D01*
X163143809Y-32407200D02*
X163000952Y-32454819D01*
X163000952Y-32454819D02*
X162905714Y-32454819D01*
X164239047Y-31454819D02*
X163762857Y-31454819D01*
X163762857Y-31454819D02*
X163715238Y-31931009D01*
X163715238Y-31931009D02*
X163762857Y-31883390D01*
X163762857Y-31883390D02*
X163858095Y-31835771D01*
X163858095Y-31835771D02*
X164096190Y-31835771D01*
X164096190Y-31835771D02*
X164191428Y-31883390D01*
X164191428Y-31883390D02*
X164239047Y-31931009D01*
X164239047Y-31931009D02*
X164286666Y-32026247D01*
X164286666Y-32026247D02*
X164286666Y-32264342D01*
X164286666Y-32264342D02*
X164239047Y-32359580D01*
X164239047Y-32359580D02*
X164191428Y-32407200D01*
X164191428Y-32407200D02*
X164096190Y-32454819D01*
X164096190Y-32454819D02*
X163858095Y-32454819D01*
X163858095Y-32454819D02*
X163762857Y-32407200D01*
X163762857Y-32407200D02*
X163715238Y-32359580D01*
X107326666Y-131334819D02*
X107326666Y-132049104D01*
X107326666Y-132049104D02*
X107279047Y-132191961D01*
X107279047Y-132191961D02*
X107183809Y-132287200D01*
X107183809Y-132287200D02*
X107040952Y-132334819D01*
X107040952Y-132334819D02*
X106945714Y-132334819D01*
X107802857Y-132334819D02*
X107802857Y-131334819D01*
X107802857Y-131334819D02*
X108136190Y-132049104D01*
X108136190Y-132049104D02*
X108469523Y-131334819D01*
X108469523Y-131334819D02*
X108469523Y-132334819D01*
X108898095Y-132049104D02*
X109374285Y-132049104D01*
X108802857Y-132334819D02*
X109136190Y-131334819D01*
X109136190Y-131334819D02*
X109469523Y-132334819D01*
X109755238Y-131430057D02*
X109802857Y-131382438D01*
X109802857Y-131382438D02*
X109898095Y-131334819D01*
X109898095Y-131334819D02*
X110136190Y-131334819D01*
X110136190Y-131334819D02*
X110231428Y-131382438D01*
X110231428Y-131382438D02*
X110279047Y-131430057D01*
X110279047Y-131430057D02*
X110326666Y-131525295D01*
X110326666Y-131525295D02*
X110326666Y-131620533D01*
X110326666Y-131620533D02*
X110279047Y-131763390D01*
X110279047Y-131763390D02*
X109707619Y-132334819D01*
X109707619Y-132334819D02*
X110326666Y-132334819D01*
X131916666Y-29004819D02*
X131916666Y-29719104D01*
X131916666Y-29719104D02*
X131869047Y-29861961D01*
X131869047Y-29861961D02*
X131773809Y-29957200D01*
X131773809Y-29957200D02*
X131630952Y-30004819D01*
X131630952Y-30004819D02*
X131535714Y-30004819D01*
X132297619Y-29004819D02*
X132916666Y-29004819D01*
X132916666Y-29004819D02*
X132583333Y-29385771D01*
X132583333Y-29385771D02*
X132726190Y-29385771D01*
X132726190Y-29385771D02*
X132821428Y-29433390D01*
X132821428Y-29433390D02*
X132869047Y-29481009D01*
X132869047Y-29481009D02*
X132916666Y-29576247D01*
X132916666Y-29576247D02*
X132916666Y-29814342D01*
X132916666Y-29814342D02*
X132869047Y-29909580D01*
X132869047Y-29909580D02*
X132821428Y-29957200D01*
X132821428Y-29957200D02*
X132726190Y-30004819D01*
X132726190Y-30004819D02*
X132440476Y-30004819D01*
X132440476Y-30004819D02*
X132345238Y-29957200D01*
X132345238Y-29957200D02*
X132297619Y-29909580D01*
X71666666Y-43454819D02*
X71666666Y-44169104D01*
X71666666Y-44169104D02*
X71619047Y-44311961D01*
X71619047Y-44311961D02*
X71523809Y-44407200D01*
X71523809Y-44407200D02*
X71380952Y-44454819D01*
X71380952Y-44454819D02*
X71285714Y-44454819D01*
X72095238Y-43550057D02*
X72142857Y-43502438D01*
X72142857Y-43502438D02*
X72238095Y-43454819D01*
X72238095Y-43454819D02*
X72476190Y-43454819D01*
X72476190Y-43454819D02*
X72571428Y-43502438D01*
X72571428Y-43502438D02*
X72619047Y-43550057D01*
X72619047Y-43550057D02*
X72666666Y-43645295D01*
X72666666Y-43645295D02*
X72666666Y-43740533D01*
X72666666Y-43740533D02*
X72619047Y-43883390D01*
X72619047Y-43883390D02*
X72047619Y-44454819D01*
X72047619Y-44454819D02*
X72666666Y-44454819D01*
X140254761Y-98404819D02*
X139921428Y-97928628D01*
X139683333Y-98404819D02*
X139683333Y-97404819D01*
X139683333Y-97404819D02*
X140064285Y-97404819D01*
X140064285Y-97404819D02*
X140159523Y-97452438D01*
X140159523Y-97452438D02*
X140207142Y-97500057D01*
X140207142Y-97500057D02*
X140254761Y-97595295D01*
X140254761Y-97595295D02*
X140254761Y-97738152D01*
X140254761Y-97738152D02*
X140207142Y-97833390D01*
X140207142Y-97833390D02*
X140159523Y-97881009D01*
X140159523Y-97881009D02*
X140064285Y-97928628D01*
X140064285Y-97928628D02*
X139683333Y-97928628D01*
X140540476Y-97404819D02*
X140873809Y-98404819D01*
X140873809Y-98404819D02*
X141207142Y-97404819D01*
X141683333Y-97833390D02*
X141588095Y-97785771D01*
X141588095Y-97785771D02*
X141540476Y-97738152D01*
X141540476Y-97738152D02*
X141492857Y-97642914D01*
X141492857Y-97642914D02*
X141492857Y-97595295D01*
X141492857Y-97595295D02*
X141540476Y-97500057D01*
X141540476Y-97500057D02*
X141588095Y-97452438D01*
X141588095Y-97452438D02*
X141683333Y-97404819D01*
X141683333Y-97404819D02*
X141873809Y-97404819D01*
X141873809Y-97404819D02*
X141969047Y-97452438D01*
X141969047Y-97452438D02*
X142016666Y-97500057D01*
X142016666Y-97500057D02*
X142064285Y-97595295D01*
X142064285Y-97595295D02*
X142064285Y-97642914D01*
X142064285Y-97642914D02*
X142016666Y-97738152D01*
X142016666Y-97738152D02*
X141969047Y-97785771D01*
X141969047Y-97785771D02*
X141873809Y-97833390D01*
X141873809Y-97833390D02*
X141683333Y-97833390D01*
X141683333Y-97833390D02*
X141588095Y-97881009D01*
X141588095Y-97881009D02*
X141540476Y-97928628D01*
X141540476Y-97928628D02*
X141492857Y-98023866D01*
X141492857Y-98023866D02*
X141492857Y-98214342D01*
X141492857Y-98214342D02*
X141540476Y-98309580D01*
X141540476Y-98309580D02*
X141588095Y-98357200D01*
X141588095Y-98357200D02*
X141683333Y-98404819D01*
X141683333Y-98404819D02*
X141873809Y-98404819D01*
X141873809Y-98404819D02*
X141969047Y-98357200D01*
X141969047Y-98357200D02*
X142016666Y-98309580D01*
X142016666Y-98309580D02*
X142064285Y-98214342D01*
X142064285Y-98214342D02*
X142064285Y-98023866D01*
X142064285Y-98023866D02*
X142016666Y-97928628D01*
X142016666Y-97928628D02*
X141969047Y-97881009D01*
X141969047Y-97881009D02*
X141873809Y-97833390D01*
X63333333Y-100859580D02*
X63285714Y-100907200D01*
X63285714Y-100907200D02*
X63142857Y-100954819D01*
X63142857Y-100954819D02*
X63047619Y-100954819D01*
X63047619Y-100954819D02*
X62904762Y-100907200D01*
X62904762Y-100907200D02*
X62809524Y-100811961D01*
X62809524Y-100811961D02*
X62761905Y-100716723D01*
X62761905Y-100716723D02*
X62714286Y-100526247D01*
X62714286Y-100526247D02*
X62714286Y-100383390D01*
X62714286Y-100383390D02*
X62761905Y-100192914D01*
X62761905Y-100192914D02*
X62809524Y-100097676D01*
X62809524Y-100097676D02*
X62904762Y-100002438D01*
X62904762Y-100002438D02*
X63047619Y-99954819D01*
X63047619Y-99954819D02*
X63142857Y-99954819D01*
X63142857Y-99954819D02*
X63285714Y-100002438D01*
X63285714Y-100002438D02*
X63333333Y-100050057D01*
X64190476Y-99954819D02*
X64000000Y-99954819D01*
X64000000Y-99954819D02*
X63904762Y-100002438D01*
X63904762Y-100002438D02*
X63857143Y-100050057D01*
X63857143Y-100050057D02*
X63761905Y-100192914D01*
X63761905Y-100192914D02*
X63714286Y-100383390D01*
X63714286Y-100383390D02*
X63714286Y-100764342D01*
X63714286Y-100764342D02*
X63761905Y-100859580D01*
X63761905Y-100859580D02*
X63809524Y-100907200D01*
X63809524Y-100907200D02*
X63904762Y-100954819D01*
X63904762Y-100954819D02*
X64095238Y-100954819D01*
X64095238Y-100954819D02*
X64190476Y-100907200D01*
X64190476Y-100907200D02*
X64238095Y-100859580D01*
X64238095Y-100859580D02*
X64285714Y-100764342D01*
X64285714Y-100764342D02*
X64285714Y-100526247D01*
X64285714Y-100526247D02*
X64238095Y-100431009D01*
X64238095Y-100431009D02*
X64190476Y-100383390D01*
X64190476Y-100383390D02*
X64095238Y-100335771D01*
X64095238Y-100335771D02*
X63904762Y-100335771D01*
X63904762Y-100335771D02*
X63809524Y-100383390D01*
X63809524Y-100383390D02*
X63761905Y-100431009D01*
X63761905Y-100431009D02*
X63714286Y-100526247D01*
X94857142Y-124859580D02*
X94809523Y-124907200D01*
X94809523Y-124907200D02*
X94666666Y-124954819D01*
X94666666Y-124954819D02*
X94571428Y-124954819D01*
X94571428Y-124954819D02*
X94428571Y-124907200D01*
X94428571Y-124907200D02*
X94333333Y-124811961D01*
X94333333Y-124811961D02*
X94285714Y-124716723D01*
X94285714Y-124716723D02*
X94238095Y-124526247D01*
X94238095Y-124526247D02*
X94238095Y-124383390D01*
X94238095Y-124383390D02*
X94285714Y-124192914D01*
X94285714Y-124192914D02*
X94333333Y-124097676D01*
X94333333Y-124097676D02*
X94428571Y-124002438D01*
X94428571Y-124002438D02*
X94571428Y-123954819D01*
X94571428Y-123954819D02*
X94666666Y-123954819D01*
X94666666Y-123954819D02*
X94809523Y-124002438D01*
X94809523Y-124002438D02*
X94857142Y-124050057D01*
X95809523Y-124954819D02*
X95238095Y-124954819D01*
X95523809Y-124954819D02*
X95523809Y-123954819D01*
X95523809Y-123954819D02*
X95428571Y-124097676D01*
X95428571Y-124097676D02*
X95333333Y-124192914D01*
X95333333Y-124192914D02*
X95238095Y-124240533D01*
X96761904Y-124954819D02*
X96190476Y-124954819D01*
X96476190Y-124954819D02*
X96476190Y-123954819D01*
X96476190Y-123954819D02*
X96380952Y-124097676D01*
X96380952Y-124097676D02*
X96285714Y-124192914D01*
X96285714Y-124192914D02*
X96190476Y-124240533D01*
X182987142Y-55374819D02*
X182653809Y-54898628D01*
X182415714Y-55374819D02*
X182415714Y-54374819D01*
X182415714Y-54374819D02*
X182796666Y-54374819D01*
X182796666Y-54374819D02*
X182891904Y-54422438D01*
X182891904Y-54422438D02*
X182939523Y-54470057D01*
X182939523Y-54470057D02*
X182987142Y-54565295D01*
X182987142Y-54565295D02*
X182987142Y-54708152D01*
X182987142Y-54708152D02*
X182939523Y-54803390D01*
X182939523Y-54803390D02*
X182891904Y-54851009D01*
X182891904Y-54851009D02*
X182796666Y-54898628D01*
X182796666Y-54898628D02*
X182415714Y-54898628D01*
X183368095Y-54470057D02*
X183415714Y-54422438D01*
X183415714Y-54422438D02*
X183510952Y-54374819D01*
X183510952Y-54374819D02*
X183749047Y-54374819D01*
X183749047Y-54374819D02*
X183844285Y-54422438D01*
X183844285Y-54422438D02*
X183891904Y-54470057D01*
X183891904Y-54470057D02*
X183939523Y-54565295D01*
X183939523Y-54565295D02*
X183939523Y-54660533D01*
X183939523Y-54660533D02*
X183891904Y-54803390D01*
X183891904Y-54803390D02*
X183320476Y-55374819D01*
X183320476Y-55374819D02*
X183939523Y-55374819D01*
X184510952Y-54803390D02*
X184415714Y-54755771D01*
X184415714Y-54755771D02*
X184368095Y-54708152D01*
X184368095Y-54708152D02*
X184320476Y-54612914D01*
X184320476Y-54612914D02*
X184320476Y-54565295D01*
X184320476Y-54565295D02*
X184368095Y-54470057D01*
X184368095Y-54470057D02*
X184415714Y-54422438D01*
X184415714Y-54422438D02*
X184510952Y-54374819D01*
X184510952Y-54374819D02*
X184701428Y-54374819D01*
X184701428Y-54374819D02*
X184796666Y-54422438D01*
X184796666Y-54422438D02*
X184844285Y-54470057D01*
X184844285Y-54470057D02*
X184891904Y-54565295D01*
X184891904Y-54565295D02*
X184891904Y-54612914D01*
X184891904Y-54612914D02*
X184844285Y-54708152D01*
X184844285Y-54708152D02*
X184796666Y-54755771D01*
X184796666Y-54755771D02*
X184701428Y-54803390D01*
X184701428Y-54803390D02*
X184510952Y-54803390D01*
X184510952Y-54803390D02*
X184415714Y-54851009D01*
X184415714Y-54851009D02*
X184368095Y-54898628D01*
X184368095Y-54898628D02*
X184320476Y-54993866D01*
X184320476Y-54993866D02*
X184320476Y-55184342D01*
X184320476Y-55184342D02*
X184368095Y-55279580D01*
X184368095Y-55279580D02*
X184415714Y-55327200D01*
X184415714Y-55327200D02*
X184510952Y-55374819D01*
X184510952Y-55374819D02*
X184701428Y-55374819D01*
X184701428Y-55374819D02*
X184796666Y-55327200D01*
X184796666Y-55327200D02*
X184844285Y-55279580D01*
X184844285Y-55279580D02*
X184891904Y-55184342D01*
X184891904Y-55184342D02*
X184891904Y-54993866D01*
X184891904Y-54993866D02*
X184844285Y-54898628D01*
X184844285Y-54898628D02*
X184796666Y-54851009D01*
X184796666Y-54851009D02*
X184701428Y-54803390D01*
X107778571Y-122404819D02*
X107445238Y-121928628D01*
X107207143Y-122404819D02*
X107207143Y-121404819D01*
X107207143Y-121404819D02*
X107588095Y-121404819D01*
X107588095Y-121404819D02*
X107683333Y-121452438D01*
X107683333Y-121452438D02*
X107730952Y-121500057D01*
X107730952Y-121500057D02*
X107778571Y-121595295D01*
X107778571Y-121595295D02*
X107778571Y-121738152D01*
X107778571Y-121738152D02*
X107730952Y-121833390D01*
X107730952Y-121833390D02*
X107683333Y-121881009D01*
X107683333Y-121881009D02*
X107588095Y-121928628D01*
X107588095Y-121928628D02*
X107207143Y-121928628D01*
X108064286Y-121404819D02*
X108397619Y-122404819D01*
X108397619Y-122404819D02*
X108730952Y-121404819D01*
X109588095Y-122404819D02*
X109016667Y-122404819D01*
X109302381Y-122404819D02*
X109302381Y-121404819D01*
X109302381Y-121404819D02*
X109207143Y-121547676D01*
X109207143Y-121547676D02*
X109111905Y-121642914D01*
X109111905Y-121642914D02*
X109016667Y-121690533D01*
X110540476Y-122404819D02*
X109969048Y-122404819D01*
X110254762Y-122404819D02*
X110254762Y-121404819D01*
X110254762Y-121404819D02*
X110159524Y-121547676D01*
X110159524Y-121547676D02*
X110064286Y-121642914D01*
X110064286Y-121642914D02*
X109969048Y-121690533D01*
X61535238Y-131334819D02*
X61535238Y-132049104D01*
X61535238Y-132049104D02*
X61487619Y-132191961D01*
X61487619Y-132191961D02*
X61392381Y-132287200D01*
X61392381Y-132287200D02*
X61249524Y-132334819D01*
X61249524Y-132334819D02*
X61154286Y-132334819D01*
X62011429Y-132334819D02*
X62011429Y-131334819D01*
X62011429Y-131334819D02*
X62344762Y-132049104D01*
X62344762Y-132049104D02*
X62678095Y-131334819D01*
X62678095Y-131334819D02*
X62678095Y-132334819D01*
X63154286Y-132334819D02*
X63154286Y-131334819D01*
X63154286Y-131334819D02*
X63535238Y-131334819D01*
X63535238Y-131334819D02*
X63630476Y-131382438D01*
X63630476Y-131382438D02*
X63678095Y-131430057D01*
X63678095Y-131430057D02*
X63725714Y-131525295D01*
X63725714Y-131525295D02*
X63725714Y-131668152D01*
X63725714Y-131668152D02*
X63678095Y-131763390D01*
X63678095Y-131763390D02*
X63630476Y-131811009D01*
X63630476Y-131811009D02*
X63535238Y-131858628D01*
X63535238Y-131858628D02*
X63154286Y-131858628D01*
X64678095Y-132334819D02*
X64106667Y-132334819D01*
X64392381Y-132334819D02*
X64392381Y-131334819D01*
X64392381Y-131334819D02*
X64297143Y-131477676D01*
X64297143Y-131477676D02*
X64201905Y-131572914D01*
X64201905Y-131572914D02*
X64106667Y-131620533D01*
X39987142Y-155374819D02*
X39653809Y-154898628D01*
X39415714Y-155374819D02*
X39415714Y-154374819D01*
X39415714Y-154374819D02*
X39796666Y-154374819D01*
X39796666Y-154374819D02*
X39891904Y-154422438D01*
X39891904Y-154422438D02*
X39939523Y-154470057D01*
X39939523Y-154470057D02*
X39987142Y-154565295D01*
X39987142Y-154565295D02*
X39987142Y-154708152D01*
X39987142Y-154708152D02*
X39939523Y-154803390D01*
X39939523Y-154803390D02*
X39891904Y-154851009D01*
X39891904Y-154851009D02*
X39796666Y-154898628D01*
X39796666Y-154898628D02*
X39415714Y-154898628D01*
X40320476Y-154374819D02*
X40939523Y-154374819D01*
X40939523Y-154374819D02*
X40606190Y-154755771D01*
X40606190Y-154755771D02*
X40749047Y-154755771D01*
X40749047Y-154755771D02*
X40844285Y-154803390D01*
X40844285Y-154803390D02*
X40891904Y-154851009D01*
X40891904Y-154851009D02*
X40939523Y-154946247D01*
X40939523Y-154946247D02*
X40939523Y-155184342D01*
X40939523Y-155184342D02*
X40891904Y-155279580D01*
X40891904Y-155279580D02*
X40844285Y-155327200D01*
X40844285Y-155327200D02*
X40749047Y-155374819D01*
X40749047Y-155374819D02*
X40463333Y-155374819D01*
X40463333Y-155374819D02*
X40368095Y-155327200D01*
X40368095Y-155327200D02*
X40320476Y-155279580D01*
X41558571Y-154374819D02*
X41653809Y-154374819D01*
X41653809Y-154374819D02*
X41749047Y-154422438D01*
X41749047Y-154422438D02*
X41796666Y-154470057D01*
X41796666Y-154470057D02*
X41844285Y-154565295D01*
X41844285Y-154565295D02*
X41891904Y-154755771D01*
X41891904Y-154755771D02*
X41891904Y-154993866D01*
X41891904Y-154993866D02*
X41844285Y-155184342D01*
X41844285Y-155184342D02*
X41796666Y-155279580D01*
X41796666Y-155279580D02*
X41749047Y-155327200D01*
X41749047Y-155327200D02*
X41653809Y-155374819D01*
X41653809Y-155374819D02*
X41558571Y-155374819D01*
X41558571Y-155374819D02*
X41463333Y-155327200D01*
X41463333Y-155327200D02*
X41415714Y-155279580D01*
X41415714Y-155279580D02*
X41368095Y-155184342D01*
X41368095Y-155184342D02*
X41320476Y-154993866D01*
X41320476Y-154993866D02*
X41320476Y-154755771D01*
X41320476Y-154755771D02*
X41368095Y-154565295D01*
X41368095Y-154565295D02*
X41415714Y-154470057D01*
X41415714Y-154470057D02*
X41463333Y-154422438D01*
X41463333Y-154422438D02*
X41558571Y-154374819D01*
X84466666Y-131334819D02*
X84466666Y-132049104D01*
X84466666Y-132049104D02*
X84419047Y-132191961D01*
X84419047Y-132191961D02*
X84323809Y-132287200D01*
X84323809Y-132287200D02*
X84180952Y-132334819D01*
X84180952Y-132334819D02*
X84085714Y-132334819D01*
X84942857Y-132334819D02*
X84942857Y-131334819D01*
X84942857Y-131334819D02*
X85276190Y-132049104D01*
X85276190Y-132049104D02*
X85609523Y-131334819D01*
X85609523Y-131334819D02*
X85609523Y-132334819D01*
X86038095Y-132049104D02*
X86514285Y-132049104D01*
X85942857Y-132334819D02*
X86276190Y-131334819D01*
X86276190Y-131334819D02*
X86609523Y-132334819D01*
X87466666Y-132334819D02*
X86895238Y-132334819D01*
X87180952Y-132334819D02*
X87180952Y-131334819D01*
X87180952Y-131334819D02*
X87085714Y-131477676D01*
X87085714Y-131477676D02*
X86990476Y-131572914D01*
X86990476Y-131572914D02*
X86895238Y-131620533D01*
X183463333Y-79374819D02*
X183130000Y-78898628D01*
X182891905Y-79374819D02*
X182891905Y-78374819D01*
X182891905Y-78374819D02*
X183272857Y-78374819D01*
X183272857Y-78374819D02*
X183368095Y-78422438D01*
X183368095Y-78422438D02*
X183415714Y-78470057D01*
X183415714Y-78470057D02*
X183463333Y-78565295D01*
X183463333Y-78565295D02*
X183463333Y-78708152D01*
X183463333Y-78708152D02*
X183415714Y-78803390D01*
X183415714Y-78803390D02*
X183368095Y-78851009D01*
X183368095Y-78851009D02*
X183272857Y-78898628D01*
X183272857Y-78898628D02*
X182891905Y-78898628D01*
X184320476Y-78374819D02*
X184130000Y-78374819D01*
X184130000Y-78374819D02*
X184034762Y-78422438D01*
X184034762Y-78422438D02*
X183987143Y-78470057D01*
X183987143Y-78470057D02*
X183891905Y-78612914D01*
X183891905Y-78612914D02*
X183844286Y-78803390D01*
X183844286Y-78803390D02*
X183844286Y-79184342D01*
X183844286Y-79184342D02*
X183891905Y-79279580D01*
X183891905Y-79279580D02*
X183939524Y-79327200D01*
X183939524Y-79327200D02*
X184034762Y-79374819D01*
X184034762Y-79374819D02*
X184225238Y-79374819D01*
X184225238Y-79374819D02*
X184320476Y-79327200D01*
X184320476Y-79327200D02*
X184368095Y-79279580D01*
X184368095Y-79279580D02*
X184415714Y-79184342D01*
X184415714Y-79184342D02*
X184415714Y-78946247D01*
X184415714Y-78946247D02*
X184368095Y-78851009D01*
X184368095Y-78851009D02*
X184320476Y-78803390D01*
X184320476Y-78803390D02*
X184225238Y-78755771D01*
X184225238Y-78755771D02*
X184034762Y-78755771D01*
X184034762Y-78755771D02*
X183939524Y-78803390D01*
X183939524Y-78803390D02*
X183891905Y-78851009D01*
X183891905Y-78851009D02*
X183844286Y-78946247D01*
X97437142Y-144084819D02*
X97103809Y-143608628D01*
X96865714Y-144084819D02*
X96865714Y-143084819D01*
X96865714Y-143084819D02*
X97246666Y-143084819D01*
X97246666Y-143084819D02*
X97341904Y-143132438D01*
X97341904Y-143132438D02*
X97389523Y-143180057D01*
X97389523Y-143180057D02*
X97437142Y-143275295D01*
X97437142Y-143275295D02*
X97437142Y-143418152D01*
X97437142Y-143418152D02*
X97389523Y-143513390D01*
X97389523Y-143513390D02*
X97341904Y-143561009D01*
X97341904Y-143561009D02*
X97246666Y-143608628D01*
X97246666Y-143608628D02*
X96865714Y-143608628D01*
X97818095Y-143180057D02*
X97865714Y-143132438D01*
X97865714Y-143132438D02*
X97960952Y-143084819D01*
X97960952Y-143084819D02*
X98199047Y-143084819D01*
X98199047Y-143084819D02*
X98294285Y-143132438D01*
X98294285Y-143132438D02*
X98341904Y-143180057D01*
X98341904Y-143180057D02*
X98389523Y-143275295D01*
X98389523Y-143275295D02*
X98389523Y-143370533D01*
X98389523Y-143370533D02*
X98341904Y-143513390D01*
X98341904Y-143513390D02*
X97770476Y-144084819D01*
X97770476Y-144084819D02*
X98389523Y-144084819D01*
X98722857Y-143084819D02*
X99341904Y-143084819D01*
X99341904Y-143084819D02*
X99008571Y-143465771D01*
X99008571Y-143465771D02*
X99151428Y-143465771D01*
X99151428Y-143465771D02*
X99246666Y-143513390D01*
X99246666Y-143513390D02*
X99294285Y-143561009D01*
X99294285Y-143561009D02*
X99341904Y-143656247D01*
X99341904Y-143656247D02*
X99341904Y-143894342D01*
X99341904Y-143894342D02*
X99294285Y-143989580D01*
X99294285Y-143989580D02*
X99246666Y-144037200D01*
X99246666Y-144037200D02*
X99151428Y-144084819D01*
X99151428Y-144084819D02*
X98865714Y-144084819D01*
X98865714Y-144084819D02*
X98770476Y-144037200D01*
X98770476Y-144037200D02*
X98722857Y-143989580D01*
X161437142Y-144084819D02*
X161103809Y-143608628D01*
X160865714Y-144084819D02*
X160865714Y-143084819D01*
X160865714Y-143084819D02*
X161246666Y-143084819D01*
X161246666Y-143084819D02*
X161341904Y-143132438D01*
X161341904Y-143132438D02*
X161389523Y-143180057D01*
X161389523Y-143180057D02*
X161437142Y-143275295D01*
X161437142Y-143275295D02*
X161437142Y-143418152D01*
X161437142Y-143418152D02*
X161389523Y-143513390D01*
X161389523Y-143513390D02*
X161341904Y-143561009D01*
X161341904Y-143561009D02*
X161246666Y-143608628D01*
X161246666Y-143608628D02*
X160865714Y-143608628D01*
X161818095Y-143180057D02*
X161865714Y-143132438D01*
X161865714Y-143132438D02*
X161960952Y-143084819D01*
X161960952Y-143084819D02*
X162199047Y-143084819D01*
X162199047Y-143084819D02*
X162294285Y-143132438D01*
X162294285Y-143132438D02*
X162341904Y-143180057D01*
X162341904Y-143180057D02*
X162389523Y-143275295D01*
X162389523Y-143275295D02*
X162389523Y-143370533D01*
X162389523Y-143370533D02*
X162341904Y-143513390D01*
X162341904Y-143513390D02*
X161770476Y-144084819D01*
X161770476Y-144084819D02*
X162389523Y-144084819D01*
X163294285Y-143084819D02*
X162818095Y-143084819D01*
X162818095Y-143084819D02*
X162770476Y-143561009D01*
X162770476Y-143561009D02*
X162818095Y-143513390D01*
X162818095Y-143513390D02*
X162913333Y-143465771D01*
X162913333Y-143465771D02*
X163151428Y-143465771D01*
X163151428Y-143465771D02*
X163246666Y-143513390D01*
X163246666Y-143513390D02*
X163294285Y-143561009D01*
X163294285Y-143561009D02*
X163341904Y-143656247D01*
X163341904Y-143656247D02*
X163341904Y-143894342D01*
X163341904Y-143894342D02*
X163294285Y-143989580D01*
X163294285Y-143989580D02*
X163246666Y-144037200D01*
X163246666Y-144037200D02*
X163151428Y-144084819D01*
X163151428Y-144084819D02*
X162913333Y-144084819D01*
X162913333Y-144084819D02*
X162818095Y-144037200D01*
X162818095Y-144037200D02*
X162770476Y-143989580D01*
X76254761Y-74404819D02*
X75921428Y-73928628D01*
X75683333Y-74404819D02*
X75683333Y-73404819D01*
X75683333Y-73404819D02*
X76064285Y-73404819D01*
X76064285Y-73404819D02*
X76159523Y-73452438D01*
X76159523Y-73452438D02*
X76207142Y-73500057D01*
X76207142Y-73500057D02*
X76254761Y-73595295D01*
X76254761Y-73595295D02*
X76254761Y-73738152D01*
X76254761Y-73738152D02*
X76207142Y-73833390D01*
X76207142Y-73833390D02*
X76159523Y-73881009D01*
X76159523Y-73881009D02*
X76064285Y-73928628D01*
X76064285Y-73928628D02*
X75683333Y-73928628D01*
X76540476Y-73404819D02*
X76873809Y-74404819D01*
X76873809Y-74404819D02*
X77207142Y-73404819D01*
X77492857Y-73500057D02*
X77540476Y-73452438D01*
X77540476Y-73452438D02*
X77635714Y-73404819D01*
X77635714Y-73404819D02*
X77873809Y-73404819D01*
X77873809Y-73404819D02*
X77969047Y-73452438D01*
X77969047Y-73452438D02*
X78016666Y-73500057D01*
X78016666Y-73500057D02*
X78064285Y-73595295D01*
X78064285Y-73595295D02*
X78064285Y-73690533D01*
X78064285Y-73690533D02*
X78016666Y-73833390D01*
X78016666Y-73833390D02*
X77445238Y-74404819D01*
X77445238Y-74404819D02*
X78064285Y-74404819D01*
X75778571Y-122404819D02*
X75445238Y-121928628D01*
X75207143Y-122404819D02*
X75207143Y-121404819D01*
X75207143Y-121404819D02*
X75588095Y-121404819D01*
X75588095Y-121404819D02*
X75683333Y-121452438D01*
X75683333Y-121452438D02*
X75730952Y-121500057D01*
X75730952Y-121500057D02*
X75778571Y-121595295D01*
X75778571Y-121595295D02*
X75778571Y-121738152D01*
X75778571Y-121738152D02*
X75730952Y-121833390D01*
X75730952Y-121833390D02*
X75683333Y-121881009D01*
X75683333Y-121881009D02*
X75588095Y-121928628D01*
X75588095Y-121928628D02*
X75207143Y-121928628D01*
X76064286Y-121404819D02*
X76397619Y-122404819D01*
X76397619Y-122404819D02*
X76730952Y-121404819D01*
X77588095Y-122404819D02*
X77016667Y-122404819D01*
X77302381Y-122404819D02*
X77302381Y-121404819D01*
X77302381Y-121404819D02*
X77207143Y-121547676D01*
X77207143Y-121547676D02*
X77111905Y-121642914D01*
X77111905Y-121642914D02*
X77016667Y-121690533D01*
X78207143Y-121404819D02*
X78302381Y-121404819D01*
X78302381Y-121404819D02*
X78397619Y-121452438D01*
X78397619Y-121452438D02*
X78445238Y-121500057D01*
X78445238Y-121500057D02*
X78492857Y-121595295D01*
X78492857Y-121595295D02*
X78540476Y-121785771D01*
X78540476Y-121785771D02*
X78540476Y-122023866D01*
X78540476Y-122023866D02*
X78492857Y-122214342D01*
X78492857Y-122214342D02*
X78445238Y-122309580D01*
X78445238Y-122309580D02*
X78397619Y-122357200D01*
X78397619Y-122357200D02*
X78302381Y-122404819D01*
X78302381Y-122404819D02*
X78207143Y-122404819D01*
X78207143Y-122404819D02*
X78111905Y-122357200D01*
X78111905Y-122357200D02*
X78064286Y-122309580D01*
X78064286Y-122309580D02*
X78016667Y-122214342D01*
X78016667Y-122214342D02*
X77969048Y-122023866D01*
X77969048Y-122023866D02*
X77969048Y-121785771D01*
X77969048Y-121785771D02*
X78016667Y-121595295D01*
X78016667Y-121595295D02*
X78064286Y-121500057D01*
X78064286Y-121500057D02*
X78111905Y-121452438D01*
X78111905Y-121452438D02*
X78207143Y-121404819D01*
X38913333Y-63084819D02*
X38580000Y-62608628D01*
X38341905Y-63084819D02*
X38341905Y-62084819D01*
X38341905Y-62084819D02*
X38722857Y-62084819D01*
X38722857Y-62084819D02*
X38818095Y-62132438D01*
X38818095Y-62132438D02*
X38865714Y-62180057D01*
X38865714Y-62180057D02*
X38913333Y-62275295D01*
X38913333Y-62275295D02*
X38913333Y-62418152D01*
X38913333Y-62418152D02*
X38865714Y-62513390D01*
X38865714Y-62513390D02*
X38818095Y-62561009D01*
X38818095Y-62561009D02*
X38722857Y-62608628D01*
X38722857Y-62608628D02*
X38341905Y-62608628D01*
X39865714Y-63084819D02*
X39294286Y-63084819D01*
X39580000Y-63084819D02*
X39580000Y-62084819D01*
X39580000Y-62084819D02*
X39484762Y-62227676D01*
X39484762Y-62227676D02*
X39389524Y-62322914D01*
X39389524Y-62322914D02*
X39294286Y-62370533D01*
X183463333Y-127374819D02*
X183130000Y-126898628D01*
X182891905Y-127374819D02*
X182891905Y-126374819D01*
X182891905Y-126374819D02*
X183272857Y-126374819D01*
X183272857Y-126374819D02*
X183368095Y-126422438D01*
X183368095Y-126422438D02*
X183415714Y-126470057D01*
X183415714Y-126470057D02*
X183463333Y-126565295D01*
X183463333Y-126565295D02*
X183463333Y-126708152D01*
X183463333Y-126708152D02*
X183415714Y-126803390D01*
X183415714Y-126803390D02*
X183368095Y-126851009D01*
X183368095Y-126851009D02*
X183272857Y-126898628D01*
X183272857Y-126898628D02*
X182891905Y-126898628D01*
X184034762Y-126803390D02*
X183939524Y-126755771D01*
X183939524Y-126755771D02*
X183891905Y-126708152D01*
X183891905Y-126708152D02*
X183844286Y-126612914D01*
X183844286Y-126612914D02*
X183844286Y-126565295D01*
X183844286Y-126565295D02*
X183891905Y-126470057D01*
X183891905Y-126470057D02*
X183939524Y-126422438D01*
X183939524Y-126422438D02*
X184034762Y-126374819D01*
X184034762Y-126374819D02*
X184225238Y-126374819D01*
X184225238Y-126374819D02*
X184320476Y-126422438D01*
X184320476Y-126422438D02*
X184368095Y-126470057D01*
X184368095Y-126470057D02*
X184415714Y-126565295D01*
X184415714Y-126565295D02*
X184415714Y-126612914D01*
X184415714Y-126612914D02*
X184368095Y-126708152D01*
X184368095Y-126708152D02*
X184320476Y-126755771D01*
X184320476Y-126755771D02*
X184225238Y-126803390D01*
X184225238Y-126803390D02*
X184034762Y-126803390D01*
X184034762Y-126803390D02*
X183939524Y-126851009D01*
X183939524Y-126851009D02*
X183891905Y-126898628D01*
X183891905Y-126898628D02*
X183844286Y-126993866D01*
X183844286Y-126993866D02*
X183844286Y-127184342D01*
X183844286Y-127184342D02*
X183891905Y-127279580D01*
X183891905Y-127279580D02*
X183939524Y-127327200D01*
X183939524Y-127327200D02*
X184034762Y-127374819D01*
X184034762Y-127374819D02*
X184225238Y-127374819D01*
X184225238Y-127374819D02*
X184320476Y-127327200D01*
X184320476Y-127327200D02*
X184368095Y-127279580D01*
X184368095Y-127279580D02*
X184415714Y-127184342D01*
X184415714Y-127184342D02*
X184415714Y-126993866D01*
X184415714Y-126993866D02*
X184368095Y-126898628D01*
X184368095Y-126898628D02*
X184320476Y-126851009D01*
X184320476Y-126851009D02*
X184225238Y-126803390D01*
X95333333Y-100859580D02*
X95285714Y-100907200D01*
X95285714Y-100907200D02*
X95142857Y-100954819D01*
X95142857Y-100954819D02*
X95047619Y-100954819D01*
X95047619Y-100954819D02*
X94904762Y-100907200D01*
X94904762Y-100907200D02*
X94809524Y-100811961D01*
X94809524Y-100811961D02*
X94761905Y-100716723D01*
X94761905Y-100716723D02*
X94714286Y-100526247D01*
X94714286Y-100526247D02*
X94714286Y-100383390D01*
X94714286Y-100383390D02*
X94761905Y-100192914D01*
X94761905Y-100192914D02*
X94809524Y-100097676D01*
X94809524Y-100097676D02*
X94904762Y-100002438D01*
X94904762Y-100002438D02*
X95047619Y-99954819D01*
X95047619Y-99954819D02*
X95142857Y-99954819D01*
X95142857Y-99954819D02*
X95285714Y-100002438D01*
X95285714Y-100002438D02*
X95333333Y-100050057D01*
X95666667Y-99954819D02*
X96333333Y-99954819D01*
X96333333Y-99954819D02*
X95904762Y-100954819D01*
X76254761Y-98404819D02*
X75921428Y-97928628D01*
X75683333Y-98404819D02*
X75683333Y-97404819D01*
X75683333Y-97404819D02*
X76064285Y-97404819D01*
X76064285Y-97404819D02*
X76159523Y-97452438D01*
X76159523Y-97452438D02*
X76207142Y-97500057D01*
X76207142Y-97500057D02*
X76254761Y-97595295D01*
X76254761Y-97595295D02*
X76254761Y-97738152D01*
X76254761Y-97738152D02*
X76207142Y-97833390D01*
X76207142Y-97833390D02*
X76159523Y-97881009D01*
X76159523Y-97881009D02*
X76064285Y-97928628D01*
X76064285Y-97928628D02*
X75683333Y-97928628D01*
X76540476Y-97404819D02*
X76873809Y-98404819D01*
X76873809Y-98404819D02*
X77207142Y-97404819D01*
X77969047Y-97404819D02*
X77778571Y-97404819D01*
X77778571Y-97404819D02*
X77683333Y-97452438D01*
X77683333Y-97452438D02*
X77635714Y-97500057D01*
X77635714Y-97500057D02*
X77540476Y-97642914D01*
X77540476Y-97642914D02*
X77492857Y-97833390D01*
X77492857Y-97833390D02*
X77492857Y-98214342D01*
X77492857Y-98214342D02*
X77540476Y-98309580D01*
X77540476Y-98309580D02*
X77588095Y-98357200D01*
X77588095Y-98357200D02*
X77683333Y-98404819D01*
X77683333Y-98404819D02*
X77873809Y-98404819D01*
X77873809Y-98404819D02*
X77969047Y-98357200D01*
X77969047Y-98357200D02*
X78016666Y-98309580D01*
X78016666Y-98309580D02*
X78064285Y-98214342D01*
X78064285Y-98214342D02*
X78064285Y-97976247D01*
X78064285Y-97976247D02*
X78016666Y-97881009D01*
X78016666Y-97881009D02*
X77969047Y-97833390D01*
X77969047Y-97833390D02*
X77873809Y-97785771D01*
X77873809Y-97785771D02*
X77683333Y-97785771D01*
X77683333Y-97785771D02*
X77588095Y-97833390D01*
X77588095Y-97833390D02*
X77540476Y-97881009D01*
X77540476Y-97881009D02*
X77492857Y-97976247D01*
X153841905Y-49984819D02*
X153841905Y-48984819D01*
X153841905Y-48984819D02*
X154080000Y-48984819D01*
X154080000Y-48984819D02*
X154222857Y-49032438D01*
X154222857Y-49032438D02*
X154318095Y-49127676D01*
X154318095Y-49127676D02*
X154365714Y-49222914D01*
X154365714Y-49222914D02*
X154413333Y-49413390D01*
X154413333Y-49413390D02*
X154413333Y-49556247D01*
X154413333Y-49556247D02*
X154365714Y-49746723D01*
X154365714Y-49746723D02*
X154318095Y-49841961D01*
X154318095Y-49841961D02*
X154222857Y-49937200D01*
X154222857Y-49937200D02*
X154080000Y-49984819D01*
X154080000Y-49984819D02*
X153841905Y-49984819D01*
X154794286Y-49080057D02*
X154841905Y-49032438D01*
X154841905Y-49032438D02*
X154937143Y-48984819D01*
X154937143Y-48984819D02*
X155175238Y-48984819D01*
X155175238Y-48984819D02*
X155270476Y-49032438D01*
X155270476Y-49032438D02*
X155318095Y-49080057D01*
X155318095Y-49080057D02*
X155365714Y-49175295D01*
X155365714Y-49175295D02*
X155365714Y-49270533D01*
X155365714Y-49270533D02*
X155318095Y-49413390D01*
X155318095Y-49413390D02*
X154746667Y-49984819D01*
X154746667Y-49984819D02*
X155365714Y-49984819D01*
X155794286Y-49984819D02*
X155794286Y-48984819D01*
X155794286Y-48984819D02*
X156032381Y-48984819D01*
X156032381Y-48984819D02*
X156175238Y-49032438D01*
X156175238Y-49032438D02*
X156270476Y-49127676D01*
X156270476Y-49127676D02*
X156318095Y-49222914D01*
X156318095Y-49222914D02*
X156365714Y-49413390D01*
X156365714Y-49413390D02*
X156365714Y-49556247D01*
X156365714Y-49556247D02*
X156318095Y-49746723D01*
X156318095Y-49746723D02*
X156270476Y-49841961D01*
X156270476Y-49841961D02*
X156175238Y-49937200D01*
X156175238Y-49937200D02*
X156032381Y-49984819D01*
X156032381Y-49984819D02*
X155794286Y-49984819D01*
X149738095Y-50354819D02*
X149738095Y-49354819D01*
X150309523Y-50354819D02*
X149880952Y-49783390D01*
X150309523Y-49354819D02*
X149738095Y-49926247D01*
X35531905Y-97494819D02*
X35531905Y-96494819D01*
X35531905Y-96494819D02*
X35770000Y-96494819D01*
X35770000Y-96494819D02*
X35912857Y-96542438D01*
X35912857Y-96542438D02*
X36008095Y-96637676D01*
X36008095Y-96637676D02*
X36055714Y-96732914D01*
X36055714Y-96732914D02*
X36103333Y-96923390D01*
X36103333Y-96923390D02*
X36103333Y-97066247D01*
X36103333Y-97066247D02*
X36055714Y-97256723D01*
X36055714Y-97256723D02*
X36008095Y-97351961D01*
X36008095Y-97351961D02*
X35912857Y-97447200D01*
X35912857Y-97447200D02*
X35770000Y-97494819D01*
X35770000Y-97494819D02*
X35531905Y-97494819D01*
X36674762Y-96923390D02*
X36579524Y-96875771D01*
X36579524Y-96875771D02*
X36531905Y-96828152D01*
X36531905Y-96828152D02*
X36484286Y-96732914D01*
X36484286Y-96732914D02*
X36484286Y-96685295D01*
X36484286Y-96685295D02*
X36531905Y-96590057D01*
X36531905Y-96590057D02*
X36579524Y-96542438D01*
X36579524Y-96542438D02*
X36674762Y-96494819D01*
X36674762Y-96494819D02*
X36865238Y-96494819D01*
X36865238Y-96494819D02*
X36960476Y-96542438D01*
X36960476Y-96542438D02*
X37008095Y-96590057D01*
X37008095Y-96590057D02*
X37055714Y-96685295D01*
X37055714Y-96685295D02*
X37055714Y-96732914D01*
X37055714Y-96732914D02*
X37008095Y-96828152D01*
X37008095Y-96828152D02*
X36960476Y-96875771D01*
X36960476Y-96875771D02*
X36865238Y-96923390D01*
X36865238Y-96923390D02*
X36674762Y-96923390D01*
X36674762Y-96923390D02*
X36579524Y-96971009D01*
X36579524Y-96971009D02*
X36531905Y-97018628D01*
X36531905Y-97018628D02*
X36484286Y-97113866D01*
X36484286Y-97113866D02*
X36484286Y-97304342D01*
X36484286Y-97304342D02*
X36531905Y-97399580D01*
X36531905Y-97399580D02*
X36579524Y-97447200D01*
X36579524Y-97447200D02*
X36674762Y-97494819D01*
X36674762Y-97494819D02*
X36865238Y-97494819D01*
X36865238Y-97494819D02*
X36960476Y-97447200D01*
X36960476Y-97447200D02*
X37008095Y-97399580D01*
X37008095Y-97399580D02*
X37055714Y-97304342D01*
X37055714Y-97304342D02*
X37055714Y-97113866D01*
X37055714Y-97113866D02*
X37008095Y-97018628D01*
X37008095Y-97018628D02*
X36960476Y-96971009D01*
X36960476Y-96971009D02*
X36865238Y-96923390D01*
X107778571Y-146404819D02*
X107445238Y-145928628D01*
X107207143Y-146404819D02*
X107207143Y-145404819D01*
X107207143Y-145404819D02*
X107588095Y-145404819D01*
X107588095Y-145404819D02*
X107683333Y-145452438D01*
X107683333Y-145452438D02*
X107730952Y-145500057D01*
X107730952Y-145500057D02*
X107778571Y-145595295D01*
X107778571Y-145595295D02*
X107778571Y-145738152D01*
X107778571Y-145738152D02*
X107730952Y-145833390D01*
X107730952Y-145833390D02*
X107683333Y-145881009D01*
X107683333Y-145881009D02*
X107588095Y-145928628D01*
X107588095Y-145928628D02*
X107207143Y-145928628D01*
X108064286Y-145404819D02*
X108397619Y-146404819D01*
X108397619Y-146404819D02*
X108730952Y-145404819D01*
X109588095Y-146404819D02*
X109016667Y-146404819D01*
X109302381Y-146404819D02*
X109302381Y-145404819D01*
X109302381Y-145404819D02*
X109207143Y-145547676D01*
X109207143Y-145547676D02*
X109111905Y-145642914D01*
X109111905Y-145642914D02*
X109016667Y-145690533D01*
X110492857Y-145404819D02*
X110016667Y-145404819D01*
X110016667Y-145404819D02*
X109969048Y-145881009D01*
X109969048Y-145881009D02*
X110016667Y-145833390D01*
X110016667Y-145833390D02*
X110111905Y-145785771D01*
X110111905Y-145785771D02*
X110350000Y-145785771D01*
X110350000Y-145785771D02*
X110445238Y-145833390D01*
X110445238Y-145833390D02*
X110492857Y-145881009D01*
X110492857Y-145881009D02*
X110540476Y-145976247D01*
X110540476Y-145976247D02*
X110540476Y-146214342D01*
X110540476Y-146214342D02*
X110492857Y-146309580D01*
X110492857Y-146309580D02*
X110445238Y-146357200D01*
X110445238Y-146357200D02*
X110350000Y-146404819D01*
X110350000Y-146404819D02*
X110111905Y-146404819D01*
X110111905Y-146404819D02*
X110016667Y-146357200D01*
X110016667Y-146357200D02*
X109969048Y-146309580D01*
X108254761Y-98404819D02*
X107921428Y-97928628D01*
X107683333Y-98404819D02*
X107683333Y-97404819D01*
X107683333Y-97404819D02*
X108064285Y-97404819D01*
X108064285Y-97404819D02*
X108159523Y-97452438D01*
X108159523Y-97452438D02*
X108207142Y-97500057D01*
X108207142Y-97500057D02*
X108254761Y-97595295D01*
X108254761Y-97595295D02*
X108254761Y-97738152D01*
X108254761Y-97738152D02*
X108207142Y-97833390D01*
X108207142Y-97833390D02*
X108159523Y-97881009D01*
X108159523Y-97881009D02*
X108064285Y-97928628D01*
X108064285Y-97928628D02*
X107683333Y-97928628D01*
X108540476Y-97404819D02*
X108873809Y-98404819D01*
X108873809Y-98404819D02*
X109207142Y-97404819D01*
X109445238Y-97404819D02*
X110111904Y-97404819D01*
X110111904Y-97404819D02*
X109683333Y-98404819D01*
X63333333Y-76859580D02*
X63285714Y-76907200D01*
X63285714Y-76907200D02*
X63142857Y-76954819D01*
X63142857Y-76954819D02*
X63047619Y-76954819D01*
X63047619Y-76954819D02*
X62904762Y-76907200D01*
X62904762Y-76907200D02*
X62809524Y-76811961D01*
X62809524Y-76811961D02*
X62761905Y-76716723D01*
X62761905Y-76716723D02*
X62714286Y-76526247D01*
X62714286Y-76526247D02*
X62714286Y-76383390D01*
X62714286Y-76383390D02*
X62761905Y-76192914D01*
X62761905Y-76192914D02*
X62809524Y-76097676D01*
X62809524Y-76097676D02*
X62904762Y-76002438D01*
X62904762Y-76002438D02*
X63047619Y-75954819D01*
X63047619Y-75954819D02*
X63142857Y-75954819D01*
X63142857Y-75954819D02*
X63285714Y-76002438D01*
X63285714Y-76002438D02*
X63333333Y-76050057D01*
X63714286Y-76050057D02*
X63761905Y-76002438D01*
X63761905Y-76002438D02*
X63857143Y-75954819D01*
X63857143Y-75954819D02*
X64095238Y-75954819D01*
X64095238Y-75954819D02*
X64190476Y-76002438D01*
X64190476Y-76002438D02*
X64238095Y-76050057D01*
X64238095Y-76050057D02*
X64285714Y-76145295D01*
X64285714Y-76145295D02*
X64285714Y-76240533D01*
X64285714Y-76240533D02*
X64238095Y-76383390D01*
X64238095Y-76383390D02*
X63666667Y-76954819D01*
X63666667Y-76954819D02*
X64285714Y-76954819D01*
X139778571Y-122404819D02*
X139445238Y-121928628D01*
X139207143Y-122404819D02*
X139207143Y-121404819D01*
X139207143Y-121404819D02*
X139588095Y-121404819D01*
X139588095Y-121404819D02*
X139683333Y-121452438D01*
X139683333Y-121452438D02*
X139730952Y-121500057D01*
X139730952Y-121500057D02*
X139778571Y-121595295D01*
X139778571Y-121595295D02*
X139778571Y-121738152D01*
X139778571Y-121738152D02*
X139730952Y-121833390D01*
X139730952Y-121833390D02*
X139683333Y-121881009D01*
X139683333Y-121881009D02*
X139588095Y-121928628D01*
X139588095Y-121928628D02*
X139207143Y-121928628D01*
X140064286Y-121404819D02*
X140397619Y-122404819D01*
X140397619Y-122404819D02*
X140730952Y-121404819D01*
X141588095Y-122404819D02*
X141016667Y-122404819D01*
X141302381Y-122404819D02*
X141302381Y-121404819D01*
X141302381Y-121404819D02*
X141207143Y-121547676D01*
X141207143Y-121547676D02*
X141111905Y-121642914D01*
X141111905Y-121642914D02*
X141016667Y-121690533D01*
X141969048Y-121500057D02*
X142016667Y-121452438D01*
X142016667Y-121452438D02*
X142111905Y-121404819D01*
X142111905Y-121404819D02*
X142350000Y-121404819D01*
X142350000Y-121404819D02*
X142445238Y-121452438D01*
X142445238Y-121452438D02*
X142492857Y-121500057D01*
X142492857Y-121500057D02*
X142540476Y-121595295D01*
X142540476Y-121595295D02*
X142540476Y-121690533D01*
X142540476Y-121690533D02*
X142492857Y-121833390D01*
X142492857Y-121833390D02*
X141921429Y-122404819D01*
X141921429Y-122404819D02*
X142540476Y-122404819D01*
X178531905Y-153494819D02*
X178531905Y-152494819D01*
X178531905Y-152494819D02*
X178770000Y-152494819D01*
X178770000Y-152494819D02*
X178912857Y-152542438D01*
X178912857Y-152542438D02*
X179008095Y-152637676D01*
X179008095Y-152637676D02*
X179055714Y-152732914D01*
X179055714Y-152732914D02*
X179103333Y-152923390D01*
X179103333Y-152923390D02*
X179103333Y-153066247D01*
X179103333Y-153066247D02*
X179055714Y-153256723D01*
X179055714Y-153256723D02*
X179008095Y-153351961D01*
X179008095Y-153351961D02*
X178912857Y-153447200D01*
X178912857Y-153447200D02*
X178770000Y-153494819D01*
X178770000Y-153494819D02*
X178531905Y-153494819D01*
X179960476Y-152494819D02*
X179770000Y-152494819D01*
X179770000Y-152494819D02*
X179674762Y-152542438D01*
X179674762Y-152542438D02*
X179627143Y-152590057D01*
X179627143Y-152590057D02*
X179531905Y-152732914D01*
X179531905Y-152732914D02*
X179484286Y-152923390D01*
X179484286Y-152923390D02*
X179484286Y-153304342D01*
X179484286Y-153304342D02*
X179531905Y-153399580D01*
X179531905Y-153399580D02*
X179579524Y-153447200D01*
X179579524Y-153447200D02*
X179674762Y-153494819D01*
X179674762Y-153494819D02*
X179865238Y-153494819D01*
X179865238Y-153494819D02*
X179960476Y-153447200D01*
X179960476Y-153447200D02*
X180008095Y-153399580D01*
X180008095Y-153399580D02*
X180055714Y-153304342D01*
X180055714Y-153304342D02*
X180055714Y-153066247D01*
X180055714Y-153066247D02*
X180008095Y-152971009D01*
X180008095Y-152971009D02*
X179960476Y-152923390D01*
X179960476Y-152923390D02*
X179865238Y-152875771D01*
X179865238Y-152875771D02*
X179674762Y-152875771D01*
X179674762Y-152875771D02*
X179579524Y-152923390D01*
X179579524Y-152923390D02*
X179531905Y-152971009D01*
X179531905Y-152971009D02*
X179484286Y-153066247D01*
X65437142Y-72084819D02*
X65103809Y-71608628D01*
X64865714Y-72084819D02*
X64865714Y-71084819D01*
X64865714Y-71084819D02*
X65246666Y-71084819D01*
X65246666Y-71084819D02*
X65341904Y-71132438D01*
X65341904Y-71132438D02*
X65389523Y-71180057D01*
X65389523Y-71180057D02*
X65437142Y-71275295D01*
X65437142Y-71275295D02*
X65437142Y-71418152D01*
X65437142Y-71418152D02*
X65389523Y-71513390D01*
X65389523Y-71513390D02*
X65341904Y-71561009D01*
X65341904Y-71561009D02*
X65246666Y-71608628D01*
X65246666Y-71608628D02*
X64865714Y-71608628D01*
X66389523Y-72084819D02*
X65818095Y-72084819D01*
X66103809Y-72084819D02*
X66103809Y-71084819D01*
X66103809Y-71084819D02*
X66008571Y-71227676D01*
X66008571Y-71227676D02*
X65913333Y-71322914D01*
X65913333Y-71322914D02*
X65818095Y-71370533D01*
X67008571Y-71084819D02*
X67103809Y-71084819D01*
X67103809Y-71084819D02*
X67199047Y-71132438D01*
X67199047Y-71132438D02*
X67246666Y-71180057D01*
X67246666Y-71180057D02*
X67294285Y-71275295D01*
X67294285Y-71275295D02*
X67341904Y-71465771D01*
X67341904Y-71465771D02*
X67341904Y-71703866D01*
X67341904Y-71703866D02*
X67294285Y-71894342D01*
X67294285Y-71894342D02*
X67246666Y-71989580D01*
X67246666Y-71989580D02*
X67199047Y-72037200D01*
X67199047Y-72037200D02*
X67103809Y-72084819D01*
X67103809Y-72084819D02*
X67008571Y-72084819D01*
X67008571Y-72084819D02*
X66913333Y-72037200D01*
X66913333Y-72037200D02*
X66865714Y-71989580D01*
X66865714Y-71989580D02*
X66818095Y-71894342D01*
X66818095Y-71894342D02*
X66770476Y-71703866D01*
X66770476Y-71703866D02*
X66770476Y-71465771D01*
X66770476Y-71465771D02*
X66818095Y-71275295D01*
X66818095Y-71275295D02*
X66865714Y-71180057D01*
X66865714Y-71180057D02*
X66913333Y-71132438D01*
X66913333Y-71132438D02*
X67008571Y-71084819D01*
X178531905Y-81494819D02*
X178531905Y-80494819D01*
X178531905Y-80494819D02*
X178770000Y-80494819D01*
X178770000Y-80494819D02*
X178912857Y-80542438D01*
X178912857Y-80542438D02*
X179008095Y-80637676D01*
X179008095Y-80637676D02*
X179055714Y-80732914D01*
X179055714Y-80732914D02*
X179103333Y-80923390D01*
X179103333Y-80923390D02*
X179103333Y-81066247D01*
X179103333Y-81066247D02*
X179055714Y-81256723D01*
X179055714Y-81256723D02*
X179008095Y-81351961D01*
X179008095Y-81351961D02*
X178912857Y-81447200D01*
X178912857Y-81447200D02*
X178770000Y-81494819D01*
X178770000Y-81494819D02*
X178531905Y-81494819D01*
X179436667Y-80494819D02*
X180055714Y-80494819D01*
X180055714Y-80494819D02*
X179722381Y-80875771D01*
X179722381Y-80875771D02*
X179865238Y-80875771D01*
X179865238Y-80875771D02*
X179960476Y-80923390D01*
X179960476Y-80923390D02*
X180008095Y-80971009D01*
X180008095Y-80971009D02*
X180055714Y-81066247D01*
X180055714Y-81066247D02*
X180055714Y-81304342D01*
X180055714Y-81304342D02*
X180008095Y-81399580D01*
X180008095Y-81399580D02*
X179960476Y-81447200D01*
X179960476Y-81447200D02*
X179865238Y-81494819D01*
X179865238Y-81494819D02*
X179579524Y-81494819D01*
X179579524Y-81494819D02*
X179484286Y-81447200D01*
X179484286Y-81447200D02*
X179436667Y-81399580D01*
X169916667Y-58407200D02*
X170059524Y-58454819D01*
X170059524Y-58454819D02*
X170297619Y-58454819D01*
X170297619Y-58454819D02*
X170392857Y-58407200D01*
X170392857Y-58407200D02*
X170440476Y-58359580D01*
X170440476Y-58359580D02*
X170488095Y-58264342D01*
X170488095Y-58264342D02*
X170488095Y-58169104D01*
X170488095Y-58169104D02*
X170440476Y-58073866D01*
X170440476Y-58073866D02*
X170392857Y-58026247D01*
X170392857Y-58026247D02*
X170297619Y-57978628D01*
X170297619Y-57978628D02*
X170107143Y-57931009D01*
X170107143Y-57931009D02*
X170011905Y-57883390D01*
X170011905Y-57883390D02*
X169964286Y-57835771D01*
X169964286Y-57835771D02*
X169916667Y-57740533D01*
X169916667Y-57740533D02*
X169916667Y-57645295D01*
X169916667Y-57645295D02*
X169964286Y-57550057D01*
X169964286Y-57550057D02*
X170011905Y-57502438D01*
X170011905Y-57502438D02*
X170107143Y-57454819D01*
X170107143Y-57454819D02*
X170345238Y-57454819D01*
X170345238Y-57454819D02*
X170488095Y-57502438D01*
X170821429Y-57454819D02*
X171059524Y-58454819D01*
X171059524Y-58454819D02*
X171250000Y-57740533D01*
X171250000Y-57740533D02*
X171440476Y-58454819D01*
X171440476Y-58454819D02*
X171678572Y-57454819D01*
X172488095Y-57454819D02*
X172297619Y-57454819D01*
X172297619Y-57454819D02*
X172202381Y-57502438D01*
X172202381Y-57502438D02*
X172154762Y-57550057D01*
X172154762Y-57550057D02*
X172059524Y-57692914D01*
X172059524Y-57692914D02*
X172011905Y-57883390D01*
X172011905Y-57883390D02*
X172011905Y-58264342D01*
X172011905Y-58264342D02*
X172059524Y-58359580D01*
X172059524Y-58359580D02*
X172107143Y-58407200D01*
X172107143Y-58407200D02*
X172202381Y-58454819D01*
X172202381Y-58454819D02*
X172392857Y-58454819D01*
X172392857Y-58454819D02*
X172488095Y-58407200D01*
X172488095Y-58407200D02*
X172535714Y-58359580D01*
X172535714Y-58359580D02*
X172583333Y-58264342D01*
X172583333Y-58264342D02*
X172583333Y-58026247D01*
X172583333Y-58026247D02*
X172535714Y-57931009D01*
X172535714Y-57931009D02*
X172488095Y-57883390D01*
X172488095Y-57883390D02*
X172392857Y-57835771D01*
X172392857Y-57835771D02*
X172202381Y-57835771D01*
X172202381Y-57835771D02*
X172107143Y-57883390D01*
X172107143Y-57883390D02*
X172059524Y-57931009D01*
X172059524Y-57931009D02*
X172011905Y-58026247D01*
X75778571Y-146404819D02*
X75445238Y-145928628D01*
X75207143Y-146404819D02*
X75207143Y-145404819D01*
X75207143Y-145404819D02*
X75588095Y-145404819D01*
X75588095Y-145404819D02*
X75683333Y-145452438D01*
X75683333Y-145452438D02*
X75730952Y-145500057D01*
X75730952Y-145500057D02*
X75778571Y-145595295D01*
X75778571Y-145595295D02*
X75778571Y-145738152D01*
X75778571Y-145738152D02*
X75730952Y-145833390D01*
X75730952Y-145833390D02*
X75683333Y-145881009D01*
X75683333Y-145881009D02*
X75588095Y-145928628D01*
X75588095Y-145928628D02*
X75207143Y-145928628D01*
X76064286Y-145404819D02*
X76397619Y-146404819D01*
X76397619Y-146404819D02*
X76730952Y-145404819D01*
X77588095Y-146404819D02*
X77016667Y-146404819D01*
X77302381Y-146404819D02*
X77302381Y-145404819D01*
X77302381Y-145404819D02*
X77207143Y-145547676D01*
X77207143Y-145547676D02*
X77111905Y-145642914D01*
X77111905Y-145642914D02*
X77016667Y-145690533D01*
X78445238Y-145738152D02*
X78445238Y-146404819D01*
X78207143Y-145357200D02*
X77969048Y-146071485D01*
X77969048Y-146071485D02*
X78588095Y-146071485D01*
X96913333Y-64084819D02*
X96580000Y-63608628D01*
X96341905Y-64084819D02*
X96341905Y-63084819D01*
X96341905Y-63084819D02*
X96722857Y-63084819D01*
X96722857Y-63084819D02*
X96818095Y-63132438D01*
X96818095Y-63132438D02*
X96865714Y-63180057D01*
X96865714Y-63180057D02*
X96913333Y-63275295D01*
X96913333Y-63275295D02*
X96913333Y-63418152D01*
X96913333Y-63418152D02*
X96865714Y-63513390D01*
X96865714Y-63513390D02*
X96818095Y-63561009D01*
X96818095Y-63561009D02*
X96722857Y-63608628D01*
X96722857Y-63608628D02*
X96341905Y-63608628D01*
X97246667Y-63084819D02*
X97865714Y-63084819D01*
X97865714Y-63084819D02*
X97532381Y-63465771D01*
X97532381Y-63465771D02*
X97675238Y-63465771D01*
X97675238Y-63465771D02*
X97770476Y-63513390D01*
X97770476Y-63513390D02*
X97818095Y-63561009D01*
X97818095Y-63561009D02*
X97865714Y-63656247D01*
X97865714Y-63656247D02*
X97865714Y-63894342D01*
X97865714Y-63894342D02*
X97818095Y-63989580D01*
X97818095Y-63989580D02*
X97770476Y-64037200D01*
X97770476Y-64037200D02*
X97675238Y-64084819D01*
X97675238Y-64084819D02*
X97389524Y-64084819D01*
X97389524Y-64084819D02*
X97294286Y-64037200D01*
X97294286Y-64037200D02*
X97246667Y-63989580D01*
X183463333Y-103374819D02*
X183130000Y-102898628D01*
X182891905Y-103374819D02*
X182891905Y-102374819D01*
X182891905Y-102374819D02*
X183272857Y-102374819D01*
X183272857Y-102374819D02*
X183368095Y-102422438D01*
X183368095Y-102422438D02*
X183415714Y-102470057D01*
X183415714Y-102470057D02*
X183463333Y-102565295D01*
X183463333Y-102565295D02*
X183463333Y-102708152D01*
X183463333Y-102708152D02*
X183415714Y-102803390D01*
X183415714Y-102803390D02*
X183368095Y-102851009D01*
X183368095Y-102851009D02*
X183272857Y-102898628D01*
X183272857Y-102898628D02*
X182891905Y-102898628D01*
X183796667Y-102374819D02*
X184463333Y-102374819D01*
X184463333Y-102374819D02*
X184034762Y-103374819D01*
X133286666Y-59454819D02*
X133286666Y-60169104D01*
X133286666Y-60169104D02*
X133239047Y-60311961D01*
X133239047Y-60311961D02*
X133143809Y-60407200D01*
X133143809Y-60407200D02*
X133000952Y-60454819D01*
X133000952Y-60454819D02*
X132905714Y-60454819D01*
X134191428Y-59788152D02*
X134191428Y-60454819D01*
X133953333Y-59407200D02*
X133715238Y-60121485D01*
X133715238Y-60121485D02*
X134334285Y-60121485D01*
X62857142Y-148859580D02*
X62809523Y-148907200D01*
X62809523Y-148907200D02*
X62666666Y-148954819D01*
X62666666Y-148954819D02*
X62571428Y-148954819D01*
X62571428Y-148954819D02*
X62428571Y-148907200D01*
X62428571Y-148907200D02*
X62333333Y-148811961D01*
X62333333Y-148811961D02*
X62285714Y-148716723D01*
X62285714Y-148716723D02*
X62238095Y-148526247D01*
X62238095Y-148526247D02*
X62238095Y-148383390D01*
X62238095Y-148383390D02*
X62285714Y-148192914D01*
X62285714Y-148192914D02*
X62333333Y-148097676D01*
X62333333Y-148097676D02*
X62428571Y-148002438D01*
X62428571Y-148002438D02*
X62571428Y-147954819D01*
X62571428Y-147954819D02*
X62666666Y-147954819D01*
X62666666Y-147954819D02*
X62809523Y-148002438D01*
X62809523Y-148002438D02*
X62857142Y-148050057D01*
X63809523Y-148954819D02*
X63238095Y-148954819D01*
X63523809Y-148954819D02*
X63523809Y-147954819D01*
X63523809Y-147954819D02*
X63428571Y-148097676D01*
X63428571Y-148097676D02*
X63333333Y-148192914D01*
X63333333Y-148192914D02*
X63238095Y-148240533D01*
X64666666Y-148288152D02*
X64666666Y-148954819D01*
X64428571Y-147907200D02*
X64190476Y-148621485D01*
X64190476Y-148621485D02*
X64809523Y-148621485D01*
X159333333Y-100859580D02*
X159285714Y-100907200D01*
X159285714Y-100907200D02*
X159142857Y-100954819D01*
X159142857Y-100954819D02*
X159047619Y-100954819D01*
X159047619Y-100954819D02*
X158904762Y-100907200D01*
X158904762Y-100907200D02*
X158809524Y-100811961D01*
X158809524Y-100811961D02*
X158761905Y-100716723D01*
X158761905Y-100716723D02*
X158714286Y-100526247D01*
X158714286Y-100526247D02*
X158714286Y-100383390D01*
X158714286Y-100383390D02*
X158761905Y-100192914D01*
X158761905Y-100192914D02*
X158809524Y-100097676D01*
X158809524Y-100097676D02*
X158904762Y-100002438D01*
X158904762Y-100002438D02*
X159047619Y-99954819D01*
X159047619Y-99954819D02*
X159142857Y-99954819D01*
X159142857Y-99954819D02*
X159285714Y-100002438D01*
X159285714Y-100002438D02*
X159333333Y-100050057D01*
X159809524Y-100954819D02*
X160000000Y-100954819D01*
X160000000Y-100954819D02*
X160095238Y-100907200D01*
X160095238Y-100907200D02*
X160142857Y-100859580D01*
X160142857Y-100859580D02*
X160238095Y-100716723D01*
X160238095Y-100716723D02*
X160285714Y-100526247D01*
X160285714Y-100526247D02*
X160285714Y-100145295D01*
X160285714Y-100145295D02*
X160238095Y-100050057D01*
X160238095Y-100050057D02*
X160190476Y-100002438D01*
X160190476Y-100002438D02*
X160095238Y-99954819D01*
X160095238Y-99954819D02*
X159904762Y-99954819D01*
X159904762Y-99954819D02*
X159809524Y-100002438D01*
X159809524Y-100002438D02*
X159761905Y-100050057D01*
X159761905Y-100050057D02*
X159714286Y-100145295D01*
X159714286Y-100145295D02*
X159714286Y-100383390D01*
X159714286Y-100383390D02*
X159761905Y-100478628D01*
X159761905Y-100478628D02*
X159809524Y-100526247D01*
X159809524Y-100526247D02*
X159904762Y-100573866D01*
X159904762Y-100573866D02*
X160095238Y-100573866D01*
X160095238Y-100573866D02*
X160190476Y-100526247D01*
X160190476Y-100526247D02*
X160238095Y-100478628D01*
X160238095Y-100478628D02*
X160285714Y-100383390D01*
X161437142Y-72084819D02*
X161103809Y-71608628D01*
X160865714Y-72084819D02*
X160865714Y-71084819D01*
X160865714Y-71084819D02*
X161246666Y-71084819D01*
X161246666Y-71084819D02*
X161341904Y-71132438D01*
X161341904Y-71132438D02*
X161389523Y-71180057D01*
X161389523Y-71180057D02*
X161437142Y-71275295D01*
X161437142Y-71275295D02*
X161437142Y-71418152D01*
X161437142Y-71418152D02*
X161389523Y-71513390D01*
X161389523Y-71513390D02*
X161341904Y-71561009D01*
X161341904Y-71561009D02*
X161246666Y-71608628D01*
X161246666Y-71608628D02*
X160865714Y-71608628D01*
X162389523Y-72084819D02*
X161818095Y-72084819D01*
X162103809Y-72084819D02*
X162103809Y-71084819D01*
X162103809Y-71084819D02*
X162008571Y-71227676D01*
X162008571Y-71227676D02*
X161913333Y-71322914D01*
X161913333Y-71322914D02*
X161818095Y-71370533D01*
X162722857Y-71084819D02*
X163341904Y-71084819D01*
X163341904Y-71084819D02*
X163008571Y-71465771D01*
X163008571Y-71465771D02*
X163151428Y-71465771D01*
X163151428Y-71465771D02*
X163246666Y-71513390D01*
X163246666Y-71513390D02*
X163294285Y-71561009D01*
X163294285Y-71561009D02*
X163341904Y-71656247D01*
X163341904Y-71656247D02*
X163341904Y-71894342D01*
X163341904Y-71894342D02*
X163294285Y-71989580D01*
X163294285Y-71989580D02*
X163246666Y-72037200D01*
X163246666Y-72037200D02*
X163151428Y-72084819D01*
X163151428Y-72084819D02*
X162865714Y-72084819D01*
X162865714Y-72084819D02*
X162770476Y-72037200D01*
X162770476Y-72037200D02*
X162722857Y-71989580D01*
X129437142Y-120084819D02*
X129103809Y-119608628D01*
X128865714Y-120084819D02*
X128865714Y-119084819D01*
X128865714Y-119084819D02*
X129246666Y-119084819D01*
X129246666Y-119084819D02*
X129341904Y-119132438D01*
X129341904Y-119132438D02*
X129389523Y-119180057D01*
X129389523Y-119180057D02*
X129437142Y-119275295D01*
X129437142Y-119275295D02*
X129437142Y-119418152D01*
X129437142Y-119418152D02*
X129389523Y-119513390D01*
X129389523Y-119513390D02*
X129341904Y-119561009D01*
X129341904Y-119561009D02*
X129246666Y-119608628D01*
X129246666Y-119608628D02*
X128865714Y-119608628D01*
X129818095Y-119180057D02*
X129865714Y-119132438D01*
X129865714Y-119132438D02*
X129960952Y-119084819D01*
X129960952Y-119084819D02*
X130199047Y-119084819D01*
X130199047Y-119084819D02*
X130294285Y-119132438D01*
X130294285Y-119132438D02*
X130341904Y-119180057D01*
X130341904Y-119180057D02*
X130389523Y-119275295D01*
X130389523Y-119275295D02*
X130389523Y-119370533D01*
X130389523Y-119370533D02*
X130341904Y-119513390D01*
X130341904Y-119513390D02*
X129770476Y-120084819D01*
X129770476Y-120084819D02*
X130389523Y-120084819D01*
X131008571Y-119084819D02*
X131103809Y-119084819D01*
X131103809Y-119084819D02*
X131199047Y-119132438D01*
X131199047Y-119132438D02*
X131246666Y-119180057D01*
X131246666Y-119180057D02*
X131294285Y-119275295D01*
X131294285Y-119275295D02*
X131341904Y-119465771D01*
X131341904Y-119465771D02*
X131341904Y-119703866D01*
X131341904Y-119703866D02*
X131294285Y-119894342D01*
X131294285Y-119894342D02*
X131246666Y-119989580D01*
X131246666Y-119989580D02*
X131199047Y-120037200D01*
X131199047Y-120037200D02*
X131103809Y-120084819D01*
X131103809Y-120084819D02*
X131008571Y-120084819D01*
X131008571Y-120084819D02*
X130913333Y-120037200D01*
X130913333Y-120037200D02*
X130865714Y-119989580D01*
X130865714Y-119989580D02*
X130818095Y-119894342D01*
X130818095Y-119894342D02*
X130770476Y-119703866D01*
X130770476Y-119703866D02*
X130770476Y-119465771D01*
X130770476Y-119465771D02*
X130818095Y-119275295D01*
X130818095Y-119275295D02*
X130865714Y-119180057D01*
X130865714Y-119180057D02*
X130913333Y-119132438D01*
X130913333Y-119132438D02*
X131008571Y-119084819D01*
X108254761Y-74404819D02*
X107921428Y-73928628D01*
X107683333Y-74404819D02*
X107683333Y-73404819D01*
X107683333Y-73404819D02*
X108064285Y-73404819D01*
X108064285Y-73404819D02*
X108159523Y-73452438D01*
X108159523Y-73452438D02*
X108207142Y-73500057D01*
X108207142Y-73500057D02*
X108254761Y-73595295D01*
X108254761Y-73595295D02*
X108254761Y-73738152D01*
X108254761Y-73738152D02*
X108207142Y-73833390D01*
X108207142Y-73833390D02*
X108159523Y-73881009D01*
X108159523Y-73881009D02*
X108064285Y-73928628D01*
X108064285Y-73928628D02*
X107683333Y-73928628D01*
X108540476Y-73404819D02*
X108873809Y-74404819D01*
X108873809Y-74404819D02*
X109207142Y-73404819D01*
X109445238Y-73404819D02*
X110064285Y-73404819D01*
X110064285Y-73404819D02*
X109730952Y-73785771D01*
X109730952Y-73785771D02*
X109873809Y-73785771D01*
X109873809Y-73785771D02*
X109969047Y-73833390D01*
X109969047Y-73833390D02*
X110016666Y-73881009D01*
X110016666Y-73881009D02*
X110064285Y-73976247D01*
X110064285Y-73976247D02*
X110064285Y-74214342D01*
X110064285Y-74214342D02*
X110016666Y-74309580D01*
X110016666Y-74309580D02*
X109969047Y-74357200D01*
X109969047Y-74357200D02*
X109873809Y-74404819D01*
X109873809Y-74404819D02*
X109588095Y-74404819D01*
X109588095Y-74404819D02*
X109492857Y-74357200D01*
X109492857Y-74357200D02*
X109445238Y-74309580D01*
X94857142Y-148859580D02*
X94809523Y-148907200D01*
X94809523Y-148907200D02*
X94666666Y-148954819D01*
X94666666Y-148954819D02*
X94571428Y-148954819D01*
X94571428Y-148954819D02*
X94428571Y-148907200D01*
X94428571Y-148907200D02*
X94333333Y-148811961D01*
X94333333Y-148811961D02*
X94285714Y-148716723D01*
X94285714Y-148716723D02*
X94238095Y-148526247D01*
X94238095Y-148526247D02*
X94238095Y-148383390D01*
X94238095Y-148383390D02*
X94285714Y-148192914D01*
X94285714Y-148192914D02*
X94333333Y-148097676D01*
X94333333Y-148097676D02*
X94428571Y-148002438D01*
X94428571Y-148002438D02*
X94571428Y-147954819D01*
X94571428Y-147954819D02*
X94666666Y-147954819D01*
X94666666Y-147954819D02*
X94809523Y-148002438D01*
X94809523Y-148002438D02*
X94857142Y-148050057D01*
X95809523Y-148954819D02*
X95238095Y-148954819D01*
X95523809Y-148954819D02*
X95523809Y-147954819D01*
X95523809Y-147954819D02*
X95428571Y-148097676D01*
X95428571Y-148097676D02*
X95333333Y-148192914D01*
X95333333Y-148192914D02*
X95238095Y-148240533D01*
X96714285Y-147954819D02*
X96238095Y-147954819D01*
X96238095Y-147954819D02*
X96190476Y-148431009D01*
X96190476Y-148431009D02*
X96238095Y-148383390D01*
X96238095Y-148383390D02*
X96333333Y-148335771D01*
X96333333Y-148335771D02*
X96571428Y-148335771D01*
X96571428Y-148335771D02*
X96666666Y-148383390D01*
X96666666Y-148383390D02*
X96714285Y-148431009D01*
X96714285Y-148431009D02*
X96761904Y-148526247D01*
X96761904Y-148526247D02*
X96761904Y-148764342D01*
X96761904Y-148764342D02*
X96714285Y-148859580D01*
X96714285Y-148859580D02*
X96666666Y-148907200D01*
X96666666Y-148907200D02*
X96571428Y-148954819D01*
X96571428Y-148954819D02*
X96333333Y-148954819D01*
X96333333Y-148954819D02*
X96238095Y-148907200D01*
X96238095Y-148907200D02*
X96190476Y-148859580D01*
X124333333Y-100859580D02*
X124285714Y-100907200D01*
X124285714Y-100907200D02*
X124142857Y-100954819D01*
X124142857Y-100954819D02*
X124047619Y-100954819D01*
X124047619Y-100954819D02*
X123904762Y-100907200D01*
X123904762Y-100907200D02*
X123809524Y-100811961D01*
X123809524Y-100811961D02*
X123761905Y-100716723D01*
X123761905Y-100716723D02*
X123714286Y-100526247D01*
X123714286Y-100526247D02*
X123714286Y-100383390D01*
X123714286Y-100383390D02*
X123761905Y-100192914D01*
X123761905Y-100192914D02*
X123809524Y-100097676D01*
X123809524Y-100097676D02*
X123904762Y-100002438D01*
X123904762Y-100002438D02*
X124047619Y-99954819D01*
X124047619Y-99954819D02*
X124142857Y-99954819D01*
X124142857Y-99954819D02*
X124285714Y-100002438D01*
X124285714Y-100002438D02*
X124333333Y-100050057D01*
X124904762Y-100383390D02*
X124809524Y-100335771D01*
X124809524Y-100335771D02*
X124761905Y-100288152D01*
X124761905Y-100288152D02*
X124714286Y-100192914D01*
X124714286Y-100192914D02*
X124714286Y-100145295D01*
X124714286Y-100145295D02*
X124761905Y-100050057D01*
X124761905Y-100050057D02*
X124809524Y-100002438D01*
X124809524Y-100002438D02*
X124904762Y-99954819D01*
X124904762Y-99954819D02*
X125095238Y-99954819D01*
X125095238Y-99954819D02*
X125190476Y-100002438D01*
X125190476Y-100002438D02*
X125238095Y-100050057D01*
X125238095Y-100050057D02*
X125285714Y-100145295D01*
X125285714Y-100145295D02*
X125285714Y-100192914D01*
X125285714Y-100192914D02*
X125238095Y-100288152D01*
X125238095Y-100288152D02*
X125190476Y-100335771D01*
X125190476Y-100335771D02*
X125095238Y-100383390D01*
X125095238Y-100383390D02*
X124904762Y-100383390D01*
X124904762Y-100383390D02*
X124809524Y-100431009D01*
X124809524Y-100431009D02*
X124761905Y-100478628D01*
X124761905Y-100478628D02*
X124714286Y-100573866D01*
X124714286Y-100573866D02*
X124714286Y-100764342D01*
X124714286Y-100764342D02*
X124761905Y-100859580D01*
X124761905Y-100859580D02*
X124809524Y-100907200D01*
X124809524Y-100907200D02*
X124904762Y-100954819D01*
X124904762Y-100954819D02*
X125095238Y-100954819D01*
X125095238Y-100954819D02*
X125190476Y-100907200D01*
X125190476Y-100907200D02*
X125238095Y-100859580D01*
X125238095Y-100859580D02*
X125285714Y-100764342D01*
X125285714Y-100764342D02*
X125285714Y-100573866D01*
X125285714Y-100573866D02*
X125238095Y-100478628D01*
X125238095Y-100478628D02*
X125190476Y-100431009D01*
X125190476Y-100431009D02*
X125095238Y-100383390D01*
X65437142Y-144084819D02*
X65103809Y-143608628D01*
X64865714Y-144084819D02*
X64865714Y-143084819D01*
X64865714Y-143084819D02*
X65246666Y-143084819D01*
X65246666Y-143084819D02*
X65341904Y-143132438D01*
X65341904Y-143132438D02*
X65389523Y-143180057D01*
X65389523Y-143180057D02*
X65437142Y-143275295D01*
X65437142Y-143275295D02*
X65437142Y-143418152D01*
X65437142Y-143418152D02*
X65389523Y-143513390D01*
X65389523Y-143513390D02*
X65341904Y-143561009D01*
X65341904Y-143561009D02*
X65246666Y-143608628D01*
X65246666Y-143608628D02*
X64865714Y-143608628D01*
X65818095Y-143180057D02*
X65865714Y-143132438D01*
X65865714Y-143132438D02*
X65960952Y-143084819D01*
X65960952Y-143084819D02*
X66199047Y-143084819D01*
X66199047Y-143084819D02*
X66294285Y-143132438D01*
X66294285Y-143132438D02*
X66341904Y-143180057D01*
X66341904Y-143180057D02*
X66389523Y-143275295D01*
X66389523Y-143275295D02*
X66389523Y-143370533D01*
X66389523Y-143370533D02*
X66341904Y-143513390D01*
X66341904Y-143513390D02*
X65770476Y-144084819D01*
X65770476Y-144084819D02*
X66389523Y-144084819D01*
X66770476Y-143180057D02*
X66818095Y-143132438D01*
X66818095Y-143132438D02*
X66913333Y-143084819D01*
X66913333Y-143084819D02*
X67151428Y-143084819D01*
X67151428Y-143084819D02*
X67246666Y-143132438D01*
X67246666Y-143132438D02*
X67294285Y-143180057D01*
X67294285Y-143180057D02*
X67341904Y-143275295D01*
X67341904Y-143275295D02*
X67341904Y-143370533D01*
X67341904Y-143370533D02*
X67294285Y-143513390D01*
X67294285Y-143513390D02*
X66722857Y-144084819D01*
X66722857Y-144084819D02*
X67341904Y-144084819D01*
X178531905Y-105494819D02*
X178531905Y-104494819D01*
X178531905Y-104494819D02*
X178770000Y-104494819D01*
X178770000Y-104494819D02*
X178912857Y-104542438D01*
X178912857Y-104542438D02*
X179008095Y-104637676D01*
X179008095Y-104637676D02*
X179055714Y-104732914D01*
X179055714Y-104732914D02*
X179103333Y-104923390D01*
X179103333Y-104923390D02*
X179103333Y-105066247D01*
X179103333Y-105066247D02*
X179055714Y-105256723D01*
X179055714Y-105256723D02*
X179008095Y-105351961D01*
X179008095Y-105351961D02*
X178912857Y-105447200D01*
X178912857Y-105447200D02*
X178770000Y-105494819D01*
X178770000Y-105494819D02*
X178531905Y-105494819D01*
X179960476Y-104828152D02*
X179960476Y-105494819D01*
X179722381Y-104447200D02*
X179484286Y-105161485D01*
X179484286Y-105161485D02*
X180103333Y-105161485D01*
X43778571Y-146404819D02*
X43445238Y-145928628D01*
X43207143Y-146404819D02*
X43207143Y-145404819D01*
X43207143Y-145404819D02*
X43588095Y-145404819D01*
X43588095Y-145404819D02*
X43683333Y-145452438D01*
X43683333Y-145452438D02*
X43730952Y-145500057D01*
X43730952Y-145500057D02*
X43778571Y-145595295D01*
X43778571Y-145595295D02*
X43778571Y-145738152D01*
X43778571Y-145738152D02*
X43730952Y-145833390D01*
X43730952Y-145833390D02*
X43683333Y-145881009D01*
X43683333Y-145881009D02*
X43588095Y-145928628D01*
X43588095Y-145928628D02*
X43207143Y-145928628D01*
X44064286Y-145404819D02*
X44397619Y-146404819D01*
X44397619Y-146404819D02*
X44730952Y-145404819D01*
X45588095Y-146404819D02*
X45016667Y-146404819D01*
X45302381Y-146404819D02*
X45302381Y-145404819D01*
X45302381Y-145404819D02*
X45207143Y-145547676D01*
X45207143Y-145547676D02*
X45111905Y-145642914D01*
X45111905Y-145642914D02*
X45016667Y-145690533D01*
X45921429Y-145404819D02*
X46540476Y-145404819D01*
X46540476Y-145404819D02*
X46207143Y-145785771D01*
X46207143Y-145785771D02*
X46350000Y-145785771D01*
X46350000Y-145785771D02*
X46445238Y-145833390D01*
X46445238Y-145833390D02*
X46492857Y-145881009D01*
X46492857Y-145881009D02*
X46540476Y-145976247D01*
X46540476Y-145976247D02*
X46540476Y-146214342D01*
X46540476Y-146214342D02*
X46492857Y-146309580D01*
X46492857Y-146309580D02*
X46445238Y-146357200D01*
X46445238Y-146357200D02*
X46350000Y-146404819D01*
X46350000Y-146404819D02*
X46064286Y-146404819D01*
X46064286Y-146404819D02*
X45969048Y-146357200D01*
X45969048Y-146357200D02*
X45921429Y-146309580D01*
X129437142Y-144084819D02*
X129103809Y-143608628D01*
X128865714Y-144084819D02*
X128865714Y-143084819D01*
X128865714Y-143084819D02*
X129246666Y-143084819D01*
X129246666Y-143084819D02*
X129341904Y-143132438D01*
X129341904Y-143132438D02*
X129389523Y-143180057D01*
X129389523Y-143180057D02*
X129437142Y-143275295D01*
X129437142Y-143275295D02*
X129437142Y-143418152D01*
X129437142Y-143418152D02*
X129389523Y-143513390D01*
X129389523Y-143513390D02*
X129341904Y-143561009D01*
X129341904Y-143561009D02*
X129246666Y-143608628D01*
X129246666Y-143608628D02*
X128865714Y-143608628D01*
X129818095Y-143180057D02*
X129865714Y-143132438D01*
X129865714Y-143132438D02*
X129960952Y-143084819D01*
X129960952Y-143084819D02*
X130199047Y-143084819D01*
X130199047Y-143084819D02*
X130294285Y-143132438D01*
X130294285Y-143132438D02*
X130341904Y-143180057D01*
X130341904Y-143180057D02*
X130389523Y-143275295D01*
X130389523Y-143275295D02*
X130389523Y-143370533D01*
X130389523Y-143370533D02*
X130341904Y-143513390D01*
X130341904Y-143513390D02*
X129770476Y-144084819D01*
X129770476Y-144084819D02*
X130389523Y-144084819D01*
X131246666Y-143418152D02*
X131246666Y-144084819D01*
X131008571Y-143037200D02*
X130770476Y-143751485D01*
X130770476Y-143751485D02*
X131389523Y-143751485D01*
X44254761Y-122404819D02*
X43921428Y-121928628D01*
X43683333Y-122404819D02*
X43683333Y-121404819D01*
X43683333Y-121404819D02*
X44064285Y-121404819D01*
X44064285Y-121404819D02*
X44159523Y-121452438D01*
X44159523Y-121452438D02*
X44207142Y-121500057D01*
X44207142Y-121500057D02*
X44254761Y-121595295D01*
X44254761Y-121595295D02*
X44254761Y-121738152D01*
X44254761Y-121738152D02*
X44207142Y-121833390D01*
X44207142Y-121833390D02*
X44159523Y-121881009D01*
X44159523Y-121881009D02*
X44064285Y-121928628D01*
X44064285Y-121928628D02*
X43683333Y-121928628D01*
X44540476Y-121404819D02*
X44873809Y-122404819D01*
X44873809Y-122404819D02*
X45207142Y-121404819D01*
X45588095Y-122404819D02*
X45778571Y-122404819D01*
X45778571Y-122404819D02*
X45873809Y-122357200D01*
X45873809Y-122357200D02*
X45921428Y-122309580D01*
X45921428Y-122309580D02*
X46016666Y-122166723D01*
X46016666Y-122166723D02*
X46064285Y-121976247D01*
X46064285Y-121976247D02*
X46064285Y-121595295D01*
X46064285Y-121595295D02*
X46016666Y-121500057D01*
X46016666Y-121500057D02*
X45969047Y-121452438D01*
X45969047Y-121452438D02*
X45873809Y-121404819D01*
X45873809Y-121404819D02*
X45683333Y-121404819D01*
X45683333Y-121404819D02*
X45588095Y-121452438D01*
X45588095Y-121452438D02*
X45540476Y-121500057D01*
X45540476Y-121500057D02*
X45492857Y-121595295D01*
X45492857Y-121595295D02*
X45492857Y-121833390D01*
X45492857Y-121833390D02*
X45540476Y-121928628D01*
X45540476Y-121928628D02*
X45588095Y-121976247D01*
X45588095Y-121976247D02*
X45683333Y-122023866D01*
X45683333Y-122023866D02*
X45873809Y-122023866D01*
X45873809Y-122023866D02*
X45969047Y-121976247D01*
X45969047Y-121976247D02*
X46016666Y-121928628D01*
X46016666Y-121928628D02*
X46064285Y-121833390D01*
X158857142Y-124859580D02*
X158809523Y-124907200D01*
X158809523Y-124907200D02*
X158666666Y-124954819D01*
X158666666Y-124954819D02*
X158571428Y-124954819D01*
X158571428Y-124954819D02*
X158428571Y-124907200D01*
X158428571Y-124907200D02*
X158333333Y-124811961D01*
X158333333Y-124811961D02*
X158285714Y-124716723D01*
X158285714Y-124716723D02*
X158238095Y-124526247D01*
X158238095Y-124526247D02*
X158238095Y-124383390D01*
X158238095Y-124383390D02*
X158285714Y-124192914D01*
X158285714Y-124192914D02*
X158333333Y-124097676D01*
X158333333Y-124097676D02*
X158428571Y-124002438D01*
X158428571Y-124002438D02*
X158571428Y-123954819D01*
X158571428Y-123954819D02*
X158666666Y-123954819D01*
X158666666Y-123954819D02*
X158809523Y-124002438D01*
X158809523Y-124002438D02*
X158857142Y-124050057D01*
X159809523Y-124954819D02*
X159238095Y-124954819D01*
X159523809Y-124954819D02*
X159523809Y-123954819D01*
X159523809Y-123954819D02*
X159428571Y-124097676D01*
X159428571Y-124097676D02*
X159333333Y-124192914D01*
X159333333Y-124192914D02*
X159238095Y-124240533D01*
X160142857Y-123954819D02*
X160761904Y-123954819D01*
X160761904Y-123954819D02*
X160428571Y-124335771D01*
X160428571Y-124335771D02*
X160571428Y-124335771D01*
X160571428Y-124335771D02*
X160666666Y-124383390D01*
X160666666Y-124383390D02*
X160714285Y-124431009D01*
X160714285Y-124431009D02*
X160761904Y-124526247D01*
X160761904Y-124526247D02*
X160761904Y-124764342D01*
X160761904Y-124764342D02*
X160714285Y-124859580D01*
X160714285Y-124859580D02*
X160666666Y-124907200D01*
X160666666Y-124907200D02*
X160571428Y-124954819D01*
X160571428Y-124954819D02*
X160285714Y-124954819D01*
X160285714Y-124954819D02*
X160190476Y-124907200D01*
X160190476Y-124907200D02*
X160142857Y-124859580D01*
X62857142Y-124859580D02*
X62809523Y-124907200D01*
X62809523Y-124907200D02*
X62666666Y-124954819D01*
X62666666Y-124954819D02*
X62571428Y-124954819D01*
X62571428Y-124954819D02*
X62428571Y-124907200D01*
X62428571Y-124907200D02*
X62333333Y-124811961D01*
X62333333Y-124811961D02*
X62285714Y-124716723D01*
X62285714Y-124716723D02*
X62238095Y-124526247D01*
X62238095Y-124526247D02*
X62238095Y-124383390D01*
X62238095Y-124383390D02*
X62285714Y-124192914D01*
X62285714Y-124192914D02*
X62333333Y-124097676D01*
X62333333Y-124097676D02*
X62428571Y-124002438D01*
X62428571Y-124002438D02*
X62571428Y-123954819D01*
X62571428Y-123954819D02*
X62666666Y-123954819D01*
X62666666Y-123954819D02*
X62809523Y-124002438D01*
X62809523Y-124002438D02*
X62857142Y-124050057D01*
X63809523Y-124954819D02*
X63238095Y-124954819D01*
X63523809Y-124954819D02*
X63523809Y-123954819D01*
X63523809Y-123954819D02*
X63428571Y-124097676D01*
X63428571Y-124097676D02*
X63333333Y-124192914D01*
X63333333Y-124192914D02*
X63238095Y-124240533D01*
X64428571Y-123954819D02*
X64523809Y-123954819D01*
X64523809Y-123954819D02*
X64619047Y-124002438D01*
X64619047Y-124002438D02*
X64666666Y-124050057D01*
X64666666Y-124050057D02*
X64714285Y-124145295D01*
X64714285Y-124145295D02*
X64761904Y-124335771D01*
X64761904Y-124335771D02*
X64761904Y-124573866D01*
X64761904Y-124573866D02*
X64714285Y-124764342D01*
X64714285Y-124764342D02*
X64666666Y-124859580D01*
X64666666Y-124859580D02*
X64619047Y-124907200D01*
X64619047Y-124907200D02*
X64523809Y-124954819D01*
X64523809Y-124954819D02*
X64428571Y-124954819D01*
X64428571Y-124954819D02*
X64333333Y-124907200D01*
X64333333Y-124907200D02*
X64285714Y-124859580D01*
X64285714Y-124859580D02*
X64238095Y-124764342D01*
X64238095Y-124764342D02*
X64190476Y-124573866D01*
X64190476Y-124573866D02*
X64190476Y-124335771D01*
X64190476Y-124335771D02*
X64238095Y-124145295D01*
X64238095Y-124145295D02*
X64285714Y-124050057D01*
X64285714Y-124050057D02*
X64333333Y-124002438D01*
X64333333Y-124002438D02*
X64428571Y-123954819D01*
X169916667Y-130407200D02*
X170059524Y-130454819D01*
X170059524Y-130454819D02*
X170297619Y-130454819D01*
X170297619Y-130454819D02*
X170392857Y-130407200D01*
X170392857Y-130407200D02*
X170440476Y-130359580D01*
X170440476Y-130359580D02*
X170488095Y-130264342D01*
X170488095Y-130264342D02*
X170488095Y-130169104D01*
X170488095Y-130169104D02*
X170440476Y-130073866D01*
X170440476Y-130073866D02*
X170392857Y-130026247D01*
X170392857Y-130026247D02*
X170297619Y-129978628D01*
X170297619Y-129978628D02*
X170107143Y-129931009D01*
X170107143Y-129931009D02*
X170011905Y-129883390D01*
X170011905Y-129883390D02*
X169964286Y-129835771D01*
X169964286Y-129835771D02*
X169916667Y-129740533D01*
X169916667Y-129740533D02*
X169916667Y-129645295D01*
X169916667Y-129645295D02*
X169964286Y-129550057D01*
X169964286Y-129550057D02*
X170011905Y-129502438D01*
X170011905Y-129502438D02*
X170107143Y-129454819D01*
X170107143Y-129454819D02*
X170345238Y-129454819D01*
X170345238Y-129454819D02*
X170488095Y-129502438D01*
X170821429Y-129454819D02*
X171059524Y-130454819D01*
X171059524Y-130454819D02*
X171250000Y-129740533D01*
X171250000Y-129740533D02*
X171440476Y-130454819D01*
X171440476Y-130454819D02*
X171678572Y-129454819D01*
X172488095Y-129788152D02*
X172488095Y-130454819D01*
X172250000Y-129407200D02*
X172011905Y-130121485D01*
X172011905Y-130121485D02*
X172630952Y-130121485D01*
X52391238Y-83074819D02*
X52391238Y-83789104D01*
X52391238Y-83789104D02*
X52343619Y-83931961D01*
X52343619Y-83931961D02*
X52248381Y-84027200D01*
X52248381Y-84027200D02*
X52105524Y-84074819D01*
X52105524Y-84074819D02*
X52010286Y-84074819D01*
X52867429Y-84074819D02*
X52867429Y-83074819D01*
X52867429Y-83074819D02*
X53200762Y-83789104D01*
X53200762Y-83789104D02*
X53534095Y-83074819D01*
X53534095Y-83074819D02*
X53534095Y-84074819D01*
X54010286Y-84074819D02*
X54010286Y-83074819D01*
X54010286Y-83074819D02*
X54248381Y-83074819D01*
X54248381Y-83074819D02*
X54391238Y-83122438D01*
X54391238Y-83122438D02*
X54486476Y-83217676D01*
X54486476Y-83217676D02*
X54534095Y-83312914D01*
X54534095Y-83312914D02*
X54581714Y-83503390D01*
X54581714Y-83503390D02*
X54581714Y-83646247D01*
X54581714Y-83646247D02*
X54534095Y-83836723D01*
X54534095Y-83836723D02*
X54486476Y-83931961D01*
X54486476Y-83931961D02*
X54391238Y-84027200D01*
X54391238Y-84027200D02*
X54248381Y-84074819D01*
X54248381Y-84074819D02*
X54010286Y-84074819D01*
X55534095Y-84074819D02*
X54962667Y-84074819D01*
X55248381Y-84074819D02*
X55248381Y-83074819D01*
X55248381Y-83074819D02*
X55153143Y-83217676D01*
X55153143Y-83217676D02*
X55057905Y-83312914D01*
X55057905Y-83312914D02*
X54962667Y-83360533D01*
X72913333Y-57084819D02*
X72580000Y-56608628D01*
X72341905Y-57084819D02*
X72341905Y-56084819D01*
X72341905Y-56084819D02*
X72722857Y-56084819D01*
X72722857Y-56084819D02*
X72818095Y-56132438D01*
X72818095Y-56132438D02*
X72865714Y-56180057D01*
X72865714Y-56180057D02*
X72913333Y-56275295D01*
X72913333Y-56275295D02*
X72913333Y-56418152D01*
X72913333Y-56418152D02*
X72865714Y-56513390D01*
X72865714Y-56513390D02*
X72818095Y-56561009D01*
X72818095Y-56561009D02*
X72722857Y-56608628D01*
X72722857Y-56608628D02*
X72341905Y-56608628D01*
X73770476Y-56418152D02*
X73770476Y-57084819D01*
X73532381Y-56037200D02*
X73294286Y-56751485D01*
X73294286Y-56751485D02*
X73913333Y-56751485D01*
X162607142Y-59959580D02*
X162559523Y-60007200D01*
X162559523Y-60007200D02*
X162416666Y-60054819D01*
X162416666Y-60054819D02*
X162321428Y-60054819D01*
X162321428Y-60054819D02*
X162178571Y-60007200D01*
X162178571Y-60007200D02*
X162083333Y-59911961D01*
X162083333Y-59911961D02*
X162035714Y-59816723D01*
X162035714Y-59816723D02*
X161988095Y-59626247D01*
X161988095Y-59626247D02*
X161988095Y-59483390D01*
X161988095Y-59483390D02*
X162035714Y-59292914D01*
X162035714Y-59292914D02*
X162083333Y-59197676D01*
X162083333Y-59197676D02*
X162178571Y-59102438D01*
X162178571Y-59102438D02*
X162321428Y-59054819D01*
X162321428Y-59054819D02*
X162416666Y-59054819D01*
X162416666Y-59054819D02*
X162559523Y-59102438D01*
X162559523Y-59102438D02*
X162607142Y-59150057D01*
X163559523Y-60054819D02*
X162988095Y-60054819D01*
X163273809Y-60054819D02*
X163273809Y-59054819D01*
X163273809Y-59054819D02*
X163178571Y-59197676D01*
X163178571Y-59197676D02*
X163083333Y-59292914D01*
X163083333Y-59292914D02*
X162988095Y-59340533D01*
X164035714Y-60054819D02*
X164226190Y-60054819D01*
X164226190Y-60054819D02*
X164321428Y-60007200D01*
X164321428Y-60007200D02*
X164369047Y-59959580D01*
X164369047Y-59959580D02*
X164464285Y-59816723D01*
X164464285Y-59816723D02*
X164511904Y-59626247D01*
X164511904Y-59626247D02*
X164511904Y-59245295D01*
X164511904Y-59245295D02*
X164464285Y-59150057D01*
X164464285Y-59150057D02*
X164416666Y-59102438D01*
X164416666Y-59102438D02*
X164321428Y-59054819D01*
X164321428Y-59054819D02*
X164130952Y-59054819D01*
X164130952Y-59054819D02*
X164035714Y-59102438D01*
X164035714Y-59102438D02*
X163988095Y-59150057D01*
X163988095Y-59150057D02*
X163940476Y-59245295D01*
X163940476Y-59245295D02*
X163940476Y-59483390D01*
X163940476Y-59483390D02*
X163988095Y-59578628D01*
X163988095Y-59578628D02*
X164035714Y-59626247D01*
X164035714Y-59626247D02*
X164130952Y-59673866D01*
X164130952Y-59673866D02*
X164321428Y-59673866D01*
X164321428Y-59673866D02*
X164416666Y-59626247D01*
X164416666Y-59626247D02*
X164464285Y-59578628D01*
X164464285Y-59578628D02*
X164511904Y-59483390D01*
X27916667Y-98407200D02*
X28059524Y-98454819D01*
X28059524Y-98454819D02*
X28297619Y-98454819D01*
X28297619Y-98454819D02*
X28392857Y-98407200D01*
X28392857Y-98407200D02*
X28440476Y-98359580D01*
X28440476Y-98359580D02*
X28488095Y-98264342D01*
X28488095Y-98264342D02*
X28488095Y-98169104D01*
X28488095Y-98169104D02*
X28440476Y-98073866D01*
X28440476Y-98073866D02*
X28392857Y-98026247D01*
X28392857Y-98026247D02*
X28297619Y-97978628D01*
X28297619Y-97978628D02*
X28107143Y-97931009D01*
X28107143Y-97931009D02*
X28011905Y-97883390D01*
X28011905Y-97883390D02*
X27964286Y-97835771D01*
X27964286Y-97835771D02*
X27916667Y-97740533D01*
X27916667Y-97740533D02*
X27916667Y-97645295D01*
X27916667Y-97645295D02*
X27964286Y-97550057D01*
X27964286Y-97550057D02*
X28011905Y-97502438D01*
X28011905Y-97502438D02*
X28107143Y-97454819D01*
X28107143Y-97454819D02*
X28345238Y-97454819D01*
X28345238Y-97454819D02*
X28488095Y-97502438D01*
X28821429Y-97454819D02*
X29059524Y-98454819D01*
X29059524Y-98454819D02*
X29250000Y-97740533D01*
X29250000Y-97740533D02*
X29440476Y-98454819D01*
X29440476Y-98454819D02*
X29678572Y-97454819D01*
X29964286Y-97454819D02*
X30630952Y-97454819D01*
X30630952Y-97454819D02*
X30202381Y-98454819D01*
X137857142Y-169859580D02*
X137809523Y-169907200D01*
X137809523Y-169907200D02*
X137666666Y-169954819D01*
X137666666Y-169954819D02*
X137571428Y-169954819D01*
X137571428Y-169954819D02*
X137428571Y-169907200D01*
X137428571Y-169907200D02*
X137333333Y-169811961D01*
X137333333Y-169811961D02*
X137285714Y-169716723D01*
X137285714Y-169716723D02*
X137238095Y-169526247D01*
X137238095Y-169526247D02*
X137238095Y-169383390D01*
X137238095Y-169383390D02*
X137285714Y-169192914D01*
X137285714Y-169192914D02*
X137333333Y-169097676D01*
X137333333Y-169097676D02*
X137428571Y-169002438D01*
X137428571Y-169002438D02*
X137571428Y-168954819D01*
X137571428Y-168954819D02*
X137666666Y-168954819D01*
X137666666Y-168954819D02*
X137809523Y-169002438D01*
X137809523Y-169002438D02*
X137857142Y-169050057D01*
X138809523Y-169954819D02*
X138238095Y-169954819D01*
X138523809Y-169954819D02*
X138523809Y-168954819D01*
X138523809Y-168954819D02*
X138428571Y-169097676D01*
X138428571Y-169097676D02*
X138333333Y-169192914D01*
X138333333Y-169192914D02*
X138238095Y-169240533D01*
X139380952Y-169383390D02*
X139285714Y-169335771D01*
X139285714Y-169335771D02*
X139238095Y-169288152D01*
X139238095Y-169288152D02*
X139190476Y-169192914D01*
X139190476Y-169192914D02*
X139190476Y-169145295D01*
X139190476Y-169145295D02*
X139238095Y-169050057D01*
X139238095Y-169050057D02*
X139285714Y-169002438D01*
X139285714Y-169002438D02*
X139380952Y-168954819D01*
X139380952Y-168954819D02*
X139571428Y-168954819D01*
X139571428Y-168954819D02*
X139666666Y-169002438D01*
X139666666Y-169002438D02*
X139714285Y-169050057D01*
X139714285Y-169050057D02*
X139761904Y-169145295D01*
X139761904Y-169145295D02*
X139761904Y-169192914D01*
X139761904Y-169192914D02*
X139714285Y-169288152D01*
X139714285Y-169288152D02*
X139666666Y-169335771D01*
X139666666Y-169335771D02*
X139571428Y-169383390D01*
X139571428Y-169383390D02*
X139380952Y-169383390D01*
X139380952Y-169383390D02*
X139285714Y-169431009D01*
X139285714Y-169431009D02*
X139238095Y-169478628D01*
X139238095Y-169478628D02*
X139190476Y-169573866D01*
X139190476Y-169573866D02*
X139190476Y-169764342D01*
X139190476Y-169764342D02*
X139238095Y-169859580D01*
X139238095Y-169859580D02*
X139285714Y-169907200D01*
X139285714Y-169907200D02*
X139380952Y-169954819D01*
X139380952Y-169954819D02*
X139571428Y-169954819D01*
X139571428Y-169954819D02*
X139666666Y-169907200D01*
X139666666Y-169907200D02*
X139714285Y-169859580D01*
X139714285Y-169859580D02*
X139761904Y-169764342D01*
X139761904Y-169764342D02*
X139761904Y-169573866D01*
X139761904Y-169573866D02*
X139714285Y-169478628D01*
X139714285Y-169478628D02*
X139666666Y-169431009D01*
X139666666Y-169431009D02*
X139571428Y-169383390D01*
X139778571Y-146404819D02*
X139445238Y-145928628D01*
X139207143Y-146404819D02*
X139207143Y-145404819D01*
X139207143Y-145404819D02*
X139588095Y-145404819D01*
X139588095Y-145404819D02*
X139683333Y-145452438D01*
X139683333Y-145452438D02*
X139730952Y-145500057D01*
X139730952Y-145500057D02*
X139778571Y-145595295D01*
X139778571Y-145595295D02*
X139778571Y-145738152D01*
X139778571Y-145738152D02*
X139730952Y-145833390D01*
X139730952Y-145833390D02*
X139683333Y-145881009D01*
X139683333Y-145881009D02*
X139588095Y-145928628D01*
X139588095Y-145928628D02*
X139207143Y-145928628D01*
X140064286Y-145404819D02*
X140397619Y-146404819D01*
X140397619Y-146404819D02*
X140730952Y-145404819D01*
X141588095Y-146404819D02*
X141016667Y-146404819D01*
X141302381Y-146404819D02*
X141302381Y-145404819D01*
X141302381Y-145404819D02*
X141207143Y-145547676D01*
X141207143Y-145547676D02*
X141111905Y-145642914D01*
X141111905Y-145642914D02*
X141016667Y-145690533D01*
X142445238Y-145404819D02*
X142254762Y-145404819D01*
X142254762Y-145404819D02*
X142159524Y-145452438D01*
X142159524Y-145452438D02*
X142111905Y-145500057D01*
X142111905Y-145500057D02*
X142016667Y-145642914D01*
X142016667Y-145642914D02*
X141969048Y-145833390D01*
X141969048Y-145833390D02*
X141969048Y-146214342D01*
X141969048Y-146214342D02*
X142016667Y-146309580D01*
X142016667Y-146309580D02*
X142064286Y-146357200D01*
X142064286Y-146357200D02*
X142159524Y-146404819D01*
X142159524Y-146404819D02*
X142350000Y-146404819D01*
X142350000Y-146404819D02*
X142445238Y-146357200D01*
X142445238Y-146357200D02*
X142492857Y-146309580D01*
X142492857Y-146309580D02*
X142540476Y-146214342D01*
X142540476Y-146214342D02*
X142540476Y-145976247D01*
X142540476Y-145976247D02*
X142492857Y-145881009D01*
X142492857Y-145881009D02*
X142445238Y-145833390D01*
X142445238Y-145833390D02*
X142350000Y-145785771D01*
X142350000Y-145785771D02*
X142159524Y-145785771D01*
X142159524Y-145785771D02*
X142064286Y-145833390D01*
X142064286Y-145833390D02*
X142016667Y-145881009D01*
X142016667Y-145881009D02*
X141969048Y-145976247D01*
X97437142Y-96084819D02*
X97103809Y-95608628D01*
X96865714Y-96084819D02*
X96865714Y-95084819D01*
X96865714Y-95084819D02*
X97246666Y-95084819D01*
X97246666Y-95084819D02*
X97341904Y-95132438D01*
X97341904Y-95132438D02*
X97389523Y-95180057D01*
X97389523Y-95180057D02*
X97437142Y-95275295D01*
X97437142Y-95275295D02*
X97437142Y-95418152D01*
X97437142Y-95418152D02*
X97389523Y-95513390D01*
X97389523Y-95513390D02*
X97341904Y-95561009D01*
X97341904Y-95561009D02*
X97246666Y-95608628D01*
X97246666Y-95608628D02*
X96865714Y-95608628D01*
X98389523Y-96084819D02*
X97818095Y-96084819D01*
X98103809Y-96084819D02*
X98103809Y-95084819D01*
X98103809Y-95084819D02*
X98008571Y-95227676D01*
X98008571Y-95227676D02*
X97913333Y-95322914D01*
X97913333Y-95322914D02*
X97818095Y-95370533D01*
X99294285Y-95084819D02*
X98818095Y-95084819D01*
X98818095Y-95084819D02*
X98770476Y-95561009D01*
X98770476Y-95561009D02*
X98818095Y-95513390D01*
X98818095Y-95513390D02*
X98913333Y-95465771D01*
X98913333Y-95465771D02*
X99151428Y-95465771D01*
X99151428Y-95465771D02*
X99246666Y-95513390D01*
X99246666Y-95513390D02*
X99294285Y-95561009D01*
X99294285Y-95561009D02*
X99341904Y-95656247D01*
X99341904Y-95656247D02*
X99341904Y-95894342D01*
X99341904Y-95894342D02*
X99294285Y-95989580D01*
X99294285Y-95989580D02*
X99246666Y-96037200D01*
X99246666Y-96037200D02*
X99151428Y-96084819D01*
X99151428Y-96084819D02*
X98913333Y-96084819D01*
X98913333Y-96084819D02*
X98818095Y-96037200D01*
X98818095Y-96037200D02*
X98770476Y-95989580D01*
X183463333Y-151374819D02*
X183130000Y-150898628D01*
X182891905Y-151374819D02*
X182891905Y-150374819D01*
X182891905Y-150374819D02*
X183272857Y-150374819D01*
X183272857Y-150374819D02*
X183368095Y-150422438D01*
X183368095Y-150422438D02*
X183415714Y-150470057D01*
X183415714Y-150470057D02*
X183463333Y-150565295D01*
X183463333Y-150565295D02*
X183463333Y-150708152D01*
X183463333Y-150708152D02*
X183415714Y-150803390D01*
X183415714Y-150803390D02*
X183368095Y-150851009D01*
X183368095Y-150851009D02*
X183272857Y-150898628D01*
X183272857Y-150898628D02*
X182891905Y-150898628D01*
X183939524Y-151374819D02*
X184130000Y-151374819D01*
X184130000Y-151374819D02*
X184225238Y-151327200D01*
X184225238Y-151327200D02*
X184272857Y-151279580D01*
X184272857Y-151279580D02*
X184368095Y-151136723D01*
X184368095Y-151136723D02*
X184415714Y-150946247D01*
X184415714Y-150946247D02*
X184415714Y-150565295D01*
X184415714Y-150565295D02*
X184368095Y-150470057D01*
X184368095Y-150470057D02*
X184320476Y-150422438D01*
X184320476Y-150422438D02*
X184225238Y-150374819D01*
X184225238Y-150374819D02*
X184034762Y-150374819D01*
X184034762Y-150374819D02*
X183939524Y-150422438D01*
X183939524Y-150422438D02*
X183891905Y-150470057D01*
X183891905Y-150470057D02*
X183844286Y-150565295D01*
X183844286Y-150565295D02*
X183844286Y-150803390D01*
X183844286Y-150803390D02*
X183891905Y-150898628D01*
X183891905Y-150898628D02*
X183939524Y-150946247D01*
X183939524Y-150946247D02*
X184034762Y-150993866D01*
X184034762Y-150993866D02*
X184225238Y-150993866D01*
X184225238Y-150993866D02*
X184320476Y-150946247D01*
X184320476Y-150946247D02*
X184368095Y-150898628D01*
X184368095Y-150898628D02*
X184415714Y-150803390D01*
X169916667Y-106407200D02*
X170059524Y-106454819D01*
X170059524Y-106454819D02*
X170297619Y-106454819D01*
X170297619Y-106454819D02*
X170392857Y-106407200D01*
X170392857Y-106407200D02*
X170440476Y-106359580D01*
X170440476Y-106359580D02*
X170488095Y-106264342D01*
X170488095Y-106264342D02*
X170488095Y-106169104D01*
X170488095Y-106169104D02*
X170440476Y-106073866D01*
X170440476Y-106073866D02*
X170392857Y-106026247D01*
X170392857Y-106026247D02*
X170297619Y-105978628D01*
X170297619Y-105978628D02*
X170107143Y-105931009D01*
X170107143Y-105931009D02*
X170011905Y-105883390D01*
X170011905Y-105883390D02*
X169964286Y-105835771D01*
X169964286Y-105835771D02*
X169916667Y-105740533D01*
X169916667Y-105740533D02*
X169916667Y-105645295D01*
X169916667Y-105645295D02*
X169964286Y-105550057D01*
X169964286Y-105550057D02*
X170011905Y-105502438D01*
X170011905Y-105502438D02*
X170107143Y-105454819D01*
X170107143Y-105454819D02*
X170345238Y-105454819D01*
X170345238Y-105454819D02*
X170488095Y-105502438D01*
X170821429Y-105454819D02*
X171059524Y-106454819D01*
X171059524Y-106454819D02*
X171250000Y-105740533D01*
X171250000Y-105740533D02*
X171440476Y-106454819D01*
X171440476Y-106454819D02*
X171678572Y-105454819D01*
X171964286Y-105454819D02*
X172583333Y-105454819D01*
X172583333Y-105454819D02*
X172250000Y-105835771D01*
X172250000Y-105835771D02*
X172392857Y-105835771D01*
X172392857Y-105835771D02*
X172488095Y-105883390D01*
X172488095Y-105883390D02*
X172535714Y-105931009D01*
X172535714Y-105931009D02*
X172583333Y-106026247D01*
X172583333Y-106026247D02*
X172583333Y-106264342D01*
X172583333Y-106264342D02*
X172535714Y-106359580D01*
X172535714Y-106359580D02*
X172488095Y-106407200D01*
X172488095Y-106407200D02*
X172392857Y-106454819D01*
X172392857Y-106454819D02*
X172107143Y-106454819D01*
X172107143Y-106454819D02*
X172011905Y-106407200D01*
X172011905Y-106407200D02*
X171964286Y-106359580D01*
X123857142Y-124859580D02*
X123809523Y-124907200D01*
X123809523Y-124907200D02*
X123666666Y-124954819D01*
X123666666Y-124954819D02*
X123571428Y-124954819D01*
X123571428Y-124954819D02*
X123428571Y-124907200D01*
X123428571Y-124907200D02*
X123333333Y-124811961D01*
X123333333Y-124811961D02*
X123285714Y-124716723D01*
X123285714Y-124716723D02*
X123238095Y-124526247D01*
X123238095Y-124526247D02*
X123238095Y-124383390D01*
X123238095Y-124383390D02*
X123285714Y-124192914D01*
X123285714Y-124192914D02*
X123333333Y-124097676D01*
X123333333Y-124097676D02*
X123428571Y-124002438D01*
X123428571Y-124002438D02*
X123571428Y-123954819D01*
X123571428Y-123954819D02*
X123666666Y-123954819D01*
X123666666Y-123954819D02*
X123809523Y-124002438D01*
X123809523Y-124002438D02*
X123857142Y-124050057D01*
X124809523Y-124954819D02*
X124238095Y-124954819D01*
X124523809Y-124954819D02*
X124523809Y-123954819D01*
X124523809Y-123954819D02*
X124428571Y-124097676D01*
X124428571Y-124097676D02*
X124333333Y-124192914D01*
X124333333Y-124192914D02*
X124238095Y-124240533D01*
X125190476Y-124050057D02*
X125238095Y-124002438D01*
X125238095Y-124002438D02*
X125333333Y-123954819D01*
X125333333Y-123954819D02*
X125571428Y-123954819D01*
X125571428Y-123954819D02*
X125666666Y-124002438D01*
X125666666Y-124002438D02*
X125714285Y-124050057D01*
X125714285Y-124050057D02*
X125761904Y-124145295D01*
X125761904Y-124145295D02*
X125761904Y-124240533D01*
X125761904Y-124240533D02*
X125714285Y-124383390D01*
X125714285Y-124383390D02*
X125142857Y-124954819D01*
X125142857Y-124954819D02*
X125761904Y-124954819D01*
X65437142Y-96084819D02*
X65103809Y-95608628D01*
X64865714Y-96084819D02*
X64865714Y-95084819D01*
X64865714Y-95084819D02*
X65246666Y-95084819D01*
X65246666Y-95084819D02*
X65341904Y-95132438D01*
X65341904Y-95132438D02*
X65389523Y-95180057D01*
X65389523Y-95180057D02*
X65437142Y-95275295D01*
X65437142Y-95275295D02*
X65437142Y-95418152D01*
X65437142Y-95418152D02*
X65389523Y-95513390D01*
X65389523Y-95513390D02*
X65341904Y-95561009D01*
X65341904Y-95561009D02*
X65246666Y-95608628D01*
X65246666Y-95608628D02*
X64865714Y-95608628D01*
X66389523Y-96084819D02*
X65818095Y-96084819D01*
X66103809Y-96084819D02*
X66103809Y-95084819D01*
X66103809Y-95084819D02*
X66008571Y-95227676D01*
X66008571Y-95227676D02*
X65913333Y-95322914D01*
X65913333Y-95322914D02*
X65818095Y-95370533D01*
X67246666Y-95418152D02*
X67246666Y-96084819D01*
X67008571Y-95037200D02*
X66770476Y-95751485D01*
X66770476Y-95751485D02*
X67389523Y-95751485D01*
X116437142Y-170084819D02*
X116103809Y-169608628D01*
X115865714Y-170084819D02*
X115865714Y-169084819D01*
X115865714Y-169084819D02*
X116246666Y-169084819D01*
X116246666Y-169084819D02*
X116341904Y-169132438D01*
X116341904Y-169132438D02*
X116389523Y-169180057D01*
X116389523Y-169180057D02*
X116437142Y-169275295D01*
X116437142Y-169275295D02*
X116437142Y-169418152D01*
X116437142Y-169418152D02*
X116389523Y-169513390D01*
X116389523Y-169513390D02*
X116341904Y-169561009D01*
X116341904Y-169561009D02*
X116246666Y-169608628D01*
X116246666Y-169608628D02*
X115865714Y-169608628D01*
X116818095Y-169180057D02*
X116865714Y-169132438D01*
X116865714Y-169132438D02*
X116960952Y-169084819D01*
X116960952Y-169084819D02*
X117199047Y-169084819D01*
X117199047Y-169084819D02*
X117294285Y-169132438D01*
X117294285Y-169132438D02*
X117341904Y-169180057D01*
X117341904Y-169180057D02*
X117389523Y-169275295D01*
X117389523Y-169275295D02*
X117389523Y-169370533D01*
X117389523Y-169370533D02*
X117341904Y-169513390D01*
X117341904Y-169513390D02*
X116770476Y-170084819D01*
X116770476Y-170084819D02*
X117389523Y-170084819D01*
X117722857Y-169084819D02*
X118389523Y-169084819D01*
X118389523Y-169084819D02*
X117960952Y-170084819D01*
X72913333Y-63084819D02*
X72580000Y-62608628D01*
X72341905Y-63084819D02*
X72341905Y-62084819D01*
X72341905Y-62084819D02*
X72722857Y-62084819D01*
X72722857Y-62084819D02*
X72818095Y-62132438D01*
X72818095Y-62132438D02*
X72865714Y-62180057D01*
X72865714Y-62180057D02*
X72913333Y-62275295D01*
X72913333Y-62275295D02*
X72913333Y-62418152D01*
X72913333Y-62418152D02*
X72865714Y-62513390D01*
X72865714Y-62513390D02*
X72818095Y-62561009D01*
X72818095Y-62561009D02*
X72722857Y-62608628D01*
X72722857Y-62608628D02*
X72341905Y-62608628D01*
X73818095Y-62084819D02*
X73341905Y-62084819D01*
X73341905Y-62084819D02*
X73294286Y-62561009D01*
X73294286Y-62561009D02*
X73341905Y-62513390D01*
X73341905Y-62513390D02*
X73437143Y-62465771D01*
X73437143Y-62465771D02*
X73675238Y-62465771D01*
X73675238Y-62465771D02*
X73770476Y-62513390D01*
X73770476Y-62513390D02*
X73818095Y-62561009D01*
X73818095Y-62561009D02*
X73865714Y-62656247D01*
X73865714Y-62656247D02*
X73865714Y-62894342D01*
X73865714Y-62894342D02*
X73818095Y-62989580D01*
X73818095Y-62989580D02*
X73770476Y-63037200D01*
X73770476Y-63037200D02*
X73675238Y-63084819D01*
X73675238Y-63084819D02*
X73437143Y-63084819D01*
X73437143Y-63084819D02*
X73341905Y-63037200D01*
X73341905Y-63037200D02*
X73294286Y-62989580D01*
X129437142Y-96084819D02*
X129103809Y-95608628D01*
X128865714Y-96084819D02*
X128865714Y-95084819D01*
X128865714Y-95084819D02*
X129246666Y-95084819D01*
X129246666Y-95084819D02*
X129341904Y-95132438D01*
X129341904Y-95132438D02*
X129389523Y-95180057D01*
X129389523Y-95180057D02*
X129437142Y-95275295D01*
X129437142Y-95275295D02*
X129437142Y-95418152D01*
X129437142Y-95418152D02*
X129389523Y-95513390D01*
X129389523Y-95513390D02*
X129341904Y-95561009D01*
X129341904Y-95561009D02*
X129246666Y-95608628D01*
X129246666Y-95608628D02*
X128865714Y-95608628D01*
X130389523Y-96084819D02*
X129818095Y-96084819D01*
X130103809Y-96084819D02*
X130103809Y-95084819D01*
X130103809Y-95084819D02*
X130008571Y-95227676D01*
X130008571Y-95227676D02*
X129913333Y-95322914D01*
X129913333Y-95322914D02*
X129818095Y-95370533D01*
X131246666Y-95084819D02*
X131056190Y-95084819D01*
X131056190Y-95084819D02*
X130960952Y-95132438D01*
X130960952Y-95132438D02*
X130913333Y-95180057D01*
X130913333Y-95180057D02*
X130818095Y-95322914D01*
X130818095Y-95322914D02*
X130770476Y-95513390D01*
X130770476Y-95513390D02*
X130770476Y-95894342D01*
X130770476Y-95894342D02*
X130818095Y-95989580D01*
X130818095Y-95989580D02*
X130865714Y-96037200D01*
X130865714Y-96037200D02*
X130960952Y-96084819D01*
X130960952Y-96084819D02*
X131151428Y-96084819D01*
X131151428Y-96084819D02*
X131246666Y-96037200D01*
X131246666Y-96037200D02*
X131294285Y-95989580D01*
X131294285Y-95989580D02*
X131341904Y-95894342D01*
X131341904Y-95894342D02*
X131341904Y-95656247D01*
X131341904Y-95656247D02*
X131294285Y-95561009D01*
X131294285Y-95561009D02*
X131246666Y-95513390D01*
X131246666Y-95513390D02*
X131151428Y-95465771D01*
X131151428Y-95465771D02*
X130960952Y-95465771D01*
X130960952Y-95465771D02*
X130865714Y-95513390D01*
X130865714Y-95513390D02*
X130818095Y-95561009D01*
X130818095Y-95561009D02*
X130770476Y-95656247D01*
X97437142Y-120084819D02*
X97103809Y-119608628D01*
X96865714Y-120084819D02*
X96865714Y-119084819D01*
X96865714Y-119084819D02*
X97246666Y-119084819D01*
X97246666Y-119084819D02*
X97341904Y-119132438D01*
X97341904Y-119132438D02*
X97389523Y-119180057D01*
X97389523Y-119180057D02*
X97437142Y-119275295D01*
X97437142Y-119275295D02*
X97437142Y-119418152D01*
X97437142Y-119418152D02*
X97389523Y-119513390D01*
X97389523Y-119513390D02*
X97341904Y-119561009D01*
X97341904Y-119561009D02*
X97246666Y-119608628D01*
X97246666Y-119608628D02*
X96865714Y-119608628D01*
X98389523Y-120084819D02*
X97818095Y-120084819D01*
X98103809Y-120084819D02*
X98103809Y-119084819D01*
X98103809Y-119084819D02*
X98008571Y-119227676D01*
X98008571Y-119227676D02*
X97913333Y-119322914D01*
X97913333Y-119322914D02*
X97818095Y-119370533D01*
X98865714Y-120084819D02*
X99056190Y-120084819D01*
X99056190Y-120084819D02*
X99151428Y-120037200D01*
X99151428Y-120037200D02*
X99199047Y-119989580D01*
X99199047Y-119989580D02*
X99294285Y-119846723D01*
X99294285Y-119846723D02*
X99341904Y-119656247D01*
X99341904Y-119656247D02*
X99341904Y-119275295D01*
X99341904Y-119275295D02*
X99294285Y-119180057D01*
X99294285Y-119180057D02*
X99246666Y-119132438D01*
X99246666Y-119132438D02*
X99151428Y-119084819D01*
X99151428Y-119084819D02*
X98960952Y-119084819D01*
X98960952Y-119084819D02*
X98865714Y-119132438D01*
X98865714Y-119132438D02*
X98818095Y-119180057D01*
X98818095Y-119180057D02*
X98770476Y-119275295D01*
X98770476Y-119275295D02*
X98770476Y-119513390D01*
X98770476Y-119513390D02*
X98818095Y-119608628D01*
X98818095Y-119608628D02*
X98865714Y-119656247D01*
X98865714Y-119656247D02*
X98960952Y-119703866D01*
X98960952Y-119703866D02*
X99151428Y-119703866D01*
X99151428Y-119703866D02*
X99246666Y-119656247D01*
X99246666Y-119656247D02*
X99294285Y-119608628D01*
X99294285Y-119608628D02*
X99341904Y-119513390D01*
X95690476Y-35104819D02*
X95690476Y-35819104D01*
X95690476Y-35819104D02*
X95642857Y-35961961D01*
X95642857Y-35961961D02*
X95547619Y-36057200D01*
X95547619Y-36057200D02*
X95404762Y-36104819D01*
X95404762Y-36104819D02*
X95309524Y-36104819D01*
X96690476Y-36104819D02*
X96119048Y-36104819D01*
X96404762Y-36104819D02*
X96404762Y-35104819D01*
X96404762Y-35104819D02*
X96309524Y-35247676D01*
X96309524Y-35247676D02*
X96214286Y-35342914D01*
X96214286Y-35342914D02*
X96119048Y-35390533D01*
X97309524Y-35104819D02*
X97404762Y-35104819D01*
X97404762Y-35104819D02*
X97500000Y-35152438D01*
X97500000Y-35152438D02*
X97547619Y-35200057D01*
X97547619Y-35200057D02*
X97595238Y-35295295D01*
X97595238Y-35295295D02*
X97642857Y-35485771D01*
X97642857Y-35485771D02*
X97642857Y-35723866D01*
X97642857Y-35723866D02*
X97595238Y-35914342D01*
X97595238Y-35914342D02*
X97547619Y-36009580D01*
X97547619Y-36009580D02*
X97500000Y-36057200D01*
X97500000Y-36057200D02*
X97404762Y-36104819D01*
X97404762Y-36104819D02*
X97309524Y-36104819D01*
X97309524Y-36104819D02*
X97214286Y-36057200D01*
X97214286Y-36057200D02*
X97166667Y-36009580D01*
X97166667Y-36009580D02*
X97119048Y-35914342D01*
X97119048Y-35914342D02*
X97071429Y-35723866D01*
X97071429Y-35723866D02*
X97071429Y-35485771D01*
X97071429Y-35485771D02*
X97119048Y-35295295D01*
X97119048Y-35295295D02*
X97166667Y-35200057D01*
X97166667Y-35200057D02*
X97214286Y-35152438D01*
X97214286Y-35152438D02*
X97309524Y-35104819D01*
X158857142Y-148859580D02*
X158809523Y-148907200D01*
X158809523Y-148907200D02*
X158666666Y-148954819D01*
X158666666Y-148954819D02*
X158571428Y-148954819D01*
X158571428Y-148954819D02*
X158428571Y-148907200D01*
X158428571Y-148907200D02*
X158333333Y-148811961D01*
X158333333Y-148811961D02*
X158285714Y-148716723D01*
X158285714Y-148716723D02*
X158238095Y-148526247D01*
X158238095Y-148526247D02*
X158238095Y-148383390D01*
X158238095Y-148383390D02*
X158285714Y-148192914D01*
X158285714Y-148192914D02*
X158333333Y-148097676D01*
X158333333Y-148097676D02*
X158428571Y-148002438D01*
X158428571Y-148002438D02*
X158571428Y-147954819D01*
X158571428Y-147954819D02*
X158666666Y-147954819D01*
X158666666Y-147954819D02*
X158809523Y-148002438D01*
X158809523Y-148002438D02*
X158857142Y-148050057D01*
X159809523Y-148954819D02*
X159238095Y-148954819D01*
X159523809Y-148954819D02*
X159523809Y-147954819D01*
X159523809Y-147954819D02*
X159428571Y-148097676D01*
X159428571Y-148097676D02*
X159333333Y-148192914D01*
X159333333Y-148192914D02*
X159238095Y-148240533D01*
X160142857Y-147954819D02*
X160809523Y-147954819D01*
X160809523Y-147954819D02*
X160380952Y-148954819D01*
X161437142Y-120084819D02*
X161103809Y-119608628D01*
X160865714Y-120084819D02*
X160865714Y-119084819D01*
X160865714Y-119084819D02*
X161246666Y-119084819D01*
X161246666Y-119084819D02*
X161341904Y-119132438D01*
X161341904Y-119132438D02*
X161389523Y-119180057D01*
X161389523Y-119180057D02*
X161437142Y-119275295D01*
X161437142Y-119275295D02*
X161437142Y-119418152D01*
X161437142Y-119418152D02*
X161389523Y-119513390D01*
X161389523Y-119513390D02*
X161341904Y-119561009D01*
X161341904Y-119561009D02*
X161246666Y-119608628D01*
X161246666Y-119608628D02*
X160865714Y-119608628D01*
X161818095Y-119180057D02*
X161865714Y-119132438D01*
X161865714Y-119132438D02*
X161960952Y-119084819D01*
X161960952Y-119084819D02*
X162199047Y-119084819D01*
X162199047Y-119084819D02*
X162294285Y-119132438D01*
X162294285Y-119132438D02*
X162341904Y-119180057D01*
X162341904Y-119180057D02*
X162389523Y-119275295D01*
X162389523Y-119275295D02*
X162389523Y-119370533D01*
X162389523Y-119370533D02*
X162341904Y-119513390D01*
X162341904Y-119513390D02*
X161770476Y-120084819D01*
X161770476Y-120084819D02*
X162389523Y-120084819D01*
X163341904Y-120084819D02*
X162770476Y-120084819D01*
X163056190Y-120084819D02*
X163056190Y-119084819D01*
X163056190Y-119084819D02*
X162960952Y-119227676D01*
X162960952Y-119227676D02*
X162865714Y-119322914D01*
X162865714Y-119322914D02*
X162770476Y-119370533D01*
X159333333Y-76859580D02*
X159285714Y-76907200D01*
X159285714Y-76907200D02*
X159142857Y-76954819D01*
X159142857Y-76954819D02*
X159047619Y-76954819D01*
X159047619Y-76954819D02*
X158904762Y-76907200D01*
X158904762Y-76907200D02*
X158809524Y-76811961D01*
X158809524Y-76811961D02*
X158761905Y-76716723D01*
X158761905Y-76716723D02*
X158714286Y-76526247D01*
X158714286Y-76526247D02*
X158714286Y-76383390D01*
X158714286Y-76383390D02*
X158761905Y-76192914D01*
X158761905Y-76192914D02*
X158809524Y-76097676D01*
X158809524Y-76097676D02*
X158904762Y-76002438D01*
X158904762Y-76002438D02*
X159047619Y-75954819D01*
X159047619Y-75954819D02*
X159142857Y-75954819D01*
X159142857Y-75954819D02*
X159285714Y-76002438D01*
X159285714Y-76002438D02*
X159333333Y-76050057D01*
X160238095Y-75954819D02*
X159761905Y-75954819D01*
X159761905Y-75954819D02*
X159714286Y-76431009D01*
X159714286Y-76431009D02*
X159761905Y-76383390D01*
X159761905Y-76383390D02*
X159857143Y-76335771D01*
X159857143Y-76335771D02*
X160095238Y-76335771D01*
X160095238Y-76335771D02*
X160190476Y-76383390D01*
X160190476Y-76383390D02*
X160238095Y-76431009D01*
X160238095Y-76431009D02*
X160285714Y-76526247D01*
X160285714Y-76526247D02*
X160285714Y-76764342D01*
X160285714Y-76764342D02*
X160238095Y-76859580D01*
X160238095Y-76859580D02*
X160190476Y-76907200D01*
X160190476Y-76907200D02*
X160095238Y-76954819D01*
X160095238Y-76954819D02*
X159857143Y-76954819D01*
X159857143Y-76954819D02*
X159761905Y-76907200D01*
X159761905Y-76907200D02*
X159714286Y-76859580D01*
%TO.C,R17*%
D11*
X158040000Y-98000000D02*
X158810000Y-98000000D01*
X166120000Y-98000000D02*
X165350000Y-98000000D01*
X158810000Y-96630000D02*
X165350000Y-96630000D01*
X165350000Y-99370000D01*
X158810000Y-99370000D01*
X158810000Y-96630000D01*
%TO.C,JMX1*%
X127920000Y-84940000D02*
X132580000Y-84940000D01*
X127920000Y-130240000D02*
X127920000Y-84940000D01*
X132580000Y-84940000D02*
X132580000Y-130240000D01*
X132580000Y-130240000D02*
X127920000Y-130240000D01*
D12*
X128160000Y-130180000D02*
G75*
G02*
X127800000Y-130180000I-180000J0D01*
G01*
X127800000Y-130180000D02*
G75*
G02*
X128160000Y-130180000I180000J0D01*
G01*
%TO.C,JMD2*%
D11*
X61880000Y-84940000D02*
X81780000Y-84940000D01*
X61880000Y-87060000D02*
X61880000Y-84940000D01*
X81780000Y-84940000D02*
X81780000Y-87060000D01*
X81780000Y-87060000D02*
X61880000Y-87060000D01*
D12*
X81900000Y-85000000D02*
G75*
G02*
X81540000Y-85000000I-180000J0D01*
G01*
X81540000Y-85000000D02*
G75*
G02*
X81900000Y-85000000I180000J0D01*
G01*
%TO.C,R2*%
D11*
X93040000Y-60000000D02*
X93810000Y-60000000D01*
X101120000Y-60000000D02*
X100350000Y-60000000D01*
X93810000Y-58630000D02*
X100350000Y-58630000D01*
X100350000Y-61370000D01*
X93810000Y-61370000D01*
X93810000Y-58630000D01*
%TO.C,RV4*%
X143479000Y-66880000D02*
X153520000Y-66880000D01*
X143479000Y-70816000D02*
X143479000Y-66880000D01*
X143479000Y-79120000D02*
X143479000Y-75183000D01*
X143479000Y-79120000D02*
X144800000Y-79120000D01*
X147250000Y-79120000D02*
X147630000Y-79120000D01*
X149371000Y-79120000D02*
X150130000Y-79120000D01*
X151870000Y-79120000D02*
X153520000Y-79120000D01*
X153520000Y-70816000D02*
X153520000Y-66880000D01*
X153520000Y-79120000D02*
X153520000Y-75183000D01*
%TO.C,C16*%
X124880000Y-149630000D02*
X130120000Y-149630000D01*
X124880000Y-149967000D02*
X124880000Y-149630000D01*
X124880000Y-152370000D02*
X124880000Y-152033000D01*
X130120000Y-149630000D02*
X130120000Y-149967000D01*
X130120000Y-152033000D02*
X130120000Y-152370000D01*
X130120000Y-152370000D02*
X124880000Y-152370000D01*
%TO.C,R12*%
X126040000Y-74000000D02*
X126810000Y-74000000D01*
X134120000Y-74000000D02*
X133350000Y-74000000D01*
X126810000Y-72630000D02*
X133350000Y-72630000D01*
X133350000Y-75370000D01*
X126810000Y-75370000D01*
X126810000Y-72630000D01*
%TO.C,D1*%
X35040000Y-59000000D02*
X35690000Y-59000000D01*
X36290000Y-57880000D02*
X36290000Y-60120000D01*
X36410000Y-57880000D02*
X36410000Y-60120000D01*
X36530000Y-57880000D02*
X36530000Y-60120000D01*
X40580000Y-59000000D02*
X39930000Y-59000000D01*
X35690000Y-57880000D02*
X39930000Y-57880000D01*
X39930000Y-60120000D01*
X35690000Y-60120000D01*
X35690000Y-57880000D01*
%TO.C,D9*%
X34710000Y-158764000D02*
X34710000Y-158920000D01*
X34710000Y-161080000D02*
X34710000Y-161236000D01*
X34710000Y-158764484D02*
G75*
G02*
X37941437Y-158920000I1560000J-1235516D01*
G01*
X35229039Y-158920000D02*
G75*
G02*
X37310961Y-158920000I1040961J-1080000D01*
G01*
X37310961Y-161080000D02*
G75*
G02*
X35229039Y-161080000I-1040961J1080000D01*
G01*
X37941437Y-161080000D02*
G75*
G02*
X34710000Y-161235516I-1671437J1080000D01*
G01*
%TO.C,C1*%
X79880000Y-60630000D02*
X85120000Y-60630000D01*
X79880000Y-60967000D02*
X79880000Y-60630000D01*
X79880000Y-63370000D02*
X79880000Y-63033000D01*
X85120000Y-60630000D02*
X85120000Y-60967000D01*
X85120000Y-63033000D02*
X85120000Y-63370000D01*
X85120000Y-63370000D02*
X79880000Y-63370000D01*
%TO.C,R18*%
X62040000Y-122000000D02*
X62810000Y-122000000D01*
X70120000Y-122000000D02*
X69350000Y-122000000D01*
X62810000Y-120630000D02*
X69350000Y-120630000D01*
X69350000Y-123370000D01*
X62810000Y-123370000D01*
X62810000Y-120630000D01*
%TO.C,U2*%
X48670000Y-165920000D02*
X48670000Y-171380000D01*
X48670000Y-173380000D02*
X48670000Y-178840000D01*
X48670000Y-178840000D02*
X79270000Y-178840000D01*
X79270000Y-165920000D02*
X48670000Y-165920000D01*
X79270000Y-178840000D02*
X79270000Y-165920000D01*
X48670000Y-171380000D02*
G75*
G02*
X48670000Y-173380000I0J-1000000D01*
G01*
%TO.C,RV1*%
X47479000Y-66880000D02*
X57520000Y-66880000D01*
X47479000Y-70816000D02*
X47479000Y-66880000D01*
X47479000Y-79120000D02*
X47479000Y-75183000D01*
X47479000Y-79120000D02*
X48800000Y-79120000D01*
X51250000Y-79120000D02*
X51630000Y-79120000D01*
X53371000Y-79120000D02*
X54130000Y-79120000D01*
X55870000Y-79120000D02*
X57520000Y-79120000D01*
X57520000Y-70816000D02*
X57520000Y-66880000D01*
X57520000Y-79120000D02*
X57520000Y-75183000D01*
%TO.C,R29*%
X43000000Y-90880000D02*
X43000000Y-91650000D01*
X43000000Y-98960000D02*
X43000000Y-98190000D01*
X41630000Y-91650000D02*
X44370000Y-91650000D01*
X44370000Y-98190000D01*
X41630000Y-98190000D01*
X41630000Y-91650000D01*
%TO.C,J1*%
X55400000Y-34400000D02*
G75*
G02*
X32600000Y-34400000I-11400000J0D01*
G01*
X32600000Y-34400000D02*
G75*
G02*
X55400000Y-34400000I11400000J0D01*
G01*
%TO.C,SW5*%
X167750000Y-157500000D02*
X167750000Y-159000000D01*
X169000000Y-161500000D02*
X173500000Y-161500000D01*
X173500000Y-155000000D02*
X169000000Y-155000000D01*
X174750000Y-159000000D02*
X174750000Y-157500000D01*
%TO.C,JMD3*%
X84740000Y-84940000D02*
X104640000Y-84940000D01*
X84740000Y-87060000D02*
X84740000Y-84940000D01*
X104640000Y-84940000D02*
X104640000Y-87060000D01*
X104640000Y-87060000D02*
X84740000Y-87060000D01*
D12*
X104760000Y-85000000D02*
G75*
G02*
X104400000Y-85000000I-180000J0D01*
G01*
X104400000Y-85000000D02*
G75*
G02*
X104760000Y-85000000I180000J0D01*
G01*
%TO.C,D5*%
D11*
X177710000Y-130764000D02*
X177710000Y-130920000D01*
X177710000Y-133080000D02*
X177710000Y-133236000D01*
X177710000Y-130764484D02*
G75*
G02*
X180941437Y-130920000I1560000J-1235516D01*
G01*
X178229039Y-130920000D02*
G75*
G02*
X180310961Y-130920000I1040961J-1080000D01*
G01*
X180310961Y-133080000D02*
G75*
G02*
X178229039Y-133080000I-1040961J1080000D01*
G01*
X180941437Y-133080000D02*
G75*
G02*
X177710000Y-133235516I-1671437J1080000D01*
G01*
%TO.C,SW8*%
X25750000Y-161500000D02*
X25750000Y-163000000D01*
X27000000Y-165500000D02*
X31500000Y-165500000D01*
X31500000Y-159000000D02*
X27000000Y-159000000D01*
X32750000Y-163000000D02*
X32750000Y-161500000D01*
%TO.C,SW2*%
X167750000Y-85500000D02*
X167750000Y-87000000D01*
X169000000Y-89500000D02*
X173500000Y-89500000D01*
X173500000Y-83000000D02*
X169000000Y-83000000D01*
X174750000Y-87000000D02*
X174750000Y-85500000D01*
%TO.C,U1*%
X49160000Y-52670000D02*
X49160000Y-62950000D01*
X49160000Y-62950000D02*
X54460000Y-62950000D01*
X50810000Y-52670000D02*
X49160000Y-52670000D01*
X54460000Y-52670000D02*
X52810000Y-52670000D01*
X54460000Y-62950000D02*
X54460000Y-52670000D01*
X52810000Y-52670000D02*
G75*
G02*
X50810000Y-52670000I-1000000J0D01*
G01*
%TO.C,C3*%
X92880000Y-77630000D02*
X98120000Y-77630000D01*
X92880000Y-77967000D02*
X92880000Y-77630000D01*
X92880000Y-80370000D02*
X92880000Y-80033000D01*
X98120000Y-77630000D02*
X98120000Y-77967000D01*
X98120000Y-80033000D02*
X98120000Y-80370000D01*
X98120000Y-80370000D02*
X92880000Y-80370000D01*
%TO.C,C4*%
X124880000Y-77630000D02*
X130120000Y-77630000D01*
X124880000Y-77967000D02*
X124880000Y-77630000D01*
X124880000Y-80370000D02*
X124880000Y-80033000D01*
X130120000Y-77630000D02*
X130120000Y-77967000D01*
X130120000Y-80033000D02*
X130120000Y-80370000D01*
X130120000Y-80370000D02*
X124880000Y-80370000D01*
%TO.C,RV5*%
X47479000Y-90880000D02*
X57520000Y-90880000D01*
X47479000Y-94816000D02*
X47479000Y-90880000D01*
X47479000Y-103120000D02*
X47479000Y-99183000D01*
X47479000Y-103120000D02*
X48800000Y-103120000D01*
X51250000Y-103120000D02*
X51630000Y-103120000D01*
X53371000Y-103120000D02*
X54130000Y-103120000D01*
X55870000Y-103120000D02*
X57520000Y-103120000D01*
X57520000Y-94816000D02*
X57520000Y-90880000D01*
X57520000Y-103120000D02*
X57520000Y-99183000D01*
%TO.C,R11*%
X94040000Y-74000000D02*
X94810000Y-74000000D01*
X102120000Y-74000000D02*
X101350000Y-74000000D01*
X94810000Y-72630000D02*
X101350000Y-72630000D01*
X101350000Y-75370000D01*
X94810000Y-75370000D01*
X94810000Y-72630000D01*
%TO.C,D7*%
X177710000Y-58764000D02*
X177710000Y-58920000D01*
X177710000Y-61080000D02*
X177710000Y-61236000D01*
X177710000Y-58764484D02*
G75*
G02*
X180941437Y-58920000I1560000J-1235516D01*
G01*
X178229039Y-58920000D02*
G75*
G02*
X180310961Y-58920000I1040961J-1080000D01*
G01*
X180310961Y-61080000D02*
G75*
G02*
X178229039Y-61080000I-1040961J1080000D01*
G01*
X180941437Y-61080000D02*
G75*
G02*
X177710000Y-61235516I-1671437J1080000D01*
G01*
%TO.C,J5*%
X164620000Y-33380000D02*
X164620000Y-32000000D01*
X166000000Y-33380000D02*
X164620000Y-33380000D01*
X167270000Y-30620000D02*
X175000000Y-30620000D01*
X167270000Y-33380000D02*
X167270000Y-30620000D01*
X167270000Y-33380000D02*
X175000000Y-33380000D01*
X175000000Y-33380000D02*
X175000000Y-30620000D01*
%TO.C,JMA2*%
X89820000Y-133200000D02*
X109720000Y-133200000D01*
X89820000Y-135320000D02*
X89820000Y-133200000D01*
X109720000Y-133200000D02*
X109720000Y-135320000D01*
X109720000Y-135320000D02*
X89820000Y-135320000D01*
D12*
X109840000Y-133260000D02*
G75*
G02*
X109480000Y-133260000I-180000J0D01*
G01*
X109480000Y-133260000D02*
G75*
G02*
X109840000Y-133260000I180000J0D01*
G01*
%TO.C,J3*%
D11*
X133400000Y-24200000D02*
X142600000Y-24200000D01*
X133400000Y-33000000D02*
X133400000Y-24200000D01*
X133400000Y-38900000D02*
X133400000Y-37000000D01*
X136100000Y-38900000D02*
X133400000Y-38900000D01*
X141750000Y-39100000D02*
X142800000Y-39100000D01*
X142600000Y-24200000D02*
X142600000Y-38900000D01*
X142600000Y-38900000D02*
X140000000Y-38900000D01*
X142800000Y-38050000D02*
X142800000Y-39100000D01*
%TO.C,J2*%
X83400000Y-34400000D02*
G75*
G02*
X60600000Y-34400000I-11400000J0D01*
G01*
X60600000Y-34400000D02*
G75*
G02*
X83400000Y-34400000I11400000J0D01*
G01*
%TO.C,RV8*%
X143479000Y-90880000D02*
X153520000Y-90880000D01*
X143479000Y-94816000D02*
X143479000Y-90880000D01*
X143479000Y-103120000D02*
X143479000Y-99183000D01*
X143479000Y-103120000D02*
X144800000Y-103120000D01*
X147250000Y-103120000D02*
X147630000Y-103120000D01*
X149371000Y-103120000D02*
X150130000Y-103120000D01*
X151870000Y-103120000D02*
X153520000Y-103120000D01*
X153520000Y-94816000D02*
X153520000Y-90880000D01*
X153520000Y-103120000D02*
X153520000Y-99183000D01*
%TO.C,C6*%
X60880000Y-101630000D02*
X66120000Y-101630000D01*
X60880000Y-101967000D02*
X60880000Y-101630000D01*
X60880000Y-104370000D02*
X60880000Y-104033000D01*
X66120000Y-101630000D02*
X66120000Y-101967000D01*
X66120000Y-104033000D02*
X66120000Y-104370000D01*
X66120000Y-104370000D02*
X60880000Y-104370000D01*
%TO.C,C11*%
X92880000Y-125630000D02*
X98120000Y-125630000D01*
X92880000Y-125967000D02*
X92880000Y-125630000D01*
X92880000Y-128370000D02*
X92880000Y-128033000D01*
X98120000Y-125630000D02*
X98120000Y-125967000D01*
X98120000Y-128033000D02*
X98120000Y-128370000D01*
X98120000Y-128370000D02*
X92880000Y-128370000D01*
%TO.C,R28*%
X186000000Y-50880000D02*
X186000000Y-51650000D01*
X186000000Y-58960000D02*
X186000000Y-58190000D01*
X184630000Y-51650000D02*
X187370000Y-51650000D01*
X187370000Y-58190000D01*
X184630000Y-58190000D01*
X184630000Y-51650000D01*
%TO.C,RV11*%
X111479000Y-114880000D02*
X121520000Y-114880000D01*
X111479000Y-118816000D02*
X111479000Y-114880000D01*
X111479000Y-127120000D02*
X111479000Y-123183000D01*
X111479000Y-127120000D02*
X112800000Y-127120000D01*
X115250000Y-127120000D02*
X115630000Y-127120000D01*
X117371000Y-127120000D02*
X118130000Y-127120000D01*
X119870000Y-127120000D02*
X121520000Y-127120000D01*
X121520000Y-118816000D02*
X121520000Y-114880000D01*
X121520000Y-127120000D02*
X121520000Y-123183000D01*
%TO.C,JMP1*%
X44100000Y-133200000D02*
X64000000Y-133200000D01*
X44100000Y-135320000D02*
X44100000Y-133200000D01*
X64000000Y-133200000D02*
X64000000Y-135320000D01*
X64000000Y-135320000D02*
X44100000Y-135320000D01*
D12*
X64120000Y-133260000D02*
G75*
G02*
X63760000Y-133260000I-180000J0D01*
G01*
X63760000Y-133260000D02*
G75*
G02*
X64120000Y-133260000I180000J0D01*
G01*
%TO.C,R30*%
D11*
X43000000Y-150880000D02*
X43000000Y-151650000D01*
X43000000Y-158960000D02*
X43000000Y-158190000D01*
X41630000Y-151650000D02*
X44370000Y-151650000D01*
X44370000Y-158190000D01*
X41630000Y-158190000D01*
X41630000Y-151650000D01*
%TO.C,JMA1*%
X66960000Y-133200000D02*
X86860000Y-133200000D01*
X66960000Y-135320000D02*
X66960000Y-133200000D01*
X86860000Y-133200000D02*
X86860000Y-135320000D01*
X86860000Y-135320000D02*
X66960000Y-135320000D01*
D12*
X86980000Y-133260000D02*
G75*
G02*
X86620000Y-133260000I-180000J0D01*
G01*
X86620000Y-133260000D02*
G75*
G02*
X86980000Y-133260000I180000J0D01*
G01*
%TO.C,R6*%
D11*
X186000000Y-74880000D02*
X186000000Y-75650000D01*
X186000000Y-82960000D02*
X186000000Y-82190000D01*
X184630000Y-75650000D02*
X187370000Y-75650000D01*
X187370000Y-82190000D01*
X184630000Y-82190000D01*
X184630000Y-75650000D01*
%TO.C,R23*%
X94040000Y-146000000D02*
X94810000Y-146000000D01*
X102120000Y-146000000D02*
X101350000Y-146000000D01*
X94810000Y-144630000D02*
X101350000Y-144630000D01*
X101350000Y-147370000D01*
X94810000Y-147370000D01*
X94810000Y-144630000D01*
%TO.C,R25*%
X158040000Y-146000000D02*
X158810000Y-146000000D01*
X166120000Y-146000000D02*
X165350000Y-146000000D01*
X158810000Y-144630000D02*
X165350000Y-144630000D01*
X165350000Y-147370000D01*
X158810000Y-147370000D01*
X158810000Y-144630000D01*
%TO.C,RV2*%
X79479000Y-66880000D02*
X89520000Y-66880000D01*
X79479000Y-70816000D02*
X79479000Y-66880000D01*
X79479000Y-79120000D02*
X79479000Y-75183000D01*
X79479000Y-79120000D02*
X80800000Y-79120000D01*
X83250000Y-79120000D02*
X83630000Y-79120000D01*
X85371000Y-79120000D02*
X86130000Y-79120000D01*
X87870000Y-79120000D02*
X89520000Y-79120000D01*
X89520000Y-70816000D02*
X89520000Y-66880000D01*
X89520000Y-79120000D02*
X89520000Y-75183000D01*
%TO.C,RV10*%
X79479000Y-114880000D02*
X89520000Y-114880000D01*
X79479000Y-118816000D02*
X79479000Y-114880000D01*
X79479000Y-127120000D02*
X79479000Y-123183000D01*
X79479000Y-127120000D02*
X80800000Y-127120000D01*
X83250000Y-127120000D02*
X83630000Y-127120000D01*
X85371000Y-127120000D02*
X86130000Y-127120000D01*
X87870000Y-127120000D02*
X89520000Y-127120000D01*
X89520000Y-118816000D02*
X89520000Y-114880000D01*
X89520000Y-127120000D02*
X89520000Y-123183000D01*
%TO.C,R1*%
X35040000Y-65000000D02*
X35810000Y-65000000D01*
X43120000Y-65000000D02*
X42350000Y-65000000D01*
X35810000Y-63630000D02*
X42350000Y-63630000D01*
X42350000Y-66370000D01*
X35810000Y-66370000D01*
X35810000Y-63630000D01*
%TO.C,R8*%
X186000000Y-122880000D02*
X186000000Y-123650000D01*
X186000000Y-130960000D02*
X186000000Y-130190000D01*
X184630000Y-123650000D02*
X187370000Y-123650000D01*
X187370000Y-130190000D01*
X184630000Y-130190000D01*
X184630000Y-123650000D01*
%TO.C,C7*%
X92880000Y-101630000D02*
X98120000Y-101630000D01*
X92880000Y-101967000D02*
X92880000Y-101630000D01*
X92880000Y-104370000D02*
X92880000Y-104033000D01*
X98120000Y-101630000D02*
X98120000Y-101967000D01*
X98120000Y-104033000D02*
X98120000Y-104370000D01*
X98120000Y-104370000D02*
X92880000Y-104370000D01*
%TO.C,RV6*%
X79479000Y-90880000D02*
X89520000Y-90880000D01*
X79479000Y-94816000D02*
X79479000Y-90880000D01*
X79479000Y-103120000D02*
X79479000Y-99183000D01*
X79479000Y-103120000D02*
X80800000Y-103120000D01*
X83250000Y-103120000D02*
X83630000Y-103120000D01*
X85371000Y-103120000D02*
X86130000Y-103120000D01*
X87870000Y-103120000D02*
X89520000Y-103120000D01*
X89520000Y-94816000D02*
X89520000Y-90880000D01*
X89520000Y-103120000D02*
X89520000Y-99183000D01*
%TO.C,D2D*%
X151340000Y-52000000D02*
X152360000Y-52000000D01*
X153140000Y-50530000D02*
X153140000Y-53470000D01*
X153260000Y-50530000D02*
X153260000Y-53470000D01*
X153380000Y-50530000D02*
X153380000Y-53470000D01*
X158820000Y-52000000D02*
X157800000Y-52000000D01*
X152360000Y-50530000D02*
X157800000Y-50530000D01*
X157800000Y-53470000D01*
X152360000Y-53470000D01*
X152360000Y-50530000D01*
%TO.C,D8*%
X34710000Y-98764000D02*
X34710000Y-98920000D01*
X34710000Y-101080000D02*
X34710000Y-101236000D01*
X34710000Y-98764484D02*
G75*
G02*
X37941437Y-98920000I1560000J-1235516D01*
G01*
X35229039Y-98920000D02*
G75*
G02*
X37310961Y-98920000I1040961J-1080000D01*
G01*
X37310961Y-101080000D02*
G75*
G02*
X35229039Y-101080000I-1040961J1080000D01*
G01*
X37941437Y-101080000D02*
G75*
G02*
X34710000Y-101235516I-1671437J1080000D01*
G01*
%TO.C,RV15*%
X111479000Y-138880000D02*
X121520000Y-138880000D01*
X111479000Y-142816000D02*
X111479000Y-138880000D01*
X111479000Y-151120000D02*
X111479000Y-147183000D01*
X111479000Y-151120000D02*
X112800000Y-151120000D01*
X115250000Y-151120000D02*
X115630000Y-151120000D01*
X117371000Y-151120000D02*
X118130000Y-151120000D01*
X119870000Y-151120000D02*
X121520000Y-151120000D01*
X121520000Y-142816000D02*
X121520000Y-138880000D01*
X121520000Y-151120000D02*
X121520000Y-147183000D01*
%TO.C,RV7*%
X111479000Y-90880000D02*
X121520000Y-90880000D01*
X111479000Y-94816000D02*
X111479000Y-90880000D01*
X111479000Y-103120000D02*
X111479000Y-99183000D01*
X111479000Y-103120000D02*
X112800000Y-103120000D01*
X115250000Y-103120000D02*
X115630000Y-103120000D01*
X117371000Y-103120000D02*
X118130000Y-103120000D01*
X119870000Y-103120000D02*
X121520000Y-103120000D01*
X121520000Y-94816000D02*
X121520000Y-90880000D01*
X121520000Y-103120000D02*
X121520000Y-99183000D01*
%TO.C,C2*%
X60880000Y-77630000D02*
X66120000Y-77630000D01*
X60880000Y-77967000D02*
X60880000Y-77630000D01*
X60880000Y-80370000D02*
X60880000Y-80033000D01*
X66120000Y-77630000D02*
X66120000Y-77967000D01*
X66120000Y-80033000D02*
X66120000Y-80370000D01*
X66120000Y-80370000D02*
X60880000Y-80370000D01*
%TO.C,RV12*%
X143479000Y-114880000D02*
X153520000Y-114880000D01*
X143479000Y-118816000D02*
X143479000Y-114880000D01*
X143479000Y-127120000D02*
X143479000Y-123183000D01*
X143479000Y-127120000D02*
X144800000Y-127120000D01*
X147250000Y-127120000D02*
X147630000Y-127120000D01*
X149371000Y-127120000D02*
X150130000Y-127120000D01*
X151870000Y-127120000D02*
X153520000Y-127120000D01*
X153520000Y-118816000D02*
X153520000Y-114880000D01*
X153520000Y-127120000D02*
X153520000Y-123183000D01*
%TO.C,D6*%
X177710000Y-154764000D02*
X177710000Y-154920000D01*
X177710000Y-157080000D02*
X177710000Y-157236000D01*
X177710000Y-154764484D02*
G75*
G02*
X180941437Y-154920000I1560000J-1235516D01*
G01*
X178229039Y-154920000D02*
G75*
G02*
X180310961Y-154920000I1040961J-1080000D01*
G01*
X180310961Y-157080000D02*
G75*
G02*
X178229039Y-157080000I-1040961J1080000D01*
G01*
X180941437Y-157080000D02*
G75*
G02*
X177710000Y-157235516I-1671437J1080000D01*
G01*
%TO.C,R10*%
X62040000Y-74000000D02*
X62810000Y-74000000D01*
X70120000Y-74000000D02*
X69350000Y-74000000D01*
X62810000Y-72630000D02*
X69350000Y-72630000D01*
X69350000Y-75370000D01*
X62810000Y-75370000D01*
X62810000Y-72630000D01*
%TO.C,D3*%
X177710000Y-82764000D02*
X177710000Y-82920000D01*
X177710000Y-85080000D02*
X177710000Y-85236000D01*
X177710000Y-82764484D02*
G75*
G02*
X180941437Y-82920000I1560000J-1235516D01*
G01*
X178229039Y-82920000D02*
G75*
G02*
X180310961Y-82920000I1040961J-1080000D01*
G01*
X180310961Y-85080000D02*
G75*
G02*
X178229039Y-85080000I-1040961J1080000D01*
G01*
X180941437Y-85080000D02*
G75*
G02*
X177710000Y-85235516I-1671437J1080000D01*
G01*
%TO.C,SW6*%
X167750000Y-61500000D02*
X167750000Y-63000000D01*
X169000000Y-65500000D02*
X173500000Y-65500000D01*
X173500000Y-59000000D02*
X169000000Y-59000000D01*
X174750000Y-63000000D02*
X174750000Y-61500000D01*
%TO.C,RV14*%
X79479000Y-138880000D02*
X89520000Y-138880000D01*
X79479000Y-142816000D02*
X79479000Y-138880000D01*
X79479000Y-151120000D02*
X79479000Y-147183000D01*
X79479000Y-151120000D02*
X80800000Y-151120000D01*
X83250000Y-151120000D02*
X83630000Y-151120000D01*
X85371000Y-151120000D02*
X86130000Y-151120000D01*
X87870000Y-151120000D02*
X89520000Y-151120000D01*
X89520000Y-142816000D02*
X89520000Y-138880000D01*
X89520000Y-151120000D02*
X89520000Y-147183000D01*
%TO.C,R3*%
X93040000Y-66000000D02*
X93810000Y-66000000D01*
X101120000Y-66000000D02*
X100350000Y-66000000D01*
X93810000Y-64630000D02*
X100350000Y-64630000D01*
X100350000Y-67370000D01*
X93810000Y-67370000D01*
X93810000Y-64630000D01*
%TO.C,R7*%
X186000000Y-98880000D02*
X186000000Y-99650000D01*
X186000000Y-106960000D02*
X186000000Y-106190000D01*
X184630000Y-99650000D02*
X187370000Y-99650000D01*
X187370000Y-106190000D01*
X184630000Y-106190000D01*
X184630000Y-99650000D01*
%TO.C,J4*%
X134620000Y-61380000D02*
X134620000Y-60000000D01*
X136000000Y-61380000D02*
X134620000Y-61380000D01*
X137270000Y-58620000D02*
X145000000Y-58620000D01*
X137270000Y-61380000D02*
X137270000Y-58620000D01*
X137270000Y-61380000D02*
X145000000Y-61380000D01*
X145000000Y-61380000D02*
X145000000Y-58620000D01*
%TO.C,C14*%
X60880000Y-149630000D02*
X66120000Y-149630000D01*
X60880000Y-149967000D02*
X60880000Y-149630000D01*
X60880000Y-152370000D02*
X60880000Y-152033000D01*
X66120000Y-149630000D02*
X66120000Y-149967000D01*
X66120000Y-152033000D02*
X66120000Y-152370000D01*
X66120000Y-152370000D02*
X60880000Y-152370000D01*
%TO.C,C9*%
X156880000Y-101630000D02*
X162120000Y-101630000D01*
X156880000Y-101967000D02*
X156880000Y-101630000D01*
X156880000Y-104370000D02*
X156880000Y-104033000D01*
X162120000Y-101630000D02*
X162120000Y-101967000D01*
X162120000Y-104033000D02*
X162120000Y-104370000D01*
X162120000Y-104370000D02*
X156880000Y-104370000D01*
%TO.C,R13*%
X158040000Y-74000000D02*
X158810000Y-74000000D01*
X166120000Y-74000000D02*
X165350000Y-74000000D01*
X158810000Y-72630000D02*
X165350000Y-72630000D01*
X165350000Y-75370000D01*
X158810000Y-75370000D01*
X158810000Y-72630000D01*
%TO.C,R20*%
X126040000Y-122000000D02*
X126810000Y-122000000D01*
X134120000Y-122000000D02*
X133350000Y-122000000D01*
X126810000Y-120630000D02*
X133350000Y-120630000D01*
X133350000Y-123370000D01*
X126810000Y-123370000D01*
X126810000Y-120630000D01*
%TO.C,RV3*%
X111479000Y-66880000D02*
X121520000Y-66880000D01*
X111479000Y-70816000D02*
X111479000Y-66880000D01*
X111479000Y-79120000D02*
X111479000Y-75183000D01*
X111479000Y-79120000D02*
X112800000Y-79120000D01*
X115250000Y-79120000D02*
X115630000Y-79120000D01*
X117371000Y-79120000D02*
X118130000Y-79120000D01*
X119870000Y-79120000D02*
X121520000Y-79120000D01*
X121520000Y-70816000D02*
X121520000Y-66880000D01*
X121520000Y-79120000D02*
X121520000Y-75183000D01*
%TO.C,C15*%
X92880000Y-149630000D02*
X98120000Y-149630000D01*
X92880000Y-149967000D02*
X92880000Y-149630000D01*
X92880000Y-152370000D02*
X92880000Y-152033000D01*
X98120000Y-149630000D02*
X98120000Y-149967000D01*
X98120000Y-152033000D02*
X98120000Y-152370000D01*
X98120000Y-152370000D02*
X92880000Y-152370000D01*
%TO.C,C8*%
X121880000Y-101630000D02*
X127120000Y-101630000D01*
X121880000Y-101967000D02*
X121880000Y-101630000D01*
X121880000Y-104370000D02*
X121880000Y-104033000D01*
X127120000Y-101630000D02*
X127120000Y-101967000D01*
X127120000Y-104033000D02*
X127120000Y-104370000D01*
X127120000Y-104370000D02*
X121880000Y-104370000D01*
%TO.C,R22*%
X62040000Y-146000000D02*
X62810000Y-146000000D01*
X70120000Y-146000000D02*
X69350000Y-146000000D01*
X62810000Y-144630000D02*
X69350000Y-144630000D01*
X69350000Y-147370000D01*
X62810000Y-147370000D01*
X62810000Y-144630000D01*
%TO.C,D4*%
X177710000Y-106764000D02*
X177710000Y-106920000D01*
X177710000Y-109080000D02*
X177710000Y-109236000D01*
X177710000Y-106764484D02*
G75*
G02*
X180941437Y-106920000I1560000J-1235516D01*
G01*
X178229039Y-106920000D02*
G75*
G02*
X180310961Y-106920000I1040961J-1080000D01*
G01*
X180310961Y-109080000D02*
G75*
G02*
X178229039Y-109080000I-1040961J1080000D01*
G01*
X180941437Y-109080000D02*
G75*
G02*
X177710000Y-109235516I-1671437J1080000D01*
G01*
%TO.C,RV13*%
X47479000Y-138880000D02*
X57520000Y-138880000D01*
X47479000Y-142816000D02*
X47479000Y-138880000D01*
X47479000Y-151120000D02*
X47479000Y-147183000D01*
X47479000Y-151120000D02*
X48800000Y-151120000D01*
X51250000Y-151120000D02*
X51630000Y-151120000D01*
X53371000Y-151120000D02*
X54130000Y-151120000D01*
X55870000Y-151120000D02*
X57520000Y-151120000D01*
X57520000Y-142816000D02*
X57520000Y-138880000D01*
X57520000Y-151120000D02*
X57520000Y-147183000D01*
%TO.C,R24*%
X126040000Y-146000000D02*
X126810000Y-146000000D01*
X134120000Y-146000000D02*
X133350000Y-146000000D01*
X126810000Y-144630000D02*
X133350000Y-144630000D01*
X133350000Y-147370000D01*
X126810000Y-147370000D01*
X126810000Y-144630000D01*
%TO.C,RV9*%
X47479000Y-114880000D02*
X57520000Y-114880000D01*
X47479000Y-118816000D02*
X47479000Y-114880000D01*
X47479000Y-127120000D02*
X47479000Y-123183000D01*
X47479000Y-127120000D02*
X48800000Y-127120000D01*
X51250000Y-127120000D02*
X51630000Y-127120000D01*
X53371000Y-127120000D02*
X54130000Y-127120000D01*
X55870000Y-127120000D02*
X57520000Y-127120000D01*
X57520000Y-118816000D02*
X57520000Y-114880000D01*
X57520000Y-127120000D02*
X57520000Y-123183000D01*
%TO.C,C13*%
X156880000Y-125630000D02*
X162120000Y-125630000D01*
X156880000Y-125967000D02*
X156880000Y-125630000D01*
X156880000Y-128370000D02*
X156880000Y-128033000D01*
X162120000Y-125630000D02*
X162120000Y-125967000D01*
X162120000Y-128033000D02*
X162120000Y-128370000D01*
X162120000Y-128370000D02*
X156880000Y-128370000D01*
%TO.C,C10*%
X60880000Y-125630000D02*
X66120000Y-125630000D01*
X60880000Y-125967000D02*
X60880000Y-125630000D01*
X60880000Y-128370000D02*
X60880000Y-128033000D01*
X66120000Y-125630000D02*
X66120000Y-125967000D01*
X66120000Y-128033000D02*
X66120000Y-128370000D01*
X66120000Y-128370000D02*
X60880000Y-128370000D01*
%TO.C,SW4*%
X167750000Y-133500000D02*
X167750000Y-135000000D01*
X169000000Y-137500000D02*
X173500000Y-137500000D01*
X173500000Y-131000000D02*
X169000000Y-131000000D01*
X174750000Y-135000000D02*
X174750000Y-133500000D01*
%TO.C,JMD1*%
X29876000Y-84940000D02*
X54856000Y-84940000D01*
X29876000Y-87060000D02*
X29876000Y-84940000D01*
X54856000Y-84940000D02*
X54856000Y-87060000D01*
X54856000Y-87060000D02*
X29876000Y-87060000D01*
D12*
X54976000Y-85000000D02*
G75*
G02*
X54616000Y-85000000I-180000J0D01*
G01*
X54616000Y-85000000D02*
G75*
G02*
X54976000Y-85000000I180000J0D01*
G01*
%TO.C,R4*%
D11*
X69040000Y-59000000D02*
X69810000Y-59000000D01*
X77120000Y-59000000D02*
X76350000Y-59000000D01*
X69810000Y-57630000D02*
X76350000Y-57630000D01*
X76350000Y-60370000D01*
X69810000Y-60370000D01*
X69810000Y-57630000D01*
%TO.C,C19*%
X159749759Y-62161000D02*
X160379759Y-62161000D01*
X160064759Y-61846000D02*
X160064759Y-62476000D01*
X163250000Y-60770000D02*
X163250000Y-67230000D01*
X163290000Y-60770000D02*
X163290000Y-67230000D01*
X163330000Y-60771000D02*
X163330000Y-67229000D01*
X163370000Y-60772000D02*
X163370000Y-67228000D01*
X163410000Y-60774000D02*
X163410000Y-67226000D01*
X163450000Y-60776000D02*
X163450000Y-67224000D01*
X163490000Y-60779000D02*
X163490000Y-62960000D01*
X163490000Y-65040000D02*
X163490000Y-67221000D01*
X163530000Y-60782000D02*
X163530000Y-62960000D01*
X163530000Y-65040000D02*
X163530000Y-67218000D01*
X163570000Y-60786000D02*
X163570000Y-62960000D01*
X163570000Y-65040000D02*
X163570000Y-67214000D01*
X163610000Y-60790000D02*
X163610000Y-62960000D01*
X163610000Y-65040000D02*
X163610000Y-67210000D01*
X163650000Y-60795000D02*
X163650000Y-62960000D01*
X163650000Y-65040000D02*
X163650000Y-67205000D01*
X163690000Y-60800000D02*
X163690000Y-62960000D01*
X163690000Y-65040000D02*
X163690000Y-67200000D01*
X163730000Y-60805000D02*
X163730000Y-62960000D01*
X163730000Y-65040000D02*
X163730000Y-67195000D01*
X163770000Y-60812000D02*
X163770000Y-62960000D01*
X163770000Y-65040000D02*
X163770000Y-67188000D01*
X163810000Y-60818000D02*
X163810000Y-62960000D01*
X163810000Y-65040000D02*
X163810000Y-67182000D01*
X163850000Y-60826000D02*
X163850000Y-62960000D01*
X163850000Y-65040000D02*
X163850000Y-67174000D01*
X163890000Y-60833000D02*
X163890000Y-62960000D01*
X163890000Y-65040000D02*
X163890000Y-67167000D01*
X163930000Y-60841000D02*
X163930000Y-62960000D01*
X163930000Y-65040000D02*
X163930000Y-67159000D01*
X163970000Y-60850000D02*
X163970000Y-62960000D01*
X163970000Y-65040000D02*
X163970000Y-67150000D01*
X164010000Y-60860000D02*
X164010000Y-62960000D01*
X164010000Y-65040000D02*
X164010000Y-67140000D01*
X164050000Y-60869000D02*
X164050000Y-62960000D01*
X164050000Y-65040000D02*
X164050000Y-67131000D01*
X164090000Y-60880000D02*
X164090000Y-62960000D01*
X164090000Y-65040000D02*
X164090000Y-67120000D01*
X164130000Y-60891000D02*
X164130000Y-62960000D01*
X164130000Y-65040000D02*
X164130000Y-67109000D01*
X164170000Y-60902000D02*
X164170000Y-62960000D01*
X164170000Y-65040000D02*
X164170000Y-67098000D01*
X164210000Y-60914000D02*
X164210000Y-62960000D01*
X164210000Y-65040000D02*
X164210000Y-67086000D01*
X164250000Y-60927000D02*
X164250000Y-62960000D01*
X164250000Y-65040000D02*
X164250000Y-67073000D01*
X164290000Y-60940000D02*
X164290000Y-62960000D01*
X164290000Y-65040000D02*
X164290000Y-67060000D01*
X164330000Y-60953000D02*
X164330000Y-62960000D01*
X164330000Y-65040000D02*
X164330000Y-67047000D01*
X164370000Y-60968000D02*
X164370000Y-62960000D01*
X164370000Y-65040000D02*
X164370000Y-67032000D01*
X164410000Y-60983000D02*
X164410000Y-62960000D01*
X164410000Y-65040000D02*
X164410000Y-67017000D01*
X164450000Y-60998000D02*
X164450000Y-62960000D01*
X164450000Y-65040000D02*
X164450000Y-67002000D01*
X164490000Y-61014000D02*
X164490000Y-62960000D01*
X164490000Y-65040000D02*
X164490000Y-66986000D01*
X164530000Y-61031000D02*
X164530000Y-62960000D01*
X164530000Y-65040000D02*
X164530000Y-66969000D01*
X164570000Y-61048000D02*
X164570000Y-62960000D01*
X164570000Y-65040000D02*
X164570000Y-66952000D01*
X164610000Y-61066000D02*
X164610000Y-62960000D01*
X164610000Y-65040000D02*
X164610000Y-66934000D01*
X164650000Y-61085000D02*
X164650000Y-62960000D01*
X164650000Y-65040000D02*
X164650000Y-66915000D01*
X164690000Y-61104000D02*
X164690000Y-62960000D01*
X164690000Y-65040000D02*
X164690000Y-66896000D01*
X164730000Y-61124000D02*
X164730000Y-62960000D01*
X164730000Y-65040000D02*
X164730000Y-66876000D01*
X164770000Y-61145000D02*
X164770000Y-62960000D01*
X164770000Y-65040000D02*
X164770000Y-66855000D01*
X164810000Y-61166000D02*
X164810000Y-62960000D01*
X164810000Y-65040000D02*
X164810000Y-66834000D01*
X164850000Y-61188000D02*
X164850000Y-62960000D01*
X164850000Y-65040000D02*
X164850000Y-66812000D01*
X164890000Y-61211000D02*
X164890000Y-62960000D01*
X164890000Y-65040000D02*
X164890000Y-66789000D01*
X164930000Y-61235000D02*
X164930000Y-62960000D01*
X164930000Y-65040000D02*
X164930000Y-66765000D01*
X164970000Y-61259000D02*
X164970000Y-62960000D01*
X164970000Y-65040000D02*
X164970000Y-66741000D01*
X165010000Y-61284000D02*
X165010000Y-62960000D01*
X165010000Y-65040000D02*
X165010000Y-66716000D01*
X165050000Y-61310000D02*
X165050000Y-62960000D01*
X165050000Y-65040000D02*
X165050000Y-66690000D01*
X165090000Y-61337000D02*
X165090000Y-62960000D01*
X165090000Y-65040000D02*
X165090000Y-66663000D01*
X165130000Y-61364000D02*
X165130000Y-62960000D01*
X165130000Y-65040000D02*
X165130000Y-66636000D01*
X165170000Y-61393000D02*
X165170000Y-62960000D01*
X165170000Y-65040000D02*
X165170000Y-66607000D01*
X165210000Y-61423000D02*
X165210000Y-62960000D01*
X165210000Y-65040000D02*
X165210000Y-66577000D01*
X165250000Y-61453000D02*
X165250000Y-62960000D01*
X165250000Y-65040000D02*
X165250000Y-66547000D01*
X165290000Y-61484000D02*
X165290000Y-62960000D01*
X165290000Y-65040000D02*
X165290000Y-66516000D01*
X165330000Y-61517000D02*
X165330000Y-62960000D01*
X165330000Y-65040000D02*
X165330000Y-66483000D01*
X165370000Y-61550000D02*
X165370000Y-62960000D01*
X165370000Y-65040000D02*
X165370000Y-66450000D01*
X165410000Y-61585000D02*
X165410000Y-62960000D01*
X165410000Y-65040000D02*
X165410000Y-66415000D01*
X165450000Y-61621000D02*
X165450000Y-62960000D01*
X165450000Y-65040000D02*
X165450000Y-66379000D01*
X165490000Y-61658000D02*
X165490000Y-62960000D01*
X165490000Y-65040000D02*
X165490000Y-66342000D01*
X165530000Y-61696000D02*
X165530000Y-62960000D01*
X165530000Y-65040000D02*
X165530000Y-66304000D01*
X165570000Y-61736000D02*
X165570000Y-66264000D01*
X165610000Y-61777000D02*
X165610000Y-66223000D01*
X165650000Y-61819000D02*
X165650000Y-66181000D01*
X165690000Y-61863000D02*
X165690000Y-66137000D01*
X165730000Y-61909000D02*
X165730000Y-66091000D01*
X165770000Y-61956000D02*
X165770000Y-66044000D01*
X165810000Y-62005000D02*
X165810000Y-65995000D01*
X165850000Y-62057000D02*
X165850000Y-65943000D01*
X165890000Y-62110000D02*
X165890000Y-65890000D01*
X165930000Y-62166000D02*
X165930000Y-65834000D01*
X165970000Y-62225000D02*
X165970000Y-65775000D01*
X166010000Y-62286000D02*
X166010000Y-65714000D01*
X166050000Y-62351000D02*
X166050000Y-65649000D01*
X166090000Y-62419000D02*
X166090000Y-65581000D01*
X166130000Y-62491000D02*
X166130000Y-65509000D01*
X166170000Y-62568000D02*
X166170000Y-65432000D01*
X166210000Y-62650000D02*
X166210000Y-65350000D01*
X166250000Y-62739000D02*
X166250000Y-65261000D01*
X166290000Y-62835000D02*
X166290000Y-65165000D01*
X166330000Y-62942000D02*
X166330000Y-65058000D01*
X166370000Y-63061000D02*
X166370000Y-64939000D01*
X166410000Y-63199000D02*
X166410000Y-64801000D01*
X166450000Y-63367000D02*
X166450000Y-64633000D01*
X166490000Y-63598000D02*
X166490000Y-64402000D01*
X166520000Y-64000000D02*
G75*
G02*
X159980000Y-64000000I-3270000J0D01*
G01*
X159980000Y-64000000D02*
G75*
G02*
X166520000Y-64000000I3270000J0D01*
G01*
%TO.C,SW7*%
X25750000Y-101500000D02*
X25750000Y-103000000D01*
X27000000Y-105500000D02*
X31500000Y-105500000D01*
X31500000Y-99000000D02*
X27000000Y-99000000D01*
X32750000Y-103000000D02*
X32750000Y-101500000D01*
%TO.C,C18*%
X135880000Y-170630000D02*
X141120000Y-170630000D01*
X135880000Y-170967000D02*
X135880000Y-170630000D01*
X135880000Y-173370000D02*
X135880000Y-173033000D01*
X141120000Y-170630000D02*
X141120000Y-170967000D01*
X141120000Y-173033000D02*
X141120000Y-173370000D01*
X141120000Y-173370000D02*
X135880000Y-173370000D01*
%TO.C,RV16*%
X143479000Y-138880000D02*
X153520000Y-138880000D01*
X143479000Y-142816000D02*
X143479000Y-138880000D01*
X143479000Y-151120000D02*
X143479000Y-147183000D01*
X143479000Y-151120000D02*
X144800000Y-151120000D01*
X147250000Y-151120000D02*
X147630000Y-151120000D01*
X149371000Y-151120000D02*
X150130000Y-151120000D01*
X151870000Y-151120000D02*
X153520000Y-151120000D01*
X153520000Y-142816000D02*
X153520000Y-138880000D01*
X153520000Y-151120000D02*
X153520000Y-147183000D01*
%TO.C,R15*%
X94040000Y-98000000D02*
X94810000Y-98000000D01*
X102120000Y-98000000D02*
X101350000Y-98000000D01*
X94810000Y-96630000D02*
X101350000Y-96630000D01*
X101350000Y-99370000D01*
X94810000Y-99370000D01*
X94810000Y-96630000D01*
%TO.C,R9*%
X186000000Y-146880000D02*
X186000000Y-147650000D01*
X186000000Y-154960000D02*
X186000000Y-154190000D01*
X184630000Y-147650000D02*
X187370000Y-147650000D01*
X187370000Y-154190000D01*
X184630000Y-154190000D01*
X184630000Y-147650000D01*
%TO.C,SW3*%
X167750000Y-109500000D02*
X167750000Y-111000000D01*
X169000000Y-113500000D02*
X173500000Y-113500000D01*
X173500000Y-107000000D02*
X169000000Y-107000000D01*
X174750000Y-111000000D02*
X174750000Y-109500000D01*
%TO.C,C12*%
X121880000Y-125630000D02*
X127120000Y-125630000D01*
X121880000Y-125967000D02*
X121880000Y-125630000D01*
X121880000Y-128370000D02*
X121880000Y-128033000D01*
X127120000Y-125630000D02*
X127120000Y-125967000D01*
X127120000Y-128033000D02*
X127120000Y-128370000D01*
X127120000Y-128370000D02*
X121880000Y-128370000D01*
%TO.C,R14*%
X62040000Y-98000000D02*
X62810000Y-98000000D01*
X70120000Y-98000000D02*
X69350000Y-98000000D01*
X62810000Y-96630000D02*
X69350000Y-96630000D01*
X69350000Y-99370000D01*
X62810000Y-99370000D01*
X62810000Y-96630000D01*
%TO.C,R27*%
X113040000Y-172000000D02*
X113810000Y-172000000D01*
X121120000Y-172000000D02*
X120350000Y-172000000D01*
X113810000Y-170630000D02*
X120350000Y-170630000D01*
X120350000Y-173370000D01*
X113810000Y-173370000D01*
X113810000Y-170630000D01*
%TO.C,R5*%
X69040000Y-65000000D02*
X69810000Y-65000000D01*
X77120000Y-65000000D02*
X76350000Y-65000000D01*
X69810000Y-63630000D02*
X76350000Y-63630000D01*
X76350000Y-66370000D01*
X69810000Y-66370000D01*
X69810000Y-63630000D01*
%TO.C,R16*%
X126040000Y-98000000D02*
X126810000Y-98000000D01*
X134120000Y-98000000D02*
X133350000Y-98000000D01*
X126810000Y-96630000D02*
X133350000Y-96630000D01*
X133350000Y-99370000D01*
X126810000Y-99370000D01*
X126810000Y-96630000D01*
%TO.C,R19*%
X94040000Y-122000000D02*
X94810000Y-122000000D01*
X102120000Y-122000000D02*
X101350000Y-122000000D01*
X94810000Y-120630000D02*
X101350000Y-120630000D01*
X101350000Y-123370000D01*
X94810000Y-123370000D01*
X94810000Y-120630000D01*
%TO.C,J10*%
X97790000Y-24930000D02*
X113780000Y-24930000D01*
X97790000Y-49470000D02*
X97790000Y-24930000D01*
X101610000Y-16030000D02*
X101610000Y-24930000D01*
X112850000Y-16030000D02*
X101610000Y-16030000D01*
X112850000Y-16030000D02*
X112850000Y-24930000D01*
X113780000Y-49470000D02*
X97790000Y-49470000D01*
X113780000Y-49470000D02*
X113780000Y-24930000D01*
%TO.C,C17*%
X156880000Y-149630000D02*
X162120000Y-149630000D01*
X156880000Y-149967000D02*
X156880000Y-149630000D01*
X156880000Y-152370000D02*
X156880000Y-152033000D01*
X162120000Y-149630000D02*
X162120000Y-149967000D01*
X162120000Y-152033000D02*
X162120000Y-152370000D01*
X162120000Y-152370000D02*
X156880000Y-152370000D01*
%TO.C,R21*%
X158040000Y-122000000D02*
X158810000Y-122000000D01*
X166120000Y-122000000D02*
X165350000Y-122000000D01*
X158810000Y-120630000D02*
X165350000Y-120630000D01*
X165350000Y-123370000D01*
X158810000Y-123370000D01*
X158810000Y-120630000D01*
%TO.C,C5*%
X156880000Y-77630000D02*
X162120000Y-77630000D01*
X156880000Y-77967000D02*
X156880000Y-77630000D01*
X156880000Y-80370000D02*
X156880000Y-80033000D01*
X162120000Y-77630000D02*
X162120000Y-77967000D01*
X162120000Y-80033000D02*
X162120000Y-80370000D01*
X162120000Y-80370000D02*
X156880000Y-80370000D01*
%TD*%
M02*
