%TF.GenerationSoftware,KiCad,Pcbnew,10.0.3*%
%TF.CreationDate,2026-06-06T11:47:45+02:00*%
%TF.ProjectId,SysEx_Patcher,53797345-785f-4506-9174-636865722e6b,rev?*%
%TF.SameCoordinates,Original*%
%TF.FileFunction,Soldermask,Bot*%
%TF.FilePolarity,Negative*%
%FSLAX46Y46*%
G04 Gerber Fmt 4.6, Leading zero omitted, Abs format (unit mm)*
G04 Created by KiCad (PCBNEW 10.0.3) date 2026-06-06 11:47:45*
%MOMM*%
%LPD*%
G01*
G04 APERTURE LIST*
G04 Aperture macros list*
%AMRoundRect*
0 Rectangle with rounded corners*
0 $1 Rounding radius*
0 $2 $3 $4 $5 $6 $7 $8 $9 X,Y pos of 4 corners*
0 Add a 4 corners polygon primitive as box body*
4,1,4,$2,$3,$4,$5,$6,$7,$8,$9,$2,$3,0*
0 Add four circle primitives for the rounded corners*
1,1,$1+$1,$2,$3*
1,1,$1+$1,$4,$5*
1,1,$1+$1,$6,$7*
1,1,$1+$1,$8,$9*
0 Add four rect primitives between the rounded corners*
20,1,$1+$1,$2,$3,$4,$5,0*
20,1,$1+$1,$4,$5,$6,$7,0*
20,1,$1+$1,$6,$7,$8,$9,0*
20,1,$1+$1,$8,$9,$2,$3,0*%
G04 Aperture macros list end*
%ADD10C,1.600000*%
%ADD11R,1.800000X1.800000*%
%ADD12C,1.800000*%
%ADD13RoundRect,0.750000X-1.250000X-0.750000X1.250000X-0.750000X1.250000X0.750000X-1.250000X0.750000X0*%
%ADD14RoundRect,0.250000X-0.550000X-0.550000X0.550000X-0.550000X0.550000X0.550000X-0.550000X0.550000X0*%
%ADD15C,2.600000*%
%ADD16C,2.400000*%
%ADD17R,1.700000X1.700000*%
%ADD18C,1.700000*%
%ADD19O,2.200000X3.500000*%
%ADD20R,1.500000X2.500000*%
%ADD21O,1.500000X2.500000*%
%ADD22C,2.000000*%
%ADD23C,3.000000*%
%ADD24RoundRect,0.249999X-0.850001X-0.850001X0.850001X-0.850001X0.850001X0.850001X-0.850001X0.850001X0*%
%ADD25C,2.200000*%
%ADD26R,3.500000X3.500000*%
%ADD27RoundRect,0.750000X-0.750000X-1.000000X0.750000X-1.000000X0.750000X1.000000X-0.750000X1.000000X0*%
%ADD28RoundRect,0.875000X-0.875000X-0.875000X0.875000X-0.875000X0.875000X0.875000X-0.875000X0.875000X0*%
G04 APERTURE END LIST*
D10*
%TO.C,R7*%
X152000000Y-88000000D03*
X152000000Y-77840000D03*
%TD*%
D11*
%TO.C,RV5*%
X30000000Y-92000000D03*
D12*
X32500000Y-92000000D03*
X35000000Y-92000000D03*
D13*
X28100000Y-85000000D03*
X36900000Y-85000000D03*
%TD*%
D10*
%TO.C,R11*%
X76000000Y-62000000D03*
X76000000Y-51840000D03*
%TD*%
%TO.C,C11*%
X82000000Y-122000000D03*
X82000000Y-117000000D03*
%TD*%
D11*
%TO.C,RV7*%
X94000000Y-92000000D03*
D12*
X96500000Y-92000000D03*
X99000000Y-92000000D03*
D13*
X92100000Y-85000000D03*
X100900000Y-85000000D03*
%TD*%
D11*
%TO.C,RV10*%
X62000000Y-118000000D03*
D12*
X64500000Y-118000000D03*
X67000000Y-118000000D03*
D13*
X60100000Y-111000000D03*
X68900000Y-111000000D03*
%TD*%
D11*
%TO.C,RV2*%
X62000000Y-66000000D03*
D12*
X64500000Y-66000000D03*
X67000000Y-66000000D03*
D13*
X60100000Y-59000000D03*
X68900000Y-59000000D03*
%TD*%
D11*
%TO.C,RV13*%
X30000000Y-144000000D03*
D12*
X32500000Y-144000000D03*
X35000000Y-144000000D03*
D13*
X28100000Y-137000000D03*
X36900000Y-137000000D03*
%TD*%
D10*
%TO.C,C8*%
X114000000Y-96000000D03*
X114000000Y-91000000D03*
%TD*%
%TO.C,R18*%
X44000000Y-114000000D03*
X44000000Y-103840000D03*
%TD*%
%TO.C,R13*%
X140000000Y-62000000D03*
X140000000Y-51840000D03*
%TD*%
D11*
%TO.C,RV9*%
X30000000Y-118000000D03*
D12*
X32500000Y-118000000D03*
X35000000Y-118000000D03*
D13*
X28100000Y-111000000D03*
X36900000Y-111000000D03*
%TD*%
D11*
%TO.C,RV4*%
X126000000Y-66000000D03*
D12*
X128500000Y-66000000D03*
X131000000Y-66000000D03*
D13*
X124100000Y-59000000D03*
X132900000Y-59000000D03*
%TD*%
D14*
%TO.C,D1*%
X14000000Y-39000000D03*
D10*
X21620000Y-39000000D03*
%TD*%
%TO.C,R17*%
X140000000Y-88000000D03*
X140000000Y-77840000D03*
%TD*%
D11*
%TO.C,RV3*%
X94000000Y-66000000D03*
D12*
X96500000Y-66000000D03*
X99000000Y-66000000D03*
D13*
X92100000Y-59000000D03*
X100900000Y-59000000D03*
%TD*%
D15*
%TO.C,J1*%
X19000000Y-8300000D03*
X29000000Y-8300000D03*
D16*
X16700000Y-18000000D03*
X24000000Y-18000000D03*
X31300000Y-18000000D03*
X29000000Y-20500000D03*
X19000000Y-20500000D03*
%TD*%
D10*
%TO.C,C16*%
X114000000Y-148000000D03*
X114000000Y-143000000D03*
%TD*%
D11*
%TO.C,D6*%
X160000000Y-132000000D03*
D12*
X160000000Y-129460000D03*
%TD*%
D11*
%TO.C,RV11*%
X94000000Y-118000000D03*
D12*
X96500000Y-118000000D03*
X99000000Y-118000000D03*
D13*
X92100000Y-111000000D03*
X100900000Y-111000000D03*
%TD*%
D11*
%TO.C,RV8*%
X126000000Y-92000000D03*
D12*
X128500000Y-92000000D03*
X131000000Y-92000000D03*
D13*
X124100000Y-85000000D03*
X132900000Y-85000000D03*
%TD*%
D17*
%TO.C,J5*%
X146000000Y-12000000D03*
D18*
X148540000Y-12000000D03*
X151080000Y-12000000D03*
X153620000Y-12000000D03*
%TD*%
D10*
%TO.C,C10*%
X50000000Y-122000000D03*
X50000000Y-117000000D03*
%TD*%
D19*
%TO.C,SW1*%
X67900000Y-42000000D03*
X76100000Y-42000000D03*
D20*
X70000000Y-42000000D03*
D21*
X72000000Y-42000000D03*
X74000000Y-42000000D03*
%TD*%
D17*
%TO.C,JMA3*%
X74610000Y-172000000D03*
D18*
X77150000Y-172000000D03*
X79690000Y-172000000D03*
X82230000Y-172000000D03*
X84770000Y-172000000D03*
X87310000Y-172000000D03*
X89850000Y-172000000D03*
X92390000Y-172000000D03*
%TD*%
D17*
%TO.C,JMD2*%
X46670000Y-220000000D03*
D18*
X49210000Y-220000000D03*
X51750000Y-220000000D03*
%TD*%
D22*
%TO.C,SW2*%
X10000000Y-66000000D03*
X16500000Y-66000000D03*
X10000000Y-70500000D03*
X16500000Y-70500000D03*
%TD*%
D10*
%TO.C,R27*%
X95000000Y-192000000D03*
X105160000Y-192000000D03*
%TD*%
%TO.C,R3*%
X98000000Y-39000000D03*
X108160000Y-39000000D03*
%TD*%
%TO.C,C3*%
X82000000Y-70000000D03*
X82000000Y-65000000D03*
%TD*%
%TO.C,R6*%
X152000000Y-66000000D03*
X152000000Y-55840000D03*
%TD*%
D11*
%TO.C,D3*%
X160000000Y-66000000D03*
D12*
X160000000Y-63460000D03*
%TD*%
D22*
%TO.C,SW3*%
X10000000Y-88000000D03*
X16500000Y-88000000D03*
X10000000Y-92500000D03*
X16500000Y-92500000D03*
%TD*%
%TO.C,SW5*%
X10000000Y-132000000D03*
X16500000Y-132000000D03*
X10000000Y-136500000D03*
X16500000Y-136500000D03*
%TD*%
D11*
%TO.C,D4*%
X160000000Y-88000000D03*
D12*
X160000000Y-85460000D03*
%TD*%
D11*
%TO.C,RV6*%
X62000000Y-92000000D03*
D12*
X64500000Y-92000000D03*
X67000000Y-92000000D03*
D13*
X60100000Y-85000000D03*
X68900000Y-85000000D03*
%TD*%
D10*
%TO.C,R9*%
X152000000Y-132000000D03*
X152000000Y-121840000D03*
%TD*%
D17*
%TO.C,JMD1*%
X20000000Y-220000000D03*
D18*
X22540000Y-220000000D03*
X25080000Y-220000000D03*
X27620000Y-220000000D03*
X30160000Y-220000000D03*
X32700000Y-220000000D03*
X35240000Y-220000000D03*
X37780000Y-220000000D03*
X40320000Y-220000000D03*
X42860000Y-220000000D03*
%TD*%
D10*
%TO.C,R4*%
X48000000Y-39000000D03*
X58160000Y-39000000D03*
%TD*%
%TO.C,C9*%
X146000000Y-96000000D03*
X146000000Y-91000000D03*
%TD*%
%TO.C,R24*%
X108000000Y-140000000D03*
X108000000Y-129840000D03*
%TD*%
D17*
%TO.C,JMD4*%
X84770000Y-220000000D03*
D18*
X87310000Y-220000000D03*
%TD*%
D10*
%TO.C,R25*%
X140000000Y-140000000D03*
X140000000Y-129840000D03*
%TD*%
D17*
%TO.C,J4*%
X116000000Y-40000000D03*
D18*
X118540000Y-40000000D03*
X121080000Y-40000000D03*
X123620000Y-40000000D03*
%TD*%
D17*
%TO.C,JMA2*%
X51750000Y-172000000D03*
D18*
X54290000Y-172000000D03*
X56830000Y-172000000D03*
X59370000Y-172000000D03*
X61910000Y-172000000D03*
X64450000Y-172000000D03*
X66990000Y-172000000D03*
X69530000Y-172000000D03*
%TD*%
D10*
%TO.C,R12*%
X108000000Y-62000000D03*
X108000000Y-51840000D03*
%TD*%
%TO.C,R8*%
X152000000Y-110000000D03*
X152000000Y-99840000D03*
%TD*%
D17*
%TO.C,JMD3*%
X61910000Y-220000000D03*
D18*
X64450000Y-220000000D03*
%TD*%
D23*
%TO.C,J10*%
X82130000Y-18850000D03*
D22*
X80000000Y-12500000D03*
X91430000Y-12500000D03*
D23*
X91430000Y-9300000D03*
X80000000Y-15650000D03*
X91430000Y-15650000D03*
X80000000Y-9300000D03*
X80000000Y-22000000D03*
X91430000Y-22000000D03*
%TD*%
D10*
%TO.C,C7*%
X82000000Y-96000000D03*
X82000000Y-91000000D03*
%TD*%
%TO.C,R23*%
X76000000Y-140000000D03*
X76000000Y-129840000D03*
%TD*%
D24*
%TO.C,D2D*%
X130000000Y-32000000D03*
D25*
X140160000Y-32000000D03*
%TD*%
D17*
%TO.C,JMA1*%
X28890000Y-172000000D03*
D18*
X31430000Y-172000000D03*
X33970000Y-172000000D03*
X36510000Y-172000000D03*
X39050000Y-172000000D03*
X41590000Y-172000000D03*
X44130000Y-172000000D03*
X46670000Y-172000000D03*
%TD*%
D22*
%TO.C,SW4*%
X10000000Y-110000000D03*
X16500000Y-110000000D03*
X10000000Y-114500000D03*
X16500000Y-114500000D03*
%TD*%
D14*
%TO.C,U1*%
X28000000Y-34000000D03*
D10*
X28000000Y-36540000D03*
X28000000Y-39080000D03*
X28000000Y-41620000D03*
X35620000Y-41620000D03*
X35620000Y-39080000D03*
X35620000Y-36540000D03*
X35620000Y-34000000D03*
%TD*%
D14*
%TO.C,U2*%
X48000000Y-178000000D03*
D10*
X48000000Y-180540000D03*
X48000000Y-183080000D03*
X48000000Y-185620000D03*
X48000000Y-188160000D03*
X48000000Y-190700000D03*
X48000000Y-193240000D03*
X48000000Y-195780000D03*
X48000000Y-198320000D03*
X48000000Y-200860000D03*
X48000000Y-203400000D03*
X48000000Y-205940000D03*
X63240000Y-205940000D03*
X63240000Y-203400000D03*
X63240000Y-200860000D03*
X63240000Y-198320000D03*
X63240000Y-195780000D03*
X63240000Y-193240000D03*
X63240000Y-190700000D03*
X63240000Y-188160000D03*
X63240000Y-185620000D03*
X63240000Y-183080000D03*
X63240000Y-180540000D03*
X63240000Y-178000000D03*
%TD*%
%TO.C,R19*%
X76000000Y-114000000D03*
X76000000Y-103840000D03*
%TD*%
%TO.C,C6*%
X50000000Y-96000000D03*
X50000000Y-91000000D03*
%TD*%
D11*
%TO.C,RV1*%
X30000000Y-66000000D03*
D12*
X32500000Y-66000000D03*
X35000000Y-66000000D03*
D13*
X28100000Y-59000000D03*
X36900000Y-59000000D03*
%TD*%
D10*
%TO.C,R20*%
X108000000Y-114000000D03*
X108000000Y-103840000D03*
%TD*%
D11*
%TO.C,RV16*%
X126000000Y-144000000D03*
D12*
X128500000Y-144000000D03*
X131000000Y-144000000D03*
D13*
X124100000Y-137000000D03*
X132900000Y-137000000D03*
%TD*%
D10*
%TO.C,C15*%
X82000000Y-148000000D03*
X82000000Y-143000000D03*
%TD*%
%TO.C,C2*%
X50000000Y-70000000D03*
X50000000Y-65000000D03*
%TD*%
%TO.C,C18*%
X120000000Y-192000000D03*
X125000000Y-192000000D03*
%TD*%
D11*
%TO.C,RV14*%
X62000000Y-144000000D03*
D12*
X64500000Y-144000000D03*
X67000000Y-144000000D03*
D13*
X60100000Y-137000000D03*
X68900000Y-137000000D03*
%TD*%
D10*
%TO.C,C14*%
X50000000Y-148000000D03*
X50000000Y-143000000D03*
%TD*%
%TO.C,C13*%
X146000000Y-122000000D03*
X146000000Y-117000000D03*
%TD*%
D26*
%TO.C,J3*%
X118000000Y-18000000D03*
D27*
X118000000Y-12000000D03*
D28*
X113300000Y-15000000D03*
%TD*%
D15*
%TO.C,J2*%
X47000000Y-8300000D03*
X57000000Y-8300000D03*
D16*
X44700000Y-18000000D03*
X52000000Y-18000000D03*
X59300000Y-18000000D03*
X57000000Y-20500000D03*
X47000000Y-20500000D03*
%TD*%
D10*
%TO.C,R2*%
X98000000Y-45000000D03*
X108160000Y-45000000D03*
%TD*%
%TO.C,R10*%
X44000000Y-62000000D03*
X44000000Y-51840000D03*
%TD*%
%TO.C,R21*%
X140000000Y-114000000D03*
X140000000Y-103840000D03*
%TD*%
%TO.C,C4*%
X114000000Y-70000000D03*
X114000000Y-65000000D03*
%TD*%
%TO.C,R15*%
X76000000Y-88000000D03*
X76000000Y-77840000D03*
%TD*%
D11*
%TO.C,D5*%
X160000000Y-110000000D03*
D12*
X160000000Y-107460000D03*
%TD*%
D10*
%TO.C,R14*%
X44000000Y-88000000D03*
X44000000Y-77840000D03*
%TD*%
D11*
%TO.C,RV12*%
X126000000Y-118000000D03*
D12*
X128500000Y-118000000D03*
X131000000Y-118000000D03*
D13*
X124100000Y-111000000D03*
X132900000Y-111000000D03*
%TD*%
D10*
%TO.C,R16*%
X108000000Y-88000000D03*
X108000000Y-77840000D03*
%TD*%
%TO.C,R5*%
X48000000Y-45000000D03*
X58160000Y-45000000D03*
%TD*%
%TO.C,C5*%
X146000000Y-70000000D03*
X146000000Y-65000000D03*
%TD*%
%TO.C,C12*%
X114000000Y-122000000D03*
X114000000Y-117000000D03*
%TD*%
%TO.C,C17*%
X146000000Y-148000000D03*
X146000000Y-143000000D03*
%TD*%
D11*
%TO.C,RV15*%
X94000000Y-144000000D03*
D12*
X96500000Y-144000000D03*
X99000000Y-144000000D03*
D13*
X92100000Y-137000000D03*
X100900000Y-137000000D03*
%TD*%
D10*
%TO.C,R22*%
X44000000Y-140000000D03*
X44000000Y-129840000D03*
%TD*%
%TO.C,C1*%
X60000000Y-42000000D03*
X65000000Y-42000000D03*
%TD*%
%TO.C,R1*%
X14000000Y-45000000D03*
X24160000Y-45000000D03*
%TD*%
M02*
