%TF.GenerationSoftware,KiCad,Pcbnew,10.0.3*%
%TF.CreationDate,2026-06-06T15:00:51+02:00*%
%TF.ProjectId,SysEx_Patcher,53797345-785f-4506-9174-636865722e6b,rev?*%
%TF.SameCoordinates,Original*%
%TF.FileFunction,Copper,L2,Inr*%
%TF.FilePolarity,Positive*%
%FSLAX46Y46*%
G04 Gerber Fmt 4.6, Leading zero omitted, Abs format (unit mm)*
G04 Created by KiCad (PCBNEW 10.0.3) date 2026-06-06 15:00:51*
%MOMM*%
%LPD*%
G01*
G04 APERTURE LIST*
G04 Aperture macros list*
%AMRoundRect*
0 Rectangle with rounded corners*
0 $1 Rounding radius*
0 $2 $3 $4 $5 $6 $7 $8 $9 X,Y pos of 4 corners*
0 Add a 4 corners polygon primitive as box body*
4,1,4,$2,$3,$4,$5,$6,$7,$8,$9,$2,$3,0*
0 Add four circle primitives for the rounded corners*
1,1,$1+$1,$2,$3*
1,1,$1+$1,$4,$5*
1,1,$1+$1,$6,$7*
1,1,$1+$1,$8,$9*
0 Add four rect primitives between the rounded corners*
20,1,$1+$1,$2,$3,$4,$5,0*
20,1,$1+$1,$4,$5,$6,$7,0*
20,1,$1+$1,$6,$7,$8,$9,0*
20,1,$1+$1,$8,$9,$2,$3,0*%
G04 Aperture macros list end*
%TA.AperFunction,ComponentPad*%
%ADD10R,1.800000X1.800000*%
%TD*%
%TA.AperFunction,ComponentPad*%
%ADD11C,1.800000*%
%TD*%
%TA.AperFunction,ComponentPad*%
%ADD12RoundRect,0.750000X-1.250000X-0.750000X1.250000X-0.750000X1.250000X0.750000X-1.250000X0.750000X0*%
%TD*%
%TA.AperFunction,ComponentPad*%
%ADD13C,1.600000*%
%TD*%
%TA.AperFunction,ComponentPad*%
%ADD14R,1.700000X1.700000*%
%TD*%
%TA.AperFunction,ComponentPad*%
%ADD15C,1.700000*%
%TD*%
%TA.AperFunction,ComponentPad*%
%ADD16R,3.500000X3.500000*%
%TD*%
%TA.AperFunction,ComponentPad*%
%ADD17RoundRect,0.750000X-0.750000X-1.000000X0.750000X-1.000000X0.750000X1.000000X-0.750000X1.000000X0*%
%TD*%
%TA.AperFunction,ComponentPad*%
%ADD18RoundRect,0.875000X-0.875000X-0.875000X0.875000X-0.875000X0.875000X0.875000X-0.875000X0.875000X0*%
%TD*%
%TA.AperFunction,ComponentPad*%
%ADD19RoundRect,0.250000X-0.550000X-0.550000X0.550000X-0.550000X0.550000X0.550000X-0.550000X0.550000X0*%
%TD*%
%TA.AperFunction,ComponentPad*%
%ADD20C,2.600000*%
%TD*%
%TA.AperFunction,ComponentPad*%
%ADD21C,2.400000*%
%TD*%
%TA.AperFunction,ComponentPad*%
%ADD22C,3.000000*%
%TD*%
%TA.AperFunction,ComponentPad*%
%ADD23C,2.000000*%
%TD*%
%TA.AperFunction,ComponentPad*%
%ADD24RoundRect,0.249999X-0.850001X-0.850001X0.850001X-0.850001X0.850001X0.850001X-0.850001X0.850001X0*%
%TD*%
%TA.AperFunction,ComponentPad*%
%ADD25C,2.200000*%
%TD*%
%TA.AperFunction,ViaPad*%
%ADD26C,0.600000*%
%TD*%
%TA.AperFunction,Conductor*%
%ADD27C,0.200000*%
%TD*%
G04 APERTURE END LIST*
D10*
%TO.N,+5V*%
%TO.C,RV3*%
X114000000Y-78000000D03*
D11*
%TO.N,POT3_W*%
X116500000Y-78000000D03*
%TO.N,GND*%
X119000000Y-78000000D03*
D12*
%TO.N,N/C*%
X112100000Y-71000000D03*
X120900000Y-71000000D03*
%TD*%
D13*
%TO.N,POT16_W*%
%TO.C,R25*%
X160000000Y-146000000D03*
%TO.N,MUX_CH0*%
X160000000Y-135840000D03*
%TD*%
%TO.N,POT9_W*%
%TO.C,R18*%
X64000000Y-122000000D03*
%TO.N,A2*%
X64000000Y-111840000D03*
%TD*%
D14*
%TO.N,D2*%
%TO.C,JMD1*%
X40000000Y-140000000D03*
D15*
%TO.N,D3*%
X42540000Y-140000000D03*
%TO.N,D4*%
X45080000Y-140000000D03*
%TO.N,GND*%
X47620000Y-140000000D03*
%TO.N,D13*%
X50160000Y-140000000D03*
%TO.N,D5*%
X52700000Y-140000000D03*
%TO.N,D6*%
X55240000Y-140000000D03*
%TO.N,D7*%
X57780000Y-140000000D03*
%TO.N,D8*%
X60320000Y-140000000D03*
%TO.N,D9*%
X62860000Y-140000000D03*
%TD*%
D13*
%TO.N,MIDI_IN_4*%
%TO.C,R1*%
X34000000Y-65000000D03*
%TO.N,OPTO_ANODE*%
X44160000Y-65000000D03*
%TD*%
D10*
%TO.N,+5V*%
%TO.C,RV11*%
X114000000Y-126000000D03*
D11*
%TO.N,POT11_W*%
X116500000Y-126000000D03*
%TO.N,GND*%
X119000000Y-126000000D03*
D12*
%TO.N,N/C*%
X112100000Y-119000000D03*
X120900000Y-119000000D03*
%TD*%
D16*
%TO.N,VIN_RAW*%
%TO.C,J3*%
X138000000Y-38000000D03*
D17*
%TO.N,GND*%
X138000000Y-32000000D03*
D18*
%TO.N,N/C*%
X133300000Y-35000000D03*
%TD*%
D10*
%TO.N,+5V*%
%TO.C,RV16*%
X146000000Y-150000000D03*
D11*
%TO.N,POT16_W*%
X148500000Y-150000000D03*
%TO.N,GND*%
X151000000Y-150000000D03*
D12*
%TO.N,N/C*%
X144100000Y-143000000D03*
X152900000Y-143000000D03*
%TD*%
D13*
%TO.N,D12*%
%TO.C,R6*%
X172000000Y-86000000D03*
%TO.N,LED1_A*%
X172000000Y-75840000D03*
%TD*%
D14*
%TO.N,N/C*%
%TO.C,JMA1*%
X48890000Y-92000000D03*
D15*
X51430000Y-92000000D03*
X53970000Y-92000000D03*
X56510000Y-92000000D03*
%TO.N,+5V*%
X59050000Y-92000000D03*
%TO.N,GND*%
X61590000Y-92000000D03*
X64130000Y-92000000D03*
%TO.N,VIN_RAW*%
X66670000Y-92000000D03*
%TD*%
D14*
%TO.N,D20_SDA*%
%TO.C,JMD4*%
X104770000Y-140000000D03*
D15*
%TO.N,D21_SCL*%
X107310000Y-140000000D03*
%TD*%
D13*
%TO.N,OPTO_VB*%
%TO.C,R4*%
X68000000Y-59000000D03*
%TO.N,GND*%
X78160000Y-59000000D03*
%TD*%
D19*
%TO.N,A15*%
%TO.C,U2*%
X50000000Y-180000000D03*
D13*
%TO.N,MUX_CH7*%
X52540000Y-180000000D03*
%TO.N,MUX_CH6*%
X55080000Y-180000000D03*
%TO.N,MUX_CH5*%
X57620000Y-180000000D03*
%TO.N,MUX_CH4*%
X60160000Y-180000000D03*
%TO.N,MUX_CH3*%
X62700000Y-180000000D03*
%TO.N,MUX_CH2*%
X65240000Y-180000000D03*
%TO.N,MUX_CH1*%
X67780000Y-180000000D03*
%TO.N,MUX_CH0*%
X70320000Y-180000000D03*
%TO.N,D2*%
X72860000Y-180000000D03*
%TO.N,D3*%
X75400000Y-180000000D03*
%TO.N,GND*%
X77940000Y-180000000D03*
%TO.N,D13*%
X77940000Y-164760000D03*
%TO.N,D4*%
X75400000Y-164760000D03*
%TO.N,GND*%
X72860000Y-164760000D03*
%TO.N,MUX_CH15*%
X70320000Y-164760000D03*
%TO.N,MUX_CH14*%
X67780000Y-164760000D03*
%TO.N,MUX_CH13*%
X65240000Y-164760000D03*
%TO.N,MUX_CH12*%
X62700000Y-164760000D03*
%TO.N,MUX_CH11*%
X60160000Y-164760000D03*
%TO.N,MUX_CH10*%
X57620000Y-164760000D03*
%TO.N,MUX_CH9*%
X55080000Y-164760000D03*
%TO.N,MUX_CH8*%
X52540000Y-164760000D03*
%TO.N,+5V*%
X50000000Y-164760000D03*
%TD*%
%TO.N,JACK_W*%
%TO.C,R27*%
X112000000Y-172000000D03*
%TO.N,MUX_CH1*%
X122160000Y-172000000D03*
%TD*%
%TO.N,A6*%
%TO.C,C11*%
X102000000Y-130000000D03*
%TO.N,GND*%
X102000000Y-125000000D03*
%TD*%
%TO.N,A14*%
%TO.C,C13*%
X166000000Y-130000000D03*
%TO.N,GND*%
X166000000Y-125000000D03*
%TD*%
D10*
%TO.N,GND*%
%TO.C,D5*%
X180000000Y-130000000D03*
D11*
%TO.N,LED3_A*%
X180000000Y-127460000D03*
%TD*%
D13*
%TO.N,A11*%
%TO.C,C16*%
X134000000Y-154000000D03*
%TO.N,GND*%
X134000000Y-149000000D03*
%TD*%
%TO.N,A3*%
%TO.C,C14*%
X70000000Y-154000000D03*
%TO.N,GND*%
X70000000Y-149000000D03*
%TD*%
%TO.N,D11*%
%TO.C,R7*%
X172000000Y-108000000D03*
%TO.N,LED2_A*%
X172000000Y-97840000D03*
%TD*%
D19*
%TO.N,OPTO_ANODE*%
%TO.C,D1*%
X34000000Y-59000000D03*
D13*
%TO.N,OPTO_CATHODE*%
X41620000Y-59000000D03*
%TD*%
%TO.N,A4*%
%TO.C,C7*%
X102000000Y-106000000D03*
%TO.N,GND*%
X102000000Y-101000000D03*
%TD*%
%TO.N,POT14_W*%
%TO.C,R23*%
X96000000Y-146000000D03*
%TO.N,A7*%
X96000000Y-135840000D03*
%TD*%
%TO.N,POT1_W*%
%TO.C,R10*%
X64000000Y-74000000D03*
%TO.N,A0*%
X64000000Y-63840000D03*
%TD*%
D14*
%TO.N,A0*%
%TO.C,JMA2*%
X71750000Y-92000000D03*
D15*
%TO.N,A1*%
X74290000Y-92000000D03*
%TO.N,A2*%
X76830000Y-92000000D03*
%TO.N,A3*%
X79370000Y-92000000D03*
%TO.N,A4*%
X81910000Y-92000000D03*
%TO.N,A5*%
X84450000Y-92000000D03*
%TO.N,A6*%
X86990000Y-92000000D03*
%TO.N,A7*%
X89530000Y-92000000D03*
%TD*%
D10*
%TO.N,+5V*%
%TO.C,RV4*%
X146000000Y-78000000D03*
D11*
%TO.N,POT4_W*%
X148500000Y-78000000D03*
%TO.N,GND*%
X151000000Y-78000000D03*
D12*
%TO.N,N/C*%
X144100000Y-71000000D03*
X152900000Y-71000000D03*
%TD*%
D20*
%TO.N,*%
%TO.C,J2*%
X67000000Y-28300000D03*
X77000000Y-28300000D03*
D21*
%TO.N,N/C*%
X64700000Y-38000000D03*
%TO.N,GND*%
X72000000Y-38000000D03*
%TO.N,N/C*%
X79300000Y-38000000D03*
%TO.N,MIDI_OUT_4*%
X77000000Y-40500000D03*
%TO.N,MIDI_OUT_5*%
X67000000Y-40500000D03*
%TD*%
D14*
%TO.N,A8*%
%TO.C,JMA3*%
X94610000Y-92000000D03*
D15*
%TO.N,A9*%
X97150000Y-92000000D03*
%TO.N,A10*%
X99690000Y-92000000D03*
%TO.N,A11*%
X102230000Y-92000000D03*
%TO.N,A12*%
X104770000Y-92000000D03*
%TO.N,A13*%
X107310000Y-92000000D03*
%TO.N,A14*%
X109850000Y-92000000D03*
%TO.N,A15*%
X112390000Y-92000000D03*
%TD*%
D10*
%TO.N,+5V*%
%TO.C,RV2*%
X82000000Y-78000000D03*
D11*
%TO.N,POT2_W*%
X84500000Y-78000000D03*
%TO.N,GND*%
X87000000Y-78000000D03*
D12*
%TO.N,N/C*%
X80100000Y-71000000D03*
X88900000Y-71000000D03*
%TD*%
D13*
%TO.N,POT2_W*%
%TO.C,R11*%
X96000000Y-74000000D03*
%TO.N,A5*%
X96000000Y-63840000D03*
%TD*%
%TO.N,A12*%
%TO.C,C5*%
X166000000Y-82000000D03*
%TO.N,GND*%
X166000000Y-77000000D03*
%TD*%
D10*
%TO.N,+5V*%
%TO.C,RV10*%
X82000000Y-126000000D03*
D11*
%TO.N,POT10_W*%
X84500000Y-126000000D03*
%TO.N,GND*%
X87000000Y-126000000D03*
D12*
%TO.N,N/C*%
X80100000Y-119000000D03*
X88900000Y-119000000D03*
%TD*%
D13*
%TO.N,POT7_W*%
%TO.C,R16*%
X128000000Y-98000000D03*
%TO.N,A9*%
X128000000Y-87840000D03*
%TD*%
D22*
%TO.N,GND*%
%TO.C,J10*%
X111430000Y-29300000D03*
%TO.N,+5V*%
X100000000Y-35650000D03*
%TO.N,N/C*%
X111430000Y-35650000D03*
%TO.N,GND*%
X100000000Y-29300000D03*
%TO.N,JACK_W*%
X100000000Y-42000000D03*
%TO.N,N/C*%
X111430000Y-42000000D03*
%TD*%
D10*
%TO.N,+5V*%
%TO.C,RV8*%
X146000000Y-102000000D03*
D11*
%TO.N,POT8_W*%
X148500000Y-102000000D03*
%TO.N,GND*%
X151000000Y-102000000D03*
D12*
%TO.N,N/C*%
X144100000Y-95000000D03*
X152900000Y-95000000D03*
%TD*%
D13*
%TO.N,POT8_W*%
%TO.C,R17*%
X160000000Y-98000000D03*
%TO.N,A13*%
X160000000Y-87840000D03*
%TD*%
%TO.N,MIDI_OUT_5*%
%TO.C,R3*%
X92000000Y-66000000D03*
%TO.N,D1_TX*%
X102160000Y-66000000D03*
%TD*%
%TO.N,POT10_W*%
%TO.C,R19*%
X96000000Y-122000000D03*
%TO.N,A6*%
X96000000Y-111840000D03*
%TD*%
%TO.N,POT13_W*%
%TO.C,R22*%
X64000000Y-146000000D03*
%TO.N,A3*%
X64000000Y-135840000D03*
%TD*%
%TO.N,POT11_W*%
%TO.C,R20*%
X128000000Y-122000000D03*
%TO.N,A10*%
X128000000Y-111840000D03*
%TD*%
%TO.N,MUX_CH1*%
%TO.C,C18*%
X136000000Y-172000000D03*
%TO.N,GND*%
X141000000Y-172000000D03*
%TD*%
D10*
%TO.N,+5V*%
%TO.C,RV9*%
X50000000Y-126000000D03*
D11*
%TO.N,POT9_W*%
X52500000Y-126000000D03*
%TO.N,GND*%
X55000000Y-126000000D03*
D12*
%TO.N,N/C*%
X48100000Y-119000000D03*
X56900000Y-119000000D03*
%TD*%
D19*
%TO.N,+5V*%
%TO.C,C19*%
X162000000Y-64000000D03*
D13*
%TO.N,GND*%
X164500000Y-64000000D03*
%TD*%
D10*
%TO.N,+5V*%
%TO.C,RV5*%
X50000000Y-102000000D03*
D11*
%TO.N,POT5_W*%
X52500000Y-102000000D03*
%TO.N,GND*%
X55000000Y-102000000D03*
D12*
%TO.N,N/C*%
X48100000Y-95000000D03*
X56900000Y-95000000D03*
%TD*%
D13*
%TO.N,POT12_W*%
%TO.C,R21*%
X160000000Y-122000000D03*
%TO.N,A14*%
X160000000Y-111840000D03*
%TD*%
D10*
%TO.N,GND*%
%TO.C,D3*%
X180000000Y-86000000D03*
D11*
%TO.N,LED1_A*%
X180000000Y-83460000D03*
%TD*%
D13*
%TO.N,A7*%
%TO.C,C15*%
X102000000Y-154000000D03*
%TO.N,GND*%
X102000000Y-149000000D03*
%TD*%
%TO.N,A9*%
%TO.C,C8*%
X134000000Y-106000000D03*
%TO.N,GND*%
X134000000Y-101000000D03*
%TD*%
%TO.N,A0*%
%TO.C,C2*%
X70000000Y-82000000D03*
%TO.N,GND*%
X70000000Y-77000000D03*
%TD*%
D23*
%TO.N,D6*%
%TO.C,SW4*%
X30000000Y-130000000D03*
X36500000Y-130000000D03*
%TO.N,GND*%
X30000000Y-134500000D03*
X36500000Y-134500000D03*
%TD*%
D13*
%TO.N,D10*%
%TO.C,R8*%
X172000000Y-130000000D03*
%TO.N,LED3_A*%
X172000000Y-119840000D03*
%TD*%
D10*
%TO.N,+5V*%
%TO.C,RV1*%
X50000000Y-78000000D03*
D11*
%TO.N,POT1_W*%
X52500000Y-78000000D03*
%TO.N,GND*%
X55000000Y-78000000D03*
D12*
%TO.N,N/C*%
X48100000Y-71000000D03*
X56900000Y-71000000D03*
%TD*%
D10*
%TO.N,+5V*%
%TO.C,RV12*%
X146000000Y-126000000D03*
D11*
%TO.N,POT12_W*%
X148500000Y-126000000D03*
%TO.N,GND*%
X151000000Y-126000000D03*
D12*
%TO.N,N/C*%
X144100000Y-119000000D03*
X152900000Y-119000000D03*
%TD*%
D13*
%TO.N,POT3_W*%
%TO.C,R12*%
X128000000Y-74000000D03*
%TO.N,A8*%
X128000000Y-63840000D03*
%TD*%
D10*
%TO.N,GND*%
%TO.C,D6*%
X180000000Y-152000000D03*
D11*
%TO.N,LED4_A*%
X180000000Y-149460000D03*
%TD*%
D10*
%TO.N,GND*%
%TO.C,D4*%
X180000000Y-108000000D03*
D11*
%TO.N,LED2_A*%
X180000000Y-105460000D03*
%TD*%
D13*
%TO.N,A2*%
%TO.C,C10*%
X70000000Y-130000000D03*
%TO.N,GND*%
X70000000Y-125000000D03*
%TD*%
D14*
%TO.N,GND*%
%TO.C,J5*%
X166000000Y-32000000D03*
D15*
%TO.N,+5V*%
X168540000Y-32000000D03*
%TO.N,D21_SCL*%
X171080000Y-32000000D03*
%TO.N,D20_SDA*%
X173620000Y-32000000D03*
%TD*%
D23*
%TO.N,D7*%
%TO.C,SW2*%
X30000000Y-86000000D03*
X36500000Y-86000000D03*
%TO.N,GND*%
X30000000Y-90500000D03*
X36500000Y-90500000D03*
%TD*%
D13*
%TO.N,A5*%
%TO.C,C3*%
X102000000Y-82000000D03*
%TO.N,GND*%
X102000000Y-77000000D03*
%TD*%
%TO.N,POT4_W*%
%TO.C,R13*%
X160000000Y-74000000D03*
%TO.N,A12*%
X160000000Y-63840000D03*
%TD*%
D10*
%TO.N,+5V*%
%TO.C,RV6*%
X82000000Y-102000000D03*
D11*
%TO.N,POT6_W*%
X84500000Y-102000000D03*
%TO.N,GND*%
X87000000Y-102000000D03*
D12*
%TO.N,N/C*%
X80100000Y-95000000D03*
X88900000Y-95000000D03*
%TD*%
D23*
%TO.N,D5*%
%TO.C,SW5*%
X30000000Y-152000000D03*
X36500000Y-152000000D03*
%TO.N,GND*%
X30000000Y-156500000D03*
X36500000Y-156500000D03*
%TD*%
D13*
%TO.N,A8*%
%TO.C,C4*%
X134000000Y-82000000D03*
%TO.N,GND*%
X134000000Y-77000000D03*
%TD*%
D10*
%TO.N,+5V*%
%TO.C,RV15*%
X114000000Y-150000000D03*
D11*
%TO.N,POT15_W*%
X116500000Y-150000000D03*
%TO.N,GND*%
X119000000Y-150000000D03*
D12*
%TO.N,N/C*%
X112100000Y-143000000D03*
X120900000Y-143000000D03*
%TD*%
D14*
%TO.N,D1_TX*%
%TO.C,JMD3*%
X81910000Y-140000000D03*
D15*
%TO.N,D0_RX*%
X84450000Y-140000000D03*
%TD*%
D13*
%TO.N,A10*%
%TO.C,C12*%
X134000000Y-130000000D03*
%TO.N,GND*%
X134000000Y-125000000D03*
%TD*%
D23*
%TO.N,D8*%
%TO.C,SW3*%
X30000000Y-108000000D03*
X36500000Y-108000000D03*
%TO.N,GND*%
X30000000Y-112500000D03*
X36500000Y-112500000D03*
%TD*%
D14*
%TO.N,D10*%
%TO.C,JMD2*%
X66670000Y-140000000D03*
D15*
%TO.N,D11*%
X69210000Y-140000000D03*
%TO.N,D12*%
X71750000Y-140000000D03*
%TD*%
D13*
%TO.N,MUX_CH0*%
%TO.C,C17*%
X166000000Y-154000000D03*
%TO.N,GND*%
X166000000Y-149000000D03*
%TD*%
%TO.N,POT6_W*%
%TO.C,R15*%
X96000000Y-98000000D03*
%TO.N,A4*%
X96000000Y-87840000D03*
%TD*%
D20*
%TO.N,*%
%TO.C,J1*%
X39000000Y-28300000D03*
X49000000Y-28300000D03*
D21*
%TO.N,N/C*%
X36700000Y-38000000D03*
%TO.N,GND*%
X44000000Y-38000000D03*
%TO.N,N/C*%
X51300000Y-38000000D03*
%TO.N,MIDI_IN_4*%
X49000000Y-40500000D03*
%TO.N,OPTO_CATHODE*%
X39000000Y-40500000D03*
%TD*%
D10*
%TO.N,+5V*%
%TO.C,RV14*%
X82000000Y-150000000D03*
D11*
%TO.N,POT14_W*%
X84500000Y-150000000D03*
%TO.N,GND*%
X87000000Y-150000000D03*
D12*
%TO.N,N/C*%
X80100000Y-143000000D03*
X88900000Y-143000000D03*
%TD*%
D14*
%TO.N,GND*%
%TO.C,J4*%
X136000000Y-60000000D03*
D15*
%TO.N,+5V*%
X138540000Y-60000000D03*
%TO.N,GND*%
X141080000Y-60000000D03*
%TO.N,VIN_RAW*%
X143620000Y-60000000D03*
%TD*%
D24*
%TO.N,+5V*%
%TO.C,D2D*%
X150000000Y-52000000D03*
D25*
%TO.N,VIN_RAW*%
X160160000Y-52000000D03*
%TD*%
D19*
%TO.N,N/C*%
%TO.C,U1*%
X48000000Y-54000000D03*
D13*
%TO.N,OPTO_ANODE*%
X48000000Y-56540000D03*
%TO.N,OPTO_CATHODE*%
X48000000Y-59080000D03*
%TO.N,N/C*%
X48000000Y-61620000D03*
%TO.N,GND*%
X55620000Y-61620000D03*
%TO.N,D0_RX*%
X55620000Y-59080000D03*
%TO.N,OPTO_VB*%
X55620000Y-56540000D03*
%TO.N,+5V*%
X55620000Y-54000000D03*
%TD*%
%TO.N,POT15_W*%
%TO.C,R24*%
X128000000Y-146000000D03*
%TO.N,A11*%
X128000000Y-135840000D03*
%TD*%
D10*
%TO.N,+5V*%
%TO.C,RV13*%
X50000000Y-150000000D03*
D11*
%TO.N,POT13_W*%
X52500000Y-150000000D03*
%TO.N,GND*%
X55000000Y-150000000D03*
D12*
%TO.N,N/C*%
X48100000Y-143000000D03*
X56900000Y-143000000D03*
%TD*%
D13*
%TO.N,MIDI_OUT_4*%
%TO.C,R2*%
X92000000Y-60000000D03*
%TO.N,+5V*%
X102160000Y-60000000D03*
%TD*%
%TO.N,POT5_W*%
%TO.C,R14*%
X64000000Y-98000000D03*
%TO.N,A1*%
X64000000Y-87840000D03*
%TD*%
D10*
%TO.N,+5V*%
%TO.C,RV7*%
X114000000Y-102000000D03*
D11*
%TO.N,POT7_W*%
X116500000Y-102000000D03*
%TO.N,GND*%
X119000000Y-102000000D03*
D12*
%TO.N,N/C*%
X112100000Y-95000000D03*
X120900000Y-95000000D03*
%TD*%
D13*
%TO.N,A1*%
%TO.C,C6*%
X70000000Y-106000000D03*
%TO.N,GND*%
X70000000Y-101000000D03*
%TD*%
%TO.N,D9*%
%TO.C,R9*%
X172000000Y-152000000D03*
%TO.N,LED4_A*%
X172000000Y-141840000D03*
%TD*%
%TO.N,D0_RX*%
%TO.C,R5*%
X68000000Y-65000000D03*
%TO.N,+5V*%
X78160000Y-65000000D03*
%TD*%
%TO.N,A13*%
%TO.C,C9*%
X166000000Y-106000000D03*
%TO.N,GND*%
X166000000Y-101000000D03*
%TD*%
%TO.N,+5V*%
%TO.C,C1*%
X80000000Y-62000000D03*
%TO.N,GND*%
X85000000Y-62000000D03*
%TD*%
D26*
%TO.N,A14*%
X157065700Y-92325500D03*
%TO.N,A11*%
X123993000Y-113931800D03*
%TO.N,A15*%
X103521200Y-157956500D03*
%TD*%
%TO.N,MIDI_IN_4*%
D27*
X37224700Y-65000000D02*
X34000000Y-65000000D01*
X49000000Y-40500000D02*
X43026100Y-46473900D01*
X43026100Y-46473900D02*
X43026100Y-59198600D01*
X43026100Y-59198600D02*
X37224700Y-65000000D01*
%TO.N,OPTO_CATHODE*%
X41620000Y-43120000D02*
X39000000Y-40500000D01*
X41620000Y-59000000D02*
X41620000Y-43120000D01*
%TO.N,MIDI_OUT_4*%
X92000000Y-60000000D02*
X77000000Y-45000000D01*
X77000000Y-45000000D02*
X77000000Y-40500000D01*
%TO.N,MIDI_OUT_5*%
X67000000Y-41000000D02*
X67000000Y-40500000D01*
X92000000Y-66000000D02*
X67000000Y-41000000D01*
%TO.N,JACK_W*%
X103738400Y-91402900D02*
X103618300Y-91523000D01*
X102891100Y-155291300D02*
X102891100Y-162891100D01*
X103618300Y-91523000D02*
X103618300Y-92511700D01*
X102891100Y-162891100D02*
X112000000Y-172000000D01*
X103119400Y-155063000D02*
X102891100Y-155291300D01*
X103618300Y-92511700D02*
X103119400Y-93010600D01*
X103738400Y-63588700D02*
X103738400Y-91402900D01*
X100000000Y-59850300D02*
X103738400Y-63588700D01*
X103119400Y-93010600D02*
X103119400Y-155063000D01*
X100000000Y-42000000D02*
X100000000Y-59850300D01*
%TO.N,+5V*%
X55620000Y-54000000D02*
X51201700Y-58418300D01*
X114000000Y-126000000D02*
X114000000Y-127201700D01*
X50000000Y-102000000D02*
X50000000Y-98414700D01*
X83082900Y-99715400D02*
X83082900Y-80284600D01*
X146540000Y-52000000D02*
X138540000Y-60000000D01*
X114406200Y-79607900D02*
X114000000Y-79201700D01*
X114000000Y-150000000D02*
X114000000Y-148798300D01*
X150000000Y-50540000D02*
X150000000Y-52000000D01*
X50000000Y-126000000D02*
X50000000Y-124798300D01*
X80000000Y-63160000D02*
X78160000Y-65000000D01*
X82000000Y-124798300D02*
X82406200Y-124392100D01*
X114406200Y-148392100D02*
X114406200Y-127607900D01*
X82000000Y-78000000D02*
X82000000Y-79201700D01*
X57876500Y-93173500D02*
X59050000Y-92000000D01*
X80000000Y-62000000D02*
X80000000Y-63160000D01*
X146000000Y-126000000D02*
X146000000Y-127201700D01*
X82000000Y-102000000D02*
X82000000Y-103201700D01*
X114000000Y-78000000D02*
X114000000Y-79201700D01*
X50406200Y-124392100D02*
X50406200Y-103607900D01*
X50000000Y-79201700D02*
X55241200Y-84442900D01*
X114000000Y-100798300D02*
X114406200Y-100392100D01*
X150000000Y-52000000D02*
X146540000Y-52000000D01*
X82000000Y-76798300D02*
X77766500Y-72564800D01*
X51201700Y-75596600D02*
X50000000Y-76798300D01*
X55241200Y-93173500D02*
X57876500Y-93173500D01*
X114000000Y-76798300D02*
X107059800Y-69858100D01*
X114406200Y-100392100D02*
X114406200Y-79607900D01*
X146000000Y-102000000D02*
X146000000Y-103201700D01*
X77766500Y-72564800D02*
X77766500Y-65393500D01*
X146406200Y-148392100D02*
X146406200Y-127607900D01*
X107059800Y-64899800D02*
X102160000Y-60000000D01*
X168540000Y-32000000D02*
X150000000Y-50540000D01*
X114000000Y-78000000D02*
X114000000Y-76798300D01*
X104225600Y-37975000D02*
X104225600Y-57934400D01*
X146000000Y-126000000D02*
X146000000Y-124798300D01*
X50406200Y-103607900D02*
X50000000Y-103201700D01*
X50000000Y-124798300D02*
X50406200Y-124392100D01*
X146406200Y-79607900D02*
X146000000Y-79201700D01*
X82000000Y-78000000D02*
X82000000Y-76798300D01*
X77766500Y-65393500D02*
X78160000Y-65000000D01*
X50000000Y-78000000D02*
X50000000Y-76798300D01*
X146000000Y-150000000D02*
X146000000Y-148798300D01*
X82406200Y-103607900D02*
X82000000Y-103201700D01*
X114406200Y-127607900D02*
X114000000Y-127201700D01*
X101900600Y-35650000D02*
X104225600Y-37975000D01*
X114000000Y-102000000D02*
X114000000Y-100798300D01*
X146406200Y-103607900D02*
X146000000Y-103201700D01*
X146000000Y-148798300D02*
X146406200Y-148392100D01*
X50000000Y-78000000D02*
X50000000Y-79201700D01*
X107059800Y-69858100D02*
X107059800Y-64899800D01*
X82000000Y-126000000D02*
X82000000Y-124798300D01*
X100000000Y-35650000D02*
X101900600Y-35650000D01*
X146406200Y-127607900D02*
X146000000Y-127201700D01*
X146000000Y-78000000D02*
X146000000Y-79201700D01*
X146000000Y-100798300D02*
X146406200Y-100392100D01*
X104225600Y-57934400D02*
X102160000Y-60000000D01*
X82000000Y-102000000D02*
X82000000Y-100798300D01*
X50000000Y-98414700D02*
X55241200Y-93173500D01*
X50000000Y-102000000D02*
X50000000Y-103201700D01*
X146406200Y-124392100D02*
X146406200Y-103607900D01*
X55241200Y-84442900D02*
X55241200Y-93173500D01*
X82406200Y-124392100D02*
X82406200Y-103607900D01*
X114000000Y-148798300D02*
X114406200Y-148392100D01*
X83082900Y-80284600D02*
X82000000Y-79201700D01*
X51201700Y-58418300D02*
X51201700Y-75596600D01*
X146000000Y-102000000D02*
X146000000Y-100798300D01*
X146406200Y-100392100D02*
X146406200Y-79607900D01*
X82000000Y-100798300D02*
X83082900Y-99715400D01*
X146000000Y-124798300D02*
X146406200Y-124392100D01*
%TO.N,D21_SCL*%
X107310000Y-128611800D02*
X107310000Y-140000000D01*
X143283400Y-85013700D02*
X122651700Y-105645400D01*
X122651700Y-105645400D02*
X122651700Y-113270100D01*
X171080000Y-47610700D02*
X143283400Y-75407300D01*
X171080000Y-32000000D02*
X171080000Y-47610700D01*
X122651700Y-113270100D02*
X107310000Y-128611800D01*
X143283400Y-75407300D02*
X143283400Y-85013700D01*
%TO.N,D20_SDA*%
X169810000Y-31607400D02*
X170572200Y-30845200D01*
X172465200Y-30845200D02*
X173620000Y-32000000D01*
X170572200Y-30845200D02*
X172465200Y-30845200D01*
X104770000Y-140000000D02*
X104770000Y-138848300D01*
X169810000Y-35897100D02*
X169810000Y-31607400D01*
X137058500Y-86720000D02*
X137058500Y-68648600D01*
X137058500Y-68648600D02*
X169810000Y-35897100D01*
X104770000Y-119008500D02*
X137058500Y-86720000D01*
X104770000Y-138848300D02*
X104770000Y-119008500D01*
%TO.N,OPTO_ANODE*%
X44160000Y-65000000D02*
X44160000Y-60380000D01*
X44160000Y-60380000D02*
X48000000Y-56540000D01*
%TO.N,D0_RX*%
X80528200Y-92480800D02*
X79835700Y-93173300D01*
X77789500Y-93760400D02*
X77789500Y-138070000D01*
X80528200Y-77528200D02*
X80528200Y-92480800D01*
X68000000Y-65000000D02*
X80528200Y-77528200D01*
X79835700Y-93173300D02*
X78376600Y-93173300D01*
X77789500Y-138070000D02*
X80893000Y-141173500D01*
X83276500Y-141173500D02*
X84450000Y-140000000D01*
X80893000Y-141173500D02*
X83276500Y-141173500D01*
X78376600Y-93173300D02*
X77789500Y-93760400D01*
%TO.N,D1_TX*%
X102160000Y-66000000D02*
X102160000Y-74487700D01*
X81910000Y-140000000D02*
X81910000Y-138848300D01*
X85750000Y-90897700D02*
X85750000Y-135008300D01*
X85750000Y-135008300D02*
X81910000Y-138848300D01*
X102160000Y-74487700D02*
X85750000Y-90897700D01*
%TO.N,D7*%
X35158300Y-117378300D02*
X35158300Y-87341700D01*
X57780000Y-140000000D02*
X35158300Y-117378300D01*
X35158300Y-87341700D02*
X36500000Y-86000000D01*
%TO.N,D8*%
X39699800Y-119379800D02*
X39699800Y-111199800D01*
X60320000Y-140000000D02*
X39699800Y-119379800D01*
X39699800Y-111199800D02*
X36500000Y-108000000D01*
%TO.N,A0*%
X66899800Y-78899800D02*
X66899800Y-66739800D01*
X70000000Y-82000000D02*
X66899800Y-78899800D01*
X71750000Y-92000000D02*
X71750000Y-83750000D01*
X66899800Y-66739800D02*
X64000000Y-63840000D01*
X71750000Y-83750000D02*
X70000000Y-82000000D01*
%TO.N,POT2_W*%
X96000000Y-74000000D02*
X88500000Y-74000000D01*
X88500000Y-74000000D02*
X84500000Y-78000000D01*
%TO.N,A5*%
X96000000Y-63840000D02*
X101578900Y-63840000D01*
X101578900Y-63840000D02*
X103293300Y-65554400D01*
X103293300Y-80706700D02*
X102000000Y-82000000D01*
X103293300Y-65554400D02*
X103293300Y-80706700D01*
%TO.N,A8*%
X131807100Y-67647100D02*
X128000000Y-63840000D01*
X131807100Y-79807100D02*
X131807100Y-67647100D01*
X134000000Y-82000000D02*
X131807100Y-79807100D01*
%TO.N,A12*%
X166000000Y-82000000D02*
X163455700Y-79455700D01*
X163455700Y-79455700D02*
X163455700Y-71753800D01*
X160000000Y-68298100D02*
X160000000Y-63840000D01*
X163455700Y-71753800D02*
X160000000Y-68298100D01*
%TO.N,A4*%
X98420000Y-90260000D02*
X96000000Y-87840000D01*
X102000000Y-106000000D02*
X98420000Y-102420000D01*
X98420000Y-102420000D02*
X98420000Y-90260000D01*
%TO.N,A13*%
X162355400Y-102355400D02*
X162355400Y-90195400D01*
X166000000Y-106000000D02*
X162355400Y-102355400D01*
X162355400Y-90195400D02*
X160000000Y-87840000D01*
%TO.N,A2*%
X64000000Y-104830000D02*
X64000000Y-111840000D01*
X76830000Y-92000000D02*
X64000000Y-104830000D01*
X70000000Y-130000000D02*
X67917300Y-127917300D01*
X67917300Y-127917300D02*
X67917300Y-115757300D01*
X67917300Y-115757300D02*
X64000000Y-111840000D01*
%TO.N,A6*%
X99455700Y-115295700D02*
X96000000Y-111840000D01*
X88182300Y-90807700D02*
X89981100Y-90807700D01*
X94585000Y-110425000D02*
X96000000Y-111840000D01*
X89981100Y-90807700D02*
X94585000Y-95411600D01*
X94585000Y-95411600D02*
X94585000Y-110425000D01*
X86990000Y-92000000D02*
X88182300Y-90807700D01*
X99455700Y-127455700D02*
X99455700Y-115295700D01*
X102000000Y-130000000D02*
X99455700Y-127455700D01*
%TO.N,A10*%
X131455700Y-115295700D02*
X128000000Y-111840000D01*
X131455700Y-127455700D02*
X131455700Y-115295700D01*
X134000000Y-130000000D02*
X131455700Y-127455700D01*
%TO.N,A14*%
X157065700Y-108905700D02*
X157065700Y-92325500D01*
X163455700Y-115295700D02*
X160000000Y-111840000D01*
X163455700Y-127455700D02*
X163455700Y-115295700D01*
X160000000Y-111840000D02*
X157065700Y-108905700D01*
X166000000Y-130000000D02*
X163455700Y-127455700D01*
%TO.N,A3*%
X79370000Y-92000000D02*
X78944000Y-92000000D01*
X70000000Y-154000000D02*
X65518300Y-149518300D01*
X74377200Y-96566800D02*
X74377200Y-127265800D01*
X78944000Y-92000000D02*
X74377200Y-96566800D01*
X65518300Y-137358300D02*
X64901500Y-136741500D01*
X65518300Y-149518300D02*
X65518300Y-137358300D01*
X74377200Y-127265800D02*
X64901500Y-136741500D01*
X64901500Y-136741500D02*
X64000000Y-135840000D01*
%TO.N,A7*%
X94152900Y-96622900D02*
X94152900Y-133993000D01*
X94153000Y-133993000D02*
X96000000Y-135840000D01*
X99273400Y-151273400D02*
X99273400Y-139113400D01*
X99273400Y-139113400D02*
X96000000Y-135840000D01*
X102000000Y-154000000D02*
X99273400Y-151273400D01*
X89530000Y-92000000D02*
X94152900Y-96622900D01*
X94152900Y-133993000D02*
X94153000Y-133993000D01*
%TO.N,A11*%
X123993000Y-131833000D02*
X123993000Y-113931800D01*
X130539300Y-150539300D02*
X130539300Y-138379300D01*
X130539300Y-138379300D02*
X128000000Y-135840000D01*
X128000000Y-135840000D02*
X123993000Y-131833000D01*
X134000000Y-154000000D02*
X130539300Y-150539300D01*
%TO.N,MUX_CH0*%
X166000000Y-154000000D02*
X163737200Y-151737200D01*
X163737200Y-151737200D02*
X163737200Y-139577200D01*
X163737200Y-139577200D02*
X160000000Y-135840000D01*
%TO.N,A15*%
X112390000Y-92000000D02*
X111478700Y-92000000D01*
X111478700Y-92000000D02*
X111478700Y-91999900D01*
X103521200Y-119176100D02*
X103521200Y-157956500D01*
X109373000Y-90848300D02*
X108698300Y-91523000D01*
X110327100Y-90848300D02*
X109373000Y-90848300D01*
X108698300Y-113999000D02*
X103521200Y-119176100D01*
X111478700Y-91999900D02*
X110327100Y-90848300D01*
X108698300Y-91523000D02*
X108698300Y-113999000D01*
%TO.N,D2*%
X56350000Y-162693300D02*
X56350000Y-165080500D01*
X69134500Y-177865000D02*
X70725000Y-177865000D01*
X56350000Y-165080500D02*
X69134500Y-177865000D01*
X40000000Y-140000000D02*
X40000000Y-146343300D01*
X40000000Y-146343300D02*
X56350000Y-162693300D01*
X70725000Y-177865000D02*
X72860000Y-180000000D01*
%TO.N,D3*%
X75400000Y-180000000D02*
X69219800Y-173819800D01*
X58890000Y-163287000D02*
X42540000Y-146937000D01*
X67629300Y-173819800D02*
X58890000Y-165080500D01*
X42540000Y-146937000D02*
X42540000Y-140000000D01*
X69219800Y-173819800D02*
X67629300Y-173819800D01*
X58890000Y-165080500D02*
X58890000Y-163287000D01*
%TO.N,D4*%
X73265000Y-162625000D02*
X75400000Y-164760000D01*
X49712400Y-141195400D02*
X50694300Y-141195400D01*
X45080000Y-140000000D02*
X46231700Y-138848300D01*
X48097100Y-138848300D02*
X48771700Y-139522900D01*
X46231700Y-138848300D02*
X48097100Y-138848300D01*
X48771700Y-139522900D02*
X48771700Y-140254700D01*
X72123900Y-162625000D02*
X73265000Y-162625000D01*
X50694300Y-141195400D02*
X72123900Y-162625000D01*
X48771700Y-140254700D02*
X49712400Y-141195400D01*
%TO.N,D13*%
X50160000Y-140000000D02*
X70424000Y-160264000D01*
X70424000Y-160264000D02*
X73444000Y-160264000D01*
X73444000Y-160264000D02*
X77940000Y-164760000D01*
%TD*%
M02*
