%TF.GenerationSoftware,KiCad,Pcbnew,10.0.3*%
%TF.CreationDate,2026-06-08T14:09:44+02:00*%
%TF.ProjectId,SysEx_Patcher,53797345-785f-4506-9174-636865722e6b,rev?*%
%TF.SameCoordinates,Original*%
%TF.FileFunction,Copper,L3,Inr*%
%TF.FilePolarity,Positive*%
%FSLAX46Y46*%
G04 Gerber Fmt 4.6, Leading zero omitted, Abs format (unit mm)*
G04 Created by KiCad (PCBNEW 10.0.3) date 2026-06-08 14:09:44*
%MOMM*%
%LPD*%
G01*
G04 APERTURE LIST*
G04 Aperture macros list*
%AMRoundRect*
0 Rectangle with rounded corners*
0 $1 Rounding radius*
0 $2 $3 $4 $5 $6 $7 $8 $9 X,Y pos of 4 corners*
0 Add a 4 corners polygon primitive as box body*
4,1,4,$2,$3,$4,$5,$6,$7,$8,$9,$2,$3,0*
0 Add four circle primitives for the rounded corners*
1,1,$1+$1,$2,$3*
1,1,$1+$1,$4,$5*
1,1,$1+$1,$6,$7*
1,1,$1+$1,$8,$9*
0 Add four rect primitives between the rounded corners*
20,1,$1+$1,$2,$3,$4,$5,0*
20,1,$1+$1,$4,$5,$6,$7,0*
20,1,$1+$1,$6,$7,$8,$9,0*
20,1,$1+$1,$8,$9,$2,$3,0*%
G04 Aperture macros list end*
%TA.AperFunction,ComponentPad*%
%ADD10C,1.600000*%
%TD*%
%TA.AperFunction,ComponentPad*%
%ADD11R,1.700000X1.700000*%
%TD*%
%TA.AperFunction,ComponentPad*%
%ADD12C,1.700000*%
%TD*%
%TA.AperFunction,ComponentPad*%
%ADD13R,1.800000X1.800000*%
%TD*%
%TA.AperFunction,ComponentPad*%
%ADD14C,1.800000*%
%TD*%
%TA.AperFunction,ComponentPad*%
%ADD15RoundRect,0.750000X-1.250000X-0.750000X1.250000X-0.750000X1.250000X0.750000X-1.250000X0.750000X0*%
%TD*%
%TA.AperFunction,ComponentPad*%
%ADD16RoundRect,0.250000X-0.550000X-0.550000X0.550000X-0.550000X0.550000X0.550000X-0.550000X0.550000X0*%
%TD*%
%TA.AperFunction,ComponentPad*%
%ADD17C,2.600000*%
%TD*%
%TA.AperFunction,ComponentPad*%
%ADD18C,2.400000*%
%TD*%
%TA.AperFunction,ComponentPad*%
%ADD19C,2.000000*%
%TD*%
%TA.AperFunction,ComponentPad*%
%ADD20R,3.500000X3.500000*%
%TD*%
%TA.AperFunction,ComponentPad*%
%ADD21RoundRect,0.750000X-0.750000X-1.000000X0.750000X-1.000000X0.750000X1.000000X-0.750000X1.000000X0*%
%TD*%
%TA.AperFunction,ComponentPad*%
%ADD22RoundRect,0.875000X-0.875000X-0.875000X0.875000X-0.875000X0.875000X0.875000X-0.875000X0.875000X0*%
%TD*%
%TA.AperFunction,ComponentPad*%
%ADD23RoundRect,0.249999X-0.850001X-0.850001X0.850001X-0.850001X0.850001X0.850001X-0.850001X0.850001X0*%
%TD*%
%TA.AperFunction,ComponentPad*%
%ADD24C,2.200000*%
%TD*%
%TA.AperFunction,ComponentPad*%
%ADD25C,3.000000*%
%TD*%
%TA.AperFunction,ViaPad*%
%ADD26C,0.600000*%
%TD*%
%TA.AperFunction,Conductor*%
%ADD27C,0.200000*%
%TD*%
G04 APERTURE END LIST*
D10*
%TO.N,POT8_W*%
%TO.C,R17*%
X157000000Y-98000000D03*
%TO.N,A13*%
X167160000Y-98000000D03*
%TD*%
D11*
%TO.N,GND*%
%TO.C,JMX1*%
X128980000Y-129180000D03*
D12*
X131520000Y-129180000D03*
%TO.N,D52*%
X128980000Y-126640000D03*
%TO.N,D53*%
X131520000Y-126640000D03*
%TO.N,D50*%
X128980000Y-124100000D03*
%TO.N,D51*%
X131520000Y-124100000D03*
%TO.N,D48*%
X128980000Y-121560000D03*
%TO.N,D49*%
X131520000Y-121560000D03*
%TO.N,D46*%
X128980000Y-119020000D03*
%TO.N,D47*%
X131520000Y-119020000D03*
%TO.N,D44*%
X128980000Y-116480000D03*
%TO.N,D45*%
X131520000Y-116480000D03*
%TO.N,D42*%
X128980000Y-113940000D03*
%TO.N,D43*%
X131520000Y-113940000D03*
%TO.N,D40*%
X128980000Y-111400000D03*
%TO.N,D41*%
X131520000Y-111400000D03*
%TO.N,D38*%
X128980000Y-108860000D03*
%TO.N,D39*%
X131520000Y-108860000D03*
%TO.N,D36*%
X128980000Y-106320000D03*
%TO.N,D37*%
X131520000Y-106320000D03*
%TO.N,D34*%
X128980000Y-103780000D03*
%TO.N,D35*%
X131520000Y-103780000D03*
%TO.N,D32*%
X128980000Y-101240000D03*
%TO.N,D33*%
X131520000Y-101240000D03*
%TO.N,D30*%
X128980000Y-98700000D03*
%TO.N,D31*%
X131520000Y-98700000D03*
%TO.N,D28*%
X128980000Y-96160000D03*
%TO.N,D29*%
X131520000Y-96160000D03*
%TO.N,D26*%
X128980000Y-93620000D03*
%TO.N,D27*%
X131520000Y-93620000D03*
%TO.N,D24*%
X128980000Y-91080000D03*
%TO.N,D25*%
X131520000Y-91080000D03*
%TO.N,D22*%
X128980000Y-88540000D03*
%TO.N,D23*%
X131520000Y-88540000D03*
%TO.N,+5V*%
X128980000Y-86000000D03*
X131520000Y-86000000D03*
%TD*%
D11*
%TO.N,D7*%
%TO.C,JMD2*%
X80720000Y-86000000D03*
D12*
%TO.N,D6*%
X78180000Y-86000000D03*
%TO.N,D5*%
X75640000Y-86000000D03*
%TO.N,D4*%
X73100000Y-86000000D03*
%TO.N,D3*%
X70560000Y-86000000D03*
%TO.N,D2*%
X68020000Y-86000000D03*
%TO.N,D1_TX*%
X65480000Y-86000000D03*
%TO.N,D0_RX*%
X62940000Y-86000000D03*
%TD*%
D10*
%TO.N,MIDI_OUT_4*%
%TO.C,R2*%
X92000000Y-60000000D03*
%TO.N,+5V*%
X102160000Y-60000000D03*
%TD*%
D13*
%TO.N,+5V*%
%TO.C,RV4*%
X146000000Y-80000000D03*
D14*
%TO.N,POT4_W*%
X148500000Y-80000000D03*
%TO.N,GND*%
X151000000Y-80000000D03*
D15*
%TO.N,N/C*%
X144100000Y-73000000D03*
X152900000Y-73000000D03*
%TD*%
D10*
%TO.N,A11*%
%TO.C,C16*%
X125000000Y-151000000D03*
%TO.N,GND*%
X130000000Y-151000000D03*
%TD*%
%TO.N,POT3_W*%
%TO.C,R12*%
X125000000Y-74000000D03*
%TO.N,A8*%
X135160000Y-74000000D03*
%TD*%
D16*
%TO.N,OPTO_ANODE*%
%TO.C,D1*%
X34000000Y-59000000D03*
D10*
%TO.N,OPTO_CATHODE*%
X41620000Y-59000000D03*
%TD*%
D13*
%TO.N,GND*%
%TO.C,D9*%
X35000000Y-160000000D03*
D14*
%TO.N,LED7_A*%
X37540000Y-160000000D03*
%TD*%
D10*
%TO.N,+5V*%
%TO.C,C1*%
X80000000Y-62000000D03*
%TO.N,GND*%
X85000000Y-62000000D03*
%TD*%
%TO.N,POT9_W*%
%TO.C,R18*%
X61000000Y-122000000D03*
%TO.N,A2*%
X71160000Y-122000000D03*
%TD*%
D16*
%TO.N,A15*%
%TO.C,U2*%
X50000000Y-180000000D03*
D10*
%TO.N,MUX_CH7*%
X52540000Y-180000000D03*
%TO.N,MUX_CH6*%
X55080000Y-180000000D03*
%TO.N,MUX_CH5*%
X57620000Y-180000000D03*
%TO.N,MUX_CH4*%
X60160000Y-180000000D03*
%TO.N,MUX_CH3*%
X62700000Y-180000000D03*
%TO.N,MUX_CH2*%
X65240000Y-180000000D03*
%TO.N,MUX_CH1*%
X67780000Y-180000000D03*
%TO.N,MUX_CH0*%
X70320000Y-180000000D03*
%TO.N,D2*%
X72860000Y-180000000D03*
%TO.N,D3*%
X75400000Y-180000000D03*
%TO.N,GND*%
X77940000Y-180000000D03*
%TO.N,D13*%
X77940000Y-164760000D03*
%TO.N,D4*%
X75400000Y-164760000D03*
%TO.N,GND*%
X72860000Y-164760000D03*
%TO.N,MUX_CH15*%
X70320000Y-164760000D03*
%TO.N,MUX_CH14*%
X67780000Y-164760000D03*
%TO.N,MUX_CH13*%
X65240000Y-164760000D03*
%TO.N,MUX_CH12*%
X62700000Y-164760000D03*
%TO.N,MUX_CH11*%
X60160000Y-164760000D03*
%TO.N,MUX_CH10*%
X57620000Y-164760000D03*
%TO.N,MUX_CH9*%
X55080000Y-164760000D03*
%TO.N,MUX_CH8*%
X52540000Y-164760000D03*
%TO.N,+5V*%
X50000000Y-164760000D03*
%TD*%
D13*
%TO.N,+5V*%
%TO.C,RV1*%
X50000000Y-80000000D03*
D14*
%TO.N,POT1_W*%
X52500000Y-80000000D03*
%TO.N,GND*%
X55000000Y-80000000D03*
D15*
%TO.N,N/C*%
X48100000Y-73000000D03*
X56900000Y-73000000D03*
%TD*%
D10*
%TO.N,D25*%
%TO.C,R29*%
X43000000Y-100000000D03*
%TO.N,LED6_A*%
X43000000Y-89840000D03*
%TD*%
D17*
%TO.N,*%
%TO.C,J1*%
X39000000Y-28300000D03*
X49000000Y-28300000D03*
D18*
%TO.N,N/C*%
X36700000Y-38000000D03*
%TO.N,GND*%
X44000000Y-38000000D03*
%TO.N,N/C*%
X51300000Y-38000000D03*
%TO.N,MIDI_IN_4*%
X49000000Y-40500000D03*
%TO.N,OPTO_CATHODE*%
X39000000Y-40500000D03*
%TD*%
D19*
%TO.N,D5*%
%TO.C,SW5*%
X168000000Y-156000000D03*
X174500000Y-156000000D03*
%TO.N,GND*%
X168000000Y-160500000D03*
X174500000Y-160500000D03*
%TD*%
D11*
%TO.N,D14*%
%TO.C,JMD3*%
X103580000Y-86000000D03*
D12*
%TO.N,D15*%
X101040000Y-86000000D03*
%TO.N,D16*%
X98500000Y-86000000D03*
%TO.N,D17*%
X95960000Y-86000000D03*
%TO.N,D18*%
X93420000Y-86000000D03*
%TO.N,D19*%
X90880000Y-86000000D03*
%TO.N,D20_SDA*%
X88340000Y-86000000D03*
%TO.N,D21_SCL*%
X85800000Y-86000000D03*
%TD*%
D13*
%TO.N,GND*%
%TO.C,D5*%
X178000000Y-132000000D03*
D14*
%TO.N,LED3_A*%
X180540000Y-132000000D03*
%TD*%
D19*
%TO.N,D26*%
%TO.C,SW8*%
X26000000Y-160000000D03*
X32500000Y-160000000D03*
%TO.N,GND*%
X26000000Y-164500000D03*
X32500000Y-164500000D03*
%TD*%
%TO.N,D7*%
%TO.C,SW2*%
X168000000Y-84000000D03*
X174500000Y-84000000D03*
%TO.N,GND*%
X168000000Y-88500000D03*
X174500000Y-88500000D03*
%TD*%
D16*
%TO.N,N/C*%
%TO.C,U1*%
X48000000Y-54000000D03*
D10*
%TO.N,OPTO_ANODE*%
X48000000Y-56540000D03*
%TO.N,OPTO_CATHODE*%
X48000000Y-59080000D03*
%TO.N,N/C*%
X48000000Y-61620000D03*
%TO.N,GND*%
X55620000Y-61620000D03*
%TO.N,D0_RX*%
X55620000Y-59080000D03*
%TO.N,OPTO_VB*%
X55620000Y-56540000D03*
%TO.N,+5V*%
X55620000Y-54000000D03*
%TD*%
%TO.N,A5*%
%TO.C,C3*%
X93000000Y-79000000D03*
%TO.N,GND*%
X98000000Y-79000000D03*
%TD*%
%TO.N,A8*%
%TO.C,C4*%
X125000000Y-79000000D03*
%TO.N,GND*%
X130000000Y-79000000D03*
%TD*%
D13*
%TO.N,+5V*%
%TO.C,RV5*%
X50000000Y-104000000D03*
D14*
%TO.N,POT5_W*%
X52500000Y-104000000D03*
%TO.N,GND*%
X55000000Y-104000000D03*
D15*
%TO.N,N/C*%
X48100000Y-97000000D03*
X56900000Y-97000000D03*
%TD*%
D10*
%TO.N,POT2_W*%
%TO.C,R11*%
X93000000Y-74000000D03*
%TO.N,A5*%
X103160000Y-74000000D03*
%TD*%
D13*
%TO.N,GND*%
%TO.C,D7*%
X178000000Y-60000000D03*
D14*
%TO.N,LED5_A*%
X180540000Y-60000000D03*
%TD*%
D11*
%TO.N,GND*%
%TO.C,J5*%
X166000000Y-32000000D03*
D12*
%TO.N,+5V*%
X168540000Y-32000000D03*
%TO.N,D21_SCL*%
X171080000Y-32000000D03*
%TO.N,D20_SDA*%
X173620000Y-32000000D03*
%TD*%
D11*
%TO.N,A8*%
%TO.C,JMA2*%
X108660000Y-134260000D03*
D12*
%TO.N,A9*%
X106120000Y-134260000D03*
%TO.N,A10*%
X103580000Y-134260000D03*
%TO.N,A11*%
X101040000Y-134260000D03*
%TO.N,A12*%
X98500000Y-134260000D03*
%TO.N,A13*%
X95960000Y-134260000D03*
%TO.N,A14*%
X93420000Y-134260000D03*
%TO.N,A15*%
X90880000Y-134260000D03*
%TD*%
D20*
%TO.N,VIN_RAW*%
%TO.C,J3*%
X138000000Y-38000000D03*
D21*
%TO.N,GND*%
X138000000Y-32000000D03*
D22*
%TO.N,N/C*%
X133300000Y-35000000D03*
%TD*%
D17*
%TO.N,*%
%TO.C,J2*%
X67000000Y-28300000D03*
X77000000Y-28300000D03*
D18*
%TO.N,N/C*%
X64700000Y-38000000D03*
%TO.N,GND*%
X72000000Y-38000000D03*
%TO.N,N/C*%
X79300000Y-38000000D03*
%TO.N,MIDI_OUT_4*%
X77000000Y-40500000D03*
%TO.N,MIDI_OUT_5*%
X67000000Y-40500000D03*
%TD*%
D13*
%TO.N,+5V*%
%TO.C,RV8*%
X146000000Y-104000000D03*
D14*
%TO.N,POT8_W*%
X148500000Y-104000000D03*
%TO.N,GND*%
X151000000Y-104000000D03*
D15*
%TO.N,N/C*%
X144100000Y-97000000D03*
X152900000Y-97000000D03*
%TD*%
D10*
%TO.N,A1*%
%TO.C,C6*%
X61000000Y-103000000D03*
%TO.N,GND*%
X66000000Y-103000000D03*
%TD*%
%TO.N,A6*%
%TO.C,C11*%
X93000000Y-127000000D03*
%TO.N,GND*%
X98000000Y-127000000D03*
%TD*%
%TO.N,D23*%
%TO.C,R28*%
X186000000Y-60000000D03*
%TO.N,LED5_A*%
X186000000Y-49840000D03*
%TD*%
D13*
%TO.N,+5V*%
%TO.C,RV11*%
X114000000Y-128000000D03*
D14*
%TO.N,POT11_W*%
X116500000Y-128000000D03*
%TO.N,GND*%
X119000000Y-128000000D03*
D15*
%TO.N,N/C*%
X112100000Y-121000000D03*
X120900000Y-121000000D03*
%TD*%
D11*
%TO.N,N/C*%
%TO.C,JMP1*%
X62940000Y-134260000D03*
D12*
X60400000Y-134260000D03*
X57860000Y-134260000D03*
X55320000Y-134260000D03*
%TO.N,+5V*%
X52780000Y-134260000D03*
%TO.N,GND*%
X50240000Y-134260000D03*
X47700000Y-134260000D03*
%TO.N,VIN_RAW*%
X45160000Y-134260000D03*
%TD*%
D10*
%TO.N,D27*%
%TO.C,R30*%
X43000000Y-160000000D03*
%TO.N,LED7_A*%
X43000000Y-149840000D03*
%TD*%
D11*
%TO.N,A0*%
%TO.C,JMA1*%
X85800000Y-134260000D03*
D12*
%TO.N,A1*%
X83260000Y-134260000D03*
%TO.N,A2*%
X80720000Y-134260000D03*
%TO.N,A3*%
X78180000Y-134260000D03*
%TO.N,A4*%
X75640000Y-134260000D03*
%TO.N,A5*%
X73100000Y-134260000D03*
%TO.N,A6*%
X70560000Y-134260000D03*
%TO.N,A7*%
X68020000Y-134260000D03*
%TD*%
D10*
%TO.N,D12*%
%TO.C,R6*%
X186000000Y-84000000D03*
%TO.N,LED1_A*%
X186000000Y-73840000D03*
%TD*%
%TO.N,POT14_W*%
%TO.C,R23*%
X93000000Y-146000000D03*
%TO.N,A7*%
X103160000Y-146000000D03*
%TD*%
%TO.N,POT16_W*%
%TO.C,R25*%
X157000000Y-146000000D03*
%TO.N,MUX_CH0*%
X167160000Y-146000000D03*
%TD*%
D13*
%TO.N,+5V*%
%TO.C,RV2*%
X82000000Y-80000000D03*
D14*
%TO.N,POT2_W*%
X84500000Y-80000000D03*
%TO.N,GND*%
X87000000Y-80000000D03*
D15*
%TO.N,N/C*%
X80100000Y-73000000D03*
X88900000Y-73000000D03*
%TD*%
D13*
%TO.N,+5V*%
%TO.C,RV10*%
X82000000Y-128000000D03*
D14*
%TO.N,POT10_W*%
X84500000Y-128000000D03*
%TO.N,GND*%
X87000000Y-128000000D03*
D15*
%TO.N,N/C*%
X80100000Y-121000000D03*
X88900000Y-121000000D03*
%TD*%
D10*
%TO.N,MIDI_IN_4*%
%TO.C,R1*%
X34000000Y-65000000D03*
%TO.N,OPTO_ANODE*%
X44160000Y-65000000D03*
%TD*%
%TO.N,D10*%
%TO.C,R8*%
X186000000Y-132000000D03*
%TO.N,LED3_A*%
X186000000Y-121840000D03*
%TD*%
%TO.N,A4*%
%TO.C,C7*%
X93000000Y-103000000D03*
%TO.N,GND*%
X98000000Y-103000000D03*
%TD*%
D13*
%TO.N,+5V*%
%TO.C,RV6*%
X82000000Y-104000000D03*
D14*
%TO.N,POT6_W*%
X84500000Y-104000000D03*
%TO.N,GND*%
X87000000Y-104000000D03*
D15*
%TO.N,N/C*%
X80100000Y-97000000D03*
X88900000Y-97000000D03*
%TD*%
D23*
%TO.N,+5V*%
%TO.C,D2D*%
X150000000Y-52000000D03*
D24*
%TO.N,VIN_RAW*%
X160160000Y-52000000D03*
%TD*%
D13*
%TO.N,GND*%
%TO.C,D8*%
X35000000Y-100000000D03*
D14*
%TO.N,LED6_A*%
X37540000Y-100000000D03*
%TD*%
D13*
%TO.N,+5V*%
%TO.C,RV15*%
X114000000Y-152000000D03*
D14*
%TO.N,POT15_W*%
X116500000Y-152000000D03*
%TO.N,GND*%
X119000000Y-152000000D03*
D15*
%TO.N,N/C*%
X112100000Y-145000000D03*
X120900000Y-145000000D03*
%TD*%
D13*
%TO.N,+5V*%
%TO.C,RV7*%
X114000000Y-104000000D03*
D14*
%TO.N,POT7_W*%
X116500000Y-104000000D03*
%TO.N,GND*%
X119000000Y-104000000D03*
D15*
%TO.N,N/C*%
X112100000Y-97000000D03*
X120900000Y-97000000D03*
%TD*%
D10*
%TO.N,A0*%
%TO.C,C2*%
X61000000Y-79000000D03*
%TO.N,GND*%
X66000000Y-79000000D03*
%TD*%
D13*
%TO.N,+5V*%
%TO.C,RV12*%
X146000000Y-128000000D03*
D14*
%TO.N,POT12_W*%
X148500000Y-128000000D03*
%TO.N,GND*%
X151000000Y-128000000D03*
D15*
%TO.N,N/C*%
X144100000Y-121000000D03*
X152900000Y-121000000D03*
%TD*%
D13*
%TO.N,GND*%
%TO.C,D6*%
X178000000Y-156000000D03*
D14*
%TO.N,LED4_A*%
X180540000Y-156000000D03*
%TD*%
D10*
%TO.N,POT1_W*%
%TO.C,R10*%
X61000000Y-74000000D03*
%TO.N,A0*%
X71160000Y-74000000D03*
%TD*%
D13*
%TO.N,GND*%
%TO.C,D3*%
X178000000Y-84000000D03*
D14*
%TO.N,LED1_A*%
X180540000Y-84000000D03*
%TD*%
D19*
%TO.N,D22*%
%TO.C,SW6*%
X168000000Y-60000000D03*
X174500000Y-60000000D03*
%TO.N,GND*%
X168000000Y-64500000D03*
X174500000Y-64500000D03*
%TD*%
D13*
%TO.N,+5V*%
%TO.C,RV14*%
X82000000Y-152000000D03*
D14*
%TO.N,POT14_W*%
X84500000Y-152000000D03*
%TO.N,GND*%
X87000000Y-152000000D03*
D15*
%TO.N,N/C*%
X80100000Y-145000000D03*
X88900000Y-145000000D03*
%TD*%
D10*
%TO.N,MIDI_OUT_5*%
%TO.C,R3*%
X92000000Y-66000000D03*
%TO.N,D1_TX*%
X102160000Y-66000000D03*
%TD*%
%TO.N,D11*%
%TO.C,R7*%
X186000000Y-108000000D03*
%TO.N,LED2_A*%
X186000000Y-97840000D03*
%TD*%
D11*
%TO.N,GND*%
%TO.C,J4*%
X136000000Y-60000000D03*
D12*
%TO.N,+5V*%
X138540000Y-60000000D03*
%TO.N,GND*%
X141080000Y-60000000D03*
%TO.N,VIN_RAW*%
X143620000Y-60000000D03*
%TD*%
D10*
%TO.N,A3*%
%TO.C,C14*%
X61000000Y-151000000D03*
%TO.N,GND*%
X66000000Y-151000000D03*
%TD*%
%TO.N,A13*%
%TO.C,C9*%
X157000000Y-103000000D03*
%TO.N,GND*%
X162000000Y-103000000D03*
%TD*%
%TO.N,POT4_W*%
%TO.C,R13*%
X157000000Y-74000000D03*
%TO.N,A12*%
X167160000Y-74000000D03*
%TD*%
%TO.N,POT11_W*%
%TO.C,R20*%
X125000000Y-119000000D03*
%TO.N,A10*%
X125000000Y-108840000D03*
%TD*%
D13*
%TO.N,+5V*%
%TO.C,RV3*%
X114000000Y-80000000D03*
D14*
%TO.N,POT3_W*%
X116500000Y-80000000D03*
%TO.N,GND*%
X119000000Y-80000000D03*
D15*
%TO.N,N/C*%
X112100000Y-73000000D03*
X120900000Y-73000000D03*
%TD*%
D10*
%TO.N,A7*%
%TO.C,C15*%
X93000000Y-151000000D03*
%TO.N,GND*%
X98000000Y-151000000D03*
%TD*%
%TO.N,A9*%
%TO.C,C8*%
X122000000Y-103000000D03*
%TO.N,GND*%
X127000000Y-103000000D03*
%TD*%
%TO.N,POT13_W*%
%TO.C,R22*%
X61000000Y-146000000D03*
%TO.N,A3*%
X71160000Y-146000000D03*
%TD*%
D13*
%TO.N,GND*%
%TO.C,D4*%
X178000000Y-108000000D03*
D14*
%TO.N,LED2_A*%
X180540000Y-108000000D03*
%TD*%
D13*
%TO.N,+5V*%
%TO.C,RV13*%
X50000000Y-152000000D03*
D14*
%TO.N,POT13_W*%
X52500000Y-152000000D03*
%TO.N,GND*%
X55000000Y-152000000D03*
D15*
%TO.N,N/C*%
X48100000Y-145000000D03*
X56900000Y-145000000D03*
%TD*%
D10*
%TO.N,POT15_W*%
%TO.C,R24*%
X125000000Y-146000000D03*
%TO.N,A11*%
X135160000Y-146000000D03*
%TD*%
D13*
%TO.N,+5V*%
%TO.C,RV9*%
X50000000Y-128000000D03*
D14*
%TO.N,POT9_W*%
X52500000Y-128000000D03*
%TO.N,GND*%
X55000000Y-128000000D03*
D15*
%TO.N,N/C*%
X48100000Y-121000000D03*
X56900000Y-121000000D03*
%TD*%
D10*
%TO.N,A14*%
%TO.C,C13*%
X157000000Y-127000000D03*
%TO.N,GND*%
X162000000Y-127000000D03*
%TD*%
%TO.N,A2*%
%TO.C,C10*%
X61000000Y-127000000D03*
%TO.N,GND*%
X66000000Y-127000000D03*
%TD*%
D19*
%TO.N,D6*%
%TO.C,SW4*%
X168000000Y-132000000D03*
X174500000Y-132000000D03*
%TO.N,GND*%
X168000000Y-136500000D03*
X174500000Y-136500000D03*
%TD*%
D11*
%TO.N,D21_SCL*%
%TO.C,JMD1*%
X53796000Y-86000000D03*
D12*
%TO.N,D20_SDA*%
X51256000Y-86000000D03*
%TO.N,AREF*%
X48716000Y-86000000D03*
%TO.N,GND*%
X46176000Y-86000000D03*
%TO.N,D13*%
X43636000Y-86000000D03*
%TO.N,D12*%
X41096000Y-86000000D03*
%TO.N,D11*%
X38556000Y-86000000D03*
%TO.N,D10*%
X36016000Y-86000000D03*
%TO.N,D9*%
X33476000Y-86000000D03*
%TO.N,D8*%
X30936000Y-86000000D03*
%TD*%
D10*
%TO.N,OPTO_VB*%
%TO.C,R4*%
X68000000Y-59000000D03*
%TO.N,GND*%
X78160000Y-59000000D03*
%TD*%
D16*
%TO.N,+5V*%
%TO.C,C19*%
X162000000Y-64000000D03*
D10*
%TO.N,GND*%
X164500000Y-64000000D03*
%TD*%
D19*
%TO.N,D24*%
%TO.C,SW7*%
X26000000Y-100000000D03*
X32500000Y-100000000D03*
%TO.N,GND*%
X26000000Y-104500000D03*
X32500000Y-104500000D03*
%TD*%
D10*
%TO.N,MUX_CH1*%
%TO.C,C18*%
X136000000Y-172000000D03*
%TO.N,GND*%
X141000000Y-172000000D03*
%TD*%
D13*
%TO.N,+5V*%
%TO.C,RV16*%
X146000000Y-152000000D03*
D14*
%TO.N,POT16_W*%
X148500000Y-152000000D03*
%TO.N,GND*%
X151000000Y-152000000D03*
D15*
%TO.N,N/C*%
X144100000Y-145000000D03*
X152900000Y-145000000D03*
%TD*%
D10*
%TO.N,POT6_W*%
%TO.C,R15*%
X93000000Y-98000000D03*
%TO.N,A4*%
X103160000Y-98000000D03*
%TD*%
%TO.N,D9*%
%TO.C,R9*%
X186000000Y-156000000D03*
%TO.N,LED4_A*%
X186000000Y-145840000D03*
%TD*%
D19*
%TO.N,D8*%
%TO.C,SW3*%
X168000000Y-108000000D03*
X174500000Y-108000000D03*
%TO.N,GND*%
X168000000Y-112500000D03*
X174500000Y-112500000D03*
%TD*%
D10*
%TO.N,A10*%
%TO.C,C12*%
X122000000Y-127000000D03*
%TO.N,GND*%
X127000000Y-127000000D03*
%TD*%
%TO.N,POT5_W*%
%TO.C,R14*%
X61000000Y-98000000D03*
%TO.N,A1*%
X71160000Y-98000000D03*
%TD*%
%TO.N,JACK_W*%
%TO.C,R27*%
X112000000Y-172000000D03*
%TO.N,MUX_CH1*%
X122160000Y-172000000D03*
%TD*%
%TO.N,D0_RX*%
%TO.C,R5*%
X68000000Y-65000000D03*
%TO.N,+5V*%
X78160000Y-65000000D03*
%TD*%
%TO.N,POT7_W*%
%TO.C,R16*%
X125000000Y-95000000D03*
%TO.N,A9*%
X125000000Y-84840000D03*
%TD*%
%TO.N,POT10_W*%
%TO.C,R19*%
X93000000Y-122000000D03*
%TO.N,A6*%
X103160000Y-122000000D03*
%TD*%
D25*
%TO.N,GND*%
%TO.C,J10*%
X111430000Y-29300000D03*
%TO.N,+5V*%
X100000000Y-35650000D03*
%TO.N,N/C*%
X111430000Y-35650000D03*
%TO.N,GND*%
X100000000Y-29300000D03*
%TO.N,JACK_W*%
X100000000Y-42000000D03*
%TO.N,N/C*%
X111430000Y-42000000D03*
%TD*%
D10*
%TO.N,MUX_CH0*%
%TO.C,C17*%
X157000000Y-151000000D03*
%TO.N,GND*%
X162000000Y-151000000D03*
%TD*%
%TO.N,POT12_W*%
%TO.C,R21*%
X157000000Y-122000000D03*
%TO.N,A14*%
X167160000Y-122000000D03*
%TD*%
%TO.N,A12*%
%TO.C,C5*%
X157000000Y-79000000D03*
%TO.N,GND*%
X162000000Y-79000000D03*
%TD*%
D26*
%TO.N,D24*%
X32500000Y-91577000D03*
%TO.N,D25*%
X43000000Y-92312800D03*
%TO.N,D22*%
X132765900Y-77084800D03*
%TO.N,D23*%
X160888300Y-88221300D03*
%TO.N,D6*%
X78180000Y-84054300D03*
X163580800Y-83630100D03*
X163580800Y-130960900D03*
%TO.N,D5*%
X164849500Y-83260300D03*
X75640000Y-83260300D03*
%TO.N,D1_TX*%
X73806000Y-77512100D03*
%TO.N,D13*%
X45308400Y-155159400D03*
%TO.N,D20_SDA*%
X97596200Y-44505400D03*
%TO.N,D21_SCL*%
X94114000Y-27448500D03*
%TO.N,A5*%
X83298300Y-131291100D03*
%TO.N,A12*%
X147250000Y-112512100D03*
%TO.N,VIN_RAW*%
X50434200Y-71102100D03*
X138903000Y-54041500D03*
%TO.N,A1*%
X71105300Y-131235500D03*
%TO.N,A4*%
X90603500Y-123026800D03*
%TO.N,D10*%
X104329700Y-132270800D03*
X104329700Y-88421000D03*
%TO.N,D9*%
X184060700Y-83868300D03*
%TD*%
%TO.N,POT8_W*%
D27*
X152849200Y-99650800D02*
X155349200Y-99650800D01*
X155349200Y-99650800D02*
X157000000Y-98000000D01*
X148500000Y-104000000D02*
X152849200Y-99650800D01*
%TO.N,A13*%
X157000000Y-103000000D02*
X162000000Y-98000000D01*
X153063300Y-106936700D02*
X142020800Y-106936700D01*
X142020800Y-106936700D02*
X133831800Y-115125700D01*
X133831800Y-115125700D02*
X123209300Y-115125700D01*
X107031600Y-123188400D02*
X95960000Y-134260000D01*
X115146600Y-123188400D02*
X107031600Y-123188400D01*
X157000000Y-103000000D02*
X153063300Y-106936700D01*
X162000000Y-98000000D02*
X167160000Y-98000000D01*
X123209300Y-115125700D02*
X115146600Y-123188400D01*
%TO.N,D26*%
X64486000Y-135411700D02*
X61990900Y-135411700D01*
X32500000Y-160000000D02*
X26000000Y-160000000D01*
X80499600Y-124881400D02*
X75016300Y-124881400D01*
X38177300Y-154322700D02*
X32500000Y-160000000D01*
X128980000Y-93620000D02*
X111761000Y-93620000D01*
X111761000Y-93620000D02*
X80499600Y-124881400D01*
X43079900Y-154322700D02*
X38177300Y-154322700D01*
X61990900Y-135411700D02*
X43079900Y-154322700D01*
X75016300Y-124881400D02*
X64486000Y-135411700D01*
%TO.N,D27*%
X131520000Y-93620000D02*
X130250000Y-94890000D01*
X117750000Y-103534800D02*
X117750000Y-104477900D01*
X120899800Y-102049400D02*
X119235400Y-102049400D01*
X128059200Y-94890000D02*
X120899800Y-102049400D01*
X119235400Y-102049400D02*
X117750000Y-103534800D01*
X117750000Y-104477900D02*
X104242800Y-117985100D01*
X78504000Y-127841500D02*
X72736400Y-127841500D01*
X104242800Y-117985100D02*
X88360400Y-117985100D01*
X130250000Y-94890000D02*
X128059200Y-94890000D01*
X43000000Y-155365100D02*
X43000000Y-160000000D01*
X72736400Y-127841500D02*
X57976300Y-142601600D01*
X57976300Y-142601600D02*
X55763500Y-142601600D01*
X88360400Y-117985100D02*
X78504000Y-127841500D01*
X55763500Y-142601600D02*
X43000000Y-155365100D01*
%TO.N,D24*%
X128980000Y-91080000D02*
X128483000Y-91577000D01*
X32500000Y-100000000D02*
X26000000Y-100000000D01*
X128483000Y-91577000D02*
X32500000Y-91577000D01*
%TO.N,D25*%
X131520000Y-91080000D02*
X130287200Y-92312800D01*
X130287200Y-92312800D02*
X43000000Y-92312800D01*
%TO.N,D22*%
X163321500Y-64578400D02*
X163321500Y-63529300D01*
X161357000Y-66542900D02*
X163321500Y-64578400D01*
X136531000Y-77084800D02*
X147072900Y-66542900D01*
X174500000Y-60000000D02*
X168000000Y-60000000D01*
X163321500Y-63529300D02*
X166850800Y-60000000D01*
X147072900Y-66542900D02*
X161357000Y-66542900D01*
X166850800Y-60000000D02*
X168000000Y-60000000D01*
X132765900Y-77084800D02*
X136531000Y-77084800D01*
%TO.N,D23*%
X131838700Y-88221300D02*
X160888300Y-88221300D01*
X131520000Y-88540000D02*
X131838700Y-88221300D01*
%TO.N,+5V*%
X112798300Y-80000000D02*
X112674000Y-80124300D01*
X146540000Y-52000000D02*
X138540000Y-60000000D01*
X83952700Y-153201700D02*
X83201700Y-152450700D01*
X74756400Y-54000000D02*
X55620000Y-54000000D01*
X81378200Y-60621800D02*
X83150200Y-58849800D01*
X114000000Y-152000000D02*
X112798300Y-152000000D01*
X114000000Y-80000000D02*
X112798300Y-80000000D01*
X84002300Y-78798300D02*
X83201700Y-79598900D01*
X88823800Y-80124300D02*
X87497800Y-78798300D01*
X131520000Y-86000000D02*
X128980000Y-86000000D01*
X146000000Y-152000000D02*
X144798300Y-152000000D01*
X150000000Y-52000000D02*
X146540000Y-52000000D01*
X82000000Y-152000000D02*
X83201700Y-152000000D01*
X80000000Y-62000000D02*
X81378200Y-60621800D01*
X114000000Y-152000000D02*
X115201700Y-152000000D01*
X115952700Y-153201700D02*
X115201700Y-152450700D01*
X112798300Y-152000000D02*
X111596600Y-153201700D01*
X83201700Y-79598900D02*
X83201700Y-80000000D01*
X144798300Y-152000000D02*
X143596600Y-153201700D01*
X82000000Y-80000000D02*
X83201700Y-80000000D01*
X81378200Y-60621800D02*
X74756400Y-54000000D01*
X162000000Y-64000000D02*
X142540000Y-64000000D01*
X112674000Y-80124300D02*
X88823800Y-80124300D01*
X87497800Y-78798300D02*
X84002300Y-78798300D01*
X111596600Y-153201700D02*
X83952700Y-153201700D01*
X83201700Y-152450700D02*
X83201700Y-152000000D01*
X101009800Y-58849800D02*
X102160000Y-60000000D01*
X115201700Y-152450700D02*
X115201700Y-152000000D01*
X142540000Y-64000000D02*
X138540000Y-60000000D01*
X83150200Y-58849800D02*
X101009800Y-58849800D01*
X143596600Y-153201700D02*
X115952700Y-153201700D01*
%TO.N,D7*%
X80720000Y-86000000D02*
X81871700Y-86000000D01*
X88969100Y-83734700D02*
X153612600Y-83734700D01*
X81871700Y-86000000D02*
X83023400Y-87151700D01*
X174500000Y-84000000D02*
X168000000Y-84000000D01*
X167768200Y-84231800D02*
X168000000Y-84000000D01*
X154109700Y-84231800D02*
X167768200Y-84231800D01*
X83023400Y-87151700D02*
X86279800Y-87151700D01*
X87131400Y-86300100D02*
X87131400Y-85572400D01*
X153612600Y-83734700D02*
X154109700Y-84231800D01*
X87131400Y-85572400D02*
X88969100Y-83734700D01*
X86279800Y-87151700D02*
X87131400Y-86300100D01*
%TO.N,D6*%
X78180000Y-84054300D02*
X78974000Y-83260300D01*
X174500000Y-132000000D02*
X168000000Y-132000000D01*
X154213300Y-83630100D02*
X163580800Y-83630100D01*
X168000000Y-132000000D02*
X166960900Y-130960900D01*
X153843500Y-83260300D02*
X154213300Y-83630100D01*
X166960900Y-130960900D02*
X163580800Y-130960900D01*
X78974000Y-83260300D02*
X153843500Y-83260300D01*
%TO.N,D5*%
X76041700Y-82858600D02*
X75640000Y-83260300D01*
X164617600Y-83028400D02*
X154740400Y-83028400D01*
X154416700Y-83128400D02*
X154146900Y-82858600D01*
X154740400Y-83028400D02*
X154640400Y-83128400D01*
X154146900Y-82858600D02*
X76041700Y-82858600D01*
X164849500Y-83260300D02*
X164617600Y-83028400D01*
X154640400Y-83128400D02*
X154416700Y-83128400D01*
X174500000Y-156000000D02*
X168000000Y-156000000D01*
%TO.N,D1_TX*%
X93456400Y-75101700D02*
X95260100Y-73298000D01*
X95260100Y-73298000D02*
X95260100Y-72899800D01*
X76216400Y-75101700D02*
X93456400Y-75101700D01*
X95260200Y-72899800D02*
X102160000Y-66000000D01*
X95260100Y-72899800D02*
X95260200Y-72899800D01*
X73806000Y-77512100D02*
X76216400Y-75101700D01*
%TO.N,D0_RX*%
X62080000Y-59080000D02*
X68000000Y-65000000D01*
X55620000Y-59080000D02*
X62080000Y-59080000D01*
%TO.N,A11*%
X123036100Y-142473600D02*
X128281300Y-147718700D01*
X130000000Y-146000000D02*
X135160000Y-146000000D01*
X125000000Y-151000000D02*
X128281300Y-147718700D01*
X101040000Y-134260000D02*
X109253600Y-142473600D01*
X128281300Y-147718700D02*
X130000000Y-146000000D01*
X109253600Y-142473600D02*
X123036100Y-142473600D01*
%TO.N,OPTO_ANODE*%
X34000000Y-59000000D02*
X36460000Y-56540000D01*
X36460000Y-56540000D02*
X48000000Y-56540000D01*
%TO.N,OPTO_CATHODE*%
X48000000Y-59080000D02*
X41700000Y-59080000D01*
X41700000Y-59080000D02*
X41620000Y-59000000D01*
%TO.N,POT9_W*%
X52500000Y-128000000D02*
X56849200Y-123650800D01*
X56849200Y-123650800D02*
X59349200Y-123650800D01*
X59349200Y-123650800D02*
X61000000Y-122000000D01*
%TO.N,A2*%
X61000000Y-127000000D02*
X66000000Y-122000000D01*
X66000000Y-122000000D02*
X71160000Y-122000000D01*
%TO.N,MUX_CH1*%
X68918800Y-181138800D02*
X70758200Y-181138800D01*
X67780000Y-180000000D02*
X68918800Y-181138800D01*
X70758200Y-181138800D02*
X71758300Y-180138700D01*
X119675300Y-174484700D02*
X122160000Y-172000000D01*
X136000000Y-172000000D02*
X122160000Y-172000000D01*
X71758300Y-179512400D02*
X76786000Y-174484700D01*
X76786000Y-174484700D02*
X119675300Y-174484700D01*
X71758300Y-180138700D02*
X71758300Y-179512400D01*
%TO.N,MUX_CH0*%
X148800200Y-159199800D02*
X157000000Y-151000000D01*
X157000000Y-151000000D02*
X162000000Y-146000000D01*
X91120200Y-159199800D02*
X148800200Y-159199800D01*
X70320000Y-180000000D02*
X91120200Y-159199800D01*
X162000000Y-146000000D02*
X167160000Y-146000000D01*
%TO.N,D13*%
X68339400Y-155159400D02*
X45308400Y-155159400D01*
X77940000Y-164760000D02*
X68339400Y-155159400D01*
%TO.N,D20_SDA*%
X173620000Y-32000000D02*
X161114600Y-44505400D01*
X86763100Y-87561600D02*
X88324700Y-86000000D01*
X88324700Y-86000000D02*
X88340000Y-86000000D01*
X51256000Y-86000000D02*
X52817600Y-87561600D01*
X161114600Y-44505400D02*
X97596200Y-44505400D01*
X52817600Y-87561600D02*
X86763100Y-87561600D01*
%TO.N,D21_SCL*%
X56099400Y-84848300D02*
X84648300Y-84848300D01*
X171080000Y-32000000D02*
X166528500Y-27448500D01*
X54947700Y-86000000D02*
X56099400Y-84848300D01*
X53796000Y-86000000D02*
X54947700Y-86000000D01*
X84648300Y-84848300D02*
X85800000Y-86000000D01*
X166528500Y-27448500D02*
X94114000Y-27448500D01*
%TO.N,OPTO_VB*%
X55620000Y-56540000D02*
X65540000Y-56540000D01*
X65540000Y-56540000D02*
X68000000Y-59000000D01*
%TO.N,A5*%
X73100000Y-134260000D02*
X76068900Y-131291100D01*
X76068900Y-131291100D02*
X83298300Y-131291100D01*
%TO.N,A12*%
X108902800Y-123857200D02*
X123211300Y-123857200D01*
X139472100Y-120290000D02*
X147250000Y-112512100D01*
X98500000Y-134260000D02*
X108902800Y-123857200D01*
X126778500Y-120290000D02*
X139472100Y-120290000D01*
X123211300Y-123857200D02*
X126778500Y-120290000D01*
%TO.N,A14*%
X152330900Y-131669100D02*
X101917500Y-131669100D01*
X157000000Y-127000000D02*
X162000000Y-122000000D01*
X99058800Y-135424200D02*
X94584200Y-135424200D01*
X99770000Y-134713000D02*
X99058800Y-135424200D01*
X101917500Y-131669100D02*
X99770000Y-133816600D01*
X162000000Y-122000000D02*
X167160000Y-122000000D01*
X99770000Y-133816600D02*
X99770000Y-134713000D01*
X94584200Y-135424200D02*
X93420000Y-134260000D01*
X157000000Y-127000000D02*
X152330900Y-131669100D01*
%TO.N,VIN_RAW*%
X160160000Y-52000000D02*
X152160000Y-60000000D01*
X92957700Y-71102100D02*
X110018300Y-54041500D01*
X110018300Y-54041500D02*
X138903000Y-54041500D01*
X152160000Y-60000000D02*
X143620000Y-60000000D01*
X50434200Y-71102100D02*
X92957700Y-71102100D01*
%TO.N,A1*%
X66000000Y-98000000D02*
X71160000Y-98000000D01*
X61000000Y-103000000D02*
X66000000Y-98000000D01*
%TO.N,A6*%
X70560000Y-134260000D02*
X75057800Y-129762200D01*
X90237800Y-129762200D02*
X93000000Y-127000000D01*
X75057800Y-129762200D02*
X90237800Y-129762200D01*
%TO.N,A3*%
X61000000Y-151000000D02*
X66000000Y-146000000D01*
X66000000Y-146000000D02*
X71160000Y-146000000D01*
%TO.N,A4*%
X89333300Y-132239500D02*
X77660400Y-132239500D01*
X77660400Y-132239600D02*
X75640000Y-134260000D01*
X98000000Y-98000000D02*
X103160000Y-98000000D01*
X77660400Y-132239500D02*
X77660400Y-132239600D01*
X90603500Y-123026800D02*
X94150400Y-126573700D01*
X93000000Y-103000000D02*
X98000000Y-98000000D01*
X94150400Y-127422400D02*
X89333300Y-132239500D01*
X94150400Y-126573700D02*
X94150400Y-127422400D01*
%TO.N,A7*%
X99560800Y-142400800D02*
X103160000Y-146000000D01*
X76160800Y-142400800D02*
X99560800Y-142400800D01*
X68020000Y-134260000D02*
X76160800Y-142400800D01*
%TO.N,D12*%
X73556900Y-78113800D02*
X73316000Y-77872900D01*
X73316000Y-77872900D02*
X49223100Y-77872900D01*
X49223100Y-77872900D02*
X41096000Y-86000000D01*
X74055200Y-78113800D02*
X73556900Y-78113800D01*
X74296100Y-77872900D02*
X74055200Y-78113800D01*
X186000000Y-84000000D02*
X179872900Y-77872900D01*
X179872900Y-77872900D02*
X74296100Y-77872900D01*
%TO.N,POT14_W*%
X84500000Y-152000000D02*
X88849200Y-147650800D01*
X91349200Y-147650800D02*
X93000000Y-146000000D01*
X88849200Y-147650800D02*
X91349200Y-147650800D01*
%TO.N,POT16_W*%
X152849200Y-147650800D02*
X155349200Y-147650800D01*
X148500000Y-152000000D02*
X152849200Y-147650800D01*
X155349200Y-147650800D02*
X157000000Y-146000000D01*
%TO.N,D10*%
X165121000Y-132270800D02*
X166208300Y-133358100D01*
X166208300Y-133358100D02*
X184641900Y-133358100D01*
X104329700Y-132270800D02*
X165121000Y-132270800D01*
X38437000Y-88421000D02*
X104329700Y-88421000D01*
X184641900Y-133358100D02*
X186000000Y-132000000D01*
X36016000Y-86000000D02*
X38437000Y-88421000D01*
%TO.N,POT15_W*%
X120849200Y-147650800D02*
X123349200Y-147650800D01*
X123349200Y-147650800D02*
X125000000Y-146000000D01*
X116500000Y-152000000D02*
X120849200Y-147650800D01*
%TO.N,POT7_W*%
X125000000Y-95000000D02*
X125000000Y-96416000D01*
X119768300Y-101647700D02*
X118852300Y-101647700D01*
X125000000Y-96416000D02*
X119768300Y-101647700D01*
X118852300Y-101647700D02*
X116500000Y-104000000D01*
%TO.N,POT12_W*%
X155349200Y-123650800D02*
X152849200Y-123650800D01*
X157000000Y-122000000D02*
X155349200Y-123650800D01*
X152849200Y-123650800D02*
X148500000Y-128000000D01*
%TO.N,D11*%
X40541400Y-87985400D02*
X38556000Y-86000000D01*
X182282400Y-108000000D02*
X161599000Y-87316600D01*
X186000000Y-108000000D02*
X182282400Y-108000000D01*
X87591400Y-87316600D02*
X86922600Y-87985400D01*
X161599000Y-87316600D02*
X87591400Y-87316600D01*
X86922600Y-87985400D02*
X40541400Y-87985400D01*
%TO.N,POT13_W*%
X56849200Y-147650800D02*
X59349200Y-147650800D01*
X59349200Y-147650800D02*
X61000000Y-146000000D01*
X52500000Y-152000000D02*
X56849200Y-147650800D01*
%TO.N,D9*%
X154513200Y-82656900D02*
X154313200Y-82456900D01*
X34657000Y-84819000D02*
X33476000Y-86000000D01*
X184060700Y-83868300D02*
X182819100Y-82626700D01*
X39944300Y-86546500D02*
X39944300Y-85735200D01*
X45533700Y-82456900D02*
X42484300Y-85506300D01*
X42484300Y-86284400D02*
X41590000Y-87178700D01*
X42484300Y-85506300D02*
X42484300Y-86284400D01*
X39028100Y-84819000D02*
X34657000Y-84819000D01*
X41590000Y-87178700D02*
X40576500Y-87178700D01*
X39944300Y-85735200D02*
X39028100Y-84819000D01*
X154543900Y-82656900D02*
X154513200Y-82656900D01*
X154313200Y-82456900D02*
X45533700Y-82456900D01*
X182819100Y-82626700D02*
X154574100Y-82626700D01*
X40576500Y-87178700D02*
X39944300Y-86546500D01*
X154574100Y-82626700D02*
X154543900Y-82656900D01*
%TO.N,D8*%
X35942000Y-91006000D02*
X44456800Y-91006000D01*
X174500000Y-108000000D02*
X168307500Y-108000000D01*
X45566700Y-89896100D02*
X160614300Y-89896100D01*
X168307500Y-97589300D02*
X168307500Y-108000000D01*
X160614300Y-89896100D02*
X168307500Y-97589300D01*
X30936000Y-86000000D02*
X35942000Y-91006000D01*
X168307500Y-108000000D02*
X168000000Y-108000000D01*
X44456800Y-91006000D02*
X45566700Y-89896100D01*
%TD*%
M02*
