M48
; DRILL file KiCad 10.0.3 date 2026-06-05T22:03:57
; FORMAT={-:-/ absolute / metric / decimal}
; #@! TF.CreationDate,2026-06-05T22:03:57+02:00
; #@! TF.GenerationSoftware,Kicad,Pcbnew,10.0.3
; #@! TF.FileFunction,MixedPlating,1,4
FMAT,2
METRIC
; #@! TA.AperFunction,Plated,PTH,ViaDrill
T1C0.300
; #@! TA.AperFunction,Plated,PTH,ComponentDrill
T2C0.800
; #@! TA.AperFunction,Plated,PTH,ComponentDrill
T3C0.900
; #@! TA.AperFunction,Plated,PTH,ComponentDrill
T4C1.000
; #@! TA.AperFunction,Plated,PTH,ComponentDrill
T5C1.100
; #@! TA.AperFunction,Plated,PTH,ComponentDrill
T6C1.500
; #@! TA.AperFunction,Plated,PTH,ComponentDrill
T7C1.800
%
G90
G05
T1
X135.498Y-129.08
X136.088Y-39.08
X147.014Y-146.128
X153.852Y-166.51
T2
X8.0Y-104.0
X8.0Y-117.0
X8.0Y-130.0
X8.0Y-143.0
X18.16Y-104.0
X18.16Y-117.0
X18.16Y-130.0
X18.16Y-143.0
X25.0Y-13.84
X25.0Y-24.0
X40.0Y-150.0
X50.16Y-150.0
X57.0Y-19.84
X57.0Y-30.0
X57.0Y-49.84
X57.0Y-60.0
X57.0Y-79.84
X57.0Y-90.0
X57.0Y-109.84
X57.0Y-120.0
X60.0Y-150.0
X62.0Y-9.0
X62.0Y-17.0
X64.0Y-25.0
X64.0Y-30.0
X64.0Y-55.0
X64.0Y-60.0
X64.0Y-85.0
X64.0Y-90.0
X64.0Y-115.0
X64.0Y-120.0
X65.0Y-150.0
X69.62Y-17.0
X70.0Y-150.0
X70.0Y-152.54
X70.0Y-155.08
X70.0Y-157.62
X70.0Y-160.16
X70.0Y-162.7
X70.0Y-165.24
X70.0Y-167.78
X70.0Y-170.32
X70.0Y-172.86
X70.0Y-175.4
X70.0Y-177.94
X72.16Y-9.0
X80.0Y-10.0
X80.0Y-12.54
X80.0Y-15.08
X80.0Y-17.62
X85.0Y-5.0
X85.24Y-150.0
X85.24Y-152.54
X85.24Y-155.08
X85.24Y-157.62
X85.24Y-160.16
X85.24Y-162.7
X85.24Y-165.24
X85.24Y-167.78
X85.24Y-170.32
X85.24Y-172.86
X85.24Y-175.4
X85.24Y-177.94
X87.62Y-10.0
X87.62Y-12.54
X87.62Y-15.08
X87.62Y-17.62
X91.0Y-19.84
X91.0Y-30.0
X91.0Y-49.84
X91.0Y-60.0
X91.0Y-79.84
X91.0Y-90.0
X91.0Y-109.84
X91.0Y-120.0
X95.16Y-5.0
X96.0Y-9.0
X98.0Y-25.0
X98.0Y-30.0
X98.0Y-55.0
X98.0Y-60.0
X98.0Y-85.0
X98.0Y-90.0
X98.0Y-115.0
X98.0Y-120.0
X101.0Y-9.0
X105.0Y-6.0
X107.0Y-6.0
X109.0Y-6.0
X125.0Y-19.84
X125.0Y-30.0
X125.0Y-49.84
X125.0Y-60.0
X125.0Y-79.84
X125.0Y-90.0
X125.0Y-109.84
X125.0Y-120.0
X132.0Y-5.0
X132.0Y-13.0
X132.0Y-25.0
X132.0Y-30.0
X132.0Y-55.0
X132.0Y-60.0
X132.0Y-85.0
X132.0Y-90.0
X132.0Y-115.0
X132.0Y-120.0
X142.16Y-5.0
X142.16Y-13.0
X159.0Y-19.84
X159.0Y-30.0
X159.0Y-49.84
X159.0Y-60.0
X159.0Y-79.84
X159.0Y-90.0
X159.0Y-109.84
X159.0Y-120.0
X166.0Y-25.0
X166.0Y-30.0
X166.0Y-55.0
X166.0Y-60.0
X166.0Y-85.0
X166.0Y-90.0
X166.0Y-115.0
X166.0Y-120.0
T3
X28.0Y-104.0
X28.0Y-117.0
X28.0Y-130.0
X28.0Y-143.0
X30.54Y-104.0
X30.54Y-117.0
X30.54Y-130.0
X30.54Y-143.0
T4
X25.0Y-150.0
X25.0Y-152.54
X25.0Y-155.08
X34.0Y-70.0
X34.0Y-72.54
X34.0Y-75.08
X34.0Y-77.62
X34.0Y-80.16
X34.0Y-82.7
X34.0Y-85.24
X34.0Y-87.78
X42.0Y-34.0
X42.0Y-64.0
X42.0Y-94.0
X42.0Y-124.0
X44.5Y-34.0
X44.5Y-64.0
X44.5Y-94.0
X44.5Y-124.0
X45.0Y-8.0
X45.0Y-10.54
X45.0Y-13.08
X45.0Y-15.62
X45.0Y-18.16
X47.0Y-34.0
X47.0Y-64.0
X47.0Y-94.0
X47.0Y-124.0
X76.0Y-34.0
X76.0Y-64.0
X76.0Y-94.0
X76.0Y-124.0
X78.5Y-34.0
X78.5Y-64.0
X78.5Y-94.0
X78.5Y-124.0
X81.0Y-34.0
X81.0Y-64.0
X81.0Y-94.0
X81.0Y-124.0
X100.0Y-150.0
X100.0Y-152.54
X100.0Y-155.08
X100.0Y-157.62
X110.0Y-34.0
X110.0Y-64.0
X110.0Y-94.0
X110.0Y-124.0
X112.5Y-34.0
X112.5Y-64.0
X112.5Y-94.0
X112.5Y-124.0
X115.0Y-34.0
X115.0Y-64.0
X115.0Y-94.0
X115.0Y-124.0
X120.0Y-8.0
X120.0Y-10.54
X120.0Y-13.08
X120.0Y-15.62
X120.0Y-18.16
X130.0Y-162.0
X130.0Y-164.54
X144.0Y-34.0
X144.0Y-64.0
X144.0Y-94.0
X144.0Y-124.0
X146.5Y-34.0
X146.5Y-64.0
X146.5Y-94.0
X146.5Y-124.0
X149.0Y-34.0
X149.0Y-64.0
X149.0Y-94.0
X149.0Y-124.0
X150.0Y-9.0
X150.0Y-11.54
X150.0Y-14.08
X150.0Y-16.62
X150.0Y-162.0
X150.0Y-164.54
X160.0Y-150.0
X160.0Y-152.54
X160.0Y-155.08
X186.0Y-34.0
X186.0Y-36.54
X186.0Y-39.08
X186.0Y-41.62
X186.0Y-64.0
X186.0Y-66.54
X186.0Y-69.08
X186.0Y-71.62
X186.0Y-94.0
X186.0Y-96.54
X186.0Y-99.08
X186.0Y-101.62
X186.0Y-124.0
X186.0Y-126.54
X186.0Y-129.08
X186.0Y-131.62
X195.0Y-15.0
X195.0Y-17.54
X195.0Y-20.08
X195.0Y-22.62
T5
X12.0Y-34.0
X12.0Y-38.5
X12.0Y-50.0
X12.0Y-54.5
X12.0Y-66.0
X12.0Y-70.5
X12.0Y-82.0
X12.0Y-86.5
X18.5Y-34.0
X18.5Y-38.5
X18.5Y-50.0
X18.5Y-54.5
X18.5Y-66.0
X18.5Y-70.5
X18.5Y-82.0
X18.5Y-86.5
X188.0Y-6.0
X198.16Y-6.0
T6
X102.9Y-6.0
X111.1Y-6.0
T4
X164.0Y-9.0G85X164.0Y-11.0
G05
X166.0Y-14.7G85X168.0Y-14.7
G05
X170.0Y-9.0G85X170.0Y-11.0
G05
T7
X39.95Y-27.0G85X40.25Y-27.0
G05
X39.95Y-57.0G85X40.25Y-57.0
G05
X39.95Y-87.0G85X40.25Y-87.0
G05
X39.95Y-117.0G85X40.25Y-117.0
G05
X48.75Y-27.0G85X49.05Y-27.0
G05
X48.75Y-57.0G85X49.05Y-57.0
G05
X48.75Y-87.0G85X49.05Y-87.0
G05
X48.75Y-117.0G85X49.05Y-117.0
G05
X73.95Y-27.0G85X74.25Y-27.0
G05
X73.95Y-57.0G85X74.25Y-57.0
G05
X73.95Y-87.0G85X74.25Y-87.0
G05
X73.95Y-117.0G85X74.25Y-117.0
G05
X82.75Y-27.0G85X83.05Y-27.0
G05
X82.75Y-57.0G85X83.05Y-57.0
G05
X82.75Y-87.0G85X83.05Y-87.0
G05
X82.75Y-117.0G85X83.05Y-117.0
G05
X107.95Y-27.0G85X108.25Y-27.0
G05
X107.95Y-57.0G85X108.25Y-57.0
G05
X107.95Y-87.0G85X108.25Y-87.0
G05
X107.95Y-117.0G85X108.25Y-117.0
G05
X116.75Y-27.0G85X117.05Y-27.0
G05
X116.75Y-57.0G85X117.05Y-57.0
G05
X116.75Y-87.0G85X117.05Y-87.0
G05
X116.75Y-117.0G85X117.05Y-117.0
G05
X141.95Y-27.0G85X142.25Y-27.0
G05
X141.95Y-57.0G85X142.25Y-57.0
G05
X141.95Y-87.0G85X142.25Y-87.0
G05
X141.95Y-117.0G85X142.25Y-117.0
G05
X150.75Y-27.0G85X151.05Y-27.0
G05
X150.75Y-57.0G85X151.05Y-57.0
G05
X150.75Y-87.0G85X151.05Y-87.0
G05
X150.75Y-117.0G85X151.05Y-117.0
G05
M30
