%TF.GenerationSoftware,KiCad,Pcbnew,10.0.3*%
%TF.CreationDate,2026-06-06T15:43:53+02:00*%
%TF.ProjectId,SysEx_Patcher,53797345-785f-4506-9174-636865722e6b,rev?*%
%TF.SameCoordinates,Original*%
%TF.FileFunction,Legend,Top*%
%TF.FilePolarity,Positive*%
%FSLAX46Y46*%
G04 Gerber Fmt 4.6, Leading zero omitted, Abs format (unit mm)*
G04 Created by KiCad (PCBNEW 10.0.3) date 2026-06-06 15:43:53*
%MOMM*%
%LPD*%
G01*
G04 APERTURE LIST*
%ADD10C,0.150000*%
%ADD11C,0.120000*%
G04 APERTURE END LIST*
D10*
X161857142Y-69008557D02*
X161342856Y-69008557D01*
X161599999Y-69008557D02*
X161599999Y-68108557D01*
X161599999Y-68108557D02*
X161514285Y-68237128D01*
X161514285Y-68237128D02*
X161428570Y-68322842D01*
X161428570Y-68322842D02*
X161342856Y-68365700D01*
X162414285Y-68108557D02*
X162499999Y-68108557D01*
X162499999Y-68108557D02*
X162585713Y-68151414D01*
X162585713Y-68151414D02*
X162628571Y-68194271D01*
X162628571Y-68194271D02*
X162671428Y-68279985D01*
X162671428Y-68279985D02*
X162714285Y-68451414D01*
X162714285Y-68451414D02*
X162714285Y-68665700D01*
X162714285Y-68665700D02*
X162671428Y-68837128D01*
X162671428Y-68837128D02*
X162628571Y-68922842D01*
X162628571Y-68922842D02*
X162585713Y-68965700D01*
X162585713Y-68965700D02*
X162499999Y-69008557D01*
X162499999Y-69008557D02*
X162414285Y-69008557D01*
X162414285Y-69008557D02*
X162328571Y-68965700D01*
X162328571Y-68965700D02*
X162285713Y-68922842D01*
X162285713Y-68922842D02*
X162242856Y-68837128D01*
X162242856Y-68837128D02*
X162199999Y-68665700D01*
X162199999Y-68665700D02*
X162199999Y-68451414D01*
X162199999Y-68451414D02*
X162242856Y-68279985D01*
X162242856Y-68279985D02*
X162285713Y-68194271D01*
X162285713Y-68194271D02*
X162328571Y-68151414D01*
X162328571Y-68151414D02*
X162414285Y-68108557D01*
X163271428Y-68108557D02*
X163357142Y-68108557D01*
X163357142Y-68108557D02*
X163442856Y-68151414D01*
X163442856Y-68151414D02*
X163485714Y-68194271D01*
X163485714Y-68194271D02*
X163528571Y-68279985D01*
X163528571Y-68279985D02*
X163571428Y-68451414D01*
X163571428Y-68451414D02*
X163571428Y-68665700D01*
X163571428Y-68665700D02*
X163528571Y-68837128D01*
X163528571Y-68837128D02*
X163485714Y-68922842D01*
X163485714Y-68922842D02*
X163442856Y-68965700D01*
X163442856Y-68965700D02*
X163357142Y-69008557D01*
X163357142Y-69008557D02*
X163271428Y-69008557D01*
X163271428Y-69008557D02*
X163185714Y-68965700D01*
X163185714Y-68965700D02*
X163142856Y-68922842D01*
X163142856Y-68922842D02*
X163099999Y-68837128D01*
X163099999Y-68837128D02*
X163057142Y-68665700D01*
X163057142Y-68665700D02*
X163057142Y-68451414D01*
X163057142Y-68451414D02*
X163099999Y-68279985D01*
X163099999Y-68279985D02*
X163142856Y-68194271D01*
X163142856Y-68194271D02*
X163185714Y-68151414D01*
X163185714Y-68151414D02*
X163271428Y-68108557D01*
X164342857Y-68408557D02*
X164342857Y-69008557D01*
X163957142Y-68408557D02*
X163957142Y-68879985D01*
X163957142Y-68879985D02*
X163999999Y-68965700D01*
X163999999Y-68965700D02*
X164085714Y-69008557D01*
X164085714Y-69008557D02*
X164214285Y-69008557D01*
X164214285Y-69008557D02*
X164299999Y-68965700D01*
X164299999Y-68965700D02*
X164342857Y-68922842D01*
X165071428Y-68537128D02*
X164771428Y-68537128D01*
X164771428Y-69008557D02*
X164771428Y-68108557D01*
X164771428Y-68108557D02*
X165200000Y-68108557D01*
X135551414Y-56485713D02*
X135508557Y-56571428D01*
X135508557Y-56571428D02*
X135508557Y-56699999D01*
X135508557Y-56699999D02*
X135551414Y-56828570D01*
X135551414Y-56828570D02*
X135637128Y-56914285D01*
X135637128Y-56914285D02*
X135722842Y-56957142D01*
X135722842Y-56957142D02*
X135894271Y-56999999D01*
X135894271Y-56999999D02*
X136022842Y-56999999D01*
X136022842Y-56999999D02*
X136194271Y-56957142D01*
X136194271Y-56957142D02*
X136279985Y-56914285D01*
X136279985Y-56914285D02*
X136365700Y-56828570D01*
X136365700Y-56828570D02*
X136408557Y-56699999D01*
X136408557Y-56699999D02*
X136408557Y-56614285D01*
X136408557Y-56614285D02*
X136365700Y-56485713D01*
X136365700Y-56485713D02*
X136322842Y-56442856D01*
X136322842Y-56442856D02*
X136022842Y-56442856D01*
X136022842Y-56442856D02*
X136022842Y-56614285D01*
X136408557Y-56057142D02*
X135508557Y-56057142D01*
X135508557Y-56057142D02*
X136408557Y-55542856D01*
X136408557Y-55542856D02*
X135508557Y-55542856D01*
X136408557Y-55114285D02*
X135508557Y-55114285D01*
X135508557Y-55114285D02*
X135508557Y-54899999D01*
X135508557Y-54899999D02*
X135551414Y-54771428D01*
X135551414Y-54771428D02*
X135637128Y-54685713D01*
X135637128Y-54685713D02*
X135722842Y-54642856D01*
X135722842Y-54642856D02*
X135894271Y-54599999D01*
X135894271Y-54599999D02*
X136022842Y-54599999D01*
X136022842Y-54599999D02*
X136194271Y-54642856D01*
X136194271Y-54642856D02*
X136279985Y-54685713D01*
X136279985Y-54685713D02*
X136365700Y-54771428D01*
X136365700Y-54771428D02*
X136408557Y-54899999D01*
X136408557Y-54899999D02*
X136408557Y-55114285D01*
X138605700Y-56957143D02*
X138605700Y-56271429D01*
X138948557Y-56614286D02*
X138262842Y-56614286D01*
X138048557Y-55414285D02*
X138048557Y-55842857D01*
X138048557Y-55842857D02*
X138477128Y-55885714D01*
X138477128Y-55885714D02*
X138434271Y-55842857D01*
X138434271Y-55842857D02*
X138391414Y-55757143D01*
X138391414Y-55757143D02*
X138391414Y-55542857D01*
X138391414Y-55542857D02*
X138434271Y-55457143D01*
X138434271Y-55457143D02*
X138477128Y-55414285D01*
X138477128Y-55414285D02*
X138562842Y-55371428D01*
X138562842Y-55371428D02*
X138777128Y-55371428D01*
X138777128Y-55371428D02*
X138862842Y-55414285D01*
X138862842Y-55414285D02*
X138905700Y-55457143D01*
X138905700Y-55457143D02*
X138948557Y-55542857D01*
X138948557Y-55542857D02*
X138948557Y-55757143D01*
X138948557Y-55757143D02*
X138905700Y-55842857D01*
X138905700Y-55842857D02*
X138862842Y-55885714D01*
X138048557Y-55114285D02*
X138948557Y-54814285D01*
X138948557Y-54814285D02*
X138048557Y-54514285D01*
X140631414Y-56485713D02*
X140588557Y-56571428D01*
X140588557Y-56571428D02*
X140588557Y-56699999D01*
X140588557Y-56699999D02*
X140631414Y-56828570D01*
X140631414Y-56828570D02*
X140717128Y-56914285D01*
X140717128Y-56914285D02*
X140802842Y-56957142D01*
X140802842Y-56957142D02*
X140974271Y-56999999D01*
X140974271Y-56999999D02*
X141102842Y-56999999D01*
X141102842Y-56999999D02*
X141274271Y-56957142D01*
X141274271Y-56957142D02*
X141359985Y-56914285D01*
X141359985Y-56914285D02*
X141445700Y-56828570D01*
X141445700Y-56828570D02*
X141488557Y-56699999D01*
X141488557Y-56699999D02*
X141488557Y-56614285D01*
X141488557Y-56614285D02*
X141445700Y-56485713D01*
X141445700Y-56485713D02*
X141402842Y-56442856D01*
X141402842Y-56442856D02*
X141102842Y-56442856D01*
X141102842Y-56442856D02*
X141102842Y-56614285D01*
X141488557Y-56057142D02*
X140588557Y-56057142D01*
X140588557Y-56057142D02*
X141488557Y-55542856D01*
X141488557Y-55542856D02*
X140588557Y-55542856D01*
X141488557Y-55114285D02*
X140588557Y-55114285D01*
X140588557Y-55114285D02*
X140588557Y-54899999D01*
X140588557Y-54899999D02*
X140631414Y-54771428D01*
X140631414Y-54771428D02*
X140717128Y-54685713D01*
X140717128Y-54685713D02*
X140802842Y-54642856D01*
X140802842Y-54642856D02*
X140974271Y-54599999D01*
X140974271Y-54599999D02*
X141102842Y-54599999D01*
X141102842Y-54599999D02*
X141274271Y-54642856D01*
X141274271Y-54642856D02*
X141359985Y-54685713D01*
X141359985Y-54685713D02*
X141445700Y-54771428D01*
X141445700Y-54771428D02*
X141488557Y-54899999D01*
X141488557Y-54899999D02*
X141488557Y-55114285D01*
X143128557Y-56785713D02*
X144028557Y-56485713D01*
X144028557Y-56485713D02*
X143128557Y-56185713D01*
X144028557Y-55885713D02*
X143128557Y-55885713D01*
X144028557Y-55457142D02*
X143128557Y-55457142D01*
X143128557Y-55457142D02*
X144028557Y-54942856D01*
X144028557Y-54942856D02*
X143128557Y-54942856D01*
X165551414Y-28485713D02*
X165508557Y-28571428D01*
X165508557Y-28571428D02*
X165508557Y-28699999D01*
X165508557Y-28699999D02*
X165551414Y-28828570D01*
X165551414Y-28828570D02*
X165637128Y-28914285D01*
X165637128Y-28914285D02*
X165722842Y-28957142D01*
X165722842Y-28957142D02*
X165894271Y-28999999D01*
X165894271Y-28999999D02*
X166022842Y-28999999D01*
X166022842Y-28999999D02*
X166194271Y-28957142D01*
X166194271Y-28957142D02*
X166279985Y-28914285D01*
X166279985Y-28914285D02*
X166365700Y-28828570D01*
X166365700Y-28828570D02*
X166408557Y-28699999D01*
X166408557Y-28699999D02*
X166408557Y-28614285D01*
X166408557Y-28614285D02*
X166365700Y-28485713D01*
X166365700Y-28485713D02*
X166322842Y-28442856D01*
X166322842Y-28442856D02*
X166022842Y-28442856D01*
X166022842Y-28442856D02*
X166022842Y-28614285D01*
X166408557Y-28057142D02*
X165508557Y-28057142D01*
X165508557Y-28057142D02*
X166408557Y-27542856D01*
X166408557Y-27542856D02*
X165508557Y-27542856D01*
X166408557Y-27114285D02*
X165508557Y-27114285D01*
X165508557Y-27114285D02*
X165508557Y-26899999D01*
X165508557Y-26899999D02*
X165551414Y-26771428D01*
X165551414Y-26771428D02*
X165637128Y-26685713D01*
X165637128Y-26685713D02*
X165722842Y-26642856D01*
X165722842Y-26642856D02*
X165894271Y-26599999D01*
X165894271Y-26599999D02*
X166022842Y-26599999D01*
X166022842Y-26599999D02*
X166194271Y-26642856D01*
X166194271Y-26642856D02*
X166279985Y-26685713D01*
X166279985Y-26685713D02*
X166365700Y-26771428D01*
X166365700Y-26771428D02*
X166408557Y-26899999D01*
X166408557Y-26899999D02*
X166408557Y-27114285D01*
X168048557Y-28999999D02*
X168948557Y-28699999D01*
X168948557Y-28699999D02*
X168048557Y-28399999D01*
X168862842Y-27585713D02*
X168905700Y-27628570D01*
X168905700Y-27628570D02*
X168948557Y-27757142D01*
X168948557Y-27757142D02*
X168948557Y-27842856D01*
X168948557Y-27842856D02*
X168905700Y-27971427D01*
X168905700Y-27971427D02*
X168819985Y-28057142D01*
X168819985Y-28057142D02*
X168734271Y-28099999D01*
X168734271Y-28099999D02*
X168562842Y-28142856D01*
X168562842Y-28142856D02*
X168434271Y-28142856D01*
X168434271Y-28142856D02*
X168262842Y-28099999D01*
X168262842Y-28099999D02*
X168177128Y-28057142D01*
X168177128Y-28057142D02*
X168091414Y-27971427D01*
X168091414Y-27971427D02*
X168048557Y-27842856D01*
X168048557Y-27842856D02*
X168048557Y-27757142D01*
X168048557Y-27757142D02*
X168091414Y-27628570D01*
X168091414Y-27628570D02*
X168134271Y-27585713D01*
X168862842Y-26685713D02*
X168905700Y-26728570D01*
X168905700Y-26728570D02*
X168948557Y-26857142D01*
X168948557Y-26857142D02*
X168948557Y-26942856D01*
X168948557Y-26942856D02*
X168905700Y-27071427D01*
X168905700Y-27071427D02*
X168819985Y-27157142D01*
X168819985Y-27157142D02*
X168734271Y-27199999D01*
X168734271Y-27199999D02*
X168562842Y-27242856D01*
X168562842Y-27242856D02*
X168434271Y-27242856D01*
X168434271Y-27242856D02*
X168262842Y-27199999D01*
X168262842Y-27199999D02*
X168177128Y-27157142D01*
X168177128Y-27157142D02*
X168091414Y-27071427D01*
X168091414Y-27071427D02*
X168048557Y-26942856D01*
X168048557Y-26942856D02*
X168048557Y-26857142D01*
X168048557Y-26857142D02*
X168091414Y-26728570D01*
X168091414Y-26728570D02*
X168134271Y-26685713D01*
X171445700Y-28871428D02*
X171488557Y-28742857D01*
X171488557Y-28742857D02*
X171488557Y-28528571D01*
X171488557Y-28528571D02*
X171445700Y-28442857D01*
X171445700Y-28442857D02*
X171402842Y-28399999D01*
X171402842Y-28399999D02*
X171317128Y-28357142D01*
X171317128Y-28357142D02*
X171231414Y-28357142D01*
X171231414Y-28357142D02*
X171145700Y-28399999D01*
X171145700Y-28399999D02*
X171102842Y-28442857D01*
X171102842Y-28442857D02*
X171059985Y-28528571D01*
X171059985Y-28528571D02*
X171017128Y-28699999D01*
X171017128Y-28699999D02*
X170974271Y-28785714D01*
X170974271Y-28785714D02*
X170931414Y-28828571D01*
X170931414Y-28828571D02*
X170845700Y-28871428D01*
X170845700Y-28871428D02*
X170759985Y-28871428D01*
X170759985Y-28871428D02*
X170674271Y-28828571D01*
X170674271Y-28828571D02*
X170631414Y-28785714D01*
X170631414Y-28785714D02*
X170588557Y-28699999D01*
X170588557Y-28699999D02*
X170588557Y-28485714D01*
X170588557Y-28485714D02*
X170631414Y-28357142D01*
X171402842Y-27457142D02*
X171445700Y-27499999D01*
X171445700Y-27499999D02*
X171488557Y-27628571D01*
X171488557Y-27628571D02*
X171488557Y-27714285D01*
X171488557Y-27714285D02*
X171445700Y-27842856D01*
X171445700Y-27842856D02*
X171359985Y-27928571D01*
X171359985Y-27928571D02*
X171274271Y-27971428D01*
X171274271Y-27971428D02*
X171102842Y-28014285D01*
X171102842Y-28014285D02*
X170974271Y-28014285D01*
X170974271Y-28014285D02*
X170802842Y-27971428D01*
X170802842Y-27971428D02*
X170717128Y-27928571D01*
X170717128Y-27928571D02*
X170631414Y-27842856D01*
X170631414Y-27842856D02*
X170588557Y-27714285D01*
X170588557Y-27714285D02*
X170588557Y-27628571D01*
X170588557Y-27628571D02*
X170631414Y-27499999D01*
X170631414Y-27499999D02*
X170674271Y-27457142D01*
X171488557Y-26642856D02*
X171488557Y-27071428D01*
X171488557Y-27071428D02*
X170588557Y-27071428D01*
X173985700Y-28892857D02*
X174028557Y-28764286D01*
X174028557Y-28764286D02*
X174028557Y-28550000D01*
X174028557Y-28550000D02*
X173985700Y-28464286D01*
X173985700Y-28464286D02*
X173942842Y-28421428D01*
X173942842Y-28421428D02*
X173857128Y-28378571D01*
X173857128Y-28378571D02*
X173771414Y-28378571D01*
X173771414Y-28378571D02*
X173685700Y-28421428D01*
X173685700Y-28421428D02*
X173642842Y-28464286D01*
X173642842Y-28464286D02*
X173599985Y-28550000D01*
X173599985Y-28550000D02*
X173557128Y-28721428D01*
X173557128Y-28721428D02*
X173514271Y-28807143D01*
X173514271Y-28807143D02*
X173471414Y-28850000D01*
X173471414Y-28850000D02*
X173385700Y-28892857D01*
X173385700Y-28892857D02*
X173299985Y-28892857D01*
X173299985Y-28892857D02*
X173214271Y-28850000D01*
X173214271Y-28850000D02*
X173171414Y-28807143D01*
X173171414Y-28807143D02*
X173128557Y-28721428D01*
X173128557Y-28721428D02*
X173128557Y-28507143D01*
X173128557Y-28507143D02*
X173171414Y-28378571D01*
X174028557Y-27992857D02*
X173128557Y-27992857D01*
X173128557Y-27992857D02*
X173128557Y-27778571D01*
X173128557Y-27778571D02*
X173171414Y-27650000D01*
X173171414Y-27650000D02*
X173257128Y-27564285D01*
X173257128Y-27564285D02*
X173342842Y-27521428D01*
X173342842Y-27521428D02*
X173514271Y-27478571D01*
X173514271Y-27478571D02*
X173642842Y-27478571D01*
X173642842Y-27478571D02*
X173814271Y-27521428D01*
X173814271Y-27521428D02*
X173899985Y-27564285D01*
X173899985Y-27564285D02*
X173985700Y-27650000D01*
X173985700Y-27650000D02*
X174028557Y-27778571D01*
X174028557Y-27778571D02*
X174028557Y-27992857D01*
X173771414Y-27135714D02*
X173771414Y-26707143D01*
X174028557Y-27221428D02*
X173128557Y-26921428D01*
X173128557Y-26921428D02*
X174028557Y-26621428D01*
X40811904Y-47093604D02*
X40811904Y-45793604D01*
X40811904Y-45793604D02*
X41245238Y-46722176D01*
X41245238Y-46722176D02*
X41678571Y-45793604D01*
X41678571Y-45793604D02*
X41678571Y-47093604D01*
X42297618Y-47093604D02*
X42297618Y-45793604D01*
X42916666Y-47093604D02*
X42916666Y-45793604D01*
X42916666Y-45793604D02*
X43226190Y-45793604D01*
X43226190Y-45793604D02*
X43411904Y-45855509D01*
X43411904Y-45855509D02*
X43535714Y-45979319D01*
X43535714Y-45979319D02*
X43597619Y-46103128D01*
X43597619Y-46103128D02*
X43659523Y-46350747D01*
X43659523Y-46350747D02*
X43659523Y-46536461D01*
X43659523Y-46536461D02*
X43597619Y-46784080D01*
X43597619Y-46784080D02*
X43535714Y-46907890D01*
X43535714Y-46907890D02*
X43411904Y-47031700D01*
X43411904Y-47031700D02*
X43226190Y-47093604D01*
X43226190Y-47093604D02*
X42916666Y-47093604D01*
X44216666Y-47093604D02*
X44216666Y-45793604D01*
X45826190Y-47093604D02*
X45826190Y-45793604D01*
X46445238Y-47093604D02*
X46445238Y-45793604D01*
X46445238Y-45793604D02*
X47188095Y-47093604D01*
X47188095Y-47093604D02*
X47188095Y-45793604D01*
X67945237Y-47093604D02*
X67945237Y-45793604D01*
X67945237Y-45793604D02*
X68378571Y-46722176D01*
X68378571Y-46722176D02*
X68811904Y-45793604D01*
X68811904Y-45793604D02*
X68811904Y-47093604D01*
X69430951Y-47093604D02*
X69430951Y-45793604D01*
X70049999Y-47093604D02*
X70049999Y-45793604D01*
X70049999Y-45793604D02*
X70359523Y-45793604D01*
X70359523Y-45793604D02*
X70545237Y-45855509D01*
X70545237Y-45855509D02*
X70669047Y-45979319D01*
X70669047Y-45979319D02*
X70730952Y-46103128D01*
X70730952Y-46103128D02*
X70792856Y-46350747D01*
X70792856Y-46350747D02*
X70792856Y-46536461D01*
X70792856Y-46536461D02*
X70730952Y-46784080D01*
X70730952Y-46784080D02*
X70669047Y-46907890D01*
X70669047Y-46907890D02*
X70545237Y-47031700D01*
X70545237Y-47031700D02*
X70359523Y-47093604D01*
X70359523Y-47093604D02*
X70049999Y-47093604D01*
X71349999Y-47093604D02*
X71349999Y-45793604D01*
X73207142Y-45793604D02*
X73454761Y-45793604D01*
X73454761Y-45793604D02*
X73578571Y-45855509D01*
X73578571Y-45855509D02*
X73702380Y-45979319D01*
X73702380Y-45979319D02*
X73764285Y-46226938D01*
X73764285Y-46226938D02*
X73764285Y-46660271D01*
X73764285Y-46660271D02*
X73702380Y-46907890D01*
X73702380Y-46907890D02*
X73578571Y-47031700D01*
X73578571Y-47031700D02*
X73454761Y-47093604D01*
X73454761Y-47093604D02*
X73207142Y-47093604D01*
X73207142Y-47093604D02*
X73083333Y-47031700D01*
X73083333Y-47031700D02*
X72959523Y-46907890D01*
X72959523Y-46907890D02*
X72897619Y-46660271D01*
X72897619Y-46660271D02*
X72897619Y-46226938D01*
X72897619Y-46226938D02*
X72959523Y-45979319D01*
X72959523Y-45979319D02*
X73083333Y-45855509D01*
X73083333Y-45855509D02*
X73207142Y-45793604D01*
X74321428Y-45793604D02*
X74321428Y-46845985D01*
X74321428Y-46845985D02*
X74383333Y-46969795D01*
X74383333Y-46969795D02*
X74445238Y-47031700D01*
X74445238Y-47031700D02*
X74569047Y-47093604D01*
X74569047Y-47093604D02*
X74816666Y-47093604D01*
X74816666Y-47093604D02*
X74940476Y-47031700D01*
X74940476Y-47031700D02*
X75002381Y-46969795D01*
X75002381Y-46969795D02*
X75064285Y-46845985D01*
X75064285Y-46845985D02*
X75064285Y-45793604D01*
X75497619Y-45793604D02*
X76240476Y-45793604D01*
X75869048Y-47093604D02*
X75869048Y-45793604D01*
X159666667Y-61906533D02*
X160733334Y-61906533D01*
X160200000Y-62439866D02*
X160200000Y-61373200D01*
X161437142Y-96084819D02*
X161103809Y-95608628D01*
X160865714Y-96084819D02*
X160865714Y-95084819D01*
X160865714Y-95084819D02*
X161246666Y-95084819D01*
X161246666Y-95084819D02*
X161341904Y-95132438D01*
X161341904Y-95132438D02*
X161389523Y-95180057D01*
X161389523Y-95180057D02*
X161437142Y-95275295D01*
X161437142Y-95275295D02*
X161437142Y-95418152D01*
X161437142Y-95418152D02*
X161389523Y-95513390D01*
X161389523Y-95513390D02*
X161341904Y-95561009D01*
X161341904Y-95561009D02*
X161246666Y-95608628D01*
X161246666Y-95608628D02*
X160865714Y-95608628D01*
X162389523Y-96084819D02*
X161818095Y-96084819D01*
X162103809Y-96084819D02*
X162103809Y-95084819D01*
X162103809Y-95084819D02*
X162008571Y-95227676D01*
X162008571Y-95227676D02*
X161913333Y-95322914D01*
X161913333Y-95322914D02*
X161818095Y-95370533D01*
X162722857Y-95084819D02*
X163389523Y-95084819D01*
X163389523Y-95084819D02*
X162960952Y-96084819D01*
X96913333Y-58084819D02*
X96580000Y-57608628D01*
X96341905Y-58084819D02*
X96341905Y-57084819D01*
X96341905Y-57084819D02*
X96722857Y-57084819D01*
X96722857Y-57084819D02*
X96818095Y-57132438D01*
X96818095Y-57132438D02*
X96865714Y-57180057D01*
X96865714Y-57180057D02*
X96913333Y-57275295D01*
X96913333Y-57275295D02*
X96913333Y-57418152D01*
X96913333Y-57418152D02*
X96865714Y-57513390D01*
X96865714Y-57513390D02*
X96818095Y-57561009D01*
X96818095Y-57561009D02*
X96722857Y-57608628D01*
X96722857Y-57608628D02*
X96341905Y-57608628D01*
X97294286Y-57180057D02*
X97341905Y-57132438D01*
X97341905Y-57132438D02*
X97437143Y-57084819D01*
X97437143Y-57084819D02*
X97675238Y-57084819D01*
X97675238Y-57084819D02*
X97770476Y-57132438D01*
X97770476Y-57132438D02*
X97818095Y-57180057D01*
X97818095Y-57180057D02*
X97865714Y-57275295D01*
X97865714Y-57275295D02*
X97865714Y-57370533D01*
X97865714Y-57370533D02*
X97818095Y-57513390D01*
X97818095Y-57513390D02*
X97246667Y-58084819D01*
X97246667Y-58084819D02*
X97865714Y-58084819D01*
X140254761Y-74404819D02*
X139921428Y-73928628D01*
X139683333Y-74404819D02*
X139683333Y-73404819D01*
X139683333Y-73404819D02*
X140064285Y-73404819D01*
X140064285Y-73404819D02*
X140159523Y-73452438D01*
X140159523Y-73452438D02*
X140207142Y-73500057D01*
X140207142Y-73500057D02*
X140254761Y-73595295D01*
X140254761Y-73595295D02*
X140254761Y-73738152D01*
X140254761Y-73738152D02*
X140207142Y-73833390D01*
X140207142Y-73833390D02*
X140159523Y-73881009D01*
X140159523Y-73881009D02*
X140064285Y-73928628D01*
X140064285Y-73928628D02*
X139683333Y-73928628D01*
X140540476Y-73404819D02*
X140873809Y-74404819D01*
X140873809Y-74404819D02*
X141207142Y-73404819D01*
X141969047Y-73738152D02*
X141969047Y-74404819D01*
X141730952Y-73357200D02*
X141492857Y-74071485D01*
X141492857Y-74071485D02*
X142111904Y-74071485D01*
X126857142Y-148859580D02*
X126809523Y-148907200D01*
X126809523Y-148907200D02*
X126666666Y-148954819D01*
X126666666Y-148954819D02*
X126571428Y-148954819D01*
X126571428Y-148954819D02*
X126428571Y-148907200D01*
X126428571Y-148907200D02*
X126333333Y-148811961D01*
X126333333Y-148811961D02*
X126285714Y-148716723D01*
X126285714Y-148716723D02*
X126238095Y-148526247D01*
X126238095Y-148526247D02*
X126238095Y-148383390D01*
X126238095Y-148383390D02*
X126285714Y-148192914D01*
X126285714Y-148192914D02*
X126333333Y-148097676D01*
X126333333Y-148097676D02*
X126428571Y-148002438D01*
X126428571Y-148002438D02*
X126571428Y-147954819D01*
X126571428Y-147954819D02*
X126666666Y-147954819D01*
X126666666Y-147954819D02*
X126809523Y-148002438D01*
X126809523Y-148002438D02*
X126857142Y-148050057D01*
X127809523Y-148954819D02*
X127238095Y-148954819D01*
X127523809Y-148954819D02*
X127523809Y-147954819D01*
X127523809Y-147954819D02*
X127428571Y-148097676D01*
X127428571Y-148097676D02*
X127333333Y-148192914D01*
X127333333Y-148192914D02*
X127238095Y-148240533D01*
X128666666Y-147954819D02*
X128476190Y-147954819D01*
X128476190Y-147954819D02*
X128380952Y-148002438D01*
X128380952Y-148002438D02*
X128333333Y-148050057D01*
X128333333Y-148050057D02*
X128238095Y-148192914D01*
X128238095Y-148192914D02*
X128190476Y-148383390D01*
X128190476Y-148383390D02*
X128190476Y-148764342D01*
X128190476Y-148764342D02*
X128238095Y-148859580D01*
X128238095Y-148859580D02*
X128285714Y-148907200D01*
X128285714Y-148907200D02*
X128380952Y-148954819D01*
X128380952Y-148954819D02*
X128571428Y-148954819D01*
X128571428Y-148954819D02*
X128666666Y-148907200D01*
X128666666Y-148907200D02*
X128714285Y-148859580D01*
X128714285Y-148859580D02*
X128761904Y-148764342D01*
X128761904Y-148764342D02*
X128761904Y-148526247D01*
X128761904Y-148526247D02*
X128714285Y-148431009D01*
X128714285Y-148431009D02*
X128666666Y-148383390D01*
X128666666Y-148383390D02*
X128571428Y-148335771D01*
X128571428Y-148335771D02*
X128380952Y-148335771D01*
X128380952Y-148335771D02*
X128285714Y-148383390D01*
X128285714Y-148383390D02*
X128238095Y-148431009D01*
X128238095Y-148431009D02*
X128190476Y-148526247D01*
X129437142Y-72084819D02*
X129103809Y-71608628D01*
X128865714Y-72084819D02*
X128865714Y-71084819D01*
X128865714Y-71084819D02*
X129246666Y-71084819D01*
X129246666Y-71084819D02*
X129341904Y-71132438D01*
X129341904Y-71132438D02*
X129389523Y-71180057D01*
X129389523Y-71180057D02*
X129437142Y-71275295D01*
X129437142Y-71275295D02*
X129437142Y-71418152D01*
X129437142Y-71418152D02*
X129389523Y-71513390D01*
X129389523Y-71513390D02*
X129341904Y-71561009D01*
X129341904Y-71561009D02*
X129246666Y-71608628D01*
X129246666Y-71608628D02*
X128865714Y-71608628D01*
X130389523Y-72084819D02*
X129818095Y-72084819D01*
X130103809Y-72084819D02*
X130103809Y-71084819D01*
X130103809Y-71084819D02*
X130008571Y-71227676D01*
X130008571Y-71227676D02*
X129913333Y-71322914D01*
X129913333Y-71322914D02*
X129818095Y-71370533D01*
X130770476Y-71180057D02*
X130818095Y-71132438D01*
X130818095Y-71132438D02*
X130913333Y-71084819D01*
X130913333Y-71084819D02*
X131151428Y-71084819D01*
X131151428Y-71084819D02*
X131246666Y-71132438D01*
X131246666Y-71132438D02*
X131294285Y-71180057D01*
X131294285Y-71180057D02*
X131341904Y-71275295D01*
X131341904Y-71275295D02*
X131341904Y-71370533D01*
X131341904Y-71370533D02*
X131294285Y-71513390D01*
X131294285Y-71513390D02*
X130722857Y-72084819D01*
X130722857Y-72084819D02*
X131341904Y-72084819D01*
X37071905Y-57334819D02*
X37071905Y-56334819D01*
X37071905Y-56334819D02*
X37310000Y-56334819D01*
X37310000Y-56334819D02*
X37452857Y-56382438D01*
X37452857Y-56382438D02*
X37548095Y-56477676D01*
X37548095Y-56477676D02*
X37595714Y-56572914D01*
X37595714Y-56572914D02*
X37643333Y-56763390D01*
X37643333Y-56763390D02*
X37643333Y-56906247D01*
X37643333Y-56906247D02*
X37595714Y-57096723D01*
X37595714Y-57096723D02*
X37548095Y-57191961D01*
X37548095Y-57191961D02*
X37452857Y-57287200D01*
X37452857Y-57287200D02*
X37310000Y-57334819D01*
X37310000Y-57334819D02*
X37071905Y-57334819D01*
X38595714Y-57334819D02*
X38024286Y-57334819D01*
X38310000Y-57334819D02*
X38310000Y-56334819D01*
X38310000Y-56334819D02*
X38214762Y-56477676D01*
X38214762Y-56477676D02*
X38119524Y-56572914D01*
X38119524Y-56572914D02*
X38024286Y-56620533D01*
X33738095Y-57654819D02*
X33738095Y-56654819D01*
X34309523Y-57654819D02*
X33880952Y-57083390D01*
X34309523Y-56654819D02*
X33738095Y-57226247D01*
X82333333Y-59859580D02*
X82285714Y-59907200D01*
X82285714Y-59907200D02*
X82142857Y-59954819D01*
X82142857Y-59954819D02*
X82047619Y-59954819D01*
X82047619Y-59954819D02*
X81904762Y-59907200D01*
X81904762Y-59907200D02*
X81809524Y-59811961D01*
X81809524Y-59811961D02*
X81761905Y-59716723D01*
X81761905Y-59716723D02*
X81714286Y-59526247D01*
X81714286Y-59526247D02*
X81714286Y-59383390D01*
X81714286Y-59383390D02*
X81761905Y-59192914D01*
X81761905Y-59192914D02*
X81809524Y-59097676D01*
X81809524Y-59097676D02*
X81904762Y-59002438D01*
X81904762Y-59002438D02*
X82047619Y-58954819D01*
X82047619Y-58954819D02*
X82142857Y-58954819D01*
X82142857Y-58954819D02*
X82285714Y-59002438D01*
X82285714Y-59002438D02*
X82333333Y-59050057D01*
X83285714Y-59954819D02*
X82714286Y-59954819D01*
X83000000Y-59954819D02*
X83000000Y-58954819D01*
X83000000Y-58954819D02*
X82904762Y-59097676D01*
X82904762Y-59097676D02*
X82809524Y-59192914D01*
X82809524Y-59192914D02*
X82714286Y-59240533D01*
X65437142Y-120084819D02*
X65103809Y-119608628D01*
X64865714Y-120084819D02*
X64865714Y-119084819D01*
X64865714Y-119084819D02*
X65246666Y-119084819D01*
X65246666Y-119084819D02*
X65341904Y-119132438D01*
X65341904Y-119132438D02*
X65389523Y-119180057D01*
X65389523Y-119180057D02*
X65437142Y-119275295D01*
X65437142Y-119275295D02*
X65437142Y-119418152D01*
X65437142Y-119418152D02*
X65389523Y-119513390D01*
X65389523Y-119513390D02*
X65341904Y-119561009D01*
X65341904Y-119561009D02*
X65246666Y-119608628D01*
X65246666Y-119608628D02*
X64865714Y-119608628D01*
X66389523Y-120084819D02*
X65818095Y-120084819D01*
X66103809Y-120084819D02*
X66103809Y-119084819D01*
X66103809Y-119084819D02*
X66008571Y-119227676D01*
X66008571Y-119227676D02*
X65913333Y-119322914D01*
X65913333Y-119322914D02*
X65818095Y-119370533D01*
X66960952Y-119513390D02*
X66865714Y-119465771D01*
X66865714Y-119465771D02*
X66818095Y-119418152D01*
X66818095Y-119418152D02*
X66770476Y-119322914D01*
X66770476Y-119322914D02*
X66770476Y-119275295D01*
X66770476Y-119275295D02*
X66818095Y-119180057D01*
X66818095Y-119180057D02*
X66865714Y-119132438D01*
X66865714Y-119132438D02*
X66960952Y-119084819D01*
X66960952Y-119084819D02*
X67151428Y-119084819D01*
X67151428Y-119084819D02*
X67246666Y-119132438D01*
X67246666Y-119132438D02*
X67294285Y-119180057D01*
X67294285Y-119180057D02*
X67341904Y-119275295D01*
X67341904Y-119275295D02*
X67341904Y-119322914D01*
X67341904Y-119322914D02*
X67294285Y-119418152D01*
X67294285Y-119418152D02*
X67246666Y-119465771D01*
X67246666Y-119465771D02*
X67151428Y-119513390D01*
X67151428Y-119513390D02*
X66960952Y-119513390D01*
X66960952Y-119513390D02*
X66865714Y-119561009D01*
X66865714Y-119561009D02*
X66818095Y-119608628D01*
X66818095Y-119608628D02*
X66770476Y-119703866D01*
X66770476Y-119703866D02*
X66770476Y-119894342D01*
X66770476Y-119894342D02*
X66818095Y-119989580D01*
X66818095Y-119989580D02*
X66865714Y-120037200D01*
X66865714Y-120037200D02*
X66960952Y-120084819D01*
X66960952Y-120084819D02*
X67151428Y-120084819D01*
X67151428Y-120084819D02*
X67246666Y-120037200D01*
X67246666Y-120037200D02*
X67294285Y-119989580D01*
X67294285Y-119989580D02*
X67341904Y-119894342D01*
X67341904Y-119894342D02*
X67341904Y-119703866D01*
X67341904Y-119703866D02*
X67294285Y-119608628D01*
X67294285Y-119608628D02*
X67246666Y-119561009D01*
X67246666Y-119561009D02*
X67151428Y-119513390D01*
X46908095Y-171834819D02*
X46908095Y-172644342D01*
X46908095Y-172644342D02*
X46955714Y-172739580D01*
X46955714Y-172739580D02*
X47003333Y-172787200D01*
X47003333Y-172787200D02*
X47098571Y-172834819D01*
X47098571Y-172834819D02*
X47289047Y-172834819D01*
X47289047Y-172834819D02*
X47384285Y-172787200D01*
X47384285Y-172787200D02*
X47431904Y-172739580D01*
X47431904Y-172739580D02*
X47479523Y-172644342D01*
X47479523Y-172644342D02*
X47479523Y-171834819D01*
X47908095Y-171930057D02*
X47955714Y-171882438D01*
X47955714Y-171882438D02*
X48050952Y-171834819D01*
X48050952Y-171834819D02*
X48289047Y-171834819D01*
X48289047Y-171834819D02*
X48384285Y-171882438D01*
X48384285Y-171882438D02*
X48431904Y-171930057D01*
X48431904Y-171930057D02*
X48479523Y-172025295D01*
X48479523Y-172025295D02*
X48479523Y-172120533D01*
X48479523Y-172120533D02*
X48431904Y-172263390D01*
X48431904Y-172263390D02*
X47860476Y-172834819D01*
X47860476Y-172834819D02*
X48479523Y-172834819D01*
X44254761Y-74404819D02*
X43921428Y-73928628D01*
X43683333Y-74404819D02*
X43683333Y-73404819D01*
X43683333Y-73404819D02*
X44064285Y-73404819D01*
X44064285Y-73404819D02*
X44159523Y-73452438D01*
X44159523Y-73452438D02*
X44207142Y-73500057D01*
X44207142Y-73500057D02*
X44254761Y-73595295D01*
X44254761Y-73595295D02*
X44254761Y-73738152D01*
X44254761Y-73738152D02*
X44207142Y-73833390D01*
X44207142Y-73833390D02*
X44159523Y-73881009D01*
X44159523Y-73881009D02*
X44064285Y-73928628D01*
X44064285Y-73928628D02*
X43683333Y-73928628D01*
X44540476Y-73404819D02*
X44873809Y-74404819D01*
X44873809Y-74404819D02*
X45207142Y-73404819D01*
X46064285Y-74404819D02*
X45492857Y-74404819D01*
X45778571Y-74404819D02*
X45778571Y-73404819D01*
X45778571Y-73404819D02*
X45683333Y-73547676D01*
X45683333Y-73547676D02*
X45588095Y-73642914D01*
X45588095Y-73642914D02*
X45492857Y-73690533D01*
X90896666Y-85454819D02*
X90896666Y-86169104D01*
X90896666Y-86169104D02*
X90849047Y-86311961D01*
X90849047Y-86311961D02*
X90753809Y-86407200D01*
X90753809Y-86407200D02*
X90610952Y-86454819D01*
X90610952Y-86454819D02*
X90515714Y-86454819D01*
X91372857Y-86454819D02*
X91372857Y-85454819D01*
X91372857Y-85454819D02*
X91706190Y-86169104D01*
X91706190Y-86169104D02*
X92039523Y-85454819D01*
X92039523Y-85454819D02*
X92039523Y-86454819D01*
X92468095Y-86169104D02*
X92944285Y-86169104D01*
X92372857Y-86454819D02*
X92706190Y-85454819D01*
X92706190Y-85454819D02*
X93039523Y-86454819D01*
X93277619Y-85454819D02*
X93896666Y-85454819D01*
X93896666Y-85454819D02*
X93563333Y-85835771D01*
X93563333Y-85835771D02*
X93706190Y-85835771D01*
X93706190Y-85835771D02*
X93801428Y-85883390D01*
X93801428Y-85883390D02*
X93849047Y-85931009D01*
X93849047Y-85931009D02*
X93896666Y-86026247D01*
X93896666Y-86026247D02*
X93896666Y-86264342D01*
X93896666Y-86264342D02*
X93849047Y-86359580D01*
X93849047Y-86359580D02*
X93801428Y-86407200D01*
X93801428Y-86407200D02*
X93706190Y-86454819D01*
X93706190Y-86454819D02*
X93420476Y-86454819D01*
X93420476Y-86454819D02*
X93325238Y-86407200D01*
X93325238Y-86407200D02*
X93277619Y-86359580D01*
X43666666Y-43454819D02*
X43666666Y-44169104D01*
X43666666Y-44169104D02*
X43619047Y-44311961D01*
X43619047Y-44311961D02*
X43523809Y-44407200D01*
X43523809Y-44407200D02*
X43380952Y-44454819D01*
X43380952Y-44454819D02*
X43285714Y-44454819D01*
X44666666Y-44454819D02*
X44095238Y-44454819D01*
X44380952Y-44454819D02*
X44380952Y-43454819D01*
X44380952Y-43454819D02*
X44285714Y-43597676D01*
X44285714Y-43597676D02*
X44190476Y-43692914D01*
X44190476Y-43692914D02*
X44095238Y-43740533D01*
X27916667Y-150407200D02*
X28059524Y-150454819D01*
X28059524Y-150454819D02*
X28297619Y-150454819D01*
X28297619Y-150454819D02*
X28392857Y-150407200D01*
X28392857Y-150407200D02*
X28440476Y-150359580D01*
X28440476Y-150359580D02*
X28488095Y-150264342D01*
X28488095Y-150264342D02*
X28488095Y-150169104D01*
X28488095Y-150169104D02*
X28440476Y-150073866D01*
X28440476Y-150073866D02*
X28392857Y-150026247D01*
X28392857Y-150026247D02*
X28297619Y-149978628D01*
X28297619Y-149978628D02*
X28107143Y-149931009D01*
X28107143Y-149931009D02*
X28011905Y-149883390D01*
X28011905Y-149883390D02*
X27964286Y-149835771D01*
X27964286Y-149835771D02*
X27916667Y-149740533D01*
X27916667Y-149740533D02*
X27916667Y-149645295D01*
X27916667Y-149645295D02*
X27964286Y-149550057D01*
X27964286Y-149550057D02*
X28011905Y-149502438D01*
X28011905Y-149502438D02*
X28107143Y-149454819D01*
X28107143Y-149454819D02*
X28345238Y-149454819D01*
X28345238Y-149454819D02*
X28488095Y-149502438D01*
X28821429Y-149454819D02*
X29059524Y-150454819D01*
X29059524Y-150454819D02*
X29250000Y-149740533D01*
X29250000Y-149740533D02*
X29440476Y-150454819D01*
X29440476Y-150454819D02*
X29678572Y-149454819D01*
X30535714Y-149454819D02*
X30059524Y-149454819D01*
X30059524Y-149454819D02*
X30011905Y-149931009D01*
X30011905Y-149931009D02*
X30059524Y-149883390D01*
X30059524Y-149883390D02*
X30154762Y-149835771D01*
X30154762Y-149835771D02*
X30392857Y-149835771D01*
X30392857Y-149835771D02*
X30488095Y-149883390D01*
X30488095Y-149883390D02*
X30535714Y-149931009D01*
X30535714Y-149931009D02*
X30583333Y-150026247D01*
X30583333Y-150026247D02*
X30583333Y-150264342D01*
X30583333Y-150264342D02*
X30535714Y-150359580D01*
X30535714Y-150359580D02*
X30488095Y-150407200D01*
X30488095Y-150407200D02*
X30392857Y-150454819D01*
X30392857Y-150454819D02*
X30154762Y-150454819D01*
X30154762Y-150454819D02*
X30059524Y-150407200D01*
X30059524Y-150407200D02*
X30011905Y-150359580D01*
X176301905Y-129184819D02*
X176301905Y-128184819D01*
X176301905Y-128184819D02*
X176540000Y-128184819D01*
X176540000Y-128184819D02*
X176682857Y-128232438D01*
X176682857Y-128232438D02*
X176778095Y-128327676D01*
X176778095Y-128327676D02*
X176825714Y-128422914D01*
X176825714Y-128422914D02*
X176873333Y-128613390D01*
X176873333Y-128613390D02*
X176873333Y-128756247D01*
X176873333Y-128756247D02*
X176825714Y-128946723D01*
X176825714Y-128946723D02*
X176778095Y-129041961D01*
X176778095Y-129041961D02*
X176682857Y-129137200D01*
X176682857Y-129137200D02*
X176540000Y-129184819D01*
X176540000Y-129184819D02*
X176301905Y-129184819D01*
X177778095Y-128184819D02*
X177301905Y-128184819D01*
X177301905Y-128184819D02*
X177254286Y-128661009D01*
X177254286Y-128661009D02*
X177301905Y-128613390D01*
X177301905Y-128613390D02*
X177397143Y-128565771D01*
X177397143Y-128565771D02*
X177635238Y-128565771D01*
X177635238Y-128565771D02*
X177730476Y-128613390D01*
X177730476Y-128613390D02*
X177778095Y-128661009D01*
X177778095Y-128661009D02*
X177825714Y-128756247D01*
X177825714Y-128756247D02*
X177825714Y-128994342D01*
X177825714Y-128994342D02*
X177778095Y-129089580D01*
X177778095Y-129089580D02*
X177730476Y-129137200D01*
X177730476Y-129137200D02*
X177635238Y-129184819D01*
X177635238Y-129184819D02*
X177397143Y-129184819D01*
X177397143Y-129184819D02*
X177301905Y-129137200D01*
X177301905Y-129137200D02*
X177254286Y-129089580D01*
X27916667Y-84407200D02*
X28059524Y-84454819D01*
X28059524Y-84454819D02*
X28297619Y-84454819D01*
X28297619Y-84454819D02*
X28392857Y-84407200D01*
X28392857Y-84407200D02*
X28440476Y-84359580D01*
X28440476Y-84359580D02*
X28488095Y-84264342D01*
X28488095Y-84264342D02*
X28488095Y-84169104D01*
X28488095Y-84169104D02*
X28440476Y-84073866D01*
X28440476Y-84073866D02*
X28392857Y-84026247D01*
X28392857Y-84026247D02*
X28297619Y-83978628D01*
X28297619Y-83978628D02*
X28107143Y-83931009D01*
X28107143Y-83931009D02*
X28011905Y-83883390D01*
X28011905Y-83883390D02*
X27964286Y-83835771D01*
X27964286Y-83835771D02*
X27916667Y-83740533D01*
X27916667Y-83740533D02*
X27916667Y-83645295D01*
X27916667Y-83645295D02*
X27964286Y-83550057D01*
X27964286Y-83550057D02*
X28011905Y-83502438D01*
X28011905Y-83502438D02*
X28107143Y-83454819D01*
X28107143Y-83454819D02*
X28345238Y-83454819D01*
X28345238Y-83454819D02*
X28488095Y-83502438D01*
X28821429Y-83454819D02*
X29059524Y-84454819D01*
X29059524Y-84454819D02*
X29250000Y-83740533D01*
X29250000Y-83740533D02*
X29440476Y-84454819D01*
X29440476Y-84454819D02*
X29678572Y-83454819D01*
X30011905Y-83550057D02*
X30059524Y-83502438D01*
X30059524Y-83502438D02*
X30154762Y-83454819D01*
X30154762Y-83454819D02*
X30392857Y-83454819D01*
X30392857Y-83454819D02*
X30488095Y-83502438D01*
X30488095Y-83502438D02*
X30535714Y-83550057D01*
X30535714Y-83550057D02*
X30583333Y-83645295D01*
X30583333Y-83645295D02*
X30583333Y-83740533D01*
X30583333Y-83740533D02*
X30535714Y-83883390D01*
X30535714Y-83883390D02*
X29964286Y-84454819D01*
X29964286Y-84454819D02*
X30583333Y-84454819D01*
X51048095Y-51124819D02*
X51048095Y-51934342D01*
X51048095Y-51934342D02*
X51095714Y-52029580D01*
X51095714Y-52029580D02*
X51143333Y-52077200D01*
X51143333Y-52077200D02*
X51238571Y-52124819D01*
X51238571Y-52124819D02*
X51429047Y-52124819D01*
X51429047Y-52124819D02*
X51524285Y-52077200D01*
X51524285Y-52077200D02*
X51571904Y-52029580D01*
X51571904Y-52029580D02*
X51619523Y-51934342D01*
X51619523Y-51934342D02*
X51619523Y-51124819D01*
X52619523Y-52124819D02*
X52048095Y-52124819D01*
X52333809Y-52124819D02*
X52333809Y-51124819D01*
X52333809Y-51124819D02*
X52238571Y-51267676D01*
X52238571Y-51267676D02*
X52143333Y-51362914D01*
X52143333Y-51362914D02*
X52048095Y-51410533D01*
X95333333Y-76859580D02*
X95285714Y-76907200D01*
X95285714Y-76907200D02*
X95142857Y-76954819D01*
X95142857Y-76954819D02*
X95047619Y-76954819D01*
X95047619Y-76954819D02*
X94904762Y-76907200D01*
X94904762Y-76907200D02*
X94809524Y-76811961D01*
X94809524Y-76811961D02*
X94761905Y-76716723D01*
X94761905Y-76716723D02*
X94714286Y-76526247D01*
X94714286Y-76526247D02*
X94714286Y-76383390D01*
X94714286Y-76383390D02*
X94761905Y-76192914D01*
X94761905Y-76192914D02*
X94809524Y-76097676D01*
X94809524Y-76097676D02*
X94904762Y-76002438D01*
X94904762Y-76002438D02*
X95047619Y-75954819D01*
X95047619Y-75954819D02*
X95142857Y-75954819D01*
X95142857Y-75954819D02*
X95285714Y-76002438D01*
X95285714Y-76002438D02*
X95333333Y-76050057D01*
X95666667Y-75954819D02*
X96285714Y-75954819D01*
X96285714Y-75954819D02*
X95952381Y-76335771D01*
X95952381Y-76335771D02*
X96095238Y-76335771D01*
X96095238Y-76335771D02*
X96190476Y-76383390D01*
X96190476Y-76383390D02*
X96238095Y-76431009D01*
X96238095Y-76431009D02*
X96285714Y-76526247D01*
X96285714Y-76526247D02*
X96285714Y-76764342D01*
X96285714Y-76764342D02*
X96238095Y-76859580D01*
X96238095Y-76859580D02*
X96190476Y-76907200D01*
X96190476Y-76907200D02*
X96095238Y-76954819D01*
X96095238Y-76954819D02*
X95809524Y-76954819D01*
X95809524Y-76954819D02*
X95714286Y-76907200D01*
X95714286Y-76907200D02*
X95666667Y-76859580D01*
X127333333Y-76859580D02*
X127285714Y-76907200D01*
X127285714Y-76907200D02*
X127142857Y-76954819D01*
X127142857Y-76954819D02*
X127047619Y-76954819D01*
X127047619Y-76954819D02*
X126904762Y-76907200D01*
X126904762Y-76907200D02*
X126809524Y-76811961D01*
X126809524Y-76811961D02*
X126761905Y-76716723D01*
X126761905Y-76716723D02*
X126714286Y-76526247D01*
X126714286Y-76526247D02*
X126714286Y-76383390D01*
X126714286Y-76383390D02*
X126761905Y-76192914D01*
X126761905Y-76192914D02*
X126809524Y-76097676D01*
X126809524Y-76097676D02*
X126904762Y-76002438D01*
X126904762Y-76002438D02*
X127047619Y-75954819D01*
X127047619Y-75954819D02*
X127142857Y-75954819D01*
X127142857Y-75954819D02*
X127285714Y-76002438D01*
X127285714Y-76002438D02*
X127333333Y-76050057D01*
X128190476Y-76288152D02*
X128190476Y-76954819D01*
X127952381Y-75907200D02*
X127714286Y-76621485D01*
X127714286Y-76621485D02*
X128333333Y-76621485D01*
X44254761Y-98404819D02*
X43921428Y-97928628D01*
X43683333Y-98404819D02*
X43683333Y-97404819D01*
X43683333Y-97404819D02*
X44064285Y-97404819D01*
X44064285Y-97404819D02*
X44159523Y-97452438D01*
X44159523Y-97452438D02*
X44207142Y-97500057D01*
X44207142Y-97500057D02*
X44254761Y-97595295D01*
X44254761Y-97595295D02*
X44254761Y-97738152D01*
X44254761Y-97738152D02*
X44207142Y-97833390D01*
X44207142Y-97833390D02*
X44159523Y-97881009D01*
X44159523Y-97881009D02*
X44064285Y-97928628D01*
X44064285Y-97928628D02*
X43683333Y-97928628D01*
X44540476Y-97404819D02*
X44873809Y-98404819D01*
X44873809Y-98404819D02*
X45207142Y-97404819D01*
X46016666Y-97404819D02*
X45540476Y-97404819D01*
X45540476Y-97404819D02*
X45492857Y-97881009D01*
X45492857Y-97881009D02*
X45540476Y-97833390D01*
X45540476Y-97833390D02*
X45635714Y-97785771D01*
X45635714Y-97785771D02*
X45873809Y-97785771D01*
X45873809Y-97785771D02*
X45969047Y-97833390D01*
X45969047Y-97833390D02*
X46016666Y-97881009D01*
X46016666Y-97881009D02*
X46064285Y-97976247D01*
X46064285Y-97976247D02*
X46064285Y-98214342D01*
X46064285Y-98214342D02*
X46016666Y-98309580D01*
X46016666Y-98309580D02*
X45969047Y-98357200D01*
X45969047Y-98357200D02*
X45873809Y-98404819D01*
X45873809Y-98404819D02*
X45635714Y-98404819D01*
X45635714Y-98404819D02*
X45540476Y-98357200D01*
X45540476Y-98357200D02*
X45492857Y-98309580D01*
X97437142Y-72084819D02*
X97103809Y-71608628D01*
X96865714Y-72084819D02*
X96865714Y-71084819D01*
X96865714Y-71084819D02*
X97246666Y-71084819D01*
X97246666Y-71084819D02*
X97341904Y-71132438D01*
X97341904Y-71132438D02*
X97389523Y-71180057D01*
X97389523Y-71180057D02*
X97437142Y-71275295D01*
X97437142Y-71275295D02*
X97437142Y-71418152D01*
X97437142Y-71418152D02*
X97389523Y-71513390D01*
X97389523Y-71513390D02*
X97341904Y-71561009D01*
X97341904Y-71561009D02*
X97246666Y-71608628D01*
X97246666Y-71608628D02*
X96865714Y-71608628D01*
X98389523Y-72084819D02*
X97818095Y-72084819D01*
X98103809Y-72084819D02*
X98103809Y-71084819D01*
X98103809Y-71084819D02*
X98008571Y-71227676D01*
X98008571Y-71227676D02*
X97913333Y-71322914D01*
X97913333Y-71322914D02*
X97818095Y-71370533D01*
X99341904Y-72084819D02*
X98770476Y-72084819D01*
X99056190Y-72084819D02*
X99056190Y-71084819D01*
X99056190Y-71084819D02*
X98960952Y-71227676D01*
X98960952Y-71227676D02*
X98865714Y-71322914D01*
X98865714Y-71322914D02*
X98770476Y-71370533D01*
X163286666Y-31454819D02*
X163286666Y-32169104D01*
X163286666Y-32169104D02*
X163239047Y-32311961D01*
X163239047Y-32311961D02*
X163143809Y-32407200D01*
X163143809Y-32407200D02*
X163000952Y-32454819D01*
X163000952Y-32454819D02*
X162905714Y-32454819D01*
X164239047Y-31454819D02*
X163762857Y-31454819D01*
X163762857Y-31454819D02*
X163715238Y-31931009D01*
X163715238Y-31931009D02*
X163762857Y-31883390D01*
X163762857Y-31883390D02*
X163858095Y-31835771D01*
X163858095Y-31835771D02*
X164096190Y-31835771D01*
X164096190Y-31835771D02*
X164191428Y-31883390D01*
X164191428Y-31883390D02*
X164239047Y-31931009D01*
X164239047Y-31931009D02*
X164286666Y-32026247D01*
X164286666Y-32026247D02*
X164286666Y-32264342D01*
X164286666Y-32264342D02*
X164239047Y-32359580D01*
X164239047Y-32359580D02*
X164191428Y-32407200D01*
X164191428Y-32407200D02*
X164096190Y-32454819D01*
X164096190Y-32454819D02*
X163858095Y-32454819D01*
X163858095Y-32454819D02*
X163762857Y-32407200D01*
X163762857Y-32407200D02*
X163715238Y-32359580D01*
X131916666Y-29004819D02*
X131916666Y-29719104D01*
X131916666Y-29719104D02*
X131869047Y-29861961D01*
X131869047Y-29861961D02*
X131773809Y-29957200D01*
X131773809Y-29957200D02*
X131630952Y-30004819D01*
X131630952Y-30004819D02*
X131535714Y-30004819D01*
X132297619Y-29004819D02*
X132916666Y-29004819D01*
X132916666Y-29004819D02*
X132583333Y-29385771D01*
X132583333Y-29385771D02*
X132726190Y-29385771D01*
X132726190Y-29385771D02*
X132821428Y-29433390D01*
X132821428Y-29433390D02*
X132869047Y-29481009D01*
X132869047Y-29481009D02*
X132916666Y-29576247D01*
X132916666Y-29576247D02*
X132916666Y-29814342D01*
X132916666Y-29814342D02*
X132869047Y-29909580D01*
X132869047Y-29909580D02*
X132821428Y-29957200D01*
X132821428Y-29957200D02*
X132726190Y-30004819D01*
X132726190Y-30004819D02*
X132440476Y-30004819D01*
X132440476Y-30004819D02*
X132345238Y-29957200D01*
X132345238Y-29957200D02*
X132297619Y-29909580D01*
X71666666Y-43454819D02*
X71666666Y-44169104D01*
X71666666Y-44169104D02*
X71619047Y-44311961D01*
X71619047Y-44311961D02*
X71523809Y-44407200D01*
X71523809Y-44407200D02*
X71380952Y-44454819D01*
X71380952Y-44454819D02*
X71285714Y-44454819D01*
X72095238Y-43550057D02*
X72142857Y-43502438D01*
X72142857Y-43502438D02*
X72238095Y-43454819D01*
X72238095Y-43454819D02*
X72476190Y-43454819D01*
X72476190Y-43454819D02*
X72571428Y-43502438D01*
X72571428Y-43502438D02*
X72619047Y-43550057D01*
X72619047Y-43550057D02*
X72666666Y-43645295D01*
X72666666Y-43645295D02*
X72666666Y-43740533D01*
X72666666Y-43740533D02*
X72619047Y-43883390D01*
X72619047Y-43883390D02*
X72047619Y-44454819D01*
X72047619Y-44454819D02*
X72666666Y-44454819D01*
X140254761Y-98404819D02*
X139921428Y-97928628D01*
X139683333Y-98404819D02*
X139683333Y-97404819D01*
X139683333Y-97404819D02*
X140064285Y-97404819D01*
X140064285Y-97404819D02*
X140159523Y-97452438D01*
X140159523Y-97452438D02*
X140207142Y-97500057D01*
X140207142Y-97500057D02*
X140254761Y-97595295D01*
X140254761Y-97595295D02*
X140254761Y-97738152D01*
X140254761Y-97738152D02*
X140207142Y-97833390D01*
X140207142Y-97833390D02*
X140159523Y-97881009D01*
X140159523Y-97881009D02*
X140064285Y-97928628D01*
X140064285Y-97928628D02*
X139683333Y-97928628D01*
X140540476Y-97404819D02*
X140873809Y-98404819D01*
X140873809Y-98404819D02*
X141207142Y-97404819D01*
X141683333Y-97833390D02*
X141588095Y-97785771D01*
X141588095Y-97785771D02*
X141540476Y-97738152D01*
X141540476Y-97738152D02*
X141492857Y-97642914D01*
X141492857Y-97642914D02*
X141492857Y-97595295D01*
X141492857Y-97595295D02*
X141540476Y-97500057D01*
X141540476Y-97500057D02*
X141588095Y-97452438D01*
X141588095Y-97452438D02*
X141683333Y-97404819D01*
X141683333Y-97404819D02*
X141873809Y-97404819D01*
X141873809Y-97404819D02*
X141969047Y-97452438D01*
X141969047Y-97452438D02*
X142016666Y-97500057D01*
X142016666Y-97500057D02*
X142064285Y-97595295D01*
X142064285Y-97595295D02*
X142064285Y-97642914D01*
X142064285Y-97642914D02*
X142016666Y-97738152D01*
X142016666Y-97738152D02*
X141969047Y-97785771D01*
X141969047Y-97785771D02*
X141873809Y-97833390D01*
X141873809Y-97833390D02*
X141683333Y-97833390D01*
X141683333Y-97833390D02*
X141588095Y-97881009D01*
X141588095Y-97881009D02*
X141540476Y-97928628D01*
X141540476Y-97928628D02*
X141492857Y-98023866D01*
X141492857Y-98023866D02*
X141492857Y-98214342D01*
X141492857Y-98214342D02*
X141540476Y-98309580D01*
X141540476Y-98309580D02*
X141588095Y-98357200D01*
X141588095Y-98357200D02*
X141683333Y-98404819D01*
X141683333Y-98404819D02*
X141873809Y-98404819D01*
X141873809Y-98404819D02*
X141969047Y-98357200D01*
X141969047Y-98357200D02*
X142016666Y-98309580D01*
X142016666Y-98309580D02*
X142064285Y-98214342D01*
X142064285Y-98214342D02*
X142064285Y-98023866D01*
X142064285Y-98023866D02*
X142016666Y-97928628D01*
X142016666Y-97928628D02*
X141969047Y-97881009D01*
X141969047Y-97881009D02*
X141873809Y-97833390D01*
X63333333Y-100859580D02*
X63285714Y-100907200D01*
X63285714Y-100907200D02*
X63142857Y-100954819D01*
X63142857Y-100954819D02*
X63047619Y-100954819D01*
X63047619Y-100954819D02*
X62904762Y-100907200D01*
X62904762Y-100907200D02*
X62809524Y-100811961D01*
X62809524Y-100811961D02*
X62761905Y-100716723D01*
X62761905Y-100716723D02*
X62714286Y-100526247D01*
X62714286Y-100526247D02*
X62714286Y-100383390D01*
X62714286Y-100383390D02*
X62761905Y-100192914D01*
X62761905Y-100192914D02*
X62809524Y-100097676D01*
X62809524Y-100097676D02*
X62904762Y-100002438D01*
X62904762Y-100002438D02*
X63047619Y-99954819D01*
X63047619Y-99954819D02*
X63142857Y-99954819D01*
X63142857Y-99954819D02*
X63285714Y-100002438D01*
X63285714Y-100002438D02*
X63333333Y-100050057D01*
X64190476Y-99954819D02*
X64000000Y-99954819D01*
X64000000Y-99954819D02*
X63904762Y-100002438D01*
X63904762Y-100002438D02*
X63857143Y-100050057D01*
X63857143Y-100050057D02*
X63761905Y-100192914D01*
X63761905Y-100192914D02*
X63714286Y-100383390D01*
X63714286Y-100383390D02*
X63714286Y-100764342D01*
X63714286Y-100764342D02*
X63761905Y-100859580D01*
X63761905Y-100859580D02*
X63809524Y-100907200D01*
X63809524Y-100907200D02*
X63904762Y-100954819D01*
X63904762Y-100954819D02*
X64095238Y-100954819D01*
X64095238Y-100954819D02*
X64190476Y-100907200D01*
X64190476Y-100907200D02*
X64238095Y-100859580D01*
X64238095Y-100859580D02*
X64285714Y-100764342D01*
X64285714Y-100764342D02*
X64285714Y-100526247D01*
X64285714Y-100526247D02*
X64238095Y-100431009D01*
X64238095Y-100431009D02*
X64190476Y-100383390D01*
X64190476Y-100383390D02*
X64095238Y-100335771D01*
X64095238Y-100335771D02*
X63904762Y-100335771D01*
X63904762Y-100335771D02*
X63809524Y-100383390D01*
X63809524Y-100383390D02*
X63761905Y-100431009D01*
X63761905Y-100431009D02*
X63714286Y-100526247D01*
X94857142Y-124859580D02*
X94809523Y-124907200D01*
X94809523Y-124907200D02*
X94666666Y-124954819D01*
X94666666Y-124954819D02*
X94571428Y-124954819D01*
X94571428Y-124954819D02*
X94428571Y-124907200D01*
X94428571Y-124907200D02*
X94333333Y-124811961D01*
X94333333Y-124811961D02*
X94285714Y-124716723D01*
X94285714Y-124716723D02*
X94238095Y-124526247D01*
X94238095Y-124526247D02*
X94238095Y-124383390D01*
X94238095Y-124383390D02*
X94285714Y-124192914D01*
X94285714Y-124192914D02*
X94333333Y-124097676D01*
X94333333Y-124097676D02*
X94428571Y-124002438D01*
X94428571Y-124002438D02*
X94571428Y-123954819D01*
X94571428Y-123954819D02*
X94666666Y-123954819D01*
X94666666Y-123954819D02*
X94809523Y-124002438D01*
X94809523Y-124002438D02*
X94857142Y-124050057D01*
X95809523Y-124954819D02*
X95238095Y-124954819D01*
X95523809Y-124954819D02*
X95523809Y-123954819D01*
X95523809Y-123954819D02*
X95428571Y-124097676D01*
X95428571Y-124097676D02*
X95333333Y-124192914D01*
X95333333Y-124192914D02*
X95238095Y-124240533D01*
X96761904Y-124954819D02*
X96190476Y-124954819D01*
X96476190Y-124954819D02*
X96476190Y-123954819D01*
X96476190Y-123954819D02*
X96380952Y-124097676D01*
X96380952Y-124097676D02*
X96285714Y-124192914D01*
X96285714Y-124192914D02*
X96190476Y-124240533D01*
X107778571Y-122404819D02*
X107445238Y-121928628D01*
X107207143Y-122404819D02*
X107207143Y-121404819D01*
X107207143Y-121404819D02*
X107588095Y-121404819D01*
X107588095Y-121404819D02*
X107683333Y-121452438D01*
X107683333Y-121452438D02*
X107730952Y-121500057D01*
X107730952Y-121500057D02*
X107778571Y-121595295D01*
X107778571Y-121595295D02*
X107778571Y-121738152D01*
X107778571Y-121738152D02*
X107730952Y-121833390D01*
X107730952Y-121833390D02*
X107683333Y-121881009D01*
X107683333Y-121881009D02*
X107588095Y-121928628D01*
X107588095Y-121928628D02*
X107207143Y-121928628D01*
X108064286Y-121404819D02*
X108397619Y-122404819D01*
X108397619Y-122404819D02*
X108730952Y-121404819D01*
X109588095Y-122404819D02*
X109016667Y-122404819D01*
X109302381Y-122404819D02*
X109302381Y-121404819D01*
X109302381Y-121404819D02*
X109207143Y-121547676D01*
X109207143Y-121547676D02*
X109111905Y-121642914D01*
X109111905Y-121642914D02*
X109016667Y-121690533D01*
X110540476Y-122404819D02*
X109969048Y-122404819D01*
X110254762Y-122404819D02*
X110254762Y-121404819D01*
X110254762Y-121404819D02*
X110159524Y-121547676D01*
X110159524Y-121547676D02*
X110064286Y-121642914D01*
X110064286Y-121642914D02*
X109969048Y-121690533D01*
X169463333Y-81374819D02*
X169130000Y-80898628D01*
X168891905Y-81374819D02*
X168891905Y-80374819D01*
X168891905Y-80374819D02*
X169272857Y-80374819D01*
X169272857Y-80374819D02*
X169368095Y-80422438D01*
X169368095Y-80422438D02*
X169415714Y-80470057D01*
X169415714Y-80470057D02*
X169463333Y-80565295D01*
X169463333Y-80565295D02*
X169463333Y-80708152D01*
X169463333Y-80708152D02*
X169415714Y-80803390D01*
X169415714Y-80803390D02*
X169368095Y-80851009D01*
X169368095Y-80851009D02*
X169272857Y-80898628D01*
X169272857Y-80898628D02*
X168891905Y-80898628D01*
X170320476Y-80374819D02*
X170130000Y-80374819D01*
X170130000Y-80374819D02*
X170034762Y-80422438D01*
X170034762Y-80422438D02*
X169987143Y-80470057D01*
X169987143Y-80470057D02*
X169891905Y-80612914D01*
X169891905Y-80612914D02*
X169844286Y-80803390D01*
X169844286Y-80803390D02*
X169844286Y-81184342D01*
X169844286Y-81184342D02*
X169891905Y-81279580D01*
X169891905Y-81279580D02*
X169939524Y-81327200D01*
X169939524Y-81327200D02*
X170034762Y-81374819D01*
X170034762Y-81374819D02*
X170225238Y-81374819D01*
X170225238Y-81374819D02*
X170320476Y-81327200D01*
X170320476Y-81327200D02*
X170368095Y-81279580D01*
X170368095Y-81279580D02*
X170415714Y-81184342D01*
X170415714Y-81184342D02*
X170415714Y-80946247D01*
X170415714Y-80946247D02*
X170368095Y-80851009D01*
X170368095Y-80851009D02*
X170320476Y-80803390D01*
X170320476Y-80803390D02*
X170225238Y-80755771D01*
X170225238Y-80755771D02*
X170034762Y-80755771D01*
X170034762Y-80755771D02*
X169939524Y-80803390D01*
X169939524Y-80803390D02*
X169891905Y-80851009D01*
X169891905Y-80851009D02*
X169844286Y-80946247D01*
X97437142Y-144084819D02*
X97103809Y-143608628D01*
X96865714Y-144084819D02*
X96865714Y-143084819D01*
X96865714Y-143084819D02*
X97246666Y-143084819D01*
X97246666Y-143084819D02*
X97341904Y-143132438D01*
X97341904Y-143132438D02*
X97389523Y-143180057D01*
X97389523Y-143180057D02*
X97437142Y-143275295D01*
X97437142Y-143275295D02*
X97437142Y-143418152D01*
X97437142Y-143418152D02*
X97389523Y-143513390D01*
X97389523Y-143513390D02*
X97341904Y-143561009D01*
X97341904Y-143561009D02*
X97246666Y-143608628D01*
X97246666Y-143608628D02*
X96865714Y-143608628D01*
X97818095Y-143180057D02*
X97865714Y-143132438D01*
X97865714Y-143132438D02*
X97960952Y-143084819D01*
X97960952Y-143084819D02*
X98199047Y-143084819D01*
X98199047Y-143084819D02*
X98294285Y-143132438D01*
X98294285Y-143132438D02*
X98341904Y-143180057D01*
X98341904Y-143180057D02*
X98389523Y-143275295D01*
X98389523Y-143275295D02*
X98389523Y-143370533D01*
X98389523Y-143370533D02*
X98341904Y-143513390D01*
X98341904Y-143513390D02*
X97770476Y-144084819D01*
X97770476Y-144084819D02*
X98389523Y-144084819D01*
X98722857Y-143084819D02*
X99341904Y-143084819D01*
X99341904Y-143084819D02*
X99008571Y-143465771D01*
X99008571Y-143465771D02*
X99151428Y-143465771D01*
X99151428Y-143465771D02*
X99246666Y-143513390D01*
X99246666Y-143513390D02*
X99294285Y-143561009D01*
X99294285Y-143561009D02*
X99341904Y-143656247D01*
X99341904Y-143656247D02*
X99341904Y-143894342D01*
X99341904Y-143894342D02*
X99294285Y-143989580D01*
X99294285Y-143989580D02*
X99246666Y-144037200D01*
X99246666Y-144037200D02*
X99151428Y-144084819D01*
X99151428Y-144084819D02*
X98865714Y-144084819D01*
X98865714Y-144084819D02*
X98770476Y-144037200D01*
X98770476Y-144037200D02*
X98722857Y-143989580D01*
X161437142Y-144084819D02*
X161103809Y-143608628D01*
X160865714Y-144084819D02*
X160865714Y-143084819D01*
X160865714Y-143084819D02*
X161246666Y-143084819D01*
X161246666Y-143084819D02*
X161341904Y-143132438D01*
X161341904Y-143132438D02*
X161389523Y-143180057D01*
X161389523Y-143180057D02*
X161437142Y-143275295D01*
X161437142Y-143275295D02*
X161437142Y-143418152D01*
X161437142Y-143418152D02*
X161389523Y-143513390D01*
X161389523Y-143513390D02*
X161341904Y-143561009D01*
X161341904Y-143561009D02*
X161246666Y-143608628D01*
X161246666Y-143608628D02*
X160865714Y-143608628D01*
X161818095Y-143180057D02*
X161865714Y-143132438D01*
X161865714Y-143132438D02*
X161960952Y-143084819D01*
X161960952Y-143084819D02*
X162199047Y-143084819D01*
X162199047Y-143084819D02*
X162294285Y-143132438D01*
X162294285Y-143132438D02*
X162341904Y-143180057D01*
X162341904Y-143180057D02*
X162389523Y-143275295D01*
X162389523Y-143275295D02*
X162389523Y-143370533D01*
X162389523Y-143370533D02*
X162341904Y-143513390D01*
X162341904Y-143513390D02*
X161770476Y-144084819D01*
X161770476Y-144084819D02*
X162389523Y-144084819D01*
X163294285Y-143084819D02*
X162818095Y-143084819D01*
X162818095Y-143084819D02*
X162770476Y-143561009D01*
X162770476Y-143561009D02*
X162818095Y-143513390D01*
X162818095Y-143513390D02*
X162913333Y-143465771D01*
X162913333Y-143465771D02*
X163151428Y-143465771D01*
X163151428Y-143465771D02*
X163246666Y-143513390D01*
X163246666Y-143513390D02*
X163294285Y-143561009D01*
X163294285Y-143561009D02*
X163341904Y-143656247D01*
X163341904Y-143656247D02*
X163341904Y-143894342D01*
X163341904Y-143894342D02*
X163294285Y-143989580D01*
X163294285Y-143989580D02*
X163246666Y-144037200D01*
X163246666Y-144037200D02*
X163151428Y-144084819D01*
X163151428Y-144084819D02*
X162913333Y-144084819D01*
X162913333Y-144084819D02*
X162818095Y-144037200D01*
X162818095Y-144037200D02*
X162770476Y-143989580D01*
X78125238Y-133454819D02*
X78125238Y-134169104D01*
X78125238Y-134169104D02*
X78077619Y-134311961D01*
X78077619Y-134311961D02*
X77982381Y-134407200D01*
X77982381Y-134407200D02*
X77839524Y-134454819D01*
X77839524Y-134454819D02*
X77744286Y-134454819D01*
X78601429Y-134454819D02*
X78601429Y-133454819D01*
X78601429Y-133454819D02*
X78934762Y-134169104D01*
X78934762Y-134169104D02*
X79268095Y-133454819D01*
X79268095Y-133454819D02*
X79268095Y-134454819D01*
X79744286Y-134454819D02*
X79744286Y-133454819D01*
X79744286Y-133454819D02*
X79982381Y-133454819D01*
X79982381Y-133454819D02*
X80125238Y-133502438D01*
X80125238Y-133502438D02*
X80220476Y-133597676D01*
X80220476Y-133597676D02*
X80268095Y-133692914D01*
X80268095Y-133692914D02*
X80315714Y-133883390D01*
X80315714Y-133883390D02*
X80315714Y-134026247D01*
X80315714Y-134026247D02*
X80268095Y-134216723D01*
X80268095Y-134216723D02*
X80220476Y-134311961D01*
X80220476Y-134311961D02*
X80125238Y-134407200D01*
X80125238Y-134407200D02*
X79982381Y-134454819D01*
X79982381Y-134454819D02*
X79744286Y-134454819D01*
X80649048Y-133454819D02*
X81268095Y-133454819D01*
X81268095Y-133454819D02*
X80934762Y-133835771D01*
X80934762Y-133835771D02*
X81077619Y-133835771D01*
X81077619Y-133835771D02*
X81172857Y-133883390D01*
X81172857Y-133883390D02*
X81220476Y-133931009D01*
X81220476Y-133931009D02*
X81268095Y-134026247D01*
X81268095Y-134026247D02*
X81268095Y-134264342D01*
X81268095Y-134264342D02*
X81220476Y-134359580D01*
X81220476Y-134359580D02*
X81172857Y-134407200D01*
X81172857Y-134407200D02*
X81077619Y-134454819D01*
X81077619Y-134454819D02*
X80791905Y-134454819D01*
X80791905Y-134454819D02*
X80696667Y-134407200D01*
X80696667Y-134407200D02*
X80649048Y-134359580D01*
X76254761Y-74404819D02*
X75921428Y-73928628D01*
X75683333Y-74404819D02*
X75683333Y-73404819D01*
X75683333Y-73404819D02*
X76064285Y-73404819D01*
X76064285Y-73404819D02*
X76159523Y-73452438D01*
X76159523Y-73452438D02*
X76207142Y-73500057D01*
X76207142Y-73500057D02*
X76254761Y-73595295D01*
X76254761Y-73595295D02*
X76254761Y-73738152D01*
X76254761Y-73738152D02*
X76207142Y-73833390D01*
X76207142Y-73833390D02*
X76159523Y-73881009D01*
X76159523Y-73881009D02*
X76064285Y-73928628D01*
X76064285Y-73928628D02*
X75683333Y-73928628D01*
X76540476Y-73404819D02*
X76873809Y-74404819D01*
X76873809Y-74404819D02*
X77207142Y-73404819D01*
X77492857Y-73500057D02*
X77540476Y-73452438D01*
X77540476Y-73452438D02*
X77635714Y-73404819D01*
X77635714Y-73404819D02*
X77873809Y-73404819D01*
X77873809Y-73404819D02*
X77969047Y-73452438D01*
X77969047Y-73452438D02*
X78016666Y-73500057D01*
X78016666Y-73500057D02*
X78064285Y-73595295D01*
X78064285Y-73595295D02*
X78064285Y-73690533D01*
X78064285Y-73690533D02*
X78016666Y-73833390D01*
X78016666Y-73833390D02*
X77445238Y-74404819D01*
X77445238Y-74404819D02*
X78064285Y-74404819D01*
X75778571Y-122404819D02*
X75445238Y-121928628D01*
X75207143Y-122404819D02*
X75207143Y-121404819D01*
X75207143Y-121404819D02*
X75588095Y-121404819D01*
X75588095Y-121404819D02*
X75683333Y-121452438D01*
X75683333Y-121452438D02*
X75730952Y-121500057D01*
X75730952Y-121500057D02*
X75778571Y-121595295D01*
X75778571Y-121595295D02*
X75778571Y-121738152D01*
X75778571Y-121738152D02*
X75730952Y-121833390D01*
X75730952Y-121833390D02*
X75683333Y-121881009D01*
X75683333Y-121881009D02*
X75588095Y-121928628D01*
X75588095Y-121928628D02*
X75207143Y-121928628D01*
X76064286Y-121404819D02*
X76397619Y-122404819D01*
X76397619Y-122404819D02*
X76730952Y-121404819D01*
X77588095Y-122404819D02*
X77016667Y-122404819D01*
X77302381Y-122404819D02*
X77302381Y-121404819D01*
X77302381Y-121404819D02*
X77207143Y-121547676D01*
X77207143Y-121547676D02*
X77111905Y-121642914D01*
X77111905Y-121642914D02*
X77016667Y-121690533D01*
X78207143Y-121404819D02*
X78302381Y-121404819D01*
X78302381Y-121404819D02*
X78397619Y-121452438D01*
X78397619Y-121452438D02*
X78445238Y-121500057D01*
X78445238Y-121500057D02*
X78492857Y-121595295D01*
X78492857Y-121595295D02*
X78540476Y-121785771D01*
X78540476Y-121785771D02*
X78540476Y-122023866D01*
X78540476Y-122023866D02*
X78492857Y-122214342D01*
X78492857Y-122214342D02*
X78445238Y-122309580D01*
X78445238Y-122309580D02*
X78397619Y-122357200D01*
X78397619Y-122357200D02*
X78302381Y-122404819D01*
X78302381Y-122404819D02*
X78207143Y-122404819D01*
X78207143Y-122404819D02*
X78111905Y-122357200D01*
X78111905Y-122357200D02*
X78064286Y-122309580D01*
X78064286Y-122309580D02*
X78016667Y-122214342D01*
X78016667Y-122214342D02*
X77969048Y-122023866D01*
X77969048Y-122023866D02*
X77969048Y-121785771D01*
X77969048Y-121785771D02*
X78016667Y-121595295D01*
X78016667Y-121595295D02*
X78064286Y-121500057D01*
X78064286Y-121500057D02*
X78111905Y-121452438D01*
X78111905Y-121452438D02*
X78207143Y-121404819D01*
X38913333Y-63084819D02*
X38580000Y-62608628D01*
X38341905Y-63084819D02*
X38341905Y-62084819D01*
X38341905Y-62084819D02*
X38722857Y-62084819D01*
X38722857Y-62084819D02*
X38818095Y-62132438D01*
X38818095Y-62132438D02*
X38865714Y-62180057D01*
X38865714Y-62180057D02*
X38913333Y-62275295D01*
X38913333Y-62275295D02*
X38913333Y-62418152D01*
X38913333Y-62418152D02*
X38865714Y-62513390D01*
X38865714Y-62513390D02*
X38818095Y-62561009D01*
X38818095Y-62561009D02*
X38722857Y-62608628D01*
X38722857Y-62608628D02*
X38341905Y-62608628D01*
X39865714Y-63084819D02*
X39294286Y-63084819D01*
X39580000Y-63084819D02*
X39580000Y-62084819D01*
X39580000Y-62084819D02*
X39484762Y-62227676D01*
X39484762Y-62227676D02*
X39389524Y-62322914D01*
X39389524Y-62322914D02*
X39294286Y-62370533D01*
X169463333Y-125374819D02*
X169130000Y-124898628D01*
X168891905Y-125374819D02*
X168891905Y-124374819D01*
X168891905Y-124374819D02*
X169272857Y-124374819D01*
X169272857Y-124374819D02*
X169368095Y-124422438D01*
X169368095Y-124422438D02*
X169415714Y-124470057D01*
X169415714Y-124470057D02*
X169463333Y-124565295D01*
X169463333Y-124565295D02*
X169463333Y-124708152D01*
X169463333Y-124708152D02*
X169415714Y-124803390D01*
X169415714Y-124803390D02*
X169368095Y-124851009D01*
X169368095Y-124851009D02*
X169272857Y-124898628D01*
X169272857Y-124898628D02*
X168891905Y-124898628D01*
X170034762Y-124803390D02*
X169939524Y-124755771D01*
X169939524Y-124755771D02*
X169891905Y-124708152D01*
X169891905Y-124708152D02*
X169844286Y-124612914D01*
X169844286Y-124612914D02*
X169844286Y-124565295D01*
X169844286Y-124565295D02*
X169891905Y-124470057D01*
X169891905Y-124470057D02*
X169939524Y-124422438D01*
X169939524Y-124422438D02*
X170034762Y-124374819D01*
X170034762Y-124374819D02*
X170225238Y-124374819D01*
X170225238Y-124374819D02*
X170320476Y-124422438D01*
X170320476Y-124422438D02*
X170368095Y-124470057D01*
X170368095Y-124470057D02*
X170415714Y-124565295D01*
X170415714Y-124565295D02*
X170415714Y-124612914D01*
X170415714Y-124612914D02*
X170368095Y-124708152D01*
X170368095Y-124708152D02*
X170320476Y-124755771D01*
X170320476Y-124755771D02*
X170225238Y-124803390D01*
X170225238Y-124803390D02*
X170034762Y-124803390D01*
X170034762Y-124803390D02*
X169939524Y-124851009D01*
X169939524Y-124851009D02*
X169891905Y-124898628D01*
X169891905Y-124898628D02*
X169844286Y-124993866D01*
X169844286Y-124993866D02*
X169844286Y-125184342D01*
X169844286Y-125184342D02*
X169891905Y-125279580D01*
X169891905Y-125279580D02*
X169939524Y-125327200D01*
X169939524Y-125327200D02*
X170034762Y-125374819D01*
X170034762Y-125374819D02*
X170225238Y-125374819D01*
X170225238Y-125374819D02*
X170320476Y-125327200D01*
X170320476Y-125327200D02*
X170368095Y-125279580D01*
X170368095Y-125279580D02*
X170415714Y-125184342D01*
X170415714Y-125184342D02*
X170415714Y-124993866D01*
X170415714Y-124993866D02*
X170368095Y-124898628D01*
X170368095Y-124898628D02*
X170320476Y-124851009D01*
X170320476Y-124851009D02*
X170225238Y-124803390D01*
X95333333Y-100859580D02*
X95285714Y-100907200D01*
X95285714Y-100907200D02*
X95142857Y-100954819D01*
X95142857Y-100954819D02*
X95047619Y-100954819D01*
X95047619Y-100954819D02*
X94904762Y-100907200D01*
X94904762Y-100907200D02*
X94809524Y-100811961D01*
X94809524Y-100811961D02*
X94761905Y-100716723D01*
X94761905Y-100716723D02*
X94714286Y-100526247D01*
X94714286Y-100526247D02*
X94714286Y-100383390D01*
X94714286Y-100383390D02*
X94761905Y-100192914D01*
X94761905Y-100192914D02*
X94809524Y-100097676D01*
X94809524Y-100097676D02*
X94904762Y-100002438D01*
X94904762Y-100002438D02*
X95047619Y-99954819D01*
X95047619Y-99954819D02*
X95142857Y-99954819D01*
X95142857Y-99954819D02*
X95285714Y-100002438D01*
X95285714Y-100002438D02*
X95333333Y-100050057D01*
X95666667Y-99954819D02*
X96333333Y-99954819D01*
X96333333Y-99954819D02*
X95904762Y-100954819D01*
X76254761Y-98404819D02*
X75921428Y-97928628D01*
X75683333Y-98404819D02*
X75683333Y-97404819D01*
X75683333Y-97404819D02*
X76064285Y-97404819D01*
X76064285Y-97404819D02*
X76159523Y-97452438D01*
X76159523Y-97452438D02*
X76207142Y-97500057D01*
X76207142Y-97500057D02*
X76254761Y-97595295D01*
X76254761Y-97595295D02*
X76254761Y-97738152D01*
X76254761Y-97738152D02*
X76207142Y-97833390D01*
X76207142Y-97833390D02*
X76159523Y-97881009D01*
X76159523Y-97881009D02*
X76064285Y-97928628D01*
X76064285Y-97928628D02*
X75683333Y-97928628D01*
X76540476Y-97404819D02*
X76873809Y-98404819D01*
X76873809Y-98404819D02*
X77207142Y-97404819D01*
X77969047Y-97404819D02*
X77778571Y-97404819D01*
X77778571Y-97404819D02*
X77683333Y-97452438D01*
X77683333Y-97452438D02*
X77635714Y-97500057D01*
X77635714Y-97500057D02*
X77540476Y-97642914D01*
X77540476Y-97642914D02*
X77492857Y-97833390D01*
X77492857Y-97833390D02*
X77492857Y-98214342D01*
X77492857Y-98214342D02*
X77540476Y-98309580D01*
X77540476Y-98309580D02*
X77588095Y-98357200D01*
X77588095Y-98357200D02*
X77683333Y-98404819D01*
X77683333Y-98404819D02*
X77873809Y-98404819D01*
X77873809Y-98404819D02*
X77969047Y-98357200D01*
X77969047Y-98357200D02*
X78016666Y-98309580D01*
X78016666Y-98309580D02*
X78064285Y-98214342D01*
X78064285Y-98214342D02*
X78064285Y-97976247D01*
X78064285Y-97976247D02*
X78016666Y-97881009D01*
X78016666Y-97881009D02*
X77969047Y-97833390D01*
X77969047Y-97833390D02*
X77873809Y-97785771D01*
X77873809Y-97785771D02*
X77683333Y-97785771D01*
X77683333Y-97785771D02*
X77588095Y-97833390D01*
X77588095Y-97833390D02*
X77540476Y-97881009D01*
X77540476Y-97881009D02*
X77492857Y-97976247D01*
X153841905Y-49984819D02*
X153841905Y-48984819D01*
X153841905Y-48984819D02*
X154080000Y-48984819D01*
X154080000Y-48984819D02*
X154222857Y-49032438D01*
X154222857Y-49032438D02*
X154318095Y-49127676D01*
X154318095Y-49127676D02*
X154365714Y-49222914D01*
X154365714Y-49222914D02*
X154413333Y-49413390D01*
X154413333Y-49413390D02*
X154413333Y-49556247D01*
X154413333Y-49556247D02*
X154365714Y-49746723D01*
X154365714Y-49746723D02*
X154318095Y-49841961D01*
X154318095Y-49841961D02*
X154222857Y-49937200D01*
X154222857Y-49937200D02*
X154080000Y-49984819D01*
X154080000Y-49984819D02*
X153841905Y-49984819D01*
X154794286Y-49080057D02*
X154841905Y-49032438D01*
X154841905Y-49032438D02*
X154937143Y-48984819D01*
X154937143Y-48984819D02*
X155175238Y-48984819D01*
X155175238Y-48984819D02*
X155270476Y-49032438D01*
X155270476Y-49032438D02*
X155318095Y-49080057D01*
X155318095Y-49080057D02*
X155365714Y-49175295D01*
X155365714Y-49175295D02*
X155365714Y-49270533D01*
X155365714Y-49270533D02*
X155318095Y-49413390D01*
X155318095Y-49413390D02*
X154746667Y-49984819D01*
X154746667Y-49984819D02*
X155365714Y-49984819D01*
X155794286Y-49984819D02*
X155794286Y-48984819D01*
X155794286Y-48984819D02*
X156032381Y-48984819D01*
X156032381Y-48984819D02*
X156175238Y-49032438D01*
X156175238Y-49032438D02*
X156270476Y-49127676D01*
X156270476Y-49127676D02*
X156318095Y-49222914D01*
X156318095Y-49222914D02*
X156365714Y-49413390D01*
X156365714Y-49413390D02*
X156365714Y-49556247D01*
X156365714Y-49556247D02*
X156318095Y-49746723D01*
X156318095Y-49746723D02*
X156270476Y-49841961D01*
X156270476Y-49841961D02*
X156175238Y-49937200D01*
X156175238Y-49937200D02*
X156032381Y-49984819D01*
X156032381Y-49984819D02*
X155794286Y-49984819D01*
X149738095Y-50354819D02*
X149738095Y-49354819D01*
X150309523Y-50354819D02*
X149880952Y-49783390D01*
X150309523Y-49354819D02*
X149738095Y-49926247D01*
X68036666Y-85454819D02*
X68036666Y-86169104D01*
X68036666Y-86169104D02*
X67989047Y-86311961D01*
X67989047Y-86311961D02*
X67893809Y-86407200D01*
X67893809Y-86407200D02*
X67750952Y-86454819D01*
X67750952Y-86454819D02*
X67655714Y-86454819D01*
X68512857Y-86454819D02*
X68512857Y-85454819D01*
X68512857Y-85454819D02*
X68846190Y-86169104D01*
X68846190Y-86169104D02*
X69179523Y-85454819D01*
X69179523Y-85454819D02*
X69179523Y-86454819D01*
X69608095Y-86169104D02*
X70084285Y-86169104D01*
X69512857Y-86454819D02*
X69846190Y-85454819D01*
X69846190Y-85454819D02*
X70179523Y-86454819D01*
X70465238Y-85550057D02*
X70512857Y-85502438D01*
X70512857Y-85502438D02*
X70608095Y-85454819D01*
X70608095Y-85454819D02*
X70846190Y-85454819D01*
X70846190Y-85454819D02*
X70941428Y-85502438D01*
X70941428Y-85502438D02*
X70989047Y-85550057D01*
X70989047Y-85550057D02*
X71036666Y-85645295D01*
X71036666Y-85645295D02*
X71036666Y-85740533D01*
X71036666Y-85740533D02*
X70989047Y-85883390D01*
X70989047Y-85883390D02*
X70417619Y-86454819D01*
X70417619Y-86454819D02*
X71036666Y-86454819D01*
X107778571Y-146404819D02*
X107445238Y-145928628D01*
X107207143Y-146404819D02*
X107207143Y-145404819D01*
X107207143Y-145404819D02*
X107588095Y-145404819D01*
X107588095Y-145404819D02*
X107683333Y-145452438D01*
X107683333Y-145452438D02*
X107730952Y-145500057D01*
X107730952Y-145500057D02*
X107778571Y-145595295D01*
X107778571Y-145595295D02*
X107778571Y-145738152D01*
X107778571Y-145738152D02*
X107730952Y-145833390D01*
X107730952Y-145833390D02*
X107683333Y-145881009D01*
X107683333Y-145881009D02*
X107588095Y-145928628D01*
X107588095Y-145928628D02*
X107207143Y-145928628D01*
X108064286Y-145404819D02*
X108397619Y-146404819D01*
X108397619Y-146404819D02*
X108730952Y-145404819D01*
X109588095Y-146404819D02*
X109016667Y-146404819D01*
X109302381Y-146404819D02*
X109302381Y-145404819D01*
X109302381Y-145404819D02*
X109207143Y-145547676D01*
X109207143Y-145547676D02*
X109111905Y-145642914D01*
X109111905Y-145642914D02*
X109016667Y-145690533D01*
X110492857Y-145404819D02*
X110016667Y-145404819D01*
X110016667Y-145404819D02*
X109969048Y-145881009D01*
X109969048Y-145881009D02*
X110016667Y-145833390D01*
X110016667Y-145833390D02*
X110111905Y-145785771D01*
X110111905Y-145785771D02*
X110350000Y-145785771D01*
X110350000Y-145785771D02*
X110445238Y-145833390D01*
X110445238Y-145833390D02*
X110492857Y-145881009D01*
X110492857Y-145881009D02*
X110540476Y-145976247D01*
X110540476Y-145976247D02*
X110540476Y-146214342D01*
X110540476Y-146214342D02*
X110492857Y-146309580D01*
X110492857Y-146309580D02*
X110445238Y-146357200D01*
X110445238Y-146357200D02*
X110350000Y-146404819D01*
X110350000Y-146404819D02*
X110111905Y-146404819D01*
X110111905Y-146404819D02*
X110016667Y-146357200D01*
X110016667Y-146357200D02*
X109969048Y-146309580D01*
X108254761Y-98404819D02*
X107921428Y-97928628D01*
X107683333Y-98404819D02*
X107683333Y-97404819D01*
X107683333Y-97404819D02*
X108064285Y-97404819D01*
X108064285Y-97404819D02*
X108159523Y-97452438D01*
X108159523Y-97452438D02*
X108207142Y-97500057D01*
X108207142Y-97500057D02*
X108254761Y-97595295D01*
X108254761Y-97595295D02*
X108254761Y-97738152D01*
X108254761Y-97738152D02*
X108207142Y-97833390D01*
X108207142Y-97833390D02*
X108159523Y-97881009D01*
X108159523Y-97881009D02*
X108064285Y-97928628D01*
X108064285Y-97928628D02*
X107683333Y-97928628D01*
X108540476Y-97404819D02*
X108873809Y-98404819D01*
X108873809Y-98404819D02*
X109207142Y-97404819D01*
X109445238Y-97404819D02*
X110111904Y-97404819D01*
X110111904Y-97404819D02*
X109683333Y-98404819D01*
X45176666Y-85454819D02*
X45176666Y-86169104D01*
X45176666Y-86169104D02*
X45129047Y-86311961D01*
X45129047Y-86311961D02*
X45033809Y-86407200D01*
X45033809Y-86407200D02*
X44890952Y-86454819D01*
X44890952Y-86454819D02*
X44795714Y-86454819D01*
X45652857Y-86454819D02*
X45652857Y-85454819D01*
X45652857Y-85454819D02*
X45986190Y-86169104D01*
X45986190Y-86169104D02*
X46319523Y-85454819D01*
X46319523Y-85454819D02*
X46319523Y-86454819D01*
X46748095Y-86169104D02*
X47224285Y-86169104D01*
X46652857Y-86454819D02*
X46986190Y-85454819D01*
X46986190Y-85454819D02*
X47319523Y-86454819D01*
X48176666Y-86454819D02*
X47605238Y-86454819D01*
X47890952Y-86454819D02*
X47890952Y-85454819D01*
X47890952Y-85454819D02*
X47795714Y-85597676D01*
X47795714Y-85597676D02*
X47700476Y-85692914D01*
X47700476Y-85692914D02*
X47605238Y-85740533D01*
X63333333Y-76859580D02*
X63285714Y-76907200D01*
X63285714Y-76907200D02*
X63142857Y-76954819D01*
X63142857Y-76954819D02*
X63047619Y-76954819D01*
X63047619Y-76954819D02*
X62904762Y-76907200D01*
X62904762Y-76907200D02*
X62809524Y-76811961D01*
X62809524Y-76811961D02*
X62761905Y-76716723D01*
X62761905Y-76716723D02*
X62714286Y-76526247D01*
X62714286Y-76526247D02*
X62714286Y-76383390D01*
X62714286Y-76383390D02*
X62761905Y-76192914D01*
X62761905Y-76192914D02*
X62809524Y-76097676D01*
X62809524Y-76097676D02*
X62904762Y-76002438D01*
X62904762Y-76002438D02*
X63047619Y-75954819D01*
X63047619Y-75954819D02*
X63142857Y-75954819D01*
X63142857Y-75954819D02*
X63285714Y-76002438D01*
X63285714Y-76002438D02*
X63333333Y-76050057D01*
X63714286Y-76050057D02*
X63761905Y-76002438D01*
X63761905Y-76002438D02*
X63857143Y-75954819D01*
X63857143Y-75954819D02*
X64095238Y-75954819D01*
X64095238Y-75954819D02*
X64190476Y-76002438D01*
X64190476Y-76002438D02*
X64238095Y-76050057D01*
X64238095Y-76050057D02*
X64285714Y-76145295D01*
X64285714Y-76145295D02*
X64285714Y-76240533D01*
X64285714Y-76240533D02*
X64238095Y-76383390D01*
X64238095Y-76383390D02*
X63666667Y-76954819D01*
X63666667Y-76954819D02*
X64285714Y-76954819D01*
X139778571Y-122404819D02*
X139445238Y-121928628D01*
X139207143Y-122404819D02*
X139207143Y-121404819D01*
X139207143Y-121404819D02*
X139588095Y-121404819D01*
X139588095Y-121404819D02*
X139683333Y-121452438D01*
X139683333Y-121452438D02*
X139730952Y-121500057D01*
X139730952Y-121500057D02*
X139778571Y-121595295D01*
X139778571Y-121595295D02*
X139778571Y-121738152D01*
X139778571Y-121738152D02*
X139730952Y-121833390D01*
X139730952Y-121833390D02*
X139683333Y-121881009D01*
X139683333Y-121881009D02*
X139588095Y-121928628D01*
X139588095Y-121928628D02*
X139207143Y-121928628D01*
X140064286Y-121404819D02*
X140397619Y-122404819D01*
X140397619Y-122404819D02*
X140730952Y-121404819D01*
X141588095Y-122404819D02*
X141016667Y-122404819D01*
X141302381Y-122404819D02*
X141302381Y-121404819D01*
X141302381Y-121404819D02*
X141207143Y-121547676D01*
X141207143Y-121547676D02*
X141111905Y-121642914D01*
X141111905Y-121642914D02*
X141016667Y-121690533D01*
X141969048Y-121500057D02*
X142016667Y-121452438D01*
X142016667Y-121452438D02*
X142111905Y-121404819D01*
X142111905Y-121404819D02*
X142350000Y-121404819D01*
X142350000Y-121404819D02*
X142445238Y-121452438D01*
X142445238Y-121452438D02*
X142492857Y-121500057D01*
X142492857Y-121500057D02*
X142540476Y-121595295D01*
X142540476Y-121595295D02*
X142540476Y-121690533D01*
X142540476Y-121690533D02*
X142492857Y-121833390D01*
X142492857Y-121833390D02*
X141921429Y-122404819D01*
X141921429Y-122404819D02*
X142540476Y-122404819D01*
X176301905Y-151184819D02*
X176301905Y-150184819D01*
X176301905Y-150184819D02*
X176540000Y-150184819D01*
X176540000Y-150184819D02*
X176682857Y-150232438D01*
X176682857Y-150232438D02*
X176778095Y-150327676D01*
X176778095Y-150327676D02*
X176825714Y-150422914D01*
X176825714Y-150422914D02*
X176873333Y-150613390D01*
X176873333Y-150613390D02*
X176873333Y-150756247D01*
X176873333Y-150756247D02*
X176825714Y-150946723D01*
X176825714Y-150946723D02*
X176778095Y-151041961D01*
X176778095Y-151041961D02*
X176682857Y-151137200D01*
X176682857Y-151137200D02*
X176540000Y-151184819D01*
X176540000Y-151184819D02*
X176301905Y-151184819D01*
X177730476Y-150184819D02*
X177540000Y-150184819D01*
X177540000Y-150184819D02*
X177444762Y-150232438D01*
X177444762Y-150232438D02*
X177397143Y-150280057D01*
X177397143Y-150280057D02*
X177301905Y-150422914D01*
X177301905Y-150422914D02*
X177254286Y-150613390D01*
X177254286Y-150613390D02*
X177254286Y-150994342D01*
X177254286Y-150994342D02*
X177301905Y-151089580D01*
X177301905Y-151089580D02*
X177349524Y-151137200D01*
X177349524Y-151137200D02*
X177444762Y-151184819D01*
X177444762Y-151184819D02*
X177635238Y-151184819D01*
X177635238Y-151184819D02*
X177730476Y-151137200D01*
X177730476Y-151137200D02*
X177778095Y-151089580D01*
X177778095Y-151089580D02*
X177825714Y-150994342D01*
X177825714Y-150994342D02*
X177825714Y-150756247D01*
X177825714Y-150756247D02*
X177778095Y-150661009D01*
X177778095Y-150661009D02*
X177730476Y-150613390D01*
X177730476Y-150613390D02*
X177635238Y-150565771D01*
X177635238Y-150565771D02*
X177444762Y-150565771D01*
X177444762Y-150565771D02*
X177349524Y-150613390D01*
X177349524Y-150613390D02*
X177301905Y-150661009D01*
X177301905Y-150661009D02*
X177254286Y-150756247D01*
X65437142Y-72084819D02*
X65103809Y-71608628D01*
X64865714Y-72084819D02*
X64865714Y-71084819D01*
X64865714Y-71084819D02*
X65246666Y-71084819D01*
X65246666Y-71084819D02*
X65341904Y-71132438D01*
X65341904Y-71132438D02*
X65389523Y-71180057D01*
X65389523Y-71180057D02*
X65437142Y-71275295D01*
X65437142Y-71275295D02*
X65437142Y-71418152D01*
X65437142Y-71418152D02*
X65389523Y-71513390D01*
X65389523Y-71513390D02*
X65341904Y-71561009D01*
X65341904Y-71561009D02*
X65246666Y-71608628D01*
X65246666Y-71608628D02*
X64865714Y-71608628D01*
X66389523Y-72084819D02*
X65818095Y-72084819D01*
X66103809Y-72084819D02*
X66103809Y-71084819D01*
X66103809Y-71084819D02*
X66008571Y-71227676D01*
X66008571Y-71227676D02*
X65913333Y-71322914D01*
X65913333Y-71322914D02*
X65818095Y-71370533D01*
X67008571Y-71084819D02*
X67103809Y-71084819D01*
X67103809Y-71084819D02*
X67199047Y-71132438D01*
X67199047Y-71132438D02*
X67246666Y-71180057D01*
X67246666Y-71180057D02*
X67294285Y-71275295D01*
X67294285Y-71275295D02*
X67341904Y-71465771D01*
X67341904Y-71465771D02*
X67341904Y-71703866D01*
X67341904Y-71703866D02*
X67294285Y-71894342D01*
X67294285Y-71894342D02*
X67246666Y-71989580D01*
X67246666Y-71989580D02*
X67199047Y-72037200D01*
X67199047Y-72037200D02*
X67103809Y-72084819D01*
X67103809Y-72084819D02*
X67008571Y-72084819D01*
X67008571Y-72084819D02*
X66913333Y-72037200D01*
X66913333Y-72037200D02*
X66865714Y-71989580D01*
X66865714Y-71989580D02*
X66818095Y-71894342D01*
X66818095Y-71894342D02*
X66770476Y-71703866D01*
X66770476Y-71703866D02*
X66770476Y-71465771D01*
X66770476Y-71465771D02*
X66818095Y-71275295D01*
X66818095Y-71275295D02*
X66865714Y-71180057D01*
X66865714Y-71180057D02*
X66913333Y-71132438D01*
X66913333Y-71132438D02*
X67008571Y-71084819D01*
X176301905Y-85184819D02*
X176301905Y-84184819D01*
X176301905Y-84184819D02*
X176540000Y-84184819D01*
X176540000Y-84184819D02*
X176682857Y-84232438D01*
X176682857Y-84232438D02*
X176778095Y-84327676D01*
X176778095Y-84327676D02*
X176825714Y-84422914D01*
X176825714Y-84422914D02*
X176873333Y-84613390D01*
X176873333Y-84613390D02*
X176873333Y-84756247D01*
X176873333Y-84756247D02*
X176825714Y-84946723D01*
X176825714Y-84946723D02*
X176778095Y-85041961D01*
X176778095Y-85041961D02*
X176682857Y-85137200D01*
X176682857Y-85137200D02*
X176540000Y-85184819D01*
X176540000Y-85184819D02*
X176301905Y-85184819D01*
X177206667Y-84184819D02*
X177825714Y-84184819D01*
X177825714Y-84184819D02*
X177492381Y-84565771D01*
X177492381Y-84565771D02*
X177635238Y-84565771D01*
X177635238Y-84565771D02*
X177730476Y-84613390D01*
X177730476Y-84613390D02*
X177778095Y-84661009D01*
X177778095Y-84661009D02*
X177825714Y-84756247D01*
X177825714Y-84756247D02*
X177825714Y-84994342D01*
X177825714Y-84994342D02*
X177778095Y-85089580D01*
X177778095Y-85089580D02*
X177730476Y-85137200D01*
X177730476Y-85137200D02*
X177635238Y-85184819D01*
X177635238Y-85184819D02*
X177349524Y-85184819D01*
X177349524Y-85184819D02*
X177254286Y-85137200D01*
X177254286Y-85137200D02*
X177206667Y-85089580D01*
X75778571Y-146404819D02*
X75445238Y-145928628D01*
X75207143Y-146404819D02*
X75207143Y-145404819D01*
X75207143Y-145404819D02*
X75588095Y-145404819D01*
X75588095Y-145404819D02*
X75683333Y-145452438D01*
X75683333Y-145452438D02*
X75730952Y-145500057D01*
X75730952Y-145500057D02*
X75778571Y-145595295D01*
X75778571Y-145595295D02*
X75778571Y-145738152D01*
X75778571Y-145738152D02*
X75730952Y-145833390D01*
X75730952Y-145833390D02*
X75683333Y-145881009D01*
X75683333Y-145881009D02*
X75588095Y-145928628D01*
X75588095Y-145928628D02*
X75207143Y-145928628D01*
X76064286Y-145404819D02*
X76397619Y-146404819D01*
X76397619Y-146404819D02*
X76730952Y-145404819D01*
X77588095Y-146404819D02*
X77016667Y-146404819D01*
X77302381Y-146404819D02*
X77302381Y-145404819D01*
X77302381Y-145404819D02*
X77207143Y-145547676D01*
X77207143Y-145547676D02*
X77111905Y-145642914D01*
X77111905Y-145642914D02*
X77016667Y-145690533D01*
X78445238Y-145738152D02*
X78445238Y-146404819D01*
X78207143Y-145357200D02*
X77969048Y-146071485D01*
X77969048Y-146071485D02*
X78588095Y-146071485D01*
X96913333Y-64084819D02*
X96580000Y-63608628D01*
X96341905Y-64084819D02*
X96341905Y-63084819D01*
X96341905Y-63084819D02*
X96722857Y-63084819D01*
X96722857Y-63084819D02*
X96818095Y-63132438D01*
X96818095Y-63132438D02*
X96865714Y-63180057D01*
X96865714Y-63180057D02*
X96913333Y-63275295D01*
X96913333Y-63275295D02*
X96913333Y-63418152D01*
X96913333Y-63418152D02*
X96865714Y-63513390D01*
X96865714Y-63513390D02*
X96818095Y-63561009D01*
X96818095Y-63561009D02*
X96722857Y-63608628D01*
X96722857Y-63608628D02*
X96341905Y-63608628D01*
X97246667Y-63084819D02*
X97865714Y-63084819D01*
X97865714Y-63084819D02*
X97532381Y-63465771D01*
X97532381Y-63465771D02*
X97675238Y-63465771D01*
X97675238Y-63465771D02*
X97770476Y-63513390D01*
X97770476Y-63513390D02*
X97818095Y-63561009D01*
X97818095Y-63561009D02*
X97865714Y-63656247D01*
X97865714Y-63656247D02*
X97865714Y-63894342D01*
X97865714Y-63894342D02*
X97818095Y-63989580D01*
X97818095Y-63989580D02*
X97770476Y-64037200D01*
X97770476Y-64037200D02*
X97675238Y-64084819D01*
X97675238Y-64084819D02*
X97389524Y-64084819D01*
X97389524Y-64084819D02*
X97294286Y-64037200D01*
X97294286Y-64037200D02*
X97246667Y-63989580D01*
X169463333Y-103374819D02*
X169130000Y-102898628D01*
X168891905Y-103374819D02*
X168891905Y-102374819D01*
X168891905Y-102374819D02*
X169272857Y-102374819D01*
X169272857Y-102374819D02*
X169368095Y-102422438D01*
X169368095Y-102422438D02*
X169415714Y-102470057D01*
X169415714Y-102470057D02*
X169463333Y-102565295D01*
X169463333Y-102565295D02*
X169463333Y-102708152D01*
X169463333Y-102708152D02*
X169415714Y-102803390D01*
X169415714Y-102803390D02*
X169368095Y-102851009D01*
X169368095Y-102851009D02*
X169272857Y-102898628D01*
X169272857Y-102898628D02*
X168891905Y-102898628D01*
X169796667Y-102374819D02*
X170463333Y-102374819D01*
X170463333Y-102374819D02*
X170034762Y-103374819D01*
X100985238Y-133454819D02*
X100985238Y-134169104D01*
X100985238Y-134169104D02*
X100937619Y-134311961D01*
X100937619Y-134311961D02*
X100842381Y-134407200D01*
X100842381Y-134407200D02*
X100699524Y-134454819D01*
X100699524Y-134454819D02*
X100604286Y-134454819D01*
X101461429Y-134454819D02*
X101461429Y-133454819D01*
X101461429Y-133454819D02*
X101794762Y-134169104D01*
X101794762Y-134169104D02*
X102128095Y-133454819D01*
X102128095Y-133454819D02*
X102128095Y-134454819D01*
X102604286Y-134454819D02*
X102604286Y-133454819D01*
X102604286Y-133454819D02*
X102842381Y-133454819D01*
X102842381Y-133454819D02*
X102985238Y-133502438D01*
X102985238Y-133502438D02*
X103080476Y-133597676D01*
X103080476Y-133597676D02*
X103128095Y-133692914D01*
X103128095Y-133692914D02*
X103175714Y-133883390D01*
X103175714Y-133883390D02*
X103175714Y-134026247D01*
X103175714Y-134026247D02*
X103128095Y-134216723D01*
X103128095Y-134216723D02*
X103080476Y-134311961D01*
X103080476Y-134311961D02*
X102985238Y-134407200D01*
X102985238Y-134407200D02*
X102842381Y-134454819D01*
X102842381Y-134454819D02*
X102604286Y-134454819D01*
X104032857Y-133788152D02*
X104032857Y-134454819D01*
X103794762Y-133407200D02*
X103556667Y-134121485D01*
X103556667Y-134121485D02*
X104175714Y-134121485D01*
X133286666Y-59454819D02*
X133286666Y-60169104D01*
X133286666Y-60169104D02*
X133239047Y-60311961D01*
X133239047Y-60311961D02*
X133143809Y-60407200D01*
X133143809Y-60407200D02*
X133000952Y-60454819D01*
X133000952Y-60454819D02*
X132905714Y-60454819D01*
X134191428Y-59788152D02*
X134191428Y-60454819D01*
X133953333Y-59407200D02*
X133715238Y-60121485D01*
X133715238Y-60121485D02*
X134334285Y-60121485D01*
X62857142Y-148859580D02*
X62809523Y-148907200D01*
X62809523Y-148907200D02*
X62666666Y-148954819D01*
X62666666Y-148954819D02*
X62571428Y-148954819D01*
X62571428Y-148954819D02*
X62428571Y-148907200D01*
X62428571Y-148907200D02*
X62333333Y-148811961D01*
X62333333Y-148811961D02*
X62285714Y-148716723D01*
X62285714Y-148716723D02*
X62238095Y-148526247D01*
X62238095Y-148526247D02*
X62238095Y-148383390D01*
X62238095Y-148383390D02*
X62285714Y-148192914D01*
X62285714Y-148192914D02*
X62333333Y-148097676D01*
X62333333Y-148097676D02*
X62428571Y-148002438D01*
X62428571Y-148002438D02*
X62571428Y-147954819D01*
X62571428Y-147954819D02*
X62666666Y-147954819D01*
X62666666Y-147954819D02*
X62809523Y-148002438D01*
X62809523Y-148002438D02*
X62857142Y-148050057D01*
X63809523Y-148954819D02*
X63238095Y-148954819D01*
X63523809Y-148954819D02*
X63523809Y-147954819D01*
X63523809Y-147954819D02*
X63428571Y-148097676D01*
X63428571Y-148097676D02*
X63333333Y-148192914D01*
X63333333Y-148192914D02*
X63238095Y-148240533D01*
X64666666Y-148288152D02*
X64666666Y-148954819D01*
X64428571Y-147907200D02*
X64190476Y-148621485D01*
X64190476Y-148621485D02*
X64809523Y-148621485D01*
X159333333Y-100859580D02*
X159285714Y-100907200D01*
X159285714Y-100907200D02*
X159142857Y-100954819D01*
X159142857Y-100954819D02*
X159047619Y-100954819D01*
X159047619Y-100954819D02*
X158904762Y-100907200D01*
X158904762Y-100907200D02*
X158809524Y-100811961D01*
X158809524Y-100811961D02*
X158761905Y-100716723D01*
X158761905Y-100716723D02*
X158714286Y-100526247D01*
X158714286Y-100526247D02*
X158714286Y-100383390D01*
X158714286Y-100383390D02*
X158761905Y-100192914D01*
X158761905Y-100192914D02*
X158809524Y-100097676D01*
X158809524Y-100097676D02*
X158904762Y-100002438D01*
X158904762Y-100002438D02*
X159047619Y-99954819D01*
X159047619Y-99954819D02*
X159142857Y-99954819D01*
X159142857Y-99954819D02*
X159285714Y-100002438D01*
X159285714Y-100002438D02*
X159333333Y-100050057D01*
X159809524Y-100954819D02*
X160000000Y-100954819D01*
X160000000Y-100954819D02*
X160095238Y-100907200D01*
X160095238Y-100907200D02*
X160142857Y-100859580D01*
X160142857Y-100859580D02*
X160238095Y-100716723D01*
X160238095Y-100716723D02*
X160285714Y-100526247D01*
X160285714Y-100526247D02*
X160285714Y-100145295D01*
X160285714Y-100145295D02*
X160238095Y-100050057D01*
X160238095Y-100050057D02*
X160190476Y-100002438D01*
X160190476Y-100002438D02*
X160095238Y-99954819D01*
X160095238Y-99954819D02*
X159904762Y-99954819D01*
X159904762Y-99954819D02*
X159809524Y-100002438D01*
X159809524Y-100002438D02*
X159761905Y-100050057D01*
X159761905Y-100050057D02*
X159714286Y-100145295D01*
X159714286Y-100145295D02*
X159714286Y-100383390D01*
X159714286Y-100383390D02*
X159761905Y-100478628D01*
X159761905Y-100478628D02*
X159809524Y-100526247D01*
X159809524Y-100526247D02*
X159904762Y-100573866D01*
X159904762Y-100573866D02*
X160095238Y-100573866D01*
X160095238Y-100573866D02*
X160190476Y-100526247D01*
X160190476Y-100526247D02*
X160238095Y-100478628D01*
X160238095Y-100478628D02*
X160285714Y-100383390D01*
X161437142Y-72084819D02*
X161103809Y-71608628D01*
X160865714Y-72084819D02*
X160865714Y-71084819D01*
X160865714Y-71084819D02*
X161246666Y-71084819D01*
X161246666Y-71084819D02*
X161341904Y-71132438D01*
X161341904Y-71132438D02*
X161389523Y-71180057D01*
X161389523Y-71180057D02*
X161437142Y-71275295D01*
X161437142Y-71275295D02*
X161437142Y-71418152D01*
X161437142Y-71418152D02*
X161389523Y-71513390D01*
X161389523Y-71513390D02*
X161341904Y-71561009D01*
X161341904Y-71561009D02*
X161246666Y-71608628D01*
X161246666Y-71608628D02*
X160865714Y-71608628D01*
X162389523Y-72084819D02*
X161818095Y-72084819D01*
X162103809Y-72084819D02*
X162103809Y-71084819D01*
X162103809Y-71084819D02*
X162008571Y-71227676D01*
X162008571Y-71227676D02*
X161913333Y-71322914D01*
X161913333Y-71322914D02*
X161818095Y-71370533D01*
X162722857Y-71084819D02*
X163341904Y-71084819D01*
X163341904Y-71084819D02*
X163008571Y-71465771D01*
X163008571Y-71465771D02*
X163151428Y-71465771D01*
X163151428Y-71465771D02*
X163246666Y-71513390D01*
X163246666Y-71513390D02*
X163294285Y-71561009D01*
X163294285Y-71561009D02*
X163341904Y-71656247D01*
X163341904Y-71656247D02*
X163341904Y-71894342D01*
X163341904Y-71894342D02*
X163294285Y-71989580D01*
X163294285Y-71989580D02*
X163246666Y-72037200D01*
X163246666Y-72037200D02*
X163151428Y-72084819D01*
X163151428Y-72084819D02*
X162865714Y-72084819D01*
X162865714Y-72084819D02*
X162770476Y-72037200D01*
X162770476Y-72037200D02*
X162722857Y-71989580D01*
X129437142Y-120084819D02*
X129103809Y-119608628D01*
X128865714Y-120084819D02*
X128865714Y-119084819D01*
X128865714Y-119084819D02*
X129246666Y-119084819D01*
X129246666Y-119084819D02*
X129341904Y-119132438D01*
X129341904Y-119132438D02*
X129389523Y-119180057D01*
X129389523Y-119180057D02*
X129437142Y-119275295D01*
X129437142Y-119275295D02*
X129437142Y-119418152D01*
X129437142Y-119418152D02*
X129389523Y-119513390D01*
X129389523Y-119513390D02*
X129341904Y-119561009D01*
X129341904Y-119561009D02*
X129246666Y-119608628D01*
X129246666Y-119608628D02*
X128865714Y-119608628D01*
X129818095Y-119180057D02*
X129865714Y-119132438D01*
X129865714Y-119132438D02*
X129960952Y-119084819D01*
X129960952Y-119084819D02*
X130199047Y-119084819D01*
X130199047Y-119084819D02*
X130294285Y-119132438D01*
X130294285Y-119132438D02*
X130341904Y-119180057D01*
X130341904Y-119180057D02*
X130389523Y-119275295D01*
X130389523Y-119275295D02*
X130389523Y-119370533D01*
X130389523Y-119370533D02*
X130341904Y-119513390D01*
X130341904Y-119513390D02*
X129770476Y-120084819D01*
X129770476Y-120084819D02*
X130389523Y-120084819D01*
X131008571Y-119084819D02*
X131103809Y-119084819D01*
X131103809Y-119084819D02*
X131199047Y-119132438D01*
X131199047Y-119132438D02*
X131246666Y-119180057D01*
X131246666Y-119180057D02*
X131294285Y-119275295D01*
X131294285Y-119275295D02*
X131341904Y-119465771D01*
X131341904Y-119465771D02*
X131341904Y-119703866D01*
X131341904Y-119703866D02*
X131294285Y-119894342D01*
X131294285Y-119894342D02*
X131246666Y-119989580D01*
X131246666Y-119989580D02*
X131199047Y-120037200D01*
X131199047Y-120037200D02*
X131103809Y-120084819D01*
X131103809Y-120084819D02*
X131008571Y-120084819D01*
X131008571Y-120084819D02*
X130913333Y-120037200D01*
X130913333Y-120037200D02*
X130865714Y-119989580D01*
X130865714Y-119989580D02*
X130818095Y-119894342D01*
X130818095Y-119894342D02*
X130770476Y-119703866D01*
X130770476Y-119703866D02*
X130770476Y-119465771D01*
X130770476Y-119465771D02*
X130818095Y-119275295D01*
X130818095Y-119275295D02*
X130865714Y-119180057D01*
X130865714Y-119180057D02*
X130913333Y-119132438D01*
X130913333Y-119132438D02*
X131008571Y-119084819D01*
X36215238Y-133454819D02*
X36215238Y-134169104D01*
X36215238Y-134169104D02*
X36167619Y-134311961D01*
X36167619Y-134311961D02*
X36072381Y-134407200D01*
X36072381Y-134407200D02*
X35929524Y-134454819D01*
X35929524Y-134454819D02*
X35834286Y-134454819D01*
X36691429Y-134454819D02*
X36691429Y-133454819D01*
X36691429Y-133454819D02*
X37024762Y-134169104D01*
X37024762Y-134169104D02*
X37358095Y-133454819D01*
X37358095Y-133454819D02*
X37358095Y-134454819D01*
X37834286Y-134454819D02*
X37834286Y-133454819D01*
X37834286Y-133454819D02*
X38072381Y-133454819D01*
X38072381Y-133454819D02*
X38215238Y-133502438D01*
X38215238Y-133502438D02*
X38310476Y-133597676D01*
X38310476Y-133597676D02*
X38358095Y-133692914D01*
X38358095Y-133692914D02*
X38405714Y-133883390D01*
X38405714Y-133883390D02*
X38405714Y-134026247D01*
X38405714Y-134026247D02*
X38358095Y-134216723D01*
X38358095Y-134216723D02*
X38310476Y-134311961D01*
X38310476Y-134311961D02*
X38215238Y-134407200D01*
X38215238Y-134407200D02*
X38072381Y-134454819D01*
X38072381Y-134454819D02*
X37834286Y-134454819D01*
X39358095Y-134454819D02*
X38786667Y-134454819D01*
X39072381Y-134454819D02*
X39072381Y-133454819D01*
X39072381Y-133454819D02*
X38977143Y-133597676D01*
X38977143Y-133597676D02*
X38881905Y-133692914D01*
X38881905Y-133692914D02*
X38786667Y-133740533D01*
X108254761Y-74404819D02*
X107921428Y-73928628D01*
X107683333Y-74404819D02*
X107683333Y-73404819D01*
X107683333Y-73404819D02*
X108064285Y-73404819D01*
X108064285Y-73404819D02*
X108159523Y-73452438D01*
X108159523Y-73452438D02*
X108207142Y-73500057D01*
X108207142Y-73500057D02*
X108254761Y-73595295D01*
X108254761Y-73595295D02*
X108254761Y-73738152D01*
X108254761Y-73738152D02*
X108207142Y-73833390D01*
X108207142Y-73833390D02*
X108159523Y-73881009D01*
X108159523Y-73881009D02*
X108064285Y-73928628D01*
X108064285Y-73928628D02*
X107683333Y-73928628D01*
X108540476Y-73404819D02*
X108873809Y-74404819D01*
X108873809Y-74404819D02*
X109207142Y-73404819D01*
X109445238Y-73404819D02*
X110064285Y-73404819D01*
X110064285Y-73404819D02*
X109730952Y-73785771D01*
X109730952Y-73785771D02*
X109873809Y-73785771D01*
X109873809Y-73785771D02*
X109969047Y-73833390D01*
X109969047Y-73833390D02*
X110016666Y-73881009D01*
X110016666Y-73881009D02*
X110064285Y-73976247D01*
X110064285Y-73976247D02*
X110064285Y-74214342D01*
X110064285Y-74214342D02*
X110016666Y-74309580D01*
X110016666Y-74309580D02*
X109969047Y-74357200D01*
X109969047Y-74357200D02*
X109873809Y-74404819D01*
X109873809Y-74404819D02*
X109588095Y-74404819D01*
X109588095Y-74404819D02*
X109492857Y-74357200D01*
X109492857Y-74357200D02*
X109445238Y-74309580D01*
X94857142Y-148859580D02*
X94809523Y-148907200D01*
X94809523Y-148907200D02*
X94666666Y-148954819D01*
X94666666Y-148954819D02*
X94571428Y-148954819D01*
X94571428Y-148954819D02*
X94428571Y-148907200D01*
X94428571Y-148907200D02*
X94333333Y-148811961D01*
X94333333Y-148811961D02*
X94285714Y-148716723D01*
X94285714Y-148716723D02*
X94238095Y-148526247D01*
X94238095Y-148526247D02*
X94238095Y-148383390D01*
X94238095Y-148383390D02*
X94285714Y-148192914D01*
X94285714Y-148192914D02*
X94333333Y-148097676D01*
X94333333Y-148097676D02*
X94428571Y-148002438D01*
X94428571Y-148002438D02*
X94571428Y-147954819D01*
X94571428Y-147954819D02*
X94666666Y-147954819D01*
X94666666Y-147954819D02*
X94809523Y-148002438D01*
X94809523Y-148002438D02*
X94857142Y-148050057D01*
X95809523Y-148954819D02*
X95238095Y-148954819D01*
X95523809Y-148954819D02*
X95523809Y-147954819D01*
X95523809Y-147954819D02*
X95428571Y-148097676D01*
X95428571Y-148097676D02*
X95333333Y-148192914D01*
X95333333Y-148192914D02*
X95238095Y-148240533D01*
X96714285Y-147954819D02*
X96238095Y-147954819D01*
X96238095Y-147954819D02*
X96190476Y-148431009D01*
X96190476Y-148431009D02*
X96238095Y-148383390D01*
X96238095Y-148383390D02*
X96333333Y-148335771D01*
X96333333Y-148335771D02*
X96571428Y-148335771D01*
X96571428Y-148335771D02*
X96666666Y-148383390D01*
X96666666Y-148383390D02*
X96714285Y-148431009D01*
X96714285Y-148431009D02*
X96761904Y-148526247D01*
X96761904Y-148526247D02*
X96761904Y-148764342D01*
X96761904Y-148764342D02*
X96714285Y-148859580D01*
X96714285Y-148859580D02*
X96666666Y-148907200D01*
X96666666Y-148907200D02*
X96571428Y-148954819D01*
X96571428Y-148954819D02*
X96333333Y-148954819D01*
X96333333Y-148954819D02*
X96238095Y-148907200D01*
X96238095Y-148907200D02*
X96190476Y-148859580D01*
X127333333Y-100859580D02*
X127285714Y-100907200D01*
X127285714Y-100907200D02*
X127142857Y-100954819D01*
X127142857Y-100954819D02*
X127047619Y-100954819D01*
X127047619Y-100954819D02*
X126904762Y-100907200D01*
X126904762Y-100907200D02*
X126809524Y-100811961D01*
X126809524Y-100811961D02*
X126761905Y-100716723D01*
X126761905Y-100716723D02*
X126714286Y-100526247D01*
X126714286Y-100526247D02*
X126714286Y-100383390D01*
X126714286Y-100383390D02*
X126761905Y-100192914D01*
X126761905Y-100192914D02*
X126809524Y-100097676D01*
X126809524Y-100097676D02*
X126904762Y-100002438D01*
X126904762Y-100002438D02*
X127047619Y-99954819D01*
X127047619Y-99954819D02*
X127142857Y-99954819D01*
X127142857Y-99954819D02*
X127285714Y-100002438D01*
X127285714Y-100002438D02*
X127333333Y-100050057D01*
X127904762Y-100383390D02*
X127809524Y-100335771D01*
X127809524Y-100335771D02*
X127761905Y-100288152D01*
X127761905Y-100288152D02*
X127714286Y-100192914D01*
X127714286Y-100192914D02*
X127714286Y-100145295D01*
X127714286Y-100145295D02*
X127761905Y-100050057D01*
X127761905Y-100050057D02*
X127809524Y-100002438D01*
X127809524Y-100002438D02*
X127904762Y-99954819D01*
X127904762Y-99954819D02*
X128095238Y-99954819D01*
X128095238Y-99954819D02*
X128190476Y-100002438D01*
X128190476Y-100002438D02*
X128238095Y-100050057D01*
X128238095Y-100050057D02*
X128285714Y-100145295D01*
X128285714Y-100145295D02*
X128285714Y-100192914D01*
X128285714Y-100192914D02*
X128238095Y-100288152D01*
X128238095Y-100288152D02*
X128190476Y-100335771D01*
X128190476Y-100335771D02*
X128095238Y-100383390D01*
X128095238Y-100383390D02*
X127904762Y-100383390D01*
X127904762Y-100383390D02*
X127809524Y-100431009D01*
X127809524Y-100431009D02*
X127761905Y-100478628D01*
X127761905Y-100478628D02*
X127714286Y-100573866D01*
X127714286Y-100573866D02*
X127714286Y-100764342D01*
X127714286Y-100764342D02*
X127761905Y-100859580D01*
X127761905Y-100859580D02*
X127809524Y-100907200D01*
X127809524Y-100907200D02*
X127904762Y-100954819D01*
X127904762Y-100954819D02*
X128095238Y-100954819D01*
X128095238Y-100954819D02*
X128190476Y-100907200D01*
X128190476Y-100907200D02*
X128238095Y-100859580D01*
X128238095Y-100859580D02*
X128285714Y-100764342D01*
X128285714Y-100764342D02*
X128285714Y-100573866D01*
X128285714Y-100573866D02*
X128238095Y-100478628D01*
X128238095Y-100478628D02*
X128190476Y-100431009D01*
X128190476Y-100431009D02*
X128095238Y-100383390D01*
X65437142Y-144084819D02*
X65103809Y-143608628D01*
X64865714Y-144084819D02*
X64865714Y-143084819D01*
X64865714Y-143084819D02*
X65246666Y-143084819D01*
X65246666Y-143084819D02*
X65341904Y-143132438D01*
X65341904Y-143132438D02*
X65389523Y-143180057D01*
X65389523Y-143180057D02*
X65437142Y-143275295D01*
X65437142Y-143275295D02*
X65437142Y-143418152D01*
X65437142Y-143418152D02*
X65389523Y-143513390D01*
X65389523Y-143513390D02*
X65341904Y-143561009D01*
X65341904Y-143561009D02*
X65246666Y-143608628D01*
X65246666Y-143608628D02*
X64865714Y-143608628D01*
X65818095Y-143180057D02*
X65865714Y-143132438D01*
X65865714Y-143132438D02*
X65960952Y-143084819D01*
X65960952Y-143084819D02*
X66199047Y-143084819D01*
X66199047Y-143084819D02*
X66294285Y-143132438D01*
X66294285Y-143132438D02*
X66341904Y-143180057D01*
X66341904Y-143180057D02*
X66389523Y-143275295D01*
X66389523Y-143275295D02*
X66389523Y-143370533D01*
X66389523Y-143370533D02*
X66341904Y-143513390D01*
X66341904Y-143513390D02*
X65770476Y-144084819D01*
X65770476Y-144084819D02*
X66389523Y-144084819D01*
X66770476Y-143180057D02*
X66818095Y-143132438D01*
X66818095Y-143132438D02*
X66913333Y-143084819D01*
X66913333Y-143084819D02*
X67151428Y-143084819D01*
X67151428Y-143084819D02*
X67246666Y-143132438D01*
X67246666Y-143132438D02*
X67294285Y-143180057D01*
X67294285Y-143180057D02*
X67341904Y-143275295D01*
X67341904Y-143275295D02*
X67341904Y-143370533D01*
X67341904Y-143370533D02*
X67294285Y-143513390D01*
X67294285Y-143513390D02*
X66722857Y-144084819D01*
X66722857Y-144084819D02*
X67341904Y-144084819D01*
X176301905Y-107184819D02*
X176301905Y-106184819D01*
X176301905Y-106184819D02*
X176540000Y-106184819D01*
X176540000Y-106184819D02*
X176682857Y-106232438D01*
X176682857Y-106232438D02*
X176778095Y-106327676D01*
X176778095Y-106327676D02*
X176825714Y-106422914D01*
X176825714Y-106422914D02*
X176873333Y-106613390D01*
X176873333Y-106613390D02*
X176873333Y-106756247D01*
X176873333Y-106756247D02*
X176825714Y-106946723D01*
X176825714Y-106946723D02*
X176778095Y-107041961D01*
X176778095Y-107041961D02*
X176682857Y-107137200D01*
X176682857Y-107137200D02*
X176540000Y-107184819D01*
X176540000Y-107184819D02*
X176301905Y-107184819D01*
X177730476Y-106518152D02*
X177730476Y-107184819D01*
X177492381Y-106137200D02*
X177254286Y-106851485D01*
X177254286Y-106851485D02*
X177873333Y-106851485D01*
X43778571Y-146404819D02*
X43445238Y-145928628D01*
X43207143Y-146404819D02*
X43207143Y-145404819D01*
X43207143Y-145404819D02*
X43588095Y-145404819D01*
X43588095Y-145404819D02*
X43683333Y-145452438D01*
X43683333Y-145452438D02*
X43730952Y-145500057D01*
X43730952Y-145500057D02*
X43778571Y-145595295D01*
X43778571Y-145595295D02*
X43778571Y-145738152D01*
X43778571Y-145738152D02*
X43730952Y-145833390D01*
X43730952Y-145833390D02*
X43683333Y-145881009D01*
X43683333Y-145881009D02*
X43588095Y-145928628D01*
X43588095Y-145928628D02*
X43207143Y-145928628D01*
X44064286Y-145404819D02*
X44397619Y-146404819D01*
X44397619Y-146404819D02*
X44730952Y-145404819D01*
X45588095Y-146404819D02*
X45016667Y-146404819D01*
X45302381Y-146404819D02*
X45302381Y-145404819D01*
X45302381Y-145404819D02*
X45207143Y-145547676D01*
X45207143Y-145547676D02*
X45111905Y-145642914D01*
X45111905Y-145642914D02*
X45016667Y-145690533D01*
X45921429Y-145404819D02*
X46540476Y-145404819D01*
X46540476Y-145404819D02*
X46207143Y-145785771D01*
X46207143Y-145785771D02*
X46350000Y-145785771D01*
X46350000Y-145785771D02*
X46445238Y-145833390D01*
X46445238Y-145833390D02*
X46492857Y-145881009D01*
X46492857Y-145881009D02*
X46540476Y-145976247D01*
X46540476Y-145976247D02*
X46540476Y-146214342D01*
X46540476Y-146214342D02*
X46492857Y-146309580D01*
X46492857Y-146309580D02*
X46445238Y-146357200D01*
X46445238Y-146357200D02*
X46350000Y-146404819D01*
X46350000Y-146404819D02*
X46064286Y-146404819D01*
X46064286Y-146404819D02*
X45969048Y-146357200D01*
X45969048Y-146357200D02*
X45921429Y-146309580D01*
X129437142Y-144084819D02*
X129103809Y-143608628D01*
X128865714Y-144084819D02*
X128865714Y-143084819D01*
X128865714Y-143084819D02*
X129246666Y-143084819D01*
X129246666Y-143084819D02*
X129341904Y-143132438D01*
X129341904Y-143132438D02*
X129389523Y-143180057D01*
X129389523Y-143180057D02*
X129437142Y-143275295D01*
X129437142Y-143275295D02*
X129437142Y-143418152D01*
X129437142Y-143418152D02*
X129389523Y-143513390D01*
X129389523Y-143513390D02*
X129341904Y-143561009D01*
X129341904Y-143561009D02*
X129246666Y-143608628D01*
X129246666Y-143608628D02*
X128865714Y-143608628D01*
X129818095Y-143180057D02*
X129865714Y-143132438D01*
X129865714Y-143132438D02*
X129960952Y-143084819D01*
X129960952Y-143084819D02*
X130199047Y-143084819D01*
X130199047Y-143084819D02*
X130294285Y-143132438D01*
X130294285Y-143132438D02*
X130341904Y-143180057D01*
X130341904Y-143180057D02*
X130389523Y-143275295D01*
X130389523Y-143275295D02*
X130389523Y-143370533D01*
X130389523Y-143370533D02*
X130341904Y-143513390D01*
X130341904Y-143513390D02*
X129770476Y-144084819D01*
X129770476Y-144084819D02*
X130389523Y-144084819D01*
X131246666Y-143418152D02*
X131246666Y-144084819D01*
X131008571Y-143037200D02*
X130770476Y-143751485D01*
X130770476Y-143751485D02*
X131389523Y-143751485D01*
X44254761Y-122404819D02*
X43921428Y-121928628D01*
X43683333Y-122404819D02*
X43683333Y-121404819D01*
X43683333Y-121404819D02*
X44064285Y-121404819D01*
X44064285Y-121404819D02*
X44159523Y-121452438D01*
X44159523Y-121452438D02*
X44207142Y-121500057D01*
X44207142Y-121500057D02*
X44254761Y-121595295D01*
X44254761Y-121595295D02*
X44254761Y-121738152D01*
X44254761Y-121738152D02*
X44207142Y-121833390D01*
X44207142Y-121833390D02*
X44159523Y-121881009D01*
X44159523Y-121881009D02*
X44064285Y-121928628D01*
X44064285Y-121928628D02*
X43683333Y-121928628D01*
X44540476Y-121404819D02*
X44873809Y-122404819D01*
X44873809Y-122404819D02*
X45207142Y-121404819D01*
X45588095Y-122404819D02*
X45778571Y-122404819D01*
X45778571Y-122404819D02*
X45873809Y-122357200D01*
X45873809Y-122357200D02*
X45921428Y-122309580D01*
X45921428Y-122309580D02*
X46016666Y-122166723D01*
X46016666Y-122166723D02*
X46064285Y-121976247D01*
X46064285Y-121976247D02*
X46064285Y-121595295D01*
X46064285Y-121595295D02*
X46016666Y-121500057D01*
X46016666Y-121500057D02*
X45969047Y-121452438D01*
X45969047Y-121452438D02*
X45873809Y-121404819D01*
X45873809Y-121404819D02*
X45683333Y-121404819D01*
X45683333Y-121404819D02*
X45588095Y-121452438D01*
X45588095Y-121452438D02*
X45540476Y-121500057D01*
X45540476Y-121500057D02*
X45492857Y-121595295D01*
X45492857Y-121595295D02*
X45492857Y-121833390D01*
X45492857Y-121833390D02*
X45540476Y-121928628D01*
X45540476Y-121928628D02*
X45588095Y-121976247D01*
X45588095Y-121976247D02*
X45683333Y-122023866D01*
X45683333Y-122023866D02*
X45873809Y-122023866D01*
X45873809Y-122023866D02*
X45969047Y-121976247D01*
X45969047Y-121976247D02*
X46016666Y-121928628D01*
X46016666Y-121928628D02*
X46064285Y-121833390D01*
X158857142Y-124859580D02*
X158809523Y-124907200D01*
X158809523Y-124907200D02*
X158666666Y-124954819D01*
X158666666Y-124954819D02*
X158571428Y-124954819D01*
X158571428Y-124954819D02*
X158428571Y-124907200D01*
X158428571Y-124907200D02*
X158333333Y-124811961D01*
X158333333Y-124811961D02*
X158285714Y-124716723D01*
X158285714Y-124716723D02*
X158238095Y-124526247D01*
X158238095Y-124526247D02*
X158238095Y-124383390D01*
X158238095Y-124383390D02*
X158285714Y-124192914D01*
X158285714Y-124192914D02*
X158333333Y-124097676D01*
X158333333Y-124097676D02*
X158428571Y-124002438D01*
X158428571Y-124002438D02*
X158571428Y-123954819D01*
X158571428Y-123954819D02*
X158666666Y-123954819D01*
X158666666Y-123954819D02*
X158809523Y-124002438D01*
X158809523Y-124002438D02*
X158857142Y-124050057D01*
X159809523Y-124954819D02*
X159238095Y-124954819D01*
X159523809Y-124954819D02*
X159523809Y-123954819D01*
X159523809Y-123954819D02*
X159428571Y-124097676D01*
X159428571Y-124097676D02*
X159333333Y-124192914D01*
X159333333Y-124192914D02*
X159238095Y-124240533D01*
X160142857Y-123954819D02*
X160761904Y-123954819D01*
X160761904Y-123954819D02*
X160428571Y-124335771D01*
X160428571Y-124335771D02*
X160571428Y-124335771D01*
X160571428Y-124335771D02*
X160666666Y-124383390D01*
X160666666Y-124383390D02*
X160714285Y-124431009D01*
X160714285Y-124431009D02*
X160761904Y-124526247D01*
X160761904Y-124526247D02*
X160761904Y-124764342D01*
X160761904Y-124764342D02*
X160714285Y-124859580D01*
X160714285Y-124859580D02*
X160666666Y-124907200D01*
X160666666Y-124907200D02*
X160571428Y-124954819D01*
X160571428Y-124954819D02*
X160285714Y-124954819D01*
X160285714Y-124954819D02*
X160190476Y-124907200D01*
X160190476Y-124907200D02*
X160142857Y-124859580D01*
X62857142Y-124859580D02*
X62809523Y-124907200D01*
X62809523Y-124907200D02*
X62666666Y-124954819D01*
X62666666Y-124954819D02*
X62571428Y-124954819D01*
X62571428Y-124954819D02*
X62428571Y-124907200D01*
X62428571Y-124907200D02*
X62333333Y-124811961D01*
X62333333Y-124811961D02*
X62285714Y-124716723D01*
X62285714Y-124716723D02*
X62238095Y-124526247D01*
X62238095Y-124526247D02*
X62238095Y-124383390D01*
X62238095Y-124383390D02*
X62285714Y-124192914D01*
X62285714Y-124192914D02*
X62333333Y-124097676D01*
X62333333Y-124097676D02*
X62428571Y-124002438D01*
X62428571Y-124002438D02*
X62571428Y-123954819D01*
X62571428Y-123954819D02*
X62666666Y-123954819D01*
X62666666Y-123954819D02*
X62809523Y-124002438D01*
X62809523Y-124002438D02*
X62857142Y-124050057D01*
X63809523Y-124954819D02*
X63238095Y-124954819D01*
X63523809Y-124954819D02*
X63523809Y-123954819D01*
X63523809Y-123954819D02*
X63428571Y-124097676D01*
X63428571Y-124097676D02*
X63333333Y-124192914D01*
X63333333Y-124192914D02*
X63238095Y-124240533D01*
X64428571Y-123954819D02*
X64523809Y-123954819D01*
X64523809Y-123954819D02*
X64619047Y-124002438D01*
X64619047Y-124002438D02*
X64666666Y-124050057D01*
X64666666Y-124050057D02*
X64714285Y-124145295D01*
X64714285Y-124145295D02*
X64761904Y-124335771D01*
X64761904Y-124335771D02*
X64761904Y-124573866D01*
X64761904Y-124573866D02*
X64714285Y-124764342D01*
X64714285Y-124764342D02*
X64666666Y-124859580D01*
X64666666Y-124859580D02*
X64619047Y-124907200D01*
X64619047Y-124907200D02*
X64523809Y-124954819D01*
X64523809Y-124954819D02*
X64428571Y-124954819D01*
X64428571Y-124954819D02*
X64333333Y-124907200D01*
X64333333Y-124907200D02*
X64285714Y-124859580D01*
X64285714Y-124859580D02*
X64238095Y-124764342D01*
X64238095Y-124764342D02*
X64190476Y-124573866D01*
X64190476Y-124573866D02*
X64190476Y-124335771D01*
X64190476Y-124335771D02*
X64238095Y-124145295D01*
X64238095Y-124145295D02*
X64285714Y-124050057D01*
X64285714Y-124050057D02*
X64333333Y-124002438D01*
X64333333Y-124002438D02*
X64428571Y-123954819D01*
X27916667Y-128407200D02*
X28059524Y-128454819D01*
X28059524Y-128454819D02*
X28297619Y-128454819D01*
X28297619Y-128454819D02*
X28392857Y-128407200D01*
X28392857Y-128407200D02*
X28440476Y-128359580D01*
X28440476Y-128359580D02*
X28488095Y-128264342D01*
X28488095Y-128264342D02*
X28488095Y-128169104D01*
X28488095Y-128169104D02*
X28440476Y-128073866D01*
X28440476Y-128073866D02*
X28392857Y-128026247D01*
X28392857Y-128026247D02*
X28297619Y-127978628D01*
X28297619Y-127978628D02*
X28107143Y-127931009D01*
X28107143Y-127931009D02*
X28011905Y-127883390D01*
X28011905Y-127883390D02*
X27964286Y-127835771D01*
X27964286Y-127835771D02*
X27916667Y-127740533D01*
X27916667Y-127740533D02*
X27916667Y-127645295D01*
X27916667Y-127645295D02*
X27964286Y-127550057D01*
X27964286Y-127550057D02*
X28011905Y-127502438D01*
X28011905Y-127502438D02*
X28107143Y-127454819D01*
X28107143Y-127454819D02*
X28345238Y-127454819D01*
X28345238Y-127454819D02*
X28488095Y-127502438D01*
X28821429Y-127454819D02*
X29059524Y-128454819D01*
X29059524Y-128454819D02*
X29250000Y-127740533D01*
X29250000Y-127740533D02*
X29440476Y-128454819D01*
X29440476Y-128454819D02*
X29678572Y-127454819D01*
X30488095Y-127788152D02*
X30488095Y-128454819D01*
X30250000Y-127407200D02*
X30011905Y-128121485D01*
X30011905Y-128121485D02*
X30630952Y-128121485D01*
X72913333Y-57084819D02*
X72580000Y-56608628D01*
X72341905Y-57084819D02*
X72341905Y-56084819D01*
X72341905Y-56084819D02*
X72722857Y-56084819D01*
X72722857Y-56084819D02*
X72818095Y-56132438D01*
X72818095Y-56132438D02*
X72865714Y-56180057D01*
X72865714Y-56180057D02*
X72913333Y-56275295D01*
X72913333Y-56275295D02*
X72913333Y-56418152D01*
X72913333Y-56418152D02*
X72865714Y-56513390D01*
X72865714Y-56513390D02*
X72818095Y-56561009D01*
X72818095Y-56561009D02*
X72722857Y-56608628D01*
X72722857Y-56608628D02*
X72341905Y-56608628D01*
X73770476Y-56418152D02*
X73770476Y-57084819D01*
X73532381Y-56037200D02*
X73294286Y-56751485D01*
X73294286Y-56751485D02*
X73913333Y-56751485D01*
X162607142Y-59959580D02*
X162559523Y-60007200D01*
X162559523Y-60007200D02*
X162416666Y-60054819D01*
X162416666Y-60054819D02*
X162321428Y-60054819D01*
X162321428Y-60054819D02*
X162178571Y-60007200D01*
X162178571Y-60007200D02*
X162083333Y-59911961D01*
X162083333Y-59911961D02*
X162035714Y-59816723D01*
X162035714Y-59816723D02*
X161988095Y-59626247D01*
X161988095Y-59626247D02*
X161988095Y-59483390D01*
X161988095Y-59483390D02*
X162035714Y-59292914D01*
X162035714Y-59292914D02*
X162083333Y-59197676D01*
X162083333Y-59197676D02*
X162178571Y-59102438D01*
X162178571Y-59102438D02*
X162321428Y-59054819D01*
X162321428Y-59054819D02*
X162416666Y-59054819D01*
X162416666Y-59054819D02*
X162559523Y-59102438D01*
X162559523Y-59102438D02*
X162607142Y-59150057D01*
X163559523Y-60054819D02*
X162988095Y-60054819D01*
X163273809Y-60054819D02*
X163273809Y-59054819D01*
X163273809Y-59054819D02*
X163178571Y-59197676D01*
X163178571Y-59197676D02*
X163083333Y-59292914D01*
X163083333Y-59292914D02*
X162988095Y-59340533D01*
X164035714Y-60054819D02*
X164226190Y-60054819D01*
X164226190Y-60054819D02*
X164321428Y-60007200D01*
X164321428Y-60007200D02*
X164369047Y-59959580D01*
X164369047Y-59959580D02*
X164464285Y-59816723D01*
X164464285Y-59816723D02*
X164511904Y-59626247D01*
X164511904Y-59626247D02*
X164511904Y-59245295D01*
X164511904Y-59245295D02*
X164464285Y-59150057D01*
X164464285Y-59150057D02*
X164416666Y-59102438D01*
X164416666Y-59102438D02*
X164321428Y-59054819D01*
X164321428Y-59054819D02*
X164130952Y-59054819D01*
X164130952Y-59054819D02*
X164035714Y-59102438D01*
X164035714Y-59102438D02*
X163988095Y-59150057D01*
X163988095Y-59150057D02*
X163940476Y-59245295D01*
X163940476Y-59245295D02*
X163940476Y-59483390D01*
X163940476Y-59483390D02*
X163988095Y-59578628D01*
X163988095Y-59578628D02*
X164035714Y-59626247D01*
X164035714Y-59626247D02*
X164130952Y-59673866D01*
X164130952Y-59673866D02*
X164321428Y-59673866D01*
X164321428Y-59673866D02*
X164416666Y-59626247D01*
X164416666Y-59626247D02*
X164464285Y-59578628D01*
X164464285Y-59578628D02*
X164511904Y-59483390D01*
X137857142Y-169859580D02*
X137809523Y-169907200D01*
X137809523Y-169907200D02*
X137666666Y-169954819D01*
X137666666Y-169954819D02*
X137571428Y-169954819D01*
X137571428Y-169954819D02*
X137428571Y-169907200D01*
X137428571Y-169907200D02*
X137333333Y-169811961D01*
X137333333Y-169811961D02*
X137285714Y-169716723D01*
X137285714Y-169716723D02*
X137238095Y-169526247D01*
X137238095Y-169526247D02*
X137238095Y-169383390D01*
X137238095Y-169383390D02*
X137285714Y-169192914D01*
X137285714Y-169192914D02*
X137333333Y-169097676D01*
X137333333Y-169097676D02*
X137428571Y-169002438D01*
X137428571Y-169002438D02*
X137571428Y-168954819D01*
X137571428Y-168954819D02*
X137666666Y-168954819D01*
X137666666Y-168954819D02*
X137809523Y-169002438D01*
X137809523Y-169002438D02*
X137857142Y-169050057D01*
X138809523Y-169954819D02*
X138238095Y-169954819D01*
X138523809Y-169954819D02*
X138523809Y-168954819D01*
X138523809Y-168954819D02*
X138428571Y-169097676D01*
X138428571Y-169097676D02*
X138333333Y-169192914D01*
X138333333Y-169192914D02*
X138238095Y-169240533D01*
X139380952Y-169383390D02*
X139285714Y-169335771D01*
X139285714Y-169335771D02*
X139238095Y-169288152D01*
X139238095Y-169288152D02*
X139190476Y-169192914D01*
X139190476Y-169192914D02*
X139190476Y-169145295D01*
X139190476Y-169145295D02*
X139238095Y-169050057D01*
X139238095Y-169050057D02*
X139285714Y-169002438D01*
X139285714Y-169002438D02*
X139380952Y-168954819D01*
X139380952Y-168954819D02*
X139571428Y-168954819D01*
X139571428Y-168954819D02*
X139666666Y-169002438D01*
X139666666Y-169002438D02*
X139714285Y-169050057D01*
X139714285Y-169050057D02*
X139761904Y-169145295D01*
X139761904Y-169145295D02*
X139761904Y-169192914D01*
X139761904Y-169192914D02*
X139714285Y-169288152D01*
X139714285Y-169288152D02*
X139666666Y-169335771D01*
X139666666Y-169335771D02*
X139571428Y-169383390D01*
X139571428Y-169383390D02*
X139380952Y-169383390D01*
X139380952Y-169383390D02*
X139285714Y-169431009D01*
X139285714Y-169431009D02*
X139238095Y-169478628D01*
X139238095Y-169478628D02*
X139190476Y-169573866D01*
X139190476Y-169573866D02*
X139190476Y-169764342D01*
X139190476Y-169764342D02*
X139238095Y-169859580D01*
X139238095Y-169859580D02*
X139285714Y-169907200D01*
X139285714Y-169907200D02*
X139380952Y-169954819D01*
X139380952Y-169954819D02*
X139571428Y-169954819D01*
X139571428Y-169954819D02*
X139666666Y-169907200D01*
X139666666Y-169907200D02*
X139714285Y-169859580D01*
X139714285Y-169859580D02*
X139761904Y-169764342D01*
X139761904Y-169764342D02*
X139761904Y-169573866D01*
X139761904Y-169573866D02*
X139714285Y-169478628D01*
X139714285Y-169478628D02*
X139666666Y-169431009D01*
X139666666Y-169431009D02*
X139571428Y-169383390D01*
X139778571Y-146404819D02*
X139445238Y-145928628D01*
X139207143Y-146404819D02*
X139207143Y-145404819D01*
X139207143Y-145404819D02*
X139588095Y-145404819D01*
X139588095Y-145404819D02*
X139683333Y-145452438D01*
X139683333Y-145452438D02*
X139730952Y-145500057D01*
X139730952Y-145500057D02*
X139778571Y-145595295D01*
X139778571Y-145595295D02*
X139778571Y-145738152D01*
X139778571Y-145738152D02*
X139730952Y-145833390D01*
X139730952Y-145833390D02*
X139683333Y-145881009D01*
X139683333Y-145881009D02*
X139588095Y-145928628D01*
X139588095Y-145928628D02*
X139207143Y-145928628D01*
X140064286Y-145404819D02*
X140397619Y-146404819D01*
X140397619Y-146404819D02*
X140730952Y-145404819D01*
X141588095Y-146404819D02*
X141016667Y-146404819D01*
X141302381Y-146404819D02*
X141302381Y-145404819D01*
X141302381Y-145404819D02*
X141207143Y-145547676D01*
X141207143Y-145547676D02*
X141111905Y-145642914D01*
X141111905Y-145642914D02*
X141016667Y-145690533D01*
X142445238Y-145404819D02*
X142254762Y-145404819D01*
X142254762Y-145404819D02*
X142159524Y-145452438D01*
X142159524Y-145452438D02*
X142111905Y-145500057D01*
X142111905Y-145500057D02*
X142016667Y-145642914D01*
X142016667Y-145642914D02*
X141969048Y-145833390D01*
X141969048Y-145833390D02*
X141969048Y-146214342D01*
X141969048Y-146214342D02*
X142016667Y-146309580D01*
X142016667Y-146309580D02*
X142064286Y-146357200D01*
X142064286Y-146357200D02*
X142159524Y-146404819D01*
X142159524Y-146404819D02*
X142350000Y-146404819D01*
X142350000Y-146404819D02*
X142445238Y-146357200D01*
X142445238Y-146357200D02*
X142492857Y-146309580D01*
X142492857Y-146309580D02*
X142540476Y-146214342D01*
X142540476Y-146214342D02*
X142540476Y-145976247D01*
X142540476Y-145976247D02*
X142492857Y-145881009D01*
X142492857Y-145881009D02*
X142445238Y-145833390D01*
X142445238Y-145833390D02*
X142350000Y-145785771D01*
X142350000Y-145785771D02*
X142159524Y-145785771D01*
X142159524Y-145785771D02*
X142064286Y-145833390D01*
X142064286Y-145833390D02*
X142016667Y-145881009D01*
X142016667Y-145881009D02*
X141969048Y-145976247D01*
X97437142Y-96084819D02*
X97103809Y-95608628D01*
X96865714Y-96084819D02*
X96865714Y-95084819D01*
X96865714Y-95084819D02*
X97246666Y-95084819D01*
X97246666Y-95084819D02*
X97341904Y-95132438D01*
X97341904Y-95132438D02*
X97389523Y-95180057D01*
X97389523Y-95180057D02*
X97437142Y-95275295D01*
X97437142Y-95275295D02*
X97437142Y-95418152D01*
X97437142Y-95418152D02*
X97389523Y-95513390D01*
X97389523Y-95513390D02*
X97341904Y-95561009D01*
X97341904Y-95561009D02*
X97246666Y-95608628D01*
X97246666Y-95608628D02*
X96865714Y-95608628D01*
X98389523Y-96084819D02*
X97818095Y-96084819D01*
X98103809Y-96084819D02*
X98103809Y-95084819D01*
X98103809Y-95084819D02*
X98008571Y-95227676D01*
X98008571Y-95227676D02*
X97913333Y-95322914D01*
X97913333Y-95322914D02*
X97818095Y-95370533D01*
X99294285Y-95084819D02*
X98818095Y-95084819D01*
X98818095Y-95084819D02*
X98770476Y-95561009D01*
X98770476Y-95561009D02*
X98818095Y-95513390D01*
X98818095Y-95513390D02*
X98913333Y-95465771D01*
X98913333Y-95465771D02*
X99151428Y-95465771D01*
X99151428Y-95465771D02*
X99246666Y-95513390D01*
X99246666Y-95513390D02*
X99294285Y-95561009D01*
X99294285Y-95561009D02*
X99341904Y-95656247D01*
X99341904Y-95656247D02*
X99341904Y-95894342D01*
X99341904Y-95894342D02*
X99294285Y-95989580D01*
X99294285Y-95989580D02*
X99246666Y-96037200D01*
X99246666Y-96037200D02*
X99151428Y-96084819D01*
X99151428Y-96084819D02*
X98913333Y-96084819D01*
X98913333Y-96084819D02*
X98818095Y-96037200D01*
X98818095Y-96037200D02*
X98770476Y-95989580D01*
X169463333Y-147374819D02*
X169130000Y-146898628D01*
X168891905Y-147374819D02*
X168891905Y-146374819D01*
X168891905Y-146374819D02*
X169272857Y-146374819D01*
X169272857Y-146374819D02*
X169368095Y-146422438D01*
X169368095Y-146422438D02*
X169415714Y-146470057D01*
X169415714Y-146470057D02*
X169463333Y-146565295D01*
X169463333Y-146565295D02*
X169463333Y-146708152D01*
X169463333Y-146708152D02*
X169415714Y-146803390D01*
X169415714Y-146803390D02*
X169368095Y-146851009D01*
X169368095Y-146851009D02*
X169272857Y-146898628D01*
X169272857Y-146898628D02*
X168891905Y-146898628D01*
X169939524Y-147374819D02*
X170130000Y-147374819D01*
X170130000Y-147374819D02*
X170225238Y-147327200D01*
X170225238Y-147327200D02*
X170272857Y-147279580D01*
X170272857Y-147279580D02*
X170368095Y-147136723D01*
X170368095Y-147136723D02*
X170415714Y-146946247D01*
X170415714Y-146946247D02*
X170415714Y-146565295D01*
X170415714Y-146565295D02*
X170368095Y-146470057D01*
X170368095Y-146470057D02*
X170320476Y-146422438D01*
X170320476Y-146422438D02*
X170225238Y-146374819D01*
X170225238Y-146374819D02*
X170034762Y-146374819D01*
X170034762Y-146374819D02*
X169939524Y-146422438D01*
X169939524Y-146422438D02*
X169891905Y-146470057D01*
X169891905Y-146470057D02*
X169844286Y-146565295D01*
X169844286Y-146565295D02*
X169844286Y-146803390D01*
X169844286Y-146803390D02*
X169891905Y-146898628D01*
X169891905Y-146898628D02*
X169939524Y-146946247D01*
X169939524Y-146946247D02*
X170034762Y-146993866D01*
X170034762Y-146993866D02*
X170225238Y-146993866D01*
X170225238Y-146993866D02*
X170320476Y-146946247D01*
X170320476Y-146946247D02*
X170368095Y-146898628D01*
X170368095Y-146898628D02*
X170415714Y-146803390D01*
X27916667Y-106407200D02*
X28059524Y-106454819D01*
X28059524Y-106454819D02*
X28297619Y-106454819D01*
X28297619Y-106454819D02*
X28392857Y-106407200D01*
X28392857Y-106407200D02*
X28440476Y-106359580D01*
X28440476Y-106359580D02*
X28488095Y-106264342D01*
X28488095Y-106264342D02*
X28488095Y-106169104D01*
X28488095Y-106169104D02*
X28440476Y-106073866D01*
X28440476Y-106073866D02*
X28392857Y-106026247D01*
X28392857Y-106026247D02*
X28297619Y-105978628D01*
X28297619Y-105978628D02*
X28107143Y-105931009D01*
X28107143Y-105931009D02*
X28011905Y-105883390D01*
X28011905Y-105883390D02*
X27964286Y-105835771D01*
X27964286Y-105835771D02*
X27916667Y-105740533D01*
X27916667Y-105740533D02*
X27916667Y-105645295D01*
X27916667Y-105645295D02*
X27964286Y-105550057D01*
X27964286Y-105550057D02*
X28011905Y-105502438D01*
X28011905Y-105502438D02*
X28107143Y-105454819D01*
X28107143Y-105454819D02*
X28345238Y-105454819D01*
X28345238Y-105454819D02*
X28488095Y-105502438D01*
X28821429Y-105454819D02*
X29059524Y-106454819D01*
X29059524Y-106454819D02*
X29250000Y-105740533D01*
X29250000Y-105740533D02*
X29440476Y-106454819D01*
X29440476Y-106454819D02*
X29678572Y-105454819D01*
X29964286Y-105454819D02*
X30583333Y-105454819D01*
X30583333Y-105454819D02*
X30250000Y-105835771D01*
X30250000Y-105835771D02*
X30392857Y-105835771D01*
X30392857Y-105835771D02*
X30488095Y-105883390D01*
X30488095Y-105883390D02*
X30535714Y-105931009D01*
X30535714Y-105931009D02*
X30583333Y-106026247D01*
X30583333Y-106026247D02*
X30583333Y-106264342D01*
X30583333Y-106264342D02*
X30535714Y-106359580D01*
X30535714Y-106359580D02*
X30488095Y-106407200D01*
X30488095Y-106407200D02*
X30392857Y-106454819D01*
X30392857Y-106454819D02*
X30107143Y-106454819D01*
X30107143Y-106454819D02*
X30011905Y-106407200D01*
X30011905Y-106407200D02*
X29964286Y-106359580D01*
X126857142Y-124859580D02*
X126809523Y-124907200D01*
X126809523Y-124907200D02*
X126666666Y-124954819D01*
X126666666Y-124954819D02*
X126571428Y-124954819D01*
X126571428Y-124954819D02*
X126428571Y-124907200D01*
X126428571Y-124907200D02*
X126333333Y-124811961D01*
X126333333Y-124811961D02*
X126285714Y-124716723D01*
X126285714Y-124716723D02*
X126238095Y-124526247D01*
X126238095Y-124526247D02*
X126238095Y-124383390D01*
X126238095Y-124383390D02*
X126285714Y-124192914D01*
X126285714Y-124192914D02*
X126333333Y-124097676D01*
X126333333Y-124097676D02*
X126428571Y-124002438D01*
X126428571Y-124002438D02*
X126571428Y-123954819D01*
X126571428Y-123954819D02*
X126666666Y-123954819D01*
X126666666Y-123954819D02*
X126809523Y-124002438D01*
X126809523Y-124002438D02*
X126857142Y-124050057D01*
X127809523Y-124954819D02*
X127238095Y-124954819D01*
X127523809Y-124954819D02*
X127523809Y-123954819D01*
X127523809Y-123954819D02*
X127428571Y-124097676D01*
X127428571Y-124097676D02*
X127333333Y-124192914D01*
X127333333Y-124192914D02*
X127238095Y-124240533D01*
X128190476Y-124050057D02*
X128238095Y-124002438D01*
X128238095Y-124002438D02*
X128333333Y-123954819D01*
X128333333Y-123954819D02*
X128571428Y-123954819D01*
X128571428Y-123954819D02*
X128666666Y-124002438D01*
X128666666Y-124002438D02*
X128714285Y-124050057D01*
X128714285Y-124050057D02*
X128761904Y-124145295D01*
X128761904Y-124145295D02*
X128761904Y-124240533D01*
X128761904Y-124240533D02*
X128714285Y-124383390D01*
X128714285Y-124383390D02*
X128142857Y-124954819D01*
X128142857Y-124954819D02*
X128761904Y-124954819D01*
X65437142Y-96084819D02*
X65103809Y-95608628D01*
X64865714Y-96084819D02*
X64865714Y-95084819D01*
X64865714Y-95084819D02*
X65246666Y-95084819D01*
X65246666Y-95084819D02*
X65341904Y-95132438D01*
X65341904Y-95132438D02*
X65389523Y-95180057D01*
X65389523Y-95180057D02*
X65437142Y-95275295D01*
X65437142Y-95275295D02*
X65437142Y-95418152D01*
X65437142Y-95418152D02*
X65389523Y-95513390D01*
X65389523Y-95513390D02*
X65341904Y-95561009D01*
X65341904Y-95561009D02*
X65246666Y-95608628D01*
X65246666Y-95608628D02*
X64865714Y-95608628D01*
X66389523Y-96084819D02*
X65818095Y-96084819D01*
X66103809Y-96084819D02*
X66103809Y-95084819D01*
X66103809Y-95084819D02*
X66008571Y-95227676D01*
X66008571Y-95227676D02*
X65913333Y-95322914D01*
X65913333Y-95322914D02*
X65818095Y-95370533D01*
X67246666Y-95418152D02*
X67246666Y-96084819D01*
X67008571Y-95037200D02*
X66770476Y-95751485D01*
X66770476Y-95751485D02*
X67389523Y-95751485D01*
X116437142Y-170084819D02*
X116103809Y-169608628D01*
X115865714Y-170084819D02*
X115865714Y-169084819D01*
X115865714Y-169084819D02*
X116246666Y-169084819D01*
X116246666Y-169084819D02*
X116341904Y-169132438D01*
X116341904Y-169132438D02*
X116389523Y-169180057D01*
X116389523Y-169180057D02*
X116437142Y-169275295D01*
X116437142Y-169275295D02*
X116437142Y-169418152D01*
X116437142Y-169418152D02*
X116389523Y-169513390D01*
X116389523Y-169513390D02*
X116341904Y-169561009D01*
X116341904Y-169561009D02*
X116246666Y-169608628D01*
X116246666Y-169608628D02*
X115865714Y-169608628D01*
X116818095Y-169180057D02*
X116865714Y-169132438D01*
X116865714Y-169132438D02*
X116960952Y-169084819D01*
X116960952Y-169084819D02*
X117199047Y-169084819D01*
X117199047Y-169084819D02*
X117294285Y-169132438D01*
X117294285Y-169132438D02*
X117341904Y-169180057D01*
X117341904Y-169180057D02*
X117389523Y-169275295D01*
X117389523Y-169275295D02*
X117389523Y-169370533D01*
X117389523Y-169370533D02*
X117341904Y-169513390D01*
X117341904Y-169513390D02*
X116770476Y-170084819D01*
X116770476Y-170084819D02*
X117389523Y-170084819D01*
X117722857Y-169084819D02*
X118389523Y-169084819D01*
X118389523Y-169084819D02*
X117960952Y-170084819D01*
X72913333Y-63084819D02*
X72580000Y-62608628D01*
X72341905Y-63084819D02*
X72341905Y-62084819D01*
X72341905Y-62084819D02*
X72722857Y-62084819D01*
X72722857Y-62084819D02*
X72818095Y-62132438D01*
X72818095Y-62132438D02*
X72865714Y-62180057D01*
X72865714Y-62180057D02*
X72913333Y-62275295D01*
X72913333Y-62275295D02*
X72913333Y-62418152D01*
X72913333Y-62418152D02*
X72865714Y-62513390D01*
X72865714Y-62513390D02*
X72818095Y-62561009D01*
X72818095Y-62561009D02*
X72722857Y-62608628D01*
X72722857Y-62608628D02*
X72341905Y-62608628D01*
X73818095Y-62084819D02*
X73341905Y-62084819D01*
X73341905Y-62084819D02*
X73294286Y-62561009D01*
X73294286Y-62561009D02*
X73341905Y-62513390D01*
X73341905Y-62513390D02*
X73437143Y-62465771D01*
X73437143Y-62465771D02*
X73675238Y-62465771D01*
X73675238Y-62465771D02*
X73770476Y-62513390D01*
X73770476Y-62513390D02*
X73818095Y-62561009D01*
X73818095Y-62561009D02*
X73865714Y-62656247D01*
X73865714Y-62656247D02*
X73865714Y-62894342D01*
X73865714Y-62894342D02*
X73818095Y-62989580D01*
X73818095Y-62989580D02*
X73770476Y-63037200D01*
X73770476Y-63037200D02*
X73675238Y-63084819D01*
X73675238Y-63084819D02*
X73437143Y-63084819D01*
X73437143Y-63084819D02*
X73341905Y-63037200D01*
X73341905Y-63037200D02*
X73294286Y-62989580D01*
X129437142Y-96084819D02*
X129103809Y-95608628D01*
X128865714Y-96084819D02*
X128865714Y-95084819D01*
X128865714Y-95084819D02*
X129246666Y-95084819D01*
X129246666Y-95084819D02*
X129341904Y-95132438D01*
X129341904Y-95132438D02*
X129389523Y-95180057D01*
X129389523Y-95180057D02*
X129437142Y-95275295D01*
X129437142Y-95275295D02*
X129437142Y-95418152D01*
X129437142Y-95418152D02*
X129389523Y-95513390D01*
X129389523Y-95513390D02*
X129341904Y-95561009D01*
X129341904Y-95561009D02*
X129246666Y-95608628D01*
X129246666Y-95608628D02*
X128865714Y-95608628D01*
X130389523Y-96084819D02*
X129818095Y-96084819D01*
X130103809Y-96084819D02*
X130103809Y-95084819D01*
X130103809Y-95084819D02*
X130008571Y-95227676D01*
X130008571Y-95227676D02*
X129913333Y-95322914D01*
X129913333Y-95322914D02*
X129818095Y-95370533D01*
X131246666Y-95084819D02*
X131056190Y-95084819D01*
X131056190Y-95084819D02*
X130960952Y-95132438D01*
X130960952Y-95132438D02*
X130913333Y-95180057D01*
X130913333Y-95180057D02*
X130818095Y-95322914D01*
X130818095Y-95322914D02*
X130770476Y-95513390D01*
X130770476Y-95513390D02*
X130770476Y-95894342D01*
X130770476Y-95894342D02*
X130818095Y-95989580D01*
X130818095Y-95989580D02*
X130865714Y-96037200D01*
X130865714Y-96037200D02*
X130960952Y-96084819D01*
X130960952Y-96084819D02*
X131151428Y-96084819D01*
X131151428Y-96084819D02*
X131246666Y-96037200D01*
X131246666Y-96037200D02*
X131294285Y-95989580D01*
X131294285Y-95989580D02*
X131341904Y-95894342D01*
X131341904Y-95894342D02*
X131341904Y-95656247D01*
X131341904Y-95656247D02*
X131294285Y-95561009D01*
X131294285Y-95561009D02*
X131246666Y-95513390D01*
X131246666Y-95513390D02*
X131151428Y-95465771D01*
X131151428Y-95465771D02*
X130960952Y-95465771D01*
X130960952Y-95465771D02*
X130865714Y-95513390D01*
X130865714Y-95513390D02*
X130818095Y-95561009D01*
X130818095Y-95561009D02*
X130770476Y-95656247D01*
X62885238Y-133454819D02*
X62885238Y-134169104D01*
X62885238Y-134169104D02*
X62837619Y-134311961D01*
X62837619Y-134311961D02*
X62742381Y-134407200D01*
X62742381Y-134407200D02*
X62599524Y-134454819D01*
X62599524Y-134454819D02*
X62504286Y-134454819D01*
X63361429Y-134454819D02*
X63361429Y-133454819D01*
X63361429Y-133454819D02*
X63694762Y-134169104D01*
X63694762Y-134169104D02*
X64028095Y-133454819D01*
X64028095Y-133454819D02*
X64028095Y-134454819D01*
X64504286Y-134454819D02*
X64504286Y-133454819D01*
X64504286Y-133454819D02*
X64742381Y-133454819D01*
X64742381Y-133454819D02*
X64885238Y-133502438D01*
X64885238Y-133502438D02*
X64980476Y-133597676D01*
X64980476Y-133597676D02*
X65028095Y-133692914D01*
X65028095Y-133692914D02*
X65075714Y-133883390D01*
X65075714Y-133883390D02*
X65075714Y-134026247D01*
X65075714Y-134026247D02*
X65028095Y-134216723D01*
X65028095Y-134216723D02*
X64980476Y-134311961D01*
X64980476Y-134311961D02*
X64885238Y-134407200D01*
X64885238Y-134407200D02*
X64742381Y-134454819D01*
X64742381Y-134454819D02*
X64504286Y-134454819D01*
X65456667Y-133550057D02*
X65504286Y-133502438D01*
X65504286Y-133502438D02*
X65599524Y-133454819D01*
X65599524Y-133454819D02*
X65837619Y-133454819D01*
X65837619Y-133454819D02*
X65932857Y-133502438D01*
X65932857Y-133502438D02*
X65980476Y-133550057D01*
X65980476Y-133550057D02*
X66028095Y-133645295D01*
X66028095Y-133645295D02*
X66028095Y-133740533D01*
X66028095Y-133740533D02*
X65980476Y-133883390D01*
X65980476Y-133883390D02*
X65409048Y-134454819D01*
X65409048Y-134454819D02*
X66028095Y-134454819D01*
X97437142Y-120084819D02*
X97103809Y-119608628D01*
X96865714Y-120084819D02*
X96865714Y-119084819D01*
X96865714Y-119084819D02*
X97246666Y-119084819D01*
X97246666Y-119084819D02*
X97341904Y-119132438D01*
X97341904Y-119132438D02*
X97389523Y-119180057D01*
X97389523Y-119180057D02*
X97437142Y-119275295D01*
X97437142Y-119275295D02*
X97437142Y-119418152D01*
X97437142Y-119418152D02*
X97389523Y-119513390D01*
X97389523Y-119513390D02*
X97341904Y-119561009D01*
X97341904Y-119561009D02*
X97246666Y-119608628D01*
X97246666Y-119608628D02*
X96865714Y-119608628D01*
X98389523Y-120084819D02*
X97818095Y-120084819D01*
X98103809Y-120084819D02*
X98103809Y-119084819D01*
X98103809Y-119084819D02*
X98008571Y-119227676D01*
X98008571Y-119227676D02*
X97913333Y-119322914D01*
X97913333Y-119322914D02*
X97818095Y-119370533D01*
X98865714Y-120084819D02*
X99056190Y-120084819D01*
X99056190Y-120084819D02*
X99151428Y-120037200D01*
X99151428Y-120037200D02*
X99199047Y-119989580D01*
X99199047Y-119989580D02*
X99294285Y-119846723D01*
X99294285Y-119846723D02*
X99341904Y-119656247D01*
X99341904Y-119656247D02*
X99341904Y-119275295D01*
X99341904Y-119275295D02*
X99294285Y-119180057D01*
X99294285Y-119180057D02*
X99246666Y-119132438D01*
X99246666Y-119132438D02*
X99151428Y-119084819D01*
X99151428Y-119084819D02*
X98960952Y-119084819D01*
X98960952Y-119084819D02*
X98865714Y-119132438D01*
X98865714Y-119132438D02*
X98818095Y-119180057D01*
X98818095Y-119180057D02*
X98770476Y-119275295D01*
X98770476Y-119275295D02*
X98770476Y-119513390D01*
X98770476Y-119513390D02*
X98818095Y-119608628D01*
X98818095Y-119608628D02*
X98865714Y-119656247D01*
X98865714Y-119656247D02*
X98960952Y-119703866D01*
X98960952Y-119703866D02*
X99151428Y-119703866D01*
X99151428Y-119703866D02*
X99246666Y-119656247D01*
X99246666Y-119656247D02*
X99294285Y-119608628D01*
X99294285Y-119608628D02*
X99341904Y-119513390D01*
X95690476Y-35104819D02*
X95690476Y-35819104D01*
X95690476Y-35819104D02*
X95642857Y-35961961D01*
X95642857Y-35961961D02*
X95547619Y-36057200D01*
X95547619Y-36057200D02*
X95404762Y-36104819D01*
X95404762Y-36104819D02*
X95309524Y-36104819D01*
X96690476Y-36104819D02*
X96119048Y-36104819D01*
X96404762Y-36104819D02*
X96404762Y-35104819D01*
X96404762Y-35104819D02*
X96309524Y-35247676D01*
X96309524Y-35247676D02*
X96214286Y-35342914D01*
X96214286Y-35342914D02*
X96119048Y-35390533D01*
X97309524Y-35104819D02*
X97404762Y-35104819D01*
X97404762Y-35104819D02*
X97500000Y-35152438D01*
X97500000Y-35152438D02*
X97547619Y-35200057D01*
X97547619Y-35200057D02*
X97595238Y-35295295D01*
X97595238Y-35295295D02*
X97642857Y-35485771D01*
X97642857Y-35485771D02*
X97642857Y-35723866D01*
X97642857Y-35723866D02*
X97595238Y-35914342D01*
X97595238Y-35914342D02*
X97547619Y-36009580D01*
X97547619Y-36009580D02*
X97500000Y-36057200D01*
X97500000Y-36057200D02*
X97404762Y-36104819D01*
X97404762Y-36104819D02*
X97309524Y-36104819D01*
X97309524Y-36104819D02*
X97214286Y-36057200D01*
X97214286Y-36057200D02*
X97166667Y-36009580D01*
X97166667Y-36009580D02*
X97119048Y-35914342D01*
X97119048Y-35914342D02*
X97071429Y-35723866D01*
X97071429Y-35723866D02*
X97071429Y-35485771D01*
X97071429Y-35485771D02*
X97119048Y-35295295D01*
X97119048Y-35295295D02*
X97166667Y-35200057D01*
X97166667Y-35200057D02*
X97214286Y-35152438D01*
X97214286Y-35152438D02*
X97309524Y-35104819D01*
X158857142Y-148859580D02*
X158809523Y-148907200D01*
X158809523Y-148907200D02*
X158666666Y-148954819D01*
X158666666Y-148954819D02*
X158571428Y-148954819D01*
X158571428Y-148954819D02*
X158428571Y-148907200D01*
X158428571Y-148907200D02*
X158333333Y-148811961D01*
X158333333Y-148811961D02*
X158285714Y-148716723D01*
X158285714Y-148716723D02*
X158238095Y-148526247D01*
X158238095Y-148526247D02*
X158238095Y-148383390D01*
X158238095Y-148383390D02*
X158285714Y-148192914D01*
X158285714Y-148192914D02*
X158333333Y-148097676D01*
X158333333Y-148097676D02*
X158428571Y-148002438D01*
X158428571Y-148002438D02*
X158571428Y-147954819D01*
X158571428Y-147954819D02*
X158666666Y-147954819D01*
X158666666Y-147954819D02*
X158809523Y-148002438D01*
X158809523Y-148002438D02*
X158857142Y-148050057D01*
X159809523Y-148954819D02*
X159238095Y-148954819D01*
X159523809Y-148954819D02*
X159523809Y-147954819D01*
X159523809Y-147954819D02*
X159428571Y-148097676D01*
X159428571Y-148097676D02*
X159333333Y-148192914D01*
X159333333Y-148192914D02*
X159238095Y-148240533D01*
X160142857Y-147954819D02*
X160809523Y-147954819D01*
X160809523Y-147954819D02*
X160380952Y-148954819D01*
X161437142Y-120084819D02*
X161103809Y-119608628D01*
X160865714Y-120084819D02*
X160865714Y-119084819D01*
X160865714Y-119084819D02*
X161246666Y-119084819D01*
X161246666Y-119084819D02*
X161341904Y-119132438D01*
X161341904Y-119132438D02*
X161389523Y-119180057D01*
X161389523Y-119180057D02*
X161437142Y-119275295D01*
X161437142Y-119275295D02*
X161437142Y-119418152D01*
X161437142Y-119418152D02*
X161389523Y-119513390D01*
X161389523Y-119513390D02*
X161341904Y-119561009D01*
X161341904Y-119561009D02*
X161246666Y-119608628D01*
X161246666Y-119608628D02*
X160865714Y-119608628D01*
X161818095Y-119180057D02*
X161865714Y-119132438D01*
X161865714Y-119132438D02*
X161960952Y-119084819D01*
X161960952Y-119084819D02*
X162199047Y-119084819D01*
X162199047Y-119084819D02*
X162294285Y-119132438D01*
X162294285Y-119132438D02*
X162341904Y-119180057D01*
X162341904Y-119180057D02*
X162389523Y-119275295D01*
X162389523Y-119275295D02*
X162389523Y-119370533D01*
X162389523Y-119370533D02*
X162341904Y-119513390D01*
X162341904Y-119513390D02*
X161770476Y-120084819D01*
X161770476Y-120084819D02*
X162389523Y-120084819D01*
X163341904Y-120084819D02*
X162770476Y-120084819D01*
X163056190Y-120084819D02*
X163056190Y-119084819D01*
X163056190Y-119084819D02*
X162960952Y-119227676D01*
X162960952Y-119227676D02*
X162865714Y-119322914D01*
X162865714Y-119322914D02*
X162770476Y-119370533D01*
X159333333Y-76859580D02*
X159285714Y-76907200D01*
X159285714Y-76907200D02*
X159142857Y-76954819D01*
X159142857Y-76954819D02*
X159047619Y-76954819D01*
X159047619Y-76954819D02*
X158904762Y-76907200D01*
X158904762Y-76907200D02*
X158809524Y-76811961D01*
X158809524Y-76811961D02*
X158761905Y-76716723D01*
X158761905Y-76716723D02*
X158714286Y-76526247D01*
X158714286Y-76526247D02*
X158714286Y-76383390D01*
X158714286Y-76383390D02*
X158761905Y-76192914D01*
X158761905Y-76192914D02*
X158809524Y-76097676D01*
X158809524Y-76097676D02*
X158904762Y-76002438D01*
X158904762Y-76002438D02*
X159047619Y-75954819D01*
X159047619Y-75954819D02*
X159142857Y-75954819D01*
X159142857Y-75954819D02*
X159285714Y-76002438D01*
X159285714Y-76002438D02*
X159333333Y-76050057D01*
X160238095Y-75954819D02*
X159761905Y-75954819D01*
X159761905Y-75954819D02*
X159714286Y-76431009D01*
X159714286Y-76431009D02*
X159761905Y-76383390D01*
X159761905Y-76383390D02*
X159857143Y-76335771D01*
X159857143Y-76335771D02*
X160095238Y-76335771D01*
X160095238Y-76335771D02*
X160190476Y-76383390D01*
X160190476Y-76383390D02*
X160238095Y-76431009D01*
X160238095Y-76431009D02*
X160285714Y-76526247D01*
X160285714Y-76526247D02*
X160285714Y-76764342D01*
X160285714Y-76764342D02*
X160238095Y-76859580D01*
X160238095Y-76859580D02*
X160190476Y-76907200D01*
X160190476Y-76907200D02*
X160095238Y-76954819D01*
X160095238Y-76954819D02*
X159857143Y-76954819D01*
X159857143Y-76954819D02*
X159761905Y-76907200D01*
X159761905Y-76907200D02*
X159714286Y-76859580D01*
%TO.C,R17*%
D11*
X158040000Y-98000000D02*
X158810000Y-98000000D01*
X166120000Y-98000000D02*
X165350000Y-98000000D01*
X158810000Y-96630000D02*
X165350000Y-96630000D01*
X165350000Y-99370000D01*
X158810000Y-99370000D01*
X158810000Y-96630000D01*
%TO.C,R2*%
X93040000Y-60000000D02*
X93810000Y-60000000D01*
X101120000Y-60000000D02*
X100350000Y-60000000D01*
X93810000Y-58630000D02*
X100350000Y-58630000D01*
X100350000Y-61370000D01*
X93810000Y-61370000D01*
X93810000Y-58630000D01*
%TO.C,RV4*%
X143479000Y-66880000D02*
X153520000Y-66880000D01*
X143479000Y-70816000D02*
X143479000Y-66880000D01*
X143479000Y-79120000D02*
X143479000Y-75183000D01*
X143479000Y-79120000D02*
X144800000Y-79120000D01*
X147250000Y-79120000D02*
X147630000Y-79120000D01*
X149371000Y-79120000D02*
X150130000Y-79120000D01*
X151870000Y-79120000D02*
X153520000Y-79120000D01*
X153520000Y-70816000D02*
X153520000Y-66880000D01*
X153520000Y-79120000D02*
X153520000Y-75183000D01*
%TO.C,C16*%
X124880000Y-149630000D02*
X130120000Y-149630000D01*
X124880000Y-149967000D02*
X124880000Y-149630000D01*
X124880000Y-152370000D02*
X124880000Y-152033000D01*
X130120000Y-149630000D02*
X130120000Y-149967000D01*
X130120000Y-152033000D02*
X130120000Y-152370000D01*
X130120000Y-152370000D02*
X124880000Y-152370000D01*
%TO.C,R12*%
X126040000Y-74000000D02*
X126810000Y-74000000D01*
X134120000Y-74000000D02*
X133350000Y-74000000D01*
X126810000Y-72630000D02*
X133350000Y-72630000D01*
X133350000Y-75370000D01*
X126810000Y-75370000D01*
X126810000Y-72630000D01*
%TO.C,D1*%
X35040000Y-59000000D02*
X35690000Y-59000000D01*
X36290000Y-57880000D02*
X36290000Y-60120000D01*
X36410000Y-57880000D02*
X36410000Y-60120000D01*
X36530000Y-57880000D02*
X36530000Y-60120000D01*
X40580000Y-59000000D02*
X39930000Y-59000000D01*
X35690000Y-57880000D02*
X39930000Y-57880000D01*
X39930000Y-60120000D01*
X35690000Y-60120000D01*
X35690000Y-57880000D01*
%TO.C,C1*%
X79880000Y-60630000D02*
X85120000Y-60630000D01*
X79880000Y-60967000D02*
X79880000Y-60630000D01*
X79880000Y-63370000D02*
X79880000Y-63033000D01*
X85120000Y-60630000D02*
X85120000Y-60967000D01*
X85120000Y-63033000D02*
X85120000Y-63370000D01*
X85120000Y-63370000D02*
X79880000Y-63370000D01*
%TO.C,R18*%
X62040000Y-122000000D02*
X62810000Y-122000000D01*
X70120000Y-122000000D02*
X69350000Y-122000000D01*
X62810000Y-120630000D02*
X69350000Y-120630000D01*
X69350000Y-123370000D01*
X62810000Y-123370000D01*
X62810000Y-120630000D01*
%TO.C,U2*%
X48670000Y-165920000D02*
X48670000Y-171380000D01*
X48670000Y-173380000D02*
X48670000Y-178840000D01*
X48670000Y-178840000D02*
X79270000Y-178840000D01*
X79270000Y-165920000D02*
X48670000Y-165920000D01*
X79270000Y-178840000D02*
X79270000Y-165920000D01*
X48670000Y-171380000D02*
G75*
G02*
X48670000Y-173380000I0J-1000000D01*
G01*
%TO.C,RV1*%
X47479000Y-66880000D02*
X57520000Y-66880000D01*
X47479000Y-70816000D02*
X47479000Y-66880000D01*
X47479000Y-79120000D02*
X47479000Y-75183000D01*
X47479000Y-79120000D02*
X48800000Y-79120000D01*
X51250000Y-79120000D02*
X51630000Y-79120000D01*
X53371000Y-79120000D02*
X54130000Y-79120000D01*
X55870000Y-79120000D02*
X57520000Y-79120000D01*
X57520000Y-70816000D02*
X57520000Y-66880000D01*
X57520000Y-79120000D02*
X57520000Y-75183000D01*
%TO.C,JMA3*%
X93230000Y-87380000D02*
X93230000Y-86000000D01*
X94610000Y-87380000D02*
X93230000Y-87380000D01*
X95880000Y-84620000D02*
X113770000Y-84620000D01*
X95880000Y-87380000D02*
X95880000Y-84620000D01*
X95880000Y-87380000D02*
X113770000Y-87380000D01*
X113770000Y-87380000D02*
X113770000Y-84620000D01*
%TO.C,J1*%
X55400000Y-34400000D02*
G75*
G02*
X32600000Y-34400000I-11400000J0D01*
G01*
X32600000Y-34400000D02*
G75*
G02*
X55400000Y-34400000I11400000J0D01*
G01*
%TO.C,SW5*%
X25750000Y-153500000D02*
X25750000Y-155000000D01*
X27000000Y-157500000D02*
X31500000Y-157500000D01*
X31500000Y-151000000D02*
X27000000Y-151000000D01*
X32750000Y-155000000D02*
X32750000Y-153500000D01*
%TO.C,D5*%
X178764000Y-130290000D02*
X178920000Y-130290000D01*
X181080000Y-130290000D02*
X181236000Y-130290000D01*
X178764484Y-130290000D02*
G75*
G02*
X178920000Y-127058563I1235516J1560000D01*
G01*
X178920000Y-129770961D02*
G75*
G02*
X178920000Y-127689039I1080000J1040961D01*
G01*
X181080000Y-127058563D02*
G75*
G02*
X181235516Y-130290000I-1080000J-1671437D01*
G01*
X181080000Y-127689039D02*
G75*
G02*
X181080000Y-129770961I-1080000J-1040961D01*
G01*
%TO.C,SW2*%
X25750000Y-87500000D02*
X25750000Y-89000000D01*
X27000000Y-91500000D02*
X31500000Y-91500000D01*
X31500000Y-85000000D02*
X27000000Y-85000000D01*
X32750000Y-89000000D02*
X32750000Y-87500000D01*
%TO.C,U1*%
X49160000Y-52670000D02*
X49160000Y-62950000D01*
X49160000Y-62950000D02*
X54460000Y-62950000D01*
X50810000Y-52670000D02*
X49160000Y-52670000D01*
X54460000Y-52670000D02*
X52810000Y-52670000D01*
X54460000Y-62950000D02*
X54460000Y-52670000D01*
X52810000Y-52670000D02*
G75*
G02*
X50810000Y-52670000I-1000000J0D01*
G01*
%TO.C,C3*%
X92880000Y-77630000D02*
X98120000Y-77630000D01*
X92880000Y-77967000D02*
X92880000Y-77630000D01*
X92880000Y-80370000D02*
X92880000Y-80033000D01*
X98120000Y-77630000D02*
X98120000Y-77967000D01*
X98120000Y-80033000D02*
X98120000Y-80370000D01*
X98120000Y-80370000D02*
X92880000Y-80370000D01*
%TO.C,C4*%
X124880000Y-77630000D02*
X130120000Y-77630000D01*
X124880000Y-77967000D02*
X124880000Y-77630000D01*
X124880000Y-80370000D02*
X124880000Y-80033000D01*
X130120000Y-77630000D02*
X130120000Y-77967000D01*
X130120000Y-80033000D02*
X130120000Y-80370000D01*
X130120000Y-80370000D02*
X124880000Y-80370000D01*
%TO.C,RV5*%
X47479000Y-90880000D02*
X57520000Y-90880000D01*
X47479000Y-94816000D02*
X47479000Y-90880000D01*
X47479000Y-103120000D02*
X47479000Y-99183000D01*
X47479000Y-103120000D02*
X48800000Y-103120000D01*
X51250000Y-103120000D02*
X51630000Y-103120000D01*
X53371000Y-103120000D02*
X54130000Y-103120000D01*
X55870000Y-103120000D02*
X57520000Y-103120000D01*
X57520000Y-94816000D02*
X57520000Y-90880000D01*
X57520000Y-103120000D02*
X57520000Y-99183000D01*
%TO.C,R11*%
X94040000Y-74000000D02*
X94810000Y-74000000D01*
X102120000Y-74000000D02*
X101350000Y-74000000D01*
X94810000Y-72630000D02*
X101350000Y-72630000D01*
X101350000Y-75370000D01*
X94810000Y-75370000D01*
X94810000Y-72630000D01*
%TO.C,J5*%
X164620000Y-33380000D02*
X164620000Y-32000000D01*
X166000000Y-33380000D02*
X164620000Y-33380000D01*
X167270000Y-30620000D02*
X175000000Y-30620000D01*
X167270000Y-33380000D02*
X167270000Y-30620000D01*
X167270000Y-33380000D02*
X175000000Y-33380000D01*
X175000000Y-33380000D02*
X175000000Y-30620000D01*
%TO.C,J3*%
X133400000Y-24200000D02*
X142600000Y-24200000D01*
X133400000Y-33000000D02*
X133400000Y-24200000D01*
X133400000Y-38900000D02*
X133400000Y-37000000D01*
X136100000Y-38900000D02*
X133400000Y-38900000D01*
X141750000Y-39100000D02*
X142800000Y-39100000D01*
X142600000Y-24200000D02*
X142600000Y-38900000D01*
X142600000Y-38900000D02*
X140000000Y-38900000D01*
X142800000Y-38050000D02*
X142800000Y-39100000D01*
%TO.C,J2*%
X83400000Y-34400000D02*
G75*
G02*
X60600000Y-34400000I-11400000J0D01*
G01*
X60600000Y-34400000D02*
G75*
G02*
X83400000Y-34400000I11400000J0D01*
G01*
%TO.C,RV8*%
X143479000Y-90880000D02*
X153520000Y-90880000D01*
X143479000Y-94816000D02*
X143479000Y-90880000D01*
X143479000Y-103120000D02*
X143479000Y-99183000D01*
X143479000Y-103120000D02*
X144800000Y-103120000D01*
X147250000Y-103120000D02*
X147630000Y-103120000D01*
X149371000Y-103120000D02*
X150130000Y-103120000D01*
X151870000Y-103120000D02*
X153520000Y-103120000D01*
X153520000Y-94816000D02*
X153520000Y-90880000D01*
X153520000Y-103120000D02*
X153520000Y-99183000D01*
%TO.C,C6*%
X60880000Y-101630000D02*
X66120000Y-101630000D01*
X60880000Y-101967000D02*
X60880000Y-101630000D01*
X60880000Y-104370000D02*
X60880000Y-104033000D01*
X66120000Y-101630000D02*
X66120000Y-101967000D01*
X66120000Y-104033000D02*
X66120000Y-104370000D01*
X66120000Y-104370000D02*
X60880000Y-104370000D01*
%TO.C,C11*%
X92880000Y-125630000D02*
X98120000Y-125630000D01*
X92880000Y-125967000D02*
X92880000Y-125630000D01*
X92880000Y-128370000D02*
X92880000Y-128033000D01*
X98120000Y-125630000D02*
X98120000Y-125967000D01*
X98120000Y-128033000D02*
X98120000Y-128370000D01*
X98120000Y-128370000D02*
X92880000Y-128370000D01*
%TO.C,RV11*%
X111479000Y-114880000D02*
X121520000Y-114880000D01*
X111479000Y-118816000D02*
X111479000Y-114880000D01*
X111479000Y-127120000D02*
X111479000Y-123183000D01*
X111479000Y-127120000D02*
X112800000Y-127120000D01*
X115250000Y-127120000D02*
X115630000Y-127120000D01*
X117371000Y-127120000D02*
X118130000Y-127120000D01*
X119870000Y-127120000D02*
X121520000Y-127120000D01*
X121520000Y-118816000D02*
X121520000Y-114880000D01*
X121520000Y-127120000D02*
X121520000Y-123183000D01*
%TO.C,R6*%
X172000000Y-76880000D02*
X172000000Y-77650000D01*
X172000000Y-84960000D02*
X172000000Y-84190000D01*
X170630000Y-77650000D02*
X173370000Y-77650000D01*
X173370000Y-84190000D01*
X170630000Y-84190000D01*
X170630000Y-77650000D01*
%TO.C,R23*%
X94040000Y-146000000D02*
X94810000Y-146000000D01*
X102120000Y-146000000D02*
X101350000Y-146000000D01*
X94810000Y-144630000D02*
X101350000Y-144630000D01*
X101350000Y-147370000D01*
X94810000Y-147370000D01*
X94810000Y-144630000D01*
%TO.C,R25*%
X158040000Y-146000000D02*
X158810000Y-146000000D01*
X166120000Y-146000000D02*
X165350000Y-146000000D01*
X158810000Y-144630000D02*
X165350000Y-144630000D01*
X165350000Y-147370000D01*
X158810000Y-147370000D01*
X158810000Y-144630000D01*
%TO.C,JMD3*%
X80530000Y-135380000D02*
X80530000Y-134000000D01*
X81910000Y-135380000D02*
X80530000Y-135380000D01*
X83180000Y-132620000D02*
X85830000Y-132620000D01*
X83180000Y-135380000D02*
X83180000Y-132620000D01*
X83180000Y-135380000D02*
X85830000Y-135380000D01*
X85830000Y-135380000D02*
X85830000Y-132620000D01*
%TO.C,RV2*%
X79479000Y-66880000D02*
X89520000Y-66880000D01*
X79479000Y-70816000D02*
X79479000Y-66880000D01*
X79479000Y-79120000D02*
X79479000Y-75183000D01*
X79479000Y-79120000D02*
X80800000Y-79120000D01*
X83250000Y-79120000D02*
X83630000Y-79120000D01*
X85371000Y-79120000D02*
X86130000Y-79120000D01*
X87870000Y-79120000D02*
X89520000Y-79120000D01*
X89520000Y-70816000D02*
X89520000Y-66880000D01*
X89520000Y-79120000D02*
X89520000Y-75183000D01*
%TO.C,RV10*%
X79479000Y-114880000D02*
X89520000Y-114880000D01*
X79479000Y-118816000D02*
X79479000Y-114880000D01*
X79479000Y-127120000D02*
X79479000Y-123183000D01*
X79479000Y-127120000D02*
X80800000Y-127120000D01*
X83250000Y-127120000D02*
X83630000Y-127120000D01*
X85371000Y-127120000D02*
X86130000Y-127120000D01*
X87870000Y-127120000D02*
X89520000Y-127120000D01*
X89520000Y-118816000D02*
X89520000Y-114880000D01*
X89520000Y-127120000D02*
X89520000Y-123183000D01*
%TO.C,R1*%
X35040000Y-65000000D02*
X35810000Y-65000000D01*
X43120000Y-65000000D02*
X42350000Y-65000000D01*
X35810000Y-63630000D02*
X42350000Y-63630000D01*
X42350000Y-66370000D01*
X35810000Y-66370000D01*
X35810000Y-63630000D01*
%TO.C,R8*%
X172000000Y-120880000D02*
X172000000Y-121650000D01*
X172000000Y-128960000D02*
X172000000Y-128190000D01*
X170630000Y-121650000D02*
X173370000Y-121650000D01*
X173370000Y-128190000D01*
X170630000Y-128190000D01*
X170630000Y-121650000D01*
%TO.C,C7*%
X92880000Y-101630000D02*
X98120000Y-101630000D01*
X92880000Y-101967000D02*
X92880000Y-101630000D01*
X92880000Y-104370000D02*
X92880000Y-104033000D01*
X98120000Y-101630000D02*
X98120000Y-101967000D01*
X98120000Y-104033000D02*
X98120000Y-104370000D01*
X98120000Y-104370000D02*
X92880000Y-104370000D01*
%TO.C,RV6*%
X79479000Y-90880000D02*
X89520000Y-90880000D01*
X79479000Y-94816000D02*
X79479000Y-90880000D01*
X79479000Y-103120000D02*
X79479000Y-99183000D01*
X79479000Y-103120000D02*
X80800000Y-103120000D01*
X83250000Y-103120000D02*
X83630000Y-103120000D01*
X85371000Y-103120000D02*
X86130000Y-103120000D01*
X87870000Y-103120000D02*
X89520000Y-103120000D01*
X89520000Y-94816000D02*
X89520000Y-90880000D01*
X89520000Y-103120000D02*
X89520000Y-99183000D01*
%TO.C,D2D*%
X151340000Y-52000000D02*
X152360000Y-52000000D01*
X153140000Y-50530000D02*
X153140000Y-53470000D01*
X153260000Y-50530000D02*
X153260000Y-53470000D01*
X153380000Y-50530000D02*
X153380000Y-53470000D01*
X158820000Y-52000000D02*
X157800000Y-52000000D01*
X152360000Y-50530000D02*
X157800000Y-50530000D01*
X157800000Y-53470000D01*
X152360000Y-53470000D01*
X152360000Y-50530000D01*
%TO.C,JMA2*%
X70370000Y-87380000D02*
X70370000Y-86000000D01*
X71750000Y-87380000D02*
X70370000Y-87380000D01*
X73020000Y-84620000D02*
X90910000Y-84620000D01*
X73020000Y-87380000D02*
X73020000Y-84620000D01*
X73020000Y-87380000D02*
X90910000Y-87380000D01*
X90910000Y-87380000D02*
X90910000Y-84620000D01*
%TO.C,RV15*%
X111479000Y-138880000D02*
X121520000Y-138880000D01*
X111479000Y-142816000D02*
X111479000Y-138880000D01*
X111479000Y-151120000D02*
X111479000Y-147183000D01*
X111479000Y-151120000D02*
X112800000Y-151120000D01*
X115250000Y-151120000D02*
X115630000Y-151120000D01*
X117371000Y-151120000D02*
X118130000Y-151120000D01*
X119870000Y-151120000D02*
X121520000Y-151120000D01*
X121520000Y-142816000D02*
X121520000Y-138880000D01*
X121520000Y-151120000D02*
X121520000Y-147183000D01*
%TO.C,RV7*%
X111479000Y-90880000D02*
X121520000Y-90880000D01*
X111479000Y-94816000D02*
X111479000Y-90880000D01*
X111479000Y-103120000D02*
X111479000Y-99183000D01*
X111479000Y-103120000D02*
X112800000Y-103120000D01*
X115250000Y-103120000D02*
X115630000Y-103120000D01*
X117371000Y-103120000D02*
X118130000Y-103120000D01*
X119870000Y-103120000D02*
X121520000Y-103120000D01*
X121520000Y-94816000D02*
X121520000Y-90880000D01*
X121520000Y-103120000D02*
X121520000Y-99183000D01*
%TO.C,JMA1*%
X47510000Y-87380000D02*
X47510000Y-86000000D01*
X48890000Y-87380000D02*
X47510000Y-87380000D01*
X50160000Y-84620000D02*
X68050000Y-84620000D01*
X50160000Y-87380000D02*
X50160000Y-84620000D01*
X50160000Y-87380000D02*
X68050000Y-87380000D01*
X68050000Y-87380000D02*
X68050000Y-84620000D01*
%TO.C,C2*%
X60880000Y-77630000D02*
X66120000Y-77630000D01*
X60880000Y-77967000D02*
X60880000Y-77630000D01*
X60880000Y-80370000D02*
X60880000Y-80033000D01*
X66120000Y-77630000D02*
X66120000Y-77967000D01*
X66120000Y-80033000D02*
X66120000Y-80370000D01*
X66120000Y-80370000D02*
X60880000Y-80370000D01*
%TO.C,RV12*%
X143479000Y-114880000D02*
X153520000Y-114880000D01*
X143479000Y-118816000D02*
X143479000Y-114880000D01*
X143479000Y-127120000D02*
X143479000Y-123183000D01*
X143479000Y-127120000D02*
X144800000Y-127120000D01*
X147250000Y-127120000D02*
X147630000Y-127120000D01*
X149371000Y-127120000D02*
X150130000Y-127120000D01*
X151870000Y-127120000D02*
X153520000Y-127120000D01*
X153520000Y-118816000D02*
X153520000Y-114880000D01*
X153520000Y-127120000D02*
X153520000Y-123183000D01*
%TO.C,D6*%
X178764000Y-152290000D02*
X178920000Y-152290000D01*
X181080000Y-152290000D02*
X181236000Y-152290000D01*
X178764484Y-152290000D02*
G75*
G02*
X178920000Y-149058563I1235516J1560000D01*
G01*
X178920000Y-151770961D02*
G75*
G02*
X178920000Y-149689039I1080000J1040961D01*
G01*
X181080000Y-149058563D02*
G75*
G02*
X181235516Y-152290000I-1080000J-1671437D01*
G01*
X181080000Y-149689039D02*
G75*
G02*
X181080000Y-151770961I-1080000J-1040961D01*
G01*
%TO.C,R10*%
X62040000Y-74000000D02*
X62810000Y-74000000D01*
X70120000Y-74000000D02*
X69350000Y-74000000D01*
X62810000Y-72630000D02*
X69350000Y-72630000D01*
X69350000Y-75370000D01*
X62810000Y-75370000D01*
X62810000Y-72630000D01*
%TO.C,D3*%
X178764000Y-86290000D02*
X178920000Y-86290000D01*
X181080000Y-86290000D02*
X181236000Y-86290000D01*
X178764484Y-86290000D02*
G75*
G02*
X178920000Y-83058563I1235516J1560000D01*
G01*
X178920000Y-85770961D02*
G75*
G02*
X178920000Y-83689039I1080000J1040961D01*
G01*
X181080000Y-83058563D02*
G75*
G02*
X181235516Y-86290000I-1080000J-1671437D01*
G01*
X181080000Y-83689039D02*
G75*
G02*
X181080000Y-85770961I-1080000J-1040961D01*
G01*
%TO.C,RV14*%
X79479000Y-138880000D02*
X89520000Y-138880000D01*
X79479000Y-142816000D02*
X79479000Y-138880000D01*
X79479000Y-151120000D02*
X79479000Y-147183000D01*
X79479000Y-151120000D02*
X80800000Y-151120000D01*
X83250000Y-151120000D02*
X83630000Y-151120000D01*
X85371000Y-151120000D02*
X86130000Y-151120000D01*
X87870000Y-151120000D02*
X89520000Y-151120000D01*
X89520000Y-142816000D02*
X89520000Y-138880000D01*
X89520000Y-151120000D02*
X89520000Y-147183000D01*
%TO.C,R3*%
X93040000Y-66000000D02*
X93810000Y-66000000D01*
X101120000Y-66000000D02*
X100350000Y-66000000D01*
X93810000Y-64630000D02*
X100350000Y-64630000D01*
X100350000Y-67370000D01*
X93810000Y-67370000D01*
X93810000Y-64630000D01*
%TO.C,R7*%
X172000000Y-98880000D02*
X172000000Y-99650000D01*
X172000000Y-106960000D02*
X172000000Y-106190000D01*
X170630000Y-99650000D02*
X173370000Y-99650000D01*
X173370000Y-106190000D01*
X170630000Y-106190000D01*
X170630000Y-99650000D01*
%TO.C,JMD4*%
X103390000Y-135380000D02*
X103390000Y-134000000D01*
X104770000Y-135380000D02*
X103390000Y-135380000D01*
X106040000Y-132620000D02*
X108690000Y-132620000D01*
X106040000Y-135380000D02*
X106040000Y-132620000D01*
X106040000Y-135380000D02*
X108690000Y-135380000D01*
X108690000Y-135380000D02*
X108690000Y-132620000D01*
%TO.C,J4*%
X134620000Y-61380000D02*
X134620000Y-60000000D01*
X136000000Y-61380000D02*
X134620000Y-61380000D01*
X137270000Y-58620000D02*
X145000000Y-58620000D01*
X137270000Y-61380000D02*
X137270000Y-58620000D01*
X137270000Y-61380000D02*
X145000000Y-61380000D01*
X145000000Y-61380000D02*
X145000000Y-58620000D01*
%TO.C,C14*%
X60880000Y-149630000D02*
X66120000Y-149630000D01*
X60880000Y-149967000D02*
X60880000Y-149630000D01*
X60880000Y-152370000D02*
X60880000Y-152033000D01*
X66120000Y-149630000D02*
X66120000Y-149967000D01*
X66120000Y-152033000D02*
X66120000Y-152370000D01*
X66120000Y-152370000D02*
X60880000Y-152370000D01*
%TO.C,C9*%
X156880000Y-101630000D02*
X162120000Y-101630000D01*
X156880000Y-101967000D02*
X156880000Y-101630000D01*
X156880000Y-104370000D02*
X156880000Y-104033000D01*
X162120000Y-101630000D02*
X162120000Y-101967000D01*
X162120000Y-104033000D02*
X162120000Y-104370000D01*
X162120000Y-104370000D02*
X156880000Y-104370000D01*
%TO.C,R13*%
X158040000Y-74000000D02*
X158810000Y-74000000D01*
X166120000Y-74000000D02*
X165350000Y-74000000D01*
X158810000Y-72630000D02*
X165350000Y-72630000D01*
X165350000Y-75370000D01*
X158810000Y-75370000D01*
X158810000Y-72630000D01*
%TO.C,R20*%
X126040000Y-122000000D02*
X126810000Y-122000000D01*
X134120000Y-122000000D02*
X133350000Y-122000000D01*
X126810000Y-120630000D02*
X133350000Y-120630000D01*
X133350000Y-123370000D01*
X126810000Y-123370000D01*
X126810000Y-120630000D01*
%TO.C,JMD1*%
X38620000Y-135380000D02*
X38620000Y-134000000D01*
X40000000Y-135380000D02*
X38620000Y-135380000D01*
X41270000Y-132620000D02*
X64240000Y-132620000D01*
X41270000Y-135380000D02*
X41270000Y-132620000D01*
X41270000Y-135380000D02*
X64240000Y-135380000D01*
X64240000Y-135380000D02*
X64240000Y-132620000D01*
%TO.C,RV3*%
X111479000Y-66880000D02*
X121520000Y-66880000D01*
X111479000Y-70816000D02*
X111479000Y-66880000D01*
X111479000Y-79120000D02*
X111479000Y-75183000D01*
X111479000Y-79120000D02*
X112800000Y-79120000D01*
X115250000Y-79120000D02*
X115630000Y-79120000D01*
X117371000Y-79120000D02*
X118130000Y-79120000D01*
X119870000Y-79120000D02*
X121520000Y-79120000D01*
X121520000Y-70816000D02*
X121520000Y-66880000D01*
X121520000Y-79120000D02*
X121520000Y-75183000D01*
%TO.C,C15*%
X92880000Y-149630000D02*
X98120000Y-149630000D01*
X92880000Y-149967000D02*
X92880000Y-149630000D01*
X92880000Y-152370000D02*
X92880000Y-152033000D01*
X98120000Y-149630000D02*
X98120000Y-149967000D01*
X98120000Y-152033000D02*
X98120000Y-152370000D01*
X98120000Y-152370000D02*
X92880000Y-152370000D01*
%TO.C,C8*%
X124880000Y-101630000D02*
X130120000Y-101630000D01*
X124880000Y-101967000D02*
X124880000Y-101630000D01*
X124880000Y-104370000D02*
X124880000Y-104033000D01*
X130120000Y-101630000D02*
X130120000Y-101967000D01*
X130120000Y-104033000D02*
X130120000Y-104370000D01*
X130120000Y-104370000D02*
X124880000Y-104370000D01*
%TO.C,R22*%
X62040000Y-146000000D02*
X62810000Y-146000000D01*
X70120000Y-146000000D02*
X69350000Y-146000000D01*
X62810000Y-144630000D02*
X69350000Y-144630000D01*
X69350000Y-147370000D01*
X62810000Y-147370000D01*
X62810000Y-144630000D01*
%TO.C,D4*%
X178764000Y-108290000D02*
X178920000Y-108290000D01*
X181080000Y-108290000D02*
X181236000Y-108290000D01*
X178764484Y-108290000D02*
G75*
G02*
X178920000Y-105058563I1235516J1560000D01*
G01*
X178920000Y-107770961D02*
G75*
G02*
X178920000Y-105689039I1080000J1040961D01*
G01*
X181080000Y-105058563D02*
G75*
G02*
X181235516Y-108290000I-1080000J-1671437D01*
G01*
X181080000Y-105689039D02*
G75*
G02*
X181080000Y-107770961I-1080000J-1040961D01*
G01*
%TO.C,RV13*%
X47479000Y-138880000D02*
X57520000Y-138880000D01*
X47479000Y-142816000D02*
X47479000Y-138880000D01*
X47479000Y-151120000D02*
X47479000Y-147183000D01*
X47479000Y-151120000D02*
X48800000Y-151120000D01*
X51250000Y-151120000D02*
X51630000Y-151120000D01*
X53371000Y-151120000D02*
X54130000Y-151120000D01*
X55870000Y-151120000D02*
X57520000Y-151120000D01*
X57520000Y-142816000D02*
X57520000Y-138880000D01*
X57520000Y-151120000D02*
X57520000Y-147183000D01*
%TO.C,R24*%
X126040000Y-146000000D02*
X126810000Y-146000000D01*
X134120000Y-146000000D02*
X133350000Y-146000000D01*
X126810000Y-144630000D02*
X133350000Y-144630000D01*
X133350000Y-147370000D01*
X126810000Y-147370000D01*
X126810000Y-144630000D01*
%TO.C,RV9*%
X47479000Y-114880000D02*
X57520000Y-114880000D01*
X47479000Y-118816000D02*
X47479000Y-114880000D01*
X47479000Y-127120000D02*
X47479000Y-123183000D01*
X47479000Y-127120000D02*
X48800000Y-127120000D01*
X51250000Y-127120000D02*
X51630000Y-127120000D01*
X53371000Y-127120000D02*
X54130000Y-127120000D01*
X55870000Y-127120000D02*
X57520000Y-127120000D01*
X57520000Y-118816000D02*
X57520000Y-114880000D01*
X57520000Y-127120000D02*
X57520000Y-123183000D01*
%TO.C,C13*%
X156880000Y-125630000D02*
X162120000Y-125630000D01*
X156880000Y-125967000D02*
X156880000Y-125630000D01*
X156880000Y-128370000D02*
X156880000Y-128033000D01*
X162120000Y-125630000D02*
X162120000Y-125967000D01*
X162120000Y-128033000D02*
X162120000Y-128370000D01*
X162120000Y-128370000D02*
X156880000Y-128370000D01*
%TO.C,C10*%
X60880000Y-125630000D02*
X66120000Y-125630000D01*
X60880000Y-125967000D02*
X60880000Y-125630000D01*
X60880000Y-128370000D02*
X60880000Y-128033000D01*
X66120000Y-125630000D02*
X66120000Y-125967000D01*
X66120000Y-128033000D02*
X66120000Y-128370000D01*
X66120000Y-128370000D02*
X60880000Y-128370000D01*
%TO.C,SW4*%
X25750000Y-131500000D02*
X25750000Y-133000000D01*
X27000000Y-135500000D02*
X31500000Y-135500000D01*
X31500000Y-129000000D02*
X27000000Y-129000000D01*
X32750000Y-133000000D02*
X32750000Y-131500000D01*
%TO.C,R4*%
X69040000Y-59000000D02*
X69810000Y-59000000D01*
X77120000Y-59000000D02*
X76350000Y-59000000D01*
X69810000Y-57630000D02*
X76350000Y-57630000D01*
X76350000Y-60370000D01*
X69810000Y-60370000D01*
X69810000Y-57630000D01*
%TO.C,C19*%
X159749759Y-62161000D02*
X160379759Y-62161000D01*
X160064759Y-61846000D02*
X160064759Y-62476000D01*
X163250000Y-60770000D02*
X163250000Y-67230000D01*
X163290000Y-60770000D02*
X163290000Y-67230000D01*
X163330000Y-60771000D02*
X163330000Y-67229000D01*
X163370000Y-60772000D02*
X163370000Y-67228000D01*
X163410000Y-60774000D02*
X163410000Y-67226000D01*
X163450000Y-60776000D02*
X163450000Y-67224000D01*
X163490000Y-60779000D02*
X163490000Y-62960000D01*
X163490000Y-65040000D02*
X163490000Y-67221000D01*
X163530000Y-60782000D02*
X163530000Y-62960000D01*
X163530000Y-65040000D02*
X163530000Y-67218000D01*
X163570000Y-60786000D02*
X163570000Y-62960000D01*
X163570000Y-65040000D02*
X163570000Y-67214000D01*
X163610000Y-60790000D02*
X163610000Y-62960000D01*
X163610000Y-65040000D02*
X163610000Y-67210000D01*
X163650000Y-60795000D02*
X163650000Y-62960000D01*
X163650000Y-65040000D02*
X163650000Y-67205000D01*
X163690000Y-60800000D02*
X163690000Y-62960000D01*
X163690000Y-65040000D02*
X163690000Y-67200000D01*
X163730000Y-60805000D02*
X163730000Y-62960000D01*
X163730000Y-65040000D02*
X163730000Y-67195000D01*
X163770000Y-60812000D02*
X163770000Y-62960000D01*
X163770000Y-65040000D02*
X163770000Y-67188000D01*
X163810000Y-60818000D02*
X163810000Y-62960000D01*
X163810000Y-65040000D02*
X163810000Y-67182000D01*
X163850000Y-60826000D02*
X163850000Y-62960000D01*
X163850000Y-65040000D02*
X163850000Y-67174000D01*
X163890000Y-60833000D02*
X163890000Y-62960000D01*
X163890000Y-65040000D02*
X163890000Y-67167000D01*
X163930000Y-60841000D02*
X163930000Y-62960000D01*
X163930000Y-65040000D02*
X163930000Y-67159000D01*
X163970000Y-60850000D02*
X163970000Y-62960000D01*
X163970000Y-65040000D02*
X163970000Y-67150000D01*
X164010000Y-60860000D02*
X164010000Y-62960000D01*
X164010000Y-65040000D02*
X164010000Y-67140000D01*
X164050000Y-60869000D02*
X164050000Y-62960000D01*
X164050000Y-65040000D02*
X164050000Y-67131000D01*
X164090000Y-60880000D02*
X164090000Y-62960000D01*
X164090000Y-65040000D02*
X164090000Y-67120000D01*
X164130000Y-60891000D02*
X164130000Y-62960000D01*
X164130000Y-65040000D02*
X164130000Y-67109000D01*
X164170000Y-60902000D02*
X164170000Y-62960000D01*
X164170000Y-65040000D02*
X164170000Y-67098000D01*
X164210000Y-60914000D02*
X164210000Y-62960000D01*
X164210000Y-65040000D02*
X164210000Y-67086000D01*
X164250000Y-60927000D02*
X164250000Y-62960000D01*
X164250000Y-65040000D02*
X164250000Y-67073000D01*
X164290000Y-60940000D02*
X164290000Y-62960000D01*
X164290000Y-65040000D02*
X164290000Y-67060000D01*
X164330000Y-60953000D02*
X164330000Y-62960000D01*
X164330000Y-65040000D02*
X164330000Y-67047000D01*
X164370000Y-60968000D02*
X164370000Y-62960000D01*
X164370000Y-65040000D02*
X164370000Y-67032000D01*
X164410000Y-60983000D02*
X164410000Y-62960000D01*
X164410000Y-65040000D02*
X164410000Y-67017000D01*
X164450000Y-60998000D02*
X164450000Y-62960000D01*
X164450000Y-65040000D02*
X164450000Y-67002000D01*
X164490000Y-61014000D02*
X164490000Y-62960000D01*
X164490000Y-65040000D02*
X164490000Y-66986000D01*
X164530000Y-61031000D02*
X164530000Y-62960000D01*
X164530000Y-65040000D02*
X164530000Y-66969000D01*
X164570000Y-61048000D02*
X164570000Y-62960000D01*
X164570000Y-65040000D02*
X164570000Y-66952000D01*
X164610000Y-61066000D02*
X164610000Y-62960000D01*
X164610000Y-65040000D02*
X164610000Y-66934000D01*
X164650000Y-61085000D02*
X164650000Y-62960000D01*
X164650000Y-65040000D02*
X164650000Y-66915000D01*
X164690000Y-61104000D02*
X164690000Y-62960000D01*
X164690000Y-65040000D02*
X164690000Y-66896000D01*
X164730000Y-61124000D02*
X164730000Y-62960000D01*
X164730000Y-65040000D02*
X164730000Y-66876000D01*
X164770000Y-61145000D02*
X164770000Y-62960000D01*
X164770000Y-65040000D02*
X164770000Y-66855000D01*
X164810000Y-61166000D02*
X164810000Y-62960000D01*
X164810000Y-65040000D02*
X164810000Y-66834000D01*
X164850000Y-61188000D02*
X164850000Y-62960000D01*
X164850000Y-65040000D02*
X164850000Y-66812000D01*
X164890000Y-61211000D02*
X164890000Y-62960000D01*
X164890000Y-65040000D02*
X164890000Y-66789000D01*
X164930000Y-61235000D02*
X164930000Y-62960000D01*
X164930000Y-65040000D02*
X164930000Y-66765000D01*
X164970000Y-61259000D02*
X164970000Y-62960000D01*
X164970000Y-65040000D02*
X164970000Y-66741000D01*
X165010000Y-61284000D02*
X165010000Y-62960000D01*
X165010000Y-65040000D02*
X165010000Y-66716000D01*
X165050000Y-61310000D02*
X165050000Y-62960000D01*
X165050000Y-65040000D02*
X165050000Y-66690000D01*
X165090000Y-61337000D02*
X165090000Y-62960000D01*
X165090000Y-65040000D02*
X165090000Y-66663000D01*
X165130000Y-61364000D02*
X165130000Y-62960000D01*
X165130000Y-65040000D02*
X165130000Y-66636000D01*
X165170000Y-61393000D02*
X165170000Y-62960000D01*
X165170000Y-65040000D02*
X165170000Y-66607000D01*
X165210000Y-61423000D02*
X165210000Y-62960000D01*
X165210000Y-65040000D02*
X165210000Y-66577000D01*
X165250000Y-61453000D02*
X165250000Y-62960000D01*
X165250000Y-65040000D02*
X165250000Y-66547000D01*
X165290000Y-61484000D02*
X165290000Y-62960000D01*
X165290000Y-65040000D02*
X165290000Y-66516000D01*
X165330000Y-61517000D02*
X165330000Y-62960000D01*
X165330000Y-65040000D02*
X165330000Y-66483000D01*
X165370000Y-61550000D02*
X165370000Y-62960000D01*
X165370000Y-65040000D02*
X165370000Y-66450000D01*
X165410000Y-61585000D02*
X165410000Y-62960000D01*
X165410000Y-65040000D02*
X165410000Y-66415000D01*
X165450000Y-61621000D02*
X165450000Y-62960000D01*
X165450000Y-65040000D02*
X165450000Y-66379000D01*
X165490000Y-61658000D02*
X165490000Y-62960000D01*
X165490000Y-65040000D02*
X165490000Y-66342000D01*
X165530000Y-61696000D02*
X165530000Y-62960000D01*
X165530000Y-65040000D02*
X165530000Y-66304000D01*
X165570000Y-61736000D02*
X165570000Y-66264000D01*
X165610000Y-61777000D02*
X165610000Y-66223000D01*
X165650000Y-61819000D02*
X165650000Y-66181000D01*
X165690000Y-61863000D02*
X165690000Y-66137000D01*
X165730000Y-61909000D02*
X165730000Y-66091000D01*
X165770000Y-61956000D02*
X165770000Y-66044000D01*
X165810000Y-62005000D02*
X165810000Y-65995000D01*
X165850000Y-62057000D02*
X165850000Y-65943000D01*
X165890000Y-62110000D02*
X165890000Y-65890000D01*
X165930000Y-62166000D02*
X165930000Y-65834000D01*
X165970000Y-62225000D02*
X165970000Y-65775000D01*
X166010000Y-62286000D02*
X166010000Y-65714000D01*
X166050000Y-62351000D02*
X166050000Y-65649000D01*
X166090000Y-62419000D02*
X166090000Y-65581000D01*
X166130000Y-62491000D02*
X166130000Y-65509000D01*
X166170000Y-62568000D02*
X166170000Y-65432000D01*
X166210000Y-62650000D02*
X166210000Y-65350000D01*
X166250000Y-62739000D02*
X166250000Y-65261000D01*
X166290000Y-62835000D02*
X166290000Y-65165000D01*
X166330000Y-62942000D02*
X166330000Y-65058000D01*
X166370000Y-63061000D02*
X166370000Y-64939000D01*
X166410000Y-63199000D02*
X166410000Y-64801000D01*
X166450000Y-63367000D02*
X166450000Y-64633000D01*
X166490000Y-63598000D02*
X166490000Y-64402000D01*
X166520000Y-64000000D02*
G75*
G02*
X159980000Y-64000000I-3270000J0D01*
G01*
X159980000Y-64000000D02*
G75*
G02*
X166520000Y-64000000I3270000J0D01*
G01*
%TO.C,C18*%
X135880000Y-170630000D02*
X141120000Y-170630000D01*
X135880000Y-170967000D02*
X135880000Y-170630000D01*
X135880000Y-173370000D02*
X135880000Y-173033000D01*
X141120000Y-170630000D02*
X141120000Y-170967000D01*
X141120000Y-173033000D02*
X141120000Y-173370000D01*
X141120000Y-173370000D02*
X135880000Y-173370000D01*
%TO.C,RV16*%
X143479000Y-138880000D02*
X153520000Y-138880000D01*
X143479000Y-142816000D02*
X143479000Y-138880000D01*
X143479000Y-151120000D02*
X143479000Y-147183000D01*
X143479000Y-151120000D02*
X144800000Y-151120000D01*
X147250000Y-151120000D02*
X147630000Y-151120000D01*
X149371000Y-151120000D02*
X150130000Y-151120000D01*
X151870000Y-151120000D02*
X153520000Y-151120000D01*
X153520000Y-142816000D02*
X153520000Y-138880000D01*
X153520000Y-151120000D02*
X153520000Y-147183000D01*
%TO.C,R15*%
X94040000Y-98000000D02*
X94810000Y-98000000D01*
X102120000Y-98000000D02*
X101350000Y-98000000D01*
X94810000Y-96630000D02*
X101350000Y-96630000D01*
X101350000Y-99370000D01*
X94810000Y-99370000D01*
X94810000Y-96630000D01*
%TO.C,R9*%
X172000000Y-142880000D02*
X172000000Y-143650000D01*
X172000000Y-150960000D02*
X172000000Y-150190000D01*
X170630000Y-143650000D02*
X173370000Y-143650000D01*
X173370000Y-150190000D01*
X170630000Y-150190000D01*
X170630000Y-143650000D01*
%TO.C,SW3*%
X25750000Y-109500000D02*
X25750000Y-111000000D01*
X27000000Y-113500000D02*
X31500000Y-113500000D01*
X31500000Y-107000000D02*
X27000000Y-107000000D01*
X32750000Y-111000000D02*
X32750000Y-109500000D01*
%TO.C,C12*%
X124880000Y-125630000D02*
X130120000Y-125630000D01*
X124880000Y-125967000D02*
X124880000Y-125630000D01*
X124880000Y-128370000D02*
X124880000Y-128033000D01*
X130120000Y-125630000D02*
X130120000Y-125967000D01*
X130120000Y-128033000D02*
X130120000Y-128370000D01*
X130120000Y-128370000D02*
X124880000Y-128370000D01*
%TO.C,R14*%
X62040000Y-98000000D02*
X62810000Y-98000000D01*
X70120000Y-98000000D02*
X69350000Y-98000000D01*
X62810000Y-96630000D02*
X69350000Y-96630000D01*
X69350000Y-99370000D01*
X62810000Y-99370000D01*
X62810000Y-96630000D01*
%TO.C,R27*%
X113040000Y-172000000D02*
X113810000Y-172000000D01*
X121120000Y-172000000D02*
X120350000Y-172000000D01*
X113810000Y-170630000D02*
X120350000Y-170630000D01*
X120350000Y-173370000D01*
X113810000Y-173370000D01*
X113810000Y-170630000D01*
%TO.C,R5*%
X69040000Y-65000000D02*
X69810000Y-65000000D01*
X77120000Y-65000000D02*
X76350000Y-65000000D01*
X69810000Y-63630000D02*
X76350000Y-63630000D01*
X76350000Y-66370000D01*
X69810000Y-66370000D01*
X69810000Y-63630000D01*
%TO.C,R16*%
X126040000Y-98000000D02*
X126810000Y-98000000D01*
X134120000Y-98000000D02*
X133350000Y-98000000D01*
X126810000Y-96630000D02*
X133350000Y-96630000D01*
X133350000Y-99370000D01*
X126810000Y-99370000D01*
X126810000Y-96630000D01*
%TO.C,JMD2*%
X65290000Y-135380000D02*
X65290000Y-134000000D01*
X66670000Y-135380000D02*
X65290000Y-135380000D01*
X67940000Y-132620000D02*
X73130000Y-132620000D01*
X67940000Y-135380000D02*
X67940000Y-132620000D01*
X67940000Y-135380000D02*
X73130000Y-135380000D01*
X73130000Y-135380000D02*
X73130000Y-132620000D01*
%TO.C,R19*%
X94040000Y-122000000D02*
X94810000Y-122000000D01*
X102120000Y-122000000D02*
X101350000Y-122000000D01*
X94810000Y-120630000D02*
X101350000Y-120630000D01*
X101350000Y-123370000D01*
X94810000Y-123370000D01*
X94810000Y-120630000D01*
%TO.C,J10*%
X97790000Y-24930000D02*
X113780000Y-24930000D01*
X97790000Y-49470000D02*
X97790000Y-24930000D01*
X101610000Y-16030000D02*
X101610000Y-24930000D01*
X112850000Y-16030000D02*
X101610000Y-16030000D01*
X112850000Y-16030000D02*
X112850000Y-24930000D01*
X113780000Y-49470000D02*
X97790000Y-49470000D01*
X113780000Y-49470000D02*
X113780000Y-24930000D01*
%TO.C,C17*%
X156880000Y-149630000D02*
X162120000Y-149630000D01*
X156880000Y-149967000D02*
X156880000Y-149630000D01*
X156880000Y-152370000D02*
X156880000Y-152033000D01*
X162120000Y-149630000D02*
X162120000Y-149967000D01*
X162120000Y-152033000D02*
X162120000Y-152370000D01*
X162120000Y-152370000D02*
X156880000Y-152370000D01*
%TO.C,R21*%
X158040000Y-122000000D02*
X158810000Y-122000000D01*
X166120000Y-122000000D02*
X165350000Y-122000000D01*
X158810000Y-120630000D02*
X165350000Y-120630000D01*
X165350000Y-123370000D01*
X158810000Y-123370000D01*
X158810000Y-120630000D01*
%TO.C,C5*%
X156880000Y-77630000D02*
X162120000Y-77630000D01*
X156880000Y-77967000D02*
X156880000Y-77630000D01*
X156880000Y-80370000D02*
X156880000Y-80033000D01*
X162120000Y-77630000D02*
X162120000Y-77967000D01*
X162120000Y-80033000D02*
X162120000Y-80370000D01*
X162120000Y-80370000D02*
X156880000Y-80370000D01*
%TD*%
M02*
