%TF.GenerationSoftware,KiCad,Pcbnew,10.0.3*%
%TF.CreationDate,2026-06-06T15:00:51+02:00*%
%TF.ProjectId,SysEx_Patcher,53797345-785f-4506-9174-636865722e6b,rev?*%
%TF.SameCoordinates,Original*%
%TF.FileFunction,Copper,L3,Inr*%
%TF.FilePolarity,Positive*%
%FSLAX46Y46*%
G04 Gerber Fmt 4.6, Leading zero omitted, Abs format (unit mm)*
G04 Created by KiCad (PCBNEW 10.0.3) date 2026-06-06 15:00:51*
%MOMM*%
%LPD*%
G01*
G04 APERTURE LIST*
G04 Aperture macros list*
%AMRoundRect*
0 Rectangle with rounded corners*
0 $1 Rounding radius*
0 $2 $3 $4 $5 $6 $7 $8 $9 X,Y pos of 4 corners*
0 Add a 4 corners polygon primitive as box body*
4,1,4,$2,$3,$4,$5,$6,$7,$8,$9,$2,$3,0*
0 Add four circle primitives for the rounded corners*
1,1,$1+$1,$2,$3*
1,1,$1+$1,$4,$5*
1,1,$1+$1,$6,$7*
1,1,$1+$1,$8,$9*
0 Add four rect primitives between the rounded corners*
20,1,$1+$1,$2,$3,$4,$5,0*
20,1,$1+$1,$4,$5,$6,$7,0*
20,1,$1+$1,$6,$7,$8,$9,0*
20,1,$1+$1,$8,$9,$2,$3,0*%
G04 Aperture macros list end*
%TA.AperFunction,ComponentPad*%
%ADD10R,1.800000X1.800000*%
%TD*%
%TA.AperFunction,ComponentPad*%
%ADD11C,1.800000*%
%TD*%
%TA.AperFunction,ComponentPad*%
%ADD12RoundRect,0.750000X-1.250000X-0.750000X1.250000X-0.750000X1.250000X0.750000X-1.250000X0.750000X0*%
%TD*%
%TA.AperFunction,ComponentPad*%
%ADD13C,1.600000*%
%TD*%
%TA.AperFunction,ComponentPad*%
%ADD14R,1.700000X1.700000*%
%TD*%
%TA.AperFunction,ComponentPad*%
%ADD15C,1.700000*%
%TD*%
%TA.AperFunction,ComponentPad*%
%ADD16R,3.500000X3.500000*%
%TD*%
%TA.AperFunction,ComponentPad*%
%ADD17RoundRect,0.750000X-0.750000X-1.000000X0.750000X-1.000000X0.750000X1.000000X-0.750000X1.000000X0*%
%TD*%
%TA.AperFunction,ComponentPad*%
%ADD18RoundRect,0.875000X-0.875000X-0.875000X0.875000X-0.875000X0.875000X0.875000X-0.875000X0.875000X0*%
%TD*%
%TA.AperFunction,ComponentPad*%
%ADD19RoundRect,0.250000X-0.550000X-0.550000X0.550000X-0.550000X0.550000X0.550000X-0.550000X0.550000X0*%
%TD*%
%TA.AperFunction,ComponentPad*%
%ADD20C,2.600000*%
%TD*%
%TA.AperFunction,ComponentPad*%
%ADD21C,2.400000*%
%TD*%
%TA.AperFunction,ComponentPad*%
%ADD22C,3.000000*%
%TD*%
%TA.AperFunction,ComponentPad*%
%ADD23C,2.000000*%
%TD*%
%TA.AperFunction,ComponentPad*%
%ADD24RoundRect,0.249999X-0.850001X-0.850001X0.850001X-0.850001X0.850001X0.850001X-0.850001X0.850001X0*%
%TD*%
%TA.AperFunction,ComponentPad*%
%ADD25C,2.200000*%
%TD*%
%TA.AperFunction,ViaPad*%
%ADD26C,0.600000*%
%TD*%
%TA.AperFunction,Conductor*%
%ADD27C,0.200000*%
%TD*%
G04 APERTURE END LIST*
D10*
%TO.N,+5V*%
%TO.C,RV3*%
X114000000Y-78000000D03*
D11*
%TO.N,POT3_W*%
X116500000Y-78000000D03*
%TO.N,GND*%
X119000000Y-78000000D03*
D12*
%TO.N,N/C*%
X112100000Y-71000000D03*
X120900000Y-71000000D03*
%TD*%
D13*
%TO.N,POT16_W*%
%TO.C,R25*%
X160000000Y-146000000D03*
%TO.N,MUX_CH0*%
X160000000Y-135840000D03*
%TD*%
%TO.N,POT9_W*%
%TO.C,R18*%
X64000000Y-122000000D03*
%TO.N,A2*%
X64000000Y-111840000D03*
%TD*%
D14*
%TO.N,D2*%
%TO.C,JMD1*%
X40000000Y-140000000D03*
D15*
%TO.N,D3*%
X42540000Y-140000000D03*
%TO.N,D4*%
X45080000Y-140000000D03*
%TO.N,GND*%
X47620000Y-140000000D03*
%TO.N,D13*%
X50160000Y-140000000D03*
%TO.N,D5*%
X52700000Y-140000000D03*
%TO.N,D6*%
X55240000Y-140000000D03*
%TO.N,D7*%
X57780000Y-140000000D03*
%TO.N,D8*%
X60320000Y-140000000D03*
%TO.N,D9*%
X62860000Y-140000000D03*
%TD*%
D13*
%TO.N,MIDI_IN_4*%
%TO.C,R1*%
X34000000Y-65000000D03*
%TO.N,OPTO_ANODE*%
X44160000Y-65000000D03*
%TD*%
D10*
%TO.N,+5V*%
%TO.C,RV11*%
X114000000Y-126000000D03*
D11*
%TO.N,POT11_W*%
X116500000Y-126000000D03*
%TO.N,GND*%
X119000000Y-126000000D03*
D12*
%TO.N,N/C*%
X112100000Y-119000000D03*
X120900000Y-119000000D03*
%TD*%
D16*
%TO.N,VIN_RAW*%
%TO.C,J3*%
X138000000Y-38000000D03*
D17*
%TO.N,GND*%
X138000000Y-32000000D03*
D18*
%TO.N,N/C*%
X133300000Y-35000000D03*
%TD*%
D10*
%TO.N,+5V*%
%TO.C,RV16*%
X146000000Y-150000000D03*
D11*
%TO.N,POT16_W*%
X148500000Y-150000000D03*
%TO.N,GND*%
X151000000Y-150000000D03*
D12*
%TO.N,N/C*%
X144100000Y-143000000D03*
X152900000Y-143000000D03*
%TD*%
D13*
%TO.N,D12*%
%TO.C,R6*%
X172000000Y-86000000D03*
%TO.N,LED1_A*%
X172000000Y-75840000D03*
%TD*%
D14*
%TO.N,N/C*%
%TO.C,JMA1*%
X48890000Y-92000000D03*
D15*
X51430000Y-92000000D03*
X53970000Y-92000000D03*
X56510000Y-92000000D03*
%TO.N,+5V*%
X59050000Y-92000000D03*
%TO.N,GND*%
X61590000Y-92000000D03*
X64130000Y-92000000D03*
%TO.N,VIN_RAW*%
X66670000Y-92000000D03*
%TD*%
D14*
%TO.N,D20_SDA*%
%TO.C,JMD4*%
X104770000Y-140000000D03*
D15*
%TO.N,D21_SCL*%
X107310000Y-140000000D03*
%TD*%
D13*
%TO.N,OPTO_VB*%
%TO.C,R4*%
X68000000Y-59000000D03*
%TO.N,GND*%
X78160000Y-59000000D03*
%TD*%
D19*
%TO.N,A15*%
%TO.C,U2*%
X50000000Y-180000000D03*
D13*
%TO.N,MUX_CH7*%
X52540000Y-180000000D03*
%TO.N,MUX_CH6*%
X55080000Y-180000000D03*
%TO.N,MUX_CH5*%
X57620000Y-180000000D03*
%TO.N,MUX_CH4*%
X60160000Y-180000000D03*
%TO.N,MUX_CH3*%
X62700000Y-180000000D03*
%TO.N,MUX_CH2*%
X65240000Y-180000000D03*
%TO.N,MUX_CH1*%
X67780000Y-180000000D03*
%TO.N,MUX_CH0*%
X70320000Y-180000000D03*
%TO.N,D2*%
X72860000Y-180000000D03*
%TO.N,D3*%
X75400000Y-180000000D03*
%TO.N,GND*%
X77940000Y-180000000D03*
%TO.N,D13*%
X77940000Y-164760000D03*
%TO.N,D4*%
X75400000Y-164760000D03*
%TO.N,GND*%
X72860000Y-164760000D03*
%TO.N,MUX_CH15*%
X70320000Y-164760000D03*
%TO.N,MUX_CH14*%
X67780000Y-164760000D03*
%TO.N,MUX_CH13*%
X65240000Y-164760000D03*
%TO.N,MUX_CH12*%
X62700000Y-164760000D03*
%TO.N,MUX_CH11*%
X60160000Y-164760000D03*
%TO.N,MUX_CH10*%
X57620000Y-164760000D03*
%TO.N,MUX_CH9*%
X55080000Y-164760000D03*
%TO.N,MUX_CH8*%
X52540000Y-164760000D03*
%TO.N,+5V*%
X50000000Y-164760000D03*
%TD*%
%TO.N,JACK_W*%
%TO.C,R27*%
X112000000Y-172000000D03*
%TO.N,MUX_CH1*%
X122160000Y-172000000D03*
%TD*%
%TO.N,A6*%
%TO.C,C11*%
X102000000Y-130000000D03*
%TO.N,GND*%
X102000000Y-125000000D03*
%TD*%
%TO.N,A14*%
%TO.C,C13*%
X166000000Y-130000000D03*
%TO.N,GND*%
X166000000Y-125000000D03*
%TD*%
D10*
%TO.N,GND*%
%TO.C,D5*%
X180000000Y-130000000D03*
D11*
%TO.N,LED3_A*%
X180000000Y-127460000D03*
%TD*%
D13*
%TO.N,A11*%
%TO.C,C16*%
X134000000Y-154000000D03*
%TO.N,GND*%
X134000000Y-149000000D03*
%TD*%
%TO.N,A3*%
%TO.C,C14*%
X70000000Y-154000000D03*
%TO.N,GND*%
X70000000Y-149000000D03*
%TD*%
%TO.N,D11*%
%TO.C,R7*%
X172000000Y-108000000D03*
%TO.N,LED2_A*%
X172000000Y-97840000D03*
%TD*%
D19*
%TO.N,OPTO_ANODE*%
%TO.C,D1*%
X34000000Y-59000000D03*
D13*
%TO.N,OPTO_CATHODE*%
X41620000Y-59000000D03*
%TD*%
%TO.N,A4*%
%TO.C,C7*%
X102000000Y-106000000D03*
%TO.N,GND*%
X102000000Y-101000000D03*
%TD*%
%TO.N,POT14_W*%
%TO.C,R23*%
X96000000Y-146000000D03*
%TO.N,A7*%
X96000000Y-135840000D03*
%TD*%
%TO.N,POT1_W*%
%TO.C,R10*%
X64000000Y-74000000D03*
%TO.N,A0*%
X64000000Y-63840000D03*
%TD*%
D14*
%TO.N,A0*%
%TO.C,JMA2*%
X71750000Y-92000000D03*
D15*
%TO.N,A1*%
X74290000Y-92000000D03*
%TO.N,A2*%
X76830000Y-92000000D03*
%TO.N,A3*%
X79370000Y-92000000D03*
%TO.N,A4*%
X81910000Y-92000000D03*
%TO.N,A5*%
X84450000Y-92000000D03*
%TO.N,A6*%
X86990000Y-92000000D03*
%TO.N,A7*%
X89530000Y-92000000D03*
%TD*%
D10*
%TO.N,+5V*%
%TO.C,RV4*%
X146000000Y-78000000D03*
D11*
%TO.N,POT4_W*%
X148500000Y-78000000D03*
%TO.N,GND*%
X151000000Y-78000000D03*
D12*
%TO.N,N/C*%
X144100000Y-71000000D03*
X152900000Y-71000000D03*
%TD*%
D20*
%TO.N,*%
%TO.C,J2*%
X67000000Y-28300000D03*
X77000000Y-28300000D03*
D21*
%TO.N,N/C*%
X64700000Y-38000000D03*
%TO.N,GND*%
X72000000Y-38000000D03*
%TO.N,N/C*%
X79300000Y-38000000D03*
%TO.N,MIDI_OUT_4*%
X77000000Y-40500000D03*
%TO.N,MIDI_OUT_5*%
X67000000Y-40500000D03*
%TD*%
D14*
%TO.N,A8*%
%TO.C,JMA3*%
X94610000Y-92000000D03*
D15*
%TO.N,A9*%
X97150000Y-92000000D03*
%TO.N,A10*%
X99690000Y-92000000D03*
%TO.N,A11*%
X102230000Y-92000000D03*
%TO.N,A12*%
X104770000Y-92000000D03*
%TO.N,A13*%
X107310000Y-92000000D03*
%TO.N,A14*%
X109850000Y-92000000D03*
%TO.N,A15*%
X112390000Y-92000000D03*
%TD*%
D10*
%TO.N,+5V*%
%TO.C,RV2*%
X82000000Y-78000000D03*
D11*
%TO.N,POT2_W*%
X84500000Y-78000000D03*
%TO.N,GND*%
X87000000Y-78000000D03*
D12*
%TO.N,N/C*%
X80100000Y-71000000D03*
X88900000Y-71000000D03*
%TD*%
D13*
%TO.N,POT2_W*%
%TO.C,R11*%
X96000000Y-74000000D03*
%TO.N,A5*%
X96000000Y-63840000D03*
%TD*%
%TO.N,A12*%
%TO.C,C5*%
X166000000Y-82000000D03*
%TO.N,GND*%
X166000000Y-77000000D03*
%TD*%
D10*
%TO.N,+5V*%
%TO.C,RV10*%
X82000000Y-126000000D03*
D11*
%TO.N,POT10_W*%
X84500000Y-126000000D03*
%TO.N,GND*%
X87000000Y-126000000D03*
D12*
%TO.N,N/C*%
X80100000Y-119000000D03*
X88900000Y-119000000D03*
%TD*%
D13*
%TO.N,POT7_W*%
%TO.C,R16*%
X128000000Y-98000000D03*
%TO.N,A9*%
X128000000Y-87840000D03*
%TD*%
D22*
%TO.N,GND*%
%TO.C,J10*%
X111430000Y-29300000D03*
%TO.N,+5V*%
X100000000Y-35650000D03*
%TO.N,N/C*%
X111430000Y-35650000D03*
%TO.N,GND*%
X100000000Y-29300000D03*
%TO.N,JACK_W*%
X100000000Y-42000000D03*
%TO.N,N/C*%
X111430000Y-42000000D03*
%TD*%
D10*
%TO.N,+5V*%
%TO.C,RV8*%
X146000000Y-102000000D03*
D11*
%TO.N,POT8_W*%
X148500000Y-102000000D03*
%TO.N,GND*%
X151000000Y-102000000D03*
D12*
%TO.N,N/C*%
X144100000Y-95000000D03*
X152900000Y-95000000D03*
%TD*%
D13*
%TO.N,POT8_W*%
%TO.C,R17*%
X160000000Y-98000000D03*
%TO.N,A13*%
X160000000Y-87840000D03*
%TD*%
%TO.N,MIDI_OUT_5*%
%TO.C,R3*%
X92000000Y-66000000D03*
%TO.N,D1_TX*%
X102160000Y-66000000D03*
%TD*%
%TO.N,POT10_W*%
%TO.C,R19*%
X96000000Y-122000000D03*
%TO.N,A6*%
X96000000Y-111840000D03*
%TD*%
%TO.N,POT13_W*%
%TO.C,R22*%
X64000000Y-146000000D03*
%TO.N,A3*%
X64000000Y-135840000D03*
%TD*%
%TO.N,POT11_W*%
%TO.C,R20*%
X128000000Y-122000000D03*
%TO.N,A10*%
X128000000Y-111840000D03*
%TD*%
%TO.N,MUX_CH1*%
%TO.C,C18*%
X136000000Y-172000000D03*
%TO.N,GND*%
X141000000Y-172000000D03*
%TD*%
D10*
%TO.N,+5V*%
%TO.C,RV9*%
X50000000Y-126000000D03*
D11*
%TO.N,POT9_W*%
X52500000Y-126000000D03*
%TO.N,GND*%
X55000000Y-126000000D03*
D12*
%TO.N,N/C*%
X48100000Y-119000000D03*
X56900000Y-119000000D03*
%TD*%
D19*
%TO.N,+5V*%
%TO.C,C19*%
X162000000Y-64000000D03*
D13*
%TO.N,GND*%
X164500000Y-64000000D03*
%TD*%
D10*
%TO.N,+5V*%
%TO.C,RV5*%
X50000000Y-102000000D03*
D11*
%TO.N,POT5_W*%
X52500000Y-102000000D03*
%TO.N,GND*%
X55000000Y-102000000D03*
D12*
%TO.N,N/C*%
X48100000Y-95000000D03*
X56900000Y-95000000D03*
%TD*%
D13*
%TO.N,POT12_W*%
%TO.C,R21*%
X160000000Y-122000000D03*
%TO.N,A14*%
X160000000Y-111840000D03*
%TD*%
D10*
%TO.N,GND*%
%TO.C,D3*%
X180000000Y-86000000D03*
D11*
%TO.N,LED1_A*%
X180000000Y-83460000D03*
%TD*%
D13*
%TO.N,A7*%
%TO.C,C15*%
X102000000Y-154000000D03*
%TO.N,GND*%
X102000000Y-149000000D03*
%TD*%
%TO.N,A9*%
%TO.C,C8*%
X134000000Y-106000000D03*
%TO.N,GND*%
X134000000Y-101000000D03*
%TD*%
%TO.N,A0*%
%TO.C,C2*%
X70000000Y-82000000D03*
%TO.N,GND*%
X70000000Y-77000000D03*
%TD*%
D23*
%TO.N,D6*%
%TO.C,SW4*%
X30000000Y-130000000D03*
X36500000Y-130000000D03*
%TO.N,GND*%
X30000000Y-134500000D03*
X36500000Y-134500000D03*
%TD*%
D13*
%TO.N,D10*%
%TO.C,R8*%
X172000000Y-130000000D03*
%TO.N,LED3_A*%
X172000000Y-119840000D03*
%TD*%
D10*
%TO.N,+5V*%
%TO.C,RV1*%
X50000000Y-78000000D03*
D11*
%TO.N,POT1_W*%
X52500000Y-78000000D03*
%TO.N,GND*%
X55000000Y-78000000D03*
D12*
%TO.N,N/C*%
X48100000Y-71000000D03*
X56900000Y-71000000D03*
%TD*%
D10*
%TO.N,+5V*%
%TO.C,RV12*%
X146000000Y-126000000D03*
D11*
%TO.N,POT12_W*%
X148500000Y-126000000D03*
%TO.N,GND*%
X151000000Y-126000000D03*
D12*
%TO.N,N/C*%
X144100000Y-119000000D03*
X152900000Y-119000000D03*
%TD*%
D13*
%TO.N,POT3_W*%
%TO.C,R12*%
X128000000Y-74000000D03*
%TO.N,A8*%
X128000000Y-63840000D03*
%TD*%
D10*
%TO.N,GND*%
%TO.C,D6*%
X180000000Y-152000000D03*
D11*
%TO.N,LED4_A*%
X180000000Y-149460000D03*
%TD*%
D10*
%TO.N,GND*%
%TO.C,D4*%
X180000000Y-108000000D03*
D11*
%TO.N,LED2_A*%
X180000000Y-105460000D03*
%TD*%
D13*
%TO.N,A2*%
%TO.C,C10*%
X70000000Y-130000000D03*
%TO.N,GND*%
X70000000Y-125000000D03*
%TD*%
D14*
%TO.N,GND*%
%TO.C,J5*%
X166000000Y-32000000D03*
D15*
%TO.N,+5V*%
X168540000Y-32000000D03*
%TO.N,D21_SCL*%
X171080000Y-32000000D03*
%TO.N,D20_SDA*%
X173620000Y-32000000D03*
%TD*%
D23*
%TO.N,D7*%
%TO.C,SW2*%
X30000000Y-86000000D03*
X36500000Y-86000000D03*
%TO.N,GND*%
X30000000Y-90500000D03*
X36500000Y-90500000D03*
%TD*%
D13*
%TO.N,A5*%
%TO.C,C3*%
X102000000Y-82000000D03*
%TO.N,GND*%
X102000000Y-77000000D03*
%TD*%
%TO.N,POT4_W*%
%TO.C,R13*%
X160000000Y-74000000D03*
%TO.N,A12*%
X160000000Y-63840000D03*
%TD*%
D10*
%TO.N,+5V*%
%TO.C,RV6*%
X82000000Y-102000000D03*
D11*
%TO.N,POT6_W*%
X84500000Y-102000000D03*
%TO.N,GND*%
X87000000Y-102000000D03*
D12*
%TO.N,N/C*%
X80100000Y-95000000D03*
X88900000Y-95000000D03*
%TD*%
D23*
%TO.N,D5*%
%TO.C,SW5*%
X30000000Y-152000000D03*
X36500000Y-152000000D03*
%TO.N,GND*%
X30000000Y-156500000D03*
X36500000Y-156500000D03*
%TD*%
D13*
%TO.N,A8*%
%TO.C,C4*%
X134000000Y-82000000D03*
%TO.N,GND*%
X134000000Y-77000000D03*
%TD*%
D10*
%TO.N,+5V*%
%TO.C,RV15*%
X114000000Y-150000000D03*
D11*
%TO.N,POT15_W*%
X116500000Y-150000000D03*
%TO.N,GND*%
X119000000Y-150000000D03*
D12*
%TO.N,N/C*%
X112100000Y-143000000D03*
X120900000Y-143000000D03*
%TD*%
D14*
%TO.N,D1_TX*%
%TO.C,JMD3*%
X81910000Y-140000000D03*
D15*
%TO.N,D0_RX*%
X84450000Y-140000000D03*
%TD*%
D13*
%TO.N,A10*%
%TO.C,C12*%
X134000000Y-130000000D03*
%TO.N,GND*%
X134000000Y-125000000D03*
%TD*%
D23*
%TO.N,D8*%
%TO.C,SW3*%
X30000000Y-108000000D03*
X36500000Y-108000000D03*
%TO.N,GND*%
X30000000Y-112500000D03*
X36500000Y-112500000D03*
%TD*%
D14*
%TO.N,D10*%
%TO.C,JMD2*%
X66670000Y-140000000D03*
D15*
%TO.N,D11*%
X69210000Y-140000000D03*
%TO.N,D12*%
X71750000Y-140000000D03*
%TD*%
D13*
%TO.N,MUX_CH0*%
%TO.C,C17*%
X166000000Y-154000000D03*
%TO.N,GND*%
X166000000Y-149000000D03*
%TD*%
%TO.N,POT6_W*%
%TO.C,R15*%
X96000000Y-98000000D03*
%TO.N,A4*%
X96000000Y-87840000D03*
%TD*%
D20*
%TO.N,*%
%TO.C,J1*%
X39000000Y-28300000D03*
X49000000Y-28300000D03*
D21*
%TO.N,N/C*%
X36700000Y-38000000D03*
%TO.N,GND*%
X44000000Y-38000000D03*
%TO.N,N/C*%
X51300000Y-38000000D03*
%TO.N,MIDI_IN_4*%
X49000000Y-40500000D03*
%TO.N,OPTO_CATHODE*%
X39000000Y-40500000D03*
%TD*%
D10*
%TO.N,+5V*%
%TO.C,RV14*%
X82000000Y-150000000D03*
D11*
%TO.N,POT14_W*%
X84500000Y-150000000D03*
%TO.N,GND*%
X87000000Y-150000000D03*
D12*
%TO.N,N/C*%
X80100000Y-143000000D03*
X88900000Y-143000000D03*
%TD*%
D14*
%TO.N,GND*%
%TO.C,J4*%
X136000000Y-60000000D03*
D15*
%TO.N,+5V*%
X138540000Y-60000000D03*
%TO.N,GND*%
X141080000Y-60000000D03*
%TO.N,VIN_RAW*%
X143620000Y-60000000D03*
%TD*%
D24*
%TO.N,+5V*%
%TO.C,D2D*%
X150000000Y-52000000D03*
D25*
%TO.N,VIN_RAW*%
X160160000Y-52000000D03*
%TD*%
D19*
%TO.N,N/C*%
%TO.C,U1*%
X48000000Y-54000000D03*
D13*
%TO.N,OPTO_ANODE*%
X48000000Y-56540000D03*
%TO.N,OPTO_CATHODE*%
X48000000Y-59080000D03*
%TO.N,N/C*%
X48000000Y-61620000D03*
%TO.N,GND*%
X55620000Y-61620000D03*
%TO.N,D0_RX*%
X55620000Y-59080000D03*
%TO.N,OPTO_VB*%
X55620000Y-56540000D03*
%TO.N,+5V*%
X55620000Y-54000000D03*
%TD*%
%TO.N,POT15_W*%
%TO.C,R24*%
X128000000Y-146000000D03*
%TO.N,A11*%
X128000000Y-135840000D03*
%TD*%
D10*
%TO.N,+5V*%
%TO.C,RV13*%
X50000000Y-150000000D03*
D11*
%TO.N,POT13_W*%
X52500000Y-150000000D03*
%TO.N,GND*%
X55000000Y-150000000D03*
D12*
%TO.N,N/C*%
X48100000Y-143000000D03*
X56900000Y-143000000D03*
%TD*%
D13*
%TO.N,MIDI_OUT_4*%
%TO.C,R2*%
X92000000Y-60000000D03*
%TO.N,+5V*%
X102160000Y-60000000D03*
%TD*%
%TO.N,POT5_W*%
%TO.C,R14*%
X64000000Y-98000000D03*
%TO.N,A1*%
X64000000Y-87840000D03*
%TD*%
D10*
%TO.N,+5V*%
%TO.C,RV7*%
X114000000Y-102000000D03*
D11*
%TO.N,POT7_W*%
X116500000Y-102000000D03*
%TO.N,GND*%
X119000000Y-102000000D03*
D12*
%TO.N,N/C*%
X112100000Y-95000000D03*
X120900000Y-95000000D03*
%TD*%
D13*
%TO.N,A1*%
%TO.C,C6*%
X70000000Y-106000000D03*
%TO.N,GND*%
X70000000Y-101000000D03*
%TD*%
%TO.N,D9*%
%TO.C,R9*%
X172000000Y-152000000D03*
%TO.N,LED4_A*%
X172000000Y-141840000D03*
%TD*%
%TO.N,D0_RX*%
%TO.C,R5*%
X68000000Y-65000000D03*
%TO.N,+5V*%
X78160000Y-65000000D03*
%TD*%
%TO.N,A13*%
%TO.C,C9*%
X166000000Y-106000000D03*
%TO.N,GND*%
X166000000Y-101000000D03*
%TD*%
%TO.N,+5V*%
%TO.C,C1*%
X80000000Y-62000000D03*
%TO.N,GND*%
X85000000Y-62000000D03*
%TD*%
D26*
%TO.N,A14*%
X157065700Y-92325500D03*
%TO.N,A11*%
X123993000Y-113931800D03*
%TO.N,A15*%
X103521200Y-157956500D03*
%TD*%
%TO.N,OPTO_CATHODE*%
D27*
X41620000Y-59000000D02*
X47920000Y-59000000D01*
X47920000Y-59000000D02*
X48000000Y-59080000D01*
%TO.N,+5V*%
X101048500Y-58888500D02*
X83111500Y-58888500D01*
X115201700Y-102450700D02*
X115201700Y-102000000D01*
X51201700Y-150000000D02*
X51201700Y-150450700D01*
X115201700Y-126450600D02*
X115952800Y-127201700D01*
X143596600Y-127201700D02*
X144798300Y-126000000D01*
X114000000Y-126000000D02*
X115201700Y-126000000D01*
X146000000Y-78000000D02*
X147201700Y-78000000D01*
X83952700Y-151201700D02*
X83201700Y-150450700D01*
X143596600Y-103201700D02*
X115952700Y-103201700D01*
X111596600Y-151201700D02*
X83952700Y-151201700D01*
X83201700Y-150450700D02*
X83201700Y-150000000D01*
X162000000Y-65393400D02*
X162000000Y-64000000D01*
X146000000Y-102000000D02*
X144798300Y-102000000D01*
X82000000Y-150000000D02*
X80798300Y-150000000D01*
X144798300Y-102000000D02*
X143596600Y-103201700D01*
X146000000Y-126000000D02*
X144798300Y-126000000D01*
X115952800Y-127201700D02*
X143596600Y-127201700D01*
X147201700Y-78000000D02*
X147201700Y-77549400D01*
X115201700Y-126000000D02*
X115201700Y-126450600D01*
X114000000Y-102000000D02*
X115201700Y-102000000D01*
X112798300Y-150000000D02*
X111596600Y-151201700D01*
X162000000Y-64000000D02*
X150000000Y-52000000D01*
X51201700Y-150450700D02*
X52426000Y-151675000D01*
X82000000Y-150000000D02*
X83201700Y-150000000D01*
X151851300Y-72899800D02*
X154493600Y-72899800D01*
X52426000Y-151675000D02*
X79123300Y-151675000D01*
X147201700Y-77549400D02*
X151851300Y-72899800D01*
X154493600Y-72899800D02*
X162000000Y-65393400D01*
X102160000Y-60000000D02*
X101048500Y-58888500D01*
X79123300Y-151675000D02*
X80798300Y-150000000D01*
X114000000Y-150000000D02*
X112798300Y-150000000D01*
X74722600Y-54000000D02*
X55620000Y-54000000D01*
X81361300Y-60638700D02*
X74722600Y-54000000D01*
X83111500Y-58888500D02*
X81361300Y-60638700D01*
X115952700Y-103201700D02*
X115201700Y-102450700D01*
X81361300Y-60638700D02*
X80000000Y-62000000D01*
X50000000Y-150000000D02*
X51201700Y-150000000D01*
%TO.N,VIN_RAW*%
X67873500Y-93203500D02*
X74726900Y-93203500D01*
X160160000Y-52000000D02*
X158757300Y-50597300D01*
X135812900Y-67807100D02*
X143620000Y-60000000D01*
X148900700Y-46849000D02*
X140051700Y-38000000D01*
X66670000Y-92000000D02*
X67873500Y-93203500D01*
X99352600Y-67807100D02*
X135812900Y-67807100D01*
X148900700Y-50597300D02*
X148900700Y-46849000D01*
X158757300Y-50597300D02*
X148900700Y-50597300D01*
X75560000Y-91599700D02*
X99352600Y-67807100D01*
X138000000Y-38000000D02*
X140051700Y-38000000D01*
X75560000Y-92370400D02*
X75560000Y-91599700D01*
X148900700Y-50597300D02*
X143620000Y-55878000D01*
X74726900Y-93203500D02*
X75560000Y-92370400D01*
X143620000Y-55878000D02*
X143620000Y-60000000D01*
%TO.N,OPTO_ANODE*%
X34000000Y-59000000D02*
X36460000Y-56540000D01*
X36460000Y-56540000D02*
X48000000Y-56540000D01*
%TO.N,D0_RX*%
X61540000Y-65000000D02*
X55620000Y-59080000D01*
X68000000Y-65000000D02*
X61540000Y-65000000D01*
%TO.N,OPTO_VB*%
X68000000Y-59000000D02*
X58080000Y-59000000D01*
X58080000Y-59000000D02*
X55620000Y-56540000D01*
%TO.N,D7*%
X36500000Y-86000000D02*
X30000000Y-86000000D01*
%TO.N,D8*%
X36500000Y-108000000D02*
X30000000Y-108000000D01*
%TO.N,D6*%
X36500000Y-130000000D02*
X30000000Y-130000000D01*
X55240000Y-140000000D02*
X45240000Y-130000000D01*
X45240000Y-130000000D02*
X36500000Y-130000000D01*
%TO.N,D5*%
X42667800Y-152000000D02*
X36500000Y-152000000D01*
X52700000Y-141967800D02*
X42667800Y-152000000D01*
X52700000Y-140000000D02*
X52700000Y-141967800D01*
X36500000Y-152000000D02*
X30000000Y-152000000D01*
%TO.N,POT1_W*%
X56500000Y-74000000D02*
X52500000Y-78000000D01*
X64000000Y-74000000D02*
X56500000Y-74000000D01*
%TO.N,A5*%
X94450000Y-82000000D02*
X84450000Y-92000000D01*
X102000000Y-82000000D02*
X94450000Y-82000000D01*
%TO.N,POT3_W*%
X120500000Y-74000000D02*
X116500000Y-78000000D01*
X128000000Y-74000000D02*
X120500000Y-74000000D01*
%TO.N,A8*%
X95761700Y-92000000D02*
X95761700Y-91712100D01*
X95761700Y-91712100D02*
X105473800Y-82000000D01*
X94610000Y-92000000D02*
X95761700Y-92000000D01*
X105473800Y-82000000D02*
X134000000Y-82000000D01*
%TO.N,POT4_W*%
X148500000Y-78000000D02*
X152500000Y-74000000D01*
X152500000Y-74000000D02*
X160000000Y-74000000D01*
%TO.N,A12*%
X156863600Y-82000000D02*
X166000000Y-82000000D01*
X104770000Y-92000000D02*
X107275600Y-89494400D01*
X107275600Y-89494400D02*
X149369200Y-89494400D01*
X149369200Y-89494400D02*
X156863600Y-82000000D01*
%TO.N,POT5_W*%
X56500000Y-98000000D02*
X52500000Y-102000000D01*
X64000000Y-98000000D02*
X56500000Y-98000000D01*
%TO.N,A1*%
X70130000Y-87840000D02*
X64000000Y-87840000D01*
X74290000Y-92000000D02*
X70130000Y-87840000D01*
%TO.N,POT6_W*%
X96000000Y-98000000D02*
X88500000Y-98000000D01*
X88500000Y-98000000D02*
X84500000Y-102000000D01*
%TO.N,A4*%
X84940800Y-93161900D02*
X85838300Y-92264400D01*
X89463800Y-87840000D02*
X96000000Y-87840000D01*
X85838300Y-92264400D02*
X85838300Y-91465500D01*
X81910000Y-92000000D02*
X83071900Y-93161900D01*
X83071900Y-93161900D02*
X84940800Y-93161900D01*
X85838300Y-91465500D02*
X89463800Y-87840000D01*
%TO.N,POT7_W*%
X120500000Y-98000000D02*
X116500000Y-102000000D01*
X128000000Y-98000000D02*
X120500000Y-98000000D01*
%TO.N,A9*%
X101310000Y-87840000D02*
X128000000Y-87840000D01*
X97150000Y-92000000D02*
X101310000Y-87840000D01*
%TO.N,POT8_W*%
X152500000Y-98000000D02*
X148500000Y-102000000D01*
X160000000Y-98000000D02*
X152500000Y-98000000D01*
%TO.N,A13*%
X160000000Y-87840000D02*
X157413700Y-90426300D01*
X108883700Y-90426300D02*
X107310000Y-92000000D01*
X157413700Y-90426300D02*
X108883700Y-90426300D01*
%TO.N,POT9_W*%
X64000000Y-122000000D02*
X56500000Y-122000000D01*
X56500000Y-122000000D02*
X52500000Y-126000000D01*
%TO.N,POT10_W*%
X88500000Y-122000000D02*
X84500000Y-126000000D01*
X96000000Y-122000000D02*
X88500000Y-122000000D01*
%TO.N,POT11_W*%
X116500000Y-126000000D02*
X120500000Y-122000000D01*
X120500000Y-122000000D02*
X128000000Y-122000000D01*
%TO.N,A10*%
X113397400Y-103624200D02*
X119784200Y-103624200D01*
X111520600Y-101464600D02*
X111520600Y-101747400D01*
X111520600Y-101747400D02*
X113397400Y-103624200D01*
X100870100Y-90819900D02*
X102703300Y-90819900D01*
X103618300Y-93562300D02*
X111520600Y-101464600D01*
X103618300Y-91734900D02*
X103618300Y-93562300D01*
X102703300Y-90819900D02*
X103618300Y-91734900D01*
X119784200Y-103624200D02*
X128000000Y-111840000D01*
X99690000Y-92000000D02*
X100870100Y-90819900D01*
%TO.N,POT12_W*%
X148500000Y-126000000D02*
X152500000Y-122000000D01*
X152500000Y-122000000D02*
X160000000Y-122000000D01*
%TO.N,A14*%
X111022000Y-90828000D02*
X155568200Y-90828000D01*
X109850000Y-92000000D02*
X111022000Y-90828000D01*
X155568200Y-90828000D02*
X157065700Y-92325500D01*
%TO.N,POT13_W*%
X53734500Y-151234500D02*
X52500000Y-150000000D01*
X64000000Y-146000000D02*
X58765500Y-151234500D01*
X58765500Y-151234500D02*
X53734500Y-151234500D01*
%TO.N,POT14_W*%
X88500000Y-146000000D02*
X84500000Y-150000000D01*
X96000000Y-146000000D02*
X88500000Y-146000000D01*
%TO.N,POT15_W*%
X120500000Y-146000000D02*
X116500000Y-150000000D01*
X128000000Y-146000000D02*
X120500000Y-146000000D01*
%TO.N,A11*%
X102230000Y-92000000D02*
X102230000Y-93024800D01*
X102230000Y-93024800D02*
X123137000Y-113931800D01*
X123137000Y-113931800D02*
X123993000Y-113931800D01*
%TO.N,POT16_W*%
X160000000Y-146000000D02*
X152500000Y-146000000D01*
X152500000Y-146000000D02*
X148500000Y-150000000D01*
%TO.N,MUX_CH0*%
X159822900Y-160177200D02*
X159822900Y-160177100D01*
X159822900Y-160177100D02*
X166000000Y-154000000D01*
X90142800Y-160177200D02*
X159822900Y-160177200D01*
X70320000Y-180000000D02*
X90142800Y-160177200D01*
%TO.N,D12*%
X143281800Y-116279700D02*
X103445100Y-116279700D01*
X81884700Y-137840100D02*
X73909900Y-137840100D01*
X172000000Y-87561500D02*
X143281800Y-116279700D01*
X103445100Y-116279700D02*
X81884700Y-137840100D01*
X73909900Y-137840100D02*
X71750000Y-140000000D01*
X172000000Y-86000000D02*
X172000000Y-87561500D01*
%TO.N,LED1_A*%
X179620000Y-83460000D02*
X172000000Y-75840000D01*
X180000000Y-83460000D02*
X179620000Y-83460000D01*
%TO.N,D11*%
X79890300Y-138241800D02*
X97839500Y-138241800D01*
X69210000Y-140000000D02*
X70403400Y-141193400D01*
X119399900Y-116681400D02*
X163318600Y-116681400D01*
X163318600Y-116681400D02*
X172000000Y-108000000D01*
X70403400Y-141193400D02*
X76938700Y-141193400D01*
X76938700Y-141193400D02*
X79890300Y-138241800D01*
X97839500Y-138241800D02*
X119399900Y-116681400D01*
%TO.N,LED2_A*%
X180000000Y-105460000D02*
X179620000Y-105460000D01*
X179620000Y-105460000D02*
X172000000Y-97840000D01*
%TO.N,D10*%
X77506800Y-141193400D02*
X160806600Y-141193400D01*
X69128900Y-141595100D02*
X77105100Y-141595100D01*
X66670000Y-140000000D02*
X67821700Y-140000000D01*
X67821700Y-140287900D02*
X69128900Y-141595100D01*
X160806600Y-141193400D02*
X172000000Y-130000000D01*
X77105100Y-141595100D02*
X77506800Y-141193400D01*
X67821700Y-140000000D02*
X67821700Y-140287900D01*
%TO.N,LED3_A*%
X180000000Y-127460000D02*
X179620000Y-127460000D01*
X179620000Y-127460000D02*
X172000000Y-119840000D01*
%TO.N,D9*%
X164804500Y-144804500D02*
X172000000Y-152000000D01*
X67664500Y-144804500D02*
X164804500Y-144804500D01*
X62860000Y-140000000D02*
X67664500Y-144804500D01*
%TO.N,LED4_A*%
X172380000Y-141840000D02*
X172000000Y-141840000D01*
X180000000Y-149460000D02*
X172380000Y-141840000D01*
%TO.N,A15*%
X50000000Y-180000000D02*
X56180200Y-173819800D01*
X74801400Y-173819800D02*
X90664700Y-157956500D01*
X90664700Y-157956500D02*
X103521200Y-157956500D01*
X56180200Y-173819800D02*
X74801400Y-173819800D01*
%TO.N,MUX_CH1*%
X122160000Y-172000000D02*
X119675300Y-174484700D01*
X136000000Y-172000000D02*
X122160000Y-172000000D01*
X71758300Y-179512400D02*
X71758300Y-180138700D01*
X71758300Y-180138700D02*
X70758200Y-181138800D01*
X76786000Y-174484700D02*
X71758300Y-179512400D01*
X119675300Y-174484700D02*
X76786000Y-174484700D01*
X70758200Y-181138800D02*
X68918800Y-181138800D01*
X68918800Y-181138800D02*
X67780000Y-180000000D01*
%TD*%
M02*
