M48
; DRILL file KiCad 10.0.3 date 2026-06-06T11:03:08
; FORMAT={-:-/ absolute / metric / decimal}
; #@! TF.CreationDate,2026-06-06T11:03:08+02:00
; #@! TF.GenerationSoftware,Kicad,Pcbnew,10.0.3
; #@! TF.FileFunction,MixedPlating,1,4
FMAT,2
METRIC
; #@! TA.AperFunction,Plated,PTH,ComponentDrill
T1C0.800
; #@! TA.AperFunction,Plated,PTH,ComponentDrill
T2C0.900
; #@! TA.AperFunction,Plated,PTH,ComponentDrill
T3C1.000
; #@! TA.AperFunction,Plated,PTH,ComponentDrill
T4C1.100
; #@! TA.AperFunction,Plated,PTH,ComponentDrill
T5C1.400
; #@! TA.AperFunction,Plated,PTH,ComponentDrill
T6C1.500
; #@! TA.AperFunction,Plated,PTH,ComponentDrill
T7C1.800
; #@! TA.AperFunction,NonPlated,NPTH,ComponentDrill
T8C2.000
; #@! TA.AperFunction,NonPlated,NPTH,ComponentDrill
T9C3.000
%
G90
G05
T1
X14.0Y-39.0
X14.0Y-45.0
X21.62Y-39.0
X24.16Y-45.0
X28.0Y-34.0
X28.0Y-36.54
X28.0Y-39.08
X28.0Y-41.62
X35.62Y-34.0
X35.62Y-36.54
X35.62Y-39.08
X35.62Y-41.62
X44.0Y-51.84
X44.0Y-62.0
X44.0Y-77.84
X44.0Y-88.0
X44.0Y-103.84
X44.0Y-114.0
X44.0Y-129.84
X44.0Y-140.0
X48.0Y-39.0
X48.0Y-45.0
X48.0Y-178.0
X48.0Y-180.54
X48.0Y-183.08
X48.0Y-185.62
X48.0Y-188.16
X48.0Y-190.7
X48.0Y-193.24
X48.0Y-195.78
X48.0Y-198.32
X48.0Y-200.86
X48.0Y-203.4
X48.0Y-205.94
X50.0Y-65.0
X50.0Y-70.0
X50.0Y-91.0
X50.0Y-96.0
X50.0Y-117.0
X50.0Y-122.0
X50.0Y-143.0
X50.0Y-148.0
X58.16Y-39.0
X58.16Y-45.0
X60.0Y-42.0
X63.24Y-178.0
X63.24Y-180.54
X63.24Y-183.08
X63.24Y-185.62
X63.24Y-188.16
X63.24Y-190.7
X63.24Y-193.24
X63.24Y-195.78
X63.24Y-198.32
X63.24Y-200.86
X63.24Y-203.4
X63.24Y-205.94
X65.0Y-42.0
X70.0Y-42.0
X72.0Y-42.0
X74.0Y-42.0
X76.0Y-51.84
X76.0Y-62.0
X76.0Y-77.84
X76.0Y-88.0
X76.0Y-103.84
X76.0Y-114.0
X76.0Y-129.84
X76.0Y-140.0
X82.0Y-65.0
X82.0Y-70.0
X82.0Y-91.0
X82.0Y-96.0
X82.0Y-117.0
X82.0Y-122.0
X82.0Y-143.0
X82.0Y-148.0
X95.0Y-192.0
X98.0Y-39.0
X98.0Y-45.0
X105.16Y-192.0
X108.0Y-51.84
X108.0Y-62.0
X108.0Y-77.84
X108.0Y-88.0
X108.0Y-103.84
X108.0Y-114.0
X108.0Y-129.84
X108.0Y-140.0
X108.16Y-39.0
X108.16Y-45.0
X114.0Y-65.0
X114.0Y-70.0
X114.0Y-91.0
X114.0Y-96.0
X114.0Y-117.0
X114.0Y-122.0
X114.0Y-143.0
X114.0Y-148.0
X120.0Y-192.0
X125.0Y-192.0
X140.0Y-51.84
X140.0Y-62.0
X140.0Y-77.84
X140.0Y-88.0
X140.0Y-103.84
X140.0Y-114.0
X140.0Y-129.84
X140.0Y-140.0
X146.0Y-65.0
X146.0Y-70.0
X146.0Y-91.0
X146.0Y-96.0
X146.0Y-117.0
X146.0Y-122.0
X146.0Y-143.0
X146.0Y-148.0
X152.0Y-55.84
X152.0Y-66.0
X152.0Y-77.84
X152.0Y-88.0
X152.0Y-99.84
X152.0Y-110.0
X152.0Y-121.84
X152.0Y-132.0
T2
X160.0Y-63.46
X160.0Y-66.0
X160.0Y-85.46
X160.0Y-88.0
X160.0Y-107.46
X160.0Y-110.0
X160.0Y-129.46
X160.0Y-132.0
T3
X20.0Y-220.0
X22.54Y-220.0
X25.08Y-220.0
X27.62Y-220.0
X28.89Y-172.0
X30.0Y-66.0
X30.0Y-92.0
X30.0Y-118.0
X30.0Y-144.0
X30.16Y-220.0
X31.43Y-172.0
X32.5Y-66.0
X32.5Y-92.0
X32.5Y-118.0
X32.5Y-144.0
X32.7Y-220.0
X33.97Y-172.0
X35.0Y-66.0
X35.0Y-92.0
X35.0Y-118.0
X35.0Y-144.0
X35.24Y-220.0
X36.51Y-172.0
X37.78Y-220.0
X39.05Y-172.0
X40.32Y-220.0
X41.59Y-172.0
X42.86Y-220.0
X44.13Y-172.0
X46.67Y-172.0
X46.67Y-220.0
X49.21Y-220.0
X51.75Y-172.0
X51.75Y-220.0
X54.29Y-172.0
X56.83Y-172.0
X59.37Y-172.0
X61.91Y-172.0
X61.91Y-220.0
X62.0Y-66.0
X62.0Y-92.0
X62.0Y-118.0
X62.0Y-144.0
X64.45Y-172.0
X64.45Y-220.0
X64.5Y-66.0
X64.5Y-92.0
X64.5Y-118.0
X64.5Y-144.0
X66.99Y-172.0
X67.0Y-66.0
X67.0Y-92.0
X67.0Y-118.0
X67.0Y-144.0
X69.53Y-172.0
X74.61Y-172.0
X77.15Y-172.0
X79.69Y-172.0
X82.23Y-172.0
X84.77Y-172.0
X84.77Y-220.0
X87.31Y-172.0
X87.31Y-220.0
X89.85Y-172.0
X92.39Y-172.0
X94.0Y-66.0
X94.0Y-92.0
X94.0Y-118.0
X94.0Y-144.0
X96.5Y-66.0
X96.5Y-92.0
X96.5Y-118.0
X96.5Y-144.0
X99.0Y-66.0
X99.0Y-92.0
X99.0Y-118.0
X99.0Y-144.0
X126.0Y-66.0
X126.0Y-92.0
X126.0Y-118.0
X126.0Y-144.0
X128.5Y-66.0
X128.5Y-92.0
X128.5Y-118.0
X128.5Y-144.0
X131.0Y-66.0
X131.0Y-92.0
X131.0Y-118.0
X131.0Y-144.0
X148.0Y-10.0
X148.0Y-12.54
X148.0Y-15.08
X148.0Y-17.62
X148.0Y-28.0
X148.0Y-30.54
X148.0Y-33.08
X148.0Y-35.62
T4
X10.0Y-66.0
X10.0Y-70.5
X10.0Y-88.0
X10.0Y-92.5
X10.0Y-110.0
X10.0Y-114.5
X10.0Y-132.0
X10.0Y-136.5
X16.5Y-66.0
X16.5Y-70.5
X16.5Y-88.0
X16.5Y-92.5
X16.5Y-110.0
X16.5Y-114.5
X16.5Y-132.0
X16.5Y-136.5
X130.0Y-32.0
X140.16Y-32.0
T5
X16.7Y-18.0
X19.0Y-8.3
X19.0Y-20.5
X24.0Y-18.0
X29.0Y-8.3
X29.0Y-20.5
X31.3Y-18.0
X44.7Y-18.0
X47.0Y-8.3
X47.0Y-20.5
X52.0Y-18.0
X57.0Y-8.3
X57.0Y-20.5
X59.3Y-18.0
T6
X67.9Y-42.0
X76.1Y-42.0
X76.57Y-9.0
X76.57Y-15.35
X76.57Y-21.7
X88.0Y-9.0
X88.0Y-15.35
X88.0Y-21.7
T8
X76.57Y-18.5
X88.0Y-18.5
T9
X85.87Y-12.15
T3
X112.3Y-15.0G85X114.3Y-15.0
G05
X118.0Y-11.0G85X118.0Y-13.0
G05
X118.0Y-17.0G85X118.0Y-19.0
G05
T7
X27.95Y-59.0G85X28.25Y-59.0
G05
X27.95Y-85.0G85X28.25Y-85.0
G05
X27.95Y-111.0G85X28.25Y-111.0
G05
X27.95Y-137.0G85X28.25Y-137.0
G05
X36.75Y-59.0G85X37.05Y-59.0
G05
X36.75Y-85.0G85X37.05Y-85.0
G05
X36.75Y-111.0G85X37.05Y-111.0
G05
X36.75Y-137.0G85X37.05Y-137.0
G05
X59.95Y-59.0G85X60.25Y-59.0
G05
X59.95Y-85.0G85X60.25Y-85.0
G05
X59.95Y-111.0G85X60.25Y-111.0
G05
X59.95Y-137.0G85X60.25Y-137.0
G05
X68.75Y-59.0G85X69.05Y-59.0
G05
X68.75Y-85.0G85X69.05Y-85.0
G05
X68.75Y-111.0G85X69.05Y-111.0
G05
X68.75Y-137.0G85X69.05Y-137.0
G05
X91.95Y-59.0G85X92.25Y-59.0
G05
X91.95Y-85.0G85X92.25Y-85.0
G05
X91.95Y-111.0G85X92.25Y-111.0
G05
X91.95Y-137.0G85X92.25Y-137.0
G05
X100.75Y-59.0G85X101.05Y-59.0
G05
X100.75Y-85.0G85X101.05Y-85.0
G05
X100.75Y-111.0G85X101.05Y-111.0
G05
X100.75Y-137.0G85X101.05Y-137.0
G05
X123.95Y-59.0G85X124.25Y-59.0
G05
X123.95Y-85.0G85X124.25Y-85.0
G05
X123.95Y-111.0G85X124.25Y-111.0
G05
X123.95Y-137.0G85X124.25Y-137.0
G05
X132.75Y-59.0G85X133.05Y-59.0
G05
X132.75Y-85.0G85X133.05Y-85.0
G05
X132.75Y-111.0G85X133.05Y-111.0
G05
X132.75Y-137.0G85X133.05Y-137.0
G05
M30
