%TF.GenerationSoftware,KiCad,Pcbnew,10.0.3*%
%TF.CreationDate,2026-06-06T11:47:45+02:00*%
%TF.ProjectId,SysEx_Patcher,53797345-785f-4506-9174-636865722e6b,rev?*%
%TF.SameCoordinates,Original*%
%TF.FileFunction,Copper,L1,Top*%
%TF.FilePolarity,Positive*%
%FSLAX46Y46*%
G04 Gerber Fmt 4.6, Leading zero omitted, Abs format (unit mm)*
G04 Created by KiCad (PCBNEW 10.0.3) date 2026-06-06 11:47:45*
%MOMM*%
%LPD*%
G01*
G04 APERTURE LIST*
G04 Aperture macros list*
%AMRoundRect*
0 Rectangle with rounded corners*
0 $1 Rounding radius*
0 $2 $3 $4 $5 $6 $7 $8 $9 X,Y pos of 4 corners*
0 Add a 4 corners polygon primitive as box body*
4,1,4,$2,$3,$4,$5,$6,$7,$8,$9,$2,$3,0*
0 Add four circle primitives for the rounded corners*
1,1,$1+$1,$2,$3*
1,1,$1+$1,$4,$5*
1,1,$1+$1,$6,$7*
1,1,$1+$1,$8,$9*
0 Add four rect primitives between the rounded corners*
20,1,$1+$1,$2,$3,$4,$5,0*
20,1,$1+$1,$4,$5,$6,$7,0*
20,1,$1+$1,$6,$7,$8,$9,0*
20,1,$1+$1,$8,$9,$2,$3,0*%
G04 Aperture macros list end*
%TA.AperFunction,ComponentPad*%
%ADD10C,1.600000*%
%TD*%
%TA.AperFunction,ComponentPad*%
%ADD11R,1.800000X1.800000*%
%TD*%
%TA.AperFunction,ComponentPad*%
%ADD12C,1.800000*%
%TD*%
%TA.AperFunction,ComponentPad*%
%ADD13RoundRect,0.750000X-1.250000X-0.750000X1.250000X-0.750000X1.250000X0.750000X-1.250000X0.750000X0*%
%TD*%
%TA.AperFunction,ComponentPad*%
%ADD14RoundRect,0.250000X-0.550000X-0.550000X0.550000X-0.550000X0.550000X0.550000X-0.550000X0.550000X0*%
%TD*%
%TA.AperFunction,ComponentPad*%
%ADD15C,2.600000*%
%TD*%
%TA.AperFunction,ComponentPad*%
%ADD16C,2.400000*%
%TD*%
%TA.AperFunction,ComponentPad*%
%ADD17R,1.700000X1.700000*%
%TD*%
%TA.AperFunction,ComponentPad*%
%ADD18C,1.700000*%
%TD*%
%TA.AperFunction,ComponentPad*%
%ADD19O,2.200000X3.500000*%
%TD*%
%TA.AperFunction,ComponentPad*%
%ADD20R,1.500000X2.500000*%
%TD*%
%TA.AperFunction,ComponentPad*%
%ADD21O,1.500000X2.500000*%
%TD*%
%TA.AperFunction,ComponentPad*%
%ADD22C,2.000000*%
%TD*%
%TA.AperFunction,ComponentPad*%
%ADD23C,3.000000*%
%TD*%
%TA.AperFunction,ComponentPad*%
%ADD24RoundRect,0.249999X-0.850001X-0.850001X0.850001X-0.850001X0.850001X0.850001X-0.850001X0.850001X0*%
%TD*%
%TA.AperFunction,ComponentPad*%
%ADD25C,2.200000*%
%TD*%
%TA.AperFunction,ComponentPad*%
%ADD26R,3.500000X3.500000*%
%TD*%
%TA.AperFunction,ComponentPad*%
%ADD27RoundRect,0.750000X-0.750000X-1.000000X0.750000X-1.000000X0.750000X1.000000X-0.750000X1.000000X0*%
%TD*%
%TA.AperFunction,ComponentPad*%
%ADD28RoundRect,0.875000X-0.875000X-0.875000X0.875000X-0.875000X0.875000X0.875000X-0.875000X0.875000X0*%
%TD*%
%TA.AperFunction,ViaPad*%
%ADD29C,0.600000*%
%TD*%
G04 APERTURE END LIST*
D10*
%TO.P,R7,1*%
%TO.N,D11*%
X152000000Y-88000000D03*
%TO.P,R7,2*%
%TO.N,LED2_A*%
X152000000Y-77840000D03*
%TD*%
D11*
%TO.P,RV5,1*%
%TO.N,+5V*%
X30000000Y-92000000D03*
D12*
%TO.P,RV5,2*%
%TO.N,POT5_W*%
X32500000Y-92000000D03*
%TO.P,RV5,3*%
%TO.N,GND*%
X35000000Y-92000000D03*
D13*
%TO.P,RV5,MP*%
%TO.N,N/C*%
X28100000Y-85000000D03*
X36900000Y-85000000D03*
%TD*%
D10*
%TO.P,R11,1*%
%TO.N,POT2_W*%
X76000000Y-62000000D03*
%TO.P,R11,2*%
%TO.N,A5*%
X76000000Y-51840000D03*
%TD*%
%TO.P,C11,1*%
%TO.N,A6*%
X82000000Y-122000000D03*
%TO.P,C11,2*%
%TO.N,GND*%
X82000000Y-117000000D03*
%TD*%
D11*
%TO.P,RV7,1*%
%TO.N,+5V*%
X94000000Y-92000000D03*
D12*
%TO.P,RV7,2*%
%TO.N,POT7_W*%
X96500000Y-92000000D03*
%TO.P,RV7,3*%
%TO.N,GND*%
X99000000Y-92000000D03*
D13*
%TO.P,RV7,MP*%
%TO.N,N/C*%
X92100000Y-85000000D03*
X100900000Y-85000000D03*
%TD*%
D11*
%TO.P,RV10,1*%
%TO.N,+5V*%
X62000000Y-118000000D03*
D12*
%TO.P,RV10,2*%
%TO.N,POT10_W*%
X64500000Y-118000000D03*
%TO.P,RV10,3*%
%TO.N,GND*%
X67000000Y-118000000D03*
D13*
%TO.P,RV10,MP*%
%TO.N,N/C*%
X60100000Y-111000000D03*
X68900000Y-111000000D03*
%TD*%
D11*
%TO.P,RV2,1*%
%TO.N,+5V*%
X62000000Y-66000000D03*
D12*
%TO.P,RV2,2*%
%TO.N,POT2_W*%
X64500000Y-66000000D03*
%TO.P,RV2,3*%
%TO.N,GND*%
X67000000Y-66000000D03*
D13*
%TO.P,RV2,MP*%
%TO.N,N/C*%
X60100000Y-59000000D03*
X68900000Y-59000000D03*
%TD*%
D11*
%TO.P,RV13,1*%
%TO.N,+5V*%
X30000000Y-144000000D03*
D12*
%TO.P,RV13,2*%
%TO.N,POT13_W*%
X32500000Y-144000000D03*
%TO.P,RV13,3*%
%TO.N,GND*%
X35000000Y-144000000D03*
D13*
%TO.P,RV13,MP*%
%TO.N,N/C*%
X28100000Y-137000000D03*
X36900000Y-137000000D03*
%TD*%
D10*
%TO.P,C8,1*%
%TO.N,A9*%
X114000000Y-96000000D03*
%TO.P,C8,2*%
%TO.N,GND*%
X114000000Y-91000000D03*
%TD*%
%TO.P,R18,1*%
%TO.N,POT9_W*%
X44000000Y-114000000D03*
%TO.P,R18,2*%
%TO.N,A2*%
X44000000Y-103840000D03*
%TD*%
%TO.P,R13,1*%
%TO.N,POT4_W*%
X140000000Y-62000000D03*
%TO.P,R13,2*%
%TO.N,A12*%
X140000000Y-51840000D03*
%TD*%
D11*
%TO.P,RV9,1*%
%TO.N,+5V*%
X30000000Y-118000000D03*
D12*
%TO.P,RV9,2*%
%TO.N,POT9_W*%
X32500000Y-118000000D03*
%TO.P,RV9,3*%
%TO.N,GND*%
X35000000Y-118000000D03*
D13*
%TO.P,RV9,MP*%
%TO.N,N/C*%
X28100000Y-111000000D03*
X36900000Y-111000000D03*
%TD*%
D11*
%TO.P,RV4,1*%
%TO.N,+5V*%
X126000000Y-66000000D03*
D12*
%TO.P,RV4,2*%
%TO.N,POT4_W*%
X128500000Y-66000000D03*
%TO.P,RV4,3*%
%TO.N,GND*%
X131000000Y-66000000D03*
D13*
%TO.P,RV4,MP*%
%TO.N,N/C*%
X124100000Y-59000000D03*
X132900000Y-59000000D03*
%TD*%
D14*
%TO.P,D1,1*%
%TO.N,OPTO_ANODE*%
X14000000Y-39000000D03*
D10*
%TO.P,D1,2*%
%TO.N,OPTO_CATHODE*%
X21620000Y-39000000D03*
%TD*%
%TO.P,R17,1*%
%TO.N,POT8_W*%
X140000000Y-88000000D03*
%TO.P,R17,2*%
%TO.N,A13*%
X140000000Y-77840000D03*
%TD*%
D11*
%TO.P,RV3,1*%
%TO.N,+5V*%
X94000000Y-66000000D03*
D12*
%TO.P,RV3,2*%
%TO.N,POT3_W*%
X96500000Y-66000000D03*
%TO.P,RV3,3*%
%TO.N,GND*%
X99000000Y-66000000D03*
D13*
%TO.P,RV3,MP*%
%TO.N,N/C*%
X92100000Y-59000000D03*
X100900000Y-59000000D03*
%TD*%
D15*
%TO.P,J1,*%
%TO.N,*%
X19000000Y-8300000D03*
X29000000Y-8300000D03*
D16*
%TO.P,J1,1*%
%TO.N,N/C*%
X16700000Y-18000000D03*
%TO.P,J1,2*%
%TO.N,GND*%
X24000000Y-18000000D03*
%TO.P,J1,3*%
%TO.N,N/C*%
X31300000Y-18000000D03*
%TO.P,J1,4*%
%TO.N,MIDI_IN_4*%
X29000000Y-20500000D03*
%TO.P,J1,5*%
%TO.N,OPTO_CATHODE*%
X19000000Y-20500000D03*
%TD*%
D10*
%TO.P,C16,1*%
%TO.N,A11*%
X114000000Y-148000000D03*
%TO.P,C16,2*%
%TO.N,GND*%
X114000000Y-143000000D03*
%TD*%
D11*
%TO.P,D6,1*%
%TO.N,GND*%
X160000000Y-132000000D03*
D12*
%TO.P,D6,2*%
%TO.N,LED4_A*%
X160000000Y-129460000D03*
%TD*%
D11*
%TO.P,RV11,1*%
%TO.N,+5V*%
X94000000Y-118000000D03*
D12*
%TO.P,RV11,2*%
%TO.N,POT11_W*%
X96500000Y-118000000D03*
%TO.P,RV11,3*%
%TO.N,GND*%
X99000000Y-118000000D03*
D13*
%TO.P,RV11,MP*%
%TO.N,N/C*%
X92100000Y-111000000D03*
X100900000Y-111000000D03*
%TD*%
D11*
%TO.P,RV8,1*%
%TO.N,+5V*%
X126000000Y-92000000D03*
D12*
%TO.P,RV8,2*%
%TO.N,POT8_W*%
X128500000Y-92000000D03*
%TO.P,RV8,3*%
%TO.N,GND*%
X131000000Y-92000000D03*
D13*
%TO.P,RV8,MP*%
%TO.N,N/C*%
X124100000Y-85000000D03*
X132900000Y-85000000D03*
%TD*%
D17*
%TO.P,J5,1*%
%TO.N,GND*%
X146000000Y-12000000D03*
D18*
%TO.P,J5,2*%
%TO.N,+5V*%
X148540000Y-12000000D03*
%TO.P,J5,3*%
%TO.N,D21_SCL*%
X151080000Y-12000000D03*
%TO.P,J5,4*%
%TO.N,D20_SDA*%
X153620000Y-12000000D03*
%TD*%
D10*
%TO.P,C10,1*%
%TO.N,A2*%
X50000000Y-122000000D03*
%TO.P,C10,2*%
%TO.N,GND*%
X50000000Y-117000000D03*
%TD*%
D19*
%TO.P,SW1,*%
%TO.N,*%
X67900000Y-42000000D03*
X76100000Y-42000000D03*
D20*
%TO.P,SW1,1*%
%TO.N,OPTO_VO*%
X70000000Y-42000000D03*
D21*
%TO.P,SW1,2*%
%TO.N,D0_RX*%
X72000000Y-42000000D03*
%TO.P,SW1,3*%
%TO.N,N/C*%
X74000000Y-42000000D03*
%TD*%
D17*
%TO.P,JMA3,1*%
%TO.N,A8*%
X74610000Y-172000000D03*
D18*
%TO.P,JMA3,2*%
%TO.N,A9*%
X77150000Y-172000000D03*
%TO.P,JMA3,3*%
%TO.N,A10*%
X79690000Y-172000000D03*
%TO.P,JMA3,4*%
%TO.N,A11*%
X82230000Y-172000000D03*
%TO.P,JMA3,5*%
%TO.N,A12*%
X84770000Y-172000000D03*
%TO.P,JMA3,6*%
%TO.N,A13*%
X87310000Y-172000000D03*
%TO.P,JMA3,7*%
%TO.N,A14*%
X89850000Y-172000000D03*
%TO.P,JMA3,8*%
%TO.N,A15*%
X92390000Y-172000000D03*
%TD*%
D17*
%TO.P,JMD2,1*%
%TO.N,D10*%
X46670000Y-220000000D03*
D18*
%TO.P,JMD2,2*%
%TO.N,D11*%
X49210000Y-220000000D03*
%TO.P,JMD2,3*%
%TO.N,D12*%
X51750000Y-220000000D03*
%TD*%
D22*
%TO.P,SW2,1*%
%TO.N,D7*%
X10000000Y-66000000D03*
X16500000Y-66000000D03*
%TO.P,SW2,2*%
%TO.N,GND*%
X10000000Y-70500000D03*
X16500000Y-70500000D03*
%TD*%
D10*
%TO.P,R27,1*%
%TO.N,JACK_W*%
X95000000Y-192000000D03*
%TO.P,R27,2*%
%TO.N,MUX_CH1*%
X105160000Y-192000000D03*
%TD*%
%TO.P,R3,1*%
%TO.N,MIDI_OUT_5*%
X98000000Y-39000000D03*
%TO.P,R3,2*%
%TO.N,D1_TX*%
X108160000Y-39000000D03*
%TD*%
%TO.P,C3,1*%
%TO.N,A5*%
X82000000Y-70000000D03*
%TO.P,C3,2*%
%TO.N,GND*%
X82000000Y-65000000D03*
%TD*%
%TO.P,R6,1*%
%TO.N,D12*%
X152000000Y-66000000D03*
%TO.P,R6,2*%
%TO.N,LED1_A*%
X152000000Y-55840000D03*
%TD*%
D11*
%TO.P,D3,1*%
%TO.N,GND*%
X160000000Y-66000000D03*
D12*
%TO.P,D3,2*%
%TO.N,LED1_A*%
X160000000Y-63460000D03*
%TD*%
D22*
%TO.P,SW3,1*%
%TO.N,D8*%
X10000000Y-88000000D03*
X16500000Y-88000000D03*
%TO.P,SW3,2*%
%TO.N,GND*%
X10000000Y-92500000D03*
X16500000Y-92500000D03*
%TD*%
%TO.P,SW5,1*%
%TO.N,D5*%
X10000000Y-132000000D03*
X16500000Y-132000000D03*
%TO.P,SW5,2*%
%TO.N,GND*%
X10000000Y-136500000D03*
X16500000Y-136500000D03*
%TD*%
D11*
%TO.P,D4,1*%
%TO.N,GND*%
X160000000Y-88000000D03*
D12*
%TO.P,D4,2*%
%TO.N,LED2_A*%
X160000000Y-85460000D03*
%TD*%
D11*
%TO.P,RV6,1*%
%TO.N,+5V*%
X62000000Y-92000000D03*
D12*
%TO.P,RV6,2*%
%TO.N,POT6_W*%
X64500000Y-92000000D03*
%TO.P,RV6,3*%
%TO.N,GND*%
X67000000Y-92000000D03*
D13*
%TO.P,RV6,MP*%
%TO.N,N/C*%
X60100000Y-85000000D03*
X68900000Y-85000000D03*
%TD*%
D10*
%TO.P,R9,1*%
%TO.N,D9*%
X152000000Y-132000000D03*
%TO.P,R9,2*%
%TO.N,LED4_A*%
X152000000Y-121840000D03*
%TD*%
D17*
%TO.P,JMD1,1*%
%TO.N,D2*%
X20000000Y-220000000D03*
D18*
%TO.P,JMD1,2*%
%TO.N,D3*%
X22540000Y-220000000D03*
%TO.P,JMD1,3*%
%TO.N,D4*%
X25080000Y-220000000D03*
%TO.P,JMD1,4*%
%TO.N,GND*%
X27620000Y-220000000D03*
%TO.P,JMD1,5*%
%TO.N,D13*%
X30160000Y-220000000D03*
%TO.P,JMD1,6*%
%TO.N,D5*%
X32700000Y-220000000D03*
%TO.P,JMD1,7*%
%TO.N,D6*%
X35240000Y-220000000D03*
%TO.P,JMD1,8*%
%TO.N,D7*%
X37780000Y-220000000D03*
%TO.P,JMD1,9*%
%TO.N,D8*%
X40320000Y-220000000D03*
%TO.P,JMD1,10*%
%TO.N,D9*%
X42860000Y-220000000D03*
%TD*%
D10*
%TO.P,R4,1*%
%TO.N,OPTO_VB*%
X48000000Y-39000000D03*
%TO.P,R4,2*%
%TO.N,GND*%
X58160000Y-39000000D03*
%TD*%
%TO.P,C9,1*%
%TO.N,A13*%
X146000000Y-96000000D03*
%TO.P,C9,2*%
%TO.N,GND*%
X146000000Y-91000000D03*
%TD*%
%TO.P,R24,1*%
%TO.N,POT15_W*%
X108000000Y-140000000D03*
%TO.P,R24,2*%
%TO.N,A11*%
X108000000Y-129840000D03*
%TD*%
D17*
%TO.P,JMD4,1*%
%TO.N,D20_SDA*%
X84770000Y-220000000D03*
D18*
%TO.P,JMD4,2*%
%TO.N,D21_SCL*%
X87310000Y-220000000D03*
%TD*%
D10*
%TO.P,R25,1*%
%TO.N,POT16_W*%
X140000000Y-140000000D03*
%TO.P,R25,2*%
%TO.N,MUX_CH0*%
X140000000Y-129840000D03*
%TD*%
D17*
%TO.P,J4,1*%
%TO.N,GND*%
X116000000Y-40000000D03*
D18*
%TO.P,J4,2*%
%TO.N,+5V*%
X118540000Y-40000000D03*
%TO.P,J4,3*%
%TO.N,GND*%
X121080000Y-40000000D03*
%TO.P,J4,4*%
%TO.N,VIN_RAW*%
X123620000Y-40000000D03*
%TD*%
D17*
%TO.P,JMA2,1*%
%TO.N,A0*%
X51750000Y-172000000D03*
D18*
%TO.P,JMA2,2*%
%TO.N,A1*%
X54290000Y-172000000D03*
%TO.P,JMA2,3*%
%TO.N,A2*%
X56830000Y-172000000D03*
%TO.P,JMA2,4*%
%TO.N,A3*%
X59370000Y-172000000D03*
%TO.P,JMA2,5*%
%TO.N,A4*%
X61910000Y-172000000D03*
%TO.P,JMA2,6*%
%TO.N,A5*%
X64450000Y-172000000D03*
%TO.P,JMA2,7*%
%TO.N,A6*%
X66990000Y-172000000D03*
%TO.P,JMA2,8*%
%TO.N,A7*%
X69530000Y-172000000D03*
%TD*%
D10*
%TO.P,R12,1*%
%TO.N,POT3_W*%
X108000000Y-62000000D03*
%TO.P,R12,2*%
%TO.N,A8*%
X108000000Y-51840000D03*
%TD*%
%TO.P,R8,1*%
%TO.N,D10*%
X152000000Y-110000000D03*
%TO.P,R8,2*%
%TO.N,LED3_A*%
X152000000Y-99840000D03*
%TD*%
D17*
%TO.P,JMD3,1*%
%TO.N,D1_TX*%
X61910000Y-220000000D03*
D18*
%TO.P,JMD3,2*%
%TO.N,D0_RX*%
X64450000Y-220000000D03*
%TD*%
D23*
%TO.P,J10,G*%
%TO.N,GND*%
X91430000Y-9300000D03*
%TO.P,J10,R*%
%TO.N,+5V*%
X80000000Y-15650000D03*
%TO.P,J10,RN*%
%TO.N,N/C*%
X91430000Y-15650000D03*
%TO.P,J10,S*%
%TO.N,GND*%
X80000000Y-9300000D03*
%TO.P,J10,T*%
%TO.N,JACK_W*%
X80000000Y-22000000D03*
%TO.P,J10,TN*%
%TO.N,N/C*%
X91430000Y-22000000D03*
%TD*%
D10*
%TO.P,C7,1*%
%TO.N,A4*%
X82000000Y-96000000D03*
%TO.P,C7,2*%
%TO.N,GND*%
X82000000Y-91000000D03*
%TD*%
%TO.P,R23,1*%
%TO.N,POT14_W*%
X76000000Y-140000000D03*
%TO.P,R23,2*%
%TO.N,A7*%
X76000000Y-129840000D03*
%TD*%
D24*
%TO.P,D2D,1*%
%TO.N,+5V*%
X130000000Y-32000000D03*
D25*
%TO.P,D2D,2*%
%TO.N,VIN_RAW*%
X140160000Y-32000000D03*
%TD*%
D17*
%TO.P,JMA1,1*%
%TO.N,N/C*%
X28890000Y-172000000D03*
D18*
%TO.P,JMA1,2*%
X31430000Y-172000000D03*
%TO.P,JMA1,3*%
X33970000Y-172000000D03*
%TO.P,JMA1,4*%
X36510000Y-172000000D03*
%TO.P,JMA1,5*%
%TO.N,+5V*%
X39050000Y-172000000D03*
%TO.P,JMA1,6*%
%TO.N,GND*%
X41590000Y-172000000D03*
%TO.P,JMA1,7*%
X44130000Y-172000000D03*
%TO.P,JMA1,8*%
%TO.N,VIN_RAW*%
X46670000Y-172000000D03*
%TD*%
D22*
%TO.P,SW4,1*%
%TO.N,D6*%
X10000000Y-110000000D03*
X16500000Y-110000000D03*
%TO.P,SW4,2*%
%TO.N,GND*%
X10000000Y-114500000D03*
X16500000Y-114500000D03*
%TD*%
D14*
%TO.P,U1,1*%
%TO.N,N/C*%
X28000000Y-34000000D03*
D10*
%TO.P,U1,2*%
%TO.N,OPTO_ANODE*%
X28000000Y-36540000D03*
%TO.P,U1,3*%
%TO.N,OPTO_CATHODE*%
X28000000Y-39080000D03*
%TO.P,U1,4*%
%TO.N,N/C*%
X28000000Y-41620000D03*
%TO.P,U1,5*%
%TO.N,GND*%
X35620000Y-41620000D03*
%TO.P,U1,6*%
%TO.N,OPTO_VO*%
X35620000Y-39080000D03*
%TO.P,U1,7*%
%TO.N,OPTO_VB*%
X35620000Y-36540000D03*
%TO.P,U1,8*%
%TO.N,+5V*%
X35620000Y-34000000D03*
%TD*%
D14*
%TO.P,U2,1*%
%TO.N,A15*%
X48000000Y-178000000D03*
D10*
%TO.P,U2,2*%
%TO.N,MUX_CH7*%
X48000000Y-180540000D03*
%TO.P,U2,3*%
%TO.N,MUX_CH6*%
X48000000Y-183080000D03*
%TO.P,U2,4*%
%TO.N,MUX_CH5*%
X48000000Y-185620000D03*
%TO.P,U2,5*%
%TO.N,MUX_CH4*%
X48000000Y-188160000D03*
%TO.P,U2,6*%
%TO.N,MUX_CH3*%
X48000000Y-190700000D03*
%TO.P,U2,7*%
%TO.N,MUX_CH2*%
X48000000Y-193240000D03*
%TO.P,U2,8*%
%TO.N,MUX_CH1*%
X48000000Y-195780000D03*
%TO.P,U2,9*%
%TO.N,MUX_CH0*%
X48000000Y-198320000D03*
%TO.P,U2,10*%
%TO.N,D2*%
X48000000Y-200860000D03*
%TO.P,U2,11*%
%TO.N,D3*%
X48000000Y-203400000D03*
%TO.P,U2,12*%
%TO.N,GND*%
X48000000Y-205940000D03*
%TO.P,U2,13*%
%TO.N,D13*%
X63240000Y-205940000D03*
%TO.P,U2,14*%
%TO.N,D4*%
X63240000Y-203400000D03*
%TO.P,U2,15*%
%TO.N,GND*%
X63240000Y-200860000D03*
%TO.P,U2,16*%
%TO.N,MUX_CH15*%
X63240000Y-198320000D03*
%TO.P,U2,17*%
%TO.N,MUX_CH14*%
X63240000Y-195780000D03*
%TO.P,U2,18*%
%TO.N,MUX_CH13*%
X63240000Y-193240000D03*
%TO.P,U2,19*%
%TO.N,MUX_CH12*%
X63240000Y-190700000D03*
%TO.P,U2,20*%
%TO.N,MUX_CH11*%
X63240000Y-188160000D03*
%TO.P,U2,21*%
%TO.N,MUX_CH10*%
X63240000Y-185620000D03*
%TO.P,U2,22*%
%TO.N,MUX_CH9*%
X63240000Y-183080000D03*
%TO.P,U2,23*%
%TO.N,MUX_CH8*%
X63240000Y-180540000D03*
%TO.P,U2,24*%
%TO.N,+5V*%
X63240000Y-178000000D03*
%TD*%
%TO.P,R19,1*%
%TO.N,POT10_W*%
X76000000Y-114000000D03*
%TO.P,R19,2*%
%TO.N,A6*%
X76000000Y-103840000D03*
%TD*%
%TO.P,C6,1*%
%TO.N,A1*%
X50000000Y-96000000D03*
%TO.P,C6,2*%
%TO.N,GND*%
X50000000Y-91000000D03*
%TD*%
D11*
%TO.P,RV1,1*%
%TO.N,+5V*%
X30000000Y-66000000D03*
D12*
%TO.P,RV1,2*%
%TO.N,POT1_W*%
X32500000Y-66000000D03*
%TO.P,RV1,3*%
%TO.N,GND*%
X35000000Y-66000000D03*
D13*
%TO.P,RV1,MP*%
%TO.N,N/C*%
X28100000Y-59000000D03*
X36900000Y-59000000D03*
%TD*%
D10*
%TO.P,R20,1*%
%TO.N,POT11_W*%
X108000000Y-114000000D03*
%TO.P,R20,2*%
%TO.N,A10*%
X108000000Y-103840000D03*
%TD*%
D11*
%TO.P,RV16,1*%
%TO.N,+5V*%
X126000000Y-144000000D03*
D12*
%TO.P,RV16,2*%
%TO.N,POT16_W*%
X128500000Y-144000000D03*
%TO.P,RV16,3*%
%TO.N,GND*%
X131000000Y-144000000D03*
D13*
%TO.P,RV16,MP*%
%TO.N,N/C*%
X124100000Y-137000000D03*
X132900000Y-137000000D03*
%TD*%
D10*
%TO.P,C15,1*%
%TO.N,A7*%
X82000000Y-148000000D03*
%TO.P,C15,2*%
%TO.N,GND*%
X82000000Y-143000000D03*
%TD*%
%TO.P,C2,1*%
%TO.N,A0*%
X50000000Y-70000000D03*
%TO.P,C2,2*%
%TO.N,GND*%
X50000000Y-65000000D03*
%TD*%
%TO.P,C18,1*%
%TO.N,MUX_CH1*%
X120000000Y-192000000D03*
%TO.P,C18,2*%
%TO.N,GND*%
X125000000Y-192000000D03*
%TD*%
D11*
%TO.P,RV14,1*%
%TO.N,+5V*%
X62000000Y-144000000D03*
D12*
%TO.P,RV14,2*%
%TO.N,POT14_W*%
X64500000Y-144000000D03*
%TO.P,RV14,3*%
%TO.N,GND*%
X67000000Y-144000000D03*
D13*
%TO.P,RV14,MP*%
%TO.N,N/C*%
X60100000Y-137000000D03*
X68900000Y-137000000D03*
%TD*%
D10*
%TO.P,C14,1*%
%TO.N,A3*%
X50000000Y-148000000D03*
%TO.P,C14,2*%
%TO.N,GND*%
X50000000Y-143000000D03*
%TD*%
%TO.P,C13,1*%
%TO.N,A14*%
X146000000Y-122000000D03*
%TO.P,C13,2*%
%TO.N,GND*%
X146000000Y-117000000D03*
%TD*%
D26*
%TO.P,J3,1*%
%TO.N,VIN_RAW*%
X118000000Y-18000000D03*
D27*
%TO.P,J3,2*%
%TO.N,GND*%
X118000000Y-12000000D03*
D28*
%TO.P,J3,3*%
%TO.N,N/C*%
X113300000Y-15000000D03*
%TD*%
D15*
%TO.P,J2,*%
%TO.N,*%
X47000000Y-8300000D03*
X57000000Y-8300000D03*
D16*
%TO.P,J2,1*%
%TO.N,N/C*%
X44700000Y-18000000D03*
%TO.P,J2,2*%
%TO.N,GND*%
X52000000Y-18000000D03*
%TO.P,J2,3*%
%TO.N,N/C*%
X59300000Y-18000000D03*
%TO.P,J2,4*%
%TO.N,MIDI_OUT_4*%
X57000000Y-20500000D03*
%TO.P,J2,5*%
%TO.N,MIDI_OUT_5*%
X47000000Y-20500000D03*
%TD*%
D10*
%TO.P,R2,1*%
%TO.N,MIDI_OUT_4*%
X98000000Y-45000000D03*
%TO.P,R2,2*%
%TO.N,+5V*%
X108160000Y-45000000D03*
%TD*%
%TO.P,R10,1*%
%TO.N,POT1_W*%
X44000000Y-62000000D03*
%TO.P,R10,2*%
%TO.N,A0*%
X44000000Y-51840000D03*
%TD*%
%TO.P,R21,1*%
%TO.N,POT12_W*%
X140000000Y-114000000D03*
%TO.P,R21,2*%
%TO.N,A14*%
X140000000Y-103840000D03*
%TD*%
%TO.P,C4,1*%
%TO.N,A8*%
X114000000Y-70000000D03*
%TO.P,C4,2*%
%TO.N,GND*%
X114000000Y-65000000D03*
%TD*%
%TO.P,R15,1*%
%TO.N,POT6_W*%
X76000000Y-88000000D03*
%TO.P,R15,2*%
%TO.N,A4*%
X76000000Y-77840000D03*
%TD*%
D11*
%TO.P,D5,1*%
%TO.N,GND*%
X160000000Y-110000000D03*
D12*
%TO.P,D5,2*%
%TO.N,LED3_A*%
X160000000Y-107460000D03*
%TD*%
D10*
%TO.P,R14,1*%
%TO.N,POT5_W*%
X44000000Y-88000000D03*
%TO.P,R14,2*%
%TO.N,A1*%
X44000000Y-77840000D03*
%TD*%
D11*
%TO.P,RV12,1*%
%TO.N,+5V*%
X126000000Y-118000000D03*
D12*
%TO.P,RV12,2*%
%TO.N,POT12_W*%
X128500000Y-118000000D03*
%TO.P,RV12,3*%
%TO.N,GND*%
X131000000Y-118000000D03*
D13*
%TO.P,RV12,MP*%
%TO.N,N/C*%
X124100000Y-111000000D03*
X132900000Y-111000000D03*
%TD*%
D10*
%TO.P,R16,1*%
%TO.N,POT7_W*%
X108000000Y-88000000D03*
%TO.P,R16,2*%
%TO.N,A9*%
X108000000Y-77840000D03*
%TD*%
%TO.P,R5,1*%
%TO.N,OPTO_VO*%
X48000000Y-45000000D03*
%TO.P,R5,2*%
%TO.N,+5V*%
X58160000Y-45000000D03*
%TD*%
%TO.P,C5,1*%
%TO.N,A12*%
X146000000Y-70000000D03*
%TO.P,C5,2*%
%TO.N,GND*%
X146000000Y-65000000D03*
%TD*%
%TO.P,C12,1*%
%TO.N,A10*%
X114000000Y-122000000D03*
%TO.P,C12,2*%
%TO.N,GND*%
X114000000Y-117000000D03*
%TD*%
%TO.P,C17,1*%
%TO.N,MUX_CH0*%
X146000000Y-148000000D03*
%TO.P,C17,2*%
%TO.N,GND*%
X146000000Y-143000000D03*
%TD*%
D11*
%TO.P,RV15,1*%
%TO.N,+5V*%
X94000000Y-144000000D03*
D12*
%TO.P,RV15,2*%
%TO.N,POT15_W*%
X96500000Y-144000000D03*
%TO.P,RV15,3*%
%TO.N,GND*%
X99000000Y-144000000D03*
D13*
%TO.P,RV15,MP*%
%TO.N,N/C*%
X92100000Y-137000000D03*
X100900000Y-137000000D03*
%TD*%
D10*
%TO.P,R22,1*%
%TO.N,POT13_W*%
X44000000Y-140000000D03*
%TO.P,R22,2*%
%TO.N,A3*%
X44000000Y-129840000D03*
%TD*%
%TO.P,C1,1*%
%TO.N,+5V*%
X60000000Y-42000000D03*
%TO.P,C1,2*%
%TO.N,GND*%
X65000000Y-42000000D03*
%TD*%
%TO.P,R1,1*%
%TO.N,MIDI_IN_4*%
X14000000Y-45000000D03*
%TO.P,R1,2*%
%TO.N,OPTO_ANODE*%
X24160000Y-45000000D03*
%TD*%
D29*
%TO.N,JACK_W*%
X93582500Y-190132800D03*
%TO.N,VIN_RAW*%
X113382700Y-137906700D03*
%TO.N,A5*%
X71885800Y-164683100D03*
%TO.N,A8*%
X72374400Y-84631900D03*
%TO.N,A12*%
X137958500Y-152525600D03*
%TO.N,A4*%
X72763700Y-161146300D03*
%TO.N,A9*%
X105299500Y-143850500D03*
%TO.N,A6*%
X73112500Y-169988000D03*
%TO.N,D12*%
X150356900Y-218708800D03*
%TO.N,D11*%
X51878200Y-93500000D03*
%TO.N,D10*%
X150958600Y-218149200D03*
%TD*%
M02*
