%TF.GenerationSoftware,KiCad,Pcbnew,10.0.3*%
%TF.CreationDate,2026-06-05T22:03:57+02:00*%
%TF.ProjectId,SysEx_Patcher,53797345-785f-4506-9174-636865722e6b,rev?*%
%TF.SameCoordinates,Original*%
%TF.FileFunction,Soldermask,Top*%
%TF.FilePolarity,Negative*%
%FSLAX46Y46*%
G04 Gerber Fmt 4.6, Leading zero omitted, Abs format (unit mm)*
G04 Created by KiCad (PCBNEW 10.0.3) date 2026-06-05 22:03:57*
%MOMM*%
%LPD*%
G01*
G04 APERTURE LIST*
G04 Aperture macros list*
%AMRoundRect*
0 Rectangle with rounded corners*
0 $1 Rounding radius*
0 $2 $3 $4 $5 $6 $7 $8 $9 X,Y pos of 4 corners*
0 Add a 4 corners polygon primitive as box body*
4,1,4,$2,$3,$4,$5,$6,$7,$8,$9,$2,$3,0*
0 Add four circle primitives for the rounded corners*
1,1,$1+$1,$2,$3*
1,1,$1+$1,$4,$5*
1,1,$1+$1,$6,$7*
1,1,$1+$1,$8,$9*
0 Add four rect primitives between the rounded corners*
20,1,$1+$1,$2,$3,$4,$5,0*
20,1,$1+$1,$4,$5,$6,$7,0*
20,1,$1+$1,$6,$7,$8,$9,0*
20,1,$1+$1,$8,$9,$2,$3,0*%
G04 Aperture macros list end*
%ADD10C,1.600000*%
%ADD11R,1.700000X1.700000*%
%ADD12C,1.700000*%
%ADD13R,1.800000X1.800000*%
%ADD14C,1.800000*%
%ADD15RoundRect,0.750000X-1.250000X-0.750000X1.250000X-0.750000X1.250000X0.750000X-1.250000X0.750000X0*%
%ADD16C,2.000000*%
%ADD17R,3.500000X3.500000*%
%ADD18RoundRect,0.750000X-0.750000X-1.000000X0.750000X-1.000000X0.750000X1.000000X-0.750000X1.000000X0*%
%ADD19RoundRect,0.875000X-0.875000X-0.875000X0.875000X-0.875000X0.875000X0.875000X-0.875000X0.875000X0*%
%ADD20O,2.200000X3.500000*%
%ADD21R,1.500000X2.500000*%
%ADD22O,1.500000X2.500000*%
%ADD23RoundRect,0.250000X-0.550000X-0.550000X0.550000X-0.550000X0.550000X0.550000X-0.550000X0.550000X0*%
%ADD24RoundRect,0.249999X-0.850001X-0.850001X0.850001X-0.850001X0.850001X0.850001X-0.850001X0.850001X0*%
%ADD25C,2.200000*%
G04 APERTURE END LIST*
D10*
%TO.C,C16*%
X132000000Y-120000000D03*
X132000000Y-115000000D03*
%TD*%
%TO.C,C4*%
X132000000Y-30000000D03*
X132000000Y-25000000D03*
%TD*%
D11*
%TO.C,J1*%
X45000000Y-8000000D03*
D12*
X45000000Y-10540000D03*
X45000000Y-13080000D03*
X45000000Y-15620000D03*
X45000000Y-18160000D03*
%TD*%
D10*
%TO.C,R18*%
X57000000Y-90000000D03*
X57000000Y-79840000D03*
%TD*%
D13*
%TO.C,RV4*%
X144000000Y-34000000D03*
D14*
X146500000Y-34000000D03*
X149000000Y-34000000D03*
D15*
X142100000Y-27000000D03*
X150900000Y-27000000D03*
%TD*%
D13*
%TO.C,RV2*%
X76000000Y-34000000D03*
D14*
X78500000Y-34000000D03*
X81000000Y-34000000D03*
D15*
X74100000Y-27000000D03*
X82900000Y-27000000D03*
%TD*%
D11*
%TO.C,J4*%
X195000000Y-15000000D03*
D12*
X195000000Y-17540000D03*
X195000000Y-20080000D03*
X195000000Y-22620000D03*
%TD*%
D10*
%TO.C,R10*%
X57000000Y-30000000D03*
X57000000Y-19840000D03*
%TD*%
%TO.C,C10*%
X64000000Y-90000000D03*
X64000000Y-85000000D03*
%TD*%
%TO.C,C15*%
X98000000Y-120000000D03*
X98000000Y-115000000D03*
%TD*%
%TO.C,C14*%
X64000000Y-120000000D03*
X64000000Y-115000000D03*
%TD*%
D11*
%TO.C,J6C*%
X186000000Y-94000000D03*
D12*
X186000000Y-96540000D03*
X186000000Y-99080000D03*
X186000000Y-101620000D03*
%TD*%
D16*
%TO.C,SW4*%
X12000000Y-66000000D03*
X18500000Y-66000000D03*
X12000000Y-70500000D03*
X18500000Y-70500000D03*
%TD*%
D13*
%TO.C,RV8*%
X144000000Y-64000000D03*
D14*
X146500000Y-64000000D03*
X149000000Y-64000000D03*
D15*
X142100000Y-57000000D03*
X150900000Y-57000000D03*
%TD*%
D10*
%TO.C,R4*%
X25000000Y-24000000D03*
X25000000Y-13840000D03*
%TD*%
%TO.C,R16*%
X125000000Y-60000000D03*
X125000000Y-49840000D03*
%TD*%
%TO.C,R21*%
X159000000Y-90000000D03*
X159000000Y-79840000D03*
%TD*%
%TO.C,R13*%
X159000000Y-30000000D03*
X159000000Y-19840000D03*
%TD*%
%TO.C,R27*%
X40000000Y-150000000D03*
X50160000Y-150000000D03*
%TD*%
%TO.C,R14*%
X57000000Y-60000000D03*
X57000000Y-49840000D03*
%TD*%
%TO.C,R19*%
X91000000Y-90000000D03*
X91000000Y-79840000D03*
%TD*%
%TO.C,R6*%
X8000000Y-104000000D03*
X18160000Y-104000000D03*
%TD*%
D13*
%TO.C,RV12*%
X144000000Y-94000000D03*
D14*
X146500000Y-94000000D03*
X149000000Y-94000000D03*
D15*
X142100000Y-87000000D03*
X150900000Y-87000000D03*
%TD*%
D13*
%TO.C,D5*%
X28000000Y-130000000D03*
D14*
X30540000Y-130000000D03*
%TD*%
D13*
%TO.C,RV6*%
X76000000Y-64000000D03*
D14*
X78500000Y-64000000D03*
X81000000Y-64000000D03*
D15*
X74100000Y-57000000D03*
X82900000Y-57000000D03*
%TD*%
D13*
%TO.C,RV15*%
X110000000Y-124000000D03*
D14*
X112500000Y-124000000D03*
X115000000Y-124000000D03*
D15*
X108100000Y-117000000D03*
X116900000Y-117000000D03*
%TD*%
D10*
%TO.C,R2*%
X132000000Y-5000000D03*
X142160000Y-5000000D03*
%TD*%
%TO.C,C2*%
X64000000Y-30000000D03*
X64000000Y-25000000D03*
%TD*%
D11*
%TO.C,J7D*%
X100000000Y-150000000D03*
D12*
X100000000Y-152540000D03*
X100000000Y-155080000D03*
X100000000Y-157620000D03*
%TD*%
D11*
%TO.C,J7A*%
X34000000Y-70000000D03*
D12*
X34000000Y-72540000D03*
X34000000Y-75080000D03*
X34000000Y-77620000D03*
X34000000Y-80160000D03*
X34000000Y-82700000D03*
X34000000Y-85240000D03*
X34000000Y-87780000D03*
%TD*%
D10*
%TO.C,R12*%
X125000000Y-30000000D03*
X125000000Y-19840000D03*
%TD*%
%TO.C,R9*%
X8000000Y-143000000D03*
X18160000Y-143000000D03*
%TD*%
D13*
%TO.C,RV10*%
X76000000Y-94000000D03*
D14*
X78500000Y-94000000D03*
X81000000Y-94000000D03*
D15*
X74100000Y-87000000D03*
X82900000Y-87000000D03*
%TD*%
D17*
%TO.C,J3*%
X170000000Y-10000000D03*
D18*
X164000000Y-10000000D03*
D19*
X167000000Y-14700000D03*
%TD*%
D10*
%TO.C,C6*%
X64000000Y-60000000D03*
X64000000Y-55000000D03*
%TD*%
%TO.C,R25*%
X159000000Y-120000000D03*
X159000000Y-109840000D03*
%TD*%
%TO.C,R5*%
X85000000Y-5000000D03*
X95160000Y-5000000D03*
%TD*%
%TO.C,C1*%
X96000000Y-9000000D03*
X101000000Y-9000000D03*
%TD*%
%TO.C,C3*%
X98000000Y-30000000D03*
X98000000Y-25000000D03*
%TD*%
D11*
%TO.C,J5*%
X150000000Y-9000000D03*
D12*
X150000000Y-11540000D03*
X150000000Y-14080000D03*
X150000000Y-16620000D03*
%TD*%
D10*
%TO.C,C17*%
X166000000Y-120000000D03*
X166000000Y-115000000D03*
%TD*%
%TO.C,C5*%
X166000000Y-30000000D03*
X166000000Y-25000000D03*
%TD*%
D13*
%TO.C,D6*%
X28000000Y-143000000D03*
D14*
X30540000Y-143000000D03*
%TD*%
D10*
%TO.C,R17*%
X159000000Y-60000000D03*
X159000000Y-49840000D03*
%TD*%
D16*
%TO.C,SW3*%
X12000000Y-50000000D03*
X18500000Y-50000000D03*
X12000000Y-54500000D03*
X18500000Y-54500000D03*
%TD*%
D10*
%TO.C,C11*%
X98000000Y-90000000D03*
X98000000Y-85000000D03*
%TD*%
%TO.C,R24*%
X125000000Y-120000000D03*
X125000000Y-109840000D03*
%TD*%
%TO.C,R1*%
X62000000Y-9000000D03*
X72160000Y-9000000D03*
%TD*%
D13*
%TO.C,D3*%
X28000000Y-104000000D03*
D14*
X30540000Y-104000000D03*
%TD*%
D10*
%TO.C,C18*%
X60000000Y-150000000D03*
X65000000Y-150000000D03*
%TD*%
D13*
%TO.C,RV9*%
X42000000Y-94000000D03*
D14*
X44500000Y-94000000D03*
X47000000Y-94000000D03*
D15*
X40100000Y-87000000D03*
X48900000Y-87000000D03*
%TD*%
D13*
%TO.C,RV1*%
X42000000Y-34000000D03*
D14*
X44500000Y-34000000D03*
X47000000Y-34000000D03*
D15*
X40100000Y-27000000D03*
X48900000Y-27000000D03*
%TD*%
D16*
%TO.C,SW5*%
X12000000Y-82000000D03*
X18500000Y-82000000D03*
X12000000Y-86500000D03*
X18500000Y-86500000D03*
%TD*%
D20*
%TO.C,SW1*%
X102900000Y-6000000D03*
X111100000Y-6000000D03*
D21*
X105000000Y-6000000D03*
D22*
X107000000Y-6000000D03*
X109000000Y-6000000D03*
%TD*%
D13*
%TO.C,RV13*%
X42000000Y-124000000D03*
D14*
X44500000Y-124000000D03*
X47000000Y-124000000D03*
D15*
X40100000Y-117000000D03*
X48900000Y-117000000D03*
%TD*%
D10*
%TO.C,R3*%
X132000000Y-13000000D03*
X142160000Y-13000000D03*
%TD*%
%TO.C,C12*%
X132000000Y-90000000D03*
X132000000Y-85000000D03*
%TD*%
D11*
%TO.C,J2*%
X120000000Y-8000000D03*
D12*
X120000000Y-10540000D03*
X120000000Y-13080000D03*
X120000000Y-15620000D03*
X120000000Y-18160000D03*
%TD*%
D10*
%TO.C,R20*%
X125000000Y-90000000D03*
X125000000Y-79840000D03*
%TD*%
D11*
%TO.C,J6D*%
X186000000Y-124000000D03*
D12*
X186000000Y-126540000D03*
X186000000Y-129080000D03*
X186000000Y-131620000D03*
%TD*%
D10*
%TO.C,C9*%
X166000000Y-60000000D03*
X166000000Y-55000000D03*
%TD*%
D11*
%TO.C,J6A*%
X186000000Y-34000000D03*
D12*
X186000000Y-36540000D03*
X186000000Y-39080000D03*
X186000000Y-41620000D03*
%TD*%
D13*
%TO.C,RV16*%
X144000000Y-124000000D03*
D14*
X146500000Y-124000000D03*
X149000000Y-124000000D03*
D15*
X142100000Y-117000000D03*
X150900000Y-117000000D03*
%TD*%
D10*
%TO.C,R22*%
X57000000Y-120000000D03*
X57000000Y-109840000D03*
%TD*%
D23*
%TO.C,D1*%
X62000000Y-17000000D03*
D10*
X69620000Y-17000000D03*
%TD*%
D11*
%TO.C,J7C*%
X150000000Y-162000000D03*
D12*
X150000000Y-164540000D03*
%TD*%
D13*
%TO.C,RV5*%
X42000000Y-64000000D03*
D14*
X44500000Y-64000000D03*
X47000000Y-64000000D03*
D15*
X40100000Y-57000000D03*
X48900000Y-57000000D03*
%TD*%
D13*
%TO.C,RV14*%
X76000000Y-124000000D03*
D14*
X78500000Y-124000000D03*
X81000000Y-124000000D03*
D15*
X74100000Y-117000000D03*
X82900000Y-117000000D03*
%TD*%
D10*
%TO.C,C8*%
X132000000Y-60000000D03*
X132000000Y-55000000D03*
%TD*%
D13*
%TO.C,RV7*%
X110000000Y-64000000D03*
D14*
X112500000Y-64000000D03*
X115000000Y-64000000D03*
D15*
X108100000Y-57000000D03*
X116900000Y-57000000D03*
%TD*%
D10*
%TO.C,C7*%
X98000000Y-60000000D03*
X98000000Y-55000000D03*
%TD*%
D11*
%TO.C,J6B*%
X186000000Y-64000000D03*
D12*
X186000000Y-66540000D03*
X186000000Y-69080000D03*
X186000000Y-71620000D03*
%TD*%
D23*
%TO.C,U1*%
X80000000Y-10000000D03*
D10*
X80000000Y-12540000D03*
X80000000Y-15080000D03*
X80000000Y-17620000D03*
X87620000Y-17620000D03*
X87620000Y-15080000D03*
X87620000Y-12540000D03*
X87620000Y-10000000D03*
%TD*%
%TO.C,R23*%
X91000000Y-120000000D03*
X91000000Y-109840000D03*
%TD*%
D13*
%TO.C,RV11*%
X110000000Y-94000000D03*
D14*
X112500000Y-94000000D03*
X115000000Y-94000000D03*
D15*
X108100000Y-87000000D03*
X116900000Y-87000000D03*
%TD*%
D10*
%TO.C,R11*%
X91000000Y-30000000D03*
X91000000Y-19840000D03*
%TD*%
%TO.C,R8*%
X8000000Y-130000000D03*
X18160000Y-130000000D03*
%TD*%
D13*
%TO.C,RV3*%
X110000000Y-34000000D03*
D14*
X112500000Y-34000000D03*
X115000000Y-34000000D03*
D15*
X108100000Y-27000000D03*
X116900000Y-27000000D03*
%TD*%
D10*
%TO.C,C13*%
X166000000Y-90000000D03*
X166000000Y-85000000D03*
%TD*%
%TO.C,R7*%
X8000000Y-117000000D03*
X18160000Y-117000000D03*
%TD*%
D13*
%TO.C,D4*%
X28000000Y-117000000D03*
D14*
X30540000Y-117000000D03*
%TD*%
D16*
%TO.C,SW2*%
X12000000Y-34000000D03*
X18500000Y-34000000D03*
X12000000Y-38500000D03*
X18500000Y-38500000D03*
%TD*%
D11*
%TO.C,J7B*%
X130000000Y-162000000D03*
D12*
X130000000Y-164540000D03*
%TD*%
D11*
%TO.C,J8*%
X160000000Y-150000000D03*
D12*
X160000000Y-152540000D03*
X160000000Y-155080000D03*
%TD*%
D23*
%TO.C,U2*%
X70000000Y-150000000D03*
D10*
X70000000Y-152540000D03*
X70000000Y-155080000D03*
X70000000Y-157620000D03*
X70000000Y-160160000D03*
X70000000Y-162700000D03*
X70000000Y-165240000D03*
X70000000Y-167780000D03*
X70000000Y-170320000D03*
X70000000Y-172860000D03*
X70000000Y-175400000D03*
X70000000Y-177940000D03*
X85240000Y-177940000D03*
X85240000Y-175400000D03*
X85240000Y-172860000D03*
X85240000Y-170320000D03*
X85240000Y-167780000D03*
X85240000Y-165240000D03*
X85240000Y-162700000D03*
X85240000Y-160160000D03*
X85240000Y-157620000D03*
X85240000Y-155080000D03*
X85240000Y-152540000D03*
X85240000Y-150000000D03*
%TD*%
D24*
%TO.C,D2*%
X188000000Y-6000000D03*
D25*
X198160000Y-6000000D03*
%TD*%
D10*
%TO.C,R15*%
X91000000Y-60000000D03*
X91000000Y-49840000D03*
%TD*%
D11*
%TO.C,J10*%
X25000000Y-150000000D03*
D12*
X25000000Y-152540000D03*
X25000000Y-155080000D03*
%TD*%
M02*
