%TF.GenerationSoftware,KiCad,Pcbnew,10.0.3*%
%TF.CreationDate,2026-06-06T12:06:12+02:00*%
%TF.ProjectId,SysEx_Patcher,53797345-785f-4506-9174-636865722e6b,rev?*%
%TF.SameCoordinates,Original*%
%TF.FileFunction,Copper,L2,Inr*%
%TF.FilePolarity,Positive*%
%FSLAX46Y46*%
G04 Gerber Fmt 4.6, Leading zero omitted, Abs format (unit mm)*
G04 Created by KiCad (PCBNEW 10.0.3) date 2026-06-06 12:06:12*
%MOMM*%
%LPD*%
G01*
G04 APERTURE LIST*
G04 Aperture macros list*
%AMRoundRect*
0 Rectangle with rounded corners*
0 $1 Rounding radius*
0 $2 $3 $4 $5 $6 $7 $8 $9 X,Y pos of 4 corners*
0 Add a 4 corners polygon primitive as box body*
4,1,4,$2,$3,$4,$5,$6,$7,$8,$9,$2,$3,0*
0 Add four circle primitives for the rounded corners*
1,1,$1+$1,$2,$3*
1,1,$1+$1,$4,$5*
1,1,$1+$1,$6,$7*
1,1,$1+$1,$8,$9*
0 Add four rect primitives between the rounded corners*
20,1,$1+$1,$2,$3,$4,$5,0*
20,1,$1+$1,$4,$5,$6,$7,0*
20,1,$1+$1,$6,$7,$8,$9,0*
20,1,$1+$1,$8,$9,$2,$3,0*%
G04 Aperture macros list end*
%TA.AperFunction,ComponentPad*%
%ADD10C,1.600000*%
%TD*%
%TA.AperFunction,ComponentPad*%
%ADD11R,1.700000X1.700000*%
%TD*%
%TA.AperFunction,ComponentPad*%
%ADD12C,1.700000*%
%TD*%
%TA.AperFunction,ComponentPad*%
%ADD13C,3.000000*%
%TD*%
%TA.AperFunction,ComponentPad*%
%ADD14C,2.000000*%
%TD*%
%TA.AperFunction,ComponentPad*%
%ADD15R,1.800000X1.800000*%
%TD*%
%TA.AperFunction,ComponentPad*%
%ADD16C,1.800000*%
%TD*%
%TA.AperFunction,ComponentPad*%
%ADD17RoundRect,0.750000X-1.250000X-0.750000X1.250000X-0.750000X1.250000X0.750000X-1.250000X0.750000X0*%
%TD*%
%TA.AperFunction,ComponentPad*%
%ADD18R,3.500000X3.500000*%
%TD*%
%TA.AperFunction,ComponentPad*%
%ADD19RoundRect,0.750000X-0.750000X-1.000000X0.750000X-1.000000X0.750000X1.000000X-0.750000X1.000000X0*%
%TD*%
%TA.AperFunction,ComponentPad*%
%ADD20RoundRect,0.875000X-0.875000X-0.875000X0.875000X-0.875000X0.875000X0.875000X-0.875000X0.875000X0*%
%TD*%
%TA.AperFunction,ComponentPad*%
%ADD21RoundRect,0.250000X-0.550000X-0.550000X0.550000X-0.550000X0.550000X0.550000X-0.550000X0.550000X0*%
%TD*%
%TA.AperFunction,ComponentPad*%
%ADD22RoundRect,0.249999X-0.850001X-0.850001X0.850001X-0.850001X0.850001X0.850001X-0.850001X0.850001X0*%
%TD*%
%TA.AperFunction,ComponentPad*%
%ADD23C,2.200000*%
%TD*%
%TA.AperFunction,ComponentPad*%
%ADD24C,2.600000*%
%TD*%
%TA.AperFunction,ComponentPad*%
%ADD25C,2.400000*%
%TD*%
%TA.AperFunction,ComponentPad*%
%ADD26O,2.200000X3.500000*%
%TD*%
%TA.AperFunction,ComponentPad*%
%ADD27R,1.500000X2.500000*%
%TD*%
%TA.AperFunction,ComponentPad*%
%ADD28O,1.500000X2.500000*%
%TD*%
%TA.AperFunction,ViaPad*%
%ADD29C,0.600000*%
%TD*%
%TA.AperFunction,Conductor*%
%ADD30C,0.200000*%
%TD*%
G04 APERTURE END LIST*
D10*
%TO.N,A7*%
%TO.C,C15*%
X102000000Y-168000000D03*
%TO.N,GND*%
X102000000Y-163000000D03*
%TD*%
%TO.N,A4*%
%TO.C,C7*%
X102000000Y-116000000D03*
%TO.N,GND*%
X102000000Y-111000000D03*
%TD*%
D11*
%TO.N,GND*%
%TO.C,J4*%
X136000000Y-60000000D03*
D12*
%TO.N,+5V*%
X138540000Y-60000000D03*
%TO.N,GND*%
X141080000Y-60000000D03*
%TO.N,VIN_RAW*%
X143620000Y-60000000D03*
%TD*%
D10*
%TO.N,A10*%
%TO.C,C12*%
X134000000Y-142000000D03*
%TO.N,GND*%
X134000000Y-137000000D03*
%TD*%
D13*
%TO.N,GND*%
%TO.C,J10*%
X111430000Y-29300000D03*
%TO.N,+5V*%
X100000000Y-35650000D03*
%TO.N,N/C*%
X111430000Y-35650000D03*
%TO.N,GND*%
X100000000Y-29300000D03*
%TO.N,JACK_W*%
X100000000Y-42000000D03*
%TO.N,N/C*%
X111430000Y-42000000D03*
%TD*%
D10*
%TO.N,D11*%
%TO.C,R7*%
X172000000Y-108000000D03*
%TO.N,LED2_A*%
X172000000Y-97840000D03*
%TD*%
%TO.N,POT7_W*%
%TO.C,R16*%
X128000000Y-108000000D03*
%TO.N,A9*%
X128000000Y-97840000D03*
%TD*%
D14*
%TO.N,D8*%
%TO.C,SW3*%
X30000000Y-108000000D03*
X36500000Y-108000000D03*
%TO.N,GND*%
X30000000Y-112500000D03*
X36500000Y-112500000D03*
%TD*%
D15*
%TO.N,+5V*%
%TO.C,RV7*%
X114000000Y-112000000D03*
D16*
%TO.N,POT7_W*%
X116500000Y-112000000D03*
%TO.N,GND*%
X119000000Y-112000000D03*
D17*
%TO.N,N/C*%
X112100000Y-105000000D03*
X120900000Y-105000000D03*
%TD*%
D10*
%TO.N,POT16_W*%
%TO.C,R25*%
X160000000Y-160000000D03*
%TO.N,MUX_CH0*%
X160000000Y-149840000D03*
%TD*%
D11*
%TO.N,D2*%
%TO.C,JMD1*%
X40000000Y-240000000D03*
D12*
%TO.N,D3*%
X42540000Y-240000000D03*
%TO.N,D4*%
X45080000Y-240000000D03*
%TO.N,GND*%
X47620000Y-240000000D03*
%TO.N,D13*%
X50160000Y-240000000D03*
%TO.N,D5*%
X52700000Y-240000000D03*
%TO.N,D6*%
X55240000Y-240000000D03*
%TO.N,D7*%
X57780000Y-240000000D03*
%TO.N,D8*%
X60320000Y-240000000D03*
%TO.N,D9*%
X62860000Y-240000000D03*
%TD*%
D10*
%TO.N,A8*%
%TO.C,C4*%
X134000000Y-90000000D03*
%TO.N,GND*%
X134000000Y-85000000D03*
%TD*%
%TO.N,POT2_W*%
%TO.C,R11*%
X96000000Y-82000000D03*
%TO.N,A5*%
X96000000Y-71840000D03*
%TD*%
%TO.N,POT5_W*%
%TO.C,R14*%
X64000000Y-108000000D03*
%TO.N,A1*%
X64000000Y-97840000D03*
%TD*%
%TO.N,A6*%
%TO.C,C11*%
X102000000Y-142000000D03*
%TO.N,GND*%
X102000000Y-137000000D03*
%TD*%
%TO.N,MIDI_IN_4*%
%TO.C,R1*%
X34000000Y-65000000D03*
%TO.N,OPTO_ANODE*%
X44160000Y-65000000D03*
%TD*%
D15*
%TO.N,+5V*%
%TO.C,RV1*%
X50000000Y-86000000D03*
D16*
%TO.N,POT1_W*%
X52500000Y-86000000D03*
%TO.N,GND*%
X55000000Y-86000000D03*
D17*
%TO.N,N/C*%
X48100000Y-79000000D03*
X56900000Y-79000000D03*
%TD*%
D10*
%TO.N,POT14_W*%
%TO.C,R23*%
X96000000Y-160000000D03*
%TO.N,A7*%
X96000000Y-149840000D03*
%TD*%
D11*
%TO.N,D20_SDA*%
%TO.C,JMD4*%
X104770000Y-240000000D03*
D12*
%TO.N,D21_SCL*%
X107310000Y-240000000D03*
%TD*%
D11*
%TO.N,A0*%
%TO.C,JMA2*%
X71750000Y-192000000D03*
D12*
%TO.N,A1*%
X74290000Y-192000000D03*
%TO.N,A2*%
X76830000Y-192000000D03*
%TO.N,A3*%
X79370000Y-192000000D03*
%TO.N,A4*%
X81910000Y-192000000D03*
%TO.N,A5*%
X84450000Y-192000000D03*
%TO.N,A6*%
X86990000Y-192000000D03*
%TO.N,A7*%
X89530000Y-192000000D03*
%TD*%
D14*
%TO.N,D5*%
%TO.C,SW5*%
X30000000Y-152000000D03*
X36500000Y-152000000D03*
%TO.N,GND*%
X30000000Y-156500000D03*
X36500000Y-156500000D03*
%TD*%
D10*
%TO.N,D10*%
%TO.C,R8*%
X172000000Y-130000000D03*
%TO.N,LED3_A*%
X172000000Y-119840000D03*
%TD*%
%TO.N,POT6_W*%
%TO.C,R15*%
X96000000Y-108000000D03*
%TO.N,A4*%
X96000000Y-97840000D03*
%TD*%
%TO.N,OPTO_VO*%
%TO.C,R5*%
X68000000Y-65000000D03*
%TO.N,+5V*%
X78160000Y-65000000D03*
%TD*%
%TO.N,A12*%
%TO.C,C5*%
X166000000Y-90000000D03*
%TO.N,GND*%
X166000000Y-85000000D03*
%TD*%
%TO.N,POT1_W*%
%TO.C,R10*%
X64000000Y-82000000D03*
%TO.N,A0*%
X64000000Y-71840000D03*
%TD*%
D11*
%TO.N,GND*%
%TO.C,J5*%
X166000000Y-32000000D03*
D12*
%TO.N,+5V*%
X168540000Y-32000000D03*
%TO.N,D21_SCL*%
X171080000Y-32000000D03*
%TO.N,D20_SDA*%
X173620000Y-32000000D03*
%TD*%
D10*
%TO.N,A1*%
%TO.C,C6*%
X70000000Y-116000000D03*
%TO.N,GND*%
X70000000Y-111000000D03*
%TD*%
%TO.N,A11*%
%TO.C,C16*%
X134000000Y-168000000D03*
%TO.N,GND*%
X134000000Y-163000000D03*
%TD*%
D18*
%TO.N,VIN_RAW*%
%TO.C,J3*%
X138000000Y-38000000D03*
D19*
%TO.N,GND*%
X138000000Y-32000000D03*
D20*
%TO.N,N/C*%
X133300000Y-35000000D03*
%TD*%
D10*
%TO.N,POT12_W*%
%TO.C,R21*%
X160000000Y-134000000D03*
%TO.N,A14*%
X160000000Y-123840000D03*
%TD*%
D15*
%TO.N,GND*%
%TO.C,D4*%
X180000000Y-108000000D03*
D16*
%TO.N,LED2_A*%
X180000000Y-105460000D03*
%TD*%
D15*
%TO.N,+5V*%
%TO.C,RV6*%
X82000000Y-112000000D03*
D16*
%TO.N,POT6_W*%
X84500000Y-112000000D03*
%TO.N,GND*%
X87000000Y-112000000D03*
D17*
%TO.N,N/C*%
X80100000Y-105000000D03*
X88900000Y-105000000D03*
%TD*%
D15*
%TO.N,+5V*%
%TO.C,RV12*%
X146000000Y-138000000D03*
D16*
%TO.N,POT12_W*%
X148500000Y-138000000D03*
%TO.N,GND*%
X151000000Y-138000000D03*
D17*
%TO.N,N/C*%
X144100000Y-131000000D03*
X152900000Y-131000000D03*
%TD*%
D15*
%TO.N,+5V*%
%TO.C,RV15*%
X114000000Y-164000000D03*
D16*
%TO.N,POT15_W*%
X116500000Y-164000000D03*
%TO.N,GND*%
X119000000Y-164000000D03*
D17*
%TO.N,N/C*%
X112100000Y-157000000D03*
X120900000Y-157000000D03*
%TD*%
D10*
%TO.N,D9*%
%TO.C,R9*%
X172000000Y-152000000D03*
%TO.N,LED4_A*%
X172000000Y-141840000D03*
%TD*%
D15*
%TO.N,+5V*%
%TO.C,RV13*%
X50000000Y-164000000D03*
D16*
%TO.N,POT13_W*%
X52500000Y-164000000D03*
%TO.N,GND*%
X55000000Y-164000000D03*
D17*
%TO.N,N/C*%
X48100000Y-157000000D03*
X56900000Y-157000000D03*
%TD*%
D21*
%TO.N,A15*%
%TO.C,U2*%
X138000000Y-196000000D03*
D10*
%TO.N,MUX_CH7*%
X138000000Y-198540000D03*
%TO.N,MUX_CH6*%
X138000000Y-201080000D03*
%TO.N,MUX_CH5*%
X138000000Y-203620000D03*
%TO.N,MUX_CH4*%
X138000000Y-206160000D03*
%TO.N,MUX_CH3*%
X138000000Y-208700000D03*
%TO.N,MUX_CH2*%
X138000000Y-211240000D03*
%TO.N,MUX_CH1*%
X138000000Y-213780000D03*
%TO.N,MUX_CH0*%
X138000000Y-216320000D03*
%TO.N,D2*%
X138000000Y-218860000D03*
%TO.N,D3*%
X138000000Y-221400000D03*
%TO.N,GND*%
X138000000Y-223940000D03*
%TO.N,D13*%
X153240000Y-223940000D03*
%TO.N,D4*%
X153240000Y-221400000D03*
%TO.N,GND*%
X153240000Y-218860000D03*
%TO.N,MUX_CH15*%
X153240000Y-216320000D03*
%TO.N,MUX_CH14*%
X153240000Y-213780000D03*
%TO.N,MUX_CH13*%
X153240000Y-211240000D03*
%TO.N,MUX_CH12*%
X153240000Y-208700000D03*
%TO.N,MUX_CH11*%
X153240000Y-206160000D03*
%TO.N,MUX_CH10*%
X153240000Y-203620000D03*
%TO.N,MUX_CH9*%
X153240000Y-201080000D03*
%TO.N,MUX_CH8*%
X153240000Y-198540000D03*
%TO.N,+5V*%
X153240000Y-196000000D03*
%TD*%
D14*
%TO.N,D7*%
%TO.C,SW2*%
X30000000Y-86000000D03*
X36500000Y-86000000D03*
%TO.N,GND*%
X30000000Y-90500000D03*
X36500000Y-90500000D03*
%TD*%
D15*
%TO.N,+5V*%
%TO.C,RV9*%
X50000000Y-138000000D03*
D16*
%TO.N,POT9_W*%
X52500000Y-138000000D03*
%TO.N,GND*%
X55000000Y-138000000D03*
D17*
%TO.N,N/C*%
X48100000Y-131000000D03*
X56900000Y-131000000D03*
%TD*%
D10*
%TO.N,POT8_W*%
%TO.C,R17*%
X160000000Y-108000000D03*
%TO.N,A13*%
X160000000Y-97840000D03*
%TD*%
D21*
%TO.N,+5V*%
%TO.C,C19*%
X162000000Y-64000000D03*
D10*
%TO.N,GND*%
X164500000Y-64000000D03*
%TD*%
D22*
%TO.N,+5V*%
%TO.C,D2D*%
X150000000Y-52000000D03*
D23*
%TO.N,VIN_RAW*%
X160160000Y-52000000D03*
%TD*%
D24*
%TO.N,*%
%TO.C,J2*%
X67000000Y-28300000D03*
X77000000Y-28300000D03*
D25*
%TO.N,N/C*%
X64700000Y-38000000D03*
%TO.N,GND*%
X72000000Y-38000000D03*
%TO.N,N/C*%
X79300000Y-38000000D03*
%TO.N,MIDI_OUT_4*%
X77000000Y-40500000D03*
%TO.N,MIDI_OUT_5*%
X67000000Y-40500000D03*
%TD*%
D10*
%TO.N,A9*%
%TO.C,C8*%
X134000000Y-116000000D03*
%TO.N,GND*%
X134000000Y-111000000D03*
%TD*%
D11*
%TO.N,N/C*%
%TO.C,JMA1*%
X48890000Y-192000000D03*
D12*
X51430000Y-192000000D03*
X53970000Y-192000000D03*
X56510000Y-192000000D03*
%TO.N,+5V*%
X59050000Y-192000000D03*
%TO.N,GND*%
X61590000Y-192000000D03*
X64130000Y-192000000D03*
%TO.N,VIN_RAW*%
X66670000Y-192000000D03*
%TD*%
D15*
%TO.N,+5V*%
%TO.C,RV11*%
X114000000Y-138000000D03*
D16*
%TO.N,POT11_W*%
X116500000Y-138000000D03*
%TO.N,GND*%
X119000000Y-138000000D03*
D17*
%TO.N,N/C*%
X112100000Y-131000000D03*
X120900000Y-131000000D03*
%TD*%
D10*
%TO.N,A14*%
%TO.C,C13*%
X166000000Y-142000000D03*
%TO.N,GND*%
X166000000Y-137000000D03*
%TD*%
%TO.N,POT3_W*%
%TO.C,R12*%
X128000000Y-82000000D03*
%TO.N,A8*%
X128000000Y-71840000D03*
%TD*%
%TO.N,D12*%
%TO.C,R6*%
X172000000Y-86000000D03*
%TO.N,LED1_A*%
X172000000Y-75840000D03*
%TD*%
D11*
%TO.N,D10*%
%TO.C,JMD2*%
X66670000Y-240000000D03*
D12*
%TO.N,D11*%
X69210000Y-240000000D03*
%TO.N,D12*%
X71750000Y-240000000D03*
%TD*%
D10*
%TO.N,A13*%
%TO.C,C9*%
X166000000Y-116000000D03*
%TO.N,GND*%
X166000000Y-111000000D03*
%TD*%
%TO.N,POT15_W*%
%TO.C,R24*%
X128000000Y-160000000D03*
%TO.N,A11*%
X128000000Y-149840000D03*
%TD*%
%TO.N,A0*%
%TO.C,C2*%
X70000000Y-90000000D03*
%TO.N,GND*%
X70000000Y-85000000D03*
%TD*%
%TO.N,JACK_W*%
%TO.C,R27*%
X168000000Y-202000000D03*
%TO.N,MUX_CH1*%
X178160000Y-202000000D03*
%TD*%
D11*
%TO.N,D1_TX*%
%TO.C,JMD3*%
X81910000Y-240000000D03*
D12*
%TO.N,D0_RX*%
X84450000Y-240000000D03*
%TD*%
D10*
%TO.N,MUX_CH1*%
%TO.C,C18*%
X168000000Y-216000000D03*
%TO.N,GND*%
X173000000Y-216000000D03*
%TD*%
D15*
%TO.N,+5V*%
%TO.C,RV16*%
X146000000Y-164000000D03*
D16*
%TO.N,POT16_W*%
X148500000Y-164000000D03*
%TO.N,GND*%
X151000000Y-164000000D03*
D17*
%TO.N,N/C*%
X144100000Y-157000000D03*
X152900000Y-157000000D03*
%TD*%
D21*
%TO.N,OPTO_ANODE*%
%TO.C,D1*%
X34000000Y-59000000D03*
D10*
%TO.N,OPTO_CATHODE*%
X41620000Y-59000000D03*
%TD*%
%TO.N,POT10_W*%
%TO.C,R19*%
X96000000Y-134000000D03*
%TO.N,A6*%
X96000000Y-123840000D03*
%TD*%
D15*
%TO.N,GND*%
%TO.C,D5*%
X180000000Y-130000000D03*
D16*
%TO.N,LED3_A*%
X180000000Y-127460000D03*
%TD*%
D10*
%TO.N,POT9_W*%
%TO.C,R18*%
X64000000Y-134000000D03*
%TO.N,A2*%
X64000000Y-123840000D03*
%TD*%
D21*
%TO.N,N/C*%
%TO.C,U1*%
X48000000Y-54000000D03*
D10*
%TO.N,OPTO_ANODE*%
X48000000Y-56540000D03*
%TO.N,OPTO_CATHODE*%
X48000000Y-59080000D03*
%TO.N,N/C*%
X48000000Y-61620000D03*
%TO.N,GND*%
X55620000Y-61620000D03*
%TO.N,OPTO_VO*%
X55620000Y-59080000D03*
%TO.N,OPTO_VB*%
X55620000Y-56540000D03*
%TO.N,+5V*%
X55620000Y-54000000D03*
%TD*%
%TO.N,MUX_CH0*%
%TO.C,C17*%
X166000000Y-168000000D03*
%TO.N,GND*%
X166000000Y-163000000D03*
%TD*%
D26*
%TO.N,*%
%TO.C,SW1*%
X87900000Y-62000000D03*
X96100000Y-62000000D03*
D27*
%TO.N,OPTO_VO*%
X90000000Y-62000000D03*
D28*
%TO.N,D0_RX*%
X92000000Y-62000000D03*
%TO.N,N/C*%
X94000000Y-62000000D03*
%TD*%
D10*
%TO.N,+5V*%
%TO.C,C1*%
X80000000Y-62000000D03*
%TO.N,GND*%
X85000000Y-62000000D03*
%TD*%
%TO.N,A3*%
%TO.C,C14*%
X70000000Y-168000000D03*
%TO.N,GND*%
X70000000Y-163000000D03*
%TD*%
D14*
%TO.N,D6*%
%TO.C,SW4*%
X30000000Y-130000000D03*
X36500000Y-130000000D03*
%TO.N,GND*%
X30000000Y-134500000D03*
X36500000Y-134500000D03*
%TD*%
D10*
%TO.N,MIDI_OUT_5*%
%TO.C,R3*%
X118000000Y-59000000D03*
%TO.N,D1_TX*%
X128160000Y-59000000D03*
%TD*%
D15*
%TO.N,+5V*%
%TO.C,RV2*%
X82000000Y-86000000D03*
D16*
%TO.N,POT2_W*%
X84500000Y-86000000D03*
%TO.N,GND*%
X87000000Y-86000000D03*
D17*
%TO.N,N/C*%
X80100000Y-79000000D03*
X88900000Y-79000000D03*
%TD*%
D15*
%TO.N,GND*%
%TO.C,D6*%
X180000000Y-152000000D03*
D16*
%TO.N,LED4_A*%
X180000000Y-149460000D03*
%TD*%
D10*
%TO.N,POT13_W*%
%TO.C,R22*%
X64000000Y-160000000D03*
%TO.N,A3*%
X64000000Y-149840000D03*
%TD*%
D24*
%TO.N,*%
%TO.C,J1*%
X39000000Y-28300000D03*
X49000000Y-28300000D03*
D25*
%TO.N,N/C*%
X36700000Y-38000000D03*
%TO.N,GND*%
X44000000Y-38000000D03*
%TO.N,N/C*%
X51300000Y-38000000D03*
%TO.N,MIDI_IN_4*%
X49000000Y-40500000D03*
%TO.N,OPTO_CATHODE*%
X39000000Y-40500000D03*
%TD*%
D15*
%TO.N,+5V*%
%TO.C,RV3*%
X114000000Y-86000000D03*
D16*
%TO.N,POT3_W*%
X116500000Y-86000000D03*
%TO.N,GND*%
X119000000Y-86000000D03*
D17*
%TO.N,N/C*%
X112100000Y-79000000D03*
X120900000Y-79000000D03*
%TD*%
D10*
%TO.N,POT11_W*%
%TO.C,R20*%
X128000000Y-134000000D03*
%TO.N,A10*%
X128000000Y-123840000D03*
%TD*%
D15*
%TO.N,+5V*%
%TO.C,RV8*%
X146000000Y-112000000D03*
D16*
%TO.N,POT8_W*%
X148500000Y-112000000D03*
%TO.N,GND*%
X151000000Y-112000000D03*
D17*
%TO.N,N/C*%
X144100000Y-105000000D03*
X152900000Y-105000000D03*
%TD*%
D15*
%TO.N,GND*%
%TO.C,D3*%
X180000000Y-86000000D03*
D16*
%TO.N,LED1_A*%
X180000000Y-83460000D03*
%TD*%
D10*
%TO.N,OPTO_VB*%
%TO.C,R4*%
X68000000Y-59000000D03*
%TO.N,GND*%
X78160000Y-59000000D03*
%TD*%
D11*
%TO.N,A8*%
%TO.C,JMA3*%
X94610000Y-192000000D03*
D12*
%TO.N,A9*%
X97150000Y-192000000D03*
%TO.N,A10*%
X99690000Y-192000000D03*
%TO.N,A11*%
X102230000Y-192000000D03*
%TO.N,A12*%
X104770000Y-192000000D03*
%TO.N,A13*%
X107310000Y-192000000D03*
%TO.N,A14*%
X109850000Y-192000000D03*
%TO.N,A15*%
X112390000Y-192000000D03*
%TD*%
D15*
%TO.N,+5V*%
%TO.C,RV14*%
X82000000Y-164000000D03*
D16*
%TO.N,POT14_W*%
X84500000Y-164000000D03*
%TO.N,GND*%
X87000000Y-164000000D03*
D17*
%TO.N,N/C*%
X80100000Y-157000000D03*
X88900000Y-157000000D03*
%TD*%
D10*
%TO.N,POT4_W*%
%TO.C,R13*%
X160000000Y-82000000D03*
%TO.N,A12*%
X160000000Y-71840000D03*
%TD*%
D15*
%TO.N,+5V*%
%TO.C,RV4*%
X146000000Y-86000000D03*
D16*
%TO.N,POT4_W*%
X148500000Y-86000000D03*
%TO.N,GND*%
X151000000Y-86000000D03*
D17*
%TO.N,N/C*%
X144100000Y-79000000D03*
X152900000Y-79000000D03*
%TD*%
D10*
%TO.N,MIDI_OUT_4*%
%TO.C,R2*%
X118000000Y-65000000D03*
%TO.N,+5V*%
X128160000Y-65000000D03*
%TD*%
%TO.N,A2*%
%TO.C,C10*%
X70000000Y-142000000D03*
%TO.N,GND*%
X70000000Y-137000000D03*
%TD*%
D15*
%TO.N,+5V*%
%TO.C,RV10*%
X82000000Y-138000000D03*
D16*
%TO.N,POT10_W*%
X84500000Y-138000000D03*
%TO.N,GND*%
X87000000Y-138000000D03*
D17*
%TO.N,N/C*%
X80100000Y-131000000D03*
X88900000Y-131000000D03*
%TD*%
D10*
%TO.N,A5*%
%TO.C,C3*%
X102000000Y-90000000D03*
%TO.N,GND*%
X102000000Y-85000000D03*
%TD*%
D15*
%TO.N,+5V*%
%TO.C,RV5*%
X50000000Y-112000000D03*
D16*
%TO.N,POT5_W*%
X52500000Y-112000000D03*
%TO.N,GND*%
X55000000Y-112000000D03*
D17*
%TO.N,N/C*%
X48100000Y-105000000D03*
X56900000Y-105000000D03*
%TD*%
D29*
%TO.N,JACK_W*%
X173139300Y-74723500D03*
%TO.N,+5V*%
X125299500Y-87201700D03*
%TO.N,VIN_RAW*%
X133396000Y-150995700D03*
%TO.N,A5*%
X92162000Y-184959200D03*
%TO.N,A12*%
X126100800Y-104360500D03*
%TO.N,A4*%
X92763700Y-181146300D03*
%TO.N,A6*%
X93112500Y-189988000D03*
%TO.N,D12*%
X152020500Y-217590000D03*
%TO.N,D11*%
X161214400Y-212510000D03*
%TO.N,D10*%
X173152500Y-204890000D03*
%TO.N,A15*%
X114175000Y-194020400D03*
%TD*%
%TO.N,OPTO_CATHODE*%
D30*
X47920000Y-59000000D02*
X48000000Y-59080000D01*
X41620000Y-59000000D02*
X47920000Y-59000000D01*
%TO.N,MIDI_OUT_4*%
X92435600Y-55935600D02*
X77000000Y-40500000D01*
X119882300Y-59218500D02*
X116599400Y-55935600D01*
X116599400Y-55935600D02*
X92435600Y-55935600D01*
X118000000Y-65000000D02*
X119882300Y-63117700D01*
X119882300Y-63117700D02*
X119882300Y-59218500D01*
%TO.N,MIDI_OUT_5*%
X85500000Y-59000000D02*
X67000000Y-40500000D01*
X118000000Y-59000000D02*
X85500000Y-59000000D01*
%TO.N,JACK_W*%
X173139300Y-74723500D02*
X135955300Y-74723500D01*
X135955300Y-74723500D02*
X103231800Y-42000000D01*
X103231800Y-42000000D02*
X100000000Y-42000000D01*
%TO.N,+5V*%
X114000000Y-164000000D02*
X112798300Y-164000000D01*
X139696200Y-61156200D02*
X138540000Y-60000000D01*
X112798300Y-164000000D02*
X111596600Y-165201700D01*
X83201700Y-164450700D02*
X83201700Y-164000000D01*
X72558100Y-62000000D02*
X64558100Y-54000000D01*
X83952700Y-165201700D02*
X83201700Y-164450700D01*
X80000000Y-62000000D02*
X72558100Y-62000000D01*
X162000000Y-64000000D02*
X151640600Y-53640600D01*
X115201700Y-86000000D02*
X115201700Y-86450700D01*
X133540000Y-65000000D02*
X138540000Y-60000000D01*
X64558100Y-54000000D02*
X55620000Y-54000000D01*
X111596600Y-165201700D02*
X83952700Y-165201700D01*
X82000000Y-164000000D02*
X83201700Y-164000000D01*
X125299500Y-87201700D02*
X143596600Y-87201700D01*
X115201700Y-86450700D02*
X115952700Y-87201700D01*
X144125000Y-61156200D02*
X139696200Y-61156200D01*
X146000000Y-86000000D02*
X144798300Y-86000000D01*
X151640600Y-53640600D02*
X144125000Y-61156200D01*
X151640600Y-53640600D02*
X150000000Y-52000000D01*
X115952700Y-87201700D02*
X125299500Y-87201700D01*
X143596600Y-87201700D02*
X144798300Y-86000000D01*
X114000000Y-86000000D02*
X115201700Y-86000000D01*
X128160000Y-65000000D02*
X133540000Y-65000000D01*
%TO.N,VIN_RAW*%
X138000000Y-38000000D02*
X140051700Y-38000000D01*
X92155500Y-166514500D02*
X115709900Y-166514500D01*
X148900700Y-50597300D02*
X148900700Y-46849000D01*
X158757300Y-50597300D02*
X148900700Y-50597300D01*
X143620000Y-55878000D02*
X143620000Y-60000000D01*
X119014000Y-162277200D02*
X122114500Y-162277200D01*
X117749400Y-164475000D02*
X117749400Y-163541800D01*
X148900700Y-46849000D02*
X140051700Y-38000000D01*
X122114500Y-162277200D02*
X133396000Y-150995700D01*
X115709900Y-166514500D02*
X117749400Y-164475000D01*
X66670000Y-192000000D02*
X92155500Y-166514500D01*
X148900700Y-50597300D02*
X143620000Y-55878000D01*
X117749400Y-163541800D02*
X119014000Y-162277200D01*
X160160000Y-52000000D02*
X158757300Y-50597300D01*
%TO.N,OPTO_ANODE*%
X40000000Y-65000000D02*
X44160000Y-65000000D01*
X34000000Y-59000000D02*
X40000000Y-65000000D01*
%TO.N,OPTO_VO*%
X79307400Y-64100000D02*
X79082000Y-63874600D01*
X90000000Y-62000000D02*
X90000000Y-63551700D01*
X90000000Y-63551700D02*
X89451700Y-64100000D01*
X60414600Y-63874600D02*
X55620000Y-59080000D01*
X68000000Y-63874600D02*
X60414600Y-63874600D01*
X89451700Y-64100000D02*
X79307400Y-64100000D01*
X79082000Y-63874600D02*
X68000000Y-63874600D01*
X68000000Y-63874600D02*
X68000000Y-65000000D01*
%TO.N,OPTO_VB*%
X58080000Y-59000000D02*
X55620000Y-56540000D01*
X68000000Y-59000000D02*
X58080000Y-59000000D01*
%TO.N,D7*%
X36500000Y-86000000D02*
X30000000Y-86000000D01*
%TO.N,D8*%
X36500000Y-108000000D02*
X30000000Y-108000000D01*
%TO.N,D6*%
X36500000Y-130000000D02*
X30000000Y-130000000D01*
%TO.N,D5*%
X36500000Y-152000000D02*
X30000000Y-152000000D01*
%TO.N,POT1_W*%
X64000000Y-82000000D02*
X56500000Y-82000000D01*
X56500000Y-82000000D02*
X52500000Y-86000000D01*
%TO.N,POT2_W*%
X96000000Y-82000000D02*
X88500000Y-82000000D01*
X88500000Y-82000000D02*
X84500000Y-86000000D01*
%TO.N,A5*%
X84450000Y-192000000D02*
X91490800Y-184959200D01*
X91490800Y-184959200D02*
X92162000Y-184959200D01*
%TO.N,POT3_W*%
X128000000Y-82000000D02*
X120500000Y-82000000D01*
X120500000Y-82000000D02*
X116500000Y-86000000D01*
%TO.N,POT4_W*%
X160000000Y-82000000D02*
X152500000Y-82000000D01*
X152500000Y-82000000D02*
X148500000Y-86000000D01*
%TO.N,A12*%
X126100800Y-104360500D02*
X140461300Y-90000000D01*
X140461300Y-90000000D02*
X166000000Y-90000000D01*
%TO.N,POT5_W*%
X56500000Y-108000000D02*
X52500000Y-112000000D01*
X64000000Y-108000000D02*
X56500000Y-108000000D01*
%TO.N,POT6_W*%
X88500000Y-108000000D02*
X84500000Y-112000000D01*
X96000000Y-108000000D02*
X88500000Y-108000000D01*
%TO.N,A4*%
X81910000Y-192000000D02*
X92763700Y-181146300D01*
%TO.N,POT7_W*%
X128000000Y-108000000D02*
X120500000Y-108000000D01*
X120500000Y-108000000D02*
X116500000Y-112000000D01*
%TO.N,POT8_W*%
X160000000Y-108000000D02*
X152500000Y-108000000D01*
X152500000Y-108000000D02*
X148500000Y-112000000D01*
%TO.N,A13*%
X107310000Y-192000000D02*
X107310000Y-178859200D01*
X142328000Y-143841200D02*
X142328000Y-138054500D01*
X142328000Y-138054500D02*
X164382500Y-116000000D01*
X164382500Y-116000000D02*
X166000000Y-116000000D01*
X107310000Y-178859200D02*
X142328000Y-143841200D01*
%TO.N,POT9_W*%
X64000000Y-134000000D02*
X56500000Y-134000000D01*
X56500000Y-134000000D02*
X52500000Y-138000000D01*
%TO.N,A2*%
X66539300Y-126379300D02*
X64000000Y-123840000D01*
X70000000Y-142000000D02*
X66539300Y-138539300D01*
X66539300Y-138539300D02*
X66539300Y-126379300D01*
%TO.N,POT10_W*%
X88500000Y-134000000D02*
X84500000Y-138000000D01*
X96000000Y-134000000D02*
X88500000Y-134000000D01*
%TO.N,POT11_W*%
X120500000Y-134000000D02*
X116500000Y-138000000D01*
X128000000Y-134000000D02*
X120500000Y-134000000D01*
%TO.N,A10*%
X99690000Y-192000000D02*
X99690000Y-185625900D01*
X134000000Y-151315900D02*
X134000000Y-142000000D01*
X99690000Y-185625900D02*
X134000000Y-151315900D01*
%TO.N,POT12_W*%
X152500000Y-134000000D02*
X148500000Y-138000000D01*
X160000000Y-134000000D02*
X152500000Y-134000000D01*
%TO.N,A14*%
X121325600Y-180524400D02*
X125780600Y-180524400D01*
X109850000Y-192000000D02*
X121325600Y-180524400D01*
X164305000Y-142000000D02*
X166000000Y-142000000D01*
X125780600Y-180524400D02*
X164305000Y-142000000D01*
%TO.N,POT13_W*%
X56500000Y-160000000D02*
X52500000Y-164000000D01*
X64000000Y-160000000D02*
X56500000Y-160000000D01*
%TO.N,A3*%
X66539300Y-152379300D02*
X64000000Y-149840000D01*
X66539300Y-164539300D02*
X66539300Y-152379300D01*
X70000000Y-168000000D02*
X66539300Y-164539300D01*
%TO.N,POT14_W*%
X88500000Y-160000000D02*
X84500000Y-164000000D01*
X96000000Y-160000000D02*
X88500000Y-160000000D01*
%TO.N,A7*%
X89530000Y-192000000D02*
X102000000Y-179530000D01*
X102000000Y-179530000D02*
X102000000Y-168000000D01*
%TO.N,A11*%
X107819500Y-193168600D02*
X108612600Y-192375500D01*
X105282400Y-190848300D02*
X106158300Y-191724200D01*
X106158300Y-191724200D02*
X106158300Y-192477000D01*
X103381700Y-190848300D02*
X105282400Y-190848300D01*
X106158300Y-192477000D02*
X106849900Y-193168600D01*
X106849900Y-193168600D02*
X107819500Y-193168600D01*
X102230000Y-192000000D02*
X103381700Y-190848300D01*
X108612600Y-192375500D02*
X108612600Y-191512500D01*
X108612600Y-191512500D02*
X132125100Y-168000000D01*
X132125100Y-168000000D02*
X134000000Y-168000000D01*
%TO.N,POT16_W*%
X160000000Y-160000000D02*
X152500000Y-160000000D01*
X152500000Y-160000000D02*
X148500000Y-164000000D01*
%TO.N,D12*%
X71750000Y-240000000D02*
X94160000Y-217590000D01*
X94160000Y-217590000D02*
X152020500Y-217590000D01*
%TO.N,LED1_A*%
X179620000Y-83460000D02*
X172000000Y-75840000D01*
X180000000Y-83460000D02*
X179620000Y-83460000D01*
%TO.N,D11*%
X96700000Y-212510000D02*
X161214400Y-212510000D01*
X69210000Y-240000000D02*
X96700000Y-212510000D01*
%TO.N,LED2_A*%
X180000000Y-105460000D02*
X179620000Y-105460000D01*
X179620000Y-105460000D02*
X172000000Y-97840000D01*
%TO.N,D10*%
X102643800Y-204890000D02*
X173152500Y-204890000D01*
X67821700Y-240000000D02*
X67821700Y-239712100D01*
X67821700Y-239712100D02*
X102643800Y-204890000D01*
X66670000Y-240000000D02*
X67821700Y-240000000D01*
%TO.N,LED3_A*%
X179620000Y-127460000D02*
X172000000Y-119840000D01*
X180000000Y-127460000D02*
X179620000Y-127460000D01*
%TO.N,D9*%
X105526000Y-197334000D02*
X62860000Y-240000000D01*
X172000000Y-163952900D02*
X138618900Y-197334000D01*
X172000000Y-152000000D02*
X172000000Y-163952900D01*
X138618900Y-197334000D02*
X105526000Y-197334000D01*
%TO.N,LED4_A*%
X179620000Y-149460000D02*
X172000000Y-141840000D01*
X180000000Y-149460000D02*
X179620000Y-149460000D01*
%TO.N,A15*%
X136020400Y-194020400D02*
X138000000Y-196000000D01*
X114175000Y-194020400D02*
X136020400Y-194020400D01*
%TO.N,D2*%
X51548300Y-239752900D02*
X51548300Y-240477000D01*
X50221200Y-238425800D02*
X51548300Y-239752900D01*
X41151700Y-239712100D02*
X42438000Y-238425800D01*
X52229800Y-241158500D02*
X73852000Y-241158500D01*
X41151700Y-240000000D02*
X41151700Y-239712100D01*
X96150500Y-218860000D02*
X138000000Y-218860000D01*
X40000000Y-240000000D02*
X41151700Y-240000000D01*
X51548300Y-240477000D02*
X52229800Y-241158500D01*
X42438000Y-238425800D02*
X50221200Y-238425800D01*
X73852000Y-241158500D02*
X96150500Y-218860000D01*
%TO.N,D3*%
X46468300Y-239699000D02*
X46468300Y-240529900D01*
X47900300Y-241961900D02*
X117438100Y-241961900D01*
X43705400Y-238834600D02*
X45603900Y-238834600D01*
X46468300Y-240529900D02*
X47900300Y-241961900D01*
X117438100Y-241961900D02*
X138000000Y-221400000D01*
X45603900Y-238834600D02*
X46468300Y-239699000D01*
X42540000Y-240000000D02*
X43705400Y-238834600D01*
%TO.N,D4*%
X136400600Y-242363600D02*
X154409800Y-224354400D01*
X45080000Y-240000000D02*
X47443600Y-242363600D01*
X47443600Y-242363600D02*
X136400600Y-242363600D01*
X154409800Y-222569800D02*
X153240000Y-221400000D01*
X154409800Y-224354400D02*
X154409800Y-222569800D01*
%TO.N,D13*%
X50160000Y-240000000D02*
X51720200Y-241560200D01*
X149591400Y-220291400D02*
X153240000Y-223940000D01*
X74218500Y-241560200D02*
X95487300Y-220291400D01*
X51720200Y-241560200D02*
X74218500Y-241560200D01*
X95487300Y-220291400D02*
X149591400Y-220291400D01*
%TO.N,MUX_CH1*%
X178160000Y-203940000D02*
X178160000Y-202000000D01*
X168000000Y-216000000D02*
X167050000Y-215050000D01*
X167050000Y-215050000D02*
X139270000Y-215050000D01*
X139270000Y-215050000D02*
X138000000Y-213780000D01*
X167050000Y-215050000D02*
X178160000Y-203940000D01*
%TD*%
M02*
