M48
; DRILL file KiCad 10.0.3 date 2026-06-06T12:06:13
; FORMAT={-:-/ absolute / metric / decimal}
; #@! TF.CreationDate,2026-06-06T12:06:13+02:00
; #@! TF.GenerationSoftware,Kicad,Pcbnew,10.0.3
; #@! TF.FileFunction,MixedPlating,1,4
FMAT,2
METRIC
; #@! TA.AperFunction,Plated,PTH,ViaDrill
T1C0.300
; #@! TA.AperFunction,Plated,PTH,ComponentDrill
T2C0.800
; #@! TA.AperFunction,Plated,PTH,ComponentDrill
T3C0.900
; #@! TA.AperFunction,Plated,PTH,ComponentDrill
T4C1.000
; #@! TA.AperFunction,Plated,PTH,ComponentDrill
T5C1.100
; #@! TA.AperFunction,Plated,PTH,ComponentDrill
T6C1.400
; #@! TA.AperFunction,Plated,PTH,ComponentDrill
T7C1.500
; #@! TA.AperFunction,Plated,PTH,ComponentDrill
T8C1.800
; #@! TA.AperFunction,NonPlated,NPTH,ComponentDrill
T9C2.000
; #@! TA.AperFunction,NonPlated,NPTH,ComponentDrill
T10C3.000
%
G90
G05
T1
X92.162Y-184.959
X92.764Y-181.146
X93.112Y-189.988
X114.175Y-194.02
X125.299Y-87.202
X126.101Y-104.361
X133.396Y-150.996
X152.02Y-217.59
X161.214Y-212.51
X173.139Y-74.724
X173.153Y-204.89
T2
X34.0Y-59.0
X34.0Y-65.0
X41.62Y-59.0
X44.16Y-65.0
X48.0Y-54.0
X48.0Y-56.54
X48.0Y-59.08
X48.0Y-61.62
X55.62Y-54.0
X55.62Y-56.54
X55.62Y-59.08
X55.62Y-61.62
X64.0Y-71.84
X64.0Y-82.0
X64.0Y-97.84
X64.0Y-108.0
X64.0Y-123.84
X64.0Y-134.0
X64.0Y-149.84
X64.0Y-160.0
X68.0Y-59.0
X68.0Y-65.0
X70.0Y-85.0
X70.0Y-90.0
X70.0Y-111.0
X70.0Y-116.0
X70.0Y-137.0
X70.0Y-142.0
X70.0Y-163.0
X70.0Y-168.0
X78.16Y-59.0
X78.16Y-65.0
X80.0Y-62.0
X85.0Y-62.0
X90.0Y-62.0
X92.0Y-62.0
X94.0Y-62.0
X96.0Y-71.84
X96.0Y-82.0
X96.0Y-97.84
X96.0Y-108.0
X96.0Y-123.84
X96.0Y-134.0
X96.0Y-149.84
X96.0Y-160.0
X102.0Y-85.0
X102.0Y-90.0
X102.0Y-111.0
X102.0Y-116.0
X102.0Y-137.0
X102.0Y-142.0
X102.0Y-163.0
X102.0Y-168.0
X118.0Y-59.0
X118.0Y-65.0
X128.0Y-71.84
X128.0Y-82.0
X128.0Y-97.84
X128.0Y-108.0
X128.0Y-123.84
X128.0Y-134.0
X128.0Y-149.84
X128.0Y-160.0
X128.16Y-59.0
X128.16Y-65.0
X134.0Y-85.0
X134.0Y-90.0
X134.0Y-111.0
X134.0Y-116.0
X134.0Y-137.0
X134.0Y-142.0
X134.0Y-163.0
X134.0Y-168.0
X138.0Y-196.0
X138.0Y-198.54
X138.0Y-201.08
X138.0Y-203.62
X138.0Y-206.16
X138.0Y-208.7
X138.0Y-211.24
X138.0Y-213.78
X138.0Y-216.32
X138.0Y-218.86
X138.0Y-221.4
X138.0Y-223.94
X153.24Y-196.0
X153.24Y-198.54
X153.24Y-201.08
X153.24Y-203.62
X153.24Y-206.16
X153.24Y-208.7
X153.24Y-211.24
X153.24Y-213.78
X153.24Y-216.32
X153.24Y-218.86
X153.24Y-221.4
X153.24Y-223.94
X160.0Y-71.84
X160.0Y-82.0
X160.0Y-97.84
X160.0Y-108.0
X160.0Y-123.84
X160.0Y-134.0
X160.0Y-149.84
X160.0Y-160.0
X162.0Y-64.0
X164.5Y-64.0
X166.0Y-85.0
X166.0Y-90.0
X166.0Y-111.0
X166.0Y-116.0
X166.0Y-137.0
X166.0Y-142.0
X166.0Y-163.0
X166.0Y-168.0
X168.0Y-202.0
X168.0Y-216.0
X172.0Y-75.84
X172.0Y-86.0
X172.0Y-97.84
X172.0Y-108.0
X172.0Y-119.84
X172.0Y-130.0
X172.0Y-141.84
X172.0Y-152.0
X173.0Y-216.0
X178.16Y-202.0
T3
X180.0Y-83.46
X180.0Y-86.0
X180.0Y-105.46
X180.0Y-108.0
X180.0Y-127.46
X180.0Y-130.0
X180.0Y-149.46
X180.0Y-152.0
T4
X40.0Y-240.0
X42.54Y-240.0
X45.08Y-240.0
X47.62Y-240.0
X48.89Y-192.0
X50.0Y-86.0
X50.0Y-112.0
X50.0Y-138.0
X50.0Y-164.0
X50.16Y-240.0
X51.43Y-192.0
X52.5Y-86.0
X52.5Y-112.0
X52.5Y-138.0
X52.5Y-164.0
X52.7Y-240.0
X53.97Y-192.0
X55.0Y-86.0
X55.0Y-112.0
X55.0Y-138.0
X55.0Y-164.0
X55.24Y-240.0
X56.51Y-192.0
X57.78Y-240.0
X59.05Y-192.0
X60.32Y-240.0
X61.59Y-192.0
X62.86Y-240.0
X64.13Y-192.0
X66.67Y-192.0
X66.67Y-240.0
X69.21Y-240.0
X71.75Y-192.0
X71.75Y-240.0
X74.29Y-192.0
X76.83Y-192.0
X79.37Y-192.0
X81.91Y-192.0
X81.91Y-240.0
X82.0Y-86.0
X82.0Y-112.0
X82.0Y-138.0
X82.0Y-164.0
X84.45Y-192.0
X84.45Y-240.0
X84.5Y-86.0
X84.5Y-112.0
X84.5Y-138.0
X84.5Y-164.0
X86.99Y-192.0
X87.0Y-86.0
X87.0Y-112.0
X87.0Y-138.0
X87.0Y-164.0
X89.53Y-192.0
X94.61Y-192.0
X97.15Y-192.0
X99.69Y-192.0
X102.23Y-192.0
X104.77Y-192.0
X104.77Y-240.0
X107.31Y-192.0
X107.31Y-240.0
X109.85Y-192.0
X112.39Y-192.0
X114.0Y-86.0
X114.0Y-112.0
X114.0Y-138.0
X114.0Y-164.0
X116.5Y-86.0
X116.5Y-112.0
X116.5Y-138.0
X116.5Y-164.0
X119.0Y-86.0
X119.0Y-112.0
X119.0Y-138.0
X119.0Y-164.0
X136.0Y-60.0
X138.54Y-60.0
X141.08Y-60.0
X143.62Y-60.0
X146.0Y-86.0
X146.0Y-112.0
X146.0Y-138.0
X146.0Y-164.0
X148.5Y-86.0
X148.5Y-112.0
X148.5Y-138.0
X148.5Y-164.0
X151.0Y-86.0
X151.0Y-112.0
X151.0Y-138.0
X151.0Y-164.0
X166.0Y-32.0
X168.54Y-32.0
X171.08Y-32.0
X173.62Y-32.0
T5
X30.0Y-86.0
X30.0Y-90.5
X30.0Y-108.0
X30.0Y-112.5
X30.0Y-130.0
X30.0Y-134.5
X30.0Y-152.0
X30.0Y-156.5
X36.5Y-86.0
X36.5Y-90.5
X36.5Y-108.0
X36.5Y-112.5
X36.5Y-130.0
X36.5Y-134.5
X36.5Y-152.0
X36.5Y-156.5
X150.0Y-52.0
X160.16Y-52.0
T6
X36.7Y-38.0
X39.0Y-28.3
X39.0Y-40.5
X44.0Y-38.0
X49.0Y-28.3
X49.0Y-40.5
X51.3Y-38.0
X64.7Y-38.0
X67.0Y-28.3
X67.0Y-40.5
X72.0Y-38.0
X77.0Y-28.3
X77.0Y-40.5
X79.3Y-38.0
T7
X87.9Y-62.0
X96.1Y-62.0
X100.0Y-29.3
X100.0Y-35.65
X100.0Y-42.0
X111.43Y-29.3
X111.43Y-35.65
X111.43Y-42.0
T9
X100.0Y-32.5
X111.43Y-32.5
T10
X102.13Y-38.85
T4
X132.3Y-35.0G85X134.3Y-35.0
G05
X138.0Y-31.0G85X138.0Y-33.0
G05
X138.0Y-37.0G85X138.0Y-39.0
G05
T8
X47.95Y-79.0G85X48.25Y-79.0
G05
X47.95Y-105.0G85X48.25Y-105.0
G05
X47.95Y-131.0G85X48.25Y-131.0
G05
X47.95Y-157.0G85X48.25Y-157.0
G05
X56.75Y-79.0G85X57.05Y-79.0
G05
X56.75Y-105.0G85X57.05Y-105.0
G05
X56.75Y-131.0G85X57.05Y-131.0
G05
X56.75Y-157.0G85X57.05Y-157.0
G05
X79.95Y-79.0G85X80.25Y-79.0
G05
X79.95Y-105.0G85X80.25Y-105.0
G05
X79.95Y-131.0G85X80.25Y-131.0
G05
X79.95Y-157.0G85X80.25Y-157.0
G05
X88.75Y-79.0G85X89.05Y-79.0
G05
X88.75Y-105.0G85X89.05Y-105.0
G05
X88.75Y-131.0G85X89.05Y-131.0
G05
X88.75Y-157.0G85X89.05Y-157.0
G05
X111.95Y-79.0G85X112.25Y-79.0
G05
X111.95Y-105.0G85X112.25Y-105.0
G05
X111.95Y-131.0G85X112.25Y-131.0
G05
X111.95Y-157.0G85X112.25Y-157.0
G05
X120.75Y-79.0G85X121.05Y-79.0
G05
X120.75Y-105.0G85X121.05Y-105.0
G05
X120.75Y-131.0G85X121.05Y-131.0
G05
X120.75Y-157.0G85X121.05Y-157.0
G05
X143.95Y-79.0G85X144.25Y-79.0
G05
X143.95Y-105.0G85X144.25Y-105.0
G05
X143.95Y-131.0G85X144.25Y-131.0
G05
X143.95Y-157.0G85X144.25Y-157.0
G05
X152.75Y-79.0G85X153.05Y-79.0
G05
X152.75Y-105.0G85X153.05Y-105.0
G05
X152.75Y-131.0G85X153.05Y-131.0
G05
X152.75Y-157.0G85X153.05Y-157.0
G05
M30
