M48
; DRILL file KiCad 10.0.3 date 2026-06-06T00:44:34
; FORMAT={-:-/ absolute / metric / decimal}
; #@! TF.CreationDate,2026-06-06T00:44:34+02:00
; #@! TF.GenerationSoftware,Kicad,Pcbnew,10.0.3
; #@! TF.FileFunction,MixedPlating,1,4
FMAT,2
METRIC
; #@! TA.AperFunction,Plated,PTH,ViaDrill
T1C0.300
; #@! TA.AperFunction,Plated,PTH,ComponentDrill
T2C0.800
; #@! TA.AperFunction,Plated,PTH,ComponentDrill
T3C0.900
; #@! TA.AperFunction,Plated,PTH,ComponentDrill
T4C1.000
; #@! TA.AperFunction,Plated,PTH,ComponentDrill
T5C1.100
; #@! TA.AperFunction,Plated,PTH,ComponentDrill
T6C1.200
; #@! TA.AperFunction,Plated,PTH,ComponentDrill
T7C1.400
; #@! TA.AperFunction,Plated,PTH,ComponentDrill
T8C1.500
; #@! TA.AperFunction,Plated,PTH,ComponentDrill
T9C1.600
; #@! TA.AperFunction,Plated,PTH,ComponentDrill
T10C1.800
; #@! TA.AperFunction,NonPlated,NPTH,ComponentDrill
T11C1.600
; #@! TA.AperFunction,NonPlated,NPTH,ComponentDrill
T12C2.100
%
G90
G05
T1
X46.67Y-56.727
X46.67Y-181.48
X49.091Y-120.204
X73.099Y-173.166
X84.77Y-86.9
X87.31Y-117.137
X95.242Y-184.0
X98.555Y-138.678
X106.05Y-143.1
X132.621Y-27.591
X148.338Y-221.156
X152.0Y-198.838
T2
X20.0Y-33.0
X20.0Y-41.0
X27.62Y-41.0
X30.16Y-33.0
X38.0Y-37.0
X38.0Y-39.54
X38.0Y-42.08
X38.0Y-44.62
X44.0Y-51.84
X44.0Y-62.0
X44.0Y-77.84
X44.0Y-88.0
X44.0Y-103.84
X44.0Y-114.0
X44.0Y-129.84
X44.0Y-140.0
X45.62Y-37.0
X45.62Y-39.54
X45.62Y-42.08
X45.62Y-44.62
X50.0Y-65.0
X50.0Y-70.0
X50.0Y-91.0
X50.0Y-96.0
X50.0Y-117.0
X50.0Y-122.0
X50.0Y-143.0
X50.0Y-148.0
X56.0Y-33.0
X56.0Y-41.0
X66.16Y-33.0
X66.16Y-41.0
X70.0Y-37.0
X75.0Y-37.0
X76.0Y-51.84
X76.0Y-62.0
X76.0Y-77.84
X76.0Y-88.0
X76.0Y-103.84
X76.0Y-114.0
X76.0Y-129.84
X76.0Y-140.0
X82.0Y-35.0
X82.0Y-65.0
X82.0Y-70.0
X82.0Y-91.0
X82.0Y-96.0
X82.0Y-117.0
X82.0Y-122.0
X82.0Y-143.0
X82.0Y-148.0
X84.0Y-35.0
X86.0Y-35.0
X100.0Y-33.0
X100.0Y-41.0
X100.0Y-184.0
X108.0Y-51.84
X108.0Y-62.0
X108.0Y-77.84
X108.0Y-88.0
X108.0Y-103.84
X108.0Y-114.0
X108.0Y-129.84
X108.0Y-140.0
X110.16Y-33.0
X110.16Y-41.0
X110.16Y-184.0
X114.0Y-65.0
X114.0Y-70.0
X114.0Y-91.0
X114.0Y-96.0
X114.0Y-117.0
X114.0Y-122.0
X114.0Y-143.0
X114.0Y-148.0
X120.0Y-172.0
X120.0Y-174.54
X120.0Y-177.08
X120.0Y-179.62
X120.0Y-182.16
X120.0Y-184.7
X120.0Y-187.24
X120.0Y-189.78
X120.0Y-192.32
X120.0Y-194.86
X120.0Y-197.4
X120.0Y-199.94
X135.24Y-172.0
X135.24Y-174.54
X135.24Y-177.08
X135.24Y-179.62
X135.24Y-182.16
X135.24Y-184.7
X135.24Y-187.24
X135.24Y-189.78
X135.24Y-192.32
X135.24Y-194.86
X135.24Y-197.4
X135.24Y-199.94
X140.0Y-51.84
X140.0Y-62.0
X140.0Y-77.84
X140.0Y-88.0
X140.0Y-103.84
X140.0Y-114.0
X140.0Y-129.84
X140.0Y-140.0
X146.0Y-65.0
X146.0Y-70.0
X146.0Y-91.0
X146.0Y-96.0
X146.0Y-117.0
X146.0Y-122.0
X146.0Y-143.0
X146.0Y-148.0
X150.0Y-184.0
X152.0Y-55.84
X152.0Y-66.0
X152.0Y-77.84
X152.0Y-88.0
X152.0Y-99.84
X152.0Y-110.0
X152.0Y-121.84
X152.0Y-132.0
X155.0Y-184.0
T3
X160.0Y-63.46
X160.0Y-66.0
X160.0Y-85.46
X160.0Y-88.0
X160.0Y-107.46
X160.0Y-110.0
X160.0Y-129.46
X160.0Y-132.0
T4
X20.0Y-220.0
X22.54Y-220.0
X25.08Y-220.0
X27.62Y-220.0
X28.89Y-172.0
X30.0Y-66.0
X30.0Y-92.0
X30.0Y-118.0
X30.0Y-144.0
X30.16Y-220.0
X31.43Y-172.0
X32.5Y-66.0
X32.5Y-92.0
X32.5Y-118.0
X32.5Y-144.0
X32.7Y-220.0
X33.97Y-172.0
X35.0Y-66.0
X35.0Y-92.0
X35.0Y-118.0
X35.0Y-144.0
X35.24Y-220.0
X36.51Y-172.0
X37.78Y-220.0
X39.05Y-172.0
X40.32Y-220.0
X41.59Y-172.0
X42.86Y-220.0
X44.13Y-172.0
X46.67Y-172.0
X46.67Y-220.0
X49.21Y-220.0
X51.75Y-172.0
X51.75Y-220.0
X54.29Y-172.0
X56.83Y-172.0
X59.37Y-172.0
X61.91Y-172.0
X61.91Y-220.0
X62.0Y-66.0
X62.0Y-92.0
X62.0Y-118.0
X62.0Y-144.0
X64.45Y-172.0
X64.45Y-220.0
X64.5Y-66.0
X64.5Y-92.0
X64.5Y-118.0
X64.5Y-144.0
X66.99Y-172.0
X67.0Y-66.0
X67.0Y-92.0
X67.0Y-118.0
X67.0Y-144.0
X69.53Y-172.0
X74.61Y-172.0
X77.15Y-172.0
X79.69Y-172.0
X82.23Y-172.0
X84.77Y-172.0
X84.77Y-220.0
X87.31Y-172.0
X87.31Y-220.0
X89.85Y-172.0
X92.39Y-172.0
X94.0Y-66.0
X94.0Y-92.0
X94.0Y-118.0
X94.0Y-144.0
X96.5Y-66.0
X96.5Y-92.0
X96.5Y-118.0
X96.5Y-144.0
X99.0Y-66.0
X99.0Y-92.0
X99.0Y-118.0
X99.0Y-144.0
X126.0Y-66.0
X126.0Y-92.0
X126.0Y-118.0
X126.0Y-144.0
X128.5Y-66.0
X128.5Y-92.0
X128.5Y-118.0
X128.5Y-144.0
X131.0Y-66.0
X131.0Y-92.0
X131.0Y-118.0
X131.0Y-144.0
X150.0Y-10.0
X150.0Y-12.54
X150.0Y-15.08
X150.0Y-17.62
X150.0Y-26.0
X150.0Y-28.54
X150.0Y-31.08
X150.0Y-33.62
T5
X10.0Y-66.0
X10.0Y-70.5
X10.0Y-88.0
X10.0Y-92.5
X10.0Y-110.0
X10.0Y-114.5
X10.0Y-132.0
X10.0Y-136.5
X16.5Y-66.0
X16.5Y-70.5
X16.5Y-88.0
X16.5Y-92.5
X16.5Y-110.0
X16.5Y-114.5
X16.5Y-132.0
X16.5Y-136.5
X120.0Y-26.0
X130.16Y-26.0
T6
X86.0Y-14.0
T7
X14.7Y-14.0
X17.0Y-11.5
X17.0Y-23.7
X22.0Y-14.0
X27.0Y-11.5
X27.0Y-23.7
X29.3Y-14.0
X44.7Y-14.0
X47.0Y-11.5
X47.0Y-23.7
X52.0Y-14.0
X57.0Y-11.5
X57.0Y-23.7
X59.3Y-14.0
T8
X79.9Y-35.0
X88.1Y-35.0
T9
X80.92Y-19.72
X91.08Y-19.72
T11
X82.82Y-26.07
T12
X89.81Y-15.91
T4
X114.0Y-13.0G85X114.0Y-15.0
G05
X116.0Y-18.7G85X118.0Y-18.7
G05
X120.0Y-13.0G85X120.0Y-15.0
G05
T10
X27.95Y-59.0G85X28.25Y-59.0
G05
X27.95Y-85.0G85X28.25Y-85.0
G05
X27.95Y-111.0G85X28.25Y-111.0
G05
X27.95Y-137.0G85X28.25Y-137.0
G05
X36.75Y-59.0G85X37.05Y-59.0
G05
X36.75Y-85.0G85X37.05Y-85.0
G05
X36.75Y-111.0G85X37.05Y-111.0
G05
X36.75Y-137.0G85X37.05Y-137.0
G05
X59.95Y-59.0G85X60.25Y-59.0
G05
X59.95Y-85.0G85X60.25Y-85.0
G05
X59.95Y-111.0G85X60.25Y-111.0
G05
X59.95Y-137.0G85X60.25Y-137.0
G05
X68.75Y-59.0G85X69.05Y-59.0
G05
X68.75Y-85.0G85X69.05Y-85.0
G05
X68.75Y-111.0G85X69.05Y-111.0
G05
X68.75Y-137.0G85X69.05Y-137.0
G05
X91.95Y-59.0G85X92.25Y-59.0
G05
X91.95Y-85.0G85X92.25Y-85.0
G05
X91.95Y-111.0G85X92.25Y-111.0
G05
X91.95Y-137.0G85X92.25Y-137.0
G05
X100.75Y-59.0G85X101.05Y-59.0
G05
X100.75Y-85.0G85X101.05Y-85.0
G05
X100.75Y-111.0G85X101.05Y-111.0
G05
X100.75Y-137.0G85X101.05Y-137.0
G05
X123.95Y-59.0G85X124.25Y-59.0
G05
X123.95Y-85.0G85X124.25Y-85.0
G05
X123.95Y-111.0G85X124.25Y-111.0
G05
X123.95Y-137.0G85X124.25Y-137.0
G05
X132.75Y-59.0G85X133.05Y-59.0
G05
X132.75Y-85.0G85X133.05Y-85.0
G05
X132.75Y-111.0G85X133.05Y-111.0
G05
X132.75Y-137.0G85X133.05Y-137.0
G05
M30
