%TF.GenerationSoftware,KiCad,Pcbnew,10.0.3*%
%TF.CreationDate,2026-06-06T00:10:00+02:00*%
%TF.ProjectId,SysEx_Patcher,53797345-785f-4506-9174-636865722e6b,rev?*%
%TF.SameCoordinates,Original*%
%TF.FileFunction,Copper,L2,Inr*%
%TF.FilePolarity,Positive*%
%FSLAX46Y46*%
G04 Gerber Fmt 4.6, Leading zero omitted, Abs format (unit mm)*
G04 Created by KiCad (PCBNEW 10.0.3) date 2026-06-06 00:10:00*
%MOMM*%
%LPD*%
G01*
G04 APERTURE LIST*
G04 Aperture macros list*
%AMRoundRect*
0 Rectangle with rounded corners*
0 $1 Rounding radius*
0 $2 $3 $4 $5 $6 $7 $8 $9 X,Y pos of 4 corners*
0 Add a 4 corners polygon primitive as box body*
4,1,4,$2,$3,$4,$5,$6,$7,$8,$9,$2,$3,0*
0 Add four circle primitives for the rounded corners*
1,1,$1+$1,$2,$3*
1,1,$1+$1,$4,$5*
1,1,$1+$1,$6,$7*
1,1,$1+$1,$8,$9*
0 Add four rect primitives between the rounded corners*
20,1,$1+$1,$2,$3,$4,$5,0*
20,1,$1+$1,$4,$5,$6,$7,0*
20,1,$1+$1,$6,$7,$8,$9,0*
20,1,$1+$1,$8,$9,$2,$3,0*%
G04 Aperture macros list end*
%TA.AperFunction,ComponentPad*%
%ADD10C,1.600000*%
%TD*%
%TA.AperFunction,ComponentPad*%
%ADD11R,1.800000X1.800000*%
%TD*%
%TA.AperFunction,ComponentPad*%
%ADD12C,1.800000*%
%TD*%
%TA.AperFunction,ComponentPad*%
%ADD13RoundRect,0.750000X-1.250000X-0.750000X1.250000X-0.750000X1.250000X0.750000X-1.250000X0.750000X0*%
%TD*%
%TA.AperFunction,ComponentPad*%
%ADD14R,1.700000X1.700000*%
%TD*%
%TA.AperFunction,ComponentPad*%
%ADD15C,1.700000*%
%TD*%
%TA.AperFunction,ComponentPad*%
%ADD16RoundRect,0.250000X-0.550000X-0.550000X0.550000X-0.550000X0.550000X0.550000X-0.550000X0.550000X0*%
%TD*%
%TA.AperFunction,ComponentPad*%
%ADD17C,2.000000*%
%TD*%
%TA.AperFunction,ComponentPad*%
%ADD18RoundRect,0.249999X-0.850001X-0.850001X0.850001X-0.850001X0.850001X0.850001X-0.850001X0.850001X0*%
%TD*%
%TA.AperFunction,ComponentPad*%
%ADD19C,2.200000*%
%TD*%
%TA.AperFunction,ComponentPad*%
%ADD20O,2.200000X3.500000*%
%TD*%
%TA.AperFunction,ComponentPad*%
%ADD21R,1.500000X2.500000*%
%TD*%
%TA.AperFunction,ComponentPad*%
%ADD22O,1.500000X2.500000*%
%TD*%
%TA.AperFunction,ComponentPad*%
%ADD23R,3.500000X3.500000*%
%TD*%
%TA.AperFunction,ComponentPad*%
%ADD24RoundRect,0.750000X-0.750000X-1.000000X0.750000X-1.000000X0.750000X1.000000X-0.750000X1.000000X0*%
%TD*%
%TA.AperFunction,ComponentPad*%
%ADD25RoundRect,0.875000X-0.875000X-0.875000X0.875000X-0.875000X0.875000X0.875000X-0.875000X0.875000X0*%
%TD*%
%TA.AperFunction,ViaPad*%
%ADD26C,0.600000*%
%TD*%
%TA.AperFunction,Conductor*%
%ADD27C,0.200000*%
%TD*%
G04 APERTURE END LIST*
D10*
%TO.N,D9*%
%TO.C,R9*%
X150000000Y-112000000D03*
%TO.N,LED4_A*%
X150000000Y-101840000D03*
%TD*%
D11*
%TO.N,GND*%
%TO.C,D4*%
X158000000Y-72000000D03*
D12*
%TO.N,LED2_A*%
X158000000Y-69460000D03*
%TD*%
D10*
%TO.N,A5*%
%TO.C,C3*%
X82000000Y-56000000D03*
%TO.N,GND*%
X82000000Y-51000000D03*
%TD*%
D11*
%TO.N,+5V*%
%TO.C,RV12*%
X126000000Y-104000000D03*
D12*
%TO.N,POT12_W*%
X128500000Y-104000000D03*
%TO.N,GND*%
X131000000Y-104000000D03*
D13*
%TO.N,N/C*%
X124100000Y-97000000D03*
X132900000Y-97000000D03*
%TD*%
D10*
%TO.N,A4*%
%TO.C,C7*%
X82000000Y-82000000D03*
%TO.N,GND*%
X82000000Y-77000000D03*
%TD*%
%TO.N,POT7_W*%
%TO.C,R16*%
X108000000Y-74000000D03*
%TO.N,A9*%
X108000000Y-63840000D03*
%TD*%
D11*
%TO.N,+5V*%
%TO.C,RV6*%
X62000000Y-78000000D03*
D12*
%TO.N,POT6_W*%
X64500000Y-78000000D03*
%TO.N,GND*%
X67000000Y-78000000D03*
D13*
%TO.N,N/C*%
X60100000Y-71000000D03*
X68900000Y-71000000D03*
%TD*%
D10*
%TO.N,A8*%
%TO.C,C4*%
X114000000Y-56000000D03*
%TO.N,GND*%
X114000000Y-51000000D03*
%TD*%
%TO.N,POT11_W*%
%TO.C,R20*%
X108000000Y-100000000D03*
%TO.N,A10*%
X108000000Y-89840000D03*
%TD*%
D14*
%TO.N,N/C*%
%TO.C,J2*%
X44000000Y-10000000D03*
D15*
%TO.N,GND*%
X44000000Y-12540000D03*
%TO.N,N/C*%
X44000000Y-15080000D03*
%TO.N,MIDI_OUT_4*%
X44000000Y-17620000D03*
%TO.N,MIDI_OUT_5*%
X44000000Y-20160000D03*
%TD*%
D10*
%TO.N,A10*%
%TO.C,C12*%
X114000000Y-108000000D03*
%TO.N,GND*%
X114000000Y-103000000D03*
%TD*%
D11*
%TO.N,+5V*%
%TO.C,RV15*%
X94000000Y-130000000D03*
D12*
%TO.N,POT15_W*%
X96500000Y-130000000D03*
%TO.N,GND*%
X99000000Y-130000000D03*
D13*
%TO.N,N/C*%
X92100000Y-123000000D03*
X100900000Y-123000000D03*
%TD*%
D10*
%TO.N,POT6_W*%
%TO.C,R15*%
X76000000Y-74000000D03*
%TO.N,A4*%
X76000000Y-63840000D03*
%TD*%
%TO.N,A12*%
%TO.C,C5*%
X146000000Y-56000000D03*
%TO.N,GND*%
X146000000Y-51000000D03*
%TD*%
%TO.N,MIDI_OUT_4*%
%TO.C,R2*%
X38000000Y-27000000D03*
%TO.N,+5V*%
X48160000Y-27000000D03*
%TD*%
D11*
%TO.N,+5V*%
%TO.C,RV9*%
X30000000Y-104000000D03*
D12*
%TO.N,POT9_W*%
X32500000Y-104000000D03*
%TO.N,GND*%
X35000000Y-104000000D03*
D13*
%TO.N,N/C*%
X28100000Y-97000000D03*
X36900000Y-97000000D03*
%TD*%
D14*
%TO.N,D1_TX*%
%TO.C,JMD3*%
X61910000Y-198000000D03*
D15*
%TO.N,D0_RX*%
X64450000Y-198000000D03*
%TD*%
D14*
%TO.N,N/C*%
%TO.C,JMA1*%
X28890000Y-150000000D03*
D15*
X31430000Y-150000000D03*
X33970000Y-150000000D03*
X36510000Y-150000000D03*
%TO.N,+5V*%
X39050000Y-150000000D03*
%TO.N,GND*%
X41590000Y-150000000D03*
X44130000Y-150000000D03*
%TO.N,VIN_RAW*%
X46670000Y-150000000D03*
%TD*%
D10*
%TO.N,POT3_W*%
%TO.C,R12*%
X108000000Y-48000000D03*
%TO.N,A8*%
X108000000Y-37840000D03*
%TD*%
%TO.N,MUX_CH0*%
%TO.C,C17*%
X146000000Y-134000000D03*
%TO.N,GND*%
X146000000Y-129000000D03*
%TD*%
%TO.N,MIDI_IN_4*%
%TO.C,R1*%
X22000000Y-27000000D03*
%TO.N,OPTO_ANODE*%
X32160000Y-27000000D03*
%TD*%
%TO.N,POT12_W*%
%TO.C,R21*%
X140000000Y-100000000D03*
%TO.N,A14*%
X140000000Y-89840000D03*
%TD*%
%TO.N,OPTO_VO*%
%TO.C,R5*%
X78000000Y-27000000D03*
%TO.N,+5V*%
X88160000Y-27000000D03*
%TD*%
D11*
%TO.N,+5V*%
%TO.C,RV16*%
X126000000Y-130000000D03*
D12*
%TO.N,POT16_W*%
X128500000Y-130000000D03*
%TO.N,GND*%
X131000000Y-130000000D03*
D13*
%TO.N,N/C*%
X124100000Y-123000000D03*
X132900000Y-123000000D03*
%TD*%
D11*
%TO.N,+5V*%
%TO.C,RV13*%
X30000000Y-130000000D03*
D12*
%TO.N,POT13_W*%
X32500000Y-130000000D03*
%TO.N,GND*%
X35000000Y-130000000D03*
D13*
%TO.N,N/C*%
X28100000Y-123000000D03*
X36900000Y-123000000D03*
%TD*%
D16*
%TO.N,A15*%
%TO.C,U2*%
X120000000Y-150000000D03*
D10*
%TO.N,MUX_CH7*%
X120000000Y-152540000D03*
%TO.N,MUX_CH6*%
X120000000Y-155080000D03*
%TO.N,MUX_CH5*%
X120000000Y-157620000D03*
%TO.N,MUX_CH4*%
X120000000Y-160160000D03*
%TO.N,MUX_CH3*%
X120000000Y-162700000D03*
%TO.N,MUX_CH2*%
X120000000Y-165240000D03*
%TO.N,MUX_CH1*%
X120000000Y-167780000D03*
%TO.N,MUX_CH0*%
X120000000Y-170320000D03*
%TO.N,D2*%
X120000000Y-172860000D03*
%TO.N,D3*%
X120000000Y-175400000D03*
%TO.N,GND*%
X120000000Y-177940000D03*
%TO.N,D13*%
X135240000Y-177940000D03*
%TO.N,D4*%
X135240000Y-175400000D03*
%TO.N,GND*%
X135240000Y-172860000D03*
%TO.N,MUX_CH15*%
X135240000Y-170320000D03*
%TO.N,MUX_CH14*%
X135240000Y-167780000D03*
%TO.N,MUX_CH13*%
X135240000Y-165240000D03*
%TO.N,MUX_CH12*%
X135240000Y-162700000D03*
%TO.N,MUX_CH11*%
X135240000Y-160160000D03*
%TO.N,MUX_CH10*%
X135240000Y-157620000D03*
%TO.N,MUX_CH9*%
X135240000Y-155080000D03*
%TO.N,MUX_CH8*%
X135240000Y-152540000D03*
%TO.N,+5V*%
X135240000Y-150000000D03*
%TD*%
%TO.N,A3*%
%TO.C,C14*%
X50000000Y-134000000D03*
%TO.N,GND*%
X50000000Y-129000000D03*
%TD*%
%TO.N,JACK_W*%
%TO.C,R27*%
X100000000Y-162000000D03*
%TO.N,MUX_CH1*%
X110160000Y-162000000D03*
%TD*%
%TO.N,A7*%
%TO.C,C15*%
X82000000Y-134000000D03*
%TO.N,GND*%
X82000000Y-129000000D03*
%TD*%
D11*
%TO.N,+5V*%
%TO.C,RV4*%
X126000000Y-52000000D03*
D12*
%TO.N,POT4_W*%
X128500000Y-52000000D03*
%TO.N,GND*%
X131000000Y-52000000D03*
D13*
%TO.N,N/C*%
X124100000Y-45000000D03*
X132900000Y-45000000D03*
%TD*%
D10*
%TO.N,OPTO_VB*%
%TO.C,R4*%
X78000000Y-35000000D03*
%TO.N,GND*%
X88160000Y-35000000D03*
%TD*%
%TO.N,POT10_W*%
%TO.C,R19*%
X76000000Y-100000000D03*
%TO.N,A6*%
X76000000Y-89840000D03*
%TD*%
%TO.N,A14*%
%TO.C,C13*%
X146000000Y-108000000D03*
%TO.N,GND*%
X146000000Y-103000000D03*
%TD*%
%TO.N,POT8_W*%
%TO.C,R17*%
X140000000Y-74000000D03*
%TO.N,A13*%
X140000000Y-63840000D03*
%TD*%
%TO.N,POT5_W*%
%TO.C,R14*%
X44000000Y-74000000D03*
%TO.N,A1*%
X44000000Y-63840000D03*
%TD*%
%TO.N,D11*%
%TO.C,R7*%
X150000000Y-72000000D03*
%TO.N,LED2_A*%
X150000000Y-61840000D03*
%TD*%
D11*
%TO.N,+5V*%
%TO.C,RV11*%
X94000000Y-104000000D03*
D12*
%TO.N,POT11_W*%
X96500000Y-104000000D03*
%TO.N,GND*%
X99000000Y-104000000D03*
D13*
%TO.N,N/C*%
X92100000Y-97000000D03*
X100900000Y-97000000D03*
%TD*%
D10*
%TO.N,MIDI_OUT_5*%
%TO.C,R3*%
X38000000Y-35000000D03*
%TO.N,D1_TX*%
X48160000Y-35000000D03*
%TD*%
%TO.N,A1*%
%TO.C,C6*%
X50000000Y-82000000D03*
%TO.N,GND*%
X50000000Y-77000000D03*
%TD*%
%TO.N,D10*%
%TO.C,R8*%
X150000000Y-92000000D03*
%TO.N,LED3_A*%
X150000000Y-81840000D03*
%TD*%
%TO.N,POT2_W*%
%TO.C,R11*%
X76000000Y-48000000D03*
%TO.N,A5*%
X76000000Y-37840000D03*
%TD*%
D14*
%TO.N,JACK_W*%
%TO.C,J10*%
X78000000Y-10000000D03*
D15*
%TO.N,+5V*%
X78000000Y-12540000D03*
%TO.N,GND*%
X78000000Y-15080000D03*
%TD*%
D14*
%TO.N,D20_SDA*%
%TO.C,JMD4*%
X84770000Y-198000000D03*
D15*
%TO.N,D21_SCL*%
X87310000Y-198000000D03*
%TD*%
D10*
%TO.N,POT16_W*%
%TO.C,R25*%
X140000000Y-126000000D03*
%TO.N,MUX_CH0*%
X140000000Y-115840000D03*
%TD*%
%TO.N,A6*%
%TO.C,C11*%
X82000000Y-108000000D03*
%TO.N,GND*%
X82000000Y-103000000D03*
%TD*%
%TO.N,A2*%
%TO.C,C10*%
X50000000Y-108000000D03*
%TO.N,GND*%
X50000000Y-103000000D03*
%TD*%
%TO.N,POT1_W*%
%TO.C,R10*%
X44000000Y-48000000D03*
%TO.N,A0*%
X44000000Y-37840000D03*
%TD*%
%TO.N,POT13_W*%
%TO.C,R22*%
X44000000Y-126000000D03*
%TO.N,A3*%
X44000000Y-115840000D03*
%TD*%
D16*
%TO.N,N/C*%
%TO.C,U1*%
X58000000Y-23000000D03*
D10*
%TO.N,OPTO_ANODE*%
X58000000Y-25540000D03*
%TO.N,OPTO_CATHODE*%
X58000000Y-28080000D03*
%TO.N,N/C*%
X58000000Y-30620000D03*
%TO.N,GND*%
X65620000Y-30620000D03*
%TO.N,OPTO_VO*%
X65620000Y-28080000D03*
%TO.N,OPTO_VB*%
X65620000Y-25540000D03*
%TO.N,+5V*%
X65620000Y-23000000D03*
%TD*%
D17*
%TO.N,D8*%
%TO.C,SW3*%
X10000000Y-72000000D03*
X16500000Y-72000000D03*
%TO.N,GND*%
X10000000Y-76500000D03*
X16500000Y-76500000D03*
%TD*%
D10*
%TO.N,POT15_W*%
%TO.C,R24*%
X108000000Y-126000000D03*
%TO.N,A11*%
X108000000Y-115840000D03*
%TD*%
D18*
%TO.N,+5V*%
%TO.C,D2D*%
X150000000Y-22000000D03*
D19*
%TO.N,VIN_RAW*%
X160160000Y-22000000D03*
%TD*%
D11*
%TO.N,+5V*%
%TO.C,RV10*%
X62000000Y-104000000D03*
D12*
%TO.N,POT10_W*%
X64500000Y-104000000D03*
%TO.N,GND*%
X67000000Y-104000000D03*
D13*
%TO.N,N/C*%
X60100000Y-97000000D03*
X68900000Y-97000000D03*
%TD*%
D10*
%TO.N,MUX_CH1*%
%TO.C,C18*%
X150000000Y-162000000D03*
%TO.N,GND*%
X155000000Y-162000000D03*
%TD*%
D17*
%TO.N,D7*%
%TO.C,SW2*%
X10000000Y-52000000D03*
X16500000Y-52000000D03*
%TO.N,GND*%
X10000000Y-56500000D03*
X16500000Y-56500000D03*
%TD*%
%TO.N,D6*%
%TO.C,SW4*%
X10000000Y-92000000D03*
X16500000Y-92000000D03*
%TO.N,GND*%
X10000000Y-96500000D03*
X16500000Y-96500000D03*
%TD*%
D10*
%TO.N,POT9_W*%
%TO.C,R18*%
X44000000Y-100000000D03*
%TO.N,A2*%
X44000000Y-89840000D03*
%TD*%
D11*
%TO.N,GND*%
%TO.C,D3*%
X158000000Y-52000000D03*
D12*
%TO.N,LED1_A*%
X158000000Y-49460000D03*
%TD*%
D14*
%TO.N,A0*%
%TO.C,JMA2*%
X51750000Y-150000000D03*
D15*
%TO.N,A1*%
X54290000Y-150000000D03*
%TO.N,A2*%
X56830000Y-150000000D03*
%TO.N,A3*%
X59370000Y-150000000D03*
%TO.N,A4*%
X61910000Y-150000000D03*
%TO.N,A5*%
X64450000Y-150000000D03*
%TO.N,A6*%
X66990000Y-150000000D03*
%TO.N,A7*%
X69530000Y-150000000D03*
%TD*%
D20*
%TO.N,*%
%TO.C,SW1*%
X97900000Y-28000000D03*
X106100000Y-28000000D03*
D21*
%TO.N,OPTO_VO*%
X100000000Y-28000000D03*
D22*
%TO.N,D0_RX*%
X102000000Y-28000000D03*
%TO.N,N/C*%
X104000000Y-28000000D03*
%TD*%
D11*
%TO.N,+5V*%
%TO.C,RV2*%
X62000000Y-52000000D03*
D12*
%TO.N,POT2_W*%
X64500000Y-52000000D03*
%TO.N,GND*%
X67000000Y-52000000D03*
D13*
%TO.N,N/C*%
X60100000Y-45000000D03*
X68900000Y-45000000D03*
%TD*%
D23*
%TO.N,VIN_RAW*%
%TO.C,J3*%
X150000000Y-12000000D03*
D24*
%TO.N,GND*%
X144000000Y-12000000D03*
D25*
%TO.N,N/C*%
X147000000Y-16700000D03*
%TD*%
D10*
%TO.N,D12*%
%TO.C,R6*%
X150000000Y-52000000D03*
%TO.N,LED1_A*%
X150000000Y-41840000D03*
%TD*%
D11*
%TO.N,+5V*%
%TO.C,RV14*%
X62000000Y-130000000D03*
D12*
%TO.N,POT14_W*%
X64500000Y-130000000D03*
%TO.N,GND*%
X67000000Y-130000000D03*
D13*
%TO.N,N/C*%
X60100000Y-123000000D03*
X68900000Y-123000000D03*
%TD*%
D10*
%TO.N,A11*%
%TO.C,C16*%
X114000000Y-134000000D03*
%TO.N,GND*%
X114000000Y-129000000D03*
%TD*%
%TO.N,POT4_W*%
%TO.C,R13*%
X140000000Y-48000000D03*
%TO.N,A12*%
X140000000Y-37840000D03*
%TD*%
D11*
%TO.N,GND*%
%TO.C,D5*%
X158000000Y-92000000D03*
D12*
%TO.N,LED3_A*%
X158000000Y-89460000D03*
%TD*%
D16*
%TO.N,OPTO_ANODE*%
%TO.C,D1*%
X22000000Y-35000000D03*
D10*
%TO.N,OPTO_CATHODE*%
X29620000Y-35000000D03*
%TD*%
D14*
%TO.N,D2*%
%TO.C,JMD1*%
X20000000Y-198000000D03*
D15*
%TO.N,D3*%
X22540000Y-198000000D03*
%TO.N,D4*%
X25080000Y-198000000D03*
%TO.N,GND*%
X27620000Y-198000000D03*
%TO.N,D13*%
X30160000Y-198000000D03*
%TO.N,D5*%
X32700000Y-198000000D03*
%TO.N,D6*%
X35240000Y-198000000D03*
%TO.N,D7*%
X37780000Y-198000000D03*
%TO.N,D8*%
X40320000Y-198000000D03*
%TO.N,D9*%
X42860000Y-198000000D03*
%TD*%
D14*
%TO.N,N/C*%
%TO.C,J1*%
X22000000Y-10000000D03*
D15*
%TO.N,GND*%
X22000000Y-12540000D03*
%TO.N,N/C*%
X22000000Y-15080000D03*
%TO.N,MIDI_IN_4*%
X22000000Y-17620000D03*
%TO.N,OPTO_CATHODE*%
X22000000Y-20160000D03*
%TD*%
D11*
%TO.N,GND*%
%TO.C,D6*%
X158000000Y-112000000D03*
D12*
%TO.N,LED4_A*%
X158000000Y-109460000D03*
%TD*%
D10*
%TO.N,+5V*%
%TO.C,C1*%
X92000000Y-31000000D03*
%TO.N,GND*%
X97000000Y-31000000D03*
%TD*%
D11*
%TO.N,+5V*%
%TO.C,RV3*%
X94000000Y-52000000D03*
D12*
%TO.N,POT3_W*%
X96500000Y-52000000D03*
%TO.N,GND*%
X99000000Y-52000000D03*
D13*
%TO.N,N/C*%
X92100000Y-45000000D03*
X100900000Y-45000000D03*
%TD*%
D14*
%TO.N,GND*%
%TO.C,J5*%
X118000000Y-10000000D03*
D15*
%TO.N,+5V*%
X118000000Y-12540000D03*
%TO.N,D21_SCL*%
X118000000Y-15080000D03*
%TO.N,D20_SDA*%
X118000000Y-17620000D03*
%TD*%
D17*
%TO.N,D5*%
%TO.C,SW5*%
X10000000Y-112000000D03*
X16500000Y-112000000D03*
%TO.N,GND*%
X10000000Y-116500000D03*
X16500000Y-116500000D03*
%TD*%
D11*
%TO.N,+5V*%
%TO.C,RV7*%
X94000000Y-78000000D03*
D12*
%TO.N,POT7_W*%
X96500000Y-78000000D03*
%TO.N,GND*%
X99000000Y-78000000D03*
D13*
%TO.N,N/C*%
X92100000Y-71000000D03*
X100900000Y-71000000D03*
%TD*%
D11*
%TO.N,+5V*%
%TO.C,RV1*%
X30000000Y-52000000D03*
D12*
%TO.N,POT1_W*%
X32500000Y-52000000D03*
%TO.N,GND*%
X35000000Y-52000000D03*
D13*
%TO.N,N/C*%
X28100000Y-45000000D03*
X36900000Y-45000000D03*
%TD*%
D14*
%TO.N,A8*%
%TO.C,JMA3*%
X74610000Y-150000000D03*
D15*
%TO.N,A9*%
X77150000Y-150000000D03*
%TO.N,A10*%
X79690000Y-150000000D03*
%TO.N,A11*%
X82230000Y-150000000D03*
%TO.N,A12*%
X84770000Y-150000000D03*
%TO.N,A13*%
X87310000Y-150000000D03*
%TO.N,A14*%
X89850000Y-150000000D03*
%TO.N,A15*%
X92390000Y-150000000D03*
%TD*%
D10*
%TO.N,A0*%
%TO.C,C2*%
X50000000Y-56000000D03*
%TO.N,GND*%
X50000000Y-51000000D03*
%TD*%
D11*
%TO.N,+5V*%
%TO.C,RV8*%
X126000000Y-78000000D03*
D12*
%TO.N,POT8_W*%
X128500000Y-78000000D03*
%TO.N,GND*%
X131000000Y-78000000D03*
D13*
%TO.N,N/C*%
X124100000Y-71000000D03*
X132900000Y-71000000D03*
%TD*%
D11*
%TO.N,+5V*%
%TO.C,RV5*%
X30000000Y-78000000D03*
D12*
%TO.N,POT5_W*%
X32500000Y-78000000D03*
%TO.N,GND*%
X35000000Y-78000000D03*
D13*
%TO.N,N/C*%
X28100000Y-71000000D03*
X36900000Y-71000000D03*
%TD*%
D14*
%TO.N,GND*%
%TO.C,J4*%
X132000000Y-22000000D03*
D15*
%TO.N,+5V*%
X132000000Y-24540000D03*
%TO.N,GND*%
X132000000Y-27080000D03*
%TO.N,VIN_RAW*%
X132000000Y-29620000D03*
%TD*%
D10*
%TO.N,A13*%
%TO.C,C9*%
X146000000Y-82000000D03*
%TO.N,GND*%
X146000000Y-77000000D03*
%TD*%
%TO.N,POT14_W*%
%TO.C,R23*%
X76000000Y-126000000D03*
%TO.N,A7*%
X76000000Y-115840000D03*
%TD*%
%TO.N,A9*%
%TO.C,C8*%
X114000000Y-82000000D03*
%TO.N,GND*%
X114000000Y-77000000D03*
%TD*%
D14*
%TO.N,D10*%
%TO.C,JMD2*%
X46670000Y-198000000D03*
D15*
%TO.N,D11*%
X49210000Y-198000000D03*
%TO.N,D12*%
X51750000Y-198000000D03*
%TD*%
D26*
%TO.N,JACK_W*%
X96279000Y-162000000D03*
%TO.N,VIN_RAW*%
X46102000Y-41566500D03*
%TO.N,A8*%
X83851000Y-56000000D03*
%TO.N,A12*%
X84770000Y-78958400D03*
%TO.N,A9*%
X111645100Y-107599400D03*
%TO.N,D12*%
X52071000Y-53500000D03*
%TO.N,D11*%
X46850300Y-117032300D03*
%TO.N,D10*%
X148888300Y-174130200D03*
%TO.N,D9*%
X50480000Y-164761800D03*
%TD*%
%TO.N,OPTO_CATHODE*%
D27*
X53128400Y-32951600D02*
X31668400Y-32951600D01*
X58000000Y-28080000D02*
X53128400Y-32951600D01*
X31668400Y-32951600D02*
X29620000Y-35000000D01*
%TO.N,JACK_W*%
X100000000Y-162000000D02*
X96279000Y-162000000D01*
%TO.N,+5V*%
X134540000Y-22000000D02*
X132000000Y-24540000D01*
X94000000Y-78000000D02*
X92798300Y-78000000D01*
X31969400Y-53218300D02*
X33040300Y-53218300D01*
X63201700Y-78450600D02*
X64352500Y-79601400D01*
X95201700Y-78000000D02*
X95201700Y-78450600D01*
X88160000Y-28105000D02*
X70725000Y-28105000D01*
X126000000Y-78000000D02*
X124798300Y-78000000D01*
X132000000Y-24540000D02*
X120000000Y-12540000D01*
X63201700Y-78000000D02*
X63201700Y-78450600D01*
X48160000Y-27000000D02*
X50826100Y-24333900D01*
X88160000Y-28105000D02*
X88160000Y-27000000D01*
X89105000Y-28105000D02*
X88160000Y-28105000D01*
X31201700Y-52450600D02*
X31969400Y-53218300D01*
X94000000Y-78000000D02*
X95201700Y-78000000D01*
X120000000Y-12540000D02*
X118000000Y-12540000D01*
X64352500Y-79601400D02*
X91196900Y-79601400D01*
X65620000Y-23000000D02*
X76080000Y-12540000D01*
X70725000Y-28105000D02*
X65620000Y-23000000D01*
X62000000Y-52000000D02*
X60798300Y-52000000D01*
X60691100Y-52107200D02*
X60798300Y-52000000D01*
X123596600Y-79201700D02*
X124798300Y-78000000D01*
X62000000Y-78000000D02*
X63201700Y-78000000D01*
X91196900Y-79601400D02*
X92798300Y-78000000D01*
X95201700Y-78450600D02*
X95952800Y-79201700D01*
X64286100Y-24333900D02*
X65620000Y-23000000D01*
X30000000Y-52000000D02*
X31201700Y-52000000D01*
X95952800Y-79201700D02*
X123596600Y-79201700D01*
X50826100Y-24333900D02*
X64286100Y-24333900D01*
X34512600Y-50775300D02*
X47615800Y-50775300D01*
X31201700Y-52000000D02*
X31201700Y-52450600D01*
X76080000Y-12540000D02*
X78000000Y-12540000D01*
X150000000Y-22000000D02*
X134540000Y-22000000D01*
X33040300Y-53218300D02*
X33798300Y-52460300D01*
X47615800Y-50775300D02*
X48947700Y-52107200D01*
X33798300Y-52460300D02*
X33798300Y-51489600D01*
X92000000Y-31000000D02*
X89105000Y-28105000D01*
X33798300Y-51489600D02*
X34512600Y-50775300D01*
X48947700Y-52107200D02*
X60691100Y-52107200D01*
%TO.N,VIN_RAW*%
X120053500Y-41566500D02*
X46102000Y-41566500D01*
X152540000Y-29620000D02*
X160160000Y-22000000D01*
X152051700Y-13891700D02*
X152051700Y-12000000D01*
X150000000Y-12000000D02*
X152051700Y-12000000D01*
X132000000Y-29620000D02*
X120053500Y-41566500D01*
X160160000Y-22000000D02*
X152051700Y-13891700D01*
X132000000Y-29620000D02*
X152540000Y-29620000D01*
%TO.N,OPTO_ANODE*%
X28875000Y-28125000D02*
X32160000Y-28125000D01*
X22000000Y-35000000D02*
X28875000Y-28125000D01*
X32160000Y-28125000D02*
X32160000Y-27000000D01*
X55415000Y-28125000D02*
X58000000Y-25540000D01*
X32160000Y-28125000D02*
X55415000Y-28125000D01*
%TO.N,OPTO_VO*%
X100000000Y-26448300D02*
X99442100Y-25890400D01*
X99442100Y-25890400D02*
X79109600Y-25890400D01*
X79109600Y-25890400D02*
X78000000Y-27000000D01*
X100000000Y-28000000D02*
X100000000Y-26448300D01*
%TO.N,OPTO_VB*%
X78000000Y-35000000D02*
X75080000Y-35000000D01*
X75080000Y-35000000D02*
X65620000Y-25540000D01*
%TO.N,D7*%
X16500000Y-52000000D02*
X10000000Y-52000000D01*
%TO.N,D8*%
X16500000Y-72000000D02*
X10000000Y-72000000D01*
%TO.N,D6*%
X16500000Y-92000000D02*
X10000000Y-92000000D01*
%TO.N,D5*%
X16500000Y-112000000D02*
X10000000Y-112000000D01*
%TO.N,POT1_W*%
X44000000Y-48000000D02*
X36500000Y-48000000D01*
X36500000Y-48000000D02*
X32500000Y-52000000D01*
%TO.N,POT2_W*%
X68500000Y-48000000D02*
X64500000Y-52000000D01*
X76000000Y-48000000D02*
X68500000Y-48000000D01*
%TO.N,POT3_W*%
X108000000Y-48000000D02*
X100500000Y-48000000D01*
X100500000Y-48000000D02*
X96500000Y-52000000D01*
%TO.N,A8*%
X114000000Y-56000000D02*
X83851000Y-56000000D01*
%TO.N,POT4_W*%
X132500000Y-48000000D02*
X128500000Y-52000000D01*
X140000000Y-48000000D02*
X132500000Y-48000000D01*
%TO.N,A12*%
X106761300Y-61307700D02*
X140692300Y-61307700D01*
X84770000Y-78958400D02*
X89110600Y-78958400D01*
X89110600Y-78958400D02*
X106761300Y-61307700D01*
X140692300Y-61307700D02*
X146000000Y-56000000D01*
%TO.N,POT5_W*%
X36500000Y-74000000D02*
X32500000Y-78000000D01*
X44000000Y-74000000D02*
X36500000Y-74000000D01*
%TO.N,A1*%
X50000000Y-82000000D02*
X46539300Y-78539300D01*
X46539300Y-66379300D02*
X44000000Y-63840000D01*
X46539300Y-78539300D02*
X46539300Y-66379300D01*
%TO.N,POT6_W*%
X76000000Y-74000000D02*
X68500000Y-74000000D01*
X68500000Y-74000000D02*
X64500000Y-78000000D01*
%TO.N,POT7_W*%
X100500000Y-74000000D02*
X96500000Y-78000000D01*
X108000000Y-74000000D02*
X100500000Y-74000000D01*
%TO.N,A9*%
X77150000Y-150000000D02*
X77150000Y-142094500D01*
X77150000Y-142094500D02*
X111645100Y-107599400D01*
%TO.N,POT8_W*%
X140000000Y-74000000D02*
X132500000Y-74000000D01*
X132500000Y-74000000D02*
X128500000Y-78000000D01*
%TO.N,A13*%
X87310000Y-150000000D02*
X146000000Y-91310000D01*
X146000000Y-91310000D02*
X146000000Y-82000000D01*
%TO.N,POT9_W*%
X36500000Y-100000000D02*
X32500000Y-104000000D01*
X44000000Y-100000000D02*
X36500000Y-100000000D01*
%TO.N,A2*%
X46539300Y-92379300D02*
X44000000Y-89840000D01*
X50000000Y-108000000D02*
X46539300Y-104539300D01*
X46539300Y-104539300D02*
X46539300Y-92379300D01*
%TO.N,POT10_W*%
X68500000Y-100000000D02*
X64500000Y-104000000D01*
X76000000Y-100000000D02*
X68500000Y-100000000D01*
%TO.N,POT11_W*%
X100500000Y-100000000D02*
X96500000Y-104000000D01*
X108000000Y-100000000D02*
X100500000Y-100000000D01*
%TO.N,A10*%
X112377300Y-94217300D02*
X108000000Y-89840000D01*
X79690000Y-150000000D02*
X79690000Y-140687300D01*
X112377300Y-108000000D02*
X112377300Y-94217300D01*
X112377300Y-108000000D02*
X114000000Y-108000000D01*
X79690000Y-140687300D02*
X112377300Y-108000000D01*
%TO.N,A14*%
X131850000Y-108000000D02*
X89850000Y-150000000D01*
X146000000Y-108000000D02*
X131850000Y-108000000D01*
%TO.N,POT13_W*%
X36500000Y-126000000D02*
X32500000Y-130000000D01*
X44000000Y-126000000D02*
X36500000Y-126000000D01*
%TO.N,A3*%
X46539300Y-118379300D02*
X44000000Y-115840000D01*
X50000000Y-134000000D02*
X46539300Y-130539300D01*
X46539300Y-130539300D02*
X46539300Y-118379300D01*
%TO.N,POT14_W*%
X76000000Y-126000000D02*
X68500000Y-126000000D01*
X68500000Y-126000000D02*
X64500000Y-130000000D01*
%TO.N,A7*%
X79455700Y-134000000D02*
X82000000Y-134000000D01*
X79455700Y-119295700D02*
X76000000Y-115840000D01*
X69530000Y-143925700D02*
X79455700Y-134000000D01*
X79455700Y-134000000D02*
X79455700Y-119295700D01*
X69530000Y-150000000D02*
X69530000Y-143925700D01*
%TO.N,POT15_W*%
X108000000Y-126000000D02*
X100500000Y-126000000D01*
X100500000Y-126000000D02*
X96500000Y-130000000D01*
%TO.N,A11*%
X91238300Y-150302300D02*
X91238300Y-149470300D01*
X91238300Y-149470300D02*
X106708600Y-134000000D01*
X82230000Y-150000000D02*
X83412500Y-151182500D01*
X90358100Y-151182500D02*
X91238300Y-150302300D01*
X106708600Y-134000000D02*
X114000000Y-134000000D01*
X83412500Y-151182500D02*
X90358100Y-151182500D01*
%TO.N,POT16_W*%
X140000000Y-126000000D02*
X132500000Y-126000000D01*
X132500000Y-126000000D02*
X128500000Y-130000000D01*
%TO.N,D12*%
X150000000Y-52000000D02*
X148500000Y-53500000D01*
X148500000Y-53500000D02*
X52071000Y-53500000D01*
%TO.N,LED1_A*%
X157620000Y-49460000D02*
X150000000Y-41840000D01*
X158000000Y-49460000D02*
X157620000Y-49460000D01*
%TO.N,D11*%
X149442000Y-72000000D02*
X150000000Y-72000000D01*
X136523600Y-84918400D02*
X149442000Y-72000000D01*
X92709300Y-84918400D02*
X136523600Y-84918400D01*
X60595400Y-117032300D02*
X92709300Y-84918400D01*
X46850300Y-117032300D02*
X60595400Y-117032300D01*
%TO.N,LED2_A*%
X157620000Y-69460000D02*
X150000000Y-61840000D01*
X158000000Y-69460000D02*
X157620000Y-69460000D01*
%TO.N,D10*%
X102649800Y-196848300D02*
X125367900Y-174130200D01*
X48685400Y-196848300D02*
X102649800Y-196848300D01*
X47821700Y-197712000D02*
X48685400Y-196848300D01*
X47821700Y-198000000D02*
X47821700Y-197712000D01*
X125367900Y-174130200D02*
X148888300Y-174130200D01*
X46670000Y-198000000D02*
X47821700Y-198000000D01*
%TO.N,LED3_A*%
X158000000Y-89460000D02*
X157620000Y-89460000D01*
X157620000Y-89460000D02*
X150000000Y-81840000D01*
%TO.N,D9*%
X120584000Y-151333900D02*
X92682700Y-151333900D01*
X150000000Y-121917900D02*
X120584000Y-151333900D01*
X79254800Y-164761800D02*
X50480000Y-164761800D01*
X150000000Y-112000000D02*
X150000000Y-121917900D01*
X92682700Y-151333900D02*
X79254800Y-164761800D01*
%TO.N,LED4_A*%
X158000000Y-109460000D02*
X157620000Y-109460000D01*
X157620000Y-109460000D02*
X150000000Y-101840000D01*
%TO.N,A15*%
X92390000Y-150000000D02*
X120000000Y-150000000D01*
%TO.N,D2*%
X21151700Y-198000000D02*
X21151700Y-197712100D01*
X20000000Y-198000000D02*
X21151700Y-198000000D01*
X46003800Y-172860000D02*
X120000000Y-172860000D01*
X21151700Y-197712100D02*
X46003800Y-172860000D01*
%TO.N,D3*%
X22540000Y-198000000D02*
X45140000Y-175400000D01*
X45140000Y-175400000D02*
X120000000Y-175400000D01*
%TO.N,D4*%
X31548300Y-197752900D02*
X31548300Y-198477000D01*
X26272400Y-196807600D02*
X30603000Y-196807600D01*
X32263600Y-199192300D02*
X111447700Y-199192300D01*
X30603000Y-196807600D02*
X31548300Y-197752900D01*
X31548300Y-198477000D02*
X32263600Y-199192300D01*
X111447700Y-199192300D02*
X135240000Y-175400000D01*
X25080000Y-198000000D02*
X26272400Y-196807600D01*
%TO.N,D13*%
X30160000Y-198000000D02*
X31754000Y-199594000D01*
X31754000Y-199594000D02*
X113586000Y-199594000D01*
X113586000Y-199594000D02*
X135240000Y-177940000D01*
%TO.N,MUX_CH1*%
X123810000Y-163970000D02*
X120000000Y-167780000D01*
X120000000Y-167780000D02*
X114220000Y-162000000D01*
X150000000Y-162000000D02*
X148030000Y-163970000D01*
X148030000Y-163970000D02*
X123810000Y-163970000D01*
X114220000Y-162000000D02*
X110160000Y-162000000D01*
%TD*%
M02*
