%TF.GenerationSoftware,KiCad,Pcbnew,10.0.3*%
%TF.CreationDate,2026-06-06T11:53:28+02:00*%
%TF.ProjectId,SysEx_Patcher,53797345-785f-4506-9174-636865722e6b,rev?*%
%TF.SameCoordinates,Original*%
%TF.FileFunction,Copper,L3,Inr*%
%TF.FilePolarity,Positive*%
%FSLAX46Y46*%
G04 Gerber Fmt 4.6, Leading zero omitted, Abs format (unit mm)*
G04 Created by KiCad (PCBNEW 10.0.3) date 2026-06-06 11:53:28*
%MOMM*%
%LPD*%
G01*
G04 APERTURE LIST*
G04 Aperture macros list*
%AMRoundRect*
0 Rectangle with rounded corners*
0 $1 Rounding radius*
0 $2 $3 $4 $5 $6 $7 $8 $9 X,Y pos of 4 corners*
0 Add a 4 corners polygon primitive as box body*
4,1,4,$2,$3,$4,$5,$6,$7,$8,$9,$2,$3,0*
0 Add four circle primitives for the rounded corners*
1,1,$1+$1,$2,$3*
1,1,$1+$1,$4,$5*
1,1,$1+$1,$6,$7*
1,1,$1+$1,$8,$9*
0 Add four rect primitives between the rounded corners*
20,1,$1+$1,$2,$3,$4,$5,0*
20,1,$1+$1,$4,$5,$6,$7,0*
20,1,$1+$1,$6,$7,$8,$9,0*
20,1,$1+$1,$8,$9,$2,$3,0*%
G04 Aperture macros list end*
%TA.AperFunction,ComponentPad*%
%ADD10C,2.400000*%
%TD*%
%TA.AperFunction,ComponentPad*%
%ADD11C,2.600000*%
%TD*%
%TA.AperFunction,ComponentPad*%
%ADD12C,3.000000*%
%TD*%
%TA.AperFunction,ComponentPad*%
%ADD13R,3.500000X3.500000*%
%TD*%
%TA.AperFunction,ComponentPad*%
%ADD14RoundRect,0.750000X-0.750000X-1.000000X0.750000X-1.000000X0.750000X1.000000X-0.750000X1.000000X0*%
%TD*%
%TA.AperFunction,ComponentPad*%
%ADD15RoundRect,0.875000X-0.875000X-0.875000X0.875000X-0.875000X0.875000X0.875000X-0.875000X0.875000X0*%
%TD*%
%TA.AperFunction,ComponentPad*%
%ADD16R,1.700000X1.700000*%
%TD*%
%TA.AperFunction,ComponentPad*%
%ADD17C,1.700000*%
%TD*%
%TA.AperFunction,ComponentPad*%
%ADD18RoundRect,0.250000X-0.550000X-0.550000X0.550000X-0.550000X0.550000X0.550000X-0.550000X0.550000X0*%
%TD*%
%TA.AperFunction,ComponentPad*%
%ADD19C,1.600000*%
%TD*%
%TA.AperFunction,ComponentPad*%
%ADD20O,2.200000X3.500000*%
%TD*%
%TA.AperFunction,ComponentPad*%
%ADD21R,1.500000X2.500000*%
%TD*%
%TA.AperFunction,ComponentPad*%
%ADD22O,1.500000X2.500000*%
%TD*%
%TA.AperFunction,ComponentPad*%
%ADD23RoundRect,0.249999X-0.850001X-0.850001X0.850001X-0.850001X0.850001X0.850001X-0.850001X0.850001X0*%
%TD*%
%TA.AperFunction,ComponentPad*%
%ADD24C,2.200000*%
%TD*%
%TA.AperFunction,ComponentPad*%
%ADD25C,2.000000*%
%TD*%
%TA.AperFunction,ComponentPad*%
%ADD26R,1.800000X1.800000*%
%TD*%
%TA.AperFunction,ComponentPad*%
%ADD27C,1.800000*%
%TD*%
%TA.AperFunction,ComponentPad*%
%ADD28RoundRect,0.750000X-1.250000X-0.750000X1.250000X-0.750000X1.250000X0.750000X-1.250000X0.750000X0*%
%TD*%
G04 APERTURE END LIST*
D10*
%TO.N,N/C*%
%TO.C,J1*%
X16700000Y-18000000D03*
%TO.N,GND*%
X24000000Y-18000000D03*
%TO.N,N/C*%
X31300000Y-18000000D03*
%TO.N,MIDI_IN_4*%
X29000000Y-20500000D03*
%TO.N,OPTO_CATHODE*%
X19000000Y-20500000D03*
D11*
%TO.N,*%
X19000000Y-8300000D03*
X29000000Y-8300000D03*
%TD*%
D10*
%TO.N,N/C*%
%TO.C,J2*%
X44700000Y-18000000D03*
%TO.N,GND*%
X52000000Y-18000000D03*
%TO.N,N/C*%
X59300000Y-18000000D03*
%TO.N,MIDI_OUT_4*%
X57000000Y-20500000D03*
%TO.N,MIDI_OUT_5*%
X47000000Y-20500000D03*
D11*
%TO.N,*%
X47000000Y-8300000D03*
X57000000Y-8300000D03*
%TD*%
D12*
%TO.N,GND*%
%TO.C,J10*%
X91430000Y-9300000D03*
%TO.N,+5V*%
X80000000Y-15650000D03*
%TO.N,N/C*%
X91430000Y-15650000D03*
%TO.N,GND*%
X80000000Y-9300000D03*
%TO.N,JACK_W*%
X80000000Y-22000000D03*
%TO.N,N/C*%
X91430000Y-22000000D03*
%TD*%
D13*
%TO.N,VIN_RAW*%
%TO.C,J3*%
X118000000Y-18000000D03*
D14*
%TO.N,GND*%
X118000000Y-12000000D03*
D15*
%TO.N,N/C*%
X113300000Y-15000000D03*
%TD*%
D16*
%TO.N,GND*%
%TO.C,J5*%
X146000000Y-12000000D03*
D17*
%TO.N,+5V*%
X148540000Y-12000000D03*
%TO.N,D21_SCL*%
X151080000Y-12000000D03*
%TO.N,D20_SDA*%
X153620000Y-12000000D03*
%TD*%
D16*
%TO.N,GND*%
%TO.C,J4*%
X116000000Y-40000000D03*
D17*
%TO.N,+5V*%
X118540000Y-40000000D03*
%TO.N,GND*%
X121080000Y-40000000D03*
%TO.N,VIN_RAW*%
X123620000Y-40000000D03*
%TD*%
D18*
%TO.N,N/C*%
%TO.C,U1*%
X28000000Y-34000000D03*
D19*
%TO.N,OPTO_ANODE*%
X28000000Y-36540000D03*
%TO.N,OPTO_CATHODE*%
X28000000Y-39080000D03*
%TO.N,N/C*%
X28000000Y-41620000D03*
%TO.N,GND*%
X35620000Y-41620000D03*
%TO.N,OPTO_VO*%
X35620000Y-39080000D03*
%TO.N,OPTO_VB*%
X35620000Y-36540000D03*
%TO.N,+5V*%
X35620000Y-34000000D03*
%TD*%
%TO.N,MIDI_IN_4*%
%TO.C,R1*%
X14000000Y-45000000D03*
%TO.N,OPTO_ANODE*%
X24160000Y-45000000D03*
%TD*%
D18*
%TO.N,OPTO_ANODE*%
%TO.C,D1*%
X14000000Y-39000000D03*
D19*
%TO.N,OPTO_CATHODE*%
X21620000Y-39000000D03*
%TD*%
%TO.N,OPTO_VO*%
%TO.C,R5*%
X48000000Y-45000000D03*
%TO.N,+5V*%
X58160000Y-45000000D03*
%TD*%
%TO.N,OPTO_VB*%
%TO.C,R4*%
X48000000Y-39000000D03*
%TO.N,GND*%
X58160000Y-39000000D03*
%TD*%
%TO.N,+5V*%
%TO.C,C1*%
X60000000Y-42000000D03*
%TO.N,GND*%
X65000000Y-42000000D03*
%TD*%
D20*
%TO.N,*%
%TO.C,SW1*%
X67900000Y-42000000D03*
X76100000Y-42000000D03*
D21*
%TO.N,OPTO_VO*%
X70000000Y-42000000D03*
D22*
%TO.N,D0_RX*%
X72000000Y-42000000D03*
%TO.N,N/C*%
X74000000Y-42000000D03*
%TD*%
D19*
%TO.N,MIDI_OUT_4*%
%TO.C,R2*%
X98000000Y-45000000D03*
%TO.N,+5V*%
X108160000Y-45000000D03*
%TD*%
%TO.N,MIDI_OUT_5*%
%TO.C,R3*%
X98000000Y-39000000D03*
%TO.N,D1_TX*%
X108160000Y-39000000D03*
%TD*%
D23*
%TO.N,+5V*%
%TO.C,D2D*%
X130000000Y-32000000D03*
D24*
%TO.N,VIN_RAW*%
X140160000Y-32000000D03*
%TD*%
D18*
%TO.N,+5V*%
%TO.C,C19*%
X142000000Y-44000000D03*
D19*
%TO.N,GND*%
X144500000Y-44000000D03*
%TD*%
D25*
%TO.N,D7*%
%TO.C,SW2*%
X10000000Y-66000000D03*
X16500000Y-66000000D03*
%TO.N,GND*%
X10000000Y-70500000D03*
X16500000Y-70500000D03*
%TD*%
%TO.N,D8*%
%TO.C,SW3*%
X10000000Y-88000000D03*
X16500000Y-88000000D03*
%TO.N,GND*%
X10000000Y-92500000D03*
X16500000Y-92500000D03*
%TD*%
%TO.N,D6*%
%TO.C,SW4*%
X10000000Y-110000000D03*
X16500000Y-110000000D03*
%TO.N,GND*%
X10000000Y-114500000D03*
X16500000Y-114500000D03*
%TD*%
%TO.N,D5*%
%TO.C,SW5*%
X10000000Y-132000000D03*
X16500000Y-132000000D03*
%TO.N,GND*%
X10000000Y-136500000D03*
X16500000Y-136500000D03*
%TD*%
D26*
%TO.N,+5V*%
%TO.C,RV1*%
X30000000Y-66000000D03*
D27*
%TO.N,POT1_W*%
X32500000Y-66000000D03*
%TO.N,GND*%
X35000000Y-66000000D03*
D28*
%TO.N,N/C*%
X28100000Y-59000000D03*
X36900000Y-59000000D03*
%TD*%
D19*
%TO.N,POT1_W*%
%TO.C,R10*%
X44000000Y-62000000D03*
%TO.N,A0*%
X44000000Y-51840000D03*
%TD*%
%TO.N,A0*%
%TO.C,C2*%
X50000000Y-70000000D03*
%TO.N,GND*%
X50000000Y-65000000D03*
%TD*%
D26*
%TO.N,+5V*%
%TO.C,RV2*%
X62000000Y-66000000D03*
D27*
%TO.N,POT2_W*%
X64500000Y-66000000D03*
%TO.N,GND*%
X67000000Y-66000000D03*
D28*
%TO.N,N/C*%
X60100000Y-59000000D03*
X68900000Y-59000000D03*
%TD*%
D19*
%TO.N,POT2_W*%
%TO.C,R11*%
X76000000Y-62000000D03*
%TO.N,A5*%
X76000000Y-51840000D03*
%TD*%
%TO.N,A5*%
%TO.C,C3*%
X82000000Y-70000000D03*
%TO.N,GND*%
X82000000Y-65000000D03*
%TD*%
D26*
%TO.N,+5V*%
%TO.C,RV3*%
X94000000Y-66000000D03*
D27*
%TO.N,POT3_W*%
X96500000Y-66000000D03*
%TO.N,GND*%
X99000000Y-66000000D03*
D28*
%TO.N,N/C*%
X92100000Y-59000000D03*
X100900000Y-59000000D03*
%TD*%
D19*
%TO.N,POT3_W*%
%TO.C,R12*%
X108000000Y-62000000D03*
%TO.N,A8*%
X108000000Y-51840000D03*
%TD*%
%TO.N,A8*%
%TO.C,C4*%
X114000000Y-70000000D03*
%TO.N,GND*%
X114000000Y-65000000D03*
%TD*%
D26*
%TO.N,+5V*%
%TO.C,RV4*%
X126000000Y-66000000D03*
D27*
%TO.N,POT4_W*%
X128500000Y-66000000D03*
%TO.N,GND*%
X131000000Y-66000000D03*
D28*
%TO.N,N/C*%
X124100000Y-59000000D03*
X132900000Y-59000000D03*
%TD*%
D19*
%TO.N,POT4_W*%
%TO.C,R13*%
X140000000Y-62000000D03*
%TO.N,A12*%
X140000000Y-51840000D03*
%TD*%
%TO.N,A12*%
%TO.C,C5*%
X146000000Y-70000000D03*
%TO.N,GND*%
X146000000Y-65000000D03*
%TD*%
D26*
%TO.N,+5V*%
%TO.C,RV5*%
X30000000Y-92000000D03*
D27*
%TO.N,POT5_W*%
X32500000Y-92000000D03*
%TO.N,GND*%
X35000000Y-92000000D03*
D28*
%TO.N,N/C*%
X28100000Y-85000000D03*
X36900000Y-85000000D03*
%TD*%
D19*
%TO.N,POT5_W*%
%TO.C,R14*%
X44000000Y-88000000D03*
%TO.N,A1*%
X44000000Y-77840000D03*
%TD*%
%TO.N,A1*%
%TO.C,C6*%
X50000000Y-96000000D03*
%TO.N,GND*%
X50000000Y-91000000D03*
%TD*%
D26*
%TO.N,+5V*%
%TO.C,RV6*%
X62000000Y-92000000D03*
D27*
%TO.N,POT6_W*%
X64500000Y-92000000D03*
%TO.N,GND*%
X67000000Y-92000000D03*
D28*
%TO.N,N/C*%
X60100000Y-85000000D03*
X68900000Y-85000000D03*
%TD*%
D19*
%TO.N,POT6_W*%
%TO.C,R15*%
X76000000Y-88000000D03*
%TO.N,A4*%
X76000000Y-77840000D03*
%TD*%
%TO.N,A4*%
%TO.C,C7*%
X82000000Y-96000000D03*
%TO.N,GND*%
X82000000Y-91000000D03*
%TD*%
D26*
%TO.N,+5V*%
%TO.C,RV7*%
X94000000Y-92000000D03*
D27*
%TO.N,POT7_W*%
X96500000Y-92000000D03*
%TO.N,GND*%
X99000000Y-92000000D03*
D28*
%TO.N,N/C*%
X92100000Y-85000000D03*
X100900000Y-85000000D03*
%TD*%
D19*
%TO.N,POT7_W*%
%TO.C,R16*%
X108000000Y-88000000D03*
%TO.N,A9*%
X108000000Y-77840000D03*
%TD*%
%TO.N,A9*%
%TO.C,C8*%
X114000000Y-96000000D03*
%TO.N,GND*%
X114000000Y-91000000D03*
%TD*%
D26*
%TO.N,+5V*%
%TO.C,RV8*%
X126000000Y-92000000D03*
D27*
%TO.N,POT8_W*%
X128500000Y-92000000D03*
%TO.N,GND*%
X131000000Y-92000000D03*
D28*
%TO.N,N/C*%
X124100000Y-85000000D03*
X132900000Y-85000000D03*
%TD*%
D19*
%TO.N,POT8_W*%
%TO.C,R17*%
X140000000Y-88000000D03*
%TO.N,A13*%
X140000000Y-77840000D03*
%TD*%
%TO.N,A13*%
%TO.C,C9*%
X146000000Y-96000000D03*
%TO.N,GND*%
X146000000Y-91000000D03*
%TD*%
D26*
%TO.N,+5V*%
%TO.C,RV9*%
X30000000Y-118000000D03*
D27*
%TO.N,POT9_W*%
X32500000Y-118000000D03*
%TO.N,GND*%
X35000000Y-118000000D03*
D28*
%TO.N,N/C*%
X28100000Y-111000000D03*
X36900000Y-111000000D03*
%TD*%
D19*
%TO.N,POT9_W*%
%TO.C,R18*%
X44000000Y-114000000D03*
%TO.N,A2*%
X44000000Y-103840000D03*
%TD*%
%TO.N,A2*%
%TO.C,C10*%
X50000000Y-122000000D03*
%TO.N,GND*%
X50000000Y-117000000D03*
%TD*%
D26*
%TO.N,+5V*%
%TO.C,RV10*%
X62000000Y-118000000D03*
D27*
%TO.N,POT10_W*%
X64500000Y-118000000D03*
%TO.N,GND*%
X67000000Y-118000000D03*
D28*
%TO.N,N/C*%
X60100000Y-111000000D03*
X68900000Y-111000000D03*
%TD*%
D19*
%TO.N,POT10_W*%
%TO.C,R19*%
X76000000Y-114000000D03*
%TO.N,A6*%
X76000000Y-103840000D03*
%TD*%
%TO.N,A6*%
%TO.C,C11*%
X82000000Y-122000000D03*
%TO.N,GND*%
X82000000Y-117000000D03*
%TD*%
D26*
%TO.N,+5V*%
%TO.C,RV11*%
X94000000Y-118000000D03*
D27*
%TO.N,POT11_W*%
X96500000Y-118000000D03*
%TO.N,GND*%
X99000000Y-118000000D03*
D28*
%TO.N,N/C*%
X92100000Y-111000000D03*
X100900000Y-111000000D03*
%TD*%
D19*
%TO.N,POT11_W*%
%TO.C,R20*%
X108000000Y-114000000D03*
%TO.N,A10*%
X108000000Y-103840000D03*
%TD*%
%TO.N,A10*%
%TO.C,C12*%
X114000000Y-122000000D03*
%TO.N,GND*%
X114000000Y-117000000D03*
%TD*%
D26*
%TO.N,+5V*%
%TO.C,RV12*%
X126000000Y-118000000D03*
D27*
%TO.N,POT12_W*%
X128500000Y-118000000D03*
%TO.N,GND*%
X131000000Y-118000000D03*
D28*
%TO.N,N/C*%
X124100000Y-111000000D03*
X132900000Y-111000000D03*
%TD*%
D19*
%TO.N,POT12_W*%
%TO.C,R21*%
X140000000Y-114000000D03*
%TO.N,A14*%
X140000000Y-103840000D03*
%TD*%
%TO.N,A14*%
%TO.C,C13*%
X146000000Y-122000000D03*
%TO.N,GND*%
X146000000Y-117000000D03*
%TD*%
D26*
%TO.N,+5V*%
%TO.C,RV13*%
X30000000Y-144000000D03*
D27*
%TO.N,POT13_W*%
X32500000Y-144000000D03*
%TO.N,GND*%
X35000000Y-144000000D03*
D28*
%TO.N,N/C*%
X28100000Y-137000000D03*
X36900000Y-137000000D03*
%TD*%
D19*
%TO.N,POT13_W*%
%TO.C,R22*%
X44000000Y-140000000D03*
%TO.N,A3*%
X44000000Y-129840000D03*
%TD*%
%TO.N,A3*%
%TO.C,C14*%
X50000000Y-148000000D03*
%TO.N,GND*%
X50000000Y-143000000D03*
%TD*%
D26*
%TO.N,+5V*%
%TO.C,RV14*%
X62000000Y-144000000D03*
D27*
%TO.N,POT14_W*%
X64500000Y-144000000D03*
%TO.N,GND*%
X67000000Y-144000000D03*
D28*
%TO.N,N/C*%
X60100000Y-137000000D03*
X68900000Y-137000000D03*
%TD*%
D19*
%TO.N,POT14_W*%
%TO.C,R23*%
X76000000Y-140000000D03*
%TO.N,A7*%
X76000000Y-129840000D03*
%TD*%
%TO.N,A7*%
%TO.C,C15*%
X82000000Y-148000000D03*
%TO.N,GND*%
X82000000Y-143000000D03*
%TD*%
D26*
%TO.N,+5V*%
%TO.C,RV15*%
X94000000Y-144000000D03*
D27*
%TO.N,POT15_W*%
X96500000Y-144000000D03*
%TO.N,GND*%
X99000000Y-144000000D03*
D28*
%TO.N,N/C*%
X92100000Y-137000000D03*
X100900000Y-137000000D03*
%TD*%
D19*
%TO.N,POT15_W*%
%TO.C,R24*%
X108000000Y-140000000D03*
%TO.N,A11*%
X108000000Y-129840000D03*
%TD*%
%TO.N,A11*%
%TO.C,C16*%
X114000000Y-148000000D03*
%TO.N,GND*%
X114000000Y-143000000D03*
%TD*%
D26*
%TO.N,+5V*%
%TO.C,RV16*%
X126000000Y-144000000D03*
D27*
%TO.N,POT16_W*%
X128500000Y-144000000D03*
%TO.N,GND*%
X131000000Y-144000000D03*
D28*
%TO.N,N/C*%
X124100000Y-137000000D03*
X132900000Y-137000000D03*
%TD*%
D19*
%TO.N,POT16_W*%
%TO.C,R25*%
X140000000Y-140000000D03*
%TO.N,MUX_CH0*%
X140000000Y-129840000D03*
%TD*%
%TO.N,MUX_CH0*%
%TO.C,C17*%
X146000000Y-148000000D03*
%TO.N,GND*%
X146000000Y-143000000D03*
%TD*%
%TO.N,D12*%
%TO.C,R6*%
X152000000Y-66000000D03*
%TO.N,LED1_A*%
X152000000Y-55840000D03*
%TD*%
D26*
%TO.N,GND*%
%TO.C,D3*%
X160000000Y-66000000D03*
D27*
%TO.N,LED1_A*%
X160000000Y-63460000D03*
%TD*%
D19*
%TO.N,D11*%
%TO.C,R7*%
X152000000Y-88000000D03*
%TO.N,LED2_A*%
X152000000Y-77840000D03*
%TD*%
D26*
%TO.N,GND*%
%TO.C,D4*%
X160000000Y-88000000D03*
D27*
%TO.N,LED2_A*%
X160000000Y-85460000D03*
%TD*%
D19*
%TO.N,D10*%
%TO.C,R8*%
X152000000Y-110000000D03*
%TO.N,LED3_A*%
X152000000Y-99840000D03*
%TD*%
D26*
%TO.N,GND*%
%TO.C,D5*%
X160000000Y-110000000D03*
D27*
%TO.N,LED3_A*%
X160000000Y-107460000D03*
%TD*%
D19*
%TO.N,D9*%
%TO.C,R9*%
X152000000Y-132000000D03*
%TO.N,LED4_A*%
X152000000Y-121840000D03*
%TD*%
D26*
%TO.N,GND*%
%TO.C,D6*%
X160000000Y-132000000D03*
D27*
%TO.N,LED4_A*%
X160000000Y-129460000D03*
%TD*%
D18*
%TO.N,A15*%
%TO.C,U2*%
X48000000Y-178000000D03*
D19*
%TO.N,MUX_CH7*%
X48000000Y-180540000D03*
%TO.N,MUX_CH6*%
X48000000Y-183080000D03*
%TO.N,MUX_CH5*%
X48000000Y-185620000D03*
%TO.N,MUX_CH4*%
X48000000Y-188160000D03*
%TO.N,MUX_CH3*%
X48000000Y-190700000D03*
%TO.N,MUX_CH2*%
X48000000Y-193240000D03*
%TO.N,MUX_CH1*%
X48000000Y-195780000D03*
%TO.N,MUX_CH0*%
X48000000Y-198320000D03*
%TO.N,D2*%
X48000000Y-200860000D03*
%TO.N,D3*%
X48000000Y-203400000D03*
%TO.N,GND*%
X48000000Y-205940000D03*
%TO.N,D13*%
X63240000Y-205940000D03*
%TO.N,D4*%
X63240000Y-203400000D03*
%TO.N,GND*%
X63240000Y-200860000D03*
%TO.N,MUX_CH15*%
X63240000Y-198320000D03*
%TO.N,MUX_CH14*%
X63240000Y-195780000D03*
%TO.N,MUX_CH13*%
X63240000Y-193240000D03*
%TO.N,MUX_CH12*%
X63240000Y-190700000D03*
%TO.N,MUX_CH11*%
X63240000Y-188160000D03*
%TO.N,MUX_CH10*%
X63240000Y-185620000D03*
%TO.N,MUX_CH9*%
X63240000Y-183080000D03*
%TO.N,MUX_CH8*%
X63240000Y-180540000D03*
%TO.N,+5V*%
X63240000Y-178000000D03*
%TD*%
%TO.N,JACK_W*%
%TO.C,R27*%
X95000000Y-192000000D03*
%TO.N,MUX_CH1*%
X105160000Y-192000000D03*
%TD*%
%TO.N,MUX_CH1*%
%TO.C,C18*%
X120000000Y-192000000D03*
%TO.N,GND*%
X125000000Y-192000000D03*
%TD*%
D16*
%TO.N,N/C*%
%TO.C,JMA1*%
X28890000Y-172000000D03*
D17*
X31430000Y-172000000D03*
X33970000Y-172000000D03*
X36510000Y-172000000D03*
%TO.N,+5V*%
X39050000Y-172000000D03*
%TO.N,GND*%
X41590000Y-172000000D03*
X44130000Y-172000000D03*
%TO.N,VIN_RAW*%
X46670000Y-172000000D03*
%TD*%
D16*
%TO.N,A0*%
%TO.C,JMA2*%
X51750000Y-172000000D03*
D17*
%TO.N,A1*%
X54290000Y-172000000D03*
%TO.N,A2*%
X56830000Y-172000000D03*
%TO.N,A3*%
X59370000Y-172000000D03*
%TO.N,A4*%
X61910000Y-172000000D03*
%TO.N,A5*%
X64450000Y-172000000D03*
%TO.N,A6*%
X66990000Y-172000000D03*
%TO.N,A7*%
X69530000Y-172000000D03*
%TD*%
D16*
%TO.N,A8*%
%TO.C,JMA3*%
X74610000Y-172000000D03*
D17*
%TO.N,A9*%
X77150000Y-172000000D03*
%TO.N,A10*%
X79690000Y-172000000D03*
%TO.N,A11*%
X82230000Y-172000000D03*
%TO.N,A12*%
X84770000Y-172000000D03*
%TO.N,A13*%
X87310000Y-172000000D03*
%TO.N,A14*%
X89850000Y-172000000D03*
%TO.N,A15*%
X92390000Y-172000000D03*
%TD*%
D16*
%TO.N,D2*%
%TO.C,JMD1*%
X20000000Y-220000000D03*
D17*
%TO.N,D3*%
X22540000Y-220000000D03*
%TO.N,D4*%
X25080000Y-220000000D03*
%TO.N,GND*%
X27620000Y-220000000D03*
%TO.N,D13*%
X30160000Y-220000000D03*
%TO.N,D5*%
X32700000Y-220000000D03*
%TO.N,D6*%
X35240000Y-220000000D03*
%TO.N,D7*%
X37780000Y-220000000D03*
%TO.N,D8*%
X40320000Y-220000000D03*
%TO.N,D9*%
X42860000Y-220000000D03*
%TD*%
D16*
%TO.N,D10*%
%TO.C,JMD2*%
X46670000Y-220000000D03*
D17*
%TO.N,D11*%
X49210000Y-220000000D03*
%TO.N,D12*%
X51750000Y-220000000D03*
%TD*%
D16*
%TO.N,D1_TX*%
%TO.C,JMD3*%
X61910000Y-220000000D03*
D17*
%TO.N,D0_RX*%
X64450000Y-220000000D03*
%TD*%
D16*
%TO.N,D20_SDA*%
%TO.C,JMD4*%
X84770000Y-220000000D03*
D17*
%TO.N,D21_SCL*%
X87310000Y-220000000D03*
%TD*%
M02*
