%TF.GenerationSoftware,KiCad,Pcbnew,10.0.3*%
%TF.CreationDate,2026-06-06T00:44:33+02:00*%
%TF.ProjectId,SysEx_Patcher,53797345-785f-4506-9174-636865722e6b,rev?*%
%TF.SameCoordinates,Original*%
%TF.FileFunction,Legend,Top*%
%TF.FilePolarity,Positive*%
%FSLAX46Y46*%
G04 Gerber Fmt 4.6, Leading zero omitted, Abs format (unit mm)*
G04 Created by KiCad (PCBNEW 10.0.3) date 2026-06-06 00:44:33*
%MOMM*%
%LPD*%
G01*
G04 APERTURE LIST*
G04 Aperture macros list*
%AMRoundRect*
0 Rectangle with rounded corners*
0 $1 Rounding radius*
0 $2 $3 $4 $5 $6 $7 $8 $9 X,Y pos of 4 corners*
0 Add a 4 corners polygon primitive as box body*
4,1,4,$2,$3,$4,$5,$6,$7,$8,$9,$2,$3,0*
0 Add four circle primitives for the rounded corners*
1,1,$1+$1,$2,$3*
1,1,$1+$1,$4,$5*
1,1,$1+$1,$6,$7*
1,1,$1+$1,$8,$9*
0 Add four rect primitives between the rounded corners*
20,1,$1+$1,$2,$3,$4,$5,0*
20,1,$1+$1,$4,$5,$6,$7,0*
20,1,$1+$1,$6,$7,$8,$9,0*
20,1,$1+$1,$8,$9,$2,$3,0*%
G04 Aperture macros list end*
%ADD10C,0.150000*%
%ADD11C,0.120000*%
%ADD12C,1.600000*%
%ADD13C,2.100000*%
%ADD14C,3.400000*%
%ADD15C,3.000000*%
%ADD16R,1.800000X1.800000*%
%ADD17C,1.800000*%
%ADD18RoundRect,0.750000X-1.250000X-0.750000X1.250000X-0.750000X1.250000X0.750000X-1.250000X0.750000X0*%
%ADD19R,1.700000X1.700000*%
%ADD20C,1.700000*%
%ADD21C,2.600000*%
%ADD22C,2.400000*%
%ADD23C,2.000000*%
%ADD24RoundRect,0.250000X-0.550000X-0.550000X0.550000X-0.550000X0.550000X0.550000X-0.550000X0.550000X0*%
%ADD25RoundRect,0.249999X-0.850001X-0.850001X0.850001X-0.850001X0.850001X0.850001X-0.850001X0.850001X0*%
%ADD26C,2.200000*%
%ADD27O,2.200000X3.500000*%
%ADD28R,1.500000X2.500000*%
%ADD29O,1.500000X2.500000*%
%ADD30R,3.500000X3.500000*%
%ADD31RoundRect,0.750000X-0.750000X-1.000000X0.750000X-1.000000X0.750000X1.000000X-0.750000X1.000000X0*%
%ADD32RoundRect,0.875000X-0.875000X-0.875000X0.875000X-0.875000X0.875000X0.875000X-0.875000X0.875000X0*%
G04 APERTURE END LIST*
D10*
X85190476Y-10454819D02*
X85190476Y-11169104D01*
X85190476Y-11169104D02*
X85142857Y-11311961D01*
X85142857Y-11311961D02*
X85047619Y-11407200D01*
X85047619Y-11407200D02*
X84904762Y-11454819D01*
X84904762Y-11454819D02*
X84809524Y-11454819D01*
X86190476Y-11454819D02*
X85619048Y-11454819D01*
X85904762Y-11454819D02*
X85904762Y-10454819D01*
X85904762Y-10454819D02*
X85809524Y-10597676D01*
X85809524Y-10597676D02*
X85714286Y-10692914D01*
X85714286Y-10692914D02*
X85619048Y-10740533D01*
X86809524Y-10454819D02*
X86904762Y-10454819D01*
X86904762Y-10454819D02*
X87000000Y-10502438D01*
X87000000Y-10502438D02*
X87047619Y-10550057D01*
X87047619Y-10550057D02*
X87095238Y-10645295D01*
X87095238Y-10645295D02*
X87142857Y-10835771D01*
X87142857Y-10835771D02*
X87142857Y-11073866D01*
X87142857Y-11073866D02*
X87095238Y-11264342D01*
X87095238Y-11264342D02*
X87047619Y-11359580D01*
X87047619Y-11359580D02*
X87000000Y-11407200D01*
X87000000Y-11407200D02*
X86904762Y-11454819D01*
X86904762Y-11454819D02*
X86809524Y-11454819D01*
X86809524Y-11454819D02*
X86714286Y-11407200D01*
X86714286Y-11407200D02*
X86666667Y-11359580D01*
X86666667Y-11359580D02*
X86619048Y-11264342D01*
X86619048Y-11264342D02*
X86571429Y-11073866D01*
X86571429Y-11073866D02*
X86571429Y-10835771D01*
X86571429Y-10835771D02*
X86619048Y-10645295D01*
X86619048Y-10645295D02*
X86666667Y-10550057D01*
X86666667Y-10550057D02*
X86714286Y-10502438D01*
X86714286Y-10502438D02*
X86809524Y-10454819D01*
X104437142Y-182084819D02*
X104103809Y-181608628D01*
X103865714Y-182084819D02*
X103865714Y-181084819D01*
X103865714Y-181084819D02*
X104246666Y-181084819D01*
X104246666Y-181084819D02*
X104341904Y-181132438D01*
X104341904Y-181132438D02*
X104389523Y-181180057D01*
X104389523Y-181180057D02*
X104437142Y-181275295D01*
X104437142Y-181275295D02*
X104437142Y-181418152D01*
X104437142Y-181418152D02*
X104389523Y-181513390D01*
X104389523Y-181513390D02*
X104341904Y-181561009D01*
X104341904Y-181561009D02*
X104246666Y-181608628D01*
X104246666Y-181608628D02*
X103865714Y-181608628D01*
X104818095Y-181180057D02*
X104865714Y-181132438D01*
X104865714Y-181132438D02*
X104960952Y-181084819D01*
X104960952Y-181084819D02*
X105199047Y-181084819D01*
X105199047Y-181084819D02*
X105294285Y-181132438D01*
X105294285Y-181132438D02*
X105341904Y-181180057D01*
X105341904Y-181180057D02*
X105389523Y-181275295D01*
X105389523Y-181275295D02*
X105389523Y-181370533D01*
X105389523Y-181370533D02*
X105341904Y-181513390D01*
X105341904Y-181513390D02*
X104770476Y-182084819D01*
X104770476Y-182084819D02*
X105389523Y-182084819D01*
X105722857Y-181084819D02*
X106389523Y-181084819D01*
X106389523Y-181084819D02*
X105960952Y-182084819D01*
X72333333Y-34859580D02*
X72285714Y-34907200D01*
X72285714Y-34907200D02*
X72142857Y-34954819D01*
X72142857Y-34954819D02*
X72047619Y-34954819D01*
X72047619Y-34954819D02*
X71904762Y-34907200D01*
X71904762Y-34907200D02*
X71809524Y-34811961D01*
X71809524Y-34811961D02*
X71761905Y-34716723D01*
X71761905Y-34716723D02*
X71714286Y-34526247D01*
X71714286Y-34526247D02*
X71714286Y-34383390D01*
X71714286Y-34383390D02*
X71761905Y-34192914D01*
X71761905Y-34192914D02*
X71809524Y-34097676D01*
X71809524Y-34097676D02*
X71904762Y-34002438D01*
X71904762Y-34002438D02*
X72047619Y-33954819D01*
X72047619Y-33954819D02*
X72142857Y-33954819D01*
X72142857Y-33954819D02*
X72285714Y-34002438D01*
X72285714Y-34002438D02*
X72333333Y-34050057D01*
X73285714Y-34954819D02*
X72714286Y-34954819D01*
X73000000Y-34954819D02*
X73000000Y-33954819D01*
X73000000Y-33954819D02*
X72904762Y-34097676D01*
X72904762Y-34097676D02*
X72809524Y-34192914D01*
X72809524Y-34192914D02*
X72714286Y-34240533D01*
X87778571Y-112404819D02*
X87445238Y-111928628D01*
X87207143Y-112404819D02*
X87207143Y-111404819D01*
X87207143Y-111404819D02*
X87588095Y-111404819D01*
X87588095Y-111404819D02*
X87683333Y-111452438D01*
X87683333Y-111452438D02*
X87730952Y-111500057D01*
X87730952Y-111500057D02*
X87778571Y-111595295D01*
X87778571Y-111595295D02*
X87778571Y-111738152D01*
X87778571Y-111738152D02*
X87730952Y-111833390D01*
X87730952Y-111833390D02*
X87683333Y-111881009D01*
X87683333Y-111881009D02*
X87588095Y-111928628D01*
X87588095Y-111928628D02*
X87207143Y-111928628D01*
X88064286Y-111404819D02*
X88397619Y-112404819D01*
X88397619Y-112404819D02*
X88730952Y-111404819D01*
X89588095Y-112404819D02*
X89016667Y-112404819D01*
X89302381Y-112404819D02*
X89302381Y-111404819D01*
X89302381Y-111404819D02*
X89207143Y-111547676D01*
X89207143Y-111547676D02*
X89111905Y-111642914D01*
X89111905Y-111642914D02*
X89016667Y-111690533D01*
X90540476Y-112404819D02*
X89969048Y-112404819D01*
X90254762Y-112404819D02*
X90254762Y-111404819D01*
X90254762Y-111404819D02*
X90159524Y-111547676D01*
X90159524Y-111547676D02*
X90064286Y-111642914D01*
X90064286Y-111642914D02*
X89969048Y-111690533D01*
X149666666Y-23074819D02*
X149666666Y-23789104D01*
X149666666Y-23789104D02*
X149619047Y-23931961D01*
X149619047Y-23931961D02*
X149523809Y-24027200D01*
X149523809Y-24027200D02*
X149380952Y-24074819D01*
X149380952Y-24074819D02*
X149285714Y-24074819D01*
X150571428Y-23408152D02*
X150571428Y-24074819D01*
X150333333Y-23027200D02*
X150095238Y-23741485D01*
X150095238Y-23741485D02*
X150714285Y-23741485D01*
X24254761Y-112404819D02*
X23921428Y-111928628D01*
X23683333Y-112404819D02*
X23683333Y-111404819D01*
X23683333Y-111404819D02*
X24064285Y-111404819D01*
X24064285Y-111404819D02*
X24159523Y-111452438D01*
X24159523Y-111452438D02*
X24207142Y-111500057D01*
X24207142Y-111500057D02*
X24254761Y-111595295D01*
X24254761Y-111595295D02*
X24254761Y-111738152D01*
X24254761Y-111738152D02*
X24207142Y-111833390D01*
X24207142Y-111833390D02*
X24159523Y-111881009D01*
X24159523Y-111881009D02*
X24064285Y-111928628D01*
X24064285Y-111928628D02*
X23683333Y-111928628D01*
X24540476Y-111404819D02*
X24873809Y-112404819D01*
X24873809Y-112404819D02*
X25207142Y-111404819D01*
X25588095Y-112404819D02*
X25778571Y-112404819D01*
X25778571Y-112404819D02*
X25873809Y-112357200D01*
X25873809Y-112357200D02*
X25921428Y-112309580D01*
X25921428Y-112309580D02*
X26016666Y-112166723D01*
X26016666Y-112166723D02*
X26064285Y-111976247D01*
X26064285Y-111976247D02*
X26064285Y-111595295D01*
X26064285Y-111595295D02*
X26016666Y-111500057D01*
X26016666Y-111500057D02*
X25969047Y-111452438D01*
X25969047Y-111452438D02*
X25873809Y-111404819D01*
X25873809Y-111404819D02*
X25683333Y-111404819D01*
X25683333Y-111404819D02*
X25588095Y-111452438D01*
X25588095Y-111452438D02*
X25540476Y-111500057D01*
X25540476Y-111500057D02*
X25492857Y-111595295D01*
X25492857Y-111595295D02*
X25492857Y-111833390D01*
X25492857Y-111833390D02*
X25540476Y-111928628D01*
X25540476Y-111928628D02*
X25588095Y-111976247D01*
X25588095Y-111976247D02*
X25683333Y-112023866D01*
X25683333Y-112023866D02*
X25873809Y-112023866D01*
X25873809Y-112023866D02*
X25969047Y-111976247D01*
X25969047Y-111976247D02*
X26016666Y-111928628D01*
X26016666Y-111928628D02*
X26064285Y-111833390D01*
X149666666Y-7074819D02*
X149666666Y-7789104D01*
X149666666Y-7789104D02*
X149619047Y-7931961D01*
X149619047Y-7931961D02*
X149523809Y-8027200D01*
X149523809Y-8027200D02*
X149380952Y-8074819D01*
X149380952Y-8074819D02*
X149285714Y-8074819D01*
X150619047Y-7074819D02*
X150142857Y-7074819D01*
X150142857Y-7074819D02*
X150095238Y-7551009D01*
X150095238Y-7551009D02*
X150142857Y-7503390D01*
X150142857Y-7503390D02*
X150238095Y-7455771D01*
X150238095Y-7455771D02*
X150476190Y-7455771D01*
X150476190Y-7455771D02*
X150571428Y-7503390D01*
X150571428Y-7503390D02*
X150619047Y-7551009D01*
X150619047Y-7551009D02*
X150666666Y-7646247D01*
X150666666Y-7646247D02*
X150666666Y-7884342D01*
X150666666Y-7884342D02*
X150619047Y-7979580D01*
X150619047Y-7979580D02*
X150571428Y-8027200D01*
X150571428Y-8027200D02*
X150476190Y-8074819D01*
X150476190Y-8074819D02*
X150238095Y-8074819D01*
X150238095Y-8074819D02*
X150142857Y-8027200D01*
X150142857Y-8027200D02*
X150095238Y-7979580D01*
X136987142Y-57374819D02*
X136653809Y-56898628D01*
X136415714Y-57374819D02*
X136415714Y-56374819D01*
X136415714Y-56374819D02*
X136796666Y-56374819D01*
X136796666Y-56374819D02*
X136891904Y-56422438D01*
X136891904Y-56422438D02*
X136939523Y-56470057D01*
X136939523Y-56470057D02*
X136987142Y-56565295D01*
X136987142Y-56565295D02*
X136987142Y-56708152D01*
X136987142Y-56708152D02*
X136939523Y-56803390D01*
X136939523Y-56803390D02*
X136891904Y-56851009D01*
X136891904Y-56851009D02*
X136796666Y-56898628D01*
X136796666Y-56898628D02*
X136415714Y-56898628D01*
X137939523Y-57374819D02*
X137368095Y-57374819D01*
X137653809Y-57374819D02*
X137653809Y-56374819D01*
X137653809Y-56374819D02*
X137558571Y-56517676D01*
X137558571Y-56517676D02*
X137463333Y-56612914D01*
X137463333Y-56612914D02*
X137368095Y-56660533D01*
X138272857Y-56374819D02*
X138891904Y-56374819D01*
X138891904Y-56374819D02*
X138558571Y-56755771D01*
X138558571Y-56755771D02*
X138701428Y-56755771D01*
X138701428Y-56755771D02*
X138796666Y-56803390D01*
X138796666Y-56803390D02*
X138844285Y-56851009D01*
X138844285Y-56851009D02*
X138891904Y-56946247D01*
X138891904Y-56946247D02*
X138891904Y-57184342D01*
X138891904Y-57184342D02*
X138844285Y-57279580D01*
X138844285Y-57279580D02*
X138796666Y-57327200D01*
X138796666Y-57327200D02*
X138701428Y-57374819D01*
X138701428Y-57374819D02*
X138415714Y-57374819D01*
X138415714Y-57374819D02*
X138320476Y-57327200D01*
X138320476Y-57327200D02*
X138272857Y-57279580D01*
X51666666Y-9454819D02*
X51666666Y-10169104D01*
X51666666Y-10169104D02*
X51619047Y-10311961D01*
X51619047Y-10311961D02*
X51523809Y-10407200D01*
X51523809Y-10407200D02*
X51380952Y-10454819D01*
X51380952Y-10454819D02*
X51285714Y-10454819D01*
X52095238Y-9550057D02*
X52142857Y-9502438D01*
X52142857Y-9502438D02*
X52238095Y-9454819D01*
X52238095Y-9454819D02*
X52476190Y-9454819D01*
X52476190Y-9454819D02*
X52571428Y-9502438D01*
X52571428Y-9502438D02*
X52619047Y-9550057D01*
X52619047Y-9550057D02*
X52666666Y-9645295D01*
X52666666Y-9645295D02*
X52666666Y-9740533D01*
X52666666Y-9740533D02*
X52619047Y-9883390D01*
X52619047Y-9883390D02*
X52047619Y-10454819D01*
X52047619Y-10454819D02*
X52666666Y-10454819D01*
X70896666Y-171454819D02*
X70896666Y-172169104D01*
X70896666Y-172169104D02*
X70849047Y-172311961D01*
X70849047Y-172311961D02*
X70753809Y-172407200D01*
X70753809Y-172407200D02*
X70610952Y-172454819D01*
X70610952Y-172454819D02*
X70515714Y-172454819D01*
X71372857Y-172454819D02*
X71372857Y-171454819D01*
X71372857Y-171454819D02*
X71706190Y-172169104D01*
X71706190Y-172169104D02*
X72039523Y-171454819D01*
X72039523Y-171454819D02*
X72039523Y-172454819D01*
X72468095Y-172169104D02*
X72944285Y-172169104D01*
X72372857Y-172454819D02*
X72706190Y-171454819D01*
X72706190Y-171454819D02*
X73039523Y-172454819D01*
X73277619Y-171454819D02*
X73896666Y-171454819D01*
X73896666Y-171454819D02*
X73563333Y-171835771D01*
X73563333Y-171835771D02*
X73706190Y-171835771D01*
X73706190Y-171835771D02*
X73801428Y-171883390D01*
X73801428Y-171883390D02*
X73849047Y-171931009D01*
X73849047Y-171931009D02*
X73896666Y-172026247D01*
X73896666Y-172026247D02*
X73896666Y-172264342D01*
X73896666Y-172264342D02*
X73849047Y-172359580D01*
X73849047Y-172359580D02*
X73801428Y-172407200D01*
X73801428Y-172407200D02*
X73706190Y-172454819D01*
X73706190Y-172454819D02*
X73420476Y-172454819D01*
X73420476Y-172454819D02*
X73325238Y-172407200D01*
X73325238Y-172407200D02*
X73277619Y-172359580D01*
X104987142Y-135374819D02*
X104653809Y-134898628D01*
X104415714Y-135374819D02*
X104415714Y-134374819D01*
X104415714Y-134374819D02*
X104796666Y-134374819D01*
X104796666Y-134374819D02*
X104891904Y-134422438D01*
X104891904Y-134422438D02*
X104939523Y-134470057D01*
X104939523Y-134470057D02*
X104987142Y-134565295D01*
X104987142Y-134565295D02*
X104987142Y-134708152D01*
X104987142Y-134708152D02*
X104939523Y-134803390D01*
X104939523Y-134803390D02*
X104891904Y-134851009D01*
X104891904Y-134851009D02*
X104796666Y-134898628D01*
X104796666Y-134898628D02*
X104415714Y-134898628D01*
X105368095Y-134470057D02*
X105415714Y-134422438D01*
X105415714Y-134422438D02*
X105510952Y-134374819D01*
X105510952Y-134374819D02*
X105749047Y-134374819D01*
X105749047Y-134374819D02*
X105844285Y-134422438D01*
X105844285Y-134422438D02*
X105891904Y-134470057D01*
X105891904Y-134470057D02*
X105939523Y-134565295D01*
X105939523Y-134565295D02*
X105939523Y-134660533D01*
X105939523Y-134660533D02*
X105891904Y-134803390D01*
X105891904Y-134803390D02*
X105320476Y-135374819D01*
X105320476Y-135374819D02*
X105939523Y-135374819D01*
X106796666Y-134708152D02*
X106796666Y-135374819D01*
X106558571Y-134327200D02*
X106320476Y-135041485D01*
X106320476Y-135041485D02*
X106939523Y-135041485D01*
X72987142Y-83374819D02*
X72653809Y-82898628D01*
X72415714Y-83374819D02*
X72415714Y-82374819D01*
X72415714Y-82374819D02*
X72796666Y-82374819D01*
X72796666Y-82374819D02*
X72891904Y-82422438D01*
X72891904Y-82422438D02*
X72939523Y-82470057D01*
X72939523Y-82470057D02*
X72987142Y-82565295D01*
X72987142Y-82565295D02*
X72987142Y-82708152D01*
X72987142Y-82708152D02*
X72939523Y-82803390D01*
X72939523Y-82803390D02*
X72891904Y-82851009D01*
X72891904Y-82851009D02*
X72796666Y-82898628D01*
X72796666Y-82898628D02*
X72415714Y-82898628D01*
X73939523Y-83374819D02*
X73368095Y-83374819D01*
X73653809Y-83374819D02*
X73653809Y-82374819D01*
X73653809Y-82374819D02*
X73558571Y-82517676D01*
X73558571Y-82517676D02*
X73463333Y-82612914D01*
X73463333Y-82612914D02*
X73368095Y-82660533D01*
X74844285Y-82374819D02*
X74368095Y-82374819D01*
X74368095Y-82374819D02*
X74320476Y-82851009D01*
X74320476Y-82851009D02*
X74368095Y-82803390D01*
X74368095Y-82803390D02*
X74463333Y-82755771D01*
X74463333Y-82755771D02*
X74701428Y-82755771D01*
X74701428Y-82755771D02*
X74796666Y-82803390D01*
X74796666Y-82803390D02*
X74844285Y-82851009D01*
X74844285Y-82851009D02*
X74891904Y-82946247D01*
X74891904Y-82946247D02*
X74891904Y-83184342D01*
X74891904Y-83184342D02*
X74844285Y-83279580D01*
X74844285Y-83279580D02*
X74796666Y-83327200D01*
X74796666Y-83327200D02*
X74701428Y-83374819D01*
X74701428Y-83374819D02*
X74463333Y-83374819D01*
X74463333Y-83374819D02*
X74368095Y-83327200D01*
X74368095Y-83327200D02*
X74320476Y-83279580D01*
X120254761Y-86404819D02*
X119921428Y-85928628D01*
X119683333Y-86404819D02*
X119683333Y-85404819D01*
X119683333Y-85404819D02*
X120064285Y-85404819D01*
X120064285Y-85404819D02*
X120159523Y-85452438D01*
X120159523Y-85452438D02*
X120207142Y-85500057D01*
X120207142Y-85500057D02*
X120254761Y-85595295D01*
X120254761Y-85595295D02*
X120254761Y-85738152D01*
X120254761Y-85738152D02*
X120207142Y-85833390D01*
X120207142Y-85833390D02*
X120159523Y-85881009D01*
X120159523Y-85881009D02*
X120064285Y-85928628D01*
X120064285Y-85928628D02*
X119683333Y-85928628D01*
X120540476Y-85404819D02*
X120873809Y-86404819D01*
X120873809Y-86404819D02*
X121207142Y-85404819D01*
X121683333Y-85833390D02*
X121588095Y-85785771D01*
X121588095Y-85785771D02*
X121540476Y-85738152D01*
X121540476Y-85738152D02*
X121492857Y-85642914D01*
X121492857Y-85642914D02*
X121492857Y-85595295D01*
X121492857Y-85595295D02*
X121540476Y-85500057D01*
X121540476Y-85500057D02*
X121588095Y-85452438D01*
X121588095Y-85452438D02*
X121683333Y-85404819D01*
X121683333Y-85404819D02*
X121873809Y-85404819D01*
X121873809Y-85404819D02*
X121969047Y-85452438D01*
X121969047Y-85452438D02*
X122016666Y-85500057D01*
X122016666Y-85500057D02*
X122064285Y-85595295D01*
X122064285Y-85595295D02*
X122064285Y-85642914D01*
X122064285Y-85642914D02*
X122016666Y-85738152D01*
X122016666Y-85738152D02*
X121969047Y-85785771D01*
X121969047Y-85785771D02*
X121873809Y-85833390D01*
X121873809Y-85833390D02*
X121683333Y-85833390D01*
X121683333Y-85833390D02*
X121588095Y-85881009D01*
X121588095Y-85881009D02*
X121540476Y-85928628D01*
X121540476Y-85928628D02*
X121492857Y-86023866D01*
X121492857Y-86023866D02*
X121492857Y-86214342D01*
X121492857Y-86214342D02*
X121540476Y-86309580D01*
X121540476Y-86309580D02*
X121588095Y-86357200D01*
X121588095Y-86357200D02*
X121683333Y-86404819D01*
X121683333Y-86404819D02*
X121873809Y-86404819D01*
X121873809Y-86404819D02*
X121969047Y-86357200D01*
X121969047Y-86357200D02*
X122016666Y-86309580D01*
X122016666Y-86309580D02*
X122064285Y-86214342D01*
X122064285Y-86214342D02*
X122064285Y-86023866D01*
X122064285Y-86023866D02*
X122016666Y-85928628D01*
X122016666Y-85928628D02*
X121969047Y-85881009D01*
X121969047Y-85881009D02*
X121873809Y-85833390D01*
X47333333Y-67859580D02*
X47285714Y-67907200D01*
X47285714Y-67907200D02*
X47142857Y-67954819D01*
X47142857Y-67954819D02*
X47047619Y-67954819D01*
X47047619Y-67954819D02*
X46904762Y-67907200D01*
X46904762Y-67907200D02*
X46809524Y-67811961D01*
X46809524Y-67811961D02*
X46761905Y-67716723D01*
X46761905Y-67716723D02*
X46714286Y-67526247D01*
X46714286Y-67526247D02*
X46714286Y-67383390D01*
X46714286Y-67383390D02*
X46761905Y-67192914D01*
X46761905Y-67192914D02*
X46809524Y-67097676D01*
X46809524Y-67097676D02*
X46904762Y-67002438D01*
X46904762Y-67002438D02*
X47047619Y-66954819D01*
X47047619Y-66954819D02*
X47142857Y-66954819D01*
X47142857Y-66954819D02*
X47285714Y-67002438D01*
X47285714Y-67002438D02*
X47333333Y-67050057D01*
X47714286Y-67050057D02*
X47761905Y-67002438D01*
X47761905Y-67002438D02*
X47857143Y-66954819D01*
X47857143Y-66954819D02*
X48095238Y-66954819D01*
X48095238Y-66954819D02*
X48190476Y-67002438D01*
X48190476Y-67002438D02*
X48238095Y-67050057D01*
X48238095Y-67050057D02*
X48285714Y-67145295D01*
X48285714Y-67145295D02*
X48285714Y-67240533D01*
X48285714Y-67240533D02*
X48238095Y-67383390D01*
X48238095Y-67383390D02*
X47666667Y-67954819D01*
X47666667Y-67954819D02*
X48285714Y-67954819D01*
X56254761Y-60404819D02*
X55921428Y-59928628D01*
X55683333Y-60404819D02*
X55683333Y-59404819D01*
X55683333Y-59404819D02*
X56064285Y-59404819D01*
X56064285Y-59404819D02*
X56159523Y-59452438D01*
X56159523Y-59452438D02*
X56207142Y-59500057D01*
X56207142Y-59500057D02*
X56254761Y-59595295D01*
X56254761Y-59595295D02*
X56254761Y-59738152D01*
X56254761Y-59738152D02*
X56207142Y-59833390D01*
X56207142Y-59833390D02*
X56159523Y-59881009D01*
X56159523Y-59881009D02*
X56064285Y-59928628D01*
X56064285Y-59928628D02*
X55683333Y-59928628D01*
X56540476Y-59404819D02*
X56873809Y-60404819D01*
X56873809Y-60404819D02*
X57207142Y-59404819D01*
X57492857Y-59500057D02*
X57540476Y-59452438D01*
X57540476Y-59452438D02*
X57635714Y-59404819D01*
X57635714Y-59404819D02*
X57873809Y-59404819D01*
X57873809Y-59404819D02*
X57969047Y-59452438D01*
X57969047Y-59452438D02*
X58016666Y-59500057D01*
X58016666Y-59500057D02*
X58064285Y-59595295D01*
X58064285Y-59595295D02*
X58064285Y-59690533D01*
X58064285Y-59690533D02*
X58016666Y-59833390D01*
X58016666Y-59833390D02*
X57445238Y-60404819D01*
X57445238Y-60404819D02*
X58064285Y-60404819D01*
X23778571Y-138404819D02*
X23445238Y-137928628D01*
X23207143Y-138404819D02*
X23207143Y-137404819D01*
X23207143Y-137404819D02*
X23588095Y-137404819D01*
X23588095Y-137404819D02*
X23683333Y-137452438D01*
X23683333Y-137452438D02*
X23730952Y-137500057D01*
X23730952Y-137500057D02*
X23778571Y-137595295D01*
X23778571Y-137595295D02*
X23778571Y-137738152D01*
X23778571Y-137738152D02*
X23730952Y-137833390D01*
X23730952Y-137833390D02*
X23683333Y-137881009D01*
X23683333Y-137881009D02*
X23588095Y-137928628D01*
X23588095Y-137928628D02*
X23207143Y-137928628D01*
X24064286Y-137404819D02*
X24397619Y-138404819D01*
X24397619Y-138404819D02*
X24730952Y-137404819D01*
X25588095Y-138404819D02*
X25016667Y-138404819D01*
X25302381Y-138404819D02*
X25302381Y-137404819D01*
X25302381Y-137404819D02*
X25207143Y-137547676D01*
X25207143Y-137547676D02*
X25111905Y-137642914D01*
X25111905Y-137642914D02*
X25016667Y-137690533D01*
X25921429Y-137404819D02*
X26540476Y-137404819D01*
X26540476Y-137404819D02*
X26207143Y-137785771D01*
X26207143Y-137785771D02*
X26350000Y-137785771D01*
X26350000Y-137785771D02*
X26445238Y-137833390D01*
X26445238Y-137833390D02*
X26492857Y-137881009D01*
X26492857Y-137881009D02*
X26540476Y-137976247D01*
X26540476Y-137976247D02*
X26540476Y-138214342D01*
X26540476Y-138214342D02*
X26492857Y-138309580D01*
X26492857Y-138309580D02*
X26445238Y-138357200D01*
X26445238Y-138357200D02*
X26350000Y-138404819D01*
X26350000Y-138404819D02*
X26064286Y-138404819D01*
X26064286Y-138404819D02*
X25969048Y-138357200D01*
X25969048Y-138357200D02*
X25921429Y-138309580D01*
X79333333Y-67859580D02*
X79285714Y-67907200D01*
X79285714Y-67907200D02*
X79142857Y-67954819D01*
X79142857Y-67954819D02*
X79047619Y-67954819D01*
X79047619Y-67954819D02*
X78904762Y-67907200D01*
X78904762Y-67907200D02*
X78809524Y-67811961D01*
X78809524Y-67811961D02*
X78761905Y-67716723D01*
X78761905Y-67716723D02*
X78714286Y-67526247D01*
X78714286Y-67526247D02*
X78714286Y-67383390D01*
X78714286Y-67383390D02*
X78761905Y-67192914D01*
X78761905Y-67192914D02*
X78809524Y-67097676D01*
X78809524Y-67097676D02*
X78904762Y-67002438D01*
X78904762Y-67002438D02*
X79047619Y-66954819D01*
X79047619Y-66954819D02*
X79142857Y-66954819D01*
X79142857Y-66954819D02*
X79285714Y-67002438D01*
X79285714Y-67002438D02*
X79333333Y-67050057D01*
X79666667Y-66954819D02*
X80285714Y-66954819D01*
X80285714Y-66954819D02*
X79952381Y-67335771D01*
X79952381Y-67335771D02*
X80095238Y-67335771D01*
X80095238Y-67335771D02*
X80190476Y-67383390D01*
X80190476Y-67383390D02*
X80238095Y-67431009D01*
X80238095Y-67431009D02*
X80285714Y-67526247D01*
X80285714Y-67526247D02*
X80285714Y-67764342D01*
X80285714Y-67764342D02*
X80238095Y-67859580D01*
X80238095Y-67859580D02*
X80190476Y-67907200D01*
X80190476Y-67907200D02*
X80095238Y-67954819D01*
X80095238Y-67954819D02*
X79809524Y-67954819D01*
X79809524Y-67954819D02*
X79714286Y-67907200D01*
X79714286Y-67907200D02*
X79666667Y-67859580D01*
X136987142Y-109374819D02*
X136653809Y-108898628D01*
X136415714Y-109374819D02*
X136415714Y-108374819D01*
X136415714Y-108374819D02*
X136796666Y-108374819D01*
X136796666Y-108374819D02*
X136891904Y-108422438D01*
X136891904Y-108422438D02*
X136939523Y-108470057D01*
X136939523Y-108470057D02*
X136987142Y-108565295D01*
X136987142Y-108565295D02*
X136987142Y-108708152D01*
X136987142Y-108708152D02*
X136939523Y-108803390D01*
X136939523Y-108803390D02*
X136891904Y-108851009D01*
X136891904Y-108851009D02*
X136796666Y-108898628D01*
X136796666Y-108898628D02*
X136415714Y-108898628D01*
X137368095Y-108470057D02*
X137415714Y-108422438D01*
X137415714Y-108422438D02*
X137510952Y-108374819D01*
X137510952Y-108374819D02*
X137749047Y-108374819D01*
X137749047Y-108374819D02*
X137844285Y-108422438D01*
X137844285Y-108422438D02*
X137891904Y-108470057D01*
X137891904Y-108470057D02*
X137939523Y-108565295D01*
X137939523Y-108565295D02*
X137939523Y-108660533D01*
X137939523Y-108660533D02*
X137891904Y-108803390D01*
X137891904Y-108803390D02*
X137320476Y-109374819D01*
X137320476Y-109374819D02*
X137939523Y-109374819D01*
X138891904Y-109374819D02*
X138320476Y-109374819D01*
X138606190Y-109374819D02*
X138606190Y-108374819D01*
X138606190Y-108374819D02*
X138510952Y-108517676D01*
X138510952Y-108517676D02*
X138415714Y-108612914D01*
X138415714Y-108612914D02*
X138320476Y-108660533D01*
X24254761Y-86404819D02*
X23921428Y-85928628D01*
X23683333Y-86404819D02*
X23683333Y-85404819D01*
X23683333Y-85404819D02*
X24064285Y-85404819D01*
X24064285Y-85404819D02*
X24159523Y-85452438D01*
X24159523Y-85452438D02*
X24207142Y-85500057D01*
X24207142Y-85500057D02*
X24254761Y-85595295D01*
X24254761Y-85595295D02*
X24254761Y-85738152D01*
X24254761Y-85738152D02*
X24207142Y-85833390D01*
X24207142Y-85833390D02*
X24159523Y-85881009D01*
X24159523Y-85881009D02*
X24064285Y-85928628D01*
X24064285Y-85928628D02*
X23683333Y-85928628D01*
X24540476Y-85404819D02*
X24873809Y-86404819D01*
X24873809Y-86404819D02*
X25207142Y-85404819D01*
X26016666Y-85404819D02*
X25540476Y-85404819D01*
X25540476Y-85404819D02*
X25492857Y-85881009D01*
X25492857Y-85881009D02*
X25540476Y-85833390D01*
X25540476Y-85833390D02*
X25635714Y-85785771D01*
X25635714Y-85785771D02*
X25873809Y-85785771D01*
X25873809Y-85785771D02*
X25969047Y-85833390D01*
X25969047Y-85833390D02*
X26016666Y-85881009D01*
X26016666Y-85881009D02*
X26064285Y-85976247D01*
X26064285Y-85976247D02*
X26064285Y-86214342D01*
X26064285Y-86214342D02*
X26016666Y-86309580D01*
X26016666Y-86309580D02*
X25969047Y-86357200D01*
X25969047Y-86357200D02*
X25873809Y-86404819D01*
X25873809Y-86404819D02*
X25635714Y-86404819D01*
X25635714Y-86404819D02*
X25540476Y-86357200D01*
X25540476Y-86357200D02*
X25492857Y-86309580D01*
X40987142Y-135374819D02*
X40653809Y-134898628D01*
X40415714Y-135374819D02*
X40415714Y-134374819D01*
X40415714Y-134374819D02*
X40796666Y-134374819D01*
X40796666Y-134374819D02*
X40891904Y-134422438D01*
X40891904Y-134422438D02*
X40939523Y-134470057D01*
X40939523Y-134470057D02*
X40987142Y-134565295D01*
X40987142Y-134565295D02*
X40987142Y-134708152D01*
X40987142Y-134708152D02*
X40939523Y-134803390D01*
X40939523Y-134803390D02*
X40891904Y-134851009D01*
X40891904Y-134851009D02*
X40796666Y-134898628D01*
X40796666Y-134898628D02*
X40415714Y-134898628D01*
X41368095Y-134470057D02*
X41415714Y-134422438D01*
X41415714Y-134422438D02*
X41510952Y-134374819D01*
X41510952Y-134374819D02*
X41749047Y-134374819D01*
X41749047Y-134374819D02*
X41844285Y-134422438D01*
X41844285Y-134422438D02*
X41891904Y-134470057D01*
X41891904Y-134470057D02*
X41939523Y-134565295D01*
X41939523Y-134565295D02*
X41939523Y-134660533D01*
X41939523Y-134660533D02*
X41891904Y-134803390D01*
X41891904Y-134803390D02*
X41320476Y-135374819D01*
X41320476Y-135374819D02*
X41939523Y-135374819D01*
X42320476Y-134470057D02*
X42368095Y-134422438D01*
X42368095Y-134422438D02*
X42463333Y-134374819D01*
X42463333Y-134374819D02*
X42701428Y-134374819D01*
X42701428Y-134374819D02*
X42796666Y-134422438D01*
X42796666Y-134422438D02*
X42844285Y-134470057D01*
X42844285Y-134470057D02*
X42891904Y-134565295D01*
X42891904Y-134565295D02*
X42891904Y-134660533D01*
X42891904Y-134660533D02*
X42844285Y-134803390D01*
X42844285Y-134803390D02*
X42272857Y-135374819D01*
X42272857Y-135374819D02*
X42891904Y-135374819D01*
X11916667Y-86407200D02*
X12059524Y-86454819D01*
X12059524Y-86454819D02*
X12297619Y-86454819D01*
X12297619Y-86454819D02*
X12392857Y-86407200D01*
X12392857Y-86407200D02*
X12440476Y-86359580D01*
X12440476Y-86359580D02*
X12488095Y-86264342D01*
X12488095Y-86264342D02*
X12488095Y-86169104D01*
X12488095Y-86169104D02*
X12440476Y-86073866D01*
X12440476Y-86073866D02*
X12392857Y-86026247D01*
X12392857Y-86026247D02*
X12297619Y-85978628D01*
X12297619Y-85978628D02*
X12107143Y-85931009D01*
X12107143Y-85931009D02*
X12011905Y-85883390D01*
X12011905Y-85883390D02*
X11964286Y-85835771D01*
X11964286Y-85835771D02*
X11916667Y-85740533D01*
X11916667Y-85740533D02*
X11916667Y-85645295D01*
X11916667Y-85645295D02*
X11964286Y-85550057D01*
X11964286Y-85550057D02*
X12011905Y-85502438D01*
X12011905Y-85502438D02*
X12107143Y-85454819D01*
X12107143Y-85454819D02*
X12345238Y-85454819D01*
X12345238Y-85454819D02*
X12488095Y-85502438D01*
X12821429Y-85454819D02*
X13059524Y-86454819D01*
X13059524Y-86454819D02*
X13250000Y-85740533D01*
X13250000Y-85740533D02*
X13440476Y-86454819D01*
X13440476Y-86454819D02*
X13678572Y-85454819D01*
X13964286Y-85454819D02*
X14583333Y-85454819D01*
X14583333Y-85454819D02*
X14250000Y-85835771D01*
X14250000Y-85835771D02*
X14392857Y-85835771D01*
X14392857Y-85835771D02*
X14488095Y-85883390D01*
X14488095Y-85883390D02*
X14535714Y-85931009D01*
X14535714Y-85931009D02*
X14583333Y-86026247D01*
X14583333Y-86026247D02*
X14583333Y-86264342D01*
X14583333Y-86264342D02*
X14535714Y-86359580D01*
X14535714Y-86359580D02*
X14488095Y-86407200D01*
X14488095Y-86407200D02*
X14392857Y-86454819D01*
X14392857Y-86454819D02*
X14107143Y-86454819D01*
X14107143Y-86454819D02*
X14011905Y-86407200D01*
X14011905Y-86407200D02*
X13964286Y-86359580D01*
X55778571Y-138404819D02*
X55445238Y-137928628D01*
X55207143Y-138404819D02*
X55207143Y-137404819D01*
X55207143Y-137404819D02*
X55588095Y-137404819D01*
X55588095Y-137404819D02*
X55683333Y-137452438D01*
X55683333Y-137452438D02*
X55730952Y-137500057D01*
X55730952Y-137500057D02*
X55778571Y-137595295D01*
X55778571Y-137595295D02*
X55778571Y-137738152D01*
X55778571Y-137738152D02*
X55730952Y-137833390D01*
X55730952Y-137833390D02*
X55683333Y-137881009D01*
X55683333Y-137881009D02*
X55588095Y-137928628D01*
X55588095Y-137928628D02*
X55207143Y-137928628D01*
X56064286Y-137404819D02*
X56397619Y-138404819D01*
X56397619Y-138404819D02*
X56730952Y-137404819D01*
X57588095Y-138404819D02*
X57016667Y-138404819D01*
X57302381Y-138404819D02*
X57302381Y-137404819D01*
X57302381Y-137404819D02*
X57207143Y-137547676D01*
X57207143Y-137547676D02*
X57111905Y-137642914D01*
X57111905Y-137642914D02*
X57016667Y-137690533D01*
X58445238Y-137738152D02*
X58445238Y-138404819D01*
X58207143Y-137357200D02*
X57969048Y-138071485D01*
X57969048Y-138071485D02*
X58588095Y-138071485D01*
X126858095Y-169124819D02*
X126858095Y-169934342D01*
X126858095Y-169934342D02*
X126905714Y-170029580D01*
X126905714Y-170029580D02*
X126953333Y-170077200D01*
X126953333Y-170077200D02*
X127048571Y-170124819D01*
X127048571Y-170124819D02*
X127239047Y-170124819D01*
X127239047Y-170124819D02*
X127334285Y-170077200D01*
X127334285Y-170077200D02*
X127381904Y-170029580D01*
X127381904Y-170029580D02*
X127429523Y-169934342D01*
X127429523Y-169934342D02*
X127429523Y-169124819D01*
X127858095Y-169220057D02*
X127905714Y-169172438D01*
X127905714Y-169172438D02*
X128000952Y-169124819D01*
X128000952Y-169124819D02*
X128239047Y-169124819D01*
X128239047Y-169124819D02*
X128334285Y-169172438D01*
X128334285Y-169172438D02*
X128381904Y-169220057D01*
X128381904Y-169220057D02*
X128429523Y-169315295D01*
X128429523Y-169315295D02*
X128429523Y-169410533D01*
X128429523Y-169410533D02*
X128381904Y-169553390D01*
X128381904Y-169553390D02*
X127810476Y-170124819D01*
X127810476Y-170124819D02*
X128429523Y-170124819D01*
X136987142Y-83374819D02*
X136653809Y-82898628D01*
X136415714Y-83374819D02*
X136415714Y-82374819D01*
X136415714Y-82374819D02*
X136796666Y-82374819D01*
X136796666Y-82374819D02*
X136891904Y-82422438D01*
X136891904Y-82422438D02*
X136939523Y-82470057D01*
X136939523Y-82470057D02*
X136987142Y-82565295D01*
X136987142Y-82565295D02*
X136987142Y-82708152D01*
X136987142Y-82708152D02*
X136939523Y-82803390D01*
X136939523Y-82803390D02*
X136891904Y-82851009D01*
X136891904Y-82851009D02*
X136796666Y-82898628D01*
X136796666Y-82898628D02*
X136415714Y-82898628D01*
X137939523Y-83374819D02*
X137368095Y-83374819D01*
X137653809Y-83374819D02*
X137653809Y-82374819D01*
X137653809Y-82374819D02*
X137558571Y-82517676D01*
X137558571Y-82517676D02*
X137463333Y-82612914D01*
X137463333Y-82612914D02*
X137368095Y-82660533D01*
X138272857Y-82374819D02*
X138939523Y-82374819D01*
X138939523Y-82374819D02*
X138510952Y-83374819D01*
X123841905Y-23984819D02*
X123841905Y-22984819D01*
X123841905Y-22984819D02*
X124080000Y-22984819D01*
X124080000Y-22984819D02*
X124222857Y-23032438D01*
X124222857Y-23032438D02*
X124318095Y-23127676D01*
X124318095Y-23127676D02*
X124365714Y-23222914D01*
X124365714Y-23222914D02*
X124413333Y-23413390D01*
X124413333Y-23413390D02*
X124413333Y-23556247D01*
X124413333Y-23556247D02*
X124365714Y-23746723D01*
X124365714Y-23746723D02*
X124318095Y-23841961D01*
X124318095Y-23841961D02*
X124222857Y-23937200D01*
X124222857Y-23937200D02*
X124080000Y-23984819D01*
X124080000Y-23984819D02*
X123841905Y-23984819D01*
X124794286Y-23080057D02*
X124841905Y-23032438D01*
X124841905Y-23032438D02*
X124937143Y-22984819D01*
X124937143Y-22984819D02*
X125175238Y-22984819D01*
X125175238Y-22984819D02*
X125270476Y-23032438D01*
X125270476Y-23032438D02*
X125318095Y-23080057D01*
X125318095Y-23080057D02*
X125365714Y-23175295D01*
X125365714Y-23175295D02*
X125365714Y-23270533D01*
X125365714Y-23270533D02*
X125318095Y-23413390D01*
X125318095Y-23413390D02*
X124746667Y-23984819D01*
X124746667Y-23984819D02*
X125365714Y-23984819D01*
X125794286Y-23984819D02*
X125794286Y-22984819D01*
X125794286Y-22984819D02*
X126032381Y-22984819D01*
X126032381Y-22984819D02*
X126175238Y-23032438D01*
X126175238Y-23032438D02*
X126270476Y-23127676D01*
X126270476Y-23127676D02*
X126318095Y-23222914D01*
X126318095Y-23222914D02*
X126365714Y-23413390D01*
X126365714Y-23413390D02*
X126365714Y-23556247D01*
X126365714Y-23556247D02*
X126318095Y-23746723D01*
X126318095Y-23746723D02*
X126270476Y-23841961D01*
X126270476Y-23841961D02*
X126175238Y-23937200D01*
X126175238Y-23937200D02*
X126032381Y-23984819D01*
X126032381Y-23984819D02*
X125794286Y-23984819D01*
X119738095Y-24354819D02*
X119738095Y-23354819D01*
X120309523Y-24354819D02*
X119880952Y-23783390D01*
X120309523Y-23354819D02*
X119738095Y-23926247D01*
X84656667Y-32417200D02*
X84799524Y-32464819D01*
X84799524Y-32464819D02*
X85037619Y-32464819D01*
X85037619Y-32464819D02*
X85132857Y-32417200D01*
X85132857Y-32417200D02*
X85180476Y-32369580D01*
X85180476Y-32369580D02*
X85228095Y-32274342D01*
X85228095Y-32274342D02*
X85228095Y-32179104D01*
X85228095Y-32179104D02*
X85180476Y-32083866D01*
X85180476Y-32083866D02*
X85132857Y-32036247D01*
X85132857Y-32036247D02*
X85037619Y-31988628D01*
X85037619Y-31988628D02*
X84847143Y-31941009D01*
X84847143Y-31941009D02*
X84751905Y-31893390D01*
X84751905Y-31893390D02*
X84704286Y-31845771D01*
X84704286Y-31845771D02*
X84656667Y-31750533D01*
X84656667Y-31750533D02*
X84656667Y-31655295D01*
X84656667Y-31655295D02*
X84704286Y-31560057D01*
X84704286Y-31560057D02*
X84751905Y-31512438D01*
X84751905Y-31512438D02*
X84847143Y-31464819D01*
X84847143Y-31464819D02*
X85085238Y-31464819D01*
X85085238Y-31464819D02*
X85228095Y-31512438D01*
X85561429Y-31464819D02*
X85799524Y-32464819D01*
X85799524Y-32464819D02*
X85990000Y-31750533D01*
X85990000Y-31750533D02*
X86180476Y-32464819D01*
X86180476Y-32464819D02*
X86418572Y-31464819D01*
X87323333Y-32464819D02*
X86751905Y-32464819D01*
X87037619Y-32464819D02*
X87037619Y-31464819D01*
X87037619Y-31464819D02*
X86942381Y-31607676D01*
X86942381Y-31607676D02*
X86847143Y-31702914D01*
X86847143Y-31702914D02*
X86751905Y-31750533D01*
X80985238Y-219454819D02*
X80985238Y-220169104D01*
X80985238Y-220169104D02*
X80937619Y-220311961D01*
X80937619Y-220311961D02*
X80842381Y-220407200D01*
X80842381Y-220407200D02*
X80699524Y-220454819D01*
X80699524Y-220454819D02*
X80604286Y-220454819D01*
X81461429Y-220454819D02*
X81461429Y-219454819D01*
X81461429Y-219454819D02*
X81794762Y-220169104D01*
X81794762Y-220169104D02*
X82128095Y-219454819D01*
X82128095Y-219454819D02*
X82128095Y-220454819D01*
X82604286Y-220454819D02*
X82604286Y-219454819D01*
X82604286Y-219454819D02*
X82842381Y-219454819D01*
X82842381Y-219454819D02*
X82985238Y-219502438D01*
X82985238Y-219502438D02*
X83080476Y-219597676D01*
X83080476Y-219597676D02*
X83128095Y-219692914D01*
X83128095Y-219692914D02*
X83175714Y-219883390D01*
X83175714Y-219883390D02*
X83175714Y-220026247D01*
X83175714Y-220026247D02*
X83128095Y-220216723D01*
X83128095Y-220216723D02*
X83080476Y-220311961D01*
X83080476Y-220311961D02*
X82985238Y-220407200D01*
X82985238Y-220407200D02*
X82842381Y-220454819D01*
X82842381Y-220454819D02*
X82604286Y-220454819D01*
X84032857Y-219788152D02*
X84032857Y-220454819D01*
X83794762Y-219407200D02*
X83556667Y-220121485D01*
X83556667Y-220121485D02*
X84175714Y-220121485D01*
X104987142Y-109374819D02*
X104653809Y-108898628D01*
X104415714Y-109374819D02*
X104415714Y-108374819D01*
X104415714Y-108374819D02*
X104796666Y-108374819D01*
X104796666Y-108374819D02*
X104891904Y-108422438D01*
X104891904Y-108422438D02*
X104939523Y-108470057D01*
X104939523Y-108470057D02*
X104987142Y-108565295D01*
X104987142Y-108565295D02*
X104987142Y-108708152D01*
X104987142Y-108708152D02*
X104939523Y-108803390D01*
X104939523Y-108803390D02*
X104891904Y-108851009D01*
X104891904Y-108851009D02*
X104796666Y-108898628D01*
X104796666Y-108898628D02*
X104415714Y-108898628D01*
X105368095Y-108470057D02*
X105415714Y-108422438D01*
X105415714Y-108422438D02*
X105510952Y-108374819D01*
X105510952Y-108374819D02*
X105749047Y-108374819D01*
X105749047Y-108374819D02*
X105844285Y-108422438D01*
X105844285Y-108422438D02*
X105891904Y-108470057D01*
X105891904Y-108470057D02*
X105939523Y-108565295D01*
X105939523Y-108565295D02*
X105939523Y-108660533D01*
X105939523Y-108660533D02*
X105891904Y-108803390D01*
X105891904Y-108803390D02*
X105320476Y-109374819D01*
X105320476Y-109374819D02*
X105939523Y-109374819D01*
X106558571Y-108374819D02*
X106653809Y-108374819D01*
X106653809Y-108374819D02*
X106749047Y-108422438D01*
X106749047Y-108422438D02*
X106796666Y-108470057D01*
X106796666Y-108470057D02*
X106844285Y-108565295D01*
X106844285Y-108565295D02*
X106891904Y-108755771D01*
X106891904Y-108755771D02*
X106891904Y-108993866D01*
X106891904Y-108993866D02*
X106844285Y-109184342D01*
X106844285Y-109184342D02*
X106796666Y-109279580D01*
X106796666Y-109279580D02*
X106749047Y-109327200D01*
X106749047Y-109327200D02*
X106653809Y-109374819D01*
X106653809Y-109374819D02*
X106558571Y-109374819D01*
X106558571Y-109374819D02*
X106463333Y-109327200D01*
X106463333Y-109327200D02*
X106415714Y-109279580D01*
X106415714Y-109279580D02*
X106368095Y-109184342D01*
X106368095Y-109184342D02*
X106320476Y-108993866D01*
X106320476Y-108993866D02*
X106320476Y-108755771D01*
X106320476Y-108755771D02*
X106368095Y-108565295D01*
X106368095Y-108565295D02*
X106415714Y-108470057D01*
X106415714Y-108470057D02*
X106463333Y-108422438D01*
X106463333Y-108422438D02*
X106558571Y-108374819D01*
X55778571Y-112404819D02*
X55445238Y-111928628D01*
X55207143Y-112404819D02*
X55207143Y-111404819D01*
X55207143Y-111404819D02*
X55588095Y-111404819D01*
X55588095Y-111404819D02*
X55683333Y-111452438D01*
X55683333Y-111452438D02*
X55730952Y-111500057D01*
X55730952Y-111500057D02*
X55778571Y-111595295D01*
X55778571Y-111595295D02*
X55778571Y-111738152D01*
X55778571Y-111738152D02*
X55730952Y-111833390D01*
X55730952Y-111833390D02*
X55683333Y-111881009D01*
X55683333Y-111881009D02*
X55588095Y-111928628D01*
X55588095Y-111928628D02*
X55207143Y-111928628D01*
X56064286Y-111404819D02*
X56397619Y-112404819D01*
X56397619Y-112404819D02*
X56730952Y-111404819D01*
X57588095Y-112404819D02*
X57016667Y-112404819D01*
X57302381Y-112404819D02*
X57302381Y-111404819D01*
X57302381Y-111404819D02*
X57207143Y-111547676D01*
X57207143Y-111547676D02*
X57111905Y-111642914D01*
X57111905Y-111642914D02*
X57016667Y-111690533D01*
X58207143Y-111404819D02*
X58302381Y-111404819D01*
X58302381Y-111404819D02*
X58397619Y-111452438D01*
X58397619Y-111452438D02*
X58445238Y-111500057D01*
X58445238Y-111500057D02*
X58492857Y-111595295D01*
X58492857Y-111595295D02*
X58540476Y-111785771D01*
X58540476Y-111785771D02*
X58540476Y-112023866D01*
X58540476Y-112023866D02*
X58492857Y-112214342D01*
X58492857Y-112214342D02*
X58445238Y-112309580D01*
X58445238Y-112309580D02*
X58397619Y-112357200D01*
X58397619Y-112357200D02*
X58302381Y-112404819D01*
X58302381Y-112404819D02*
X58207143Y-112404819D01*
X58207143Y-112404819D02*
X58111905Y-112357200D01*
X58111905Y-112357200D02*
X58064286Y-112309580D01*
X58064286Y-112309580D02*
X58016667Y-112214342D01*
X58016667Y-112214342D02*
X57969048Y-112023866D01*
X57969048Y-112023866D02*
X57969048Y-111785771D01*
X57969048Y-111785771D02*
X58016667Y-111595295D01*
X58016667Y-111595295D02*
X58064286Y-111500057D01*
X58064286Y-111500057D02*
X58111905Y-111452438D01*
X58111905Y-111452438D02*
X58207143Y-111404819D01*
X110857142Y-119859580D02*
X110809523Y-119907200D01*
X110809523Y-119907200D02*
X110666666Y-119954819D01*
X110666666Y-119954819D02*
X110571428Y-119954819D01*
X110571428Y-119954819D02*
X110428571Y-119907200D01*
X110428571Y-119907200D02*
X110333333Y-119811961D01*
X110333333Y-119811961D02*
X110285714Y-119716723D01*
X110285714Y-119716723D02*
X110238095Y-119526247D01*
X110238095Y-119526247D02*
X110238095Y-119383390D01*
X110238095Y-119383390D02*
X110285714Y-119192914D01*
X110285714Y-119192914D02*
X110333333Y-119097676D01*
X110333333Y-119097676D02*
X110428571Y-119002438D01*
X110428571Y-119002438D02*
X110571428Y-118954819D01*
X110571428Y-118954819D02*
X110666666Y-118954819D01*
X110666666Y-118954819D02*
X110809523Y-119002438D01*
X110809523Y-119002438D02*
X110857142Y-119050057D01*
X111809523Y-119954819D02*
X111238095Y-119954819D01*
X111523809Y-119954819D02*
X111523809Y-118954819D01*
X111523809Y-118954819D02*
X111428571Y-119097676D01*
X111428571Y-119097676D02*
X111333333Y-119192914D01*
X111333333Y-119192914D02*
X111238095Y-119240533D01*
X112190476Y-119050057D02*
X112238095Y-119002438D01*
X112238095Y-119002438D02*
X112333333Y-118954819D01*
X112333333Y-118954819D02*
X112571428Y-118954819D01*
X112571428Y-118954819D02*
X112666666Y-119002438D01*
X112666666Y-119002438D02*
X112714285Y-119050057D01*
X112714285Y-119050057D02*
X112761904Y-119145295D01*
X112761904Y-119145295D02*
X112761904Y-119240533D01*
X112761904Y-119240533D02*
X112714285Y-119383390D01*
X112714285Y-119383390D02*
X112142857Y-119954819D01*
X112142857Y-119954819D02*
X112761904Y-119954819D01*
X56254761Y-86404819D02*
X55921428Y-85928628D01*
X55683333Y-86404819D02*
X55683333Y-85404819D01*
X55683333Y-85404819D02*
X56064285Y-85404819D01*
X56064285Y-85404819D02*
X56159523Y-85452438D01*
X56159523Y-85452438D02*
X56207142Y-85500057D01*
X56207142Y-85500057D02*
X56254761Y-85595295D01*
X56254761Y-85595295D02*
X56254761Y-85738152D01*
X56254761Y-85738152D02*
X56207142Y-85833390D01*
X56207142Y-85833390D02*
X56159523Y-85881009D01*
X56159523Y-85881009D02*
X56064285Y-85928628D01*
X56064285Y-85928628D02*
X55683333Y-85928628D01*
X56540476Y-85404819D02*
X56873809Y-86404819D01*
X56873809Y-86404819D02*
X57207142Y-85404819D01*
X57969047Y-85404819D02*
X57778571Y-85404819D01*
X57778571Y-85404819D02*
X57683333Y-85452438D01*
X57683333Y-85452438D02*
X57635714Y-85500057D01*
X57635714Y-85500057D02*
X57540476Y-85642914D01*
X57540476Y-85642914D02*
X57492857Y-85833390D01*
X57492857Y-85833390D02*
X57492857Y-86214342D01*
X57492857Y-86214342D02*
X57540476Y-86309580D01*
X57540476Y-86309580D02*
X57588095Y-86357200D01*
X57588095Y-86357200D02*
X57683333Y-86404819D01*
X57683333Y-86404819D02*
X57873809Y-86404819D01*
X57873809Y-86404819D02*
X57969047Y-86357200D01*
X57969047Y-86357200D02*
X58016666Y-86309580D01*
X58016666Y-86309580D02*
X58064285Y-86214342D01*
X58064285Y-86214342D02*
X58064285Y-85976247D01*
X58064285Y-85976247D02*
X58016666Y-85881009D01*
X58016666Y-85881009D02*
X57969047Y-85833390D01*
X57969047Y-85833390D02*
X57873809Y-85785771D01*
X57873809Y-85785771D02*
X57683333Y-85785771D01*
X57683333Y-85785771D02*
X57588095Y-85833390D01*
X57588095Y-85833390D02*
X57540476Y-85881009D01*
X57540476Y-85881009D02*
X57492857Y-85976247D01*
X156301905Y-109184819D02*
X156301905Y-108184819D01*
X156301905Y-108184819D02*
X156540000Y-108184819D01*
X156540000Y-108184819D02*
X156682857Y-108232438D01*
X156682857Y-108232438D02*
X156778095Y-108327676D01*
X156778095Y-108327676D02*
X156825714Y-108422914D01*
X156825714Y-108422914D02*
X156873333Y-108613390D01*
X156873333Y-108613390D02*
X156873333Y-108756247D01*
X156873333Y-108756247D02*
X156825714Y-108946723D01*
X156825714Y-108946723D02*
X156778095Y-109041961D01*
X156778095Y-109041961D02*
X156682857Y-109137200D01*
X156682857Y-109137200D02*
X156540000Y-109184819D01*
X156540000Y-109184819D02*
X156301905Y-109184819D01*
X157778095Y-108184819D02*
X157301905Y-108184819D01*
X157301905Y-108184819D02*
X157254286Y-108661009D01*
X157254286Y-108661009D02*
X157301905Y-108613390D01*
X157301905Y-108613390D02*
X157397143Y-108565771D01*
X157397143Y-108565771D02*
X157635238Y-108565771D01*
X157635238Y-108565771D02*
X157730476Y-108613390D01*
X157730476Y-108613390D02*
X157778095Y-108661009D01*
X157778095Y-108661009D02*
X157825714Y-108756247D01*
X157825714Y-108756247D02*
X157825714Y-108994342D01*
X157825714Y-108994342D02*
X157778095Y-109089580D01*
X157778095Y-109089580D02*
X157730476Y-109137200D01*
X157730476Y-109137200D02*
X157635238Y-109184819D01*
X157635238Y-109184819D02*
X157397143Y-109184819D01*
X157397143Y-109184819D02*
X157301905Y-109137200D01*
X157301905Y-109137200D02*
X157254286Y-109089580D01*
X40987142Y-57374819D02*
X40653809Y-56898628D01*
X40415714Y-57374819D02*
X40415714Y-56374819D01*
X40415714Y-56374819D02*
X40796666Y-56374819D01*
X40796666Y-56374819D02*
X40891904Y-56422438D01*
X40891904Y-56422438D02*
X40939523Y-56470057D01*
X40939523Y-56470057D02*
X40987142Y-56565295D01*
X40987142Y-56565295D02*
X40987142Y-56708152D01*
X40987142Y-56708152D02*
X40939523Y-56803390D01*
X40939523Y-56803390D02*
X40891904Y-56851009D01*
X40891904Y-56851009D02*
X40796666Y-56898628D01*
X40796666Y-56898628D02*
X40415714Y-56898628D01*
X41939523Y-57374819D02*
X41368095Y-57374819D01*
X41653809Y-57374819D02*
X41653809Y-56374819D01*
X41653809Y-56374819D02*
X41558571Y-56517676D01*
X41558571Y-56517676D02*
X41463333Y-56612914D01*
X41463333Y-56612914D02*
X41368095Y-56660533D01*
X42558571Y-56374819D02*
X42653809Y-56374819D01*
X42653809Y-56374819D02*
X42749047Y-56422438D01*
X42749047Y-56422438D02*
X42796666Y-56470057D01*
X42796666Y-56470057D02*
X42844285Y-56565295D01*
X42844285Y-56565295D02*
X42891904Y-56755771D01*
X42891904Y-56755771D02*
X42891904Y-56993866D01*
X42891904Y-56993866D02*
X42844285Y-57184342D01*
X42844285Y-57184342D02*
X42796666Y-57279580D01*
X42796666Y-57279580D02*
X42749047Y-57327200D01*
X42749047Y-57327200D02*
X42653809Y-57374819D01*
X42653809Y-57374819D02*
X42558571Y-57374819D01*
X42558571Y-57374819D02*
X42463333Y-57327200D01*
X42463333Y-57327200D02*
X42415714Y-57279580D01*
X42415714Y-57279580D02*
X42368095Y-57184342D01*
X42368095Y-57184342D02*
X42320476Y-56993866D01*
X42320476Y-56993866D02*
X42320476Y-56755771D01*
X42320476Y-56755771D02*
X42368095Y-56565295D01*
X42368095Y-56565295D02*
X42415714Y-56470057D01*
X42415714Y-56470057D02*
X42463333Y-56422438D01*
X42463333Y-56422438D02*
X42558571Y-56374819D01*
X60913333Y-39084819D02*
X60580000Y-38608628D01*
X60341905Y-39084819D02*
X60341905Y-38084819D01*
X60341905Y-38084819D02*
X60722857Y-38084819D01*
X60722857Y-38084819D02*
X60818095Y-38132438D01*
X60818095Y-38132438D02*
X60865714Y-38180057D01*
X60865714Y-38180057D02*
X60913333Y-38275295D01*
X60913333Y-38275295D02*
X60913333Y-38418152D01*
X60913333Y-38418152D02*
X60865714Y-38513390D01*
X60865714Y-38513390D02*
X60818095Y-38561009D01*
X60818095Y-38561009D02*
X60722857Y-38608628D01*
X60722857Y-38608628D02*
X60341905Y-38608628D01*
X61770476Y-38418152D02*
X61770476Y-39084819D01*
X61532381Y-38037200D02*
X61294286Y-38751485D01*
X61294286Y-38751485D02*
X61913333Y-38751485D01*
X58125238Y-219454819D02*
X58125238Y-220169104D01*
X58125238Y-220169104D02*
X58077619Y-220311961D01*
X58077619Y-220311961D02*
X57982381Y-220407200D01*
X57982381Y-220407200D02*
X57839524Y-220454819D01*
X57839524Y-220454819D02*
X57744286Y-220454819D01*
X58601429Y-220454819D02*
X58601429Y-219454819D01*
X58601429Y-219454819D02*
X58934762Y-220169104D01*
X58934762Y-220169104D02*
X59268095Y-219454819D01*
X59268095Y-219454819D02*
X59268095Y-220454819D01*
X59744286Y-220454819D02*
X59744286Y-219454819D01*
X59744286Y-219454819D02*
X59982381Y-219454819D01*
X59982381Y-219454819D02*
X60125238Y-219502438D01*
X60125238Y-219502438D02*
X60220476Y-219597676D01*
X60220476Y-219597676D02*
X60268095Y-219692914D01*
X60268095Y-219692914D02*
X60315714Y-219883390D01*
X60315714Y-219883390D02*
X60315714Y-220026247D01*
X60315714Y-220026247D02*
X60268095Y-220216723D01*
X60268095Y-220216723D02*
X60220476Y-220311961D01*
X60220476Y-220311961D02*
X60125238Y-220407200D01*
X60125238Y-220407200D02*
X59982381Y-220454819D01*
X59982381Y-220454819D02*
X59744286Y-220454819D01*
X60649048Y-219454819D02*
X61268095Y-219454819D01*
X61268095Y-219454819D02*
X60934762Y-219835771D01*
X60934762Y-219835771D02*
X61077619Y-219835771D01*
X61077619Y-219835771D02*
X61172857Y-219883390D01*
X61172857Y-219883390D02*
X61220476Y-219931009D01*
X61220476Y-219931009D02*
X61268095Y-220026247D01*
X61268095Y-220026247D02*
X61268095Y-220264342D01*
X61268095Y-220264342D02*
X61220476Y-220359580D01*
X61220476Y-220359580D02*
X61172857Y-220407200D01*
X61172857Y-220407200D02*
X61077619Y-220454819D01*
X61077619Y-220454819D02*
X60791905Y-220454819D01*
X60791905Y-220454819D02*
X60696667Y-220407200D01*
X60696667Y-220407200D02*
X60649048Y-220359580D01*
X24913333Y-31084819D02*
X24580000Y-30608628D01*
X24341905Y-31084819D02*
X24341905Y-30084819D01*
X24341905Y-30084819D02*
X24722857Y-30084819D01*
X24722857Y-30084819D02*
X24818095Y-30132438D01*
X24818095Y-30132438D02*
X24865714Y-30180057D01*
X24865714Y-30180057D02*
X24913333Y-30275295D01*
X24913333Y-30275295D02*
X24913333Y-30418152D01*
X24913333Y-30418152D02*
X24865714Y-30513390D01*
X24865714Y-30513390D02*
X24818095Y-30561009D01*
X24818095Y-30561009D02*
X24722857Y-30608628D01*
X24722857Y-30608628D02*
X24341905Y-30608628D01*
X25865714Y-31084819D02*
X25294286Y-31084819D01*
X25580000Y-31084819D02*
X25580000Y-30084819D01*
X25580000Y-30084819D02*
X25484762Y-30227676D01*
X25484762Y-30227676D02*
X25389524Y-30322914D01*
X25389524Y-30322914D02*
X25294286Y-30370533D01*
X151857142Y-181859580D02*
X151809523Y-181907200D01*
X151809523Y-181907200D02*
X151666666Y-181954819D01*
X151666666Y-181954819D02*
X151571428Y-181954819D01*
X151571428Y-181954819D02*
X151428571Y-181907200D01*
X151428571Y-181907200D02*
X151333333Y-181811961D01*
X151333333Y-181811961D02*
X151285714Y-181716723D01*
X151285714Y-181716723D02*
X151238095Y-181526247D01*
X151238095Y-181526247D02*
X151238095Y-181383390D01*
X151238095Y-181383390D02*
X151285714Y-181192914D01*
X151285714Y-181192914D02*
X151333333Y-181097676D01*
X151333333Y-181097676D02*
X151428571Y-181002438D01*
X151428571Y-181002438D02*
X151571428Y-180954819D01*
X151571428Y-180954819D02*
X151666666Y-180954819D01*
X151666666Y-180954819D02*
X151809523Y-181002438D01*
X151809523Y-181002438D02*
X151857142Y-181050057D01*
X152809523Y-181954819D02*
X152238095Y-181954819D01*
X152523809Y-181954819D02*
X152523809Y-180954819D01*
X152523809Y-180954819D02*
X152428571Y-181097676D01*
X152428571Y-181097676D02*
X152333333Y-181192914D01*
X152333333Y-181192914D02*
X152238095Y-181240533D01*
X153380952Y-181383390D02*
X153285714Y-181335771D01*
X153285714Y-181335771D02*
X153238095Y-181288152D01*
X153238095Y-181288152D02*
X153190476Y-181192914D01*
X153190476Y-181192914D02*
X153190476Y-181145295D01*
X153190476Y-181145295D02*
X153238095Y-181050057D01*
X153238095Y-181050057D02*
X153285714Y-181002438D01*
X153285714Y-181002438D02*
X153380952Y-180954819D01*
X153380952Y-180954819D02*
X153571428Y-180954819D01*
X153571428Y-180954819D02*
X153666666Y-181002438D01*
X153666666Y-181002438D02*
X153714285Y-181050057D01*
X153714285Y-181050057D02*
X153761904Y-181145295D01*
X153761904Y-181145295D02*
X153761904Y-181192914D01*
X153761904Y-181192914D02*
X153714285Y-181288152D01*
X153714285Y-181288152D02*
X153666666Y-181335771D01*
X153666666Y-181335771D02*
X153571428Y-181383390D01*
X153571428Y-181383390D02*
X153380952Y-181383390D01*
X153380952Y-181383390D02*
X153285714Y-181431009D01*
X153285714Y-181431009D02*
X153238095Y-181478628D01*
X153238095Y-181478628D02*
X153190476Y-181573866D01*
X153190476Y-181573866D02*
X153190476Y-181764342D01*
X153190476Y-181764342D02*
X153238095Y-181859580D01*
X153238095Y-181859580D02*
X153285714Y-181907200D01*
X153285714Y-181907200D02*
X153380952Y-181954819D01*
X153380952Y-181954819D02*
X153571428Y-181954819D01*
X153571428Y-181954819D02*
X153666666Y-181907200D01*
X153666666Y-181907200D02*
X153714285Y-181859580D01*
X153714285Y-181859580D02*
X153761904Y-181764342D01*
X153761904Y-181764342D02*
X153761904Y-181573866D01*
X153761904Y-181573866D02*
X153714285Y-181478628D01*
X153714285Y-181478628D02*
X153666666Y-181431009D01*
X153666666Y-181431009D02*
X153571428Y-181383390D01*
X156301905Y-131184819D02*
X156301905Y-130184819D01*
X156301905Y-130184819D02*
X156540000Y-130184819D01*
X156540000Y-130184819D02*
X156682857Y-130232438D01*
X156682857Y-130232438D02*
X156778095Y-130327676D01*
X156778095Y-130327676D02*
X156825714Y-130422914D01*
X156825714Y-130422914D02*
X156873333Y-130613390D01*
X156873333Y-130613390D02*
X156873333Y-130756247D01*
X156873333Y-130756247D02*
X156825714Y-130946723D01*
X156825714Y-130946723D02*
X156778095Y-131041961D01*
X156778095Y-131041961D02*
X156682857Y-131137200D01*
X156682857Y-131137200D02*
X156540000Y-131184819D01*
X156540000Y-131184819D02*
X156301905Y-131184819D01*
X157730476Y-130184819D02*
X157540000Y-130184819D01*
X157540000Y-130184819D02*
X157444762Y-130232438D01*
X157444762Y-130232438D02*
X157397143Y-130280057D01*
X157397143Y-130280057D02*
X157301905Y-130422914D01*
X157301905Y-130422914D02*
X157254286Y-130613390D01*
X157254286Y-130613390D02*
X157254286Y-130994342D01*
X157254286Y-130994342D02*
X157301905Y-131089580D01*
X157301905Y-131089580D02*
X157349524Y-131137200D01*
X157349524Y-131137200D02*
X157444762Y-131184819D01*
X157444762Y-131184819D02*
X157635238Y-131184819D01*
X157635238Y-131184819D02*
X157730476Y-131137200D01*
X157730476Y-131137200D02*
X157778095Y-131089580D01*
X157778095Y-131089580D02*
X157825714Y-130994342D01*
X157825714Y-130994342D02*
X157825714Y-130756247D01*
X157825714Y-130756247D02*
X157778095Y-130661009D01*
X157778095Y-130661009D02*
X157730476Y-130613390D01*
X157730476Y-130613390D02*
X157635238Y-130565771D01*
X157635238Y-130565771D02*
X157444762Y-130565771D01*
X157444762Y-130565771D02*
X157349524Y-130613390D01*
X157349524Y-130613390D02*
X157301905Y-130661009D01*
X157301905Y-130661009D02*
X157254286Y-130756247D01*
X88254761Y-86404819D02*
X87921428Y-85928628D01*
X87683333Y-86404819D02*
X87683333Y-85404819D01*
X87683333Y-85404819D02*
X88064285Y-85404819D01*
X88064285Y-85404819D02*
X88159523Y-85452438D01*
X88159523Y-85452438D02*
X88207142Y-85500057D01*
X88207142Y-85500057D02*
X88254761Y-85595295D01*
X88254761Y-85595295D02*
X88254761Y-85738152D01*
X88254761Y-85738152D02*
X88207142Y-85833390D01*
X88207142Y-85833390D02*
X88159523Y-85881009D01*
X88159523Y-85881009D02*
X88064285Y-85928628D01*
X88064285Y-85928628D02*
X87683333Y-85928628D01*
X88540476Y-85404819D02*
X88873809Y-86404819D01*
X88873809Y-86404819D02*
X89207142Y-85404819D01*
X89445238Y-85404819D02*
X90111904Y-85404819D01*
X90111904Y-85404819D02*
X89683333Y-86404819D01*
X142857142Y-119859580D02*
X142809523Y-119907200D01*
X142809523Y-119907200D02*
X142666666Y-119954819D01*
X142666666Y-119954819D02*
X142571428Y-119954819D01*
X142571428Y-119954819D02*
X142428571Y-119907200D01*
X142428571Y-119907200D02*
X142333333Y-119811961D01*
X142333333Y-119811961D02*
X142285714Y-119716723D01*
X142285714Y-119716723D02*
X142238095Y-119526247D01*
X142238095Y-119526247D02*
X142238095Y-119383390D01*
X142238095Y-119383390D02*
X142285714Y-119192914D01*
X142285714Y-119192914D02*
X142333333Y-119097676D01*
X142333333Y-119097676D02*
X142428571Y-119002438D01*
X142428571Y-119002438D02*
X142571428Y-118954819D01*
X142571428Y-118954819D02*
X142666666Y-118954819D01*
X142666666Y-118954819D02*
X142809523Y-119002438D01*
X142809523Y-119002438D02*
X142857142Y-119050057D01*
X143809523Y-119954819D02*
X143238095Y-119954819D01*
X143523809Y-119954819D02*
X143523809Y-118954819D01*
X143523809Y-118954819D02*
X143428571Y-119097676D01*
X143428571Y-119097676D02*
X143333333Y-119192914D01*
X143333333Y-119192914D02*
X143238095Y-119240533D01*
X144142857Y-118954819D02*
X144761904Y-118954819D01*
X144761904Y-118954819D02*
X144428571Y-119335771D01*
X144428571Y-119335771D02*
X144571428Y-119335771D01*
X144571428Y-119335771D02*
X144666666Y-119383390D01*
X144666666Y-119383390D02*
X144714285Y-119431009D01*
X144714285Y-119431009D02*
X144761904Y-119526247D01*
X144761904Y-119526247D02*
X144761904Y-119764342D01*
X144761904Y-119764342D02*
X144714285Y-119859580D01*
X144714285Y-119859580D02*
X144666666Y-119907200D01*
X144666666Y-119907200D02*
X144571428Y-119954819D01*
X144571428Y-119954819D02*
X144285714Y-119954819D01*
X144285714Y-119954819D02*
X144190476Y-119907200D01*
X144190476Y-119907200D02*
X144142857Y-119859580D01*
X78857142Y-145859580D02*
X78809523Y-145907200D01*
X78809523Y-145907200D02*
X78666666Y-145954819D01*
X78666666Y-145954819D02*
X78571428Y-145954819D01*
X78571428Y-145954819D02*
X78428571Y-145907200D01*
X78428571Y-145907200D02*
X78333333Y-145811961D01*
X78333333Y-145811961D02*
X78285714Y-145716723D01*
X78285714Y-145716723D02*
X78238095Y-145526247D01*
X78238095Y-145526247D02*
X78238095Y-145383390D01*
X78238095Y-145383390D02*
X78285714Y-145192914D01*
X78285714Y-145192914D02*
X78333333Y-145097676D01*
X78333333Y-145097676D02*
X78428571Y-145002438D01*
X78428571Y-145002438D02*
X78571428Y-144954819D01*
X78571428Y-144954819D02*
X78666666Y-144954819D01*
X78666666Y-144954819D02*
X78809523Y-145002438D01*
X78809523Y-145002438D02*
X78857142Y-145050057D01*
X79809523Y-145954819D02*
X79238095Y-145954819D01*
X79523809Y-145954819D02*
X79523809Y-144954819D01*
X79523809Y-144954819D02*
X79428571Y-145097676D01*
X79428571Y-145097676D02*
X79333333Y-145192914D01*
X79333333Y-145192914D02*
X79238095Y-145240533D01*
X80714285Y-144954819D02*
X80238095Y-144954819D01*
X80238095Y-144954819D02*
X80190476Y-145431009D01*
X80190476Y-145431009D02*
X80238095Y-145383390D01*
X80238095Y-145383390D02*
X80333333Y-145335771D01*
X80333333Y-145335771D02*
X80571428Y-145335771D01*
X80571428Y-145335771D02*
X80666666Y-145383390D01*
X80666666Y-145383390D02*
X80714285Y-145431009D01*
X80714285Y-145431009D02*
X80761904Y-145526247D01*
X80761904Y-145526247D02*
X80761904Y-145764342D01*
X80761904Y-145764342D02*
X80714285Y-145859580D01*
X80714285Y-145859580D02*
X80666666Y-145907200D01*
X80666666Y-145907200D02*
X80571428Y-145954819D01*
X80571428Y-145954819D02*
X80333333Y-145954819D01*
X80333333Y-145954819D02*
X80238095Y-145907200D01*
X80238095Y-145907200D02*
X80190476Y-145859580D01*
X42885238Y-219454819D02*
X42885238Y-220169104D01*
X42885238Y-220169104D02*
X42837619Y-220311961D01*
X42837619Y-220311961D02*
X42742381Y-220407200D01*
X42742381Y-220407200D02*
X42599524Y-220454819D01*
X42599524Y-220454819D02*
X42504286Y-220454819D01*
X43361429Y-220454819D02*
X43361429Y-219454819D01*
X43361429Y-219454819D02*
X43694762Y-220169104D01*
X43694762Y-220169104D02*
X44028095Y-219454819D01*
X44028095Y-219454819D02*
X44028095Y-220454819D01*
X44504286Y-220454819D02*
X44504286Y-219454819D01*
X44504286Y-219454819D02*
X44742381Y-219454819D01*
X44742381Y-219454819D02*
X44885238Y-219502438D01*
X44885238Y-219502438D02*
X44980476Y-219597676D01*
X44980476Y-219597676D02*
X45028095Y-219692914D01*
X45028095Y-219692914D02*
X45075714Y-219883390D01*
X45075714Y-219883390D02*
X45075714Y-220026247D01*
X45075714Y-220026247D02*
X45028095Y-220216723D01*
X45028095Y-220216723D02*
X44980476Y-220311961D01*
X44980476Y-220311961D02*
X44885238Y-220407200D01*
X44885238Y-220407200D02*
X44742381Y-220454819D01*
X44742381Y-220454819D02*
X44504286Y-220454819D01*
X45456667Y-219550057D02*
X45504286Y-219502438D01*
X45504286Y-219502438D02*
X45599524Y-219454819D01*
X45599524Y-219454819D02*
X45837619Y-219454819D01*
X45837619Y-219454819D02*
X45932857Y-219502438D01*
X45932857Y-219502438D02*
X45980476Y-219550057D01*
X45980476Y-219550057D02*
X46028095Y-219645295D01*
X46028095Y-219645295D02*
X46028095Y-219740533D01*
X46028095Y-219740533D02*
X45980476Y-219883390D01*
X45980476Y-219883390D02*
X45409048Y-220454819D01*
X45409048Y-220454819D02*
X46028095Y-220454819D01*
X40987142Y-109374819D02*
X40653809Y-108898628D01*
X40415714Y-109374819D02*
X40415714Y-108374819D01*
X40415714Y-108374819D02*
X40796666Y-108374819D01*
X40796666Y-108374819D02*
X40891904Y-108422438D01*
X40891904Y-108422438D02*
X40939523Y-108470057D01*
X40939523Y-108470057D02*
X40987142Y-108565295D01*
X40987142Y-108565295D02*
X40987142Y-108708152D01*
X40987142Y-108708152D02*
X40939523Y-108803390D01*
X40939523Y-108803390D02*
X40891904Y-108851009D01*
X40891904Y-108851009D02*
X40796666Y-108898628D01*
X40796666Y-108898628D02*
X40415714Y-108898628D01*
X41939523Y-109374819D02*
X41368095Y-109374819D01*
X41653809Y-109374819D02*
X41653809Y-108374819D01*
X41653809Y-108374819D02*
X41558571Y-108517676D01*
X41558571Y-108517676D02*
X41463333Y-108612914D01*
X41463333Y-108612914D02*
X41368095Y-108660533D01*
X42510952Y-108803390D02*
X42415714Y-108755771D01*
X42415714Y-108755771D02*
X42368095Y-108708152D01*
X42368095Y-108708152D02*
X42320476Y-108612914D01*
X42320476Y-108612914D02*
X42320476Y-108565295D01*
X42320476Y-108565295D02*
X42368095Y-108470057D01*
X42368095Y-108470057D02*
X42415714Y-108422438D01*
X42415714Y-108422438D02*
X42510952Y-108374819D01*
X42510952Y-108374819D02*
X42701428Y-108374819D01*
X42701428Y-108374819D02*
X42796666Y-108422438D01*
X42796666Y-108422438D02*
X42844285Y-108470057D01*
X42844285Y-108470057D02*
X42891904Y-108565295D01*
X42891904Y-108565295D02*
X42891904Y-108612914D01*
X42891904Y-108612914D02*
X42844285Y-108708152D01*
X42844285Y-108708152D02*
X42796666Y-108755771D01*
X42796666Y-108755771D02*
X42701428Y-108803390D01*
X42701428Y-108803390D02*
X42510952Y-108803390D01*
X42510952Y-108803390D02*
X42415714Y-108851009D01*
X42415714Y-108851009D02*
X42368095Y-108898628D01*
X42368095Y-108898628D02*
X42320476Y-108993866D01*
X42320476Y-108993866D02*
X42320476Y-109184342D01*
X42320476Y-109184342D02*
X42368095Y-109279580D01*
X42368095Y-109279580D02*
X42415714Y-109327200D01*
X42415714Y-109327200D02*
X42510952Y-109374819D01*
X42510952Y-109374819D02*
X42701428Y-109374819D01*
X42701428Y-109374819D02*
X42796666Y-109327200D01*
X42796666Y-109327200D02*
X42844285Y-109279580D01*
X42844285Y-109279580D02*
X42891904Y-109184342D01*
X42891904Y-109184342D02*
X42891904Y-108993866D01*
X42891904Y-108993866D02*
X42844285Y-108898628D01*
X42844285Y-108898628D02*
X42796666Y-108851009D01*
X42796666Y-108851009D02*
X42701428Y-108803390D01*
X78857142Y-119859580D02*
X78809523Y-119907200D01*
X78809523Y-119907200D02*
X78666666Y-119954819D01*
X78666666Y-119954819D02*
X78571428Y-119954819D01*
X78571428Y-119954819D02*
X78428571Y-119907200D01*
X78428571Y-119907200D02*
X78333333Y-119811961D01*
X78333333Y-119811961D02*
X78285714Y-119716723D01*
X78285714Y-119716723D02*
X78238095Y-119526247D01*
X78238095Y-119526247D02*
X78238095Y-119383390D01*
X78238095Y-119383390D02*
X78285714Y-119192914D01*
X78285714Y-119192914D02*
X78333333Y-119097676D01*
X78333333Y-119097676D02*
X78428571Y-119002438D01*
X78428571Y-119002438D02*
X78571428Y-118954819D01*
X78571428Y-118954819D02*
X78666666Y-118954819D01*
X78666666Y-118954819D02*
X78809523Y-119002438D01*
X78809523Y-119002438D02*
X78857142Y-119050057D01*
X79809523Y-119954819D02*
X79238095Y-119954819D01*
X79523809Y-119954819D02*
X79523809Y-118954819D01*
X79523809Y-118954819D02*
X79428571Y-119097676D01*
X79428571Y-119097676D02*
X79333333Y-119192914D01*
X79333333Y-119192914D02*
X79238095Y-119240533D01*
X80761904Y-119954819D02*
X80190476Y-119954819D01*
X80476190Y-119954819D02*
X80476190Y-118954819D01*
X80476190Y-118954819D02*
X80380952Y-119097676D01*
X80380952Y-119097676D02*
X80285714Y-119192914D01*
X80285714Y-119192914D02*
X80190476Y-119240533D01*
X88254761Y-60404819D02*
X87921428Y-59928628D01*
X87683333Y-60404819D02*
X87683333Y-59404819D01*
X87683333Y-59404819D02*
X88064285Y-59404819D01*
X88064285Y-59404819D02*
X88159523Y-59452438D01*
X88159523Y-59452438D02*
X88207142Y-59500057D01*
X88207142Y-59500057D02*
X88254761Y-59595295D01*
X88254761Y-59595295D02*
X88254761Y-59738152D01*
X88254761Y-59738152D02*
X88207142Y-59833390D01*
X88207142Y-59833390D02*
X88159523Y-59881009D01*
X88159523Y-59881009D02*
X88064285Y-59928628D01*
X88064285Y-59928628D02*
X87683333Y-59928628D01*
X88540476Y-59404819D02*
X88873809Y-60404819D01*
X88873809Y-60404819D02*
X89207142Y-59404819D01*
X89445238Y-59404819D02*
X90064285Y-59404819D01*
X90064285Y-59404819D02*
X89730952Y-59785771D01*
X89730952Y-59785771D02*
X89873809Y-59785771D01*
X89873809Y-59785771D02*
X89969047Y-59833390D01*
X89969047Y-59833390D02*
X90016666Y-59881009D01*
X90016666Y-59881009D02*
X90064285Y-59976247D01*
X90064285Y-59976247D02*
X90064285Y-60214342D01*
X90064285Y-60214342D02*
X90016666Y-60309580D01*
X90016666Y-60309580D02*
X89969047Y-60357200D01*
X89969047Y-60357200D02*
X89873809Y-60404819D01*
X89873809Y-60404819D02*
X89588095Y-60404819D01*
X89588095Y-60404819D02*
X89492857Y-60357200D01*
X89492857Y-60357200D02*
X89445238Y-60309580D01*
X40987142Y-83374819D02*
X40653809Y-82898628D01*
X40415714Y-83374819D02*
X40415714Y-82374819D01*
X40415714Y-82374819D02*
X40796666Y-82374819D01*
X40796666Y-82374819D02*
X40891904Y-82422438D01*
X40891904Y-82422438D02*
X40939523Y-82470057D01*
X40939523Y-82470057D02*
X40987142Y-82565295D01*
X40987142Y-82565295D02*
X40987142Y-82708152D01*
X40987142Y-82708152D02*
X40939523Y-82803390D01*
X40939523Y-82803390D02*
X40891904Y-82851009D01*
X40891904Y-82851009D02*
X40796666Y-82898628D01*
X40796666Y-82898628D02*
X40415714Y-82898628D01*
X41939523Y-83374819D02*
X41368095Y-83374819D01*
X41653809Y-83374819D02*
X41653809Y-82374819D01*
X41653809Y-82374819D02*
X41558571Y-82517676D01*
X41558571Y-82517676D02*
X41463333Y-82612914D01*
X41463333Y-82612914D02*
X41368095Y-82660533D01*
X42796666Y-82708152D02*
X42796666Y-83374819D01*
X42558571Y-82327200D02*
X42320476Y-83041485D01*
X42320476Y-83041485D02*
X42939523Y-83041485D01*
X21666666Y-9454819D02*
X21666666Y-10169104D01*
X21666666Y-10169104D02*
X21619047Y-10311961D01*
X21619047Y-10311961D02*
X21523809Y-10407200D01*
X21523809Y-10407200D02*
X21380952Y-10454819D01*
X21380952Y-10454819D02*
X21285714Y-10454819D01*
X22666666Y-10454819D02*
X22095238Y-10454819D01*
X22380952Y-10454819D02*
X22380952Y-9454819D01*
X22380952Y-9454819D02*
X22285714Y-9597676D01*
X22285714Y-9597676D02*
X22190476Y-9692914D01*
X22190476Y-9692914D02*
X22095238Y-9740533D01*
X119778571Y-138404819D02*
X119445238Y-137928628D01*
X119207143Y-138404819D02*
X119207143Y-137404819D01*
X119207143Y-137404819D02*
X119588095Y-137404819D01*
X119588095Y-137404819D02*
X119683333Y-137452438D01*
X119683333Y-137452438D02*
X119730952Y-137500057D01*
X119730952Y-137500057D02*
X119778571Y-137595295D01*
X119778571Y-137595295D02*
X119778571Y-137738152D01*
X119778571Y-137738152D02*
X119730952Y-137833390D01*
X119730952Y-137833390D02*
X119683333Y-137881009D01*
X119683333Y-137881009D02*
X119588095Y-137928628D01*
X119588095Y-137928628D02*
X119207143Y-137928628D01*
X120064286Y-137404819D02*
X120397619Y-138404819D01*
X120397619Y-138404819D02*
X120730952Y-137404819D01*
X121588095Y-138404819D02*
X121016667Y-138404819D01*
X121302381Y-138404819D02*
X121302381Y-137404819D01*
X121302381Y-137404819D02*
X121207143Y-137547676D01*
X121207143Y-137547676D02*
X121111905Y-137642914D01*
X121111905Y-137642914D02*
X121016667Y-137690533D01*
X122445238Y-137404819D02*
X122254762Y-137404819D01*
X122254762Y-137404819D02*
X122159524Y-137452438D01*
X122159524Y-137452438D02*
X122111905Y-137500057D01*
X122111905Y-137500057D02*
X122016667Y-137642914D01*
X122016667Y-137642914D02*
X121969048Y-137833390D01*
X121969048Y-137833390D02*
X121969048Y-138214342D01*
X121969048Y-138214342D02*
X122016667Y-138309580D01*
X122016667Y-138309580D02*
X122064286Y-138357200D01*
X122064286Y-138357200D02*
X122159524Y-138404819D01*
X122159524Y-138404819D02*
X122350000Y-138404819D01*
X122350000Y-138404819D02*
X122445238Y-138357200D01*
X122445238Y-138357200D02*
X122492857Y-138309580D01*
X122492857Y-138309580D02*
X122540476Y-138214342D01*
X122540476Y-138214342D02*
X122540476Y-137976247D01*
X122540476Y-137976247D02*
X122492857Y-137881009D01*
X122492857Y-137881009D02*
X122445238Y-137833390D01*
X122445238Y-137833390D02*
X122350000Y-137785771D01*
X122350000Y-137785771D02*
X122159524Y-137785771D01*
X122159524Y-137785771D02*
X122064286Y-137833390D01*
X122064286Y-137833390D02*
X122016667Y-137881009D01*
X122016667Y-137881009D02*
X121969048Y-137976247D01*
X72987142Y-57374819D02*
X72653809Y-56898628D01*
X72415714Y-57374819D02*
X72415714Y-56374819D01*
X72415714Y-56374819D02*
X72796666Y-56374819D01*
X72796666Y-56374819D02*
X72891904Y-56422438D01*
X72891904Y-56422438D02*
X72939523Y-56470057D01*
X72939523Y-56470057D02*
X72987142Y-56565295D01*
X72987142Y-56565295D02*
X72987142Y-56708152D01*
X72987142Y-56708152D02*
X72939523Y-56803390D01*
X72939523Y-56803390D02*
X72891904Y-56851009D01*
X72891904Y-56851009D02*
X72796666Y-56898628D01*
X72796666Y-56898628D02*
X72415714Y-56898628D01*
X73939523Y-57374819D02*
X73368095Y-57374819D01*
X73653809Y-57374819D02*
X73653809Y-56374819D01*
X73653809Y-56374819D02*
X73558571Y-56517676D01*
X73558571Y-56517676D02*
X73463333Y-56612914D01*
X73463333Y-56612914D02*
X73368095Y-56660533D01*
X74891904Y-57374819D02*
X74320476Y-57374819D01*
X74606190Y-57374819D02*
X74606190Y-56374819D01*
X74606190Y-56374819D02*
X74510952Y-56517676D01*
X74510952Y-56517676D02*
X74415714Y-56612914D01*
X74415714Y-56612914D02*
X74320476Y-56660533D01*
X111333333Y-93859580D02*
X111285714Y-93907200D01*
X111285714Y-93907200D02*
X111142857Y-93954819D01*
X111142857Y-93954819D02*
X111047619Y-93954819D01*
X111047619Y-93954819D02*
X110904762Y-93907200D01*
X110904762Y-93907200D02*
X110809524Y-93811961D01*
X110809524Y-93811961D02*
X110761905Y-93716723D01*
X110761905Y-93716723D02*
X110714286Y-93526247D01*
X110714286Y-93526247D02*
X110714286Y-93383390D01*
X110714286Y-93383390D02*
X110761905Y-93192914D01*
X110761905Y-93192914D02*
X110809524Y-93097676D01*
X110809524Y-93097676D02*
X110904762Y-93002438D01*
X110904762Y-93002438D02*
X111047619Y-92954819D01*
X111047619Y-92954819D02*
X111142857Y-92954819D01*
X111142857Y-92954819D02*
X111285714Y-93002438D01*
X111285714Y-93002438D02*
X111333333Y-93050057D01*
X111904762Y-93383390D02*
X111809524Y-93335771D01*
X111809524Y-93335771D02*
X111761905Y-93288152D01*
X111761905Y-93288152D02*
X111714286Y-93192914D01*
X111714286Y-93192914D02*
X111714286Y-93145295D01*
X111714286Y-93145295D02*
X111761905Y-93050057D01*
X111761905Y-93050057D02*
X111809524Y-93002438D01*
X111809524Y-93002438D02*
X111904762Y-92954819D01*
X111904762Y-92954819D02*
X112095238Y-92954819D01*
X112095238Y-92954819D02*
X112190476Y-93002438D01*
X112190476Y-93002438D02*
X112238095Y-93050057D01*
X112238095Y-93050057D02*
X112285714Y-93145295D01*
X112285714Y-93145295D02*
X112285714Y-93192914D01*
X112285714Y-93192914D02*
X112238095Y-93288152D01*
X112238095Y-93288152D02*
X112190476Y-93335771D01*
X112190476Y-93335771D02*
X112095238Y-93383390D01*
X112095238Y-93383390D02*
X111904762Y-93383390D01*
X111904762Y-93383390D02*
X111809524Y-93431009D01*
X111809524Y-93431009D02*
X111761905Y-93478628D01*
X111761905Y-93478628D02*
X111714286Y-93573866D01*
X111714286Y-93573866D02*
X111714286Y-93764342D01*
X111714286Y-93764342D02*
X111761905Y-93859580D01*
X111761905Y-93859580D02*
X111809524Y-93907200D01*
X111809524Y-93907200D02*
X111904762Y-93954819D01*
X111904762Y-93954819D02*
X112095238Y-93954819D01*
X112095238Y-93954819D02*
X112190476Y-93907200D01*
X112190476Y-93907200D02*
X112238095Y-93859580D01*
X112238095Y-93859580D02*
X112285714Y-93764342D01*
X112285714Y-93764342D02*
X112285714Y-93573866D01*
X112285714Y-93573866D02*
X112238095Y-93478628D01*
X112238095Y-93478628D02*
X112190476Y-93431009D01*
X112190476Y-93431009D02*
X112095238Y-93383390D01*
X110857142Y-145859580D02*
X110809523Y-145907200D01*
X110809523Y-145907200D02*
X110666666Y-145954819D01*
X110666666Y-145954819D02*
X110571428Y-145954819D01*
X110571428Y-145954819D02*
X110428571Y-145907200D01*
X110428571Y-145907200D02*
X110333333Y-145811961D01*
X110333333Y-145811961D02*
X110285714Y-145716723D01*
X110285714Y-145716723D02*
X110238095Y-145526247D01*
X110238095Y-145526247D02*
X110238095Y-145383390D01*
X110238095Y-145383390D02*
X110285714Y-145192914D01*
X110285714Y-145192914D02*
X110333333Y-145097676D01*
X110333333Y-145097676D02*
X110428571Y-145002438D01*
X110428571Y-145002438D02*
X110571428Y-144954819D01*
X110571428Y-144954819D02*
X110666666Y-144954819D01*
X110666666Y-144954819D02*
X110809523Y-145002438D01*
X110809523Y-145002438D02*
X110857142Y-145050057D01*
X111809523Y-145954819D02*
X111238095Y-145954819D01*
X111523809Y-145954819D02*
X111523809Y-144954819D01*
X111523809Y-144954819D02*
X111428571Y-145097676D01*
X111428571Y-145097676D02*
X111333333Y-145192914D01*
X111333333Y-145192914D02*
X111238095Y-145240533D01*
X112666666Y-144954819D02*
X112476190Y-144954819D01*
X112476190Y-144954819D02*
X112380952Y-145002438D01*
X112380952Y-145002438D02*
X112333333Y-145050057D01*
X112333333Y-145050057D02*
X112238095Y-145192914D01*
X112238095Y-145192914D02*
X112190476Y-145383390D01*
X112190476Y-145383390D02*
X112190476Y-145764342D01*
X112190476Y-145764342D02*
X112238095Y-145859580D01*
X112238095Y-145859580D02*
X112285714Y-145907200D01*
X112285714Y-145907200D02*
X112380952Y-145954819D01*
X112380952Y-145954819D02*
X112571428Y-145954819D01*
X112571428Y-145954819D02*
X112666666Y-145907200D01*
X112666666Y-145907200D02*
X112714285Y-145859580D01*
X112714285Y-145859580D02*
X112761904Y-145764342D01*
X112761904Y-145764342D02*
X112761904Y-145526247D01*
X112761904Y-145526247D02*
X112714285Y-145431009D01*
X112714285Y-145431009D02*
X112666666Y-145383390D01*
X112666666Y-145383390D02*
X112571428Y-145335771D01*
X112571428Y-145335771D02*
X112380952Y-145335771D01*
X112380952Y-145335771D02*
X112285714Y-145383390D01*
X112285714Y-145383390D02*
X112238095Y-145431009D01*
X112238095Y-145431009D02*
X112190476Y-145526247D01*
X149463333Y-127374819D02*
X149130000Y-126898628D01*
X148891905Y-127374819D02*
X148891905Y-126374819D01*
X148891905Y-126374819D02*
X149272857Y-126374819D01*
X149272857Y-126374819D02*
X149368095Y-126422438D01*
X149368095Y-126422438D02*
X149415714Y-126470057D01*
X149415714Y-126470057D02*
X149463333Y-126565295D01*
X149463333Y-126565295D02*
X149463333Y-126708152D01*
X149463333Y-126708152D02*
X149415714Y-126803390D01*
X149415714Y-126803390D02*
X149368095Y-126851009D01*
X149368095Y-126851009D02*
X149272857Y-126898628D01*
X149272857Y-126898628D02*
X148891905Y-126898628D01*
X149939524Y-127374819D02*
X150130000Y-127374819D01*
X150130000Y-127374819D02*
X150225238Y-127327200D01*
X150225238Y-127327200D02*
X150272857Y-127279580D01*
X150272857Y-127279580D02*
X150368095Y-127136723D01*
X150368095Y-127136723D02*
X150415714Y-126946247D01*
X150415714Y-126946247D02*
X150415714Y-126565295D01*
X150415714Y-126565295D02*
X150368095Y-126470057D01*
X150368095Y-126470057D02*
X150320476Y-126422438D01*
X150320476Y-126422438D02*
X150225238Y-126374819D01*
X150225238Y-126374819D02*
X150034762Y-126374819D01*
X150034762Y-126374819D02*
X149939524Y-126422438D01*
X149939524Y-126422438D02*
X149891905Y-126470057D01*
X149891905Y-126470057D02*
X149844286Y-126565295D01*
X149844286Y-126565295D02*
X149844286Y-126803390D01*
X149844286Y-126803390D02*
X149891905Y-126898628D01*
X149891905Y-126898628D02*
X149939524Y-126946247D01*
X149939524Y-126946247D02*
X150034762Y-126993866D01*
X150034762Y-126993866D02*
X150225238Y-126993866D01*
X150225238Y-126993866D02*
X150320476Y-126946247D01*
X150320476Y-126946247D02*
X150368095Y-126898628D01*
X150368095Y-126898628D02*
X150415714Y-126803390D01*
X11916667Y-64407200D02*
X12059524Y-64454819D01*
X12059524Y-64454819D02*
X12297619Y-64454819D01*
X12297619Y-64454819D02*
X12392857Y-64407200D01*
X12392857Y-64407200D02*
X12440476Y-64359580D01*
X12440476Y-64359580D02*
X12488095Y-64264342D01*
X12488095Y-64264342D02*
X12488095Y-64169104D01*
X12488095Y-64169104D02*
X12440476Y-64073866D01*
X12440476Y-64073866D02*
X12392857Y-64026247D01*
X12392857Y-64026247D02*
X12297619Y-63978628D01*
X12297619Y-63978628D02*
X12107143Y-63931009D01*
X12107143Y-63931009D02*
X12011905Y-63883390D01*
X12011905Y-63883390D02*
X11964286Y-63835771D01*
X11964286Y-63835771D02*
X11916667Y-63740533D01*
X11916667Y-63740533D02*
X11916667Y-63645295D01*
X11916667Y-63645295D02*
X11964286Y-63550057D01*
X11964286Y-63550057D02*
X12011905Y-63502438D01*
X12011905Y-63502438D02*
X12107143Y-63454819D01*
X12107143Y-63454819D02*
X12345238Y-63454819D01*
X12345238Y-63454819D02*
X12488095Y-63502438D01*
X12821429Y-63454819D02*
X13059524Y-64454819D01*
X13059524Y-64454819D02*
X13250000Y-63740533D01*
X13250000Y-63740533D02*
X13440476Y-64454819D01*
X13440476Y-64454819D02*
X13678572Y-63454819D01*
X14011905Y-63550057D02*
X14059524Y-63502438D01*
X14059524Y-63502438D02*
X14154762Y-63454819D01*
X14154762Y-63454819D02*
X14392857Y-63454819D01*
X14392857Y-63454819D02*
X14488095Y-63502438D01*
X14488095Y-63502438D02*
X14535714Y-63550057D01*
X14535714Y-63550057D02*
X14583333Y-63645295D01*
X14583333Y-63645295D02*
X14583333Y-63740533D01*
X14583333Y-63740533D02*
X14535714Y-63883390D01*
X14535714Y-63883390D02*
X13964286Y-64454819D01*
X13964286Y-64454819D02*
X14583333Y-64454819D01*
X111333333Y-67859580D02*
X111285714Y-67907200D01*
X111285714Y-67907200D02*
X111142857Y-67954819D01*
X111142857Y-67954819D02*
X111047619Y-67954819D01*
X111047619Y-67954819D02*
X110904762Y-67907200D01*
X110904762Y-67907200D02*
X110809524Y-67811961D01*
X110809524Y-67811961D02*
X110761905Y-67716723D01*
X110761905Y-67716723D02*
X110714286Y-67526247D01*
X110714286Y-67526247D02*
X110714286Y-67383390D01*
X110714286Y-67383390D02*
X110761905Y-67192914D01*
X110761905Y-67192914D02*
X110809524Y-67097676D01*
X110809524Y-67097676D02*
X110904762Y-67002438D01*
X110904762Y-67002438D02*
X111047619Y-66954819D01*
X111047619Y-66954819D02*
X111142857Y-66954819D01*
X111142857Y-66954819D02*
X111285714Y-67002438D01*
X111285714Y-67002438D02*
X111333333Y-67050057D01*
X112190476Y-67288152D02*
X112190476Y-67954819D01*
X111952381Y-66907200D02*
X111714286Y-67621485D01*
X111714286Y-67621485D02*
X112333333Y-67621485D01*
X11916667Y-108407200D02*
X12059524Y-108454819D01*
X12059524Y-108454819D02*
X12297619Y-108454819D01*
X12297619Y-108454819D02*
X12392857Y-108407200D01*
X12392857Y-108407200D02*
X12440476Y-108359580D01*
X12440476Y-108359580D02*
X12488095Y-108264342D01*
X12488095Y-108264342D02*
X12488095Y-108169104D01*
X12488095Y-108169104D02*
X12440476Y-108073866D01*
X12440476Y-108073866D02*
X12392857Y-108026247D01*
X12392857Y-108026247D02*
X12297619Y-107978628D01*
X12297619Y-107978628D02*
X12107143Y-107931009D01*
X12107143Y-107931009D02*
X12011905Y-107883390D01*
X12011905Y-107883390D02*
X11964286Y-107835771D01*
X11964286Y-107835771D02*
X11916667Y-107740533D01*
X11916667Y-107740533D02*
X11916667Y-107645295D01*
X11916667Y-107645295D02*
X11964286Y-107550057D01*
X11964286Y-107550057D02*
X12011905Y-107502438D01*
X12011905Y-107502438D02*
X12107143Y-107454819D01*
X12107143Y-107454819D02*
X12345238Y-107454819D01*
X12345238Y-107454819D02*
X12488095Y-107502438D01*
X12821429Y-107454819D02*
X13059524Y-108454819D01*
X13059524Y-108454819D02*
X13250000Y-107740533D01*
X13250000Y-107740533D02*
X13440476Y-108454819D01*
X13440476Y-108454819D02*
X13678572Y-107454819D01*
X14488095Y-107788152D02*
X14488095Y-108454819D01*
X14250000Y-107407200D02*
X14011905Y-108121485D01*
X14011905Y-108121485D02*
X14630952Y-108121485D01*
X143333333Y-93859580D02*
X143285714Y-93907200D01*
X143285714Y-93907200D02*
X143142857Y-93954819D01*
X143142857Y-93954819D02*
X143047619Y-93954819D01*
X143047619Y-93954819D02*
X142904762Y-93907200D01*
X142904762Y-93907200D02*
X142809524Y-93811961D01*
X142809524Y-93811961D02*
X142761905Y-93716723D01*
X142761905Y-93716723D02*
X142714286Y-93526247D01*
X142714286Y-93526247D02*
X142714286Y-93383390D01*
X142714286Y-93383390D02*
X142761905Y-93192914D01*
X142761905Y-93192914D02*
X142809524Y-93097676D01*
X142809524Y-93097676D02*
X142904762Y-93002438D01*
X142904762Y-93002438D02*
X143047619Y-92954819D01*
X143047619Y-92954819D02*
X143142857Y-92954819D01*
X143142857Y-92954819D02*
X143285714Y-93002438D01*
X143285714Y-93002438D02*
X143333333Y-93050057D01*
X143809524Y-93954819D02*
X144000000Y-93954819D01*
X144000000Y-93954819D02*
X144095238Y-93907200D01*
X144095238Y-93907200D02*
X144142857Y-93859580D01*
X144142857Y-93859580D02*
X144238095Y-93716723D01*
X144238095Y-93716723D02*
X144285714Y-93526247D01*
X144285714Y-93526247D02*
X144285714Y-93145295D01*
X144285714Y-93145295D02*
X144238095Y-93050057D01*
X144238095Y-93050057D02*
X144190476Y-93002438D01*
X144190476Y-93002438D02*
X144095238Y-92954819D01*
X144095238Y-92954819D02*
X143904762Y-92954819D01*
X143904762Y-92954819D02*
X143809524Y-93002438D01*
X143809524Y-93002438D02*
X143761905Y-93050057D01*
X143761905Y-93050057D02*
X143714286Y-93145295D01*
X143714286Y-93145295D02*
X143714286Y-93383390D01*
X143714286Y-93383390D02*
X143761905Y-93478628D01*
X143761905Y-93478628D02*
X143809524Y-93526247D01*
X143809524Y-93526247D02*
X143904762Y-93573866D01*
X143904762Y-93573866D02*
X144095238Y-93573866D01*
X144095238Y-93573866D02*
X144190476Y-93526247D01*
X144190476Y-93526247D02*
X144238095Y-93478628D01*
X144238095Y-93478628D02*
X144285714Y-93383390D01*
X25176666Y-171454819D02*
X25176666Y-172169104D01*
X25176666Y-172169104D02*
X25129047Y-172311961D01*
X25129047Y-172311961D02*
X25033809Y-172407200D01*
X25033809Y-172407200D02*
X24890952Y-172454819D01*
X24890952Y-172454819D02*
X24795714Y-172454819D01*
X25652857Y-172454819D02*
X25652857Y-171454819D01*
X25652857Y-171454819D02*
X25986190Y-172169104D01*
X25986190Y-172169104D02*
X26319523Y-171454819D01*
X26319523Y-171454819D02*
X26319523Y-172454819D01*
X26748095Y-172169104D02*
X27224285Y-172169104D01*
X26652857Y-172454819D02*
X26986190Y-171454819D01*
X26986190Y-171454819D02*
X27319523Y-172454819D01*
X28176666Y-172454819D02*
X27605238Y-172454819D01*
X27890952Y-172454819D02*
X27890952Y-171454819D01*
X27890952Y-171454819D02*
X27795714Y-171597676D01*
X27795714Y-171597676D02*
X27700476Y-171692914D01*
X27700476Y-171692914D02*
X27605238Y-171740533D01*
X119778571Y-112404819D02*
X119445238Y-111928628D01*
X119207143Y-112404819D02*
X119207143Y-111404819D01*
X119207143Y-111404819D02*
X119588095Y-111404819D01*
X119588095Y-111404819D02*
X119683333Y-111452438D01*
X119683333Y-111452438D02*
X119730952Y-111500057D01*
X119730952Y-111500057D02*
X119778571Y-111595295D01*
X119778571Y-111595295D02*
X119778571Y-111738152D01*
X119778571Y-111738152D02*
X119730952Y-111833390D01*
X119730952Y-111833390D02*
X119683333Y-111881009D01*
X119683333Y-111881009D02*
X119588095Y-111928628D01*
X119588095Y-111928628D02*
X119207143Y-111928628D01*
X120064286Y-111404819D02*
X120397619Y-112404819D01*
X120397619Y-112404819D02*
X120730952Y-111404819D01*
X121588095Y-112404819D02*
X121016667Y-112404819D01*
X121302381Y-112404819D02*
X121302381Y-111404819D01*
X121302381Y-111404819D02*
X121207143Y-111547676D01*
X121207143Y-111547676D02*
X121111905Y-111642914D01*
X121111905Y-111642914D02*
X121016667Y-111690533D01*
X121969048Y-111500057D02*
X122016667Y-111452438D01*
X122016667Y-111452438D02*
X122111905Y-111404819D01*
X122111905Y-111404819D02*
X122350000Y-111404819D01*
X122350000Y-111404819D02*
X122445238Y-111452438D01*
X122445238Y-111452438D02*
X122492857Y-111500057D01*
X122492857Y-111500057D02*
X122540476Y-111595295D01*
X122540476Y-111595295D02*
X122540476Y-111690533D01*
X122540476Y-111690533D02*
X122492857Y-111833390D01*
X122492857Y-111833390D02*
X121921429Y-112404819D01*
X121921429Y-112404819D02*
X122540476Y-112404819D01*
X142857142Y-145859580D02*
X142809523Y-145907200D01*
X142809523Y-145907200D02*
X142666666Y-145954819D01*
X142666666Y-145954819D02*
X142571428Y-145954819D01*
X142571428Y-145954819D02*
X142428571Y-145907200D01*
X142428571Y-145907200D02*
X142333333Y-145811961D01*
X142333333Y-145811961D02*
X142285714Y-145716723D01*
X142285714Y-145716723D02*
X142238095Y-145526247D01*
X142238095Y-145526247D02*
X142238095Y-145383390D01*
X142238095Y-145383390D02*
X142285714Y-145192914D01*
X142285714Y-145192914D02*
X142333333Y-145097676D01*
X142333333Y-145097676D02*
X142428571Y-145002438D01*
X142428571Y-145002438D02*
X142571428Y-144954819D01*
X142571428Y-144954819D02*
X142666666Y-144954819D01*
X142666666Y-144954819D02*
X142809523Y-145002438D01*
X142809523Y-145002438D02*
X142857142Y-145050057D01*
X143809523Y-145954819D02*
X143238095Y-145954819D01*
X143523809Y-145954819D02*
X143523809Y-144954819D01*
X143523809Y-144954819D02*
X143428571Y-145097676D01*
X143428571Y-145097676D02*
X143333333Y-145192914D01*
X143333333Y-145192914D02*
X143238095Y-145240533D01*
X144142857Y-144954819D02*
X144809523Y-144954819D01*
X144809523Y-144954819D02*
X144380952Y-145954819D01*
X41048095Y-34124819D02*
X41048095Y-34934342D01*
X41048095Y-34934342D02*
X41095714Y-35029580D01*
X41095714Y-35029580D02*
X41143333Y-35077200D01*
X41143333Y-35077200D02*
X41238571Y-35124819D01*
X41238571Y-35124819D02*
X41429047Y-35124819D01*
X41429047Y-35124819D02*
X41524285Y-35077200D01*
X41524285Y-35077200D02*
X41571904Y-35029580D01*
X41571904Y-35029580D02*
X41619523Y-34934342D01*
X41619523Y-34934342D02*
X41619523Y-34124819D01*
X42619523Y-35124819D02*
X42048095Y-35124819D01*
X42333809Y-35124819D02*
X42333809Y-34124819D01*
X42333809Y-34124819D02*
X42238571Y-34267676D01*
X42238571Y-34267676D02*
X42143333Y-34362914D01*
X42143333Y-34362914D02*
X42048095Y-34410533D01*
X47333333Y-93859580D02*
X47285714Y-93907200D01*
X47285714Y-93907200D02*
X47142857Y-93954819D01*
X47142857Y-93954819D02*
X47047619Y-93954819D01*
X47047619Y-93954819D02*
X46904762Y-93907200D01*
X46904762Y-93907200D02*
X46809524Y-93811961D01*
X46809524Y-93811961D02*
X46761905Y-93716723D01*
X46761905Y-93716723D02*
X46714286Y-93526247D01*
X46714286Y-93526247D02*
X46714286Y-93383390D01*
X46714286Y-93383390D02*
X46761905Y-93192914D01*
X46761905Y-93192914D02*
X46809524Y-93097676D01*
X46809524Y-93097676D02*
X46904762Y-93002438D01*
X46904762Y-93002438D02*
X47047619Y-92954819D01*
X47047619Y-92954819D02*
X47142857Y-92954819D01*
X47142857Y-92954819D02*
X47285714Y-93002438D01*
X47285714Y-93002438D02*
X47333333Y-93050057D01*
X48190476Y-92954819D02*
X48000000Y-92954819D01*
X48000000Y-92954819D02*
X47904762Y-93002438D01*
X47904762Y-93002438D02*
X47857143Y-93050057D01*
X47857143Y-93050057D02*
X47761905Y-93192914D01*
X47761905Y-93192914D02*
X47714286Y-93383390D01*
X47714286Y-93383390D02*
X47714286Y-93764342D01*
X47714286Y-93764342D02*
X47761905Y-93859580D01*
X47761905Y-93859580D02*
X47809524Y-93907200D01*
X47809524Y-93907200D02*
X47904762Y-93954819D01*
X47904762Y-93954819D02*
X48095238Y-93954819D01*
X48095238Y-93954819D02*
X48190476Y-93907200D01*
X48190476Y-93907200D02*
X48238095Y-93859580D01*
X48238095Y-93859580D02*
X48285714Y-93764342D01*
X48285714Y-93764342D02*
X48285714Y-93526247D01*
X48285714Y-93526247D02*
X48238095Y-93431009D01*
X48238095Y-93431009D02*
X48190476Y-93383390D01*
X48190476Y-93383390D02*
X48095238Y-93335771D01*
X48095238Y-93335771D02*
X47904762Y-93335771D01*
X47904762Y-93335771D02*
X47809524Y-93383390D01*
X47809524Y-93383390D02*
X47761905Y-93431009D01*
X47761905Y-93431009D02*
X47714286Y-93526247D01*
X104913333Y-39084819D02*
X104580000Y-38608628D01*
X104341905Y-39084819D02*
X104341905Y-38084819D01*
X104341905Y-38084819D02*
X104722857Y-38084819D01*
X104722857Y-38084819D02*
X104818095Y-38132438D01*
X104818095Y-38132438D02*
X104865714Y-38180057D01*
X104865714Y-38180057D02*
X104913333Y-38275295D01*
X104913333Y-38275295D02*
X104913333Y-38418152D01*
X104913333Y-38418152D02*
X104865714Y-38513390D01*
X104865714Y-38513390D02*
X104818095Y-38561009D01*
X104818095Y-38561009D02*
X104722857Y-38608628D01*
X104722857Y-38608628D02*
X104341905Y-38608628D01*
X105246667Y-38084819D02*
X105865714Y-38084819D01*
X105865714Y-38084819D02*
X105532381Y-38465771D01*
X105532381Y-38465771D02*
X105675238Y-38465771D01*
X105675238Y-38465771D02*
X105770476Y-38513390D01*
X105770476Y-38513390D02*
X105818095Y-38561009D01*
X105818095Y-38561009D02*
X105865714Y-38656247D01*
X105865714Y-38656247D02*
X105865714Y-38894342D01*
X105865714Y-38894342D02*
X105818095Y-38989580D01*
X105818095Y-38989580D02*
X105770476Y-39037200D01*
X105770476Y-39037200D02*
X105675238Y-39084819D01*
X105675238Y-39084819D02*
X105389524Y-39084819D01*
X105389524Y-39084819D02*
X105294286Y-39037200D01*
X105294286Y-39037200D02*
X105246667Y-38989580D01*
X156301905Y-65184819D02*
X156301905Y-64184819D01*
X156301905Y-64184819D02*
X156540000Y-64184819D01*
X156540000Y-64184819D02*
X156682857Y-64232438D01*
X156682857Y-64232438D02*
X156778095Y-64327676D01*
X156778095Y-64327676D02*
X156825714Y-64422914D01*
X156825714Y-64422914D02*
X156873333Y-64613390D01*
X156873333Y-64613390D02*
X156873333Y-64756247D01*
X156873333Y-64756247D02*
X156825714Y-64946723D01*
X156825714Y-64946723D02*
X156778095Y-65041961D01*
X156778095Y-65041961D02*
X156682857Y-65137200D01*
X156682857Y-65137200D02*
X156540000Y-65184819D01*
X156540000Y-65184819D02*
X156301905Y-65184819D01*
X157206667Y-64184819D02*
X157825714Y-64184819D01*
X157825714Y-64184819D02*
X157492381Y-64565771D01*
X157492381Y-64565771D02*
X157635238Y-64565771D01*
X157635238Y-64565771D02*
X157730476Y-64613390D01*
X157730476Y-64613390D02*
X157778095Y-64661009D01*
X157778095Y-64661009D02*
X157825714Y-64756247D01*
X157825714Y-64756247D02*
X157825714Y-64994342D01*
X157825714Y-64994342D02*
X157778095Y-65089580D01*
X157778095Y-65089580D02*
X157730476Y-65137200D01*
X157730476Y-65137200D02*
X157635238Y-65184819D01*
X157635238Y-65184819D02*
X157349524Y-65184819D01*
X157349524Y-65184819D02*
X157254286Y-65137200D01*
X157254286Y-65137200D02*
X157206667Y-65089580D01*
X104987142Y-57374819D02*
X104653809Y-56898628D01*
X104415714Y-57374819D02*
X104415714Y-56374819D01*
X104415714Y-56374819D02*
X104796666Y-56374819D01*
X104796666Y-56374819D02*
X104891904Y-56422438D01*
X104891904Y-56422438D02*
X104939523Y-56470057D01*
X104939523Y-56470057D02*
X104987142Y-56565295D01*
X104987142Y-56565295D02*
X104987142Y-56708152D01*
X104987142Y-56708152D02*
X104939523Y-56803390D01*
X104939523Y-56803390D02*
X104891904Y-56851009D01*
X104891904Y-56851009D02*
X104796666Y-56898628D01*
X104796666Y-56898628D02*
X104415714Y-56898628D01*
X105939523Y-57374819D02*
X105368095Y-57374819D01*
X105653809Y-57374819D02*
X105653809Y-56374819D01*
X105653809Y-56374819D02*
X105558571Y-56517676D01*
X105558571Y-56517676D02*
X105463333Y-56612914D01*
X105463333Y-56612914D02*
X105368095Y-56660533D01*
X106320476Y-56470057D02*
X106368095Y-56422438D01*
X106368095Y-56422438D02*
X106463333Y-56374819D01*
X106463333Y-56374819D02*
X106701428Y-56374819D01*
X106701428Y-56374819D02*
X106796666Y-56422438D01*
X106796666Y-56422438D02*
X106844285Y-56470057D01*
X106844285Y-56470057D02*
X106891904Y-56565295D01*
X106891904Y-56565295D02*
X106891904Y-56660533D01*
X106891904Y-56660533D02*
X106844285Y-56803390D01*
X106844285Y-56803390D02*
X106272857Y-57374819D01*
X106272857Y-57374819D02*
X106891904Y-57374819D01*
X104987142Y-83374819D02*
X104653809Y-82898628D01*
X104415714Y-83374819D02*
X104415714Y-82374819D01*
X104415714Y-82374819D02*
X104796666Y-82374819D01*
X104796666Y-82374819D02*
X104891904Y-82422438D01*
X104891904Y-82422438D02*
X104939523Y-82470057D01*
X104939523Y-82470057D02*
X104987142Y-82565295D01*
X104987142Y-82565295D02*
X104987142Y-82708152D01*
X104987142Y-82708152D02*
X104939523Y-82803390D01*
X104939523Y-82803390D02*
X104891904Y-82851009D01*
X104891904Y-82851009D02*
X104796666Y-82898628D01*
X104796666Y-82898628D02*
X104415714Y-82898628D01*
X105939523Y-83374819D02*
X105368095Y-83374819D01*
X105653809Y-83374819D02*
X105653809Y-82374819D01*
X105653809Y-82374819D02*
X105558571Y-82517676D01*
X105558571Y-82517676D02*
X105463333Y-82612914D01*
X105463333Y-82612914D02*
X105368095Y-82660533D01*
X106796666Y-82374819D02*
X106606190Y-82374819D01*
X106606190Y-82374819D02*
X106510952Y-82422438D01*
X106510952Y-82422438D02*
X106463333Y-82470057D01*
X106463333Y-82470057D02*
X106368095Y-82612914D01*
X106368095Y-82612914D02*
X106320476Y-82803390D01*
X106320476Y-82803390D02*
X106320476Y-83184342D01*
X106320476Y-83184342D02*
X106368095Y-83279580D01*
X106368095Y-83279580D02*
X106415714Y-83327200D01*
X106415714Y-83327200D02*
X106510952Y-83374819D01*
X106510952Y-83374819D02*
X106701428Y-83374819D01*
X106701428Y-83374819D02*
X106796666Y-83327200D01*
X106796666Y-83327200D02*
X106844285Y-83279580D01*
X106844285Y-83279580D02*
X106891904Y-83184342D01*
X106891904Y-83184342D02*
X106891904Y-82946247D01*
X106891904Y-82946247D02*
X106844285Y-82851009D01*
X106844285Y-82851009D02*
X106796666Y-82803390D01*
X106796666Y-82803390D02*
X106701428Y-82755771D01*
X106701428Y-82755771D02*
X106510952Y-82755771D01*
X106510952Y-82755771D02*
X106415714Y-82803390D01*
X106415714Y-82803390D02*
X106368095Y-82851009D01*
X106368095Y-82851009D02*
X106320476Y-82946247D01*
X136987142Y-135374819D02*
X136653809Y-134898628D01*
X136415714Y-135374819D02*
X136415714Y-134374819D01*
X136415714Y-134374819D02*
X136796666Y-134374819D01*
X136796666Y-134374819D02*
X136891904Y-134422438D01*
X136891904Y-134422438D02*
X136939523Y-134470057D01*
X136939523Y-134470057D02*
X136987142Y-134565295D01*
X136987142Y-134565295D02*
X136987142Y-134708152D01*
X136987142Y-134708152D02*
X136939523Y-134803390D01*
X136939523Y-134803390D02*
X136891904Y-134851009D01*
X136891904Y-134851009D02*
X136796666Y-134898628D01*
X136796666Y-134898628D02*
X136415714Y-134898628D01*
X137368095Y-134470057D02*
X137415714Y-134422438D01*
X137415714Y-134422438D02*
X137510952Y-134374819D01*
X137510952Y-134374819D02*
X137749047Y-134374819D01*
X137749047Y-134374819D02*
X137844285Y-134422438D01*
X137844285Y-134422438D02*
X137891904Y-134470057D01*
X137891904Y-134470057D02*
X137939523Y-134565295D01*
X137939523Y-134565295D02*
X137939523Y-134660533D01*
X137939523Y-134660533D02*
X137891904Y-134803390D01*
X137891904Y-134803390D02*
X137320476Y-135374819D01*
X137320476Y-135374819D02*
X137939523Y-135374819D01*
X138844285Y-134374819D02*
X138368095Y-134374819D01*
X138368095Y-134374819D02*
X138320476Y-134851009D01*
X138320476Y-134851009D02*
X138368095Y-134803390D01*
X138368095Y-134803390D02*
X138463333Y-134755771D01*
X138463333Y-134755771D02*
X138701428Y-134755771D01*
X138701428Y-134755771D02*
X138796666Y-134803390D01*
X138796666Y-134803390D02*
X138844285Y-134851009D01*
X138844285Y-134851009D02*
X138891904Y-134946247D01*
X138891904Y-134946247D02*
X138891904Y-135184342D01*
X138891904Y-135184342D02*
X138844285Y-135279580D01*
X138844285Y-135279580D02*
X138796666Y-135327200D01*
X138796666Y-135327200D02*
X138701428Y-135374819D01*
X138701428Y-135374819D02*
X138463333Y-135374819D01*
X138463333Y-135374819D02*
X138368095Y-135327200D01*
X138368095Y-135327200D02*
X138320476Y-135279580D01*
X48036666Y-171454819D02*
X48036666Y-172169104D01*
X48036666Y-172169104D02*
X47989047Y-172311961D01*
X47989047Y-172311961D02*
X47893809Y-172407200D01*
X47893809Y-172407200D02*
X47750952Y-172454819D01*
X47750952Y-172454819D02*
X47655714Y-172454819D01*
X48512857Y-172454819D02*
X48512857Y-171454819D01*
X48512857Y-171454819D02*
X48846190Y-172169104D01*
X48846190Y-172169104D02*
X49179523Y-171454819D01*
X49179523Y-171454819D02*
X49179523Y-172454819D01*
X49608095Y-172169104D02*
X50084285Y-172169104D01*
X49512857Y-172454819D02*
X49846190Y-171454819D01*
X49846190Y-171454819D02*
X50179523Y-172454819D01*
X50465238Y-171550057D02*
X50512857Y-171502438D01*
X50512857Y-171502438D02*
X50608095Y-171454819D01*
X50608095Y-171454819D02*
X50846190Y-171454819D01*
X50846190Y-171454819D02*
X50941428Y-171502438D01*
X50941428Y-171502438D02*
X50989047Y-171550057D01*
X50989047Y-171550057D02*
X51036666Y-171645295D01*
X51036666Y-171645295D02*
X51036666Y-171740533D01*
X51036666Y-171740533D02*
X50989047Y-171883390D01*
X50989047Y-171883390D02*
X50417619Y-172454819D01*
X50417619Y-172454819D02*
X51036666Y-172454819D01*
X16215238Y-219454819D02*
X16215238Y-220169104D01*
X16215238Y-220169104D02*
X16167619Y-220311961D01*
X16167619Y-220311961D02*
X16072381Y-220407200D01*
X16072381Y-220407200D02*
X15929524Y-220454819D01*
X15929524Y-220454819D02*
X15834286Y-220454819D01*
X16691429Y-220454819D02*
X16691429Y-219454819D01*
X16691429Y-219454819D02*
X17024762Y-220169104D01*
X17024762Y-220169104D02*
X17358095Y-219454819D01*
X17358095Y-219454819D02*
X17358095Y-220454819D01*
X17834286Y-220454819D02*
X17834286Y-219454819D01*
X17834286Y-219454819D02*
X18072381Y-219454819D01*
X18072381Y-219454819D02*
X18215238Y-219502438D01*
X18215238Y-219502438D02*
X18310476Y-219597676D01*
X18310476Y-219597676D02*
X18358095Y-219692914D01*
X18358095Y-219692914D02*
X18405714Y-219883390D01*
X18405714Y-219883390D02*
X18405714Y-220026247D01*
X18405714Y-220026247D02*
X18358095Y-220216723D01*
X18358095Y-220216723D02*
X18310476Y-220311961D01*
X18310476Y-220311961D02*
X18215238Y-220407200D01*
X18215238Y-220407200D02*
X18072381Y-220454819D01*
X18072381Y-220454819D02*
X17834286Y-220454819D01*
X19358095Y-220454819D02*
X18786667Y-220454819D01*
X19072381Y-220454819D02*
X19072381Y-219454819D01*
X19072381Y-219454819D02*
X18977143Y-219597676D01*
X18977143Y-219597676D02*
X18881905Y-219692914D01*
X18881905Y-219692914D02*
X18786667Y-219740533D01*
X79333333Y-93859580D02*
X79285714Y-93907200D01*
X79285714Y-93907200D02*
X79142857Y-93954819D01*
X79142857Y-93954819D02*
X79047619Y-93954819D01*
X79047619Y-93954819D02*
X78904762Y-93907200D01*
X78904762Y-93907200D02*
X78809524Y-93811961D01*
X78809524Y-93811961D02*
X78761905Y-93716723D01*
X78761905Y-93716723D02*
X78714286Y-93526247D01*
X78714286Y-93526247D02*
X78714286Y-93383390D01*
X78714286Y-93383390D02*
X78761905Y-93192914D01*
X78761905Y-93192914D02*
X78809524Y-93097676D01*
X78809524Y-93097676D02*
X78904762Y-93002438D01*
X78904762Y-93002438D02*
X79047619Y-92954819D01*
X79047619Y-92954819D02*
X79142857Y-92954819D01*
X79142857Y-92954819D02*
X79285714Y-93002438D01*
X79285714Y-93002438D02*
X79333333Y-93050057D01*
X79666667Y-92954819D02*
X80333333Y-92954819D01*
X80333333Y-92954819D02*
X79904762Y-93954819D01*
X87778571Y-138404819D02*
X87445238Y-137928628D01*
X87207143Y-138404819D02*
X87207143Y-137404819D01*
X87207143Y-137404819D02*
X87588095Y-137404819D01*
X87588095Y-137404819D02*
X87683333Y-137452438D01*
X87683333Y-137452438D02*
X87730952Y-137500057D01*
X87730952Y-137500057D02*
X87778571Y-137595295D01*
X87778571Y-137595295D02*
X87778571Y-137738152D01*
X87778571Y-137738152D02*
X87730952Y-137833390D01*
X87730952Y-137833390D02*
X87683333Y-137881009D01*
X87683333Y-137881009D02*
X87588095Y-137928628D01*
X87588095Y-137928628D02*
X87207143Y-137928628D01*
X88064286Y-137404819D02*
X88397619Y-138404819D01*
X88397619Y-138404819D02*
X88730952Y-137404819D01*
X89588095Y-138404819D02*
X89016667Y-138404819D01*
X89302381Y-138404819D02*
X89302381Y-137404819D01*
X89302381Y-137404819D02*
X89207143Y-137547676D01*
X89207143Y-137547676D02*
X89111905Y-137642914D01*
X89111905Y-137642914D02*
X89016667Y-137690533D01*
X90492857Y-137404819D02*
X90016667Y-137404819D01*
X90016667Y-137404819D02*
X89969048Y-137881009D01*
X89969048Y-137881009D02*
X90016667Y-137833390D01*
X90016667Y-137833390D02*
X90111905Y-137785771D01*
X90111905Y-137785771D02*
X90350000Y-137785771D01*
X90350000Y-137785771D02*
X90445238Y-137833390D01*
X90445238Y-137833390D02*
X90492857Y-137881009D01*
X90492857Y-137881009D02*
X90540476Y-137976247D01*
X90540476Y-137976247D02*
X90540476Y-138214342D01*
X90540476Y-138214342D02*
X90492857Y-138309580D01*
X90492857Y-138309580D02*
X90445238Y-138357200D01*
X90445238Y-138357200D02*
X90350000Y-138404819D01*
X90350000Y-138404819D02*
X90111905Y-138404819D01*
X90111905Y-138404819D02*
X90016667Y-138357200D01*
X90016667Y-138357200D02*
X89969048Y-138309580D01*
X72987142Y-135374819D02*
X72653809Y-134898628D01*
X72415714Y-135374819D02*
X72415714Y-134374819D01*
X72415714Y-134374819D02*
X72796666Y-134374819D01*
X72796666Y-134374819D02*
X72891904Y-134422438D01*
X72891904Y-134422438D02*
X72939523Y-134470057D01*
X72939523Y-134470057D02*
X72987142Y-134565295D01*
X72987142Y-134565295D02*
X72987142Y-134708152D01*
X72987142Y-134708152D02*
X72939523Y-134803390D01*
X72939523Y-134803390D02*
X72891904Y-134851009D01*
X72891904Y-134851009D02*
X72796666Y-134898628D01*
X72796666Y-134898628D02*
X72415714Y-134898628D01*
X73368095Y-134470057D02*
X73415714Y-134422438D01*
X73415714Y-134422438D02*
X73510952Y-134374819D01*
X73510952Y-134374819D02*
X73749047Y-134374819D01*
X73749047Y-134374819D02*
X73844285Y-134422438D01*
X73844285Y-134422438D02*
X73891904Y-134470057D01*
X73891904Y-134470057D02*
X73939523Y-134565295D01*
X73939523Y-134565295D02*
X73939523Y-134660533D01*
X73939523Y-134660533D02*
X73891904Y-134803390D01*
X73891904Y-134803390D02*
X73320476Y-135374819D01*
X73320476Y-135374819D02*
X73939523Y-135374819D01*
X74272857Y-134374819D02*
X74891904Y-134374819D01*
X74891904Y-134374819D02*
X74558571Y-134755771D01*
X74558571Y-134755771D02*
X74701428Y-134755771D01*
X74701428Y-134755771D02*
X74796666Y-134803390D01*
X74796666Y-134803390D02*
X74844285Y-134851009D01*
X74844285Y-134851009D02*
X74891904Y-134946247D01*
X74891904Y-134946247D02*
X74891904Y-135184342D01*
X74891904Y-135184342D02*
X74844285Y-135279580D01*
X74844285Y-135279580D02*
X74796666Y-135327200D01*
X74796666Y-135327200D02*
X74701428Y-135374819D01*
X74701428Y-135374819D02*
X74415714Y-135374819D01*
X74415714Y-135374819D02*
X74320476Y-135327200D01*
X74320476Y-135327200D02*
X74272857Y-135279580D01*
X104913333Y-31084819D02*
X104580000Y-30608628D01*
X104341905Y-31084819D02*
X104341905Y-30084819D01*
X104341905Y-30084819D02*
X104722857Y-30084819D01*
X104722857Y-30084819D02*
X104818095Y-30132438D01*
X104818095Y-30132438D02*
X104865714Y-30180057D01*
X104865714Y-30180057D02*
X104913333Y-30275295D01*
X104913333Y-30275295D02*
X104913333Y-30418152D01*
X104913333Y-30418152D02*
X104865714Y-30513390D01*
X104865714Y-30513390D02*
X104818095Y-30561009D01*
X104818095Y-30561009D02*
X104722857Y-30608628D01*
X104722857Y-30608628D02*
X104341905Y-30608628D01*
X105294286Y-30180057D02*
X105341905Y-30132438D01*
X105341905Y-30132438D02*
X105437143Y-30084819D01*
X105437143Y-30084819D02*
X105675238Y-30084819D01*
X105675238Y-30084819D02*
X105770476Y-30132438D01*
X105770476Y-30132438D02*
X105818095Y-30180057D01*
X105818095Y-30180057D02*
X105865714Y-30275295D01*
X105865714Y-30275295D02*
X105865714Y-30370533D01*
X105865714Y-30370533D02*
X105818095Y-30513390D01*
X105818095Y-30513390D02*
X105246667Y-31084819D01*
X105246667Y-31084819D02*
X105865714Y-31084819D01*
X11916667Y-130407200D02*
X12059524Y-130454819D01*
X12059524Y-130454819D02*
X12297619Y-130454819D01*
X12297619Y-130454819D02*
X12392857Y-130407200D01*
X12392857Y-130407200D02*
X12440476Y-130359580D01*
X12440476Y-130359580D02*
X12488095Y-130264342D01*
X12488095Y-130264342D02*
X12488095Y-130169104D01*
X12488095Y-130169104D02*
X12440476Y-130073866D01*
X12440476Y-130073866D02*
X12392857Y-130026247D01*
X12392857Y-130026247D02*
X12297619Y-129978628D01*
X12297619Y-129978628D02*
X12107143Y-129931009D01*
X12107143Y-129931009D02*
X12011905Y-129883390D01*
X12011905Y-129883390D02*
X11964286Y-129835771D01*
X11964286Y-129835771D02*
X11916667Y-129740533D01*
X11916667Y-129740533D02*
X11916667Y-129645295D01*
X11916667Y-129645295D02*
X11964286Y-129550057D01*
X11964286Y-129550057D02*
X12011905Y-129502438D01*
X12011905Y-129502438D02*
X12107143Y-129454819D01*
X12107143Y-129454819D02*
X12345238Y-129454819D01*
X12345238Y-129454819D02*
X12488095Y-129502438D01*
X12821429Y-129454819D02*
X13059524Y-130454819D01*
X13059524Y-130454819D02*
X13250000Y-129740533D01*
X13250000Y-129740533D02*
X13440476Y-130454819D01*
X13440476Y-130454819D02*
X13678572Y-129454819D01*
X14535714Y-129454819D02*
X14059524Y-129454819D01*
X14059524Y-129454819D02*
X14011905Y-129931009D01*
X14011905Y-129931009D02*
X14059524Y-129883390D01*
X14059524Y-129883390D02*
X14154762Y-129835771D01*
X14154762Y-129835771D02*
X14392857Y-129835771D01*
X14392857Y-129835771D02*
X14488095Y-129883390D01*
X14488095Y-129883390D02*
X14535714Y-129931009D01*
X14535714Y-129931009D02*
X14583333Y-130026247D01*
X14583333Y-130026247D02*
X14583333Y-130264342D01*
X14583333Y-130264342D02*
X14535714Y-130359580D01*
X14535714Y-130359580D02*
X14488095Y-130407200D01*
X14488095Y-130407200D02*
X14392857Y-130454819D01*
X14392857Y-130454819D02*
X14154762Y-130454819D01*
X14154762Y-130454819D02*
X14059524Y-130407200D01*
X14059524Y-130407200D02*
X14011905Y-130359580D01*
X149463333Y-105374819D02*
X149130000Y-104898628D01*
X148891905Y-105374819D02*
X148891905Y-104374819D01*
X148891905Y-104374819D02*
X149272857Y-104374819D01*
X149272857Y-104374819D02*
X149368095Y-104422438D01*
X149368095Y-104422438D02*
X149415714Y-104470057D01*
X149415714Y-104470057D02*
X149463333Y-104565295D01*
X149463333Y-104565295D02*
X149463333Y-104708152D01*
X149463333Y-104708152D02*
X149415714Y-104803390D01*
X149415714Y-104803390D02*
X149368095Y-104851009D01*
X149368095Y-104851009D02*
X149272857Y-104898628D01*
X149272857Y-104898628D02*
X148891905Y-104898628D01*
X150034762Y-104803390D02*
X149939524Y-104755771D01*
X149939524Y-104755771D02*
X149891905Y-104708152D01*
X149891905Y-104708152D02*
X149844286Y-104612914D01*
X149844286Y-104612914D02*
X149844286Y-104565295D01*
X149844286Y-104565295D02*
X149891905Y-104470057D01*
X149891905Y-104470057D02*
X149939524Y-104422438D01*
X149939524Y-104422438D02*
X150034762Y-104374819D01*
X150034762Y-104374819D02*
X150225238Y-104374819D01*
X150225238Y-104374819D02*
X150320476Y-104422438D01*
X150320476Y-104422438D02*
X150368095Y-104470057D01*
X150368095Y-104470057D02*
X150415714Y-104565295D01*
X150415714Y-104565295D02*
X150415714Y-104612914D01*
X150415714Y-104612914D02*
X150368095Y-104708152D01*
X150368095Y-104708152D02*
X150320476Y-104755771D01*
X150320476Y-104755771D02*
X150225238Y-104803390D01*
X150225238Y-104803390D02*
X150034762Y-104803390D01*
X150034762Y-104803390D02*
X149939524Y-104851009D01*
X149939524Y-104851009D02*
X149891905Y-104898628D01*
X149891905Y-104898628D02*
X149844286Y-104993866D01*
X149844286Y-104993866D02*
X149844286Y-105184342D01*
X149844286Y-105184342D02*
X149891905Y-105279580D01*
X149891905Y-105279580D02*
X149939524Y-105327200D01*
X149939524Y-105327200D02*
X150034762Y-105374819D01*
X150034762Y-105374819D02*
X150225238Y-105374819D01*
X150225238Y-105374819D02*
X150320476Y-105327200D01*
X150320476Y-105327200D02*
X150368095Y-105279580D01*
X150368095Y-105279580D02*
X150415714Y-105184342D01*
X150415714Y-105184342D02*
X150415714Y-104993866D01*
X150415714Y-104993866D02*
X150368095Y-104898628D01*
X150368095Y-104898628D02*
X150320476Y-104851009D01*
X150320476Y-104851009D02*
X150225238Y-104803390D01*
X72987142Y-109374819D02*
X72653809Y-108898628D01*
X72415714Y-109374819D02*
X72415714Y-108374819D01*
X72415714Y-108374819D02*
X72796666Y-108374819D01*
X72796666Y-108374819D02*
X72891904Y-108422438D01*
X72891904Y-108422438D02*
X72939523Y-108470057D01*
X72939523Y-108470057D02*
X72987142Y-108565295D01*
X72987142Y-108565295D02*
X72987142Y-108708152D01*
X72987142Y-108708152D02*
X72939523Y-108803390D01*
X72939523Y-108803390D02*
X72891904Y-108851009D01*
X72891904Y-108851009D02*
X72796666Y-108898628D01*
X72796666Y-108898628D02*
X72415714Y-108898628D01*
X73939523Y-109374819D02*
X73368095Y-109374819D01*
X73653809Y-109374819D02*
X73653809Y-108374819D01*
X73653809Y-108374819D02*
X73558571Y-108517676D01*
X73558571Y-108517676D02*
X73463333Y-108612914D01*
X73463333Y-108612914D02*
X73368095Y-108660533D01*
X74415714Y-109374819D02*
X74606190Y-109374819D01*
X74606190Y-109374819D02*
X74701428Y-109327200D01*
X74701428Y-109327200D02*
X74749047Y-109279580D01*
X74749047Y-109279580D02*
X74844285Y-109136723D01*
X74844285Y-109136723D02*
X74891904Y-108946247D01*
X74891904Y-108946247D02*
X74891904Y-108565295D01*
X74891904Y-108565295D02*
X74844285Y-108470057D01*
X74844285Y-108470057D02*
X74796666Y-108422438D01*
X74796666Y-108422438D02*
X74701428Y-108374819D01*
X74701428Y-108374819D02*
X74510952Y-108374819D01*
X74510952Y-108374819D02*
X74415714Y-108422438D01*
X74415714Y-108422438D02*
X74368095Y-108470057D01*
X74368095Y-108470057D02*
X74320476Y-108565295D01*
X74320476Y-108565295D02*
X74320476Y-108803390D01*
X74320476Y-108803390D02*
X74368095Y-108898628D01*
X74368095Y-108898628D02*
X74415714Y-108946247D01*
X74415714Y-108946247D02*
X74510952Y-108993866D01*
X74510952Y-108993866D02*
X74701428Y-108993866D01*
X74701428Y-108993866D02*
X74796666Y-108946247D01*
X74796666Y-108946247D02*
X74844285Y-108898628D01*
X74844285Y-108898628D02*
X74891904Y-108803390D01*
X156301905Y-87184819D02*
X156301905Y-86184819D01*
X156301905Y-86184819D02*
X156540000Y-86184819D01*
X156540000Y-86184819D02*
X156682857Y-86232438D01*
X156682857Y-86232438D02*
X156778095Y-86327676D01*
X156778095Y-86327676D02*
X156825714Y-86422914D01*
X156825714Y-86422914D02*
X156873333Y-86613390D01*
X156873333Y-86613390D02*
X156873333Y-86756247D01*
X156873333Y-86756247D02*
X156825714Y-86946723D01*
X156825714Y-86946723D02*
X156778095Y-87041961D01*
X156778095Y-87041961D02*
X156682857Y-87137200D01*
X156682857Y-87137200D02*
X156540000Y-87184819D01*
X156540000Y-87184819D02*
X156301905Y-87184819D01*
X157730476Y-86518152D02*
X157730476Y-87184819D01*
X157492381Y-86137200D02*
X157254286Y-86851485D01*
X157254286Y-86851485D02*
X157873333Y-86851485D01*
X60913333Y-31084819D02*
X60580000Y-30608628D01*
X60341905Y-31084819D02*
X60341905Y-30084819D01*
X60341905Y-30084819D02*
X60722857Y-30084819D01*
X60722857Y-30084819D02*
X60818095Y-30132438D01*
X60818095Y-30132438D02*
X60865714Y-30180057D01*
X60865714Y-30180057D02*
X60913333Y-30275295D01*
X60913333Y-30275295D02*
X60913333Y-30418152D01*
X60913333Y-30418152D02*
X60865714Y-30513390D01*
X60865714Y-30513390D02*
X60818095Y-30561009D01*
X60818095Y-30561009D02*
X60722857Y-30608628D01*
X60722857Y-30608628D02*
X60341905Y-30608628D01*
X61818095Y-30084819D02*
X61341905Y-30084819D01*
X61341905Y-30084819D02*
X61294286Y-30561009D01*
X61294286Y-30561009D02*
X61341905Y-30513390D01*
X61341905Y-30513390D02*
X61437143Y-30465771D01*
X61437143Y-30465771D02*
X61675238Y-30465771D01*
X61675238Y-30465771D02*
X61770476Y-30513390D01*
X61770476Y-30513390D02*
X61818095Y-30561009D01*
X61818095Y-30561009D02*
X61865714Y-30656247D01*
X61865714Y-30656247D02*
X61865714Y-30894342D01*
X61865714Y-30894342D02*
X61818095Y-30989580D01*
X61818095Y-30989580D02*
X61770476Y-31037200D01*
X61770476Y-31037200D02*
X61675238Y-31084819D01*
X61675238Y-31084819D02*
X61437143Y-31084819D01*
X61437143Y-31084819D02*
X61341905Y-31037200D01*
X61341905Y-31037200D02*
X61294286Y-30989580D01*
X23071905Y-39334819D02*
X23071905Y-38334819D01*
X23071905Y-38334819D02*
X23310000Y-38334819D01*
X23310000Y-38334819D02*
X23452857Y-38382438D01*
X23452857Y-38382438D02*
X23548095Y-38477676D01*
X23548095Y-38477676D02*
X23595714Y-38572914D01*
X23595714Y-38572914D02*
X23643333Y-38763390D01*
X23643333Y-38763390D02*
X23643333Y-38906247D01*
X23643333Y-38906247D02*
X23595714Y-39096723D01*
X23595714Y-39096723D02*
X23548095Y-39191961D01*
X23548095Y-39191961D02*
X23452857Y-39287200D01*
X23452857Y-39287200D02*
X23310000Y-39334819D01*
X23310000Y-39334819D02*
X23071905Y-39334819D01*
X24595714Y-39334819D02*
X24024286Y-39334819D01*
X24310000Y-39334819D02*
X24310000Y-38334819D01*
X24310000Y-38334819D02*
X24214762Y-38477676D01*
X24214762Y-38477676D02*
X24119524Y-38572914D01*
X24119524Y-38572914D02*
X24024286Y-38620533D01*
X19738095Y-39654819D02*
X19738095Y-38654819D01*
X20309523Y-39654819D02*
X19880952Y-39083390D01*
X20309523Y-38654819D02*
X19738095Y-39226247D01*
X111216666Y-19204819D02*
X111216666Y-19919104D01*
X111216666Y-19919104D02*
X111169047Y-20061961D01*
X111169047Y-20061961D02*
X111073809Y-20157200D01*
X111073809Y-20157200D02*
X110930952Y-20204819D01*
X110930952Y-20204819D02*
X110835714Y-20204819D01*
X111597619Y-19204819D02*
X112216666Y-19204819D01*
X112216666Y-19204819D02*
X111883333Y-19585771D01*
X111883333Y-19585771D02*
X112026190Y-19585771D01*
X112026190Y-19585771D02*
X112121428Y-19633390D01*
X112121428Y-19633390D02*
X112169047Y-19681009D01*
X112169047Y-19681009D02*
X112216666Y-19776247D01*
X112216666Y-19776247D02*
X112216666Y-20014342D01*
X112216666Y-20014342D02*
X112169047Y-20109580D01*
X112169047Y-20109580D02*
X112121428Y-20157200D01*
X112121428Y-20157200D02*
X112026190Y-20204819D01*
X112026190Y-20204819D02*
X111740476Y-20204819D01*
X111740476Y-20204819D02*
X111645238Y-20157200D01*
X111645238Y-20157200D02*
X111597619Y-20109580D01*
X149463333Y-83374819D02*
X149130000Y-82898628D01*
X148891905Y-83374819D02*
X148891905Y-82374819D01*
X148891905Y-82374819D02*
X149272857Y-82374819D01*
X149272857Y-82374819D02*
X149368095Y-82422438D01*
X149368095Y-82422438D02*
X149415714Y-82470057D01*
X149415714Y-82470057D02*
X149463333Y-82565295D01*
X149463333Y-82565295D02*
X149463333Y-82708152D01*
X149463333Y-82708152D02*
X149415714Y-82803390D01*
X149415714Y-82803390D02*
X149368095Y-82851009D01*
X149368095Y-82851009D02*
X149272857Y-82898628D01*
X149272857Y-82898628D02*
X148891905Y-82898628D01*
X149796667Y-82374819D02*
X150463333Y-82374819D01*
X150463333Y-82374819D02*
X150034762Y-83374819D01*
X143333333Y-67859580D02*
X143285714Y-67907200D01*
X143285714Y-67907200D02*
X143142857Y-67954819D01*
X143142857Y-67954819D02*
X143047619Y-67954819D01*
X143047619Y-67954819D02*
X142904762Y-67907200D01*
X142904762Y-67907200D02*
X142809524Y-67811961D01*
X142809524Y-67811961D02*
X142761905Y-67716723D01*
X142761905Y-67716723D02*
X142714286Y-67526247D01*
X142714286Y-67526247D02*
X142714286Y-67383390D01*
X142714286Y-67383390D02*
X142761905Y-67192914D01*
X142761905Y-67192914D02*
X142809524Y-67097676D01*
X142809524Y-67097676D02*
X142904762Y-67002438D01*
X142904762Y-67002438D02*
X143047619Y-66954819D01*
X143047619Y-66954819D02*
X143142857Y-66954819D01*
X143142857Y-66954819D02*
X143285714Y-67002438D01*
X143285714Y-67002438D02*
X143333333Y-67050057D01*
X144238095Y-66954819D02*
X143761905Y-66954819D01*
X143761905Y-66954819D02*
X143714286Y-67431009D01*
X143714286Y-67431009D02*
X143761905Y-67383390D01*
X143761905Y-67383390D02*
X143857143Y-67335771D01*
X143857143Y-67335771D02*
X144095238Y-67335771D01*
X144095238Y-67335771D02*
X144190476Y-67383390D01*
X144190476Y-67383390D02*
X144238095Y-67431009D01*
X144238095Y-67431009D02*
X144285714Y-67526247D01*
X144285714Y-67526247D02*
X144285714Y-67764342D01*
X144285714Y-67764342D02*
X144238095Y-67859580D01*
X144238095Y-67859580D02*
X144190476Y-67907200D01*
X144190476Y-67907200D02*
X144095238Y-67954819D01*
X144095238Y-67954819D02*
X143857143Y-67954819D01*
X143857143Y-67954819D02*
X143761905Y-67907200D01*
X143761905Y-67907200D02*
X143714286Y-67859580D01*
X46857142Y-145859580D02*
X46809523Y-145907200D01*
X46809523Y-145907200D02*
X46666666Y-145954819D01*
X46666666Y-145954819D02*
X46571428Y-145954819D01*
X46571428Y-145954819D02*
X46428571Y-145907200D01*
X46428571Y-145907200D02*
X46333333Y-145811961D01*
X46333333Y-145811961D02*
X46285714Y-145716723D01*
X46285714Y-145716723D02*
X46238095Y-145526247D01*
X46238095Y-145526247D02*
X46238095Y-145383390D01*
X46238095Y-145383390D02*
X46285714Y-145192914D01*
X46285714Y-145192914D02*
X46333333Y-145097676D01*
X46333333Y-145097676D02*
X46428571Y-145002438D01*
X46428571Y-145002438D02*
X46571428Y-144954819D01*
X46571428Y-144954819D02*
X46666666Y-144954819D01*
X46666666Y-144954819D02*
X46809523Y-145002438D01*
X46809523Y-145002438D02*
X46857142Y-145050057D01*
X47809523Y-145954819D02*
X47238095Y-145954819D01*
X47523809Y-145954819D02*
X47523809Y-144954819D01*
X47523809Y-144954819D02*
X47428571Y-145097676D01*
X47428571Y-145097676D02*
X47333333Y-145192914D01*
X47333333Y-145192914D02*
X47238095Y-145240533D01*
X48666666Y-145288152D02*
X48666666Y-145954819D01*
X48428571Y-144907200D02*
X48190476Y-145621485D01*
X48190476Y-145621485D02*
X48809523Y-145621485D01*
X46857142Y-119859580D02*
X46809523Y-119907200D01*
X46809523Y-119907200D02*
X46666666Y-119954819D01*
X46666666Y-119954819D02*
X46571428Y-119954819D01*
X46571428Y-119954819D02*
X46428571Y-119907200D01*
X46428571Y-119907200D02*
X46333333Y-119811961D01*
X46333333Y-119811961D02*
X46285714Y-119716723D01*
X46285714Y-119716723D02*
X46238095Y-119526247D01*
X46238095Y-119526247D02*
X46238095Y-119383390D01*
X46238095Y-119383390D02*
X46285714Y-119192914D01*
X46285714Y-119192914D02*
X46333333Y-119097676D01*
X46333333Y-119097676D02*
X46428571Y-119002438D01*
X46428571Y-119002438D02*
X46571428Y-118954819D01*
X46571428Y-118954819D02*
X46666666Y-118954819D01*
X46666666Y-118954819D02*
X46809523Y-119002438D01*
X46809523Y-119002438D02*
X46857142Y-119050057D01*
X47809523Y-119954819D02*
X47238095Y-119954819D01*
X47523809Y-119954819D02*
X47523809Y-118954819D01*
X47523809Y-118954819D02*
X47428571Y-119097676D01*
X47428571Y-119097676D02*
X47333333Y-119192914D01*
X47333333Y-119192914D02*
X47238095Y-119240533D01*
X48428571Y-118954819D02*
X48523809Y-118954819D01*
X48523809Y-118954819D02*
X48619047Y-119002438D01*
X48619047Y-119002438D02*
X48666666Y-119050057D01*
X48666666Y-119050057D02*
X48714285Y-119145295D01*
X48714285Y-119145295D02*
X48761904Y-119335771D01*
X48761904Y-119335771D02*
X48761904Y-119573866D01*
X48761904Y-119573866D02*
X48714285Y-119764342D01*
X48714285Y-119764342D02*
X48666666Y-119859580D01*
X48666666Y-119859580D02*
X48619047Y-119907200D01*
X48619047Y-119907200D02*
X48523809Y-119954819D01*
X48523809Y-119954819D02*
X48428571Y-119954819D01*
X48428571Y-119954819D02*
X48333333Y-119907200D01*
X48333333Y-119907200D02*
X48285714Y-119859580D01*
X48285714Y-119859580D02*
X48238095Y-119764342D01*
X48238095Y-119764342D02*
X48190476Y-119573866D01*
X48190476Y-119573866D02*
X48190476Y-119335771D01*
X48190476Y-119335771D02*
X48238095Y-119145295D01*
X48238095Y-119145295D02*
X48285714Y-119050057D01*
X48285714Y-119050057D02*
X48333333Y-119002438D01*
X48333333Y-119002438D02*
X48428571Y-118954819D01*
X120254761Y-60404819D02*
X119921428Y-59928628D01*
X119683333Y-60404819D02*
X119683333Y-59404819D01*
X119683333Y-59404819D02*
X120064285Y-59404819D01*
X120064285Y-59404819D02*
X120159523Y-59452438D01*
X120159523Y-59452438D02*
X120207142Y-59500057D01*
X120207142Y-59500057D02*
X120254761Y-59595295D01*
X120254761Y-59595295D02*
X120254761Y-59738152D01*
X120254761Y-59738152D02*
X120207142Y-59833390D01*
X120207142Y-59833390D02*
X120159523Y-59881009D01*
X120159523Y-59881009D02*
X120064285Y-59928628D01*
X120064285Y-59928628D02*
X119683333Y-59928628D01*
X120540476Y-59404819D02*
X120873809Y-60404819D01*
X120873809Y-60404819D02*
X121207142Y-59404819D01*
X121969047Y-59738152D02*
X121969047Y-60404819D01*
X121730952Y-59357200D02*
X121492857Y-60071485D01*
X121492857Y-60071485D02*
X122111904Y-60071485D01*
X24254761Y-60404819D02*
X23921428Y-59928628D01*
X23683333Y-60404819D02*
X23683333Y-59404819D01*
X23683333Y-59404819D02*
X24064285Y-59404819D01*
X24064285Y-59404819D02*
X24159523Y-59452438D01*
X24159523Y-59452438D02*
X24207142Y-59500057D01*
X24207142Y-59500057D02*
X24254761Y-59595295D01*
X24254761Y-59595295D02*
X24254761Y-59738152D01*
X24254761Y-59738152D02*
X24207142Y-59833390D01*
X24207142Y-59833390D02*
X24159523Y-59881009D01*
X24159523Y-59881009D02*
X24064285Y-59928628D01*
X24064285Y-59928628D02*
X23683333Y-59928628D01*
X24540476Y-59404819D02*
X24873809Y-60404819D01*
X24873809Y-60404819D02*
X25207142Y-59404819D01*
X26064285Y-60404819D02*
X25492857Y-60404819D01*
X25778571Y-60404819D02*
X25778571Y-59404819D01*
X25778571Y-59404819D02*
X25683333Y-59547676D01*
X25683333Y-59547676D02*
X25588095Y-59642914D01*
X25588095Y-59642914D02*
X25492857Y-59690533D01*
X149463333Y-61374819D02*
X149130000Y-60898628D01*
X148891905Y-61374819D02*
X148891905Y-60374819D01*
X148891905Y-60374819D02*
X149272857Y-60374819D01*
X149272857Y-60374819D02*
X149368095Y-60422438D01*
X149368095Y-60422438D02*
X149415714Y-60470057D01*
X149415714Y-60470057D02*
X149463333Y-60565295D01*
X149463333Y-60565295D02*
X149463333Y-60708152D01*
X149463333Y-60708152D02*
X149415714Y-60803390D01*
X149415714Y-60803390D02*
X149368095Y-60851009D01*
X149368095Y-60851009D02*
X149272857Y-60898628D01*
X149272857Y-60898628D02*
X148891905Y-60898628D01*
X150320476Y-60374819D02*
X150130000Y-60374819D01*
X150130000Y-60374819D02*
X150034762Y-60422438D01*
X150034762Y-60422438D02*
X149987143Y-60470057D01*
X149987143Y-60470057D02*
X149891905Y-60612914D01*
X149891905Y-60612914D02*
X149844286Y-60803390D01*
X149844286Y-60803390D02*
X149844286Y-61184342D01*
X149844286Y-61184342D02*
X149891905Y-61279580D01*
X149891905Y-61279580D02*
X149939524Y-61327200D01*
X149939524Y-61327200D02*
X150034762Y-61374819D01*
X150034762Y-61374819D02*
X150225238Y-61374819D01*
X150225238Y-61374819D02*
X150320476Y-61327200D01*
X150320476Y-61327200D02*
X150368095Y-61279580D01*
X150368095Y-61279580D02*
X150415714Y-61184342D01*
X150415714Y-61184342D02*
X150415714Y-60946247D01*
X150415714Y-60946247D02*
X150368095Y-60851009D01*
X150368095Y-60851009D02*
X150320476Y-60803390D01*
X150320476Y-60803390D02*
X150225238Y-60755771D01*
X150225238Y-60755771D02*
X150034762Y-60755771D01*
X150034762Y-60755771D02*
X149939524Y-60803390D01*
X149939524Y-60803390D02*
X149891905Y-60851009D01*
X149891905Y-60851009D02*
X149844286Y-60946247D01*
%TO.C,J10*%
D11*
X79480000Y-12100000D02*
X79480000Y-18420000D01*
X79480000Y-12100000D02*
X92520000Y-12100000D01*
X79480000Y-21020000D02*
X79480000Y-27340000D01*
X79480000Y-27340000D02*
X92520000Y-27340000D01*
X92520000Y-12100000D02*
X92520000Y-18420000D01*
X92520000Y-21020000D02*
X92520000Y-27340000D01*
X81835847Y-25653500D02*
G75*
G02*
X85250000Y-12510001I4164153J5933500D01*
G01*
X86841090Y-12517176D02*
G75*
G02*
X83800000Y-26630000I-841090J-7202824D01*
G01*
%TO.C,R27*%
X101040000Y-184000000D02*
X101810000Y-184000000D01*
X109120000Y-184000000D02*
X108350000Y-184000000D01*
X101810000Y-182630000D02*
X108350000Y-182630000D01*
X108350000Y-185370000D01*
X101810000Y-185370000D01*
X101810000Y-182630000D01*
%TO.C,C1*%
X69880000Y-35630000D02*
X75120000Y-35630000D01*
X69880000Y-35967000D02*
X69880000Y-35630000D01*
X69880000Y-38370000D02*
X69880000Y-38033000D01*
X75120000Y-35630000D02*
X75120000Y-35967000D01*
X75120000Y-38033000D02*
X75120000Y-38370000D01*
X75120000Y-38370000D02*
X69880000Y-38370000D01*
%TO.C,RV11*%
X91479000Y-104880000D02*
X101520000Y-104880000D01*
X91479000Y-108816000D02*
X91479000Y-104880000D01*
X91479000Y-117120000D02*
X91479000Y-113183000D01*
X91479000Y-117120000D02*
X92800000Y-117120000D01*
X95250000Y-117120000D02*
X95630000Y-117120000D01*
X97371000Y-117120000D02*
X98130000Y-117120000D01*
X99870000Y-117120000D02*
X101520000Y-117120000D01*
X101520000Y-108816000D02*
X101520000Y-104880000D01*
X101520000Y-117120000D02*
X101520000Y-113183000D01*
%TO.C,J4*%
X148620000Y-24620000D02*
X150000000Y-24620000D01*
X148620000Y-26000000D02*
X148620000Y-24620000D01*
X148620000Y-27270000D02*
X148620000Y-35000000D01*
X148620000Y-27270000D02*
X151380000Y-27270000D01*
X148620000Y-35000000D02*
X151380000Y-35000000D01*
X151380000Y-27270000D02*
X151380000Y-35000000D01*
%TO.C,RV9*%
X27479000Y-104880000D02*
X37520000Y-104880000D01*
X27479000Y-108816000D02*
X27479000Y-104880000D01*
X27479000Y-117120000D02*
X27479000Y-113183000D01*
X27479000Y-117120000D02*
X28800000Y-117120000D01*
X31250000Y-117120000D02*
X31630000Y-117120000D01*
X33371000Y-117120000D02*
X34130000Y-117120000D01*
X35870000Y-117120000D02*
X37520000Y-117120000D01*
X37520000Y-108816000D02*
X37520000Y-104880000D01*
X37520000Y-117120000D02*
X37520000Y-113183000D01*
%TO.C,J5*%
X148620000Y-8620000D02*
X150000000Y-8620000D01*
X148620000Y-10000000D02*
X148620000Y-8620000D01*
X148620000Y-11270000D02*
X148620000Y-19000000D01*
X148620000Y-11270000D02*
X151380000Y-11270000D01*
X148620000Y-19000000D02*
X151380000Y-19000000D01*
X151380000Y-11270000D02*
X151380000Y-19000000D01*
%TO.C,R13*%
X140000000Y-52880000D02*
X140000000Y-53650000D01*
X140000000Y-60960000D02*
X140000000Y-60190000D01*
X138630000Y-53650000D02*
X141370000Y-53650000D01*
X141370000Y-60190000D01*
X138630000Y-60190000D01*
X138630000Y-53650000D01*
%TO.C,J2*%
X63400000Y-17600000D02*
G75*
G02*
X40600000Y-17600000I-11400000J0D01*
G01*
X40600000Y-17600000D02*
G75*
G02*
X63400000Y-17600000I11400000J0D01*
G01*
%TO.C,JMA3*%
X73230000Y-173380000D02*
X73230000Y-172000000D01*
X74610000Y-173380000D02*
X73230000Y-173380000D01*
X75880000Y-170620000D02*
X93770000Y-170620000D01*
X75880000Y-173380000D02*
X75880000Y-170620000D01*
X75880000Y-173380000D02*
X93770000Y-173380000D01*
X93770000Y-173380000D02*
X93770000Y-170620000D01*
%TO.C,R24*%
X108000000Y-130880000D02*
X108000000Y-131650000D01*
X108000000Y-138960000D02*
X108000000Y-138190000D01*
X106630000Y-131650000D02*
X109370000Y-131650000D01*
X109370000Y-138190000D01*
X106630000Y-138190000D01*
X106630000Y-131650000D01*
%TO.C,R15*%
X76000000Y-78880000D02*
X76000000Y-79650000D01*
X76000000Y-86960000D02*
X76000000Y-86190000D01*
X74630000Y-79650000D02*
X77370000Y-79650000D01*
X77370000Y-86190000D01*
X74630000Y-86190000D01*
X74630000Y-79650000D01*
%TO.C,RV8*%
X123479000Y-78880000D02*
X133520000Y-78880000D01*
X123479000Y-82816000D02*
X123479000Y-78880000D01*
X123479000Y-91120000D02*
X123479000Y-87183000D01*
X123479000Y-91120000D02*
X124800000Y-91120000D01*
X127250000Y-91120000D02*
X127630000Y-91120000D01*
X129371000Y-91120000D02*
X130130000Y-91120000D01*
X131870000Y-91120000D02*
X133520000Y-91120000D01*
X133520000Y-82816000D02*
X133520000Y-78880000D01*
X133520000Y-91120000D02*
X133520000Y-87183000D01*
%TO.C,C2*%
X48630000Y-64880000D02*
X48967000Y-64880000D01*
X48630000Y-70120000D02*
X48630000Y-64880000D01*
X48967000Y-70120000D02*
X48630000Y-70120000D01*
X51033000Y-64880000D02*
X51370000Y-64880000D01*
X51370000Y-64880000D02*
X51370000Y-70120000D01*
X51370000Y-70120000D02*
X51033000Y-70120000D01*
%TO.C,RV2*%
X59479000Y-52880000D02*
X69520000Y-52880000D01*
X59479000Y-56816000D02*
X59479000Y-52880000D01*
X59479000Y-65120000D02*
X59479000Y-61183000D01*
X59479000Y-65120000D02*
X60800000Y-65120000D01*
X63250000Y-65120000D02*
X63630000Y-65120000D01*
X65371000Y-65120000D02*
X66130000Y-65120000D01*
X67870000Y-65120000D02*
X69520000Y-65120000D01*
X69520000Y-56816000D02*
X69520000Y-52880000D01*
X69520000Y-65120000D02*
X69520000Y-61183000D01*
%TO.C,RV13*%
X27479000Y-130880000D02*
X37520000Y-130880000D01*
X27479000Y-134816000D02*
X27479000Y-130880000D01*
X27479000Y-143120000D02*
X27479000Y-139183000D01*
X27479000Y-143120000D02*
X28800000Y-143120000D01*
X31250000Y-143120000D02*
X31630000Y-143120000D01*
X33371000Y-143120000D02*
X34130000Y-143120000D01*
X35870000Y-143120000D02*
X37520000Y-143120000D01*
X37520000Y-134816000D02*
X37520000Y-130880000D01*
X37520000Y-143120000D02*
X37520000Y-139183000D01*
%TO.C,C3*%
X80630000Y-64880000D02*
X80967000Y-64880000D01*
X80630000Y-70120000D02*
X80630000Y-64880000D01*
X80967000Y-70120000D02*
X80630000Y-70120000D01*
X83033000Y-64880000D02*
X83370000Y-64880000D01*
X83370000Y-64880000D02*
X83370000Y-70120000D01*
X83370000Y-70120000D02*
X83033000Y-70120000D01*
%TO.C,R21*%
X140000000Y-104880000D02*
X140000000Y-105650000D01*
X140000000Y-112960000D02*
X140000000Y-112190000D01*
X138630000Y-105650000D02*
X141370000Y-105650000D01*
X141370000Y-112190000D01*
X138630000Y-112190000D01*
X138630000Y-105650000D01*
%TO.C,RV5*%
X27479000Y-78880000D02*
X37520000Y-78880000D01*
X27479000Y-82816000D02*
X27479000Y-78880000D01*
X27479000Y-91120000D02*
X27479000Y-87183000D01*
X27479000Y-91120000D02*
X28800000Y-91120000D01*
X31250000Y-91120000D02*
X31630000Y-91120000D01*
X33371000Y-91120000D02*
X34130000Y-91120000D01*
X35870000Y-91120000D02*
X37520000Y-91120000D01*
X37520000Y-82816000D02*
X37520000Y-78880000D01*
X37520000Y-91120000D02*
X37520000Y-87183000D01*
%TO.C,R22*%
X44000000Y-130880000D02*
X44000000Y-131650000D01*
X44000000Y-138960000D02*
X44000000Y-138190000D01*
X42630000Y-131650000D02*
X45370000Y-131650000D01*
X45370000Y-138190000D01*
X42630000Y-138190000D01*
X42630000Y-131650000D01*
%TO.C,SW3*%
X9750000Y-89500000D02*
X9750000Y-91000000D01*
X11000000Y-93500000D02*
X15500000Y-93500000D01*
X15500000Y-87000000D02*
X11000000Y-87000000D01*
X16750000Y-91000000D02*
X16750000Y-89500000D01*
%TO.C,RV14*%
X59479000Y-130880000D02*
X69520000Y-130880000D01*
X59479000Y-134816000D02*
X59479000Y-130880000D01*
X59479000Y-143120000D02*
X59479000Y-139183000D01*
X59479000Y-143120000D02*
X60800000Y-143120000D01*
X63250000Y-143120000D02*
X63630000Y-143120000D01*
X65371000Y-143120000D02*
X66130000Y-143120000D01*
X67870000Y-143120000D02*
X69520000Y-143120000D01*
X69520000Y-134816000D02*
X69520000Y-130880000D01*
X69520000Y-143120000D02*
X69520000Y-139183000D01*
%TO.C,U2*%
X121160000Y-170670000D02*
X121160000Y-201270000D01*
X121160000Y-201270000D02*
X134080000Y-201270000D01*
X126620000Y-170670000D02*
X121160000Y-170670000D01*
X134080000Y-170670000D02*
X128620000Y-170670000D01*
X134080000Y-201270000D02*
X134080000Y-170670000D01*
X128620000Y-170670000D02*
G75*
G02*
X126620000Y-170670000I-1000000J0D01*
G01*
%TO.C,R17*%
X140000000Y-78880000D02*
X140000000Y-79650000D01*
X140000000Y-86960000D02*
X140000000Y-86190000D01*
X138630000Y-79650000D02*
X141370000Y-79650000D01*
X141370000Y-86190000D01*
X138630000Y-86190000D01*
X138630000Y-79650000D01*
%TO.C,D2D*%
X121340000Y-26000000D02*
X122360000Y-26000000D01*
X123140000Y-24530000D02*
X123140000Y-27470000D01*
X123260000Y-24530000D02*
X123260000Y-27470000D01*
X123380000Y-24530000D02*
X123380000Y-27470000D01*
X128820000Y-26000000D02*
X127800000Y-26000000D01*
X122360000Y-24530000D02*
X127800000Y-24530000D01*
X127800000Y-27470000D01*
X122360000Y-27470000D01*
X122360000Y-24530000D01*
%TO.C,SW1*%
X79590000Y-32740000D02*
X88410000Y-32740000D01*
X79590000Y-33050000D02*
X79590000Y-32740000D01*
X79590000Y-37260000D02*
X79590000Y-36950000D01*
X81500000Y-32040000D02*
X82000000Y-32540000D01*
X82000000Y-32540000D02*
X82500000Y-32040000D01*
X82500000Y-32040000D02*
X81500000Y-32040000D01*
X88410000Y-32740000D02*
X88410000Y-33050000D01*
X88410000Y-37260000D02*
X79590000Y-37260000D01*
X88410000Y-37260000D02*
X88410000Y-36950000D01*
%TO.C,JMD4*%
X83390000Y-221380000D02*
X83390000Y-220000000D01*
X84770000Y-221380000D02*
X83390000Y-221380000D01*
X86040000Y-218620000D02*
X88690000Y-218620000D01*
X86040000Y-221380000D02*
X86040000Y-218620000D01*
X86040000Y-221380000D02*
X88690000Y-221380000D01*
X88690000Y-221380000D02*
X88690000Y-218620000D01*
%TO.C,R20*%
X108000000Y-104880000D02*
X108000000Y-105650000D01*
X108000000Y-112960000D02*
X108000000Y-112190000D01*
X106630000Y-105650000D02*
X109370000Y-105650000D01*
X109370000Y-112190000D01*
X106630000Y-112190000D01*
X106630000Y-105650000D01*
%TO.C,RV10*%
X59479000Y-104880000D02*
X69520000Y-104880000D01*
X59479000Y-108816000D02*
X59479000Y-104880000D01*
X59479000Y-117120000D02*
X59479000Y-113183000D01*
X59479000Y-117120000D02*
X60800000Y-117120000D01*
X63250000Y-117120000D02*
X63630000Y-117120000D01*
X65371000Y-117120000D02*
X66130000Y-117120000D01*
X67870000Y-117120000D02*
X69520000Y-117120000D01*
X69520000Y-108816000D02*
X69520000Y-104880000D01*
X69520000Y-117120000D02*
X69520000Y-113183000D01*
%TO.C,C12*%
X112630000Y-116880000D02*
X112967000Y-116880000D01*
X112630000Y-122120000D02*
X112630000Y-116880000D01*
X112967000Y-122120000D02*
X112630000Y-122120000D01*
X115033000Y-116880000D02*
X115370000Y-116880000D01*
X115370000Y-116880000D02*
X115370000Y-122120000D01*
X115370000Y-122120000D02*
X115033000Y-122120000D01*
%TO.C,RV6*%
X59479000Y-78880000D02*
X69520000Y-78880000D01*
X59479000Y-82816000D02*
X59479000Y-78880000D01*
X59479000Y-91120000D02*
X59479000Y-87183000D01*
X59479000Y-91120000D02*
X60800000Y-91120000D01*
X63250000Y-91120000D02*
X63630000Y-91120000D01*
X65371000Y-91120000D02*
X66130000Y-91120000D01*
X67870000Y-91120000D02*
X69520000Y-91120000D01*
X69520000Y-82816000D02*
X69520000Y-78880000D01*
X69520000Y-91120000D02*
X69520000Y-87183000D01*
%TO.C,D5*%
X158764000Y-110290000D02*
X158920000Y-110290000D01*
X161080000Y-110290000D02*
X161236000Y-110290000D01*
X158764484Y-110290000D02*
G75*
G02*
X158920000Y-107058563I1235516J1560000D01*
G01*
X158920000Y-109770961D02*
G75*
G02*
X158920000Y-107689039I1080000J1040961D01*
G01*
X161080000Y-107058563D02*
G75*
G02*
X161235516Y-110290000I-1080000J-1671437D01*
G01*
X161080000Y-107689039D02*
G75*
G02*
X161080000Y-109770961I-1080000J-1040961D01*
G01*
%TO.C,R10*%
X44000000Y-52880000D02*
X44000000Y-53650000D01*
X44000000Y-60960000D02*
X44000000Y-60190000D01*
X42630000Y-53650000D02*
X45370000Y-53650000D01*
X45370000Y-60190000D01*
X42630000Y-60190000D01*
X42630000Y-53650000D01*
%TO.C,R4*%
X57040000Y-41000000D02*
X57810000Y-41000000D01*
X65120000Y-41000000D02*
X64350000Y-41000000D01*
X57810000Y-39630000D02*
X64350000Y-39630000D01*
X64350000Y-42370000D01*
X57810000Y-42370000D01*
X57810000Y-39630000D01*
%TO.C,JMD3*%
X60530000Y-221380000D02*
X60530000Y-220000000D01*
X61910000Y-221380000D02*
X60530000Y-221380000D01*
X63180000Y-218620000D02*
X65830000Y-218620000D01*
X63180000Y-221380000D02*
X63180000Y-218620000D01*
X63180000Y-221380000D02*
X65830000Y-221380000D01*
X65830000Y-221380000D02*
X65830000Y-218620000D01*
%TO.C,R1*%
X21040000Y-33000000D02*
X21810000Y-33000000D01*
X29120000Y-33000000D02*
X28350000Y-33000000D01*
X21810000Y-31630000D02*
X28350000Y-31630000D01*
X28350000Y-34370000D01*
X21810000Y-34370000D01*
X21810000Y-31630000D01*
%TO.C,C18*%
X149880000Y-182630000D02*
X155120000Y-182630000D01*
X149880000Y-182967000D02*
X149880000Y-182630000D01*
X149880000Y-185370000D02*
X149880000Y-185033000D01*
X155120000Y-182630000D02*
X155120000Y-182967000D01*
X155120000Y-185033000D02*
X155120000Y-185370000D01*
X155120000Y-185370000D02*
X149880000Y-185370000D01*
%TO.C,D6*%
X158764000Y-132290000D02*
X158920000Y-132290000D01*
X161080000Y-132290000D02*
X161236000Y-132290000D01*
X158764484Y-132290000D02*
G75*
G02*
X158920000Y-129058563I1235516J1560000D01*
G01*
X158920000Y-131770961D02*
G75*
G02*
X158920000Y-129689039I1080000J1040961D01*
G01*
X161080000Y-129058563D02*
G75*
G02*
X161235516Y-132290000I-1080000J-1671437D01*
G01*
X161080000Y-129689039D02*
G75*
G02*
X161080000Y-131770961I-1080000J-1040961D01*
G01*
%TO.C,RV7*%
X91479000Y-78880000D02*
X101520000Y-78880000D01*
X91479000Y-82816000D02*
X91479000Y-78880000D01*
X91479000Y-91120000D02*
X91479000Y-87183000D01*
X91479000Y-91120000D02*
X92800000Y-91120000D01*
X95250000Y-91120000D02*
X95630000Y-91120000D01*
X97371000Y-91120000D02*
X98130000Y-91120000D01*
X99870000Y-91120000D02*
X101520000Y-91120000D01*
X101520000Y-82816000D02*
X101520000Y-78880000D01*
X101520000Y-91120000D02*
X101520000Y-87183000D01*
%TO.C,C13*%
X144630000Y-116880000D02*
X144967000Y-116880000D01*
X144630000Y-122120000D02*
X144630000Y-116880000D01*
X144967000Y-122120000D02*
X144630000Y-122120000D01*
X147033000Y-116880000D02*
X147370000Y-116880000D01*
X147370000Y-116880000D02*
X147370000Y-122120000D01*
X147370000Y-122120000D02*
X147033000Y-122120000D01*
%TO.C,C15*%
X80630000Y-142880000D02*
X80967000Y-142880000D01*
X80630000Y-148120000D02*
X80630000Y-142880000D01*
X80967000Y-148120000D02*
X80630000Y-148120000D01*
X83033000Y-142880000D02*
X83370000Y-142880000D01*
X83370000Y-142880000D02*
X83370000Y-148120000D01*
X83370000Y-148120000D02*
X83033000Y-148120000D01*
%TO.C,JMD2*%
X45290000Y-221380000D02*
X45290000Y-220000000D01*
X46670000Y-221380000D02*
X45290000Y-221380000D01*
X47940000Y-218620000D02*
X53130000Y-218620000D01*
X47940000Y-221380000D02*
X47940000Y-218620000D01*
X47940000Y-221380000D02*
X53130000Y-221380000D01*
X53130000Y-221380000D02*
X53130000Y-218620000D01*
%TO.C,R18*%
X44000000Y-104880000D02*
X44000000Y-105650000D01*
X44000000Y-112960000D02*
X44000000Y-112190000D01*
X42630000Y-105650000D02*
X45370000Y-105650000D01*
X45370000Y-112190000D01*
X42630000Y-112190000D01*
X42630000Y-105650000D01*
%TO.C,C11*%
X80630000Y-116880000D02*
X80967000Y-116880000D01*
X80630000Y-122120000D02*
X80630000Y-116880000D01*
X80967000Y-122120000D02*
X80630000Y-122120000D01*
X83033000Y-116880000D02*
X83370000Y-116880000D01*
X83370000Y-116880000D02*
X83370000Y-122120000D01*
X83370000Y-122120000D02*
X83033000Y-122120000D01*
%TO.C,RV3*%
X91479000Y-52880000D02*
X101520000Y-52880000D01*
X91479000Y-56816000D02*
X91479000Y-52880000D01*
X91479000Y-65120000D02*
X91479000Y-61183000D01*
X91479000Y-65120000D02*
X92800000Y-65120000D01*
X95250000Y-65120000D02*
X95630000Y-65120000D01*
X97371000Y-65120000D02*
X98130000Y-65120000D01*
X99870000Y-65120000D02*
X101520000Y-65120000D01*
X101520000Y-56816000D02*
X101520000Y-52880000D01*
X101520000Y-65120000D02*
X101520000Y-61183000D01*
%TO.C,R14*%
X44000000Y-78880000D02*
X44000000Y-79650000D01*
X44000000Y-86960000D02*
X44000000Y-86190000D01*
X42630000Y-79650000D02*
X45370000Y-79650000D01*
X45370000Y-86190000D01*
X42630000Y-86190000D01*
X42630000Y-79650000D01*
%TO.C,J1*%
X33400000Y-17600000D02*
G75*
G02*
X10600000Y-17600000I-11400000J0D01*
G01*
X10600000Y-17600000D02*
G75*
G02*
X33400000Y-17600000I11400000J0D01*
G01*
%TO.C,RV16*%
X123479000Y-130880000D02*
X133520000Y-130880000D01*
X123479000Y-134816000D02*
X123479000Y-130880000D01*
X123479000Y-143120000D02*
X123479000Y-139183000D01*
X123479000Y-143120000D02*
X124800000Y-143120000D01*
X127250000Y-143120000D02*
X127630000Y-143120000D01*
X129371000Y-143120000D02*
X130130000Y-143120000D01*
X131870000Y-143120000D02*
X133520000Y-143120000D01*
X133520000Y-134816000D02*
X133520000Y-130880000D01*
X133520000Y-143120000D02*
X133520000Y-139183000D01*
%TO.C,R11*%
X76000000Y-52880000D02*
X76000000Y-53650000D01*
X76000000Y-60960000D02*
X76000000Y-60190000D01*
X74630000Y-53650000D02*
X77370000Y-53650000D01*
X77370000Y-60190000D01*
X74630000Y-60190000D01*
X74630000Y-53650000D01*
%TO.C,C8*%
X112630000Y-90880000D02*
X112967000Y-90880000D01*
X112630000Y-96120000D02*
X112630000Y-90880000D01*
X112967000Y-96120000D02*
X112630000Y-96120000D01*
X115033000Y-90880000D02*
X115370000Y-90880000D01*
X115370000Y-90880000D02*
X115370000Y-96120000D01*
X115370000Y-96120000D02*
X115033000Y-96120000D01*
%TO.C,C16*%
X112630000Y-142880000D02*
X112967000Y-142880000D01*
X112630000Y-148120000D02*
X112630000Y-142880000D01*
X112967000Y-148120000D02*
X112630000Y-148120000D01*
X115033000Y-142880000D02*
X115370000Y-142880000D01*
X115370000Y-142880000D02*
X115370000Y-148120000D01*
X115370000Y-148120000D02*
X115033000Y-148120000D01*
%TO.C,R9*%
X152000000Y-122880000D02*
X152000000Y-123650000D01*
X152000000Y-130960000D02*
X152000000Y-130190000D01*
X150630000Y-123650000D02*
X153370000Y-123650000D01*
X153370000Y-130190000D01*
X150630000Y-130190000D01*
X150630000Y-123650000D01*
%TO.C,SW2*%
X9750000Y-67500000D02*
X9750000Y-69000000D01*
X11000000Y-71500000D02*
X15500000Y-71500000D01*
X15500000Y-65000000D02*
X11000000Y-65000000D01*
X16750000Y-69000000D02*
X16750000Y-67500000D01*
%TO.C,C4*%
X112630000Y-64880000D02*
X112967000Y-64880000D01*
X112630000Y-70120000D02*
X112630000Y-64880000D01*
X112967000Y-70120000D02*
X112630000Y-70120000D01*
X115033000Y-64880000D02*
X115370000Y-64880000D01*
X115370000Y-64880000D02*
X115370000Y-70120000D01*
X115370000Y-70120000D02*
X115033000Y-70120000D01*
%TO.C,SW4*%
X9750000Y-111500000D02*
X9750000Y-113000000D01*
X11000000Y-115500000D02*
X15500000Y-115500000D01*
X15500000Y-109000000D02*
X11000000Y-109000000D01*
X16750000Y-113000000D02*
X16750000Y-111500000D01*
%TO.C,C9*%
X144630000Y-90880000D02*
X144967000Y-90880000D01*
X144630000Y-96120000D02*
X144630000Y-90880000D01*
X144967000Y-96120000D02*
X144630000Y-96120000D01*
X147033000Y-90880000D02*
X147370000Y-90880000D01*
X147370000Y-90880000D02*
X147370000Y-96120000D01*
X147370000Y-96120000D02*
X147033000Y-96120000D01*
%TO.C,JMA1*%
X27510000Y-173380000D02*
X27510000Y-172000000D01*
X28890000Y-173380000D02*
X27510000Y-173380000D01*
X30160000Y-170620000D02*
X48050000Y-170620000D01*
X30160000Y-173380000D02*
X30160000Y-170620000D01*
X30160000Y-173380000D02*
X48050000Y-173380000D01*
X48050000Y-173380000D02*
X48050000Y-170620000D01*
%TO.C,RV12*%
X123479000Y-104880000D02*
X133520000Y-104880000D01*
X123479000Y-108816000D02*
X123479000Y-104880000D01*
X123479000Y-117120000D02*
X123479000Y-113183000D01*
X123479000Y-117120000D02*
X124800000Y-117120000D01*
X127250000Y-117120000D02*
X127630000Y-117120000D01*
X129371000Y-117120000D02*
X130130000Y-117120000D01*
X131870000Y-117120000D02*
X133520000Y-117120000D01*
X133520000Y-108816000D02*
X133520000Y-104880000D01*
X133520000Y-117120000D02*
X133520000Y-113183000D01*
%TO.C,C17*%
X144630000Y-142880000D02*
X144967000Y-142880000D01*
X144630000Y-148120000D02*
X144630000Y-142880000D01*
X144967000Y-148120000D02*
X144630000Y-148120000D01*
X147033000Y-142880000D02*
X147370000Y-142880000D01*
X147370000Y-142880000D02*
X147370000Y-148120000D01*
X147370000Y-148120000D02*
X147033000Y-148120000D01*
%TO.C,U1*%
X39160000Y-35670000D02*
X39160000Y-45950000D01*
X39160000Y-45950000D02*
X44460000Y-45950000D01*
X40810000Y-35670000D02*
X39160000Y-35670000D01*
X44460000Y-35670000D02*
X42810000Y-35670000D01*
X44460000Y-45950000D02*
X44460000Y-35670000D01*
X42810000Y-35670000D02*
G75*
G02*
X40810000Y-35670000I-1000000J0D01*
G01*
%TO.C,C6*%
X48630000Y-90880000D02*
X48967000Y-90880000D01*
X48630000Y-96120000D02*
X48630000Y-90880000D01*
X48967000Y-96120000D02*
X48630000Y-96120000D01*
X51033000Y-90880000D02*
X51370000Y-90880000D01*
X51370000Y-90880000D02*
X51370000Y-96120000D01*
X51370000Y-96120000D02*
X51033000Y-96120000D01*
%TO.C,R3*%
X101040000Y-41000000D02*
X101810000Y-41000000D01*
X109120000Y-41000000D02*
X108350000Y-41000000D01*
X101810000Y-39630000D02*
X108350000Y-39630000D01*
X108350000Y-42370000D01*
X101810000Y-42370000D01*
X101810000Y-39630000D01*
%TO.C,D3*%
X158764000Y-66290000D02*
X158920000Y-66290000D01*
X161080000Y-66290000D02*
X161236000Y-66290000D01*
X158764484Y-66290000D02*
G75*
G02*
X158920000Y-63058563I1235516J1560000D01*
G01*
X158920000Y-65770961D02*
G75*
G02*
X158920000Y-63689039I1080000J1040961D01*
G01*
X161080000Y-63058563D02*
G75*
G02*
X161235516Y-66290000I-1080000J-1671437D01*
G01*
X161080000Y-63689039D02*
G75*
G02*
X161080000Y-65770961I-1080000J-1040961D01*
G01*
%TO.C,R12*%
X108000000Y-52880000D02*
X108000000Y-53650000D01*
X108000000Y-60960000D02*
X108000000Y-60190000D01*
X106630000Y-53650000D02*
X109370000Y-53650000D01*
X109370000Y-60190000D01*
X106630000Y-60190000D01*
X106630000Y-53650000D01*
%TO.C,R16*%
X108000000Y-78880000D02*
X108000000Y-79650000D01*
X108000000Y-86960000D02*
X108000000Y-86190000D01*
X106630000Y-79650000D02*
X109370000Y-79650000D01*
X109370000Y-86190000D01*
X106630000Y-86190000D01*
X106630000Y-79650000D01*
%TO.C,R25*%
X140000000Y-130880000D02*
X140000000Y-131650000D01*
X140000000Y-138960000D02*
X140000000Y-138190000D01*
X138630000Y-131650000D02*
X141370000Y-131650000D01*
X141370000Y-138190000D01*
X138630000Y-138190000D01*
X138630000Y-131650000D01*
%TO.C,JMA2*%
X50370000Y-173380000D02*
X50370000Y-172000000D01*
X51750000Y-173380000D02*
X50370000Y-173380000D01*
X53020000Y-170620000D02*
X70910000Y-170620000D01*
X53020000Y-173380000D02*
X53020000Y-170620000D01*
X53020000Y-173380000D02*
X70910000Y-173380000D01*
X70910000Y-173380000D02*
X70910000Y-170620000D01*
%TO.C,JMD1*%
X18620000Y-221380000D02*
X18620000Y-220000000D01*
X20000000Y-221380000D02*
X18620000Y-221380000D01*
X21270000Y-218620000D02*
X44240000Y-218620000D01*
X21270000Y-221380000D02*
X21270000Y-218620000D01*
X21270000Y-221380000D02*
X44240000Y-221380000D01*
X44240000Y-221380000D02*
X44240000Y-218620000D01*
%TO.C,C7*%
X80630000Y-90880000D02*
X80967000Y-90880000D01*
X80630000Y-96120000D02*
X80630000Y-90880000D01*
X80967000Y-96120000D02*
X80630000Y-96120000D01*
X83033000Y-90880000D02*
X83370000Y-90880000D01*
X83370000Y-90880000D02*
X83370000Y-96120000D01*
X83370000Y-96120000D02*
X83033000Y-96120000D01*
%TO.C,RV15*%
X91479000Y-130880000D02*
X101520000Y-130880000D01*
X91479000Y-134816000D02*
X91479000Y-130880000D01*
X91479000Y-143120000D02*
X91479000Y-139183000D01*
X91479000Y-143120000D02*
X92800000Y-143120000D01*
X95250000Y-143120000D02*
X95630000Y-143120000D01*
X97371000Y-143120000D02*
X98130000Y-143120000D01*
X99870000Y-143120000D02*
X101520000Y-143120000D01*
X101520000Y-134816000D02*
X101520000Y-130880000D01*
X101520000Y-143120000D02*
X101520000Y-139183000D01*
%TO.C,R23*%
X76000000Y-130880000D02*
X76000000Y-131650000D01*
X76000000Y-138960000D02*
X76000000Y-138190000D01*
X74630000Y-131650000D02*
X77370000Y-131650000D01*
X77370000Y-138190000D01*
X74630000Y-138190000D01*
X74630000Y-131650000D01*
%TO.C,R2*%
X101040000Y-33000000D02*
X101810000Y-33000000D01*
X109120000Y-33000000D02*
X108350000Y-33000000D01*
X101810000Y-31630000D02*
X108350000Y-31630000D01*
X108350000Y-34370000D01*
X101810000Y-34370000D01*
X101810000Y-31630000D01*
%TO.C,SW5*%
X9750000Y-133500000D02*
X9750000Y-135000000D01*
X11000000Y-137500000D02*
X15500000Y-137500000D01*
X15500000Y-131000000D02*
X11000000Y-131000000D01*
X16750000Y-135000000D02*
X16750000Y-133500000D01*
%TO.C,R8*%
X152000000Y-100880000D02*
X152000000Y-101650000D01*
X152000000Y-108960000D02*
X152000000Y-108190000D01*
X150630000Y-101650000D02*
X153370000Y-101650000D01*
X153370000Y-108190000D01*
X150630000Y-108190000D01*
X150630000Y-101650000D01*
%TO.C,R19*%
X76000000Y-104880000D02*
X76000000Y-105650000D01*
X76000000Y-112960000D02*
X76000000Y-112190000D01*
X74630000Y-105650000D02*
X77370000Y-105650000D01*
X77370000Y-112190000D01*
X74630000Y-112190000D01*
X74630000Y-105650000D01*
%TO.C,D4*%
X158764000Y-88290000D02*
X158920000Y-88290000D01*
X161080000Y-88290000D02*
X161236000Y-88290000D01*
X158764484Y-88290000D02*
G75*
G02*
X158920000Y-85058563I1235516J1560000D01*
G01*
X158920000Y-87770961D02*
G75*
G02*
X158920000Y-85689039I1080000J1040961D01*
G01*
X161080000Y-85058563D02*
G75*
G02*
X161235516Y-88290000I-1080000J-1671437D01*
G01*
X161080000Y-85689039D02*
G75*
G02*
X161080000Y-87770961I-1080000J-1040961D01*
G01*
%TO.C,R5*%
X57040000Y-33000000D02*
X57810000Y-33000000D01*
X65120000Y-33000000D02*
X64350000Y-33000000D01*
X57810000Y-31630000D02*
X64350000Y-31630000D01*
X64350000Y-34370000D01*
X57810000Y-34370000D01*
X57810000Y-31630000D01*
%TO.C,D1*%
X21040000Y-41000000D02*
X21690000Y-41000000D01*
X22290000Y-39880000D02*
X22290000Y-42120000D01*
X22410000Y-39880000D02*
X22410000Y-42120000D01*
X22530000Y-39880000D02*
X22530000Y-42120000D01*
X26580000Y-41000000D02*
X25930000Y-41000000D01*
X21690000Y-39880000D02*
X25930000Y-39880000D01*
X25930000Y-42120000D01*
X21690000Y-42120000D01*
X21690000Y-39880000D01*
%TO.C,J3*%
X106200000Y-9400000D02*
X120900000Y-9400000D01*
X106200000Y-18600000D02*
X106200000Y-9400000D01*
X115000000Y-18600000D02*
X106200000Y-18600000D01*
X120050000Y-9200000D02*
X121100000Y-9200000D01*
X120900000Y-9400000D02*
X120900000Y-12000000D01*
X120900000Y-15900000D02*
X120900000Y-18600000D01*
X120900000Y-18600000D02*
X119000000Y-18600000D01*
X121100000Y-10250000D02*
X121100000Y-9200000D01*
%TO.C,R7*%
X152000000Y-78880000D02*
X152000000Y-79650000D01*
X152000000Y-86960000D02*
X152000000Y-86190000D01*
X150630000Y-79650000D02*
X153370000Y-79650000D01*
X153370000Y-86190000D01*
X150630000Y-86190000D01*
X150630000Y-79650000D01*
%TO.C,C5*%
X144630000Y-64880000D02*
X144967000Y-64880000D01*
X144630000Y-70120000D02*
X144630000Y-64880000D01*
X144967000Y-70120000D02*
X144630000Y-70120000D01*
X147033000Y-64880000D02*
X147370000Y-64880000D01*
X147370000Y-64880000D02*
X147370000Y-70120000D01*
X147370000Y-70120000D02*
X147033000Y-70120000D01*
%TO.C,C14*%
X48630000Y-142880000D02*
X48967000Y-142880000D01*
X48630000Y-148120000D02*
X48630000Y-142880000D01*
X48967000Y-148120000D02*
X48630000Y-148120000D01*
X51033000Y-142880000D02*
X51370000Y-142880000D01*
X51370000Y-142880000D02*
X51370000Y-148120000D01*
X51370000Y-148120000D02*
X51033000Y-148120000D01*
%TO.C,C10*%
X48630000Y-116880000D02*
X48967000Y-116880000D01*
X48630000Y-122120000D02*
X48630000Y-116880000D01*
X48967000Y-122120000D02*
X48630000Y-122120000D01*
X51033000Y-116880000D02*
X51370000Y-116880000D01*
X51370000Y-116880000D02*
X51370000Y-122120000D01*
X51370000Y-122120000D02*
X51033000Y-122120000D01*
%TO.C,RV4*%
X123479000Y-52880000D02*
X133520000Y-52880000D01*
X123479000Y-56816000D02*
X123479000Y-52880000D01*
X123479000Y-65120000D02*
X123479000Y-61183000D01*
X123479000Y-65120000D02*
X124800000Y-65120000D01*
X127250000Y-65120000D02*
X127630000Y-65120000D01*
X129371000Y-65120000D02*
X130130000Y-65120000D01*
X131870000Y-65120000D02*
X133520000Y-65120000D01*
X133520000Y-56816000D02*
X133520000Y-52880000D01*
X133520000Y-65120000D02*
X133520000Y-61183000D01*
%TO.C,RV1*%
X27479000Y-52880000D02*
X37520000Y-52880000D01*
X27479000Y-56816000D02*
X27479000Y-52880000D01*
X27479000Y-65120000D02*
X27479000Y-61183000D01*
X27479000Y-65120000D02*
X28800000Y-65120000D01*
X31250000Y-65120000D02*
X31630000Y-65120000D01*
X33371000Y-65120000D02*
X34130000Y-65120000D01*
X35870000Y-65120000D02*
X37520000Y-65120000D01*
X37520000Y-56816000D02*
X37520000Y-52880000D01*
X37520000Y-65120000D02*
X37520000Y-61183000D01*
%TO.C,R6*%
X152000000Y-56880000D02*
X152000000Y-57650000D01*
X152000000Y-64960000D02*
X152000000Y-64190000D01*
X150630000Y-57650000D02*
X153370000Y-57650000D01*
X153370000Y-64190000D01*
X150630000Y-64190000D01*
X150630000Y-57650000D01*
%TD*%
%LPC*%
D12*
%TO.C,J10*%
X82820000Y-26070000D03*
D13*
X89810000Y-15910000D03*
D14*
X91080000Y-19720000D03*
X80920000Y-19720000D03*
D15*
X86000000Y-14000000D03*
%TD*%
D12*
%TO.C,R27*%
X100000000Y-184000000D03*
X110160000Y-184000000D03*
%TD*%
%TO.C,C1*%
X70000000Y-37000000D03*
X75000000Y-37000000D03*
%TD*%
D16*
%TO.C,RV11*%
X94000000Y-118000000D03*
D17*
X96500000Y-118000000D03*
X99000000Y-118000000D03*
D18*
X92100000Y-111000000D03*
X100900000Y-111000000D03*
%TD*%
D19*
%TO.C,J4*%
X150000000Y-26000000D03*
D20*
X150000000Y-28540000D03*
X150000000Y-31080000D03*
X150000000Y-33620000D03*
%TD*%
D16*
%TO.C,RV9*%
X30000000Y-118000000D03*
D17*
X32500000Y-118000000D03*
X35000000Y-118000000D03*
D18*
X28100000Y-111000000D03*
X36900000Y-111000000D03*
%TD*%
D19*
%TO.C,J5*%
X150000000Y-10000000D03*
D20*
X150000000Y-12540000D03*
X150000000Y-15080000D03*
X150000000Y-17620000D03*
%TD*%
D12*
%TO.C,R13*%
X140000000Y-62000000D03*
X140000000Y-51840000D03*
%TD*%
D21*
%TO.C,J2*%
X47000000Y-23700000D03*
X57000000Y-23700000D03*
D22*
X44700000Y-14000000D03*
X52000000Y-14000000D03*
X59300000Y-14000000D03*
X57000000Y-11500000D03*
X47000000Y-11500000D03*
%TD*%
D19*
%TO.C,JMA3*%
X74610000Y-172000000D03*
D20*
X77150000Y-172000000D03*
X79690000Y-172000000D03*
X82230000Y-172000000D03*
X84770000Y-172000000D03*
X87310000Y-172000000D03*
X89850000Y-172000000D03*
X92390000Y-172000000D03*
%TD*%
D12*
%TO.C,R24*%
X108000000Y-140000000D03*
X108000000Y-129840000D03*
%TD*%
%TO.C,R15*%
X76000000Y-88000000D03*
X76000000Y-77840000D03*
%TD*%
D16*
%TO.C,RV8*%
X126000000Y-92000000D03*
D17*
X128500000Y-92000000D03*
X131000000Y-92000000D03*
D18*
X124100000Y-85000000D03*
X132900000Y-85000000D03*
%TD*%
D12*
%TO.C,C2*%
X50000000Y-70000000D03*
X50000000Y-65000000D03*
%TD*%
D16*
%TO.C,RV2*%
X62000000Y-66000000D03*
D17*
X64500000Y-66000000D03*
X67000000Y-66000000D03*
D18*
X60100000Y-59000000D03*
X68900000Y-59000000D03*
%TD*%
D16*
%TO.C,RV13*%
X30000000Y-144000000D03*
D17*
X32500000Y-144000000D03*
X35000000Y-144000000D03*
D18*
X28100000Y-137000000D03*
X36900000Y-137000000D03*
%TD*%
D12*
%TO.C,C3*%
X82000000Y-70000000D03*
X82000000Y-65000000D03*
%TD*%
%TO.C,R21*%
X140000000Y-114000000D03*
X140000000Y-103840000D03*
%TD*%
D16*
%TO.C,RV5*%
X30000000Y-92000000D03*
D17*
X32500000Y-92000000D03*
X35000000Y-92000000D03*
D18*
X28100000Y-85000000D03*
X36900000Y-85000000D03*
%TD*%
D12*
%TO.C,R22*%
X44000000Y-140000000D03*
X44000000Y-129840000D03*
%TD*%
D23*
%TO.C,SW3*%
X10000000Y-88000000D03*
X16500000Y-88000000D03*
X10000000Y-92500000D03*
X16500000Y-92500000D03*
%TD*%
D16*
%TO.C,RV14*%
X62000000Y-144000000D03*
D17*
X64500000Y-144000000D03*
X67000000Y-144000000D03*
D18*
X60100000Y-137000000D03*
X68900000Y-137000000D03*
%TD*%
D24*
%TO.C,U2*%
X120000000Y-172000000D03*
D12*
X120000000Y-174540000D03*
X120000000Y-177080000D03*
X120000000Y-179620000D03*
X120000000Y-182160000D03*
X120000000Y-184700000D03*
X120000000Y-187240000D03*
X120000000Y-189780000D03*
X120000000Y-192320000D03*
X120000000Y-194860000D03*
X120000000Y-197400000D03*
X120000000Y-199940000D03*
X135240000Y-199940000D03*
X135240000Y-197400000D03*
X135240000Y-194860000D03*
X135240000Y-192320000D03*
X135240000Y-189780000D03*
X135240000Y-187240000D03*
X135240000Y-184700000D03*
X135240000Y-182160000D03*
X135240000Y-179620000D03*
X135240000Y-177080000D03*
X135240000Y-174540000D03*
X135240000Y-172000000D03*
%TD*%
%TO.C,R17*%
X140000000Y-88000000D03*
X140000000Y-77840000D03*
%TD*%
D25*
%TO.C,D2D*%
X120000000Y-26000000D03*
D26*
X130160000Y-26000000D03*
%TD*%
D27*
%TO.C,SW1*%
X79900000Y-35000000D03*
X88100000Y-35000000D03*
D28*
X82000000Y-35000000D03*
D29*
X84000000Y-35000000D03*
X86000000Y-35000000D03*
%TD*%
D19*
%TO.C,JMD4*%
X84770000Y-220000000D03*
D20*
X87310000Y-220000000D03*
%TD*%
D12*
%TO.C,R20*%
X108000000Y-114000000D03*
X108000000Y-103840000D03*
%TD*%
D16*
%TO.C,RV10*%
X62000000Y-118000000D03*
D17*
X64500000Y-118000000D03*
X67000000Y-118000000D03*
D18*
X60100000Y-111000000D03*
X68900000Y-111000000D03*
%TD*%
D12*
%TO.C,C12*%
X114000000Y-122000000D03*
X114000000Y-117000000D03*
%TD*%
D16*
%TO.C,RV6*%
X62000000Y-92000000D03*
D17*
X64500000Y-92000000D03*
X67000000Y-92000000D03*
D18*
X60100000Y-85000000D03*
X68900000Y-85000000D03*
%TD*%
D16*
%TO.C,D5*%
X160000000Y-110000000D03*
D17*
X160000000Y-107460000D03*
%TD*%
D12*
%TO.C,R10*%
X44000000Y-62000000D03*
X44000000Y-51840000D03*
%TD*%
%TO.C,R4*%
X56000000Y-41000000D03*
X66160000Y-41000000D03*
%TD*%
D19*
%TO.C,JMD3*%
X61910000Y-220000000D03*
D20*
X64450000Y-220000000D03*
%TD*%
D12*
%TO.C,R1*%
X20000000Y-33000000D03*
X30160000Y-33000000D03*
%TD*%
%TO.C,C18*%
X150000000Y-184000000D03*
X155000000Y-184000000D03*
%TD*%
D16*
%TO.C,D6*%
X160000000Y-132000000D03*
D17*
X160000000Y-129460000D03*
%TD*%
D16*
%TO.C,RV7*%
X94000000Y-92000000D03*
D17*
X96500000Y-92000000D03*
X99000000Y-92000000D03*
D18*
X92100000Y-85000000D03*
X100900000Y-85000000D03*
%TD*%
D12*
%TO.C,C13*%
X146000000Y-122000000D03*
X146000000Y-117000000D03*
%TD*%
%TO.C,C15*%
X82000000Y-148000000D03*
X82000000Y-143000000D03*
%TD*%
D19*
%TO.C,JMD2*%
X46670000Y-220000000D03*
D20*
X49210000Y-220000000D03*
X51750000Y-220000000D03*
%TD*%
D12*
%TO.C,R18*%
X44000000Y-114000000D03*
X44000000Y-103840000D03*
%TD*%
%TO.C,C11*%
X82000000Y-122000000D03*
X82000000Y-117000000D03*
%TD*%
D16*
%TO.C,RV3*%
X94000000Y-66000000D03*
D17*
X96500000Y-66000000D03*
X99000000Y-66000000D03*
D18*
X92100000Y-59000000D03*
X100900000Y-59000000D03*
%TD*%
D12*
%TO.C,R14*%
X44000000Y-88000000D03*
X44000000Y-77840000D03*
%TD*%
D21*
%TO.C,J1*%
X17000000Y-23700000D03*
X27000000Y-23700000D03*
D22*
X14700000Y-14000000D03*
X22000000Y-14000000D03*
X29300000Y-14000000D03*
X27000000Y-11500000D03*
X17000000Y-11500000D03*
%TD*%
D16*
%TO.C,RV16*%
X126000000Y-144000000D03*
D17*
X128500000Y-144000000D03*
X131000000Y-144000000D03*
D18*
X124100000Y-137000000D03*
X132900000Y-137000000D03*
%TD*%
D12*
%TO.C,R11*%
X76000000Y-62000000D03*
X76000000Y-51840000D03*
%TD*%
%TO.C,C8*%
X114000000Y-96000000D03*
X114000000Y-91000000D03*
%TD*%
%TO.C,C16*%
X114000000Y-148000000D03*
X114000000Y-143000000D03*
%TD*%
%TO.C,R9*%
X152000000Y-132000000D03*
X152000000Y-121840000D03*
%TD*%
D23*
%TO.C,SW2*%
X10000000Y-66000000D03*
X16500000Y-66000000D03*
X10000000Y-70500000D03*
X16500000Y-70500000D03*
%TD*%
D12*
%TO.C,C4*%
X114000000Y-70000000D03*
X114000000Y-65000000D03*
%TD*%
D23*
%TO.C,SW4*%
X10000000Y-110000000D03*
X16500000Y-110000000D03*
X10000000Y-114500000D03*
X16500000Y-114500000D03*
%TD*%
D12*
%TO.C,C9*%
X146000000Y-96000000D03*
X146000000Y-91000000D03*
%TD*%
D19*
%TO.C,JMA1*%
X28890000Y-172000000D03*
D20*
X31430000Y-172000000D03*
X33970000Y-172000000D03*
X36510000Y-172000000D03*
X39050000Y-172000000D03*
X41590000Y-172000000D03*
X44130000Y-172000000D03*
X46670000Y-172000000D03*
%TD*%
D16*
%TO.C,RV12*%
X126000000Y-118000000D03*
D17*
X128500000Y-118000000D03*
X131000000Y-118000000D03*
D18*
X124100000Y-111000000D03*
X132900000Y-111000000D03*
%TD*%
D12*
%TO.C,C17*%
X146000000Y-148000000D03*
X146000000Y-143000000D03*
%TD*%
D24*
%TO.C,U1*%
X38000000Y-37000000D03*
D12*
X38000000Y-39540000D03*
X38000000Y-42080000D03*
X38000000Y-44620000D03*
X45620000Y-44620000D03*
X45620000Y-42080000D03*
X45620000Y-39540000D03*
X45620000Y-37000000D03*
%TD*%
%TO.C,C6*%
X50000000Y-96000000D03*
X50000000Y-91000000D03*
%TD*%
%TO.C,R3*%
X100000000Y-41000000D03*
X110160000Y-41000000D03*
%TD*%
D16*
%TO.C,D3*%
X160000000Y-66000000D03*
D17*
X160000000Y-63460000D03*
%TD*%
D12*
%TO.C,R12*%
X108000000Y-62000000D03*
X108000000Y-51840000D03*
%TD*%
%TO.C,R16*%
X108000000Y-88000000D03*
X108000000Y-77840000D03*
%TD*%
%TO.C,R25*%
X140000000Y-140000000D03*
X140000000Y-129840000D03*
%TD*%
D19*
%TO.C,JMA2*%
X51750000Y-172000000D03*
D20*
X54290000Y-172000000D03*
X56830000Y-172000000D03*
X59370000Y-172000000D03*
X61910000Y-172000000D03*
X64450000Y-172000000D03*
X66990000Y-172000000D03*
X69530000Y-172000000D03*
%TD*%
D19*
%TO.C,JMD1*%
X20000000Y-220000000D03*
D20*
X22540000Y-220000000D03*
X25080000Y-220000000D03*
X27620000Y-220000000D03*
X30160000Y-220000000D03*
X32700000Y-220000000D03*
X35240000Y-220000000D03*
X37780000Y-220000000D03*
X40320000Y-220000000D03*
X42860000Y-220000000D03*
%TD*%
D12*
%TO.C,C7*%
X82000000Y-96000000D03*
X82000000Y-91000000D03*
%TD*%
D16*
%TO.C,RV15*%
X94000000Y-144000000D03*
D17*
X96500000Y-144000000D03*
X99000000Y-144000000D03*
D18*
X92100000Y-137000000D03*
X100900000Y-137000000D03*
%TD*%
D12*
%TO.C,R23*%
X76000000Y-140000000D03*
X76000000Y-129840000D03*
%TD*%
%TO.C,R2*%
X100000000Y-33000000D03*
X110160000Y-33000000D03*
%TD*%
D23*
%TO.C,SW5*%
X10000000Y-132000000D03*
X16500000Y-132000000D03*
X10000000Y-136500000D03*
X16500000Y-136500000D03*
%TD*%
D12*
%TO.C,R8*%
X152000000Y-110000000D03*
X152000000Y-99840000D03*
%TD*%
%TO.C,R19*%
X76000000Y-114000000D03*
X76000000Y-103840000D03*
%TD*%
D16*
%TO.C,D4*%
X160000000Y-88000000D03*
D17*
X160000000Y-85460000D03*
%TD*%
D12*
%TO.C,R5*%
X56000000Y-33000000D03*
X66160000Y-33000000D03*
%TD*%
D24*
%TO.C,D1*%
X20000000Y-41000000D03*
D12*
X27620000Y-41000000D03*
%TD*%
D30*
%TO.C,J3*%
X120000000Y-14000000D03*
D31*
X114000000Y-14000000D03*
D32*
X117000000Y-18700000D03*
%TD*%
D12*
%TO.C,R7*%
X152000000Y-88000000D03*
X152000000Y-77840000D03*
%TD*%
%TO.C,C5*%
X146000000Y-70000000D03*
X146000000Y-65000000D03*
%TD*%
%TO.C,C14*%
X50000000Y-148000000D03*
X50000000Y-143000000D03*
%TD*%
%TO.C,C10*%
X50000000Y-122000000D03*
X50000000Y-117000000D03*
%TD*%
D16*
%TO.C,RV4*%
X126000000Y-66000000D03*
D17*
X128500000Y-66000000D03*
X131000000Y-66000000D03*
D18*
X124100000Y-59000000D03*
X132900000Y-59000000D03*
%TD*%
D16*
%TO.C,RV1*%
X30000000Y-66000000D03*
D17*
X32500000Y-66000000D03*
X35000000Y-66000000D03*
D18*
X28100000Y-59000000D03*
X36900000Y-59000000D03*
%TD*%
D12*
%TO.C,R6*%
X152000000Y-66000000D03*
X152000000Y-55840000D03*
%TD*%
%LPD*%
M02*
