%TF.GenerationSoftware,KiCad,Pcbnew,10.0.3*%
%TF.CreationDate,2026-07-26T14:50:51+02:00*%
%TF.ProjectId,SysEx_Patcher,53797345-785f-4506-9174-636865722e6b,rev?*%
%TF.SameCoordinates,Original*%
%TF.FileFunction,Copper,L2,Inr*%
%TF.FilePolarity,Positive*%
%FSLAX46Y46*%
G04 Gerber Fmt 4.6, Leading zero omitted, Abs format (unit mm)*
G04 Created by KiCad (PCBNEW 10.0.3) date 2026-07-26 14:50:51*
%MOMM*%
%LPD*%
G01*
G04 APERTURE LIST*
G04 Aperture macros list*
%AMRoundRect*
0 Rectangle with rounded corners*
0 $1 Rounding radius*
0 $2 $3 $4 $5 $6 $7 $8 $9 X,Y pos of 4 corners*
0 Add a 4 corners polygon primitive as box body*
4,1,4,$2,$3,$4,$5,$6,$7,$8,$9,$2,$3,0*
0 Add four circle primitives for the rounded corners*
1,1,$1+$1,$2,$3*
1,1,$1+$1,$4,$5*
1,1,$1+$1,$6,$7*
1,1,$1+$1,$8,$9*
0 Add four rect primitives between the rounded corners*
20,1,$1+$1,$2,$3,$4,$5,0*
20,1,$1+$1,$4,$5,$6,$7,0*
20,1,$1+$1,$6,$7,$8,$9,0*
20,1,$1+$1,$8,$9,$2,$3,0*%
G04 Aperture macros list end*
%TA.AperFunction,ComponentPad*%
%ADD10C,1.600000*%
%TD*%
%TA.AperFunction,ComponentPad*%
%ADD11R,1.700000X1.700000*%
%TD*%
%TA.AperFunction,ComponentPad*%
%ADD12C,1.700000*%
%TD*%
%TA.AperFunction,ComponentPad*%
%ADD13R,1.800000X1.800000*%
%TD*%
%TA.AperFunction,ComponentPad*%
%ADD14C,1.800000*%
%TD*%
%TA.AperFunction,ComponentPad*%
%ADD15RoundRect,0.750000X-1.250000X-0.750000X1.250000X-0.750000X1.250000X0.750000X-1.250000X0.750000X0*%
%TD*%
%TA.AperFunction,ComponentPad*%
%ADD16RoundRect,0.250000X-0.550000X-0.550000X0.550000X-0.550000X0.550000X0.550000X-0.550000X0.550000X0*%
%TD*%
%TA.AperFunction,ComponentPad*%
%ADD17C,2.600000*%
%TD*%
%TA.AperFunction,ComponentPad*%
%ADD18C,2.400000*%
%TD*%
%TA.AperFunction,ComponentPad*%
%ADD19C,2.000000*%
%TD*%
%TA.AperFunction,ComponentPad*%
%ADD20R,3.500000X3.500000*%
%TD*%
%TA.AperFunction,ComponentPad*%
%ADD21RoundRect,0.750000X-0.750000X-1.000000X0.750000X-1.000000X0.750000X1.000000X-0.750000X1.000000X0*%
%TD*%
%TA.AperFunction,ComponentPad*%
%ADD22RoundRect,0.875000X-0.875000X-0.875000X0.875000X-0.875000X0.875000X0.875000X-0.875000X0.875000X0*%
%TD*%
%TA.AperFunction,ComponentPad*%
%ADD23RoundRect,0.249999X-0.850001X-0.850001X0.850001X-0.850001X0.850001X0.850001X-0.850001X0.850001X0*%
%TD*%
%TA.AperFunction,ComponentPad*%
%ADD24C,2.200000*%
%TD*%
%TA.AperFunction,ViaPad*%
%ADD25C,0.600000*%
%TD*%
%TA.AperFunction,Conductor*%
%ADD26C,0.200000*%
%TD*%
G04 APERTURE END LIST*
D10*
%TO.N,POT8_W*%
%TO.C,R17*%
X157000000Y-98000000D03*
%TO.N,A13*%
X167160000Y-98000000D03*
%TD*%
D11*
%TO.N,GND*%
%TO.C,JMX1*%
X128980000Y-129180000D03*
D12*
X131520000Y-129180000D03*
%TO.N,D52*%
X128980000Y-126640000D03*
%TO.N,D53*%
X131520000Y-126640000D03*
%TO.N,D50*%
X128980000Y-124100000D03*
%TO.N,D51*%
X131520000Y-124100000D03*
%TO.N,D48*%
X128980000Y-121560000D03*
%TO.N,D49*%
X131520000Y-121560000D03*
%TO.N,D46*%
X128980000Y-119020000D03*
%TO.N,D47*%
X131520000Y-119020000D03*
%TO.N,D44*%
X128980000Y-116480000D03*
%TO.N,D45*%
X131520000Y-116480000D03*
%TO.N,D42*%
X128980000Y-113940000D03*
%TO.N,D43*%
X131520000Y-113940000D03*
%TO.N,D40*%
X128980000Y-111400000D03*
%TO.N,D41*%
X131520000Y-111400000D03*
%TO.N,D38*%
X128980000Y-108860000D03*
%TO.N,D39*%
X131520000Y-108860000D03*
%TO.N,D36*%
X128980000Y-106320000D03*
%TO.N,D37*%
X131520000Y-106320000D03*
%TO.N,D34*%
X128980000Y-103780000D03*
%TO.N,D35*%
X131520000Y-103780000D03*
%TO.N,D32*%
X128980000Y-101240000D03*
%TO.N,D33*%
X131520000Y-101240000D03*
%TO.N,D30*%
X128980000Y-98700000D03*
%TO.N,D31*%
X131520000Y-98700000D03*
%TO.N,D28*%
X128980000Y-96160000D03*
%TO.N,D29*%
X131520000Y-96160000D03*
%TO.N,D26*%
X128980000Y-93620000D03*
%TO.N,D27*%
X131520000Y-93620000D03*
%TO.N,D24*%
X128980000Y-91080000D03*
%TO.N,D25*%
X131520000Y-91080000D03*
%TO.N,D22*%
X128980000Y-88540000D03*
%TO.N,D23*%
X131520000Y-88540000D03*
%TO.N,+5V*%
X128980000Y-86000000D03*
X131520000Y-86000000D03*
%TD*%
D11*
%TO.N,D7*%
%TO.C,JMD2*%
X80720000Y-86000000D03*
D12*
%TO.N,D6*%
X78180000Y-86000000D03*
%TO.N,D5*%
X75640000Y-86000000D03*
%TO.N,D4*%
X73100000Y-86000000D03*
%TO.N,D3*%
X70560000Y-86000000D03*
%TO.N,D2*%
X68020000Y-86000000D03*
%TO.N,D1_TX*%
X65480000Y-86000000D03*
%TO.N,D0_RX*%
X62940000Y-86000000D03*
%TD*%
D10*
%TO.N,MIDI_OUT_4*%
%TO.C,R2*%
X92000000Y-60000000D03*
%TO.N,+5V*%
X102160000Y-60000000D03*
%TD*%
D13*
%TO.N,+5V*%
%TO.C,RV4*%
X146000000Y-80000000D03*
D14*
%TO.N,POT4_W*%
X148500000Y-80000000D03*
%TO.N,GND*%
X151000000Y-80000000D03*
D15*
%TO.N,N/C*%
X144100000Y-73000000D03*
X152900000Y-73000000D03*
%TD*%
D10*
%TO.N,A11*%
%TO.C,C16*%
X125000000Y-151000000D03*
%TO.N,GND*%
X130000000Y-151000000D03*
%TD*%
%TO.N,POT3_W*%
%TO.C,R12*%
X125000000Y-74000000D03*
%TO.N,A8*%
X135160000Y-74000000D03*
%TD*%
D16*
%TO.N,OPTO_ANODE*%
%TO.C,D1*%
X34000000Y-59000000D03*
D10*
%TO.N,OPTO_CATHODE*%
X41620000Y-59000000D03*
%TD*%
D13*
%TO.N,GND*%
%TO.C,D9*%
X35000000Y-160000000D03*
D14*
%TO.N,LED7_A*%
X37540000Y-160000000D03*
%TD*%
D10*
%TO.N,+5V*%
%TO.C,C1*%
X80000000Y-62000000D03*
%TO.N,GND*%
X85000000Y-62000000D03*
%TD*%
%TO.N,POT9_W*%
%TO.C,R18*%
X61000000Y-122000000D03*
%TO.N,A2*%
X71160000Y-122000000D03*
%TD*%
D16*
%TO.N,A15*%
%TO.C,U2*%
X50000000Y-180000000D03*
D10*
%TO.N,MUX_CH7*%
X52540000Y-180000000D03*
%TO.N,MUX_CH6*%
X55080000Y-180000000D03*
%TO.N,MUX_CH5*%
X57620000Y-180000000D03*
%TO.N,MUX_CH4*%
X60160000Y-180000000D03*
%TO.N,MUX_CH3*%
X62700000Y-180000000D03*
%TO.N,MUX_CH2*%
X65240000Y-180000000D03*
%TO.N,MUX_CH1*%
X67780000Y-180000000D03*
%TO.N,MUX_CH0*%
X70320000Y-180000000D03*
%TO.N,D2*%
X72860000Y-180000000D03*
%TO.N,D3*%
X75400000Y-180000000D03*
%TO.N,GND*%
X77940000Y-180000000D03*
%TO.N,D13*%
X77940000Y-164760000D03*
%TO.N,D4*%
X75400000Y-164760000D03*
%TO.N,GND*%
X72860000Y-164760000D03*
%TO.N,MUX_CH15*%
X70320000Y-164760000D03*
%TO.N,MUX_CH14*%
X67780000Y-164760000D03*
%TO.N,MUX_CH13*%
X65240000Y-164760000D03*
%TO.N,MUX_CH12*%
X62700000Y-164760000D03*
%TO.N,MUX_CH11*%
X60160000Y-164760000D03*
%TO.N,MUX_CH10*%
X57620000Y-164760000D03*
%TO.N,MUX_CH9*%
X55080000Y-164760000D03*
%TO.N,MUX_CH8*%
X52540000Y-164760000D03*
%TO.N,+5V*%
X50000000Y-164760000D03*
%TD*%
D13*
%TO.N,+5V*%
%TO.C,RV1*%
X50000000Y-80000000D03*
D14*
%TO.N,POT1_W*%
X52500000Y-80000000D03*
%TO.N,GND*%
X55000000Y-80000000D03*
D15*
%TO.N,N/C*%
X48100000Y-73000000D03*
X56900000Y-73000000D03*
%TD*%
D10*
%TO.N,D25*%
%TO.C,R29*%
X43000000Y-100000000D03*
%TO.N,LED6_A*%
X43000000Y-89840000D03*
%TD*%
D17*
%TO.N,*%
%TO.C,J1*%
X45000000Y-28300000D03*
X55000000Y-28300000D03*
D18*
%TO.N,N/C*%
X42700000Y-38000000D03*
%TO.N,GND*%
X50000000Y-38000000D03*
%TO.N,N/C*%
X57300000Y-38000000D03*
%TO.N,MIDI_IN_4*%
X55000000Y-40500000D03*
%TO.N,OPTO_CATHODE*%
X45000000Y-40500000D03*
%TD*%
D19*
%TO.N,D5*%
%TO.C,SW5*%
X168000000Y-156000000D03*
X174500000Y-156000000D03*
%TO.N,GND*%
X168000000Y-160500000D03*
X174500000Y-160500000D03*
%TD*%
D11*
%TO.N,D14*%
%TO.C,JMD3*%
X103580000Y-86000000D03*
D12*
%TO.N,D15*%
X101040000Y-86000000D03*
%TO.N,D16*%
X98500000Y-86000000D03*
%TO.N,D17*%
X95960000Y-86000000D03*
%TO.N,D18*%
X93420000Y-86000000D03*
%TO.N,D19*%
X90880000Y-86000000D03*
%TO.N,D20_SDA*%
X88340000Y-86000000D03*
%TO.N,D21_SCL*%
X85800000Y-86000000D03*
%TD*%
D13*
%TO.N,GND*%
%TO.C,D5*%
X178000000Y-132000000D03*
D14*
%TO.N,LED3_A*%
X180540000Y-132000000D03*
%TD*%
D19*
%TO.N,D26*%
%TO.C,SW8*%
X26000000Y-160000000D03*
X32500000Y-160000000D03*
%TO.N,GND*%
X26000000Y-164500000D03*
X32500000Y-164500000D03*
%TD*%
%TO.N,D7*%
%TO.C,SW2*%
X168000000Y-84000000D03*
X174500000Y-84000000D03*
%TO.N,GND*%
X168000000Y-88500000D03*
X174500000Y-88500000D03*
%TD*%
D16*
%TO.N,N/C*%
%TO.C,U1*%
X48000000Y-54000000D03*
D10*
%TO.N,OPTO_ANODE*%
X48000000Y-56540000D03*
%TO.N,OPTO_CATHODE*%
X48000000Y-59080000D03*
%TO.N,N/C*%
X48000000Y-61620000D03*
%TO.N,GND*%
X55620000Y-61620000D03*
%TO.N,D0_RX*%
X55620000Y-59080000D03*
%TO.N,OPTO_VB*%
X55620000Y-56540000D03*
%TO.N,+5V*%
X55620000Y-54000000D03*
%TD*%
%TO.N,A5*%
%TO.C,C3*%
X93000000Y-79000000D03*
%TO.N,GND*%
X98000000Y-79000000D03*
%TD*%
%TO.N,A8*%
%TO.C,C4*%
X125000000Y-79000000D03*
%TO.N,GND*%
X130000000Y-79000000D03*
%TD*%
D13*
%TO.N,+5V*%
%TO.C,RV5*%
X50000000Y-104000000D03*
D14*
%TO.N,POT5_W*%
X52500000Y-104000000D03*
%TO.N,GND*%
X55000000Y-104000000D03*
D15*
%TO.N,N/C*%
X48100000Y-97000000D03*
X56900000Y-97000000D03*
%TD*%
D10*
%TO.N,POT2_W*%
%TO.C,R11*%
X93000000Y-74000000D03*
%TO.N,A5*%
X103160000Y-74000000D03*
%TD*%
D13*
%TO.N,GND*%
%TO.C,D7*%
X178000000Y-60000000D03*
D14*
%TO.N,LED5_A*%
X180540000Y-60000000D03*
%TD*%
D11*
%TO.N,GND*%
%TO.C,J5*%
X166000000Y-32000000D03*
D12*
%TO.N,+5V*%
X168540000Y-32000000D03*
%TO.N,D21_SCL*%
X171080000Y-32000000D03*
%TO.N,D20_SDA*%
X173620000Y-32000000D03*
%TD*%
D11*
%TO.N,A8*%
%TO.C,JMA2*%
X108660000Y-134260000D03*
D12*
%TO.N,A9*%
X106120000Y-134260000D03*
%TO.N,A10*%
X103580000Y-134260000D03*
%TO.N,A11*%
X101040000Y-134260000D03*
%TO.N,A12*%
X98500000Y-134260000D03*
%TO.N,A13*%
X95960000Y-134260000D03*
%TO.N,A14*%
X93420000Y-134260000D03*
%TO.N,A15*%
X90880000Y-134260000D03*
%TD*%
D20*
%TO.N,VIN_RAW*%
%TO.C,J3*%
X138000000Y-38000000D03*
D21*
%TO.N,GND*%
X138000000Y-32000000D03*
D22*
%TO.N,N/C*%
X133300000Y-35000000D03*
%TD*%
D17*
%TO.N,*%
%TO.C,J2*%
X82000000Y-28300000D03*
X92000000Y-28300000D03*
D18*
%TO.N,N/C*%
X79700000Y-38000000D03*
%TO.N,GND*%
X87000000Y-38000000D03*
%TO.N,N/C*%
X94300000Y-38000000D03*
%TO.N,MIDI_OUT_4*%
X92000000Y-40500000D03*
%TO.N,MIDI_OUT_5*%
X82000000Y-40500000D03*
%TD*%
D13*
%TO.N,+5V*%
%TO.C,RV8*%
X146000000Y-104000000D03*
D14*
%TO.N,POT8_W*%
X148500000Y-104000000D03*
%TO.N,GND*%
X151000000Y-104000000D03*
D15*
%TO.N,N/C*%
X144100000Y-97000000D03*
X152900000Y-97000000D03*
%TD*%
D10*
%TO.N,A1*%
%TO.C,C6*%
X61000000Y-103000000D03*
%TO.N,GND*%
X66000000Y-103000000D03*
%TD*%
D13*
%TO.N,GND*%
%TO.C,J10*%
X114000000Y-40000000D03*
D14*
%TO.N,+5V*%
X112730000Y-37460000D03*
%TO.N,JACK_W*%
X110190000Y-37460000D03*
%TO.N,SW_BEND*%
X108920000Y-40000000D03*
%TO.N,N/C*%
X111460000Y-40000000D03*
%TD*%
D10*
%TO.N,A6*%
%TO.C,C11*%
X93000000Y-127000000D03*
%TO.N,GND*%
X98000000Y-127000000D03*
%TD*%
%TO.N,D23*%
%TO.C,R28*%
X186000000Y-60000000D03*
%TO.N,LED5_A*%
X186000000Y-49840000D03*
%TD*%
D13*
%TO.N,+5V*%
%TO.C,RV11*%
X114000000Y-128000000D03*
D14*
%TO.N,POT11_W*%
X116500000Y-128000000D03*
%TO.N,GND*%
X119000000Y-128000000D03*
D15*
%TO.N,N/C*%
X112100000Y-121000000D03*
X120900000Y-121000000D03*
%TD*%
D11*
%TO.N,N/C*%
%TO.C,JMP1*%
X62940000Y-134260000D03*
D12*
X60400000Y-134260000D03*
X57860000Y-134260000D03*
X55320000Y-134260000D03*
%TO.N,+5V*%
X52780000Y-134260000D03*
%TO.N,GND*%
X50240000Y-134260000D03*
X47700000Y-134260000D03*
%TO.N,VIN_RAW*%
X45160000Y-134260000D03*
%TD*%
D10*
%TO.N,D27*%
%TO.C,R30*%
X43000000Y-160000000D03*
%TO.N,LED7_A*%
X43000000Y-149840000D03*
%TD*%
D11*
%TO.N,A0*%
%TO.C,JMA1*%
X85800000Y-134260000D03*
D12*
%TO.N,A1*%
X83260000Y-134260000D03*
%TO.N,A2*%
X80720000Y-134260000D03*
%TO.N,A3*%
X78180000Y-134260000D03*
%TO.N,A4*%
X75640000Y-134260000D03*
%TO.N,A5*%
X73100000Y-134260000D03*
%TO.N,A6*%
X70560000Y-134260000D03*
%TO.N,A7*%
X68020000Y-134260000D03*
%TD*%
D10*
%TO.N,D12*%
%TO.C,R6*%
X186000000Y-84000000D03*
%TO.N,LED1_A*%
X186000000Y-73840000D03*
%TD*%
%TO.N,POT14_W*%
%TO.C,R23*%
X93000000Y-146000000D03*
%TO.N,A7*%
X103160000Y-146000000D03*
%TD*%
%TO.N,POT16_W*%
%TO.C,R25*%
X157000000Y-146000000D03*
%TO.N,MUX_CH0*%
X167160000Y-146000000D03*
%TD*%
D13*
%TO.N,+5V*%
%TO.C,RV2*%
X82000000Y-80000000D03*
D14*
%TO.N,POT2_W*%
X84500000Y-80000000D03*
%TO.N,GND*%
X87000000Y-80000000D03*
D15*
%TO.N,N/C*%
X80100000Y-73000000D03*
X88900000Y-73000000D03*
%TD*%
D13*
%TO.N,+5V*%
%TO.C,RV10*%
X82000000Y-128000000D03*
D14*
%TO.N,POT10_W*%
X84500000Y-128000000D03*
%TO.N,GND*%
X87000000Y-128000000D03*
D15*
%TO.N,N/C*%
X80100000Y-121000000D03*
X88900000Y-121000000D03*
%TD*%
D10*
%TO.N,MIDI_IN_4*%
%TO.C,R1*%
X34000000Y-65000000D03*
%TO.N,OPTO_ANODE*%
X44160000Y-65000000D03*
%TD*%
%TO.N,D10*%
%TO.C,R8*%
X186000000Y-132000000D03*
%TO.N,LED3_A*%
X186000000Y-121840000D03*
%TD*%
%TO.N,A4*%
%TO.C,C7*%
X93000000Y-103000000D03*
%TO.N,GND*%
X98000000Y-103000000D03*
%TD*%
D13*
%TO.N,+5V*%
%TO.C,RV6*%
X82000000Y-104000000D03*
D14*
%TO.N,POT6_W*%
X84500000Y-104000000D03*
%TO.N,GND*%
X87000000Y-104000000D03*
D15*
%TO.N,N/C*%
X80100000Y-97000000D03*
X88900000Y-97000000D03*
%TD*%
D23*
%TO.N,+5V*%
%TO.C,D2D*%
X150000000Y-52000000D03*
D24*
%TO.N,VIN_RAW*%
X160160000Y-52000000D03*
%TD*%
D13*
%TO.N,GND*%
%TO.C,D8*%
X35000000Y-100000000D03*
D14*
%TO.N,LED6_A*%
X37540000Y-100000000D03*
%TD*%
D13*
%TO.N,+5V*%
%TO.C,RV15*%
X114000000Y-152000000D03*
D14*
%TO.N,POT15_W*%
X116500000Y-152000000D03*
%TO.N,GND*%
X119000000Y-152000000D03*
D15*
%TO.N,N/C*%
X112100000Y-145000000D03*
X120900000Y-145000000D03*
%TD*%
D13*
%TO.N,+5V*%
%TO.C,RV7*%
X114000000Y-104000000D03*
D14*
%TO.N,POT7_W*%
X116500000Y-104000000D03*
%TO.N,GND*%
X119000000Y-104000000D03*
D15*
%TO.N,N/C*%
X112100000Y-97000000D03*
X120900000Y-97000000D03*
%TD*%
D10*
%TO.N,A0*%
%TO.C,C2*%
X61000000Y-79000000D03*
%TO.N,GND*%
X66000000Y-79000000D03*
%TD*%
D13*
%TO.N,+5V*%
%TO.C,RV12*%
X146000000Y-128000000D03*
D14*
%TO.N,POT12_W*%
X148500000Y-128000000D03*
%TO.N,GND*%
X151000000Y-128000000D03*
D15*
%TO.N,N/C*%
X144100000Y-121000000D03*
X152900000Y-121000000D03*
%TD*%
D13*
%TO.N,GND*%
%TO.C,D6*%
X178000000Y-156000000D03*
D14*
%TO.N,LED4_A*%
X180540000Y-156000000D03*
%TD*%
D10*
%TO.N,POT1_W*%
%TO.C,R10*%
X61000000Y-74000000D03*
%TO.N,A0*%
X71160000Y-74000000D03*
%TD*%
D13*
%TO.N,GND*%
%TO.C,D3*%
X178000000Y-84000000D03*
D14*
%TO.N,LED1_A*%
X180540000Y-84000000D03*
%TD*%
D19*
%TO.N,D22*%
%TO.C,SW6*%
X168000000Y-60000000D03*
X174500000Y-60000000D03*
%TO.N,GND*%
X168000000Y-64500000D03*
X174500000Y-64500000D03*
%TD*%
D13*
%TO.N,+5V*%
%TO.C,RV14*%
X82000000Y-152000000D03*
D14*
%TO.N,POT14_W*%
X84500000Y-152000000D03*
%TO.N,GND*%
X87000000Y-152000000D03*
D15*
%TO.N,N/C*%
X80100000Y-145000000D03*
X88900000Y-145000000D03*
%TD*%
D10*
%TO.N,MUX_CH2*%
%TO.C,R31*%
X108000000Y-182000000D03*
%TO.N,GND*%
X118160000Y-182000000D03*
%TD*%
%TO.N,MIDI_OUT_5*%
%TO.C,R3*%
X92000000Y-66000000D03*
%TO.N,D1_TX*%
X102160000Y-66000000D03*
%TD*%
%TO.N,D11*%
%TO.C,R7*%
X186000000Y-108000000D03*
%TO.N,LED2_A*%
X186000000Y-97840000D03*
%TD*%
D11*
%TO.N,GND*%
%TO.C,J4*%
X136000000Y-60000000D03*
D12*
%TO.N,+5V*%
X138540000Y-60000000D03*
%TO.N,GND*%
X141080000Y-60000000D03*
%TO.N,VIN_RAW*%
X143620000Y-60000000D03*
%TD*%
D10*
%TO.N,A3*%
%TO.C,C14*%
X61000000Y-151000000D03*
%TO.N,GND*%
X66000000Y-151000000D03*
%TD*%
%TO.N,A13*%
%TO.C,C9*%
X157000000Y-103000000D03*
%TO.N,GND*%
X162000000Y-103000000D03*
%TD*%
%TO.N,POT4_W*%
%TO.C,R13*%
X157000000Y-74000000D03*
%TO.N,A12*%
X167160000Y-74000000D03*
%TD*%
%TO.N,POT11_W*%
%TO.C,R20*%
X125000000Y-119000000D03*
%TO.N,A10*%
X125000000Y-108840000D03*
%TD*%
D13*
%TO.N,+5V*%
%TO.C,RV3*%
X114000000Y-80000000D03*
D14*
%TO.N,POT3_W*%
X116500000Y-80000000D03*
%TO.N,GND*%
X119000000Y-80000000D03*
D15*
%TO.N,N/C*%
X112100000Y-73000000D03*
X120900000Y-73000000D03*
%TD*%
D10*
%TO.N,A7*%
%TO.C,C15*%
X93000000Y-151000000D03*
%TO.N,GND*%
X98000000Y-151000000D03*
%TD*%
%TO.N,A9*%
%TO.C,C8*%
X138000000Y-104000000D03*
%TO.N,GND*%
X138000000Y-99000000D03*
%TD*%
%TO.N,POT13_W*%
%TO.C,R22*%
X61000000Y-146000000D03*
%TO.N,A3*%
X71160000Y-146000000D03*
%TD*%
D13*
%TO.N,GND*%
%TO.C,D4*%
X178000000Y-108000000D03*
D14*
%TO.N,LED2_A*%
X180540000Y-108000000D03*
%TD*%
D13*
%TO.N,+5V*%
%TO.C,RV13*%
X50000000Y-152000000D03*
D14*
%TO.N,POT13_W*%
X52500000Y-152000000D03*
%TO.N,GND*%
X55000000Y-152000000D03*
D15*
%TO.N,N/C*%
X48100000Y-145000000D03*
X56900000Y-145000000D03*
%TD*%
D10*
%TO.N,POT15_W*%
%TO.C,R24*%
X125000000Y-146000000D03*
%TO.N,A11*%
X135160000Y-146000000D03*
%TD*%
D13*
%TO.N,+5V*%
%TO.C,RV9*%
X50000000Y-128000000D03*
D14*
%TO.N,POT9_W*%
X52500000Y-128000000D03*
%TO.N,GND*%
X55000000Y-128000000D03*
D15*
%TO.N,N/C*%
X48100000Y-121000000D03*
X56900000Y-121000000D03*
%TD*%
D10*
%TO.N,A14*%
%TO.C,C13*%
X157000000Y-127000000D03*
%TO.N,GND*%
X162000000Y-127000000D03*
%TD*%
%TO.N,A2*%
%TO.C,C10*%
X61000000Y-127000000D03*
%TO.N,GND*%
X66000000Y-127000000D03*
%TD*%
D19*
%TO.N,D6*%
%TO.C,SW4*%
X168000000Y-132000000D03*
X174500000Y-132000000D03*
%TO.N,GND*%
X168000000Y-136500000D03*
X174500000Y-136500000D03*
%TD*%
D11*
%TO.N,D21_SCL*%
%TO.C,JMD1*%
X53796000Y-86000000D03*
D12*
%TO.N,D20_SDA*%
X51256000Y-86000000D03*
%TO.N,AREF*%
X48716000Y-86000000D03*
%TO.N,GND*%
X46176000Y-86000000D03*
%TO.N,D13*%
X43636000Y-86000000D03*
%TO.N,D12*%
X41096000Y-86000000D03*
%TO.N,D11*%
X38556000Y-86000000D03*
%TO.N,D10*%
X36016000Y-86000000D03*
%TO.N,D9*%
X33476000Y-86000000D03*
%TO.N,D8*%
X30936000Y-86000000D03*
%TD*%
D10*
%TO.N,OPTO_VB*%
%TO.C,R4*%
X68000000Y-59000000D03*
%TO.N,GND*%
X78160000Y-59000000D03*
%TD*%
D16*
%TO.N,+5V*%
%TO.C,C19*%
X162000000Y-64000000D03*
D10*
%TO.N,GND*%
X164500000Y-64000000D03*
%TD*%
D19*
%TO.N,D24*%
%TO.C,SW7*%
X26000000Y-100000000D03*
X32500000Y-100000000D03*
%TO.N,GND*%
X26000000Y-104500000D03*
X32500000Y-104500000D03*
%TD*%
D10*
%TO.N,MUX_CH1*%
%TO.C,C18*%
X136000000Y-172000000D03*
%TO.N,GND*%
X141000000Y-172000000D03*
%TD*%
D13*
%TO.N,+5V*%
%TO.C,RV16*%
X146000000Y-152000000D03*
D14*
%TO.N,POT16_W*%
X148500000Y-152000000D03*
%TO.N,GND*%
X151000000Y-152000000D03*
D15*
%TO.N,N/C*%
X144100000Y-145000000D03*
X152900000Y-145000000D03*
%TD*%
D10*
%TO.N,POT6_W*%
%TO.C,R15*%
X93000000Y-98000000D03*
%TO.N,A4*%
X103160000Y-98000000D03*
%TD*%
%TO.N,D9*%
%TO.C,R9*%
X186000000Y-156000000D03*
%TO.N,LED4_A*%
X186000000Y-145840000D03*
%TD*%
D19*
%TO.N,D8*%
%TO.C,SW3*%
X168000000Y-108000000D03*
X174500000Y-108000000D03*
%TO.N,GND*%
X168000000Y-112500000D03*
X174500000Y-112500000D03*
%TD*%
D10*
%TO.N,A10*%
%TO.C,C12*%
X138000000Y-128000000D03*
%TO.N,GND*%
X138000000Y-123000000D03*
%TD*%
%TO.N,POT5_W*%
%TO.C,R14*%
X61000000Y-98000000D03*
%TO.N,A1*%
X71160000Y-98000000D03*
%TD*%
%TO.N,JACK_W*%
%TO.C,R27*%
X112000000Y-172000000D03*
%TO.N,MUX_CH1*%
X122160000Y-172000000D03*
%TD*%
%TO.N,MUX_CH2*%
%TO.C,C20*%
X99000000Y-182000000D03*
%TO.N,GND*%
X104000000Y-182000000D03*
%TD*%
%TO.N,D0_RX*%
%TO.C,R5*%
X68000000Y-65000000D03*
%TO.N,+5V*%
X78160000Y-65000000D03*
%TD*%
%TO.N,POT7_W*%
%TO.C,R16*%
X125000000Y-95000000D03*
%TO.N,A9*%
X125000000Y-84840000D03*
%TD*%
%TO.N,POT10_W*%
%TO.C,R19*%
X93000000Y-122000000D03*
%TO.N,A6*%
X103160000Y-122000000D03*
%TD*%
%TO.N,MUX_CH0*%
%TO.C,C17*%
X157000000Y-151000000D03*
%TO.N,GND*%
X162000000Y-151000000D03*
%TD*%
%TO.N,POT12_W*%
%TO.C,R21*%
X157000000Y-122000000D03*
%TO.N,A14*%
X167160000Y-122000000D03*
%TD*%
%TO.N,A12*%
%TO.C,C5*%
X157000000Y-79000000D03*
%TO.N,GND*%
X162000000Y-79000000D03*
%TD*%
%TO.N,SW_BEND*%
%TO.C,R32*%
X86000000Y-182000000D03*
%TO.N,MUX_CH2*%
X96160000Y-182000000D03*
%TD*%
D25*
%TO.N,D26*%
X48105500Y-99281900D03*
%TO.N,D27*%
X112501900Y-152914100D03*
%TO.N,D24*%
X41363400Y-91136600D03*
%TO.N,D25*%
X43623000Y-94096600D03*
%TO.N,D7*%
X148687000Y-65553000D03*
%TO.N,D6*%
X82474100Y-101275900D03*
X147458500Y-106378100D03*
%TO.N,D5*%
X160576900Y-101385900D03*
X77795500Y-99683500D03*
%TO.N,D4*%
X64842800Y-160925500D03*
%TO.N,D1_TX*%
X65919500Y-83296800D03*
%TO.N,D13*%
X48473400Y-155441000D03*
%TO.N,A9*%
X106120000Y-109453200D03*
%TO.N,A10*%
X135386800Y-133317700D03*
%TO.N,A12*%
X147250000Y-112194300D03*
%TO.N,VIN_RAW*%
X108286100Y-116364700D03*
%TO.N,A1*%
X71105300Y-131235500D03*
%TO.N,A0*%
X72715500Y-132435500D03*
%TO.N,D10*%
X44327800Y-100727100D03*
%TO.N,D11*%
X126288900Y-96596900D03*
X124922800Y-90482400D03*
X44733000Y-89567900D03*
%TO.N,D9*%
X104850000Y-88658500D03*
X104850000Y-154716500D03*
%TD*%
%TO.N,POT8_W*%
D26*
X155349200Y-99650800D02*
X152849200Y-99650800D01*
X157000000Y-98000000D02*
X155349200Y-99650800D01*
X152849200Y-99650800D02*
X148500000Y-104000000D01*
%TO.N,A13*%
X167160000Y-98000000D02*
X162000000Y-98000000D01*
X162000000Y-98000000D02*
X157000000Y-103000000D01*
%TO.N,D26*%
X32500000Y-114887400D02*
X32500000Y-160000000D01*
X48105500Y-99281900D02*
X32500000Y-114887400D01*
%TO.N,D27*%
X115063100Y-153201700D02*
X115298300Y-152966500D01*
X115299800Y-127500800D02*
X115299800Y-121850300D01*
X126890600Y-96569600D02*
X128570200Y-94890000D01*
X112501900Y-152914100D02*
X112789500Y-153201700D01*
X112789500Y-153201700D02*
X115063100Y-153201700D01*
X128570200Y-94890000D02*
X130250000Y-94890000D01*
X115299800Y-121850300D02*
X121696300Y-115453800D01*
X130250000Y-94890000D02*
X131520000Y-93620000D01*
X121696300Y-115453800D02*
X121696300Y-102040400D01*
X121696300Y-102040400D02*
X126890600Y-96846100D01*
X115298300Y-127502300D02*
X115299800Y-127500800D01*
X115298300Y-152966500D02*
X115298300Y-127502300D01*
X126890600Y-96846100D02*
X126890600Y-96569600D01*
%TO.N,D24*%
X32500000Y-100000000D02*
X41363400Y-91136600D01*
%TO.N,+5V*%
X138540000Y-60000000D02*
X138540000Y-78726000D01*
X168540000Y-57460000D02*
X162000000Y-64000000D01*
X114000000Y-104000000D02*
X114000000Y-102798300D01*
X114406200Y-81607900D02*
X114000000Y-81201700D01*
X146000000Y-104000000D02*
X146000000Y-105201700D01*
X82000000Y-104000000D02*
X82000000Y-102798300D01*
X114406200Y-129607900D02*
X114000000Y-129201700D01*
X82000000Y-78798300D02*
X77765700Y-74564000D01*
X51201700Y-77596600D02*
X50000000Y-78798300D01*
X82000000Y-80000000D02*
X82000000Y-81201700D01*
X112730000Y-37460000D02*
X111499900Y-36229900D01*
X114000000Y-128000000D02*
X114000000Y-129201700D01*
X77765700Y-65394300D02*
X78160000Y-65000000D01*
X138612300Y-78907700D02*
X131520000Y-86000000D01*
X138612300Y-78798300D02*
X146000000Y-78798300D01*
X168540000Y-32000000D02*
X168540000Y-57460000D01*
X50000000Y-164760000D02*
X50000000Y-152000000D01*
X50000000Y-128000000D02*
X50000000Y-126798300D01*
X50000000Y-105201700D02*
X50814900Y-106016600D01*
X138612300Y-78798300D02*
X138612300Y-78907700D01*
X146406200Y-150392100D02*
X146406200Y-129607900D01*
X50000000Y-128000000D02*
X50000000Y-129201700D01*
X146000000Y-150798300D02*
X146406200Y-150392100D01*
X83075900Y-82277600D02*
X82000000Y-81201700D01*
X146406200Y-129607900D02*
X146000000Y-129201700D01*
X83075900Y-101722400D02*
X83075900Y-82277600D01*
X78160000Y-63840000D02*
X78160000Y-65000000D01*
X146000000Y-80000000D02*
X146000000Y-78798300D01*
X146000000Y-80000000D02*
X146000000Y-81201700D01*
X114000000Y-80000000D02*
X114000000Y-81201700D01*
X146000000Y-128000000D02*
X146000000Y-129201700D01*
X102160000Y-43743300D02*
X102160000Y-60000000D01*
X82000000Y-80000000D02*
X82000000Y-78798300D01*
X146000000Y-102798300D02*
X146406200Y-102392100D01*
X50000000Y-104000000D02*
X50000000Y-105201700D01*
X114000000Y-102798300D02*
X114406200Y-102392100D01*
X114000000Y-152000000D02*
X114000000Y-150798300D01*
X50000000Y-131480000D02*
X52780000Y-134260000D01*
X138540000Y-78726000D02*
X138612300Y-78798300D01*
X146000000Y-105201700D02*
X146406200Y-105607900D01*
X82000000Y-152000000D02*
X82000000Y-150798300D01*
X55620000Y-54000000D02*
X51201700Y-58418300D01*
X82000000Y-150798300D02*
X82459200Y-150339100D01*
X146406200Y-105607900D02*
X146406200Y-126392100D01*
X50814900Y-125983400D02*
X50000000Y-126798300D01*
X50000000Y-129201700D02*
X50000000Y-131480000D01*
X82000000Y-102798300D02*
X83075900Y-101722400D01*
X111499900Y-36229900D02*
X109673400Y-36229900D01*
X50000000Y-102798300D02*
X50807900Y-101990400D01*
X52780000Y-148018300D02*
X52780000Y-134260000D01*
X50814900Y-106016600D02*
X50814900Y-125983400D01*
X51201700Y-58418300D02*
X51201700Y-77596600D01*
X50000000Y-152000000D02*
X50000000Y-150798300D01*
X146406200Y-126392100D02*
X146000000Y-126798300D01*
X109673400Y-36229900D02*
X102160000Y-43743300D01*
X146406200Y-81607900D02*
X146000000Y-81201700D01*
X114000000Y-150798300D02*
X114406200Y-150392100D01*
X50000000Y-94211000D02*
X50000000Y-80000000D01*
X146000000Y-152000000D02*
X146000000Y-150798300D01*
X50000000Y-104000000D02*
X50000000Y-102798300D01*
X82000000Y-143087100D02*
X82000000Y-128000000D01*
X50807900Y-101990400D02*
X50807900Y-95018900D01*
X82459200Y-143546300D02*
X82000000Y-143087100D01*
X50807900Y-95018900D02*
X50000000Y-94211000D01*
X114406200Y-102392100D02*
X114406200Y-81607900D01*
X77765700Y-74564000D02*
X77765700Y-65394300D01*
X50000000Y-150798300D02*
X52780000Y-148018300D01*
X162000000Y-64000000D02*
X150000000Y-52000000D01*
X146000000Y-104000000D02*
X146000000Y-102798300D01*
X146406200Y-102392100D02*
X146406200Y-81607900D01*
X82459200Y-150339100D02*
X82459200Y-143546300D01*
X80000000Y-62000000D02*
X78160000Y-63840000D01*
X114406200Y-150392100D02*
X114406200Y-129607900D01*
X50000000Y-80000000D02*
X50000000Y-78798300D01*
X146000000Y-128000000D02*
X146000000Y-126798300D01*
%TO.N,D7*%
X168000000Y-83428600D02*
X150124400Y-65553000D01*
X168000000Y-84000000D02*
X168000000Y-83428600D01*
X150124400Y-65553000D02*
X148687000Y-65553000D01*
%TO.N,D6*%
X82474100Y-90294100D02*
X82474100Y-101275900D01*
X147458500Y-106378100D02*
X168000000Y-126919600D01*
X168000000Y-126919600D02*
X168000000Y-132000000D01*
X78180000Y-86000000D02*
X82474100Y-90294100D01*
%TO.N,D5*%
X169347200Y-119086200D02*
X160576900Y-110315900D01*
X168000000Y-156000000D02*
X169347200Y-154652800D01*
X160576900Y-110315900D02*
X160576900Y-101385900D01*
X169347200Y-154652800D02*
X169347200Y-119086200D01*
X75640000Y-97528000D02*
X75640000Y-86000000D01*
X77795500Y-99683500D02*
X75640000Y-97528000D01*
%TO.N,D4*%
X71917800Y-84817800D02*
X67518400Y-84817800D01*
X67518400Y-84817800D02*
X66750000Y-85586200D01*
X66750000Y-85586200D02*
X66750000Y-94475500D01*
X64842800Y-96382700D02*
X64842800Y-160925500D01*
X73100000Y-86000000D02*
X71917800Y-84817800D01*
X66750000Y-94475500D02*
X64842800Y-96382700D01*
%TO.N,D3*%
X70560000Y-86000000D02*
X72281200Y-87721200D01*
X71937500Y-144887500D02*
X73961700Y-146911700D01*
X72281200Y-87721200D02*
X72281200Y-122436900D01*
X73961700Y-178561700D02*
X75400000Y-180000000D01*
X71937500Y-122780600D02*
X71937500Y-144887500D01*
X72281200Y-122436900D02*
X71937500Y-122780600D01*
X73961700Y-146911700D02*
X73961700Y-178561700D01*
%TO.N,D2*%
X71590000Y-147988000D02*
X71590000Y-178730000D01*
X71590000Y-178730000D02*
X72860000Y-180000000D01*
X69348500Y-145746500D02*
X71590000Y-147988000D01*
X68020000Y-86000000D02*
X69348500Y-87328500D01*
X69348500Y-87328500D02*
X69348500Y-145746500D01*
%TO.N,D1_TX*%
X65919500Y-85560500D02*
X65919500Y-83296800D01*
X65480000Y-86000000D02*
X65919500Y-85560500D01*
%TO.N,D0_RX*%
X62940000Y-86000000D02*
X62940000Y-70060000D01*
X62940000Y-70060000D02*
X68000000Y-65000000D01*
%TO.N,MIDI_OUT_4*%
X92000000Y-40500000D02*
X92000000Y-60000000D01*
%TO.N,A8*%
X115241500Y-121340600D02*
X114898100Y-121684000D01*
X115241500Y-88758500D02*
X115241500Y-121340600D01*
X108660000Y-127924200D02*
X108660000Y-134260000D01*
X114898100Y-121686100D02*
X108660000Y-127924200D01*
X125000000Y-79000000D02*
X115241500Y-88758500D01*
X114898100Y-121684000D02*
X114898100Y-121686100D01*
%TO.N,OPTO_ANODE*%
X44160000Y-60380000D02*
X44160000Y-65000000D01*
X48000000Y-56540000D02*
X44160000Y-60380000D01*
%TO.N,OPTO_CATHODE*%
X45000000Y-40500000D02*
X41620000Y-43880000D01*
X41620000Y-43880000D02*
X41620000Y-59000000D01*
%TO.N,LED7_A*%
X43000000Y-149840000D02*
X37540000Y-155300000D01*
X37540000Y-155300000D02*
X37540000Y-160000000D01*
%TO.N,A15*%
X90880000Y-134260000D02*
X85750100Y-139389900D01*
X85750100Y-170389900D02*
X76670000Y-179470000D01*
X76670000Y-180387000D02*
X75943900Y-181113100D01*
X75943900Y-181113100D02*
X51113100Y-181113100D01*
X85750100Y-139389900D02*
X85750100Y-170389900D01*
X51113100Y-181113100D02*
X50000000Y-180000000D01*
X76670000Y-179470000D02*
X76670000Y-180387000D01*
%TO.N,D13*%
X48970000Y-131509300D02*
X48781300Y-131320600D01*
X50406200Y-95222100D02*
X45334700Y-90150600D01*
X50406200Y-98528700D02*
X50406200Y-95222100D01*
X48473400Y-149793900D02*
X50473700Y-147793600D01*
X45334700Y-90150600D02*
X45334700Y-87698700D01*
X48781300Y-131320600D02*
X48781300Y-124153600D01*
X50473700Y-147793600D02*
X50473700Y-140456900D01*
X50413200Y-119050400D02*
X48798300Y-117435500D01*
X48781300Y-124153600D02*
X50413200Y-122521700D01*
X48798300Y-117435500D02*
X48798300Y-100136600D01*
X45334700Y-87698700D02*
X43636000Y-86000000D01*
X48798300Y-100136600D02*
X50406200Y-98528700D01*
X48970000Y-138953200D02*
X48970000Y-131509300D01*
X48473400Y-155441000D02*
X48473400Y-149793900D01*
X50473700Y-140456900D02*
X48970000Y-138953200D01*
X50413200Y-122521700D02*
X50413200Y-119050400D01*
%TO.N,LED6_A*%
X43000000Y-89840000D02*
X43000000Y-94540000D01*
X43000000Y-94540000D02*
X37540000Y-100000000D01*
%TO.N,MIDI_IN_4*%
X55000000Y-40500000D02*
X43026100Y-52473900D01*
X43026100Y-59198600D02*
X37224700Y-65000000D01*
X43026100Y-52473900D02*
X43026100Y-59198600D01*
X37224700Y-65000000D02*
X34000000Y-65000000D01*
%TO.N,LED3_A*%
X186000000Y-121840000D02*
X180540000Y-127300000D01*
X180540000Y-127300000D02*
X180540000Y-132000000D01*
%TO.N,A5*%
X89610000Y-82390000D02*
X93000000Y-79000000D01*
X73317200Y-134042800D02*
X73317200Y-118798300D01*
X89610000Y-86389100D02*
X89610000Y-82390000D01*
X98000000Y-74000000D02*
X103160000Y-74000000D01*
X85741400Y-106374100D02*
X85741400Y-90257700D01*
X93000000Y-79000000D02*
X98000000Y-74000000D01*
X73317200Y-118798300D02*
X85741400Y-106374100D01*
X73100000Y-134260000D02*
X73317200Y-134042800D01*
X85741400Y-90257700D02*
X89610000Y-86389100D01*
%TO.N,POT5_W*%
X56849200Y-99650800D02*
X59349200Y-99650800D01*
X59349200Y-99650800D02*
X61000000Y-98000000D01*
X52500000Y-104000000D02*
X56849200Y-99650800D01*
%TO.N,LED5_A*%
X180540000Y-55300000D02*
X180540000Y-60000000D01*
X186000000Y-49840000D02*
X180540000Y-55300000D01*
%TO.N,A9*%
X133598600Y-94045300D02*
X131903300Y-92350000D01*
X138000000Y-104000000D02*
X133598600Y-99598600D01*
X125000000Y-88756400D02*
X125000000Y-84840000D01*
X133598600Y-99598600D02*
X133598600Y-94045300D01*
X106120000Y-134260000D02*
X106120000Y-109453200D01*
X131903300Y-92350000D02*
X128593600Y-92350000D01*
X128593600Y-92350000D02*
X125000000Y-88756400D01*
%TO.N,A10*%
X135386800Y-128000000D02*
X135386800Y-133317700D01*
X131903100Y-117750000D02*
X135386800Y-121233700D01*
X135386800Y-121233700D02*
X135386800Y-128000000D01*
X131101600Y-117750000D02*
X131903100Y-117750000D01*
X138000000Y-128000000D02*
X135386800Y-128000000D01*
X129398400Y-115210000D02*
X130250000Y-116061600D01*
X128614100Y-115210000D02*
X129398400Y-115210000D01*
X130250000Y-116898400D02*
X131101600Y-117750000D01*
X130250000Y-116061600D02*
X130250000Y-116898400D01*
X125000000Y-108840000D02*
X125000000Y-111595900D01*
X125000000Y-111595900D02*
X128614100Y-115210000D01*
%TO.N,A12*%
X146856800Y-106627200D02*
X147249900Y-107020300D01*
X157000000Y-79000000D02*
X147250000Y-88750000D01*
X146856800Y-106129000D02*
X146856800Y-106627200D01*
X147250000Y-105735800D02*
X146856800Y-106129000D01*
X147250000Y-88750000D02*
X147250000Y-105735800D01*
X147249900Y-107020300D02*
X147250000Y-107020300D01*
X147250000Y-107020300D02*
X147250000Y-112194300D01*
%TO.N,VIN_RAW*%
X136033300Y-54380000D02*
X108286100Y-82127200D01*
X108286100Y-82127200D02*
X108286100Y-116364700D01*
X138000000Y-54380000D02*
X136033300Y-54380000D01*
X138000000Y-38000000D02*
X138000000Y-54380000D01*
X138000000Y-54380000D02*
X143620000Y-60000000D01*
%TO.N,MIDI_OUT_5*%
X82000000Y-56000000D02*
X92000000Y-66000000D01*
X82000000Y-40500000D02*
X82000000Y-56000000D01*
%TO.N,A1*%
X70058300Y-130188500D02*
X70058300Y-99101700D01*
X70058300Y-99101700D02*
X71160000Y-98000000D01*
X71105300Y-131235500D02*
X70058300Y-130188500D01*
%TO.N,JACK_W*%
X107502200Y-81179900D02*
X114410800Y-74271300D01*
X110190000Y-42458700D02*
X110190000Y-37460000D01*
X112000000Y-172000000D02*
X107502200Y-167502200D01*
X107502200Y-167502200D02*
X107502200Y-81179900D01*
X114410800Y-74271300D02*
X114410800Y-46679500D01*
X114410800Y-46679500D02*
X110190000Y-42458700D01*
%TO.N,SW_BEND*%
X102370000Y-86864700D02*
X94857700Y-94377000D01*
X94857700Y-94377000D02*
X94857700Y-129647600D01*
X91413100Y-145968900D02*
X91413100Y-176586900D01*
X92150000Y-145232000D02*
X91413100Y-145968900D01*
X102370000Y-83258400D02*
X102370000Y-86864700D01*
X94857700Y-129647600D02*
X92150000Y-132355300D01*
X91413100Y-176586900D02*
X86000000Y-182000000D01*
X108920000Y-40000000D02*
X108920000Y-76708400D01*
X108920000Y-76708400D02*
X102370000Y-83258400D01*
X92150000Y-132355300D02*
X92150000Y-145232000D01*
%TO.N,POT11_W*%
X125000000Y-119000000D02*
X125000000Y-120419500D01*
X118521500Y-125978500D02*
X116500000Y-128000000D01*
X119441000Y-125978500D02*
X118521500Y-125978500D01*
X125000000Y-120419500D02*
X119441000Y-125978500D01*
%TO.N,A0*%
X74266600Y-86631400D02*
X74266600Y-77106600D01*
X72715500Y-88182500D02*
X74266600Y-86631400D01*
X72715500Y-132435500D02*
X72715500Y-88182500D01*
X74266600Y-77106600D02*
X71160000Y-74000000D01*
%TO.N,A4*%
X75640000Y-120360000D02*
X93000000Y-103000000D01*
X75640000Y-134260000D02*
X75640000Y-120360000D01*
%TO.N,LED1_A*%
X180540000Y-79300000D02*
X180540000Y-84000000D01*
X186000000Y-73840000D02*
X180540000Y-79300000D01*
%TO.N,POT10_W*%
X90208900Y-124791100D02*
X93000000Y-122000000D01*
X87708900Y-124791100D02*
X90208900Y-124791100D01*
X84500000Y-128000000D02*
X87708900Y-124791100D01*
%TO.N,D10*%
X38747500Y-88731500D02*
X43491400Y-88731500D01*
X44131300Y-89817000D02*
X44327800Y-90013500D01*
X44327800Y-90013500D02*
X44327800Y-100727100D01*
X44131300Y-89371400D02*
X44131300Y-89817000D01*
X36016000Y-86000000D02*
X38747500Y-88731500D01*
X43491400Y-88731500D02*
X44131300Y-89371400D01*
%TO.N,POT7_W*%
X118652200Y-101847800D02*
X116500000Y-104000000D01*
X119571700Y-101847800D02*
X118652200Y-101847800D01*
X125000000Y-96419500D02*
X119571700Y-101847800D01*
X125000000Y-95000000D02*
X125000000Y-96419500D01*
%TO.N,LED4_A*%
X186000000Y-145840000D02*
X180540000Y-151300000D01*
X180540000Y-151300000D02*
X180540000Y-156000000D01*
%TO.N,D11*%
X42855700Y-87459400D02*
X44733000Y-89336700D01*
X126288900Y-91848500D02*
X126288900Y-96596900D01*
X38556000Y-86000000D02*
X40015400Y-87459400D01*
X44733000Y-89336700D02*
X44733000Y-89567900D01*
X40015400Y-87459400D02*
X42855700Y-87459400D01*
X124922800Y-90482400D02*
X126288900Y-91848500D01*
%TO.N,LED2_A*%
X180540000Y-103300000D02*
X180540000Y-108000000D01*
X186000000Y-97840000D02*
X180540000Y-103300000D01*
%TO.N,D9*%
X104850000Y-154716500D02*
X104850000Y-88658500D01*
%TD*%
M02*
