%TF.GenerationSoftware,KiCad,Pcbnew,10.0.3*%
%TF.CreationDate,2026-06-06T11:33:11+02:00*%
%TF.ProjectId,SysEx_Patcher,53797345-785f-4506-9174-636865722e6b,rev?*%
%TF.SameCoordinates,Original*%
%TF.FileFunction,Copper,L3,Inr*%
%TF.FilePolarity,Positive*%
%FSLAX46Y46*%
G04 Gerber Fmt 4.6, Leading zero omitted, Abs format (unit mm)*
G04 Created by KiCad (PCBNEW 10.0.3) date 2026-06-06 11:33:11*
%MOMM*%
%LPD*%
G01*
G04 APERTURE LIST*
G04 Aperture macros list*
%AMRoundRect*
0 Rectangle with rounded corners*
0 $1 Rounding radius*
0 $2 $3 $4 $5 $6 $7 $8 $9 X,Y pos of 4 corners*
0 Add a 4 corners polygon primitive as box body*
4,1,4,$2,$3,$4,$5,$6,$7,$8,$9,$2,$3,0*
0 Add four circle primitives for the rounded corners*
1,1,$1+$1,$2,$3*
1,1,$1+$1,$4,$5*
1,1,$1+$1,$6,$7*
1,1,$1+$1,$8,$9*
0 Add four rect primitives between the rounded corners*
20,1,$1+$1,$2,$3,$4,$5,0*
20,1,$1+$1,$4,$5,$6,$7,0*
20,1,$1+$1,$6,$7,$8,$9,0*
20,1,$1+$1,$8,$9,$2,$3,0*%
G04 Aperture macros list end*
%TA.AperFunction,ComponentPad*%
%ADD10C,1.600000*%
%TD*%
%TA.AperFunction,ComponentPad*%
%ADD11O,2.200000X3.500000*%
%TD*%
%TA.AperFunction,ComponentPad*%
%ADD12R,1.500000X2.500000*%
%TD*%
%TA.AperFunction,ComponentPad*%
%ADD13O,1.500000X2.500000*%
%TD*%
%TA.AperFunction,ComponentPad*%
%ADD14C,2.600000*%
%TD*%
%TA.AperFunction,ComponentPad*%
%ADD15C,2.400000*%
%TD*%
%TA.AperFunction,ComponentPad*%
%ADD16R,1.700000X1.700000*%
%TD*%
%TA.AperFunction,ComponentPad*%
%ADD17C,1.700000*%
%TD*%
%TA.AperFunction,ComponentPad*%
%ADD18C,3.000000*%
%TD*%
%TA.AperFunction,ComponentPad*%
%ADD19R,1.800000X1.800000*%
%TD*%
%TA.AperFunction,ComponentPad*%
%ADD20C,1.800000*%
%TD*%
%TA.AperFunction,ComponentPad*%
%ADD21RoundRect,0.750000X-1.250000X-0.750000X1.250000X-0.750000X1.250000X0.750000X-1.250000X0.750000X0*%
%TD*%
%TA.AperFunction,ComponentPad*%
%ADD22RoundRect,0.250000X-0.550000X-0.550000X0.550000X-0.550000X0.550000X0.550000X-0.550000X0.550000X0*%
%TD*%
%TA.AperFunction,ComponentPad*%
%ADD23C,2.000000*%
%TD*%
%TA.AperFunction,ComponentPad*%
%ADD24RoundRect,0.249999X-0.850001X-0.850001X0.850001X-0.850001X0.850001X0.850001X-0.850001X0.850001X0*%
%TD*%
%TA.AperFunction,ComponentPad*%
%ADD25C,2.200000*%
%TD*%
%TA.AperFunction,ComponentPad*%
%ADD26R,3.500000X3.500000*%
%TD*%
%TA.AperFunction,ComponentPad*%
%ADD27RoundRect,0.750000X-0.750000X-1.000000X0.750000X-1.000000X0.750000X1.000000X-0.750000X1.000000X0*%
%TD*%
%TA.AperFunction,ComponentPad*%
%ADD28RoundRect,0.875000X-0.875000X-0.875000X0.875000X-0.875000X0.875000X0.875000X-0.875000X0.875000X0*%
%TD*%
%TA.AperFunction,ViaPad*%
%ADD29C,0.600000*%
%TD*%
%TA.AperFunction,Conductor*%
%ADD30C,0.200000*%
%TD*%
G04 APERTURE END LIST*
D10*
%TO.N,A12*%
%TO.C,C5*%
X146000000Y-70000000D03*
%TO.N,GND*%
X146000000Y-65000000D03*
%TD*%
%TO.N,A7*%
%TO.C,C15*%
X82000000Y-148000000D03*
%TO.N,GND*%
X82000000Y-143000000D03*
%TD*%
%TO.N,POT10_W*%
%TO.C,R19*%
X76000000Y-114000000D03*
%TO.N,A6*%
X76000000Y-103840000D03*
%TD*%
D11*
%TO.N,*%
%TO.C,SW1*%
X67900000Y-42000000D03*
X76100000Y-42000000D03*
D12*
%TO.N,OPTO_VO*%
X70000000Y-42000000D03*
D13*
%TO.N,D0_RX*%
X72000000Y-42000000D03*
%TO.N,N/C*%
X74000000Y-42000000D03*
%TD*%
D10*
%TO.N,A6*%
%TO.C,C11*%
X82000000Y-122000000D03*
%TO.N,GND*%
X82000000Y-117000000D03*
%TD*%
D14*
%TO.N,*%
%TO.C,J1*%
X19000000Y-8300000D03*
X29000000Y-8300000D03*
D15*
%TO.N,N/C*%
X16700000Y-18000000D03*
%TO.N,GND*%
X24000000Y-18000000D03*
%TO.N,N/C*%
X31300000Y-18000000D03*
%TO.N,MIDI_IN_4*%
X29000000Y-20500000D03*
%TO.N,OPTO_CATHODE*%
X19000000Y-20500000D03*
%TD*%
D16*
%TO.N,A8*%
%TO.C,JMA3*%
X74610000Y-172000000D03*
D17*
%TO.N,A9*%
X77150000Y-172000000D03*
%TO.N,A10*%
X79690000Y-172000000D03*
%TO.N,A11*%
X82230000Y-172000000D03*
%TO.N,A12*%
X84770000Y-172000000D03*
%TO.N,A13*%
X87310000Y-172000000D03*
%TO.N,A14*%
X89850000Y-172000000D03*
%TO.N,A15*%
X92390000Y-172000000D03*
%TD*%
D10*
%TO.N,POT16_W*%
%TO.C,R25*%
X140000000Y-140000000D03*
%TO.N,MUX_CH0*%
X140000000Y-129840000D03*
%TD*%
D18*
%TO.N,GND*%
%TO.C,J10*%
X91430000Y-9300000D03*
%TO.N,+5V*%
X80000000Y-15650000D03*
%TO.N,N/C*%
X91430000Y-15650000D03*
%TO.N,GND*%
X80000000Y-9300000D03*
%TO.N,JACK_W*%
X80000000Y-22000000D03*
%TO.N,N/C*%
X91430000Y-22000000D03*
%TD*%
D10*
%TO.N,JACK_W*%
%TO.C,R27*%
X95000000Y-192000000D03*
%TO.N,MUX_CH1*%
X105160000Y-192000000D03*
%TD*%
D19*
%TO.N,+5V*%
%TO.C,RV13*%
X30000000Y-144000000D03*
D20*
%TO.N,POT13_W*%
X32500000Y-144000000D03*
%TO.N,GND*%
X35000000Y-144000000D03*
D21*
%TO.N,N/C*%
X28100000Y-137000000D03*
X36900000Y-137000000D03*
%TD*%
D16*
%TO.N,GND*%
%TO.C,J4*%
X148000000Y-28000000D03*
D17*
%TO.N,+5V*%
X148000000Y-30540000D03*
%TO.N,GND*%
X148000000Y-33080000D03*
%TO.N,VIN_RAW*%
X148000000Y-35620000D03*
%TD*%
D22*
%TO.N,N/C*%
%TO.C,U1*%
X28000000Y-34000000D03*
D10*
%TO.N,OPTO_ANODE*%
X28000000Y-36540000D03*
%TO.N,OPTO_CATHODE*%
X28000000Y-39080000D03*
%TO.N,N/C*%
X28000000Y-41620000D03*
%TO.N,GND*%
X35620000Y-41620000D03*
%TO.N,OPTO_VO*%
X35620000Y-39080000D03*
%TO.N,OPTO_VB*%
X35620000Y-36540000D03*
%TO.N,+5V*%
X35620000Y-34000000D03*
%TD*%
D16*
%TO.N,D20_SDA*%
%TO.C,JMD4*%
X84770000Y-220000000D03*
D17*
%TO.N,D21_SCL*%
X87310000Y-220000000D03*
%TD*%
D10*
%TO.N,MIDI_OUT_5*%
%TO.C,R3*%
X98000000Y-39000000D03*
%TO.N,D1_TX*%
X108160000Y-39000000D03*
%TD*%
%TO.N,MUX_CH1*%
%TO.C,C18*%
X120000000Y-192000000D03*
%TO.N,GND*%
X125000000Y-192000000D03*
%TD*%
D19*
%TO.N,+5V*%
%TO.C,RV12*%
X126000000Y-118000000D03*
D20*
%TO.N,POT12_W*%
X128500000Y-118000000D03*
%TO.N,GND*%
X131000000Y-118000000D03*
D21*
%TO.N,N/C*%
X124100000Y-111000000D03*
X132900000Y-111000000D03*
%TD*%
D10*
%TO.N,A10*%
%TO.C,C12*%
X114000000Y-122000000D03*
%TO.N,GND*%
X114000000Y-117000000D03*
%TD*%
D16*
%TO.N,D2*%
%TO.C,JMD1*%
X20000000Y-220000000D03*
D17*
%TO.N,D3*%
X22540000Y-220000000D03*
%TO.N,D4*%
X25080000Y-220000000D03*
%TO.N,GND*%
X27620000Y-220000000D03*
%TO.N,D13*%
X30160000Y-220000000D03*
%TO.N,D5*%
X32700000Y-220000000D03*
%TO.N,D6*%
X35240000Y-220000000D03*
%TO.N,D7*%
X37780000Y-220000000D03*
%TO.N,D8*%
X40320000Y-220000000D03*
%TO.N,D9*%
X42860000Y-220000000D03*
%TD*%
D10*
%TO.N,POT13_W*%
%TO.C,R22*%
X44000000Y-140000000D03*
%TO.N,A3*%
X44000000Y-129840000D03*
%TD*%
D19*
%TO.N,+5V*%
%TO.C,RV8*%
X126000000Y-92000000D03*
D20*
%TO.N,POT8_W*%
X128500000Y-92000000D03*
%TO.N,GND*%
X131000000Y-92000000D03*
D21*
%TO.N,N/C*%
X124100000Y-85000000D03*
X132900000Y-85000000D03*
%TD*%
D10*
%TO.N,OPTO_VO*%
%TO.C,R5*%
X48000000Y-45000000D03*
%TO.N,+5V*%
X58160000Y-45000000D03*
%TD*%
%TO.N,POT7_W*%
%TO.C,R16*%
X108000000Y-88000000D03*
%TO.N,A9*%
X108000000Y-77840000D03*
%TD*%
D16*
%TO.N,N/C*%
%TO.C,JMA1*%
X28890000Y-172000000D03*
D17*
X31430000Y-172000000D03*
X33970000Y-172000000D03*
X36510000Y-172000000D03*
%TO.N,+5V*%
X39050000Y-172000000D03*
%TO.N,GND*%
X41590000Y-172000000D03*
X44130000Y-172000000D03*
%TO.N,VIN_RAW*%
X46670000Y-172000000D03*
%TD*%
D10*
%TO.N,POT3_W*%
%TO.C,R12*%
X108000000Y-62000000D03*
%TO.N,A8*%
X108000000Y-51840000D03*
%TD*%
D19*
%TO.N,+5V*%
%TO.C,RV1*%
X30000000Y-66000000D03*
D20*
%TO.N,POT1_W*%
X32500000Y-66000000D03*
%TO.N,GND*%
X35000000Y-66000000D03*
D21*
%TO.N,N/C*%
X28100000Y-59000000D03*
X36900000Y-59000000D03*
%TD*%
D10*
%TO.N,A0*%
%TO.C,C2*%
X50000000Y-70000000D03*
%TO.N,GND*%
X50000000Y-65000000D03*
%TD*%
D23*
%TO.N,D5*%
%TO.C,SW5*%
X10000000Y-132000000D03*
X16500000Y-132000000D03*
%TO.N,GND*%
X10000000Y-136500000D03*
X16500000Y-136500000D03*
%TD*%
D10*
%TO.N,MIDI_OUT_4*%
%TO.C,R2*%
X98000000Y-45000000D03*
%TO.N,+5V*%
X108160000Y-45000000D03*
%TD*%
%TO.N,POT4_W*%
%TO.C,R13*%
X140000000Y-62000000D03*
%TO.N,A12*%
X140000000Y-51840000D03*
%TD*%
%TO.N,MUX_CH0*%
%TO.C,C17*%
X146000000Y-148000000D03*
%TO.N,GND*%
X146000000Y-143000000D03*
%TD*%
%TO.N,POT9_W*%
%TO.C,R18*%
X44000000Y-114000000D03*
%TO.N,A2*%
X44000000Y-103840000D03*
%TD*%
%TO.N,MIDI_IN_4*%
%TO.C,R1*%
X14000000Y-45000000D03*
%TO.N,OPTO_ANODE*%
X24160000Y-45000000D03*
%TD*%
D16*
%TO.N,A0*%
%TO.C,JMA2*%
X51750000Y-172000000D03*
D17*
%TO.N,A1*%
X54290000Y-172000000D03*
%TO.N,A2*%
X56830000Y-172000000D03*
%TO.N,A3*%
X59370000Y-172000000D03*
%TO.N,A4*%
X61910000Y-172000000D03*
%TO.N,A5*%
X64450000Y-172000000D03*
%TO.N,A6*%
X66990000Y-172000000D03*
%TO.N,A7*%
X69530000Y-172000000D03*
%TD*%
D10*
%TO.N,D10*%
%TO.C,R8*%
X152000000Y-110000000D03*
%TO.N,LED3_A*%
X152000000Y-99840000D03*
%TD*%
D19*
%TO.N,+5V*%
%TO.C,RV3*%
X94000000Y-66000000D03*
D20*
%TO.N,POT3_W*%
X96500000Y-66000000D03*
%TO.N,GND*%
X99000000Y-66000000D03*
D21*
%TO.N,N/C*%
X92100000Y-59000000D03*
X100900000Y-59000000D03*
%TD*%
D23*
%TO.N,D8*%
%TO.C,SW3*%
X10000000Y-88000000D03*
X16500000Y-88000000D03*
%TO.N,GND*%
X10000000Y-92500000D03*
X16500000Y-92500000D03*
%TD*%
D10*
%TO.N,A1*%
%TO.C,C6*%
X50000000Y-96000000D03*
%TO.N,GND*%
X50000000Y-91000000D03*
%TD*%
%TO.N,A5*%
%TO.C,C3*%
X82000000Y-70000000D03*
%TO.N,GND*%
X82000000Y-65000000D03*
%TD*%
%TO.N,A11*%
%TO.C,C16*%
X114000000Y-148000000D03*
%TO.N,GND*%
X114000000Y-143000000D03*
%TD*%
D19*
%TO.N,+5V*%
%TO.C,RV5*%
X30000000Y-92000000D03*
D20*
%TO.N,POT5_W*%
X32500000Y-92000000D03*
%TO.N,GND*%
X35000000Y-92000000D03*
D21*
%TO.N,N/C*%
X28100000Y-85000000D03*
X36900000Y-85000000D03*
%TD*%
D19*
%TO.N,GND*%
%TO.C,D5*%
X160000000Y-110000000D03*
D20*
%TO.N,LED3_A*%
X160000000Y-107460000D03*
%TD*%
D16*
%TO.N,GND*%
%TO.C,J5*%
X146000000Y-12000000D03*
D17*
%TO.N,+5V*%
X148540000Y-12000000D03*
%TO.N,D21_SCL*%
X151080000Y-12000000D03*
%TO.N,D20_SDA*%
X153620000Y-12000000D03*
%TD*%
D10*
%TO.N,A9*%
%TO.C,C8*%
X114000000Y-96000000D03*
%TO.N,GND*%
X114000000Y-91000000D03*
%TD*%
D19*
%TO.N,GND*%
%TO.C,D6*%
X160000000Y-132000000D03*
D20*
%TO.N,LED4_A*%
X160000000Y-129460000D03*
%TD*%
D10*
%TO.N,D11*%
%TO.C,R7*%
X152000000Y-88000000D03*
%TO.N,LED2_A*%
X152000000Y-77840000D03*
%TD*%
D16*
%TO.N,D10*%
%TO.C,JMD2*%
X46670000Y-220000000D03*
D17*
%TO.N,D11*%
X49210000Y-220000000D03*
%TO.N,D12*%
X51750000Y-220000000D03*
%TD*%
D10*
%TO.N,POT8_W*%
%TO.C,R17*%
X140000000Y-88000000D03*
%TO.N,A13*%
X140000000Y-77840000D03*
%TD*%
D22*
%TO.N,OPTO_ANODE*%
%TO.C,D1*%
X14000000Y-39000000D03*
D10*
%TO.N,OPTO_CATHODE*%
X21620000Y-39000000D03*
%TD*%
%TO.N,POT14_W*%
%TO.C,R23*%
X76000000Y-140000000D03*
%TO.N,A7*%
X76000000Y-129840000D03*
%TD*%
D19*
%TO.N,+5V*%
%TO.C,RV10*%
X62000000Y-118000000D03*
D20*
%TO.N,POT10_W*%
X64500000Y-118000000D03*
%TO.N,GND*%
X67000000Y-118000000D03*
D21*
%TO.N,N/C*%
X60100000Y-111000000D03*
X68900000Y-111000000D03*
%TD*%
D19*
%TO.N,+5V*%
%TO.C,RV7*%
X94000000Y-92000000D03*
D20*
%TO.N,POT7_W*%
X96500000Y-92000000D03*
%TO.N,GND*%
X99000000Y-92000000D03*
D21*
%TO.N,N/C*%
X92100000Y-85000000D03*
X100900000Y-85000000D03*
%TD*%
D19*
%TO.N,+5V*%
%TO.C,RV14*%
X62000000Y-144000000D03*
D20*
%TO.N,POT14_W*%
X64500000Y-144000000D03*
%TO.N,GND*%
X67000000Y-144000000D03*
D21*
%TO.N,N/C*%
X60100000Y-137000000D03*
X68900000Y-137000000D03*
%TD*%
D10*
%TO.N,POT5_W*%
%TO.C,R14*%
X44000000Y-88000000D03*
%TO.N,A1*%
X44000000Y-77840000D03*
%TD*%
%TO.N,A4*%
%TO.C,C7*%
X82000000Y-96000000D03*
%TO.N,GND*%
X82000000Y-91000000D03*
%TD*%
D19*
%TO.N,+5V*%
%TO.C,RV9*%
X30000000Y-118000000D03*
D20*
%TO.N,POT9_W*%
X32500000Y-118000000D03*
%TO.N,GND*%
X35000000Y-118000000D03*
D21*
%TO.N,N/C*%
X28100000Y-111000000D03*
X36900000Y-111000000D03*
%TD*%
D19*
%TO.N,+5V*%
%TO.C,RV15*%
X94000000Y-144000000D03*
D20*
%TO.N,POT15_W*%
X96500000Y-144000000D03*
%TO.N,GND*%
X99000000Y-144000000D03*
D21*
%TO.N,N/C*%
X92100000Y-137000000D03*
X100900000Y-137000000D03*
%TD*%
D19*
%TO.N,GND*%
%TO.C,D3*%
X160000000Y-66000000D03*
D20*
%TO.N,LED1_A*%
X160000000Y-63460000D03*
%TD*%
D19*
%TO.N,+5V*%
%TO.C,RV6*%
X62000000Y-92000000D03*
D20*
%TO.N,POT6_W*%
X64500000Y-92000000D03*
%TO.N,GND*%
X67000000Y-92000000D03*
D21*
%TO.N,N/C*%
X60100000Y-85000000D03*
X68900000Y-85000000D03*
%TD*%
D19*
%TO.N,+5V*%
%TO.C,RV16*%
X126000000Y-144000000D03*
D20*
%TO.N,POT16_W*%
X128500000Y-144000000D03*
%TO.N,GND*%
X131000000Y-144000000D03*
D21*
%TO.N,N/C*%
X124100000Y-137000000D03*
X132900000Y-137000000D03*
%TD*%
D23*
%TO.N,D6*%
%TO.C,SW4*%
X10000000Y-110000000D03*
X16500000Y-110000000D03*
%TO.N,GND*%
X10000000Y-114500000D03*
X16500000Y-114500000D03*
%TD*%
D10*
%TO.N,A13*%
%TO.C,C9*%
X146000000Y-96000000D03*
%TO.N,GND*%
X146000000Y-91000000D03*
%TD*%
D19*
%TO.N,GND*%
%TO.C,D4*%
X160000000Y-88000000D03*
D20*
%TO.N,LED2_A*%
X160000000Y-85460000D03*
%TD*%
D10*
%TO.N,+5V*%
%TO.C,C1*%
X60000000Y-42000000D03*
%TO.N,GND*%
X65000000Y-42000000D03*
%TD*%
%TO.N,A14*%
%TO.C,C13*%
X146000000Y-122000000D03*
%TO.N,GND*%
X146000000Y-117000000D03*
%TD*%
D23*
%TO.N,D7*%
%TO.C,SW2*%
X10000000Y-66000000D03*
X16500000Y-66000000D03*
%TO.N,GND*%
X10000000Y-70500000D03*
X16500000Y-70500000D03*
%TD*%
D10*
%TO.N,OPTO_VB*%
%TO.C,R4*%
X48000000Y-39000000D03*
%TO.N,GND*%
X58160000Y-39000000D03*
%TD*%
D16*
%TO.N,D1_TX*%
%TO.C,JMD3*%
X61910000Y-220000000D03*
D17*
%TO.N,D0_RX*%
X64450000Y-220000000D03*
%TD*%
D19*
%TO.N,+5V*%
%TO.C,RV2*%
X62000000Y-66000000D03*
D20*
%TO.N,POT2_W*%
X64500000Y-66000000D03*
%TO.N,GND*%
X67000000Y-66000000D03*
D21*
%TO.N,N/C*%
X60100000Y-59000000D03*
X68900000Y-59000000D03*
%TD*%
D24*
%TO.N,+5V*%
%TO.C,D2D*%
X130000000Y-32000000D03*
D25*
%TO.N,VIN_RAW*%
X140160000Y-32000000D03*
%TD*%
D19*
%TO.N,+5V*%
%TO.C,RV11*%
X94000000Y-118000000D03*
D20*
%TO.N,POT11_W*%
X96500000Y-118000000D03*
%TO.N,GND*%
X99000000Y-118000000D03*
D21*
%TO.N,N/C*%
X92100000Y-111000000D03*
X100900000Y-111000000D03*
%TD*%
D10*
%TO.N,A8*%
%TO.C,C4*%
X114000000Y-70000000D03*
%TO.N,GND*%
X114000000Y-65000000D03*
%TD*%
D22*
%TO.N,A15*%
%TO.C,U2*%
X48000000Y-178000000D03*
D10*
%TO.N,MUX_CH7*%
X48000000Y-180540000D03*
%TO.N,MUX_CH6*%
X48000000Y-183080000D03*
%TO.N,MUX_CH5*%
X48000000Y-185620000D03*
%TO.N,MUX_CH4*%
X48000000Y-188160000D03*
%TO.N,MUX_CH3*%
X48000000Y-190700000D03*
%TO.N,MUX_CH2*%
X48000000Y-193240000D03*
%TO.N,MUX_CH1*%
X48000000Y-195780000D03*
%TO.N,MUX_CH0*%
X48000000Y-198320000D03*
%TO.N,D2*%
X48000000Y-200860000D03*
%TO.N,D3*%
X48000000Y-203400000D03*
%TO.N,GND*%
X48000000Y-205940000D03*
%TO.N,D13*%
X63240000Y-205940000D03*
%TO.N,D4*%
X63240000Y-203400000D03*
%TO.N,GND*%
X63240000Y-200860000D03*
%TO.N,MUX_CH15*%
X63240000Y-198320000D03*
%TO.N,MUX_CH14*%
X63240000Y-195780000D03*
%TO.N,MUX_CH13*%
X63240000Y-193240000D03*
%TO.N,MUX_CH12*%
X63240000Y-190700000D03*
%TO.N,MUX_CH11*%
X63240000Y-188160000D03*
%TO.N,MUX_CH10*%
X63240000Y-185620000D03*
%TO.N,MUX_CH9*%
X63240000Y-183080000D03*
%TO.N,MUX_CH8*%
X63240000Y-180540000D03*
%TO.N,+5V*%
X63240000Y-178000000D03*
%TD*%
%TO.N,A3*%
%TO.C,C14*%
X50000000Y-148000000D03*
%TO.N,GND*%
X50000000Y-143000000D03*
%TD*%
D19*
%TO.N,+5V*%
%TO.C,RV4*%
X126000000Y-66000000D03*
D20*
%TO.N,POT4_W*%
X128500000Y-66000000D03*
%TO.N,GND*%
X131000000Y-66000000D03*
D21*
%TO.N,N/C*%
X124100000Y-59000000D03*
X132900000Y-59000000D03*
%TD*%
D10*
%TO.N,POT12_W*%
%TO.C,R21*%
X140000000Y-114000000D03*
%TO.N,A14*%
X140000000Y-103840000D03*
%TD*%
%TO.N,POT15_W*%
%TO.C,R24*%
X108000000Y-140000000D03*
%TO.N,A11*%
X108000000Y-129840000D03*
%TD*%
%TO.N,D12*%
%TO.C,R6*%
X152000000Y-66000000D03*
%TO.N,LED1_A*%
X152000000Y-55840000D03*
%TD*%
%TO.N,POT11_W*%
%TO.C,R20*%
X108000000Y-114000000D03*
%TO.N,A10*%
X108000000Y-103840000D03*
%TD*%
%TO.N,POT6_W*%
%TO.C,R15*%
X76000000Y-88000000D03*
%TO.N,A4*%
X76000000Y-77840000D03*
%TD*%
%TO.N,A2*%
%TO.C,C10*%
X50000000Y-122000000D03*
%TO.N,GND*%
X50000000Y-117000000D03*
%TD*%
%TO.N,D9*%
%TO.C,R9*%
X152000000Y-132000000D03*
%TO.N,LED4_A*%
X152000000Y-121840000D03*
%TD*%
D26*
%TO.N,VIN_RAW*%
%TO.C,J3*%
X118000000Y-18000000D03*
D27*
%TO.N,GND*%
X118000000Y-12000000D03*
D28*
%TO.N,N/C*%
X113300000Y-15000000D03*
%TD*%
D10*
%TO.N,POT2_W*%
%TO.C,R11*%
X76000000Y-62000000D03*
%TO.N,A5*%
X76000000Y-51840000D03*
%TD*%
D14*
%TO.N,*%
%TO.C,J2*%
X47000000Y-8300000D03*
X57000000Y-8300000D03*
D15*
%TO.N,N/C*%
X44700000Y-18000000D03*
%TO.N,GND*%
X52000000Y-18000000D03*
%TO.N,N/C*%
X59300000Y-18000000D03*
%TO.N,MIDI_OUT_4*%
X57000000Y-20500000D03*
%TO.N,MIDI_OUT_5*%
X47000000Y-20500000D03*
%TD*%
D10*
%TO.N,POT1_W*%
%TO.C,R10*%
X44000000Y-62000000D03*
%TO.N,A0*%
X44000000Y-51840000D03*
%TD*%
D29*
%TO.N,JACK_W*%
X83603100Y-192000000D03*
%TO.N,VIN_RAW*%
X87436100Y-169869100D03*
%TO.N,A5*%
X66370000Y-169988000D03*
%TO.N,A8*%
X78077900Y-86828900D03*
%TO.N,A12*%
X136711800Y-161050300D03*
%TO.N,A4*%
X57760500Y-96000000D03*
%TO.N,A9*%
X106050100Y-143099900D03*
%TO.N,D12*%
X153132300Y-218848300D03*
%TO.N,D11*%
X49680800Y-134743400D03*
%TO.N,D10*%
X147897600Y-221166500D03*
%TD*%
%TO.N,MIDI_IN_4*%
D30*
X29000000Y-20500000D02*
X23026100Y-26473900D01*
X17224700Y-45000000D02*
X14000000Y-45000000D01*
X23026100Y-26473900D02*
X23026100Y-39198600D01*
X23026100Y-39198600D02*
X17224700Y-45000000D01*
%TO.N,OPTO_CATHODE*%
X21620000Y-39000000D02*
X21620000Y-23120000D01*
X21620000Y-23120000D02*
X19000000Y-20500000D01*
%TO.N,JACK_W*%
X83603100Y-25603100D02*
X83603100Y-192000000D01*
X80000000Y-22000000D02*
X83603100Y-25603100D01*
%TO.N,+5V*%
X30000000Y-144000000D02*
X30000000Y-142798300D01*
X30406200Y-67607900D02*
X30000000Y-67201700D01*
X126000000Y-64798300D02*
X126763700Y-64034600D01*
X94000000Y-142798300D02*
X94406200Y-142392100D01*
X30000000Y-144000000D02*
X30000000Y-145201700D01*
X60000000Y-42000000D02*
X58160000Y-43840000D01*
X62450200Y-44450200D02*
X60000000Y-42000000D01*
X62000000Y-118000000D02*
X62000000Y-119201700D01*
X126431500Y-142366800D02*
X126431500Y-119633200D01*
X126431500Y-116366800D02*
X126431500Y-93633200D01*
X30000000Y-92000000D02*
X30000000Y-90798300D01*
X30406200Y-90392100D02*
X30406200Y-67607900D01*
X30000000Y-118000000D02*
X30000000Y-116798300D01*
X30000000Y-90798300D02*
X30406200Y-90392100D01*
X62412400Y-142385900D02*
X62412400Y-119614100D01*
X126000000Y-116798300D02*
X126431500Y-116366800D01*
X126431500Y-93633200D02*
X126000000Y-93201700D01*
X94410100Y-93611800D02*
X94000000Y-93201700D01*
X30406200Y-119607900D02*
X30000000Y-119201700D01*
X94000000Y-116798300D02*
X94410100Y-116388200D01*
X126431500Y-119633200D02*
X126000000Y-119201700D01*
X80000000Y-15650000D02*
X60000000Y-35650000D01*
X39050000Y-154251700D02*
X30000000Y-145201700D01*
X62000000Y-116798300D02*
X62406200Y-116392100D01*
X62000000Y-92000000D02*
X62000000Y-90798300D01*
X126763700Y-64034600D02*
X126763700Y-35236300D01*
X30000000Y-116798300D02*
X30406200Y-116392100D01*
X30000000Y-142798300D02*
X30406200Y-142392100D01*
X94410100Y-116388200D02*
X94410100Y-93611800D01*
X126000000Y-118000000D02*
X126000000Y-119201700D01*
X94406200Y-119607900D02*
X94000000Y-119201700D01*
X63240000Y-178000000D02*
X63240000Y-146441700D01*
X62412400Y-119614100D02*
X62000000Y-119201700D01*
X30406200Y-93607900D02*
X30000000Y-93201700D01*
X30000000Y-118000000D02*
X30000000Y-119201700D01*
X62406200Y-93607900D02*
X62000000Y-93201700D01*
X94000000Y-118000000D02*
X94000000Y-116798300D01*
X63240000Y-146441700D02*
X62000000Y-145201700D01*
X126000000Y-66000000D02*
X126000000Y-67201700D01*
X62406200Y-67607900D02*
X62000000Y-67201700D01*
X94000000Y-92000000D02*
X94000000Y-93201700D01*
X126000000Y-142798300D02*
X126431500Y-142366800D01*
X126000000Y-92000000D02*
X126000000Y-93201700D01*
X94000000Y-144000000D02*
X94000000Y-142798300D01*
X62000000Y-118000000D02*
X62000000Y-116798300D01*
X62000000Y-144000000D02*
X62000000Y-142798300D01*
X62406200Y-90392100D02*
X62406200Y-67607900D01*
X126000000Y-90798300D02*
X126431500Y-90366800D01*
X62000000Y-66000000D02*
X62000000Y-64798300D01*
X126763700Y-35236300D02*
X130000000Y-32000000D01*
X58160000Y-43840000D02*
X58160000Y-45000000D01*
X94406200Y-142392100D02*
X94406200Y-119607900D01*
X62000000Y-64798300D02*
X62450200Y-64348100D01*
X62406200Y-116392100D02*
X62406200Y-93607900D01*
X62000000Y-66000000D02*
X62000000Y-67201700D01*
X62000000Y-144000000D02*
X62000000Y-145201700D01*
X94000000Y-118000000D02*
X94000000Y-119201700D01*
X30000000Y-66000000D02*
X30000000Y-67201700D01*
X62450200Y-64348100D02*
X62450200Y-44450200D01*
X126000000Y-144000000D02*
X126000000Y-142798300D01*
X62000000Y-92000000D02*
X62000000Y-93201700D01*
X126000000Y-118000000D02*
X126000000Y-116798300D01*
X126000000Y-66000000D02*
X126000000Y-64798300D01*
X62000000Y-90798300D02*
X62406200Y-90392100D01*
X62000000Y-142798300D02*
X62412400Y-142385900D01*
X30406200Y-116392100D02*
X30406200Y-93607900D01*
X60000000Y-35650000D02*
X60000000Y-42000000D01*
X126431500Y-90366800D02*
X126431500Y-67633200D01*
X30000000Y-92000000D02*
X30000000Y-93201700D01*
X126431500Y-67633200D02*
X126000000Y-67201700D01*
X39050000Y-172000000D02*
X39050000Y-154251700D01*
X126000000Y-92000000D02*
X126000000Y-90798300D01*
X30406200Y-142392100D02*
X30406200Y-119607900D01*
%TO.N,VIN_RAW*%
X87436100Y-169869100D02*
X103218900Y-154086300D01*
X103218900Y-45499200D02*
X118000000Y-30718100D01*
X103218900Y-154086300D02*
X103218900Y-45499200D01*
X118000000Y-30718100D02*
X118000000Y-18000000D01*
%TO.N,D21_SCL*%
X146848300Y-16231700D02*
X151080000Y-12000000D01*
X87310000Y-220000000D02*
X127241400Y-180068600D01*
X127241400Y-180068600D02*
X127241400Y-56318000D01*
X127241400Y-56318000D02*
X146848300Y-36711100D01*
X146848300Y-36711100D02*
X146848300Y-16231700D01*
%TO.N,D20_SDA*%
X84770000Y-218848300D02*
X104007900Y-199610400D01*
X104007900Y-199610400D02*
X104007900Y-54200600D01*
X152465200Y-10845200D02*
X153620000Y-12000000D01*
X149810000Y-12361900D02*
X149810000Y-11607400D01*
X134244000Y-27927900D02*
X149810000Y-12361900D01*
X149810000Y-11607400D02*
X150572200Y-10845200D01*
X84770000Y-220000000D02*
X84770000Y-218848300D01*
X150572200Y-10845200D02*
X152465200Y-10845200D01*
X130280600Y-27927900D02*
X134244000Y-27927900D01*
X104007900Y-54200600D02*
X130280600Y-27927900D01*
%TO.N,OPTO_ANODE*%
X24160000Y-40380000D02*
X28000000Y-36540000D01*
X24160000Y-45000000D02*
X24160000Y-40380000D01*
%TO.N,D0_RX*%
X65749900Y-218700100D02*
X65749900Y-120949600D01*
X72000000Y-114699500D02*
X72000000Y-42000000D01*
X65749900Y-120949600D02*
X72000000Y-114699500D01*
X64450000Y-220000000D02*
X65749900Y-218700100D01*
%TO.N,D1_TX*%
X64972900Y-221155000D02*
X86040000Y-200087900D01*
X86040000Y-200087900D02*
X86040000Y-61120000D01*
X86040000Y-61120000D02*
X108160000Y-39000000D01*
X63928800Y-221155000D02*
X64972900Y-221155000D01*
X63061700Y-220287900D02*
X63928800Y-221155000D01*
X63061700Y-220000000D02*
X63061700Y-220287900D01*
X61910000Y-220000000D02*
X63061700Y-220000000D01*
%TO.N,D7*%
X25333500Y-74833500D02*
X16500000Y-66000000D01*
X37780000Y-219432100D02*
X25333500Y-206985600D01*
X37780000Y-220000000D02*
X37780000Y-219432100D01*
X25333500Y-206985600D02*
X25333500Y-74833500D01*
%TO.N,D8*%
X37289400Y-221164900D02*
X36391700Y-220267200D01*
X36391700Y-220267200D02*
X36391700Y-218753100D01*
X36391700Y-218753100D02*
X21420600Y-203782000D01*
X21420600Y-92920600D02*
X16500000Y-88000000D01*
X21420600Y-203782000D02*
X21420600Y-92920600D01*
X40320000Y-220000000D02*
X39155100Y-221164900D01*
X39155100Y-221164900D02*
X37289400Y-221164900D01*
%TO.N,D6*%
X19699800Y-204459800D02*
X35240000Y-220000000D01*
X16500000Y-110000000D02*
X19699800Y-113199800D01*
X19699800Y-113199800D02*
X19699800Y-204459800D01*
%TO.N,D5*%
X18227800Y-133727800D02*
X16500000Y-132000000D01*
X32700000Y-220000000D02*
X18227800Y-205527800D01*
X18227800Y-205527800D02*
X18227800Y-133727800D01*
%TO.N,A0*%
X47683400Y-70347500D02*
X47683400Y-166781700D01*
X48030900Y-70000000D02*
X47683400Y-70347500D01*
X48030900Y-70000000D02*
X48030900Y-55870900D01*
X48030900Y-55870900D02*
X44000000Y-51840000D01*
X51750000Y-172000000D02*
X51750000Y-170848300D01*
X48030900Y-70000000D02*
X50000000Y-70000000D01*
X47683400Y-166781700D02*
X51750000Y-170848300D01*
%TO.N,A5*%
X66370000Y-146329500D02*
X74104100Y-138595400D01*
X66370000Y-169988000D02*
X66370000Y-146329500D01*
X74104100Y-138595400D02*
X74104100Y-76723800D01*
X80827900Y-70000000D02*
X82000000Y-70000000D01*
X80827900Y-56667900D02*
X80827900Y-70000000D01*
X76000000Y-51840000D02*
X80827900Y-56667900D01*
X74104100Y-76723800D02*
X80827900Y-70000000D01*
%TO.N,A8*%
X78077900Y-86828900D02*
X78077900Y-96652300D01*
X78077900Y-96652300D02*
X83137100Y-101711500D01*
X74610000Y-172000000D02*
X74610000Y-170848300D01*
X83137100Y-101711500D02*
X83137100Y-162321200D01*
X83137100Y-162321200D02*
X74610000Y-170848300D01*
%TO.N,A12*%
X136711800Y-79288200D02*
X136711800Y-161050300D01*
X138872500Y-62872500D02*
X138872500Y-52967500D01*
X138872500Y-52967500D02*
X140000000Y-51840000D01*
X146000000Y-70000000D02*
X136711800Y-79288200D01*
X146000000Y-70000000D02*
X138872500Y-62872500D01*
%TO.N,A1*%
X48085100Y-97914900D02*
X48085100Y-165795100D01*
X50000000Y-96000000D02*
X48085100Y-97914900D01*
X48085100Y-165795100D02*
X54290000Y-172000000D01*
%TO.N,A4*%
X57760500Y-143377100D02*
X57760500Y-96000000D01*
X61910000Y-147526600D02*
X57760500Y-143377100D01*
X79455700Y-81295700D02*
X79455700Y-93455700D01*
X76000000Y-77840000D02*
X79455700Y-81295700D01*
X79455700Y-93455700D02*
X82000000Y-96000000D01*
X61910000Y-172000000D02*
X61910000Y-147526600D01*
%TO.N,A9*%
X112500100Y-96000000D02*
X112500100Y-82340100D01*
X114000000Y-96000000D02*
X112500100Y-96000000D01*
X106050100Y-102450000D02*
X112500100Y-96000000D01*
X106050100Y-143099900D02*
X106050100Y-102450000D01*
X112500100Y-82340100D02*
X108000000Y-77840000D01*
%TO.N,A13*%
X144500100Y-94500100D02*
X144500100Y-82340100D01*
X144500100Y-82340100D02*
X140000000Y-77840000D01*
X146000000Y-96000000D02*
X144500100Y-94500100D01*
%TO.N,A2*%
X50000000Y-122000000D02*
X48486800Y-123513200D01*
X48486800Y-123513200D02*
X48486800Y-163656800D01*
X48486800Y-163656800D02*
X56830000Y-172000000D01*
%TO.N,A6*%
X66990000Y-146334200D02*
X82000000Y-131324200D01*
X82000000Y-122000000D02*
X79152600Y-119152600D01*
X66990000Y-172000000D02*
X66990000Y-146334200D01*
X79152600Y-106992600D02*
X76000000Y-103840000D01*
X82000000Y-131324200D02*
X82000000Y-122000000D01*
X79152600Y-119152600D02*
X79152600Y-106992600D01*
%TO.N,A10*%
X112500100Y-108340100D02*
X108000000Y-103840000D01*
X112500100Y-120500100D02*
X112500100Y-108340100D01*
X114000000Y-122000000D02*
X112500100Y-120500100D01*
%TO.N,A14*%
X144500100Y-120500100D02*
X144500100Y-108340100D01*
X146000000Y-122000000D02*
X144500100Y-120500100D01*
X144500100Y-108340100D02*
X140000000Y-103840000D01*
%TO.N,A3*%
X59370000Y-157370000D02*
X59370000Y-172000000D01*
X50000000Y-148000000D02*
X59370000Y-157370000D01*
%TO.N,A11*%
X112885300Y-146885300D02*
X112885300Y-134725300D01*
X114000000Y-148000000D02*
X112885300Y-146885300D01*
X112885300Y-134725300D02*
X108000000Y-129840000D01*
%TO.N,MUX_CH0*%
X146000000Y-148000000D02*
X144500100Y-146500100D01*
X144500100Y-134340100D02*
X140000000Y-129840000D01*
X144500100Y-146500100D02*
X144500100Y-134340100D01*
%TO.N,D12*%
X153132300Y-67132300D02*
X153132300Y-218848300D01*
X152000000Y-66000000D02*
X153132300Y-67132300D01*
%TO.N,D11*%
X58008500Y-211201500D02*
X58008500Y-158432400D01*
X49210000Y-220000000D02*
X58008500Y-211201500D01*
X48888500Y-149312400D02*
X48888500Y-135535700D01*
X48888500Y-135535700D02*
X49680800Y-134743400D01*
X58008500Y-158432400D02*
X48888500Y-149312400D01*
%TO.N,D10*%
X152000000Y-110000000D02*
X147897600Y-114102400D01*
X147897600Y-114102400D02*
X147897600Y-221166500D01*
%TD*%
M02*
