%TF.GenerationSoftware,KiCad,Pcbnew,10.0.3*%
%TF.CreationDate,2026-07-28T17:30:59+02:00*%
%TF.ProjectId,SysEx_Patcher,53797345-785f-4506-9174-636865722e6b,rev?*%
%TF.SameCoordinates,Original*%
%TF.FileFunction,Copper,L3,Inr*%
%TF.FilePolarity,Positive*%
%FSLAX46Y46*%
G04 Gerber Fmt 4.6, Leading zero omitted, Abs format (unit mm)*
G04 Created by KiCad (PCBNEW 10.0.3) date 2026-07-28 17:30:59*
%MOMM*%
%LPD*%
G01*
G04 APERTURE LIST*
G04 Aperture macros list*
%AMRoundRect*
0 Rectangle with rounded corners*
0 $1 Rounding radius*
0 $2 $3 $4 $5 $6 $7 $8 $9 X,Y pos of 4 corners*
0 Add a 4 corners polygon primitive as box body*
4,1,4,$2,$3,$4,$5,$6,$7,$8,$9,$2,$3,0*
0 Add four circle primitives for the rounded corners*
1,1,$1+$1,$2,$3*
1,1,$1+$1,$4,$5*
1,1,$1+$1,$6,$7*
1,1,$1+$1,$8,$9*
0 Add four rect primitives between the rounded corners*
20,1,$1+$1,$2,$3,$4,$5,0*
20,1,$1+$1,$4,$5,$6,$7,0*
20,1,$1+$1,$6,$7,$8,$9,0*
20,1,$1+$1,$8,$9,$2,$3,0*%
G04 Aperture macros list end*
%TA.AperFunction,ComponentPad*%
%ADD10C,1.600000*%
%TD*%
%TA.AperFunction,ComponentPad*%
%ADD11R,1.700000X1.700000*%
%TD*%
%TA.AperFunction,ComponentPad*%
%ADD12C,1.700000*%
%TD*%
%TA.AperFunction,ComponentPad*%
%ADD13R,1.800000X1.800000*%
%TD*%
%TA.AperFunction,ComponentPad*%
%ADD14C,1.800000*%
%TD*%
%TA.AperFunction,ComponentPad*%
%ADD15RoundRect,0.750000X-1.250000X-0.750000X1.250000X-0.750000X1.250000X0.750000X-1.250000X0.750000X0*%
%TD*%
%TA.AperFunction,ComponentPad*%
%ADD16RoundRect,0.250000X-0.550000X-0.550000X0.550000X-0.550000X0.550000X0.550000X-0.550000X0.550000X0*%
%TD*%
%TA.AperFunction,ComponentPad*%
%ADD17C,2.600000*%
%TD*%
%TA.AperFunction,ComponentPad*%
%ADD18C,2.400000*%
%TD*%
%TA.AperFunction,ComponentPad*%
%ADD19C,2.000000*%
%TD*%
%TA.AperFunction,ComponentPad*%
%ADD20R,3.500000X3.500000*%
%TD*%
%TA.AperFunction,ComponentPad*%
%ADD21RoundRect,0.750000X-0.750000X-1.000000X0.750000X-1.000000X0.750000X1.000000X-0.750000X1.000000X0*%
%TD*%
%TA.AperFunction,ComponentPad*%
%ADD22RoundRect,0.875000X-0.875000X-0.875000X0.875000X-0.875000X0.875000X0.875000X-0.875000X0.875000X0*%
%TD*%
%TA.AperFunction,ComponentPad*%
%ADD23RoundRect,0.249999X-0.850001X-0.850001X0.850001X-0.850001X0.850001X0.850001X-0.850001X0.850001X0*%
%TD*%
%TA.AperFunction,ComponentPad*%
%ADD24C,2.200000*%
%TD*%
%TA.AperFunction,ViaPad*%
%ADD25C,0.600000*%
%TD*%
%TA.AperFunction,Conductor*%
%ADD26C,0.200000*%
%TD*%
G04 APERTURE END LIST*
D10*
%TO.N,POT8_W*%
%TO.C,R17*%
X157000000Y-98000000D03*
%TO.N,A13*%
X167160000Y-98000000D03*
%TD*%
D11*
%TO.N,D7*%
%TO.C,JMD2*%
X80720000Y-86000000D03*
D12*
%TO.N,D6*%
X78180000Y-86000000D03*
%TO.N,D5*%
X75640000Y-86000000D03*
%TO.N,D4*%
X73100000Y-86000000D03*
%TO.N,D3*%
X70560000Y-86000000D03*
%TO.N,D2*%
X68020000Y-86000000D03*
%TO.N,D1_TX*%
X65480000Y-86000000D03*
%TO.N,D0_RX*%
X62940000Y-86000000D03*
%TD*%
D10*
%TO.N,MIDI_OUT_4*%
%TO.C,R2*%
X92000000Y-60000000D03*
%TO.N,+5V*%
X102160000Y-60000000D03*
%TD*%
D13*
%TO.N,+5V*%
%TO.C,RV4*%
X146000000Y-80000000D03*
D14*
%TO.N,POT4_W*%
X148500000Y-80000000D03*
%TO.N,GND*%
X151000000Y-80000000D03*
D15*
%TO.N,N/C*%
X144100000Y-73000000D03*
X152900000Y-73000000D03*
%TD*%
D10*
%TO.N,A11*%
%TO.C,C16*%
X125000000Y-151000000D03*
%TO.N,GND*%
X130000000Y-151000000D03*
%TD*%
%TO.N,POT3_W*%
%TO.C,R12*%
X125000000Y-74000000D03*
%TO.N,A8*%
X135160000Y-74000000D03*
%TD*%
D16*
%TO.N,OPTO_ANODE*%
%TO.C,D1*%
X34000000Y-59000000D03*
D10*
%TO.N,OPTO_CATHODE*%
X41620000Y-59000000D03*
%TD*%
D13*
%TO.N,GND*%
%TO.C,D9*%
X35000000Y-160000000D03*
D14*
%TO.N,LED7_A*%
X37540000Y-160000000D03*
%TD*%
D10*
%TO.N,+5V*%
%TO.C,C1*%
X80000000Y-62000000D03*
%TO.N,GND*%
X85000000Y-62000000D03*
%TD*%
%TO.N,POT9_W*%
%TO.C,R18*%
X61000000Y-122000000D03*
%TO.N,A2*%
X71160000Y-122000000D03*
%TD*%
D16*
%TO.N,A15*%
%TO.C,U2*%
X50000000Y-180000000D03*
D10*
%TO.N,MUX_CH7*%
X52540000Y-180000000D03*
%TO.N,MUX_CH6*%
X55080000Y-180000000D03*
%TO.N,MUX_CH5*%
X57620000Y-180000000D03*
%TO.N,MUX_CH4*%
X60160000Y-180000000D03*
%TO.N,MUX_CH3*%
X62700000Y-180000000D03*
%TO.N,MUX_CH2*%
X65240000Y-180000000D03*
%TO.N,MUX_CH1*%
X67780000Y-180000000D03*
%TO.N,MUX_CH0*%
X70320000Y-180000000D03*
%TO.N,D2*%
X72860000Y-180000000D03*
%TO.N,D3*%
X75400000Y-180000000D03*
%TO.N,GND*%
X77940000Y-180000000D03*
%TO.N,D13*%
X77940000Y-164760000D03*
%TO.N,D4*%
X75400000Y-164760000D03*
%TO.N,GND*%
X72860000Y-164760000D03*
%TO.N,MUX_CH15*%
X70320000Y-164760000D03*
%TO.N,MUX_CH14*%
X67780000Y-164760000D03*
%TO.N,MUX_CH13*%
X65240000Y-164760000D03*
%TO.N,MUX_CH12*%
X62700000Y-164760000D03*
%TO.N,MUX_CH11*%
X60160000Y-164760000D03*
%TO.N,MUX_CH10*%
X57620000Y-164760000D03*
%TO.N,MUX_CH9*%
X55080000Y-164760000D03*
%TO.N,MUX_CH8*%
X52540000Y-164760000D03*
%TO.N,+5V*%
X50000000Y-164760000D03*
%TD*%
D13*
%TO.N,+5V*%
%TO.C,RV1*%
X50000000Y-80000000D03*
D14*
%TO.N,POT1_W*%
X52500000Y-80000000D03*
%TO.N,GND*%
X55000000Y-80000000D03*
D15*
%TO.N,N/C*%
X48100000Y-73000000D03*
X56900000Y-73000000D03*
%TD*%
D10*
%TO.N,D17*%
%TO.C,R29*%
X43000000Y-100000000D03*
%TO.N,LED6_A*%
X43000000Y-89840000D03*
%TD*%
D17*
%TO.N,*%
%TO.C,J1*%
X45000000Y-21800000D03*
X55000000Y-21800000D03*
D18*
%TO.N,N/C*%
X42700000Y-31500000D03*
%TO.N,GND*%
X50000000Y-31500000D03*
%TO.N,N/C*%
X57300000Y-31500000D03*
%TO.N,MIDI_IN_4*%
X55000000Y-34000000D03*
%TO.N,OPTO_CATHODE*%
X45000000Y-34000000D03*
%TD*%
D19*
%TO.N,D5*%
%TO.C,SW5*%
X168000000Y-156000000D03*
X174500000Y-156000000D03*
%TO.N,GND*%
X168000000Y-160500000D03*
X174500000Y-160500000D03*
%TD*%
D11*
%TO.N,D14*%
%TO.C,JMD3*%
X103580000Y-86000000D03*
D12*
%TO.N,D15*%
X101040000Y-86000000D03*
%TO.N,D16*%
X98500000Y-86000000D03*
%TO.N,D17*%
X95960000Y-86000000D03*
%TO.N,D18*%
X93420000Y-86000000D03*
%TO.N,D19*%
X90880000Y-86000000D03*
%TO.N,D20_SDA*%
X88340000Y-86000000D03*
%TO.N,D21_SCL*%
X85800000Y-86000000D03*
%TD*%
D13*
%TO.N,GND*%
%TO.C,D5*%
X178000000Y-132000000D03*
D14*
%TO.N,LED3_A*%
X180540000Y-132000000D03*
%TD*%
D19*
%TO.N,D18*%
%TO.C,SW8*%
X26000000Y-160000000D03*
X32500000Y-160000000D03*
%TO.N,GND*%
X26000000Y-164500000D03*
X32500000Y-164500000D03*
%TD*%
%TO.N,D7*%
%TO.C,SW2*%
X168000000Y-84000000D03*
X174500000Y-84000000D03*
%TO.N,GND*%
X168000000Y-88500000D03*
X174500000Y-88500000D03*
%TD*%
D16*
%TO.N,N/C*%
%TO.C,U1*%
X48000000Y-54000000D03*
D10*
%TO.N,OPTO_ANODE*%
X48000000Y-56540000D03*
%TO.N,OPTO_CATHODE*%
X48000000Y-59080000D03*
%TO.N,N/C*%
X48000000Y-61620000D03*
%TO.N,GND*%
X55620000Y-61620000D03*
%TO.N,D0_RX*%
X55620000Y-59080000D03*
%TO.N,OPTO_VB*%
X55620000Y-56540000D03*
%TO.N,+5V*%
X55620000Y-54000000D03*
%TD*%
%TO.N,A5*%
%TO.C,C3*%
X93000000Y-79000000D03*
%TO.N,GND*%
X98000000Y-79000000D03*
%TD*%
%TO.N,A8*%
%TO.C,C4*%
X125000000Y-79000000D03*
%TO.N,GND*%
X130000000Y-79000000D03*
%TD*%
D13*
%TO.N,+5V*%
%TO.C,RV5*%
X50000000Y-104000000D03*
D14*
%TO.N,POT5_W*%
X52500000Y-104000000D03*
%TO.N,GND*%
X55000000Y-104000000D03*
D15*
%TO.N,N/C*%
X48100000Y-97000000D03*
X56900000Y-97000000D03*
%TD*%
D10*
%TO.N,POT2_W*%
%TO.C,R11*%
X93000000Y-74000000D03*
%TO.N,A5*%
X103160000Y-74000000D03*
%TD*%
D13*
%TO.N,GND*%
%TO.C,D7*%
X178000000Y-60000000D03*
D14*
%TO.N,LED5_A*%
X180540000Y-60000000D03*
%TD*%
D11*
%TO.N,GND*%
%TO.C,J5*%
X166000000Y-32000000D03*
D12*
%TO.N,+5V*%
X168540000Y-32000000D03*
%TO.N,D21_SCL*%
X171080000Y-32000000D03*
%TO.N,D20_SDA*%
X173620000Y-32000000D03*
%TD*%
D11*
%TO.N,A8*%
%TO.C,JMA2*%
X108660000Y-134260000D03*
D12*
%TO.N,A9*%
X106120000Y-134260000D03*
%TO.N,A10*%
X103580000Y-134260000D03*
%TO.N,A11*%
X101040000Y-134260000D03*
%TO.N,A12*%
X98500000Y-134260000D03*
%TO.N,A13*%
X95960000Y-134260000D03*
%TO.N,A14*%
X93420000Y-134260000D03*
%TO.N,A15*%
X90880000Y-134260000D03*
%TD*%
D20*
%TO.N,VIN_RAW*%
%TO.C,J3*%
X138000000Y-28500000D03*
D21*
%TO.N,GND*%
X138000000Y-22500000D03*
D22*
%TO.N,N/C*%
X133300000Y-25500000D03*
%TD*%
D17*
%TO.N,*%
%TO.C,J2*%
X82000000Y-21800000D03*
X92000000Y-21800000D03*
D18*
%TO.N,N/C*%
X79700000Y-31500000D03*
%TO.N,GND*%
X87000000Y-31500000D03*
%TO.N,N/C*%
X94300000Y-31500000D03*
%TO.N,MIDI_OUT_4*%
X92000000Y-34000000D03*
%TO.N,MIDI_OUT_5*%
X82000000Y-34000000D03*
%TD*%
D13*
%TO.N,+5V*%
%TO.C,RV8*%
X146000000Y-104000000D03*
D14*
%TO.N,POT8_W*%
X148500000Y-104000000D03*
%TO.N,GND*%
X151000000Y-104000000D03*
D15*
%TO.N,N/C*%
X144100000Y-97000000D03*
X152900000Y-97000000D03*
%TD*%
D10*
%TO.N,A1*%
%TO.C,C6*%
X61000000Y-103000000D03*
%TO.N,GND*%
X66000000Y-103000000D03*
%TD*%
D13*
%TO.N,GND*%
%TO.C,J10*%
X114000000Y-36000000D03*
D14*
%TO.N,+5V*%
X112730000Y-33460000D03*
%TO.N,JACK_W*%
X110190000Y-33460000D03*
%TO.N,SW_BEND*%
X108920000Y-36000000D03*
%TO.N,N/C*%
X111460000Y-36000000D03*
%TD*%
D10*
%TO.N,A6*%
%TO.C,C11*%
X93000000Y-127000000D03*
%TO.N,GND*%
X98000000Y-127000000D03*
%TD*%
%TO.N,D15*%
%TO.C,R28*%
X186000000Y-60000000D03*
%TO.N,LED5_A*%
X186000000Y-49840000D03*
%TD*%
D13*
%TO.N,+5V*%
%TO.C,RV11*%
X114000000Y-128000000D03*
D14*
%TO.N,POT11_W*%
X116500000Y-128000000D03*
%TO.N,GND*%
X119000000Y-128000000D03*
D15*
%TO.N,N/C*%
X112100000Y-121000000D03*
X120900000Y-121000000D03*
%TD*%
D11*
%TO.N,N/C*%
%TO.C,JMP1*%
X62940000Y-134260000D03*
D12*
X60400000Y-134260000D03*
X57860000Y-134260000D03*
X55320000Y-134260000D03*
%TO.N,+5V*%
X52780000Y-134260000D03*
%TO.N,GND*%
X50240000Y-134260000D03*
X47700000Y-134260000D03*
%TO.N,VIN_RAW*%
X45160000Y-134260000D03*
%TD*%
D10*
%TO.N,D19*%
%TO.C,R30*%
X43000000Y-160000000D03*
%TO.N,LED7_A*%
X43000000Y-149840000D03*
%TD*%
D11*
%TO.N,A0*%
%TO.C,JMA1*%
X85800000Y-134260000D03*
D12*
%TO.N,A1*%
X83260000Y-134260000D03*
%TO.N,A2*%
X80720000Y-134260000D03*
%TO.N,A3*%
X78180000Y-134260000D03*
%TO.N,A4*%
X75640000Y-134260000D03*
%TO.N,A5*%
X73100000Y-134260000D03*
%TO.N,A6*%
X70560000Y-134260000D03*
%TO.N,A7*%
X68020000Y-134260000D03*
%TD*%
D10*
%TO.N,D12*%
%TO.C,R6*%
X186000000Y-84000000D03*
%TO.N,LED1_A*%
X186000000Y-73840000D03*
%TD*%
%TO.N,POT14_W*%
%TO.C,R23*%
X93000000Y-146000000D03*
%TO.N,A7*%
X103160000Y-146000000D03*
%TD*%
%TO.N,POT16_W*%
%TO.C,R25*%
X157000000Y-146000000D03*
%TO.N,MUX_CH0*%
X167160000Y-146000000D03*
%TD*%
D13*
%TO.N,+5V*%
%TO.C,RV2*%
X82000000Y-80000000D03*
D14*
%TO.N,POT2_W*%
X84500000Y-80000000D03*
%TO.N,GND*%
X87000000Y-80000000D03*
D15*
%TO.N,N/C*%
X80100000Y-73000000D03*
X88900000Y-73000000D03*
%TD*%
D13*
%TO.N,+5V*%
%TO.C,RV10*%
X82000000Y-128000000D03*
D14*
%TO.N,POT10_W*%
X84500000Y-128000000D03*
%TO.N,GND*%
X87000000Y-128000000D03*
D15*
%TO.N,N/C*%
X80100000Y-121000000D03*
X88900000Y-121000000D03*
%TD*%
D10*
%TO.N,MIDI_IN_4*%
%TO.C,R1*%
X34000000Y-65000000D03*
%TO.N,OPTO_ANODE*%
X44160000Y-65000000D03*
%TD*%
%TO.N,D10*%
%TO.C,R8*%
X186000000Y-132000000D03*
%TO.N,LED3_A*%
X186000000Y-121840000D03*
%TD*%
%TO.N,A4*%
%TO.C,C7*%
X93000000Y-103000000D03*
%TO.N,GND*%
X98000000Y-103000000D03*
%TD*%
D13*
%TO.N,+5V*%
%TO.C,RV6*%
X82000000Y-104000000D03*
D14*
%TO.N,POT6_W*%
X84500000Y-104000000D03*
%TO.N,GND*%
X87000000Y-104000000D03*
D15*
%TO.N,N/C*%
X80100000Y-97000000D03*
X88900000Y-97000000D03*
%TD*%
D23*
%TO.N,+5V*%
%TO.C,D2D*%
X150000000Y-52000000D03*
D24*
%TO.N,VIN_RAW*%
X160160000Y-52000000D03*
%TD*%
D13*
%TO.N,GND*%
%TO.C,D8*%
X35000000Y-100000000D03*
D14*
%TO.N,LED6_A*%
X37540000Y-100000000D03*
%TD*%
D13*
%TO.N,+5V*%
%TO.C,RV15*%
X114000000Y-152000000D03*
D14*
%TO.N,POT15_W*%
X116500000Y-152000000D03*
%TO.N,GND*%
X119000000Y-152000000D03*
D15*
%TO.N,N/C*%
X112100000Y-145000000D03*
X120900000Y-145000000D03*
%TD*%
D13*
%TO.N,+5V*%
%TO.C,RV7*%
X114000000Y-104000000D03*
D14*
%TO.N,POT7_W*%
X116500000Y-104000000D03*
%TO.N,GND*%
X119000000Y-104000000D03*
D15*
%TO.N,N/C*%
X112100000Y-97000000D03*
X120900000Y-97000000D03*
%TD*%
D10*
%TO.N,A0*%
%TO.C,C2*%
X61000000Y-79000000D03*
%TO.N,GND*%
X66000000Y-79000000D03*
%TD*%
D13*
%TO.N,+5V*%
%TO.C,RV12*%
X146000000Y-128000000D03*
D14*
%TO.N,POT12_W*%
X148500000Y-128000000D03*
%TO.N,GND*%
X151000000Y-128000000D03*
D15*
%TO.N,N/C*%
X144100000Y-121000000D03*
X152900000Y-121000000D03*
%TD*%
D13*
%TO.N,GND*%
%TO.C,D6*%
X178000000Y-156000000D03*
D14*
%TO.N,LED4_A*%
X180540000Y-156000000D03*
%TD*%
D10*
%TO.N,POT1_W*%
%TO.C,R10*%
X61000000Y-74000000D03*
%TO.N,A0*%
X71160000Y-74000000D03*
%TD*%
D13*
%TO.N,GND*%
%TO.C,D3*%
X178000000Y-84000000D03*
D14*
%TO.N,LED1_A*%
X180540000Y-84000000D03*
%TD*%
D19*
%TO.N,D14*%
%TO.C,SW6*%
X168000000Y-60000000D03*
X174500000Y-60000000D03*
%TO.N,GND*%
X168000000Y-64500000D03*
X174500000Y-64500000D03*
%TD*%
D13*
%TO.N,+5V*%
%TO.C,RV14*%
X82000000Y-152000000D03*
D14*
%TO.N,POT14_W*%
X84500000Y-152000000D03*
%TO.N,GND*%
X87000000Y-152000000D03*
D15*
%TO.N,N/C*%
X80100000Y-145000000D03*
X88900000Y-145000000D03*
%TD*%
D10*
%TO.N,MUX_CH2*%
%TO.C,R31*%
X108000000Y-182000000D03*
%TO.N,GND*%
X118160000Y-182000000D03*
%TD*%
%TO.N,MIDI_OUT_5*%
%TO.C,R3*%
X92000000Y-66000000D03*
%TO.N,D1_TX*%
X102160000Y-66000000D03*
%TD*%
%TO.N,D11*%
%TO.C,R7*%
X186000000Y-108000000D03*
%TO.N,LED2_A*%
X186000000Y-97840000D03*
%TD*%
D11*
%TO.N,GND*%
%TO.C,J4*%
X136000000Y-60000000D03*
D12*
%TO.N,+5V*%
X138540000Y-60000000D03*
%TO.N,GND*%
X141080000Y-60000000D03*
%TO.N,VIN_RAW*%
X143620000Y-60000000D03*
%TD*%
D10*
%TO.N,A3*%
%TO.C,C14*%
X61000000Y-151000000D03*
%TO.N,GND*%
X66000000Y-151000000D03*
%TD*%
%TO.N,A13*%
%TO.C,C9*%
X157000000Y-103000000D03*
%TO.N,GND*%
X162000000Y-103000000D03*
%TD*%
%TO.N,POT4_W*%
%TO.C,R13*%
X157000000Y-74000000D03*
%TO.N,A12*%
X167160000Y-74000000D03*
%TD*%
%TO.N,POT11_W*%
%TO.C,R20*%
X125000000Y-119000000D03*
%TO.N,A10*%
X125000000Y-108840000D03*
%TD*%
D13*
%TO.N,+5V*%
%TO.C,RV3*%
X114000000Y-80000000D03*
D14*
%TO.N,POT3_W*%
X116500000Y-80000000D03*
%TO.N,GND*%
X119000000Y-80000000D03*
D15*
%TO.N,N/C*%
X112100000Y-73000000D03*
X120900000Y-73000000D03*
%TD*%
D10*
%TO.N,A7*%
%TO.C,C15*%
X93000000Y-151000000D03*
%TO.N,GND*%
X98000000Y-151000000D03*
%TD*%
%TO.N,A9*%
%TO.C,C8*%
X138000000Y-104000000D03*
%TO.N,GND*%
X138000000Y-99000000D03*
%TD*%
%TO.N,POT13_W*%
%TO.C,R22*%
X61000000Y-146000000D03*
%TO.N,A3*%
X71160000Y-146000000D03*
%TD*%
D13*
%TO.N,GND*%
%TO.C,D4*%
X178000000Y-108000000D03*
D14*
%TO.N,LED2_A*%
X180540000Y-108000000D03*
%TD*%
D13*
%TO.N,+5V*%
%TO.C,RV13*%
X50000000Y-152000000D03*
D14*
%TO.N,POT13_W*%
X52500000Y-152000000D03*
%TO.N,GND*%
X55000000Y-152000000D03*
D15*
%TO.N,N/C*%
X48100000Y-145000000D03*
X56900000Y-145000000D03*
%TD*%
D10*
%TO.N,POT15_W*%
%TO.C,R24*%
X125000000Y-146000000D03*
%TO.N,A11*%
X135160000Y-146000000D03*
%TD*%
D13*
%TO.N,+5V*%
%TO.C,RV9*%
X50000000Y-128000000D03*
D14*
%TO.N,POT9_W*%
X52500000Y-128000000D03*
%TO.N,GND*%
X55000000Y-128000000D03*
D15*
%TO.N,N/C*%
X48100000Y-121000000D03*
X56900000Y-121000000D03*
%TD*%
D10*
%TO.N,A14*%
%TO.C,C13*%
X157000000Y-127000000D03*
%TO.N,GND*%
X162000000Y-127000000D03*
%TD*%
%TO.N,A2*%
%TO.C,C10*%
X61000000Y-127000000D03*
%TO.N,GND*%
X66000000Y-127000000D03*
%TD*%
D19*
%TO.N,D6*%
%TO.C,SW4*%
X168000000Y-132000000D03*
X174500000Y-132000000D03*
%TO.N,GND*%
X168000000Y-136500000D03*
X174500000Y-136500000D03*
%TD*%
D11*
%TO.N,D21_SCL*%
%TO.C,JMD1*%
X58876000Y-86000000D03*
D12*
%TO.N,D20_SDA*%
X56336000Y-86000000D03*
%TO.N,AREF*%
X53796000Y-86000000D03*
%TO.N,GND*%
X51256000Y-86000000D03*
%TO.N,D13*%
X48716000Y-86000000D03*
%TO.N,D12*%
X46176000Y-86000000D03*
%TO.N,D11*%
X43636000Y-86000000D03*
%TO.N,D10*%
X41096000Y-86000000D03*
%TO.N,D9*%
X38556000Y-86000000D03*
%TO.N,D8*%
X36016000Y-86000000D03*
%TD*%
D10*
%TO.N,OPTO_VB*%
%TO.C,R4*%
X68000000Y-59000000D03*
%TO.N,GND*%
X78160000Y-59000000D03*
%TD*%
D16*
%TO.N,+5V*%
%TO.C,C19*%
X162000000Y-64000000D03*
D10*
%TO.N,GND*%
X164500000Y-64000000D03*
%TD*%
D19*
%TO.N,D16*%
%TO.C,SW7*%
X26000000Y-100000000D03*
X32500000Y-100000000D03*
%TO.N,GND*%
X26000000Y-104500000D03*
X32500000Y-104500000D03*
%TD*%
D10*
%TO.N,MUX_CH1*%
%TO.C,C18*%
X136000000Y-172000000D03*
%TO.N,GND*%
X141000000Y-172000000D03*
%TD*%
D13*
%TO.N,+5V*%
%TO.C,RV16*%
X146000000Y-152000000D03*
D14*
%TO.N,POT16_W*%
X148500000Y-152000000D03*
%TO.N,GND*%
X151000000Y-152000000D03*
D15*
%TO.N,N/C*%
X144100000Y-145000000D03*
X152900000Y-145000000D03*
%TD*%
D10*
%TO.N,POT6_W*%
%TO.C,R15*%
X93000000Y-98000000D03*
%TO.N,A4*%
X103160000Y-98000000D03*
%TD*%
%TO.N,D9*%
%TO.C,R9*%
X186000000Y-156000000D03*
%TO.N,LED4_A*%
X186000000Y-145840000D03*
%TD*%
D19*
%TO.N,D8*%
%TO.C,SW3*%
X168000000Y-108000000D03*
X174500000Y-108000000D03*
%TO.N,GND*%
X168000000Y-112500000D03*
X174500000Y-112500000D03*
%TD*%
D10*
%TO.N,A10*%
%TO.C,C12*%
X138000000Y-128000000D03*
%TO.N,GND*%
X138000000Y-123000000D03*
%TD*%
%TO.N,POT5_W*%
%TO.C,R14*%
X61000000Y-98000000D03*
%TO.N,A1*%
X71160000Y-98000000D03*
%TD*%
%TO.N,JACK_W*%
%TO.C,R27*%
X112000000Y-172000000D03*
%TO.N,MUX_CH1*%
X122160000Y-172000000D03*
%TD*%
%TO.N,MUX_CH2*%
%TO.C,C20*%
X99000000Y-182000000D03*
%TO.N,GND*%
X104000000Y-182000000D03*
%TD*%
%TO.N,D0_RX*%
%TO.C,R5*%
X68000000Y-65000000D03*
%TO.N,+5V*%
X78160000Y-65000000D03*
%TD*%
%TO.N,POT7_W*%
%TO.C,R16*%
X125000000Y-95000000D03*
%TO.N,A9*%
X125000000Y-84840000D03*
%TD*%
%TO.N,POT10_W*%
%TO.C,R19*%
X93000000Y-122000000D03*
%TO.N,A6*%
X103160000Y-122000000D03*
%TD*%
%TO.N,MUX_CH0*%
%TO.C,C17*%
X157000000Y-151000000D03*
%TO.N,GND*%
X162000000Y-151000000D03*
%TD*%
%TO.N,POT12_W*%
%TO.C,R21*%
X157000000Y-122000000D03*
%TO.N,A14*%
X167160000Y-122000000D03*
%TD*%
%TO.N,A12*%
%TO.C,C5*%
X157000000Y-79000000D03*
%TO.N,GND*%
X162000000Y-79000000D03*
%TD*%
%TO.N,SW_BEND*%
%TO.C,R32*%
X86000000Y-182000000D03*
%TO.N,MUX_CH2*%
X96160000Y-182000000D03*
%TD*%
D25*
%TO.N,A13*%
X147250000Y-133108300D03*
%TO.N,D7*%
X84474600Y-87893800D03*
%TO.N,D6*%
X80764500Y-93598100D03*
%TO.N,D5*%
X155395000Y-105533900D03*
X77712300Y-91999700D03*
%TO.N,D17*%
X92772000Y-91398000D03*
%TO.N,D16*%
X95609500Y-90796200D03*
%TO.N,D18*%
X91766400Y-118686000D03*
%TO.N,D19*%
X49153100Y-87585000D03*
%TO.N,A5*%
X83298300Y-132337900D03*
%TO.N,A12*%
X113393100Y-86244300D03*
%TO.N,VIN_RAW*%
X139581300Y-131624200D03*
%TO.N,A1*%
X70058300Y-132228600D03*
%TO.N,A4*%
X84515500Y-132253400D03*
%TO.N,D9*%
X44847700Y-88502800D03*
X169789300Y-90257900D03*
%TD*%
%TO.N,A13*%
D26*
X95960000Y-134260000D02*
X97111700Y-133108300D01*
X162000000Y-98000000D02*
X167160000Y-98000000D01*
X157000000Y-103000000D02*
X162000000Y-98000000D01*
X97111700Y-133108300D02*
X147250000Y-133108300D01*
%TO.N,D7*%
X174500000Y-84000000D02*
X168000000Y-84000000D01*
X84583400Y-88002600D02*
X84474600Y-87893800D01*
X168000000Y-84000000D02*
X166058300Y-85941700D01*
X118418200Y-85941700D02*
X116714800Y-87645100D01*
X166058300Y-85941700D02*
X118418200Y-85941700D01*
X90463200Y-87645100D02*
X90105700Y-88002600D01*
X116714800Y-87645100D02*
X90463200Y-87645100D01*
X90105700Y-88002600D02*
X84583400Y-88002600D01*
%TO.N,D6*%
X123513900Y-116043900D02*
X101068100Y-93598100D01*
X174500000Y-132000000D02*
X168000000Y-132000000D01*
X162818000Y-116043900D02*
X123513900Y-116043900D01*
X168000000Y-132000000D02*
X168307900Y-131692100D01*
X168307900Y-121533800D02*
X162818000Y-116043900D01*
X101068100Y-93598100D02*
X80764500Y-93598100D01*
X168307900Y-131692100D02*
X168307900Y-121533800D01*
%TO.N,D5*%
X111073400Y-101088600D02*
X101984500Y-91999700D01*
X150949700Y-101088600D02*
X111073400Y-101088600D01*
X174500000Y-156000000D02*
X168000000Y-156000000D01*
X155395000Y-105533900D02*
X150949700Y-101088600D01*
X101984500Y-91999700D02*
X77712300Y-91999700D01*
%TO.N,D1_TX*%
X99360200Y-66000000D02*
X102160000Y-66000000D01*
X90187700Y-75256500D02*
X91558600Y-73885600D01*
X91558600Y-73885600D02*
X91558600Y-73801600D01*
X65480000Y-86000000D02*
X76223500Y-75256500D01*
X91558600Y-73801600D02*
X99360200Y-66000000D01*
X76223500Y-75256500D02*
X90187700Y-75256500D01*
%TO.N,D0_RX*%
X55620000Y-59080000D02*
X62080000Y-59080000D01*
X62080000Y-59080000D02*
X68000000Y-65000000D01*
%TO.N,+5V*%
X115201700Y-103549300D02*
X115201700Y-104000000D01*
X83952700Y-153201700D02*
X83201700Y-152450700D01*
X90986300Y-60886100D02*
X91250500Y-61150300D01*
X114000000Y-128000000D02*
X112798300Y-128000000D01*
X115952700Y-102798300D02*
X115201700Y-103549300D01*
X111596600Y-129201700D02*
X83952700Y-129201700D01*
X150000000Y-52000000D02*
X146540000Y-52000000D01*
X114000000Y-104000000D02*
X115201700Y-104000000D01*
X144798300Y-104000000D02*
X143596600Y-102798300D01*
X115201700Y-128000000D02*
X115201700Y-128410200D01*
X111596600Y-153201700D02*
X83952700Y-153201700D01*
X112798300Y-152000000D02*
X111596600Y-153201700D01*
X146000000Y-128000000D02*
X144798300Y-128000000D01*
X143596600Y-129201700D02*
X144798300Y-128000000D01*
X83952700Y-129201700D02*
X83201700Y-128450700D01*
X82000000Y-128000000D02*
X83201700Y-128000000D01*
X55620000Y-54000000D02*
X64599300Y-54000000D01*
X101009700Y-61150300D02*
X102160000Y-60000000D01*
X112798300Y-128000000D02*
X111596600Y-129201700D01*
X64599300Y-54000000D02*
X72599300Y-62000000D01*
X82000000Y-152000000D02*
X83201700Y-152000000D01*
X83201700Y-152450700D02*
X83201700Y-152000000D01*
X143596600Y-102798300D02*
X115952700Y-102798300D01*
X91250500Y-61150300D02*
X101009700Y-61150300D01*
X114000000Y-152000000D02*
X112798300Y-152000000D01*
X115993200Y-129201700D02*
X143596600Y-129201700D01*
X146540000Y-52000000D02*
X138540000Y-60000000D01*
X146000000Y-104000000D02*
X144798300Y-104000000D01*
X114000000Y-128000000D02*
X115201700Y-128000000D01*
X115201700Y-128410200D02*
X115993200Y-129201700D01*
X83201700Y-128450700D02*
X83201700Y-128000000D01*
X80000000Y-62000000D02*
X81113900Y-60886100D01*
X81113900Y-60886100D02*
X90986300Y-60886100D01*
X72599300Y-62000000D02*
X80000000Y-62000000D01*
%TO.N,POT4_W*%
X155349200Y-75650800D02*
X157000000Y-74000000D01*
X152849200Y-75650800D02*
X155349200Y-75650800D01*
X148500000Y-80000000D02*
X152849200Y-75650800D01*
%TO.N,A11*%
X128281300Y-147718700D02*
X130000000Y-146000000D01*
X130000000Y-146000000D02*
X135160000Y-146000000D01*
X101040000Y-134260000D02*
X108801700Y-142021700D01*
X122584200Y-142021700D02*
X128281300Y-147718700D01*
X125000000Y-151000000D02*
X128281300Y-147718700D01*
X108801700Y-142021700D02*
X122584200Y-142021700D01*
%TO.N,POT3_W*%
X123865500Y-75134500D02*
X125000000Y-74000000D01*
X116500000Y-80000000D02*
X121365500Y-75134500D01*
X121365500Y-75134500D02*
X123865500Y-75134500D01*
%TO.N,OPTO_ANODE*%
X36460000Y-56540000D02*
X48000000Y-56540000D01*
X34000000Y-59000000D02*
X36460000Y-56540000D01*
%TO.N,OPTO_CATHODE*%
X41700000Y-59080000D02*
X41620000Y-59000000D01*
X48000000Y-59080000D02*
X41700000Y-59080000D01*
%TO.N,POT9_W*%
X59349200Y-123650800D02*
X61000000Y-122000000D01*
X52500000Y-128000000D02*
X56849200Y-123650800D01*
X56849200Y-123650800D02*
X59349200Y-123650800D01*
%TO.N,A2*%
X66000000Y-122000000D02*
X71160000Y-122000000D01*
X61000000Y-127000000D02*
X66000000Y-122000000D01*
%TO.N,MUX_CH2*%
X65240000Y-180000000D02*
X66804300Y-181564300D01*
X95026300Y-180866300D02*
X96160000Y-182000000D01*
X83397500Y-181564300D02*
X84095500Y-180866300D01*
X84095500Y-180866300D02*
X95026300Y-180866300D01*
X99000000Y-182000000D02*
X100165000Y-180835000D01*
X100165000Y-180835000D02*
X106835000Y-180835000D01*
X99000000Y-182000000D02*
X96160000Y-182000000D01*
X106835000Y-180835000D02*
X108000000Y-182000000D01*
X66804300Y-181564300D02*
X83397500Y-181564300D01*
%TO.N,MUX_CH1*%
X122160000Y-172000000D02*
X120424300Y-173735700D01*
X68932800Y-181152800D02*
X67780000Y-180000000D01*
X120424300Y-173735700D02*
X86204300Y-173735700D01*
X86204300Y-173735700D02*
X78787200Y-181152800D01*
X78787200Y-181152800D02*
X68932800Y-181152800D01*
X136000000Y-172000000D02*
X122160000Y-172000000D01*
%TO.N,MUX_CH0*%
X162000000Y-146000000D02*
X167160000Y-146000000D01*
X70320000Y-180000000D02*
X96212900Y-154107100D01*
X96212900Y-154107100D02*
X153892900Y-154107100D01*
X153892900Y-154107100D02*
X157000000Y-151000000D01*
X157000000Y-151000000D02*
X162000000Y-146000000D01*
%TO.N,POT1_W*%
X56849200Y-75650800D02*
X59349200Y-75650800D01*
X59349200Y-75650800D02*
X61000000Y-74000000D01*
X52500000Y-80000000D02*
X56849200Y-75650800D01*
%TO.N,D17*%
X92723800Y-91446200D02*
X92772000Y-91398000D01*
X43000000Y-100000000D02*
X62119600Y-100000000D01*
X77123600Y-91200300D02*
X88695700Y-91200300D01*
X88695700Y-91200300D02*
X88941600Y-91446200D01*
X70546600Y-91573000D02*
X76750900Y-91573000D01*
X76750900Y-91573000D02*
X77123600Y-91200300D01*
X62119600Y-100000000D02*
X70546600Y-91573000D01*
X88941600Y-91446200D02*
X92723800Y-91446200D01*
%TO.N,D14*%
X117750000Y-80467500D02*
X112217500Y-86000000D01*
X168000000Y-60000000D02*
X161299000Y-60000000D01*
X120902400Y-76373000D02*
X117750000Y-79525400D01*
X117750000Y-79525400D02*
X117750000Y-80467500D01*
X174500000Y-60000000D02*
X168000000Y-60000000D01*
X144926000Y-76373000D02*
X120902400Y-76373000D01*
X112217500Y-86000000D02*
X103580000Y-86000000D01*
X161299000Y-60000000D02*
X144926000Y-76373000D01*
%TO.N,D15*%
X118923700Y-83104100D02*
X114876100Y-87151700D01*
X102191700Y-87151700D02*
X101040000Y-86000000D01*
X186000000Y-60000000D02*
X162895900Y-83104100D01*
X114876100Y-87151700D02*
X102191700Y-87151700D01*
X162895900Y-83104100D02*
X118923700Y-83104100D01*
%TO.N,D16*%
X88862000Y-90798600D02*
X89107900Y-91044500D01*
X32500000Y-100000000D02*
X41328700Y-91171300D01*
X32500000Y-100000000D02*
X26000000Y-100000000D01*
X92053700Y-91044500D02*
X92302000Y-90796200D01*
X89107900Y-91044500D02*
X92053700Y-91044500D01*
X92302000Y-90796200D02*
X95609500Y-90796200D01*
X41328700Y-91171300D02*
X76584600Y-91171300D01*
X76957300Y-90798600D02*
X88862000Y-90798600D01*
X76584600Y-91171300D02*
X76957300Y-90798600D01*
%TO.N,D18*%
X53777500Y-131222500D02*
X66314000Y-118686000D01*
X66314000Y-118686000D02*
X91766400Y-118686000D01*
X46538300Y-131222500D02*
X53777500Y-131222500D01*
X32500000Y-160000000D02*
X26000000Y-160000000D01*
X32500000Y-160000000D02*
X32500000Y-145260800D01*
X32500000Y-145260800D02*
X46538300Y-131222500D01*
%TO.N,D19*%
X84225500Y-87292100D02*
X83932600Y-87585000D01*
X84723800Y-87292100D02*
X84225500Y-87292100D01*
X89295000Y-87585000D02*
X85016700Y-87585000D01*
X83631100Y-87585000D02*
X83229400Y-87986700D01*
X83229400Y-87986700D02*
X49554800Y-87986700D01*
X49554800Y-87986700D02*
X49153100Y-87585000D01*
X85016700Y-87585000D02*
X84723800Y-87292100D01*
X83932600Y-87585000D02*
X83631100Y-87585000D01*
X90880000Y-86000000D02*
X89295000Y-87585000D01*
%TO.N,D20_SDA*%
X156524500Y-49095600D02*
X125244400Y-49095600D01*
X88340000Y-86000000D02*
X87156700Y-87183300D01*
X57921000Y-87585000D02*
X56336000Y-86000000D01*
X125244400Y-49095600D02*
X88340000Y-86000000D01*
X85183000Y-87183300D02*
X84890100Y-86890400D01*
X87156700Y-87183300D02*
X85183000Y-87183300D01*
X83757700Y-86890400D02*
X83063100Y-87585000D01*
X84890100Y-86890400D02*
X83757700Y-86890400D01*
X83063100Y-87585000D02*
X57921000Y-87585000D01*
X156524500Y-49095500D02*
X156524500Y-49095600D01*
X173620000Y-32000000D02*
X156524500Y-49095500D01*
%TO.N,D21_SCL*%
X85800000Y-84575000D02*
X85800000Y-86000000D01*
X169928300Y-33151700D02*
X137223300Y-33151700D01*
X58876000Y-86000000D02*
X60027700Y-86000000D01*
X60027700Y-86000000D02*
X61211000Y-87183300D01*
X83879900Y-86000000D02*
X85800000Y-86000000D01*
X61211000Y-87183300D02*
X82696600Y-87183300D01*
X171080000Y-32000000D02*
X169928300Y-33151700D01*
X82696600Y-87183300D02*
X83879900Y-86000000D01*
X137223300Y-33151700D02*
X85800000Y-84575000D01*
%TO.N,OPTO_VB*%
X55620000Y-56540000D02*
X65540000Y-56540000D01*
X65540000Y-56540000D02*
X68000000Y-59000000D01*
%TO.N,A5*%
X73100000Y-134260000D02*
X75022100Y-132337900D01*
X75022100Y-132337900D02*
X83298300Y-132337900D01*
%TO.N,POT2_W*%
X88672800Y-75827200D02*
X91172800Y-75827200D01*
X91172800Y-75827200D02*
X93000000Y-74000000D01*
X84500000Y-80000000D02*
X88672800Y-75827200D01*
%TO.N,A12*%
X157000000Y-79000000D02*
X162000000Y-74000000D01*
X162000000Y-74000000D02*
X167160000Y-74000000D01*
X117135000Y-82502400D02*
X113393100Y-86244300D01*
X157000000Y-79000000D02*
X153497600Y-82502400D01*
X153497600Y-82502400D02*
X117135000Y-82502400D01*
%TO.N,A14*%
X157000000Y-127000000D02*
X162000000Y-122000000D01*
X151727000Y-132273000D02*
X95407000Y-132273000D01*
X157000000Y-127000000D02*
X151727000Y-132273000D01*
X162000000Y-122000000D02*
X167160000Y-122000000D01*
X95407000Y-132273000D02*
X93420000Y-134260000D01*
%TO.N,VIN_RAW*%
X45160000Y-134260000D02*
X47795800Y-131624200D01*
X47795800Y-131624200D02*
X139581300Y-131624200D01*
X152160000Y-60000000D02*
X143620000Y-60000000D01*
X160160000Y-52000000D02*
X152160000Y-60000000D01*
%TO.N,A1*%
X83260000Y-134260000D02*
X82054900Y-135465100D01*
X71830000Y-134669800D02*
X71830000Y-133869400D01*
X71830000Y-133869400D02*
X70189200Y-132228600D01*
X70189200Y-132228600D02*
X70058300Y-132228600D01*
X82054900Y-135465100D02*
X72625300Y-135465100D01*
X66000000Y-98000000D02*
X71160000Y-98000000D01*
X72625300Y-135465100D02*
X71830000Y-134669800D01*
X61000000Y-103000000D02*
X66000000Y-98000000D01*
%TO.N,A6*%
X98000000Y-122000000D02*
X103160000Y-122000000D01*
X93000000Y-127000000D02*
X98000000Y-122000000D01*
%TO.N,A0*%
X61000000Y-79000000D02*
X66000000Y-74000000D01*
X66000000Y-74000000D02*
X71160000Y-74000000D01*
%TO.N,A3*%
X66000000Y-146000000D02*
X71160000Y-146000000D01*
X61000000Y-151000000D02*
X66000000Y-146000000D01*
%TO.N,A4*%
X76879300Y-133020700D02*
X83748200Y-133020700D01*
X98000000Y-98000000D02*
X103160000Y-98000000D01*
X93000000Y-103000000D02*
X98000000Y-98000000D01*
X75640000Y-134260000D02*
X76879300Y-133020700D01*
X83748200Y-133020700D02*
X84515500Y-132253400D01*
%TO.N,A7*%
X89581300Y-141018800D02*
X96281300Y-147718700D01*
X98000000Y-146000000D02*
X103160000Y-146000000D01*
X93000000Y-151000000D02*
X96281300Y-147718700D01*
X74778800Y-141018800D02*
X89581300Y-141018800D01*
X68020000Y-134260000D02*
X74778800Y-141018800D01*
X96281300Y-147718700D02*
X98000000Y-146000000D01*
%TO.N,D12*%
X117080800Y-88046900D02*
X118697700Y-86430000D01*
X118697700Y-86430000D02*
X183570000Y-86430000D01*
X46176000Y-86000000D02*
X48686700Y-88510700D01*
X48686700Y-88510700D02*
X91747400Y-88510700D01*
X183570000Y-86430000D02*
X186000000Y-84000000D01*
X92211200Y-88046900D02*
X117080800Y-88046900D01*
X91747400Y-88510700D02*
X92211200Y-88046900D01*
%TO.N,POT14_W*%
X91349200Y-147650800D02*
X93000000Y-146000000D01*
X84500000Y-152000000D02*
X88849200Y-147650800D01*
X88849200Y-147650800D02*
X91349200Y-147650800D01*
%TO.N,POT16_W*%
X155349200Y-147650800D02*
X157000000Y-146000000D01*
X148500000Y-152000000D02*
X152849200Y-147650800D01*
X152849200Y-147650800D02*
X155349200Y-147650800D01*
%TO.N,D10*%
X45167200Y-90241100D02*
X88872500Y-90241100D01*
X88872500Y-90241100D02*
X89274200Y-90642800D01*
X93248400Y-89653700D02*
X140964500Y-89653700D01*
X41096000Y-86169900D02*
X45167200Y-90241100D01*
X140964500Y-89653700D02*
X183310800Y-132000000D01*
X183310800Y-132000000D02*
X186000000Y-132000000D01*
X92507600Y-90394500D02*
X93248400Y-89653700D01*
X89274200Y-90642800D02*
X91887400Y-90642800D01*
X91887400Y-90642800D02*
X92135700Y-90394500D01*
X92135700Y-90394500D02*
X92507600Y-90394500D01*
X41096000Y-86000000D02*
X41096000Y-86169900D01*
%TO.N,POT6_W*%
X88849200Y-99650800D02*
X91349200Y-99650800D01*
X91349200Y-99650800D02*
X93000000Y-98000000D01*
X84500000Y-104000000D02*
X88849200Y-99650800D01*
%TO.N,POT15_W*%
X116500000Y-152000000D02*
X120849200Y-147650800D01*
X120849200Y-147650800D02*
X123349200Y-147650800D01*
X123349200Y-147650800D02*
X125000000Y-146000000D01*
%TO.N,POT12_W*%
X148500000Y-128000000D02*
X152849200Y-123650800D01*
X152849200Y-123650800D02*
X155349200Y-123650800D01*
X155349200Y-123650800D02*
X157000000Y-122000000D01*
%TO.N,D11*%
X46846700Y-88954700D02*
X91871500Y-88954700D01*
X117247200Y-88448600D02*
X118544100Y-87151700D01*
X168493100Y-87151700D02*
X186000000Y-104658600D01*
X43636000Y-86000000D02*
X43892000Y-86000000D01*
X118544100Y-87151700D02*
X168493100Y-87151700D01*
X186000000Y-104658600D02*
X186000000Y-108000000D01*
X92377600Y-88448600D02*
X117247200Y-88448600D01*
X91871500Y-88954700D02*
X92377600Y-88448600D01*
X43892000Y-86000000D02*
X46846700Y-88954700D01*
%TO.N,POT13_W*%
X59349200Y-147650800D02*
X61000000Y-146000000D01*
X52500000Y-152000000D02*
X56849200Y-147650800D01*
X56849200Y-147650800D02*
X59349200Y-147650800D01*
%TO.N,D9*%
X89205100Y-89437700D02*
X89606800Y-89839400D01*
X167917000Y-90257900D02*
X169789300Y-90257900D01*
X91554800Y-89839400D02*
X91803100Y-89591100D01*
X91803100Y-89591100D02*
X92174900Y-89591100D01*
X45826700Y-88502800D02*
X46761600Y-89437700D01*
X166509400Y-88850300D02*
X167917000Y-90257900D01*
X46761600Y-89437700D02*
X89205100Y-89437700D01*
X92174900Y-89591100D02*
X92915700Y-88850300D01*
X92915700Y-88850300D02*
X166509400Y-88850300D01*
X89606800Y-89839400D02*
X91554800Y-89839400D01*
X44847700Y-88502800D02*
X45826700Y-88502800D01*
%TO.N,D8*%
X37191300Y-84824700D02*
X41553400Y-84824700D01*
X93082100Y-89252000D02*
X141130900Y-89252000D01*
X89038800Y-89839400D02*
X89440500Y-90241100D01*
X89440500Y-90241100D02*
X91721100Y-90241100D01*
X45143700Y-89104500D02*
X45878600Y-89839400D01*
X42366000Y-86424800D02*
X44246000Y-88304800D01*
X44598600Y-89104500D02*
X45143700Y-89104500D01*
X91721100Y-90241100D02*
X91969400Y-89992800D01*
X159878900Y-108000000D02*
X168000000Y-108000000D01*
X141130900Y-89252000D02*
X159878900Y-108000000D01*
X91969400Y-89992800D02*
X92341300Y-89992800D01*
X45878600Y-89839400D02*
X89038800Y-89839400D01*
X44246000Y-88304800D02*
X44246000Y-88751900D01*
X174500000Y-108000000D02*
X168000000Y-108000000D01*
X41553400Y-84824700D02*
X42366000Y-85637300D01*
X44246000Y-88751900D02*
X44598600Y-89104500D01*
X36016000Y-86000000D02*
X37191300Y-84824700D01*
X42366000Y-85637300D02*
X42366000Y-86424800D01*
X92341300Y-89992800D02*
X93082100Y-89252000D01*
%TD*%
M02*
