%TF.GenerationSoftware,KiCad,Pcbnew,10.0.3*%
%TF.CreationDate,2026-06-06T00:10:00+02:00*%
%TF.ProjectId,SysEx_Patcher,53797345-785f-4506-9174-636865722e6b,rev?*%
%TF.SameCoordinates,Original*%
%TF.FileFunction,Copper,L1,Top*%
%TF.FilePolarity,Positive*%
%FSLAX46Y46*%
G04 Gerber Fmt 4.6, Leading zero omitted, Abs format (unit mm)*
G04 Created by KiCad (PCBNEW 10.0.3) date 2026-06-06 00:10:00*
%MOMM*%
%LPD*%
G01*
G04 APERTURE LIST*
G04 Aperture macros list*
%AMRoundRect*
0 Rectangle with rounded corners*
0 $1 Rounding radius*
0 $2 $3 $4 $5 $6 $7 $8 $9 X,Y pos of 4 corners*
0 Add a 4 corners polygon primitive as box body*
4,1,4,$2,$3,$4,$5,$6,$7,$8,$9,$2,$3,0*
0 Add four circle primitives for the rounded corners*
1,1,$1+$1,$2,$3*
1,1,$1+$1,$4,$5*
1,1,$1+$1,$6,$7*
1,1,$1+$1,$8,$9*
0 Add four rect primitives between the rounded corners*
20,1,$1+$1,$2,$3,$4,$5,0*
20,1,$1+$1,$4,$5,$6,$7,0*
20,1,$1+$1,$6,$7,$8,$9,0*
20,1,$1+$1,$8,$9,$2,$3,0*%
G04 Aperture macros list end*
%TA.AperFunction,ComponentPad*%
%ADD10C,1.600000*%
%TD*%
%TA.AperFunction,ComponentPad*%
%ADD11R,1.800000X1.800000*%
%TD*%
%TA.AperFunction,ComponentPad*%
%ADD12C,1.800000*%
%TD*%
%TA.AperFunction,ComponentPad*%
%ADD13RoundRect,0.750000X-1.250000X-0.750000X1.250000X-0.750000X1.250000X0.750000X-1.250000X0.750000X0*%
%TD*%
%TA.AperFunction,ComponentPad*%
%ADD14R,1.700000X1.700000*%
%TD*%
%TA.AperFunction,ComponentPad*%
%ADD15C,1.700000*%
%TD*%
%TA.AperFunction,ComponentPad*%
%ADD16RoundRect,0.250000X-0.550000X-0.550000X0.550000X-0.550000X0.550000X0.550000X-0.550000X0.550000X0*%
%TD*%
%TA.AperFunction,ComponentPad*%
%ADD17C,2.000000*%
%TD*%
%TA.AperFunction,ComponentPad*%
%ADD18RoundRect,0.249999X-0.850001X-0.850001X0.850001X-0.850001X0.850001X0.850001X-0.850001X0.850001X0*%
%TD*%
%TA.AperFunction,ComponentPad*%
%ADD19C,2.200000*%
%TD*%
%TA.AperFunction,ComponentPad*%
%ADD20O,2.200000X3.500000*%
%TD*%
%TA.AperFunction,ComponentPad*%
%ADD21R,1.500000X2.500000*%
%TD*%
%TA.AperFunction,ComponentPad*%
%ADD22O,1.500000X2.500000*%
%TD*%
%TA.AperFunction,ComponentPad*%
%ADD23R,3.500000X3.500000*%
%TD*%
%TA.AperFunction,ComponentPad*%
%ADD24RoundRect,0.750000X-0.750000X-1.000000X0.750000X-1.000000X0.750000X1.000000X-0.750000X1.000000X0*%
%TD*%
%TA.AperFunction,ComponentPad*%
%ADD25RoundRect,0.875000X-0.875000X-0.875000X0.875000X-0.875000X0.875000X0.875000X-0.875000X0.875000X0*%
%TD*%
%TA.AperFunction,ViaPad*%
%ADD26C,0.600000*%
%TD*%
G04 APERTURE END LIST*
D10*
%TO.P,R9,1*%
%TO.N,D9*%
X150000000Y-112000000D03*
%TO.P,R9,2*%
%TO.N,LED4_A*%
X150000000Y-101840000D03*
%TD*%
D11*
%TO.P,D4,1*%
%TO.N,GND*%
X158000000Y-72000000D03*
D12*
%TO.P,D4,2*%
%TO.N,LED2_A*%
X158000000Y-69460000D03*
%TD*%
D10*
%TO.P,C3,1*%
%TO.N,A5*%
X82000000Y-56000000D03*
%TO.P,C3,2*%
%TO.N,GND*%
X82000000Y-51000000D03*
%TD*%
D11*
%TO.P,RV12,1*%
%TO.N,+5V*%
X126000000Y-104000000D03*
D12*
%TO.P,RV12,2*%
%TO.N,POT12_W*%
X128500000Y-104000000D03*
%TO.P,RV12,3*%
%TO.N,GND*%
X131000000Y-104000000D03*
D13*
%TO.P,RV12,MP*%
%TO.N,N/C*%
X124100000Y-97000000D03*
X132900000Y-97000000D03*
%TD*%
D10*
%TO.P,C7,1*%
%TO.N,A4*%
X82000000Y-82000000D03*
%TO.P,C7,2*%
%TO.N,GND*%
X82000000Y-77000000D03*
%TD*%
%TO.P,R16,1*%
%TO.N,POT7_W*%
X108000000Y-74000000D03*
%TO.P,R16,2*%
%TO.N,A9*%
X108000000Y-63840000D03*
%TD*%
D11*
%TO.P,RV6,1*%
%TO.N,+5V*%
X62000000Y-78000000D03*
D12*
%TO.P,RV6,2*%
%TO.N,POT6_W*%
X64500000Y-78000000D03*
%TO.P,RV6,3*%
%TO.N,GND*%
X67000000Y-78000000D03*
D13*
%TO.P,RV6,MP*%
%TO.N,N/C*%
X60100000Y-71000000D03*
X68900000Y-71000000D03*
%TD*%
D10*
%TO.P,C4,1*%
%TO.N,A8*%
X114000000Y-56000000D03*
%TO.P,C4,2*%
%TO.N,GND*%
X114000000Y-51000000D03*
%TD*%
%TO.P,R20,1*%
%TO.N,POT11_W*%
X108000000Y-100000000D03*
%TO.P,R20,2*%
%TO.N,A10*%
X108000000Y-89840000D03*
%TD*%
D14*
%TO.P,J2,1*%
%TO.N,N/C*%
X44000000Y-10000000D03*
D15*
%TO.P,J2,2*%
%TO.N,GND*%
X44000000Y-12540000D03*
%TO.P,J2,3*%
%TO.N,N/C*%
X44000000Y-15080000D03*
%TO.P,J2,4*%
%TO.N,MIDI_OUT_4*%
X44000000Y-17620000D03*
%TO.P,J2,5*%
%TO.N,MIDI_OUT_5*%
X44000000Y-20160000D03*
%TD*%
D10*
%TO.P,C12,1*%
%TO.N,A10*%
X114000000Y-108000000D03*
%TO.P,C12,2*%
%TO.N,GND*%
X114000000Y-103000000D03*
%TD*%
D11*
%TO.P,RV15,1*%
%TO.N,+5V*%
X94000000Y-130000000D03*
D12*
%TO.P,RV15,2*%
%TO.N,POT15_W*%
X96500000Y-130000000D03*
%TO.P,RV15,3*%
%TO.N,GND*%
X99000000Y-130000000D03*
D13*
%TO.P,RV15,MP*%
%TO.N,N/C*%
X92100000Y-123000000D03*
X100900000Y-123000000D03*
%TD*%
D10*
%TO.P,R15,1*%
%TO.N,POT6_W*%
X76000000Y-74000000D03*
%TO.P,R15,2*%
%TO.N,A4*%
X76000000Y-63840000D03*
%TD*%
%TO.P,C5,1*%
%TO.N,A12*%
X146000000Y-56000000D03*
%TO.P,C5,2*%
%TO.N,GND*%
X146000000Y-51000000D03*
%TD*%
%TO.P,R2,1*%
%TO.N,MIDI_OUT_4*%
X38000000Y-27000000D03*
%TO.P,R2,2*%
%TO.N,+5V*%
X48160000Y-27000000D03*
%TD*%
D11*
%TO.P,RV9,1*%
%TO.N,+5V*%
X30000000Y-104000000D03*
D12*
%TO.P,RV9,2*%
%TO.N,POT9_W*%
X32500000Y-104000000D03*
%TO.P,RV9,3*%
%TO.N,GND*%
X35000000Y-104000000D03*
D13*
%TO.P,RV9,MP*%
%TO.N,N/C*%
X28100000Y-97000000D03*
X36900000Y-97000000D03*
%TD*%
D14*
%TO.P,JMD3,1*%
%TO.N,D1_TX*%
X61910000Y-198000000D03*
D15*
%TO.P,JMD3,2*%
%TO.N,D0_RX*%
X64450000Y-198000000D03*
%TD*%
D14*
%TO.P,JMA1,1*%
%TO.N,N/C*%
X28890000Y-150000000D03*
D15*
%TO.P,JMA1,2*%
X31430000Y-150000000D03*
%TO.P,JMA1,3*%
X33970000Y-150000000D03*
%TO.P,JMA1,4*%
X36510000Y-150000000D03*
%TO.P,JMA1,5*%
%TO.N,+5V*%
X39050000Y-150000000D03*
%TO.P,JMA1,6*%
%TO.N,GND*%
X41590000Y-150000000D03*
%TO.P,JMA1,7*%
X44130000Y-150000000D03*
%TO.P,JMA1,8*%
%TO.N,VIN_RAW*%
X46670000Y-150000000D03*
%TD*%
D10*
%TO.P,R12,1*%
%TO.N,POT3_W*%
X108000000Y-48000000D03*
%TO.P,R12,2*%
%TO.N,A8*%
X108000000Y-37840000D03*
%TD*%
%TO.P,C17,1*%
%TO.N,MUX_CH0*%
X146000000Y-134000000D03*
%TO.P,C17,2*%
%TO.N,GND*%
X146000000Y-129000000D03*
%TD*%
%TO.P,R1,1*%
%TO.N,MIDI_IN_4*%
X22000000Y-27000000D03*
%TO.P,R1,2*%
%TO.N,OPTO_ANODE*%
X32160000Y-27000000D03*
%TD*%
%TO.P,R21,1*%
%TO.N,POT12_W*%
X140000000Y-100000000D03*
%TO.P,R21,2*%
%TO.N,A14*%
X140000000Y-89840000D03*
%TD*%
%TO.P,R5,1*%
%TO.N,OPTO_VO*%
X78000000Y-27000000D03*
%TO.P,R5,2*%
%TO.N,+5V*%
X88160000Y-27000000D03*
%TD*%
D11*
%TO.P,RV16,1*%
%TO.N,+5V*%
X126000000Y-130000000D03*
D12*
%TO.P,RV16,2*%
%TO.N,POT16_W*%
X128500000Y-130000000D03*
%TO.P,RV16,3*%
%TO.N,GND*%
X131000000Y-130000000D03*
D13*
%TO.P,RV16,MP*%
%TO.N,N/C*%
X124100000Y-123000000D03*
X132900000Y-123000000D03*
%TD*%
D11*
%TO.P,RV13,1*%
%TO.N,+5V*%
X30000000Y-130000000D03*
D12*
%TO.P,RV13,2*%
%TO.N,POT13_W*%
X32500000Y-130000000D03*
%TO.P,RV13,3*%
%TO.N,GND*%
X35000000Y-130000000D03*
D13*
%TO.P,RV13,MP*%
%TO.N,N/C*%
X28100000Y-123000000D03*
X36900000Y-123000000D03*
%TD*%
D16*
%TO.P,U2,1*%
%TO.N,A15*%
X120000000Y-150000000D03*
D10*
%TO.P,U2,2*%
%TO.N,MUX_CH7*%
X120000000Y-152540000D03*
%TO.P,U2,3*%
%TO.N,MUX_CH6*%
X120000000Y-155080000D03*
%TO.P,U2,4*%
%TO.N,MUX_CH5*%
X120000000Y-157620000D03*
%TO.P,U2,5*%
%TO.N,MUX_CH4*%
X120000000Y-160160000D03*
%TO.P,U2,6*%
%TO.N,MUX_CH3*%
X120000000Y-162700000D03*
%TO.P,U2,7*%
%TO.N,MUX_CH2*%
X120000000Y-165240000D03*
%TO.P,U2,8*%
%TO.N,MUX_CH1*%
X120000000Y-167780000D03*
%TO.P,U2,9*%
%TO.N,MUX_CH0*%
X120000000Y-170320000D03*
%TO.P,U2,10*%
%TO.N,D2*%
X120000000Y-172860000D03*
%TO.P,U2,11*%
%TO.N,D3*%
X120000000Y-175400000D03*
%TO.P,U2,12*%
%TO.N,GND*%
X120000000Y-177940000D03*
%TO.P,U2,13*%
%TO.N,D13*%
X135240000Y-177940000D03*
%TO.P,U2,14*%
%TO.N,D4*%
X135240000Y-175400000D03*
%TO.P,U2,15*%
%TO.N,GND*%
X135240000Y-172860000D03*
%TO.P,U2,16*%
%TO.N,MUX_CH15*%
X135240000Y-170320000D03*
%TO.P,U2,17*%
%TO.N,MUX_CH14*%
X135240000Y-167780000D03*
%TO.P,U2,18*%
%TO.N,MUX_CH13*%
X135240000Y-165240000D03*
%TO.P,U2,19*%
%TO.N,MUX_CH12*%
X135240000Y-162700000D03*
%TO.P,U2,20*%
%TO.N,MUX_CH11*%
X135240000Y-160160000D03*
%TO.P,U2,21*%
%TO.N,MUX_CH10*%
X135240000Y-157620000D03*
%TO.P,U2,22*%
%TO.N,MUX_CH9*%
X135240000Y-155080000D03*
%TO.P,U2,23*%
%TO.N,MUX_CH8*%
X135240000Y-152540000D03*
%TO.P,U2,24*%
%TO.N,+5V*%
X135240000Y-150000000D03*
%TD*%
%TO.P,C14,1*%
%TO.N,A3*%
X50000000Y-134000000D03*
%TO.P,C14,2*%
%TO.N,GND*%
X50000000Y-129000000D03*
%TD*%
%TO.P,R27,1*%
%TO.N,JACK_W*%
X100000000Y-162000000D03*
%TO.P,R27,2*%
%TO.N,MUX_CH1*%
X110160000Y-162000000D03*
%TD*%
%TO.P,C15,1*%
%TO.N,A7*%
X82000000Y-134000000D03*
%TO.P,C15,2*%
%TO.N,GND*%
X82000000Y-129000000D03*
%TD*%
D11*
%TO.P,RV4,1*%
%TO.N,+5V*%
X126000000Y-52000000D03*
D12*
%TO.P,RV4,2*%
%TO.N,POT4_W*%
X128500000Y-52000000D03*
%TO.P,RV4,3*%
%TO.N,GND*%
X131000000Y-52000000D03*
D13*
%TO.P,RV4,MP*%
%TO.N,N/C*%
X124100000Y-45000000D03*
X132900000Y-45000000D03*
%TD*%
D10*
%TO.P,R4,1*%
%TO.N,OPTO_VB*%
X78000000Y-35000000D03*
%TO.P,R4,2*%
%TO.N,GND*%
X88160000Y-35000000D03*
%TD*%
%TO.P,R19,1*%
%TO.N,POT10_W*%
X76000000Y-100000000D03*
%TO.P,R19,2*%
%TO.N,A6*%
X76000000Y-89840000D03*
%TD*%
%TO.P,C13,1*%
%TO.N,A14*%
X146000000Y-108000000D03*
%TO.P,C13,2*%
%TO.N,GND*%
X146000000Y-103000000D03*
%TD*%
%TO.P,R17,1*%
%TO.N,POT8_W*%
X140000000Y-74000000D03*
%TO.P,R17,2*%
%TO.N,A13*%
X140000000Y-63840000D03*
%TD*%
%TO.P,R14,1*%
%TO.N,POT5_W*%
X44000000Y-74000000D03*
%TO.P,R14,2*%
%TO.N,A1*%
X44000000Y-63840000D03*
%TD*%
%TO.P,R7,1*%
%TO.N,D11*%
X150000000Y-72000000D03*
%TO.P,R7,2*%
%TO.N,LED2_A*%
X150000000Y-61840000D03*
%TD*%
D11*
%TO.P,RV11,1*%
%TO.N,+5V*%
X94000000Y-104000000D03*
D12*
%TO.P,RV11,2*%
%TO.N,POT11_W*%
X96500000Y-104000000D03*
%TO.P,RV11,3*%
%TO.N,GND*%
X99000000Y-104000000D03*
D13*
%TO.P,RV11,MP*%
%TO.N,N/C*%
X92100000Y-97000000D03*
X100900000Y-97000000D03*
%TD*%
D10*
%TO.P,R3,1*%
%TO.N,MIDI_OUT_5*%
X38000000Y-35000000D03*
%TO.P,R3,2*%
%TO.N,D1_TX*%
X48160000Y-35000000D03*
%TD*%
%TO.P,C6,1*%
%TO.N,A1*%
X50000000Y-82000000D03*
%TO.P,C6,2*%
%TO.N,GND*%
X50000000Y-77000000D03*
%TD*%
%TO.P,R8,1*%
%TO.N,D10*%
X150000000Y-92000000D03*
%TO.P,R8,2*%
%TO.N,LED3_A*%
X150000000Y-81840000D03*
%TD*%
%TO.P,R11,1*%
%TO.N,POT2_W*%
X76000000Y-48000000D03*
%TO.P,R11,2*%
%TO.N,A5*%
X76000000Y-37840000D03*
%TD*%
D14*
%TO.P,J10,1*%
%TO.N,JACK_W*%
X78000000Y-10000000D03*
D15*
%TO.P,J10,2*%
%TO.N,+5V*%
X78000000Y-12540000D03*
%TO.P,J10,3*%
%TO.N,GND*%
X78000000Y-15080000D03*
%TD*%
D14*
%TO.P,JMD4,1*%
%TO.N,D20_SDA*%
X84770000Y-198000000D03*
D15*
%TO.P,JMD4,2*%
%TO.N,D21_SCL*%
X87310000Y-198000000D03*
%TD*%
D10*
%TO.P,R25,1*%
%TO.N,POT16_W*%
X140000000Y-126000000D03*
%TO.P,R25,2*%
%TO.N,MUX_CH0*%
X140000000Y-115840000D03*
%TD*%
%TO.P,C11,1*%
%TO.N,A6*%
X82000000Y-108000000D03*
%TO.P,C11,2*%
%TO.N,GND*%
X82000000Y-103000000D03*
%TD*%
%TO.P,C10,1*%
%TO.N,A2*%
X50000000Y-108000000D03*
%TO.P,C10,2*%
%TO.N,GND*%
X50000000Y-103000000D03*
%TD*%
%TO.P,R10,1*%
%TO.N,POT1_W*%
X44000000Y-48000000D03*
%TO.P,R10,2*%
%TO.N,A0*%
X44000000Y-37840000D03*
%TD*%
%TO.P,R22,1*%
%TO.N,POT13_W*%
X44000000Y-126000000D03*
%TO.P,R22,2*%
%TO.N,A3*%
X44000000Y-115840000D03*
%TD*%
D16*
%TO.P,U1,1*%
%TO.N,N/C*%
X58000000Y-23000000D03*
D10*
%TO.P,U1,2*%
%TO.N,OPTO_ANODE*%
X58000000Y-25540000D03*
%TO.P,U1,3*%
%TO.N,OPTO_CATHODE*%
X58000000Y-28080000D03*
%TO.P,U1,4*%
%TO.N,N/C*%
X58000000Y-30620000D03*
%TO.P,U1,5*%
%TO.N,GND*%
X65620000Y-30620000D03*
%TO.P,U1,6*%
%TO.N,OPTO_VO*%
X65620000Y-28080000D03*
%TO.P,U1,7*%
%TO.N,OPTO_VB*%
X65620000Y-25540000D03*
%TO.P,U1,8*%
%TO.N,+5V*%
X65620000Y-23000000D03*
%TD*%
D17*
%TO.P,SW3,1*%
%TO.N,D8*%
X10000000Y-72000000D03*
X16500000Y-72000000D03*
%TO.P,SW3,2*%
%TO.N,GND*%
X10000000Y-76500000D03*
X16500000Y-76500000D03*
%TD*%
D10*
%TO.P,R24,1*%
%TO.N,POT15_W*%
X108000000Y-126000000D03*
%TO.P,R24,2*%
%TO.N,A11*%
X108000000Y-115840000D03*
%TD*%
D18*
%TO.P,D2D,1*%
%TO.N,+5V*%
X150000000Y-22000000D03*
D19*
%TO.P,D2D,2*%
%TO.N,VIN_RAW*%
X160160000Y-22000000D03*
%TD*%
D11*
%TO.P,RV10,1*%
%TO.N,+5V*%
X62000000Y-104000000D03*
D12*
%TO.P,RV10,2*%
%TO.N,POT10_W*%
X64500000Y-104000000D03*
%TO.P,RV10,3*%
%TO.N,GND*%
X67000000Y-104000000D03*
D13*
%TO.P,RV10,MP*%
%TO.N,N/C*%
X60100000Y-97000000D03*
X68900000Y-97000000D03*
%TD*%
D10*
%TO.P,C18,1*%
%TO.N,MUX_CH1*%
X150000000Y-162000000D03*
%TO.P,C18,2*%
%TO.N,GND*%
X155000000Y-162000000D03*
%TD*%
D17*
%TO.P,SW2,1*%
%TO.N,D7*%
X10000000Y-52000000D03*
X16500000Y-52000000D03*
%TO.P,SW2,2*%
%TO.N,GND*%
X10000000Y-56500000D03*
X16500000Y-56500000D03*
%TD*%
%TO.P,SW4,1*%
%TO.N,D6*%
X10000000Y-92000000D03*
X16500000Y-92000000D03*
%TO.P,SW4,2*%
%TO.N,GND*%
X10000000Y-96500000D03*
X16500000Y-96500000D03*
%TD*%
D10*
%TO.P,R18,1*%
%TO.N,POT9_W*%
X44000000Y-100000000D03*
%TO.P,R18,2*%
%TO.N,A2*%
X44000000Y-89840000D03*
%TD*%
D11*
%TO.P,D3,1*%
%TO.N,GND*%
X158000000Y-52000000D03*
D12*
%TO.P,D3,2*%
%TO.N,LED1_A*%
X158000000Y-49460000D03*
%TD*%
D14*
%TO.P,JMA2,1*%
%TO.N,A0*%
X51750000Y-150000000D03*
D15*
%TO.P,JMA2,2*%
%TO.N,A1*%
X54290000Y-150000000D03*
%TO.P,JMA2,3*%
%TO.N,A2*%
X56830000Y-150000000D03*
%TO.P,JMA2,4*%
%TO.N,A3*%
X59370000Y-150000000D03*
%TO.P,JMA2,5*%
%TO.N,A4*%
X61910000Y-150000000D03*
%TO.P,JMA2,6*%
%TO.N,A5*%
X64450000Y-150000000D03*
%TO.P,JMA2,7*%
%TO.N,A6*%
X66990000Y-150000000D03*
%TO.P,JMA2,8*%
%TO.N,A7*%
X69530000Y-150000000D03*
%TD*%
D20*
%TO.P,SW1,*%
%TO.N,*%
X97900000Y-28000000D03*
X106100000Y-28000000D03*
D21*
%TO.P,SW1,1*%
%TO.N,OPTO_VO*%
X100000000Y-28000000D03*
D22*
%TO.P,SW1,2*%
%TO.N,D0_RX*%
X102000000Y-28000000D03*
%TO.P,SW1,3*%
%TO.N,N/C*%
X104000000Y-28000000D03*
%TD*%
D11*
%TO.P,RV2,1*%
%TO.N,+5V*%
X62000000Y-52000000D03*
D12*
%TO.P,RV2,2*%
%TO.N,POT2_W*%
X64500000Y-52000000D03*
%TO.P,RV2,3*%
%TO.N,GND*%
X67000000Y-52000000D03*
D13*
%TO.P,RV2,MP*%
%TO.N,N/C*%
X60100000Y-45000000D03*
X68900000Y-45000000D03*
%TD*%
D23*
%TO.P,J3,1*%
%TO.N,VIN_RAW*%
X150000000Y-12000000D03*
D24*
%TO.P,J3,2*%
%TO.N,GND*%
X144000000Y-12000000D03*
D25*
%TO.P,J3,3*%
%TO.N,N/C*%
X147000000Y-16700000D03*
%TD*%
D10*
%TO.P,R6,1*%
%TO.N,D12*%
X150000000Y-52000000D03*
%TO.P,R6,2*%
%TO.N,LED1_A*%
X150000000Y-41840000D03*
%TD*%
D11*
%TO.P,RV14,1*%
%TO.N,+5V*%
X62000000Y-130000000D03*
D12*
%TO.P,RV14,2*%
%TO.N,POT14_W*%
X64500000Y-130000000D03*
%TO.P,RV14,3*%
%TO.N,GND*%
X67000000Y-130000000D03*
D13*
%TO.P,RV14,MP*%
%TO.N,N/C*%
X60100000Y-123000000D03*
X68900000Y-123000000D03*
%TD*%
D10*
%TO.P,C16,1*%
%TO.N,A11*%
X114000000Y-134000000D03*
%TO.P,C16,2*%
%TO.N,GND*%
X114000000Y-129000000D03*
%TD*%
%TO.P,R13,1*%
%TO.N,POT4_W*%
X140000000Y-48000000D03*
%TO.P,R13,2*%
%TO.N,A12*%
X140000000Y-37840000D03*
%TD*%
D11*
%TO.P,D5,1*%
%TO.N,GND*%
X158000000Y-92000000D03*
D12*
%TO.P,D5,2*%
%TO.N,LED3_A*%
X158000000Y-89460000D03*
%TD*%
D16*
%TO.P,D1,1*%
%TO.N,OPTO_ANODE*%
X22000000Y-35000000D03*
D10*
%TO.P,D1,2*%
%TO.N,OPTO_CATHODE*%
X29620000Y-35000000D03*
%TD*%
D14*
%TO.P,JMD1,1*%
%TO.N,D2*%
X20000000Y-198000000D03*
D15*
%TO.P,JMD1,2*%
%TO.N,D3*%
X22540000Y-198000000D03*
%TO.P,JMD1,3*%
%TO.N,D4*%
X25080000Y-198000000D03*
%TO.P,JMD1,4*%
%TO.N,GND*%
X27620000Y-198000000D03*
%TO.P,JMD1,5*%
%TO.N,D13*%
X30160000Y-198000000D03*
%TO.P,JMD1,6*%
%TO.N,D5*%
X32700000Y-198000000D03*
%TO.P,JMD1,7*%
%TO.N,D6*%
X35240000Y-198000000D03*
%TO.P,JMD1,8*%
%TO.N,D7*%
X37780000Y-198000000D03*
%TO.P,JMD1,9*%
%TO.N,D8*%
X40320000Y-198000000D03*
%TO.P,JMD1,10*%
%TO.N,D9*%
X42860000Y-198000000D03*
%TD*%
D14*
%TO.P,J1,1*%
%TO.N,N/C*%
X22000000Y-10000000D03*
D15*
%TO.P,J1,2*%
%TO.N,GND*%
X22000000Y-12540000D03*
%TO.P,J1,3*%
%TO.N,N/C*%
X22000000Y-15080000D03*
%TO.P,J1,4*%
%TO.N,MIDI_IN_4*%
X22000000Y-17620000D03*
%TO.P,J1,5*%
%TO.N,OPTO_CATHODE*%
X22000000Y-20160000D03*
%TD*%
D11*
%TO.P,D6,1*%
%TO.N,GND*%
X158000000Y-112000000D03*
D12*
%TO.P,D6,2*%
%TO.N,LED4_A*%
X158000000Y-109460000D03*
%TD*%
D10*
%TO.P,C1,1*%
%TO.N,+5V*%
X92000000Y-31000000D03*
%TO.P,C1,2*%
%TO.N,GND*%
X97000000Y-31000000D03*
%TD*%
D11*
%TO.P,RV3,1*%
%TO.N,+5V*%
X94000000Y-52000000D03*
D12*
%TO.P,RV3,2*%
%TO.N,POT3_W*%
X96500000Y-52000000D03*
%TO.P,RV3,3*%
%TO.N,GND*%
X99000000Y-52000000D03*
D13*
%TO.P,RV3,MP*%
%TO.N,N/C*%
X92100000Y-45000000D03*
X100900000Y-45000000D03*
%TD*%
D14*
%TO.P,J5,1*%
%TO.N,GND*%
X118000000Y-10000000D03*
D15*
%TO.P,J5,2*%
%TO.N,+5V*%
X118000000Y-12540000D03*
%TO.P,J5,3*%
%TO.N,D21_SCL*%
X118000000Y-15080000D03*
%TO.P,J5,4*%
%TO.N,D20_SDA*%
X118000000Y-17620000D03*
%TD*%
D17*
%TO.P,SW5,1*%
%TO.N,D5*%
X10000000Y-112000000D03*
X16500000Y-112000000D03*
%TO.P,SW5,2*%
%TO.N,GND*%
X10000000Y-116500000D03*
X16500000Y-116500000D03*
%TD*%
D11*
%TO.P,RV7,1*%
%TO.N,+5V*%
X94000000Y-78000000D03*
D12*
%TO.P,RV7,2*%
%TO.N,POT7_W*%
X96500000Y-78000000D03*
%TO.P,RV7,3*%
%TO.N,GND*%
X99000000Y-78000000D03*
D13*
%TO.P,RV7,MP*%
%TO.N,N/C*%
X92100000Y-71000000D03*
X100900000Y-71000000D03*
%TD*%
D11*
%TO.P,RV1,1*%
%TO.N,+5V*%
X30000000Y-52000000D03*
D12*
%TO.P,RV1,2*%
%TO.N,POT1_W*%
X32500000Y-52000000D03*
%TO.P,RV1,3*%
%TO.N,GND*%
X35000000Y-52000000D03*
D13*
%TO.P,RV1,MP*%
%TO.N,N/C*%
X28100000Y-45000000D03*
X36900000Y-45000000D03*
%TD*%
D14*
%TO.P,JMA3,1*%
%TO.N,A8*%
X74610000Y-150000000D03*
D15*
%TO.P,JMA3,2*%
%TO.N,A9*%
X77150000Y-150000000D03*
%TO.P,JMA3,3*%
%TO.N,A10*%
X79690000Y-150000000D03*
%TO.P,JMA3,4*%
%TO.N,A11*%
X82230000Y-150000000D03*
%TO.P,JMA3,5*%
%TO.N,A12*%
X84770000Y-150000000D03*
%TO.P,JMA3,6*%
%TO.N,A13*%
X87310000Y-150000000D03*
%TO.P,JMA3,7*%
%TO.N,A14*%
X89850000Y-150000000D03*
%TO.P,JMA3,8*%
%TO.N,A15*%
X92390000Y-150000000D03*
%TD*%
D10*
%TO.P,C2,1*%
%TO.N,A0*%
X50000000Y-56000000D03*
%TO.P,C2,2*%
%TO.N,GND*%
X50000000Y-51000000D03*
%TD*%
D11*
%TO.P,RV8,1*%
%TO.N,+5V*%
X126000000Y-78000000D03*
D12*
%TO.P,RV8,2*%
%TO.N,POT8_W*%
X128500000Y-78000000D03*
%TO.P,RV8,3*%
%TO.N,GND*%
X131000000Y-78000000D03*
D13*
%TO.P,RV8,MP*%
%TO.N,N/C*%
X124100000Y-71000000D03*
X132900000Y-71000000D03*
%TD*%
D11*
%TO.P,RV5,1*%
%TO.N,+5V*%
X30000000Y-78000000D03*
D12*
%TO.P,RV5,2*%
%TO.N,POT5_W*%
X32500000Y-78000000D03*
%TO.P,RV5,3*%
%TO.N,GND*%
X35000000Y-78000000D03*
D13*
%TO.P,RV5,MP*%
%TO.N,N/C*%
X28100000Y-71000000D03*
X36900000Y-71000000D03*
%TD*%
D14*
%TO.P,J4,1*%
%TO.N,GND*%
X132000000Y-22000000D03*
D15*
%TO.P,J4,2*%
%TO.N,+5V*%
X132000000Y-24540000D03*
%TO.P,J4,3*%
%TO.N,GND*%
X132000000Y-27080000D03*
%TO.P,J4,4*%
%TO.N,VIN_RAW*%
X132000000Y-29620000D03*
%TD*%
D10*
%TO.P,C9,1*%
%TO.N,A13*%
X146000000Y-82000000D03*
%TO.P,C9,2*%
%TO.N,GND*%
X146000000Y-77000000D03*
%TD*%
%TO.P,R23,1*%
%TO.N,POT14_W*%
X76000000Y-126000000D03*
%TO.P,R23,2*%
%TO.N,A7*%
X76000000Y-115840000D03*
%TD*%
%TO.P,C8,1*%
%TO.N,A9*%
X114000000Y-82000000D03*
%TO.P,C8,2*%
%TO.N,GND*%
X114000000Y-77000000D03*
%TD*%
D14*
%TO.P,JMD2,1*%
%TO.N,D10*%
X46670000Y-198000000D03*
D15*
%TO.P,JMD2,2*%
%TO.N,D11*%
X49210000Y-198000000D03*
%TO.P,JMD2,3*%
%TO.N,D12*%
X51750000Y-198000000D03*
%TD*%
D26*
%TO.N,JACK_W*%
X96279000Y-162000000D03*
%TO.N,VIN_RAW*%
X46102000Y-41566500D03*
%TO.N,A8*%
X83851000Y-56000000D03*
%TO.N,A12*%
X84770000Y-78958400D03*
%TO.N,A9*%
X111645100Y-107599400D03*
%TO.N,D12*%
X52071000Y-53500000D03*
%TO.N,D11*%
X46850300Y-117032300D03*
%TO.N,D10*%
X148888300Y-174130200D03*
%TO.N,D9*%
X50480000Y-164761800D03*
%TD*%
M02*
