M48
; DRILL file KiCad 10.0.3 date 2026-06-06T15:43:54
; FORMAT={-:-/ absolute / metric / decimal}
; #@! TF.CreationDate,2026-06-06T15:43:54+02:00
; #@! TF.GenerationSoftware,Kicad,Pcbnew,10.0.3
; #@! TF.FileFunction,MixedPlating,1,4
FMAT,2
METRIC
; #@! TA.AperFunction,Plated,PTH,ViaDrill
T1C0.300
; #@! TA.AperFunction,Plated,PTH,ComponentDrill
T2C0.800
; #@! TA.AperFunction,Plated,PTH,ComponentDrill
T3C0.900
; #@! TA.AperFunction,Plated,PTH,ComponentDrill
T4C1.000
; #@! TA.AperFunction,Plated,PTH,ComponentDrill
T5C1.100
; #@! TA.AperFunction,Plated,PTH,ComponentDrill
T6C1.400
; #@! TA.AperFunction,Plated,PTH,ComponentDrill
T7C1.500
; #@! TA.AperFunction,Plated,PTH,ComponentDrill
T8C1.800
; #@! TA.AperFunction,NonPlated,NPTH,ComponentDrill
T9C2.000
; #@! TA.AperFunction,NonPlated,NPTH,ComponentDrill
T10C3.000
%
G90
G05
T1
X95.5Y-132.16
X101.979Y-143.062
X155.413Y-84.79
T2
X34.0Y-59.0
X34.0Y-65.0
X41.62Y-59.0
X44.16Y-65.0
X48.0Y-54.0
X48.0Y-56.54
X48.0Y-59.08
X48.0Y-61.62
X50.0Y-164.76
X50.0Y-180.0
X52.54Y-164.76
X52.54Y-180.0
X55.08Y-164.76
X55.08Y-180.0
X55.62Y-54.0
X55.62Y-56.54
X55.62Y-59.08
X55.62Y-61.62
X57.62Y-164.76
X57.62Y-180.0
X60.16Y-164.76
X60.16Y-180.0
X61.0Y-74.0
X61.0Y-79.0
X61.0Y-98.0
X61.0Y-103.0
X61.0Y-122.0
X61.0Y-127.0
X61.0Y-146.0
X61.0Y-151.0
X62.7Y-164.76
X62.7Y-180.0
X65.24Y-164.76
X65.24Y-180.0
X66.0Y-79.0
X66.0Y-103.0
X66.0Y-127.0
X66.0Y-151.0
X67.78Y-164.76
X67.78Y-180.0
X68.0Y-59.0
X68.0Y-65.0
X70.32Y-164.76
X70.32Y-180.0
X71.16Y-74.0
X71.16Y-98.0
X71.16Y-122.0
X71.16Y-146.0
X72.86Y-164.76
X72.86Y-180.0
X75.4Y-164.76
X75.4Y-180.0
X77.94Y-164.76
X77.94Y-180.0
X78.16Y-59.0
X78.16Y-65.0
X80.0Y-62.0
X85.0Y-62.0
X92.0Y-60.0
X92.0Y-66.0
X93.0Y-74.0
X93.0Y-79.0
X93.0Y-98.0
X93.0Y-103.0
X93.0Y-122.0
X93.0Y-127.0
X93.0Y-146.0
X93.0Y-151.0
X98.0Y-79.0
X98.0Y-103.0
X98.0Y-127.0
X98.0Y-151.0
X102.16Y-60.0
X102.16Y-66.0
X103.16Y-74.0
X103.16Y-98.0
X103.16Y-122.0
X103.16Y-146.0
X112.0Y-172.0
X122.16Y-172.0
X125.0Y-74.0
X125.0Y-79.0
X125.0Y-98.0
X125.0Y-103.0
X125.0Y-122.0
X125.0Y-127.0
X125.0Y-146.0
X125.0Y-151.0
X130.0Y-79.0
X130.0Y-103.0
X130.0Y-127.0
X130.0Y-151.0
X135.16Y-74.0
X135.16Y-98.0
X135.16Y-122.0
X135.16Y-146.0
X136.0Y-172.0
X141.0Y-172.0
X157.0Y-74.0
X157.0Y-79.0
X157.0Y-98.0
X157.0Y-103.0
X157.0Y-122.0
X157.0Y-127.0
X157.0Y-146.0
X157.0Y-151.0
X162.0Y-64.0
X162.0Y-79.0
X162.0Y-103.0
X162.0Y-127.0
X162.0Y-151.0
X164.5Y-64.0
X167.16Y-74.0
X167.16Y-98.0
X167.16Y-122.0
X167.16Y-146.0
X172.0Y-75.84
X172.0Y-86.0
X172.0Y-97.84
X172.0Y-108.0
X172.0Y-119.84
X172.0Y-130.0
X172.0Y-141.84
X172.0Y-152.0
T3
X180.0Y-83.46
X180.0Y-86.0
X180.0Y-105.46
X180.0Y-108.0
X180.0Y-127.46
X180.0Y-130.0
X180.0Y-149.46
X180.0Y-152.0
T4
X40.0Y-134.0
X42.54Y-134.0
X45.08Y-134.0
X47.62Y-134.0
X48.89Y-86.0
X50.0Y-80.0
X50.0Y-104.0
X50.0Y-128.0
X50.0Y-152.0
X50.16Y-134.0
X51.43Y-86.0
X52.5Y-80.0
X52.5Y-104.0
X52.5Y-128.0
X52.5Y-152.0
X52.7Y-134.0
X53.97Y-86.0
X55.0Y-80.0
X55.0Y-104.0
X55.0Y-128.0
X55.0Y-152.0
X55.24Y-134.0
X56.51Y-86.0
X57.78Y-134.0
X59.05Y-86.0
X60.32Y-134.0
X61.59Y-86.0
X62.86Y-134.0
X64.13Y-86.0
X66.67Y-86.0
X66.67Y-134.0
X69.21Y-134.0
X71.75Y-86.0
X71.75Y-134.0
X74.29Y-86.0
X76.83Y-86.0
X79.37Y-86.0
X81.91Y-86.0
X81.91Y-134.0
X82.0Y-80.0
X82.0Y-104.0
X82.0Y-128.0
X82.0Y-152.0
X84.45Y-86.0
X84.45Y-134.0
X84.5Y-80.0
X84.5Y-104.0
X84.5Y-128.0
X84.5Y-152.0
X86.99Y-86.0
X87.0Y-80.0
X87.0Y-104.0
X87.0Y-128.0
X87.0Y-152.0
X89.53Y-86.0
X94.61Y-86.0
X97.15Y-86.0
X99.69Y-86.0
X102.23Y-86.0
X104.77Y-86.0
X104.77Y-134.0
X107.31Y-86.0
X107.31Y-134.0
X109.85Y-86.0
X112.39Y-86.0
X114.0Y-80.0
X114.0Y-104.0
X114.0Y-128.0
X114.0Y-152.0
X116.5Y-80.0
X116.5Y-104.0
X116.5Y-128.0
X116.5Y-152.0
X119.0Y-80.0
X119.0Y-104.0
X119.0Y-128.0
X119.0Y-152.0
X136.0Y-60.0
X138.54Y-60.0
X141.08Y-60.0
X143.62Y-60.0
X146.0Y-80.0
X146.0Y-104.0
X146.0Y-128.0
X146.0Y-152.0
X148.5Y-80.0
X148.5Y-104.0
X148.5Y-128.0
X148.5Y-152.0
X151.0Y-80.0
X151.0Y-104.0
X151.0Y-128.0
X151.0Y-152.0
X166.0Y-32.0
X168.54Y-32.0
X171.08Y-32.0
X173.62Y-32.0
T5
X26.0Y-86.0
X26.0Y-90.5
X26.0Y-108.0
X26.0Y-112.5
X26.0Y-130.0
X26.0Y-134.5
X26.0Y-152.0
X26.0Y-156.5
X32.5Y-86.0
X32.5Y-90.5
X32.5Y-108.0
X32.5Y-112.5
X32.5Y-130.0
X32.5Y-134.5
X32.5Y-152.0
X32.5Y-156.5
X150.0Y-52.0
X160.16Y-52.0
T6
X36.7Y-38.0
X39.0Y-28.3
X39.0Y-40.5
X44.0Y-38.0
X49.0Y-28.3
X49.0Y-40.5
X51.3Y-38.0
X64.7Y-38.0
X67.0Y-28.3
X67.0Y-40.5
X72.0Y-38.0
X77.0Y-28.3
X77.0Y-40.5
X79.3Y-38.0
T7
X100.0Y-29.3
X100.0Y-35.65
X100.0Y-42.0
X111.43Y-29.3
X111.43Y-35.65
X111.43Y-42.0
T9
X100.0Y-32.5
X111.43Y-32.5
T10
X102.13Y-38.85
T4
X132.3Y-35.0G85X134.3Y-35.0
G05
X138.0Y-31.0G85X138.0Y-33.0
G05
X138.0Y-37.0G85X138.0Y-39.0
G05
T8
X47.95Y-73.0G85X48.25Y-73.0
G05
X47.95Y-97.0G85X48.25Y-97.0
G05
X47.95Y-121.0G85X48.25Y-121.0
G05
X47.95Y-145.0G85X48.25Y-145.0
G05
X56.75Y-73.0G85X57.05Y-73.0
G05
X56.75Y-97.0G85X57.05Y-97.0
G05
X56.75Y-121.0G85X57.05Y-121.0
G05
X56.75Y-145.0G85X57.05Y-145.0
G05
X79.95Y-73.0G85X80.25Y-73.0
G05
X79.95Y-97.0G85X80.25Y-97.0
G05
X79.95Y-121.0G85X80.25Y-121.0
G05
X79.95Y-145.0G85X80.25Y-145.0
G05
X88.75Y-73.0G85X89.05Y-73.0
G05
X88.75Y-97.0G85X89.05Y-97.0
G05
X88.75Y-121.0G85X89.05Y-121.0
G05
X88.75Y-145.0G85X89.05Y-145.0
G05
X111.95Y-73.0G85X112.25Y-73.0
G05
X111.95Y-97.0G85X112.25Y-97.0
G05
X111.95Y-121.0G85X112.25Y-121.0
G05
X111.95Y-145.0G85X112.25Y-145.0
G05
X120.75Y-73.0G85X121.05Y-73.0
G05
X120.75Y-97.0G85X121.05Y-97.0
G05
X120.75Y-121.0G85X121.05Y-121.0
G05
X120.75Y-145.0G85X121.05Y-145.0
G05
X143.95Y-73.0G85X144.25Y-73.0
G05
X143.95Y-97.0G85X144.25Y-97.0
G05
X143.95Y-121.0G85X144.25Y-121.0
G05
X143.95Y-145.0G85X144.25Y-145.0
G05
X152.75Y-73.0G85X153.05Y-73.0
G05
X152.75Y-97.0G85X153.05Y-97.0
G05
X152.75Y-121.0G85X153.05Y-121.0
G05
X152.75Y-145.0G85X153.05Y-145.0
G05
M30
