%TF.GenerationSoftware,KiCad,Pcbnew,10.0.3*%
%TF.CreationDate,2026-06-06T00:44:33+02:00*%
%TF.ProjectId,SysEx_Patcher,53797345-785f-4506-9174-636865722e6b,rev?*%
%TF.SameCoordinates,Original*%
%TF.FileFunction,Copper,L3,Inr*%
%TF.FilePolarity,Positive*%
%FSLAX46Y46*%
G04 Gerber Fmt 4.6, Leading zero omitted, Abs format (unit mm)*
G04 Created by KiCad (PCBNEW 10.0.3) date 2026-06-06 00:44:33*
%MOMM*%
%LPD*%
G01*
G04 APERTURE LIST*
G04 Aperture macros list*
%AMRoundRect*
0 Rectangle with rounded corners*
0 $1 Rounding radius*
0 $2 $3 $4 $5 $6 $7 $8 $9 X,Y pos of 4 corners*
0 Add a 4 corners polygon primitive as box body*
4,1,4,$2,$3,$4,$5,$6,$7,$8,$9,$2,$3,0*
0 Add four circle primitives for the rounded corners*
1,1,$1+$1,$2,$3*
1,1,$1+$1,$4,$5*
1,1,$1+$1,$6,$7*
1,1,$1+$1,$8,$9*
0 Add four rect primitives between the rounded corners*
20,1,$1+$1,$2,$3,$4,$5,0*
20,1,$1+$1,$4,$5,$6,$7,0*
20,1,$1+$1,$6,$7,$8,$9,0*
20,1,$1+$1,$8,$9,$2,$3,0*%
G04 Aperture macros list end*
%TA.AperFunction,ComponentPad*%
%ADD10C,3.400000*%
%TD*%
%TA.AperFunction,ComponentPad*%
%ADD11C,3.000000*%
%TD*%
%TA.AperFunction,ComponentPad*%
%ADD12C,1.600000*%
%TD*%
%TA.AperFunction,ComponentPad*%
%ADD13R,1.800000X1.800000*%
%TD*%
%TA.AperFunction,ComponentPad*%
%ADD14C,1.800000*%
%TD*%
%TA.AperFunction,ComponentPad*%
%ADD15RoundRect,0.750000X-1.250000X-0.750000X1.250000X-0.750000X1.250000X0.750000X-1.250000X0.750000X0*%
%TD*%
%TA.AperFunction,ComponentPad*%
%ADD16R,1.700000X1.700000*%
%TD*%
%TA.AperFunction,ComponentPad*%
%ADD17C,1.700000*%
%TD*%
%TA.AperFunction,ComponentPad*%
%ADD18C,2.600000*%
%TD*%
%TA.AperFunction,ComponentPad*%
%ADD19C,2.400000*%
%TD*%
%TA.AperFunction,ComponentPad*%
%ADD20C,2.000000*%
%TD*%
%TA.AperFunction,ComponentPad*%
%ADD21RoundRect,0.250000X-0.550000X-0.550000X0.550000X-0.550000X0.550000X0.550000X-0.550000X0.550000X0*%
%TD*%
%TA.AperFunction,ComponentPad*%
%ADD22RoundRect,0.249999X-0.850001X-0.850001X0.850001X-0.850001X0.850001X0.850001X-0.850001X0.850001X0*%
%TD*%
%TA.AperFunction,ComponentPad*%
%ADD23C,2.200000*%
%TD*%
%TA.AperFunction,ComponentPad*%
%ADD24O,2.200000X3.500000*%
%TD*%
%TA.AperFunction,ComponentPad*%
%ADD25R,1.500000X2.500000*%
%TD*%
%TA.AperFunction,ComponentPad*%
%ADD26O,1.500000X2.500000*%
%TD*%
%TA.AperFunction,ComponentPad*%
%ADD27R,3.500000X3.500000*%
%TD*%
%TA.AperFunction,ComponentPad*%
%ADD28RoundRect,0.750000X-0.750000X-1.000000X0.750000X-1.000000X0.750000X1.000000X-0.750000X1.000000X0*%
%TD*%
%TA.AperFunction,ComponentPad*%
%ADD29RoundRect,0.875000X-0.875000X-0.875000X0.875000X-0.875000X0.875000X0.875000X-0.875000X0.875000X0*%
%TD*%
%TA.AperFunction,ViaPad*%
%ADD30C,0.600000*%
%TD*%
%TA.AperFunction,Conductor*%
%ADD31C,0.200000*%
%TD*%
G04 APERTURE END LIST*
D10*
%TO.N,+5V*%
%TO.C,J10*%
X91080000Y-19720000D03*
%TO.N,GND*%
X80920000Y-19720000D03*
D11*
%TO.N,JACK_W*%
X86000000Y-14000000D03*
%TD*%
D12*
%TO.N,JACK_W*%
%TO.C,R27*%
X100000000Y-184000000D03*
%TO.N,MUX_CH1*%
X110160000Y-184000000D03*
%TD*%
%TO.N,+5V*%
%TO.C,C1*%
X70000000Y-37000000D03*
%TO.N,GND*%
X75000000Y-37000000D03*
%TD*%
D13*
%TO.N,+5V*%
%TO.C,RV11*%
X94000000Y-118000000D03*
D14*
%TO.N,POT11_W*%
X96500000Y-118000000D03*
%TO.N,GND*%
X99000000Y-118000000D03*
D15*
%TO.N,N/C*%
X92100000Y-111000000D03*
X100900000Y-111000000D03*
%TD*%
D16*
%TO.N,GND*%
%TO.C,J4*%
X150000000Y-26000000D03*
D17*
%TO.N,+5V*%
X150000000Y-28540000D03*
%TO.N,GND*%
X150000000Y-31080000D03*
%TO.N,VIN_RAW*%
X150000000Y-33620000D03*
%TD*%
D13*
%TO.N,+5V*%
%TO.C,RV9*%
X30000000Y-118000000D03*
D14*
%TO.N,POT9_W*%
X32500000Y-118000000D03*
%TO.N,GND*%
X35000000Y-118000000D03*
D15*
%TO.N,N/C*%
X28100000Y-111000000D03*
X36900000Y-111000000D03*
%TD*%
D16*
%TO.N,GND*%
%TO.C,J5*%
X150000000Y-10000000D03*
D17*
%TO.N,+5V*%
X150000000Y-12540000D03*
%TO.N,D21_SCL*%
X150000000Y-15080000D03*
%TO.N,D20_SDA*%
X150000000Y-17620000D03*
%TD*%
D12*
%TO.N,POT4_W*%
%TO.C,R13*%
X140000000Y-62000000D03*
%TO.N,A12*%
X140000000Y-51840000D03*
%TD*%
D18*
%TO.N,*%
%TO.C,J2*%
X47000000Y-23700000D03*
X57000000Y-23700000D03*
D19*
%TO.N,N/C*%
X44700000Y-14000000D03*
%TO.N,GND*%
X52000000Y-14000000D03*
%TO.N,N/C*%
X59300000Y-14000000D03*
%TO.N,MIDI_OUT_4*%
X57000000Y-11500000D03*
%TO.N,MIDI_OUT_5*%
X47000000Y-11500000D03*
%TD*%
D16*
%TO.N,A8*%
%TO.C,JMA3*%
X74610000Y-172000000D03*
D17*
%TO.N,A9*%
X77150000Y-172000000D03*
%TO.N,A10*%
X79690000Y-172000000D03*
%TO.N,A11*%
X82230000Y-172000000D03*
%TO.N,A12*%
X84770000Y-172000000D03*
%TO.N,A13*%
X87310000Y-172000000D03*
%TO.N,A14*%
X89850000Y-172000000D03*
%TO.N,A15*%
X92390000Y-172000000D03*
%TD*%
D12*
%TO.N,POT15_W*%
%TO.C,R24*%
X108000000Y-140000000D03*
%TO.N,A11*%
X108000000Y-129840000D03*
%TD*%
%TO.N,POT6_W*%
%TO.C,R15*%
X76000000Y-88000000D03*
%TO.N,A4*%
X76000000Y-77840000D03*
%TD*%
D13*
%TO.N,+5V*%
%TO.C,RV8*%
X126000000Y-92000000D03*
D14*
%TO.N,POT8_W*%
X128500000Y-92000000D03*
%TO.N,GND*%
X131000000Y-92000000D03*
D15*
%TO.N,N/C*%
X124100000Y-85000000D03*
X132900000Y-85000000D03*
%TD*%
D12*
%TO.N,A0*%
%TO.C,C2*%
X50000000Y-70000000D03*
%TO.N,GND*%
X50000000Y-65000000D03*
%TD*%
D13*
%TO.N,+5V*%
%TO.C,RV2*%
X62000000Y-66000000D03*
D14*
%TO.N,POT2_W*%
X64500000Y-66000000D03*
%TO.N,GND*%
X67000000Y-66000000D03*
D15*
%TO.N,N/C*%
X60100000Y-59000000D03*
X68900000Y-59000000D03*
%TD*%
D13*
%TO.N,+5V*%
%TO.C,RV13*%
X30000000Y-144000000D03*
D14*
%TO.N,POT13_W*%
X32500000Y-144000000D03*
%TO.N,GND*%
X35000000Y-144000000D03*
D15*
%TO.N,N/C*%
X28100000Y-137000000D03*
X36900000Y-137000000D03*
%TD*%
D12*
%TO.N,A5*%
%TO.C,C3*%
X82000000Y-70000000D03*
%TO.N,GND*%
X82000000Y-65000000D03*
%TD*%
%TO.N,POT12_W*%
%TO.C,R21*%
X140000000Y-114000000D03*
%TO.N,A14*%
X140000000Y-103840000D03*
%TD*%
D13*
%TO.N,+5V*%
%TO.C,RV5*%
X30000000Y-92000000D03*
D14*
%TO.N,POT5_W*%
X32500000Y-92000000D03*
%TO.N,GND*%
X35000000Y-92000000D03*
D15*
%TO.N,N/C*%
X28100000Y-85000000D03*
X36900000Y-85000000D03*
%TD*%
D12*
%TO.N,POT13_W*%
%TO.C,R22*%
X44000000Y-140000000D03*
%TO.N,A3*%
X44000000Y-129840000D03*
%TD*%
D20*
%TO.N,D8*%
%TO.C,SW3*%
X10000000Y-88000000D03*
X16500000Y-88000000D03*
%TO.N,GND*%
X10000000Y-92500000D03*
X16500000Y-92500000D03*
%TD*%
D13*
%TO.N,+5V*%
%TO.C,RV14*%
X62000000Y-144000000D03*
D14*
%TO.N,POT14_W*%
X64500000Y-144000000D03*
%TO.N,GND*%
X67000000Y-144000000D03*
D15*
%TO.N,N/C*%
X60100000Y-137000000D03*
X68900000Y-137000000D03*
%TD*%
D21*
%TO.N,A15*%
%TO.C,U2*%
X120000000Y-172000000D03*
D12*
%TO.N,MUX_CH7*%
X120000000Y-174540000D03*
%TO.N,MUX_CH6*%
X120000000Y-177080000D03*
%TO.N,MUX_CH5*%
X120000000Y-179620000D03*
%TO.N,MUX_CH4*%
X120000000Y-182160000D03*
%TO.N,MUX_CH3*%
X120000000Y-184700000D03*
%TO.N,MUX_CH2*%
X120000000Y-187240000D03*
%TO.N,MUX_CH1*%
X120000000Y-189780000D03*
%TO.N,MUX_CH0*%
X120000000Y-192320000D03*
%TO.N,D2*%
X120000000Y-194860000D03*
%TO.N,D3*%
X120000000Y-197400000D03*
%TO.N,GND*%
X120000000Y-199940000D03*
%TO.N,D13*%
X135240000Y-199940000D03*
%TO.N,D4*%
X135240000Y-197400000D03*
%TO.N,GND*%
X135240000Y-194860000D03*
%TO.N,MUX_CH15*%
X135240000Y-192320000D03*
%TO.N,MUX_CH14*%
X135240000Y-189780000D03*
%TO.N,MUX_CH13*%
X135240000Y-187240000D03*
%TO.N,MUX_CH12*%
X135240000Y-184700000D03*
%TO.N,MUX_CH11*%
X135240000Y-182160000D03*
%TO.N,MUX_CH10*%
X135240000Y-179620000D03*
%TO.N,MUX_CH9*%
X135240000Y-177080000D03*
%TO.N,MUX_CH8*%
X135240000Y-174540000D03*
%TO.N,+5V*%
X135240000Y-172000000D03*
%TD*%
%TO.N,POT8_W*%
%TO.C,R17*%
X140000000Y-88000000D03*
%TO.N,A13*%
X140000000Y-77840000D03*
%TD*%
D22*
%TO.N,+5V*%
%TO.C,D2D*%
X120000000Y-26000000D03*
D23*
%TO.N,VIN_RAW*%
X130160000Y-26000000D03*
%TD*%
D24*
%TO.N,*%
%TO.C,SW1*%
X79900000Y-35000000D03*
X88100000Y-35000000D03*
D25*
%TO.N,OPTO_VO*%
X82000000Y-35000000D03*
D26*
%TO.N,D0_RX*%
X84000000Y-35000000D03*
%TO.N,N/C*%
X86000000Y-35000000D03*
%TD*%
D16*
%TO.N,D20_SDA*%
%TO.C,JMD4*%
X84770000Y-220000000D03*
D17*
%TO.N,D21_SCL*%
X87310000Y-220000000D03*
%TD*%
D12*
%TO.N,POT11_W*%
%TO.C,R20*%
X108000000Y-114000000D03*
%TO.N,A10*%
X108000000Y-103840000D03*
%TD*%
D13*
%TO.N,+5V*%
%TO.C,RV10*%
X62000000Y-118000000D03*
D14*
%TO.N,POT10_W*%
X64500000Y-118000000D03*
%TO.N,GND*%
X67000000Y-118000000D03*
D15*
%TO.N,N/C*%
X60100000Y-111000000D03*
X68900000Y-111000000D03*
%TD*%
D12*
%TO.N,A10*%
%TO.C,C12*%
X114000000Y-122000000D03*
%TO.N,GND*%
X114000000Y-117000000D03*
%TD*%
D13*
%TO.N,+5V*%
%TO.C,RV6*%
X62000000Y-92000000D03*
D14*
%TO.N,POT6_W*%
X64500000Y-92000000D03*
%TO.N,GND*%
X67000000Y-92000000D03*
D15*
%TO.N,N/C*%
X60100000Y-85000000D03*
X68900000Y-85000000D03*
%TD*%
D13*
%TO.N,GND*%
%TO.C,D5*%
X160000000Y-110000000D03*
D14*
%TO.N,LED3_A*%
X160000000Y-107460000D03*
%TD*%
D12*
%TO.N,POT1_W*%
%TO.C,R10*%
X44000000Y-62000000D03*
%TO.N,A0*%
X44000000Y-51840000D03*
%TD*%
%TO.N,OPTO_VB*%
%TO.C,R4*%
X56000000Y-41000000D03*
%TO.N,GND*%
X66160000Y-41000000D03*
%TD*%
D16*
%TO.N,D1_TX*%
%TO.C,JMD3*%
X61910000Y-220000000D03*
D17*
%TO.N,D0_RX*%
X64450000Y-220000000D03*
%TD*%
D12*
%TO.N,MIDI_IN_4*%
%TO.C,R1*%
X20000000Y-33000000D03*
%TO.N,OPTO_ANODE*%
X30160000Y-33000000D03*
%TD*%
%TO.N,MUX_CH1*%
%TO.C,C18*%
X150000000Y-184000000D03*
%TO.N,GND*%
X155000000Y-184000000D03*
%TD*%
D13*
%TO.N,GND*%
%TO.C,D6*%
X160000000Y-132000000D03*
D14*
%TO.N,LED4_A*%
X160000000Y-129460000D03*
%TD*%
D13*
%TO.N,+5V*%
%TO.C,RV7*%
X94000000Y-92000000D03*
D14*
%TO.N,POT7_W*%
X96500000Y-92000000D03*
%TO.N,GND*%
X99000000Y-92000000D03*
D15*
%TO.N,N/C*%
X92100000Y-85000000D03*
X100900000Y-85000000D03*
%TD*%
D12*
%TO.N,A14*%
%TO.C,C13*%
X146000000Y-122000000D03*
%TO.N,GND*%
X146000000Y-117000000D03*
%TD*%
%TO.N,A7*%
%TO.C,C15*%
X82000000Y-148000000D03*
%TO.N,GND*%
X82000000Y-143000000D03*
%TD*%
D16*
%TO.N,D10*%
%TO.C,JMD2*%
X46670000Y-220000000D03*
D17*
%TO.N,D11*%
X49210000Y-220000000D03*
%TO.N,D12*%
X51750000Y-220000000D03*
%TD*%
D12*
%TO.N,POT9_W*%
%TO.C,R18*%
X44000000Y-114000000D03*
%TO.N,A2*%
X44000000Y-103840000D03*
%TD*%
%TO.N,A6*%
%TO.C,C11*%
X82000000Y-122000000D03*
%TO.N,GND*%
X82000000Y-117000000D03*
%TD*%
D13*
%TO.N,+5V*%
%TO.C,RV3*%
X94000000Y-66000000D03*
D14*
%TO.N,POT3_W*%
X96500000Y-66000000D03*
%TO.N,GND*%
X99000000Y-66000000D03*
D15*
%TO.N,N/C*%
X92100000Y-59000000D03*
X100900000Y-59000000D03*
%TD*%
D12*
%TO.N,POT5_W*%
%TO.C,R14*%
X44000000Y-88000000D03*
%TO.N,A1*%
X44000000Y-77840000D03*
%TD*%
D18*
%TO.N,*%
%TO.C,J1*%
X17000000Y-23700000D03*
X27000000Y-23700000D03*
D19*
%TO.N,N/C*%
X14700000Y-14000000D03*
%TO.N,GND*%
X22000000Y-14000000D03*
%TO.N,N/C*%
X29300000Y-14000000D03*
%TO.N,MIDI_IN_4*%
X27000000Y-11500000D03*
%TO.N,OPTO_CATHODE*%
X17000000Y-11500000D03*
%TD*%
D13*
%TO.N,+5V*%
%TO.C,RV16*%
X126000000Y-144000000D03*
D14*
%TO.N,POT16_W*%
X128500000Y-144000000D03*
%TO.N,GND*%
X131000000Y-144000000D03*
D15*
%TO.N,N/C*%
X124100000Y-137000000D03*
X132900000Y-137000000D03*
%TD*%
D12*
%TO.N,POT2_W*%
%TO.C,R11*%
X76000000Y-62000000D03*
%TO.N,A5*%
X76000000Y-51840000D03*
%TD*%
%TO.N,A9*%
%TO.C,C8*%
X114000000Y-96000000D03*
%TO.N,GND*%
X114000000Y-91000000D03*
%TD*%
%TO.N,A11*%
%TO.C,C16*%
X114000000Y-148000000D03*
%TO.N,GND*%
X114000000Y-143000000D03*
%TD*%
%TO.N,D9*%
%TO.C,R9*%
X152000000Y-132000000D03*
%TO.N,LED4_A*%
X152000000Y-121840000D03*
%TD*%
D20*
%TO.N,D7*%
%TO.C,SW2*%
X10000000Y-66000000D03*
X16500000Y-66000000D03*
%TO.N,GND*%
X10000000Y-70500000D03*
X16500000Y-70500000D03*
%TD*%
D12*
%TO.N,A8*%
%TO.C,C4*%
X114000000Y-70000000D03*
%TO.N,GND*%
X114000000Y-65000000D03*
%TD*%
D20*
%TO.N,D6*%
%TO.C,SW4*%
X10000000Y-110000000D03*
X16500000Y-110000000D03*
%TO.N,GND*%
X10000000Y-114500000D03*
X16500000Y-114500000D03*
%TD*%
D12*
%TO.N,A13*%
%TO.C,C9*%
X146000000Y-96000000D03*
%TO.N,GND*%
X146000000Y-91000000D03*
%TD*%
D16*
%TO.N,N/C*%
%TO.C,JMA1*%
X28890000Y-172000000D03*
D17*
X31430000Y-172000000D03*
X33970000Y-172000000D03*
X36510000Y-172000000D03*
%TO.N,+5V*%
X39050000Y-172000000D03*
%TO.N,GND*%
X41590000Y-172000000D03*
X44130000Y-172000000D03*
%TO.N,VIN_RAW*%
X46670000Y-172000000D03*
%TD*%
D13*
%TO.N,+5V*%
%TO.C,RV12*%
X126000000Y-118000000D03*
D14*
%TO.N,POT12_W*%
X128500000Y-118000000D03*
%TO.N,GND*%
X131000000Y-118000000D03*
D15*
%TO.N,N/C*%
X124100000Y-111000000D03*
X132900000Y-111000000D03*
%TD*%
D12*
%TO.N,MUX_CH0*%
%TO.C,C17*%
X146000000Y-148000000D03*
%TO.N,GND*%
X146000000Y-143000000D03*
%TD*%
D21*
%TO.N,N/C*%
%TO.C,U1*%
X38000000Y-37000000D03*
D12*
%TO.N,OPTO_ANODE*%
X38000000Y-39540000D03*
%TO.N,OPTO_CATHODE*%
X38000000Y-42080000D03*
%TO.N,N/C*%
X38000000Y-44620000D03*
%TO.N,GND*%
X45620000Y-44620000D03*
%TO.N,OPTO_VO*%
X45620000Y-42080000D03*
%TO.N,OPTO_VB*%
X45620000Y-39540000D03*
%TO.N,+5V*%
X45620000Y-37000000D03*
%TD*%
%TO.N,A1*%
%TO.C,C6*%
X50000000Y-96000000D03*
%TO.N,GND*%
X50000000Y-91000000D03*
%TD*%
%TO.N,MIDI_OUT_5*%
%TO.C,R3*%
X100000000Y-41000000D03*
%TO.N,D1_TX*%
X110160000Y-41000000D03*
%TD*%
D13*
%TO.N,GND*%
%TO.C,D3*%
X160000000Y-66000000D03*
D14*
%TO.N,LED1_A*%
X160000000Y-63460000D03*
%TD*%
D12*
%TO.N,POT3_W*%
%TO.C,R12*%
X108000000Y-62000000D03*
%TO.N,A8*%
X108000000Y-51840000D03*
%TD*%
%TO.N,POT7_W*%
%TO.C,R16*%
X108000000Y-88000000D03*
%TO.N,A9*%
X108000000Y-77840000D03*
%TD*%
%TO.N,POT16_W*%
%TO.C,R25*%
X140000000Y-140000000D03*
%TO.N,MUX_CH0*%
X140000000Y-129840000D03*
%TD*%
D16*
%TO.N,A0*%
%TO.C,JMA2*%
X51750000Y-172000000D03*
D17*
%TO.N,A1*%
X54290000Y-172000000D03*
%TO.N,A2*%
X56830000Y-172000000D03*
%TO.N,A3*%
X59370000Y-172000000D03*
%TO.N,A4*%
X61910000Y-172000000D03*
%TO.N,A5*%
X64450000Y-172000000D03*
%TO.N,A6*%
X66990000Y-172000000D03*
%TO.N,A7*%
X69530000Y-172000000D03*
%TD*%
D16*
%TO.N,D2*%
%TO.C,JMD1*%
X20000000Y-220000000D03*
D17*
%TO.N,D3*%
X22540000Y-220000000D03*
%TO.N,D4*%
X25080000Y-220000000D03*
%TO.N,GND*%
X27620000Y-220000000D03*
%TO.N,D13*%
X30160000Y-220000000D03*
%TO.N,D5*%
X32700000Y-220000000D03*
%TO.N,D6*%
X35240000Y-220000000D03*
%TO.N,D7*%
X37780000Y-220000000D03*
%TO.N,D8*%
X40320000Y-220000000D03*
%TO.N,D9*%
X42860000Y-220000000D03*
%TD*%
D12*
%TO.N,A4*%
%TO.C,C7*%
X82000000Y-96000000D03*
%TO.N,GND*%
X82000000Y-91000000D03*
%TD*%
D13*
%TO.N,+5V*%
%TO.C,RV15*%
X94000000Y-144000000D03*
D14*
%TO.N,POT15_W*%
X96500000Y-144000000D03*
%TO.N,GND*%
X99000000Y-144000000D03*
D15*
%TO.N,N/C*%
X92100000Y-137000000D03*
X100900000Y-137000000D03*
%TD*%
D12*
%TO.N,POT14_W*%
%TO.C,R23*%
X76000000Y-140000000D03*
%TO.N,A7*%
X76000000Y-129840000D03*
%TD*%
%TO.N,MIDI_OUT_4*%
%TO.C,R2*%
X100000000Y-33000000D03*
%TO.N,+5V*%
X110160000Y-33000000D03*
%TD*%
D20*
%TO.N,D5*%
%TO.C,SW5*%
X10000000Y-132000000D03*
X16500000Y-132000000D03*
%TO.N,GND*%
X10000000Y-136500000D03*
X16500000Y-136500000D03*
%TD*%
D12*
%TO.N,D10*%
%TO.C,R8*%
X152000000Y-110000000D03*
%TO.N,LED3_A*%
X152000000Y-99840000D03*
%TD*%
%TO.N,POT10_W*%
%TO.C,R19*%
X76000000Y-114000000D03*
%TO.N,A6*%
X76000000Y-103840000D03*
%TD*%
D13*
%TO.N,GND*%
%TO.C,D4*%
X160000000Y-88000000D03*
D14*
%TO.N,LED2_A*%
X160000000Y-85460000D03*
%TD*%
D12*
%TO.N,OPTO_VO*%
%TO.C,R5*%
X56000000Y-33000000D03*
%TO.N,+5V*%
X66160000Y-33000000D03*
%TD*%
D21*
%TO.N,OPTO_ANODE*%
%TO.C,D1*%
X20000000Y-41000000D03*
D12*
%TO.N,OPTO_CATHODE*%
X27620000Y-41000000D03*
%TD*%
D27*
%TO.N,VIN_RAW*%
%TO.C,J3*%
X120000000Y-14000000D03*
D28*
%TO.N,GND*%
X114000000Y-14000000D03*
D29*
%TO.N,N/C*%
X117000000Y-18700000D03*
%TD*%
D12*
%TO.N,D11*%
%TO.C,R7*%
X152000000Y-88000000D03*
%TO.N,LED2_A*%
X152000000Y-77840000D03*
%TD*%
%TO.N,A12*%
%TO.C,C5*%
X146000000Y-70000000D03*
%TO.N,GND*%
X146000000Y-65000000D03*
%TD*%
%TO.N,A3*%
%TO.C,C14*%
X50000000Y-148000000D03*
%TO.N,GND*%
X50000000Y-143000000D03*
%TD*%
%TO.N,A2*%
%TO.C,C10*%
X50000000Y-122000000D03*
%TO.N,GND*%
X50000000Y-117000000D03*
%TD*%
D13*
%TO.N,+5V*%
%TO.C,RV4*%
X126000000Y-66000000D03*
D14*
%TO.N,POT4_W*%
X128500000Y-66000000D03*
%TO.N,GND*%
X131000000Y-66000000D03*
D15*
%TO.N,N/C*%
X124100000Y-59000000D03*
X132900000Y-59000000D03*
%TD*%
D13*
%TO.N,+5V*%
%TO.C,RV1*%
X30000000Y-66000000D03*
D14*
%TO.N,POT1_W*%
X32500000Y-66000000D03*
%TO.N,GND*%
X35000000Y-66000000D03*
D15*
%TO.N,N/C*%
X28100000Y-59000000D03*
X36900000Y-59000000D03*
%TD*%
D12*
%TO.N,D12*%
%TO.C,R6*%
X152000000Y-66000000D03*
%TO.N,LED1_A*%
X152000000Y-55840000D03*
%TD*%
D30*
%TO.N,JACK_W*%
X95241500Y-184000000D03*
%TO.N,+5V*%
X132620900Y-27591300D03*
%TO.N,VIN_RAW*%
X46670000Y-56727000D03*
%TO.N,A8*%
X98555200Y-138677800D03*
%TO.N,A12*%
X84770000Y-86899800D03*
%TO.N,A9*%
X106050100Y-143099900D03*
%TO.N,A13*%
X87310000Y-117136700D03*
%TO.N,A6*%
X73099400Y-173166400D03*
%TO.N,D12*%
X148337700Y-221155600D03*
%TO.N,D11*%
X49090600Y-120203600D03*
%TO.N,D10*%
X46670000Y-181480300D03*
%TO.N,D9*%
X152000000Y-198838300D03*
%TD*%
%TO.N,MIDI_IN_4*%
D31*
X20000000Y-18500000D02*
X27000000Y-11500000D01*
X20000000Y-33000000D02*
X20000000Y-18500000D01*
%TO.N,OPTO_CATHODE*%
X26399700Y-41000000D02*
X18601700Y-33202000D01*
X18601700Y-13101700D02*
X17000000Y-11500000D01*
X18601700Y-33202000D02*
X18601700Y-13101700D01*
X27620000Y-41000000D02*
X26399700Y-41000000D01*
%TO.N,JACK_W*%
X95241500Y-26737200D02*
X95241500Y-184000000D01*
X86000000Y-14000000D02*
X86000000Y-17495700D01*
X86000000Y-17495700D02*
X95241500Y-26737200D01*
%TO.N,+5V*%
X62406200Y-119607900D02*
X62000000Y-119201700D01*
X30406200Y-119607900D02*
X30000000Y-119201700D01*
X62000000Y-66000000D02*
X62000000Y-64798300D01*
X62000000Y-92000000D02*
X62000000Y-93201700D01*
X135240000Y-172000000D02*
X126000000Y-162760000D01*
X30000000Y-116798300D02*
X30406200Y-116392100D01*
X30000000Y-118000000D02*
X30000000Y-119201700D01*
X126000000Y-118000000D02*
X126000000Y-119201700D01*
X62406200Y-142392100D02*
X62406200Y-119607900D01*
X62406200Y-67607900D02*
X62000000Y-67201700D01*
X94000000Y-118000000D02*
X94000000Y-116798300D01*
X30000000Y-92000000D02*
X30000000Y-90798300D01*
X151617800Y-26922200D02*
X151617800Y-14157800D01*
X94000000Y-144000000D02*
X94000000Y-142798300D01*
X126000000Y-64798300D02*
X126425100Y-64373200D01*
X70000000Y-43284000D02*
X70000000Y-37000000D01*
X94406200Y-119607900D02*
X94000000Y-119201700D01*
X94000000Y-66000000D02*
X94000000Y-67201700D01*
X62406200Y-93607900D02*
X62000000Y-93201700D01*
X150000000Y-28540000D02*
X151617800Y-26922200D01*
X94000000Y-90798300D02*
X94406200Y-90392100D01*
X94000000Y-118000000D02*
X94000000Y-119201700D01*
X94406200Y-116392100D02*
X94000000Y-116798300D01*
X126406200Y-142392100D02*
X126406200Y-119607900D01*
X126000000Y-66000000D02*
X126000000Y-67201700D01*
X39050000Y-154251700D02*
X30000000Y-145201700D01*
X94406200Y-93607900D02*
X94406200Y-116392100D01*
X30000000Y-66000000D02*
X30000000Y-67201700D01*
X63201700Y-50082300D02*
X70000000Y-43284000D01*
X30406200Y-93607900D02*
X30000000Y-93201700D01*
X126000000Y-162760000D02*
X126000000Y-144000000D01*
X62406200Y-116392100D02*
X62406200Y-93607900D01*
X62000000Y-118000000D02*
X62000000Y-119201700D01*
X30000000Y-92000000D02*
X30000000Y-93201700D01*
X94000000Y-92000000D02*
X94000000Y-93201700D01*
X126406200Y-119607900D02*
X126000000Y-119201700D01*
X39050000Y-172000000D02*
X39050000Y-154251700D01*
X30406200Y-90392100D02*
X30406200Y-67607900D01*
X62000000Y-142798300D02*
X62406200Y-142392100D01*
X94000000Y-92000000D02*
X94000000Y-90798300D01*
X62000000Y-64798300D02*
X63201700Y-63596600D01*
X30000000Y-144000000D02*
X30000000Y-142798300D01*
X126000000Y-90798300D02*
X126404600Y-90393700D01*
X126404600Y-90393700D02*
X126404600Y-67606300D01*
X62000000Y-90798300D02*
X62406200Y-90392100D01*
X126404600Y-67606300D02*
X126000000Y-67201700D01*
X94406200Y-67607900D02*
X94000000Y-67201700D01*
X126425100Y-32425100D02*
X120000000Y-26000000D01*
X94406200Y-90392100D02*
X94406200Y-67607900D01*
X126000000Y-66000000D02*
X126000000Y-64798300D01*
X127787100Y-32425100D02*
X132620900Y-27591300D01*
X62000000Y-92000000D02*
X62000000Y-90798300D01*
X94000000Y-142798300D02*
X94406200Y-142392100D01*
X126000000Y-92000000D02*
X126000000Y-90798300D01*
X94000000Y-93201700D02*
X94406200Y-93607900D01*
X30000000Y-142798300D02*
X30406200Y-142392100D01*
X30000000Y-144000000D02*
X30000000Y-145201700D01*
X30000000Y-118000000D02*
X30000000Y-116798300D01*
X30406200Y-116392100D02*
X30406200Y-93607900D01*
X126425100Y-64373200D02*
X126425100Y-32425100D01*
X30000000Y-90798300D02*
X30406200Y-90392100D01*
X126000000Y-144000000D02*
X126000000Y-142798300D01*
X62000000Y-118000000D02*
X62000000Y-116798300D01*
X30406200Y-142392100D02*
X30406200Y-119607900D01*
X62000000Y-116798300D02*
X62406200Y-116392100D01*
X126000000Y-142798300D02*
X126406200Y-142392100D01*
X62406200Y-90392100D02*
X62406200Y-67607900D01*
X126425100Y-32425100D02*
X127787100Y-32425100D01*
X62000000Y-66000000D02*
X62000000Y-67201700D01*
X62000000Y-144000000D02*
X62000000Y-142798300D01*
X63201700Y-63596600D02*
X63201700Y-50082300D01*
X151617800Y-14157800D02*
X150000000Y-12540000D01*
X94406200Y-142392100D02*
X94406200Y-119607900D01*
X30406200Y-67607900D02*
X30000000Y-67201700D01*
%TO.N,VIN_RAW*%
X46670000Y-172000000D02*
X46670000Y-56727000D01*
%TO.N,D21_SCL*%
X130595500Y-109820300D02*
X130595500Y-111177800D01*
X135248600Y-34026200D02*
X135248600Y-105167200D01*
X117713400Y-124059900D02*
X117713400Y-189596600D01*
X151216100Y-16296100D02*
X151216100Y-18058700D01*
X135248600Y-105167200D02*
X130595500Y-109820300D01*
X150000000Y-15080000D02*
X151216100Y-16296100D01*
X151216100Y-18058700D02*
X135248600Y-34026200D01*
X117713400Y-189596600D02*
X87310000Y-220000000D01*
X130595500Y-111177800D02*
X117713400Y-124059900D01*
%TO.N,D20_SDA*%
X129750000Y-110448100D02*
X116009100Y-124189000D01*
X116009100Y-187609200D02*
X84770000Y-218848300D01*
X84770000Y-220000000D02*
X84770000Y-218848300D01*
X129750000Y-37870000D02*
X129750000Y-110448100D01*
X116009100Y-124189000D02*
X116009100Y-187609200D01*
X150000000Y-17620000D02*
X129750000Y-37870000D01*
%TO.N,D0_RX*%
X78420000Y-206030000D02*
X64450000Y-220000000D01*
X78420000Y-171620900D02*
X78420000Y-206030000D01*
X84000000Y-35000000D02*
X84000000Y-166040900D01*
X84000000Y-166040900D02*
X78420000Y-171620900D01*
%TO.N,D1_TX*%
X97750100Y-53409900D02*
X110160000Y-41000000D01*
X63061700Y-220000000D02*
X63061700Y-220287900D01*
X63935000Y-221161200D02*
X64943900Y-221161200D01*
X97750100Y-188355000D02*
X97750100Y-53409900D01*
X61910000Y-220000000D02*
X63061700Y-220000000D01*
X64943900Y-221161200D02*
X97750100Y-188355000D01*
X63061700Y-220287900D02*
X63935000Y-221161200D01*
%TO.N,D7*%
X40832400Y-221151700D02*
X41512300Y-220471800D01*
X37780000Y-220000000D02*
X38931700Y-221151700D01*
X24752900Y-74252900D02*
X16500000Y-66000000D01*
X38931700Y-221151700D02*
X40832400Y-221151700D01*
X41512300Y-220471800D02*
X41512300Y-183982300D01*
X41512300Y-183982300D02*
X32601300Y-175071300D01*
X24752900Y-159147900D02*
X24752900Y-74252900D01*
X32601300Y-175071300D02*
X32601300Y-166996300D01*
X32601300Y-166996300D02*
X24752900Y-159147900D01*
%TO.N,D8*%
X40320000Y-220000000D02*
X19699800Y-199379800D01*
X19699800Y-199379800D02*
X19699800Y-91199800D01*
X19699800Y-91199800D02*
X16500000Y-88000000D01*
%TO.N,D6*%
X35240000Y-220000000D02*
X18227900Y-202987900D01*
X18227900Y-111727900D02*
X16500000Y-110000000D01*
X18227900Y-202987900D02*
X18227900Y-111727900D01*
%TO.N,D5*%
X17813900Y-205113900D02*
X17813900Y-133313900D01*
X32700000Y-220000000D02*
X17813900Y-205113900D01*
X17813900Y-133313900D02*
X16500000Y-132000000D01*
%TO.N,A0*%
X48030900Y-70000000D02*
X48030900Y-55870900D01*
X48030900Y-55870900D02*
X44000000Y-51840000D01*
X51750000Y-172000000D02*
X51750000Y-170848300D01*
X47669000Y-166767300D02*
X51750000Y-170848300D01*
X47669000Y-70361900D02*
X47669000Y-166767300D01*
X48030900Y-70000000D02*
X47669000Y-70361900D01*
X48030900Y-70000000D02*
X50000000Y-70000000D01*
%TO.N,A5*%
X77117700Y-66539300D02*
X65750000Y-77907000D01*
X65750000Y-164559600D02*
X60731500Y-169578100D01*
X65750000Y-77907000D02*
X65750000Y-164559600D01*
X78539300Y-66539300D02*
X77117700Y-66539300D01*
X82000000Y-70000000D02*
X78539300Y-66539300D01*
X77117700Y-52957700D02*
X76000000Y-51840000D01*
X60731500Y-169578100D02*
X60731500Y-172484100D01*
X77117700Y-66539300D02*
X77117700Y-52957700D01*
X61402200Y-173154800D02*
X63295200Y-173154800D01*
X63295200Y-173154800D02*
X64450000Y-172000000D01*
X60731500Y-172484100D02*
X61402200Y-173154800D01*
%TO.N,A8*%
X109385600Y-53225600D02*
X108000000Y-51840000D01*
X98555200Y-123767400D02*
X103261100Y-119061500D01*
X109385600Y-65385600D02*
X109385600Y-53225600D01*
X103261100Y-80738900D02*
X114000000Y-70000000D01*
X103261100Y-119061500D02*
X103261100Y-80738900D01*
X114000000Y-70000000D02*
X109385600Y-65385600D01*
X98555200Y-138677800D02*
X98555200Y-123767400D01*
%TO.N,A12*%
X138872500Y-52967500D02*
X140000000Y-51840000D01*
X146000000Y-70000000D02*
X138872500Y-62872500D01*
X138872500Y-62872500D02*
X138872500Y-52967500D01*
X84770000Y-172000000D02*
X84770000Y-86899800D01*
%TO.N,A1*%
X50000000Y-96000000D02*
X48070700Y-97929300D01*
X48070700Y-97929300D02*
X48070700Y-165780700D01*
X48070700Y-165780700D02*
X54290000Y-172000000D01*
%TO.N,A4*%
X79455700Y-81295700D02*
X76000000Y-77840000D01*
X79455700Y-96000000D02*
X79455700Y-81295700D01*
X79455700Y-96000000D02*
X82000000Y-96000000D01*
X61910000Y-172000000D02*
X72575400Y-161334600D01*
X72575400Y-102880300D02*
X79455700Y-96000000D01*
X72575400Y-161334600D02*
X72575400Y-102880300D01*
%TO.N,A9*%
X112500100Y-82340100D02*
X108000000Y-77840000D01*
X106050100Y-143099900D02*
X106050100Y-102452100D01*
X106285500Y-102216700D02*
X106285500Y-102214600D01*
X112500100Y-96000000D02*
X112500100Y-82340100D01*
X106050100Y-102452100D02*
X106285500Y-102216700D01*
X106285500Y-102214600D02*
X112500100Y-96000000D01*
X114000000Y-96000000D02*
X112500100Y-96000000D01*
%TO.N,A13*%
X142262700Y-92262700D02*
X142262700Y-80102700D01*
X146000000Y-96000000D02*
X142262700Y-92262700D01*
X87310000Y-172000000D02*
X87310000Y-117136700D01*
X142262700Y-80102700D02*
X140000000Y-77840000D01*
%TO.N,A2*%
X48888600Y-123111400D02*
X50000000Y-122000000D01*
X56830000Y-170545300D02*
X48888600Y-162603900D01*
X48888600Y-162603900D02*
X48888600Y-123111400D01*
X56830000Y-172000000D02*
X56830000Y-170545300D01*
%TO.N,A6*%
X73099400Y-173166400D02*
X73099400Y-128553400D01*
X79652800Y-122000000D02*
X82000000Y-122000000D01*
X79652800Y-107492800D02*
X76000000Y-103840000D01*
X79652800Y-122000000D02*
X79652800Y-107492800D01*
X73099400Y-128553400D02*
X79652800Y-122000000D01*
%TO.N,A10*%
X112500100Y-120500100D02*
X112500100Y-108340100D01*
X114000000Y-122000000D02*
X112500100Y-120500100D01*
X112500100Y-108340100D02*
X108000000Y-103840000D01*
%TO.N,A14*%
X146000000Y-122000000D02*
X142262700Y-118262700D01*
X142262700Y-118262700D02*
X142262700Y-106102700D01*
X142262700Y-106102700D02*
X140000000Y-103840000D01*
%TO.N,A3*%
X59370000Y-172000000D02*
X59370000Y-157370000D01*
X59370000Y-157370000D02*
X50000000Y-148000000D01*
%TO.N,A7*%
X80152400Y-146152400D02*
X80152400Y-133992400D01*
X80152400Y-133992400D02*
X76000000Y-129840000D01*
X82000000Y-148000000D02*
X80152400Y-146152400D01*
%TO.N,A11*%
X112500100Y-134340100D02*
X108000000Y-129840000D01*
X114000000Y-148000000D02*
X112500100Y-146500100D01*
X112500100Y-146500100D02*
X112500100Y-134340100D01*
%TO.N,MUX_CH0*%
X142262700Y-144262700D02*
X142262700Y-132102700D01*
X120000000Y-192320000D02*
X133970000Y-178350000D01*
X146000000Y-167949500D02*
X146000000Y-148000000D01*
X133970000Y-178350000D02*
X135599500Y-178350000D01*
X135599500Y-178350000D02*
X146000000Y-167949500D01*
X146000000Y-148000000D02*
X142262700Y-144262700D01*
X142262700Y-132102700D02*
X140000000Y-129840000D01*
%TO.N,D12*%
X152000000Y-66000000D02*
X148337700Y-69662300D01*
X148337700Y-69662300D02*
X148337700Y-221155600D01*
%TO.N,D11*%
X55455100Y-213754900D02*
X55455100Y-169738500D01*
X55455100Y-169738500D02*
X48472400Y-162755800D01*
X48472400Y-120821800D02*
X49090600Y-120203600D01*
X49210000Y-220000000D02*
X55455100Y-213754900D01*
X48472400Y-162755800D02*
X48472400Y-120821800D01*
%TO.N,D10*%
X46670000Y-181480300D02*
X46670000Y-220000000D01*
%TO.N,D9*%
X152000000Y-132000000D02*
X152000000Y-198838300D01*
%TD*%
M02*
