M48
; DRILL file KiCad 10.0.3 date 2026-07-28T16:30:04
; FORMAT={-:-/ absolute / metric / decimal}
; #@! TF.CreationDate,2026-07-28T16:30:04+02:00
; #@! TF.GenerationSoftware,Kicad,Pcbnew,10.0.3
; #@! TF.FileFunction,MixedPlating,1,4
FMAT,2
METRIC
; #@! TA.AperFunction,Plated,PTH,ViaDrill
T1C0.300
; #@! TA.AperFunction,Plated,PTH,ComponentDrill
T2C0.800
; #@! TA.AperFunction,Plated,PTH,ComponentDrill
T3C0.900
; #@! TA.AperFunction,Plated,PTH,ComponentDrill
T4C1.000
; #@! TA.AperFunction,Plated,PTH,ComponentDrill
T5C1.016
; #@! TA.AperFunction,Plated,PTH,ComponentDrill
T6C1.100
; #@! TA.AperFunction,Plated,PTH,ComponentDrill
T7C1.400
; #@! TA.AperFunction,Plated,PTH,ComponentDrill
T8C1.800
; #@! TA.AperFunction,NonPlated,NPTH,ComponentDrill
T9C1.778
; #@! TA.AperFunction,NonPlated,NPTH,ComponentDrill
T10C3.200
%
G90
G05
T1
X44.1Y-101.755
X45.667Y-157.957
X71.105Y-131.236
X72.483Y-129.526
X77.795Y-90.391
X80.764Y-92.724
X84.41Y-142.532
X94.769Y-91.394
X95.609Y-90.594
X95.96Y-106.061
X106.702Y-87.152
X112.979Y-124.853
X154.705Y-104.799
X155.801Y-105.316
T2
X34.0Y-59.0
X34.0Y-65.0
X41.62Y-59.0
X43.0Y-89.84
X43.0Y-100.0
X43.0Y-149.84
X43.0Y-160.0
X44.16Y-65.0
X48.0Y-54.0
X48.0Y-56.54
X48.0Y-59.08
X48.0Y-61.62
X50.0Y-164.76
X50.0Y-180.0
X52.54Y-164.76
X52.54Y-180.0
X55.08Y-164.76
X55.08Y-180.0
X55.62Y-54.0
X55.62Y-56.54
X55.62Y-59.08
X55.62Y-61.62
X57.62Y-164.76
X57.62Y-180.0
X60.16Y-164.76
X60.16Y-180.0
X61.0Y-74.0
X61.0Y-79.0
X61.0Y-98.0
X61.0Y-103.0
X61.0Y-122.0
X61.0Y-127.0
X61.0Y-146.0
X61.0Y-151.0
X62.7Y-164.76
X62.7Y-180.0
X65.24Y-164.76
X65.24Y-180.0
X66.0Y-79.0
X66.0Y-103.0
X66.0Y-127.0
X66.0Y-151.0
X67.78Y-164.76
X67.78Y-180.0
X68.0Y-59.0
X68.0Y-65.0
X70.32Y-164.76
X70.32Y-180.0
X71.16Y-74.0
X71.16Y-98.0
X71.16Y-122.0
X71.16Y-146.0
X72.86Y-164.76
X72.86Y-180.0
X75.4Y-164.76
X75.4Y-180.0
X77.94Y-164.76
X77.94Y-180.0
X78.16Y-59.0
X78.16Y-65.0
X80.0Y-62.0
X85.0Y-62.0
X86.0Y-182.0
X92.0Y-60.0
X92.0Y-66.0
X93.0Y-74.0
X93.0Y-79.0
X93.0Y-98.0
X93.0Y-103.0
X93.0Y-122.0
X93.0Y-127.0
X93.0Y-146.0
X93.0Y-151.0
X96.16Y-182.0
X98.0Y-79.0
X98.0Y-103.0
X98.0Y-127.0
X98.0Y-151.0
X99.0Y-182.0
X102.16Y-60.0
X102.16Y-66.0
X103.16Y-74.0
X103.16Y-98.0
X103.16Y-122.0
X103.16Y-146.0
X104.0Y-182.0
X108.0Y-182.0
X112.0Y-172.0
X118.16Y-182.0
X122.16Y-172.0
X125.0Y-74.0
X125.0Y-79.0
X125.0Y-84.84
X125.0Y-95.0
X125.0Y-108.84
X125.0Y-119.0
X125.0Y-146.0
X125.0Y-151.0
X130.0Y-79.0
X130.0Y-151.0
X135.16Y-74.0
X135.16Y-146.0
X136.0Y-172.0
X138.0Y-99.0
X138.0Y-104.0
X138.0Y-123.0
X138.0Y-128.0
X141.0Y-172.0
X157.0Y-74.0
X157.0Y-79.0
X157.0Y-98.0
X157.0Y-103.0
X157.0Y-122.0
X157.0Y-127.0
X157.0Y-146.0
X157.0Y-151.0
X162.0Y-64.0
X162.0Y-79.0
X162.0Y-103.0
X162.0Y-127.0
X162.0Y-151.0
X164.5Y-64.0
X167.16Y-74.0
X167.16Y-98.0
X167.16Y-122.0
X167.16Y-146.0
X186.0Y-49.84
X186.0Y-60.0
X186.0Y-73.84
X186.0Y-84.0
X186.0Y-97.84
X186.0Y-108.0
X186.0Y-121.84
X186.0Y-132.0
X186.0Y-145.84
X186.0Y-156.0
T3
X35.0Y-100.0
X35.0Y-160.0
X37.54Y-100.0
X37.54Y-160.0
X178.0Y-60.0
X178.0Y-84.0
X178.0Y-108.0
X178.0Y-132.0
X178.0Y-156.0
X180.54Y-60.0
X180.54Y-84.0
X180.54Y-108.0
X180.54Y-132.0
X180.54Y-156.0
T4
X36.016Y-86.0
X38.556Y-86.0
X41.096Y-86.0
X43.636Y-86.0
X45.16Y-134.26
X46.176Y-86.0
X47.7Y-134.26
X48.716Y-86.0
X50.0Y-80.0
X50.0Y-104.0
X50.0Y-128.0
X50.0Y-152.0
X50.24Y-134.26
X51.256Y-86.0
X52.5Y-80.0
X52.5Y-104.0
X52.5Y-128.0
X52.5Y-152.0
X52.78Y-134.26
X53.796Y-86.0
X55.0Y-80.0
X55.0Y-104.0
X55.0Y-128.0
X55.0Y-152.0
X55.32Y-134.26
X56.336Y-86.0
X57.86Y-134.26
X58.876Y-86.0
X60.4Y-134.26
X62.94Y-86.0
X62.94Y-134.26
X65.48Y-86.0
X68.02Y-86.0
X68.02Y-134.26
X70.56Y-86.0
X70.56Y-134.26
X73.1Y-86.0
X73.1Y-134.26
X75.64Y-86.0
X75.64Y-134.26
X78.18Y-86.0
X78.18Y-134.26
X80.72Y-86.0
X80.72Y-134.26
X82.0Y-80.0
X82.0Y-104.0
X82.0Y-128.0
X82.0Y-152.0
X83.26Y-134.26
X84.5Y-80.0
X84.5Y-104.0
X84.5Y-128.0
X84.5Y-152.0
X85.8Y-86.0
X85.8Y-134.26
X87.0Y-80.0
X87.0Y-104.0
X87.0Y-128.0
X87.0Y-152.0
X88.34Y-86.0
X90.88Y-86.0
X90.88Y-134.26
X93.42Y-86.0
X93.42Y-134.26
X95.96Y-86.0
X95.96Y-134.26
X98.5Y-86.0
X98.5Y-134.26
X101.04Y-86.0
X101.04Y-134.26
X103.58Y-86.0
X103.58Y-134.26
X106.12Y-134.26
X108.66Y-134.26
X110.19Y-37.46
X114.0Y-80.0
X114.0Y-104.0
X114.0Y-128.0
X114.0Y-152.0
X116.5Y-80.0
X116.5Y-104.0
X116.5Y-128.0
X116.5Y-152.0
X119.0Y-80.0
X119.0Y-104.0
X119.0Y-128.0
X119.0Y-152.0
X136.0Y-60.0
X138.54Y-60.0
X141.08Y-60.0
X143.62Y-60.0
X146.0Y-80.0
X146.0Y-104.0
X146.0Y-128.0
X146.0Y-152.0
X148.5Y-80.0
X148.5Y-104.0
X148.5Y-128.0
X148.5Y-152.0
X151.0Y-80.0
X151.0Y-104.0
X151.0Y-128.0
X151.0Y-152.0
X166.0Y-32.0
X168.54Y-32.0
X171.08Y-32.0
X173.62Y-32.0
T5
X108.92Y-40.0
X111.46Y-40.0
X112.73Y-37.46
X114.0Y-40.0
T6
X26.0Y-100.0
X26.0Y-104.5
X26.0Y-160.0
X26.0Y-164.5
X32.5Y-100.0
X32.5Y-104.5
X32.5Y-160.0
X32.5Y-164.5
X150.0Y-52.0
X160.16Y-52.0
X168.0Y-60.0
X168.0Y-64.5
X168.0Y-84.0
X168.0Y-88.5
X168.0Y-108.0
X168.0Y-112.5
X168.0Y-132.0
X168.0Y-136.5
X168.0Y-156.0
X168.0Y-160.5
X174.5Y-60.0
X174.5Y-64.5
X174.5Y-84.0
X174.5Y-88.5
X174.5Y-108.0
X174.5Y-112.5
X174.5Y-132.0
X174.5Y-136.5
X174.5Y-156.0
X174.5Y-160.5
T7
X42.7Y-38.0
X45.0Y-28.3
X45.0Y-40.5
X50.0Y-38.0
X55.0Y-28.3
X55.0Y-40.5
X57.3Y-38.0
X79.7Y-38.0
X82.0Y-28.3
X82.0Y-40.5
X87.0Y-38.0
X92.0Y-28.3
X92.0Y-40.5
X94.3Y-38.0
T9
X104.856Y-34.666
X116.794Y-34.666
T10
X28.0Y-28.0
X28.0Y-184.0
X184.0Y-28.0
X184.0Y-184.0
T4
X132.3Y-35.0G85X134.3Y-35.0
G05
X138.0Y-31.0G85X138.0Y-33.0
G05
X138.0Y-37.0G85X138.0Y-39.0
G05
T8
X47.95Y-73.0G85X48.25Y-73.0
G05
X47.95Y-97.0G85X48.25Y-97.0
G05
X47.95Y-121.0G85X48.25Y-121.0
G05
X47.95Y-145.0G85X48.25Y-145.0
G05
X56.75Y-73.0G85X57.05Y-73.0
G05
X56.75Y-97.0G85X57.05Y-97.0
G05
X56.75Y-121.0G85X57.05Y-121.0
G05
X56.75Y-145.0G85X57.05Y-145.0
G05
X79.95Y-73.0G85X80.25Y-73.0
G05
X79.95Y-97.0G85X80.25Y-97.0
G05
X79.95Y-121.0G85X80.25Y-121.0
G05
X79.95Y-145.0G85X80.25Y-145.0
G05
X88.75Y-73.0G85X89.05Y-73.0
G05
X88.75Y-97.0G85X89.05Y-97.0
G05
X88.75Y-121.0G85X89.05Y-121.0
G05
X88.75Y-145.0G85X89.05Y-145.0
G05
X111.95Y-73.0G85X112.25Y-73.0
G05
X111.95Y-97.0G85X112.25Y-97.0
G05
X111.95Y-121.0G85X112.25Y-121.0
G05
X111.95Y-145.0G85X112.25Y-145.0
G05
X120.75Y-73.0G85X121.05Y-73.0
G05
X120.75Y-97.0G85X121.05Y-97.0
G05
X120.75Y-121.0G85X121.05Y-121.0
G05
X120.75Y-145.0G85X121.05Y-145.0
G05
X143.95Y-73.0G85X144.25Y-73.0
G05
X143.95Y-97.0G85X144.25Y-97.0
G05
X143.95Y-121.0G85X144.25Y-121.0
G05
X143.95Y-145.0G85X144.25Y-145.0
G05
X152.75Y-73.0G85X153.05Y-73.0
G05
X152.75Y-97.0G85X153.05Y-97.0
G05
X152.75Y-121.0G85X153.05Y-121.0
G05
X152.75Y-145.0G85X153.05Y-145.0
G05
M30
