%TF.GenerationSoftware,KiCad,Pcbnew,10.0.3*%
%TF.CreationDate,2026-06-05T22:03:57+02:00*%
%TF.ProjectId,SysEx_Patcher,53797345-785f-4506-9174-636865722e6b,rev?*%
%TF.SameCoordinates,Original*%
%TF.FileFunction,Copper,L2,Inr*%
%TF.FilePolarity,Positive*%
%FSLAX46Y46*%
G04 Gerber Fmt 4.6, Leading zero omitted, Abs format (unit mm)*
G04 Created by KiCad (PCBNEW 10.0.3) date 2026-06-05 22:03:57*
%MOMM*%
%LPD*%
G01*
G04 APERTURE LIST*
G04 Aperture macros list*
%AMRoundRect*
0 Rectangle with rounded corners*
0 $1 Rounding radius*
0 $2 $3 $4 $5 $6 $7 $8 $9 X,Y pos of 4 corners*
0 Add a 4 corners polygon primitive as box body*
4,1,4,$2,$3,$4,$5,$6,$7,$8,$9,$2,$3,0*
0 Add four circle primitives for the rounded corners*
1,1,$1+$1,$2,$3*
1,1,$1+$1,$4,$5*
1,1,$1+$1,$6,$7*
1,1,$1+$1,$8,$9*
0 Add four rect primitives between the rounded corners*
20,1,$1+$1,$2,$3,$4,$5,0*
20,1,$1+$1,$4,$5,$6,$7,0*
20,1,$1+$1,$6,$7,$8,$9,0*
20,1,$1+$1,$8,$9,$2,$3,0*%
G04 Aperture macros list end*
%TA.AperFunction,ComponentPad*%
%ADD10C,1.600000*%
%TD*%
%TA.AperFunction,ComponentPad*%
%ADD11R,1.700000X1.700000*%
%TD*%
%TA.AperFunction,ComponentPad*%
%ADD12C,1.700000*%
%TD*%
%TA.AperFunction,ComponentPad*%
%ADD13R,1.800000X1.800000*%
%TD*%
%TA.AperFunction,ComponentPad*%
%ADD14C,1.800000*%
%TD*%
%TA.AperFunction,ComponentPad*%
%ADD15RoundRect,0.750000X-1.250000X-0.750000X1.250000X-0.750000X1.250000X0.750000X-1.250000X0.750000X0*%
%TD*%
%TA.AperFunction,ComponentPad*%
%ADD16C,2.000000*%
%TD*%
%TA.AperFunction,ComponentPad*%
%ADD17R,3.500000X3.500000*%
%TD*%
%TA.AperFunction,ComponentPad*%
%ADD18RoundRect,0.750000X-0.750000X-1.000000X0.750000X-1.000000X0.750000X1.000000X-0.750000X1.000000X0*%
%TD*%
%TA.AperFunction,ComponentPad*%
%ADD19RoundRect,0.875000X-0.875000X-0.875000X0.875000X-0.875000X0.875000X0.875000X-0.875000X0.875000X0*%
%TD*%
%TA.AperFunction,ComponentPad*%
%ADD20O,2.200000X3.500000*%
%TD*%
%TA.AperFunction,ComponentPad*%
%ADD21R,1.500000X2.500000*%
%TD*%
%TA.AperFunction,ComponentPad*%
%ADD22O,1.500000X2.500000*%
%TD*%
%TA.AperFunction,ComponentPad*%
%ADD23RoundRect,0.250000X-0.550000X-0.550000X0.550000X-0.550000X0.550000X0.550000X-0.550000X0.550000X0*%
%TD*%
%TA.AperFunction,ComponentPad*%
%ADD24RoundRect,0.249999X-0.850001X-0.850001X0.850001X-0.850001X0.850001X0.850001X-0.850001X0.850001X0*%
%TD*%
%TA.AperFunction,ComponentPad*%
%ADD25C,2.200000*%
%TD*%
%TA.AperFunction,ViaPad*%
%ADD26C,0.600000*%
%TD*%
%TA.AperFunction,Conductor*%
%ADD27C,0.200000*%
%TD*%
G04 APERTURE END LIST*
D10*
%TO.N,A11*%
%TO.C,C16*%
X132000000Y-120000000D03*
%TO.N,GND*%
X132000000Y-115000000D03*
%TD*%
%TO.N,A8*%
%TO.C,C4*%
X132000000Y-30000000D03*
%TO.N,GND*%
X132000000Y-25000000D03*
%TD*%
D11*
%TO.N,N/C*%
%TO.C,J1*%
X45000000Y-8000000D03*
D12*
%TO.N,GND*%
X45000000Y-10540000D03*
%TO.N,N/C*%
X45000000Y-13080000D03*
%TO.N,MIDI_IN_4*%
X45000000Y-15620000D03*
%TO.N,OPTO_CATHODE*%
X45000000Y-18160000D03*
%TD*%
D10*
%TO.N,POT9_W*%
%TO.C,R18*%
X57000000Y-90000000D03*
%TO.N,A2*%
X57000000Y-79840000D03*
%TD*%
D13*
%TO.N,+5V*%
%TO.C,RV4*%
X144000000Y-34000000D03*
D14*
%TO.N,POT4_W*%
X146500000Y-34000000D03*
%TO.N,GND*%
X149000000Y-34000000D03*
D15*
%TO.N,N/C*%
X142100000Y-27000000D03*
X150900000Y-27000000D03*
%TD*%
D13*
%TO.N,+5V*%
%TO.C,RV2*%
X76000000Y-34000000D03*
D14*
%TO.N,POT2_W*%
X78500000Y-34000000D03*
%TO.N,GND*%
X81000000Y-34000000D03*
D15*
%TO.N,N/C*%
X74100000Y-27000000D03*
X82900000Y-27000000D03*
%TD*%
D11*
%TO.N,GND*%
%TO.C,J4*%
X195000000Y-15000000D03*
D12*
%TO.N,+5V*%
X195000000Y-17540000D03*
%TO.N,GND*%
X195000000Y-20080000D03*
%TO.N,VIN_RAW*%
X195000000Y-22620000D03*
%TD*%
D10*
%TO.N,POT1_W*%
%TO.C,R10*%
X57000000Y-30000000D03*
%TO.N,A0*%
X57000000Y-19840000D03*
%TD*%
%TO.N,A2*%
%TO.C,C10*%
X64000000Y-90000000D03*
%TO.N,GND*%
X64000000Y-85000000D03*
%TD*%
%TO.N,A7*%
%TO.C,C15*%
X98000000Y-120000000D03*
%TO.N,GND*%
X98000000Y-115000000D03*
%TD*%
%TO.N,A3*%
%TO.C,C14*%
X64000000Y-120000000D03*
%TO.N,GND*%
X64000000Y-115000000D03*
%TD*%
D11*
%TO.N,A2*%
%TO.C,J6C*%
X186000000Y-94000000D03*
D12*
%TO.N,A6*%
X186000000Y-96540000D03*
%TO.N,A10*%
X186000000Y-99080000D03*
%TO.N,A14*%
X186000000Y-101620000D03*
%TD*%
D16*
%TO.N,D6*%
%TO.C,SW4*%
X12000000Y-66000000D03*
X18500000Y-66000000D03*
%TO.N,GND*%
X12000000Y-70500000D03*
X18500000Y-70500000D03*
%TD*%
D13*
%TO.N,+5V*%
%TO.C,RV8*%
X144000000Y-64000000D03*
D14*
%TO.N,POT8_W*%
X146500000Y-64000000D03*
%TO.N,GND*%
X149000000Y-64000000D03*
D15*
%TO.N,N/C*%
X142100000Y-57000000D03*
X150900000Y-57000000D03*
%TD*%
D10*
%TO.N,OPTO_VB*%
%TO.C,R4*%
X25000000Y-24000000D03*
%TO.N,GND*%
X25000000Y-13840000D03*
%TD*%
%TO.N,POT7_W*%
%TO.C,R16*%
X125000000Y-60000000D03*
%TO.N,A9*%
X125000000Y-49840000D03*
%TD*%
%TO.N,POT12_W*%
%TO.C,R21*%
X159000000Y-90000000D03*
%TO.N,A14*%
X159000000Y-79840000D03*
%TD*%
%TO.N,POT4_W*%
%TO.C,R13*%
X159000000Y-30000000D03*
%TO.N,A12*%
X159000000Y-19840000D03*
%TD*%
%TO.N,JACK_W*%
%TO.C,R27*%
X40000000Y-150000000D03*
%TO.N,MUX_CH1*%
X50160000Y-150000000D03*
%TD*%
%TO.N,POT5_W*%
%TO.C,R14*%
X57000000Y-60000000D03*
%TO.N,A1*%
X57000000Y-49840000D03*
%TD*%
%TO.N,POT10_W*%
%TO.C,R19*%
X91000000Y-90000000D03*
%TO.N,A6*%
X91000000Y-79840000D03*
%TD*%
%TO.N,D12*%
%TO.C,R6*%
X8000000Y-104000000D03*
%TO.N,LED1_A*%
X18160000Y-104000000D03*
%TD*%
D13*
%TO.N,+5V*%
%TO.C,RV12*%
X144000000Y-94000000D03*
D14*
%TO.N,POT12_W*%
X146500000Y-94000000D03*
%TO.N,GND*%
X149000000Y-94000000D03*
D15*
%TO.N,N/C*%
X142100000Y-87000000D03*
X150900000Y-87000000D03*
%TD*%
D13*
%TO.N,GND*%
%TO.C,D5*%
X28000000Y-130000000D03*
D14*
%TO.N,LED3_A*%
X30540000Y-130000000D03*
%TD*%
D13*
%TO.N,+5V*%
%TO.C,RV6*%
X76000000Y-64000000D03*
D14*
%TO.N,POT6_W*%
X78500000Y-64000000D03*
%TO.N,GND*%
X81000000Y-64000000D03*
D15*
%TO.N,N/C*%
X74100000Y-57000000D03*
X82900000Y-57000000D03*
%TD*%
D13*
%TO.N,+5V*%
%TO.C,RV15*%
X110000000Y-124000000D03*
D14*
%TO.N,POT15_W*%
X112500000Y-124000000D03*
%TO.N,GND*%
X115000000Y-124000000D03*
D15*
%TO.N,N/C*%
X108100000Y-117000000D03*
X116900000Y-117000000D03*
%TD*%
D10*
%TO.N,MIDI_OUT_4*%
%TO.C,R2*%
X132000000Y-5000000D03*
%TO.N,+5V*%
X142160000Y-5000000D03*
%TD*%
%TO.N,A0*%
%TO.C,C2*%
X64000000Y-30000000D03*
%TO.N,GND*%
X64000000Y-25000000D03*
%TD*%
D11*
%TO.N,D2*%
%TO.C,J7D*%
X100000000Y-150000000D03*
D12*
%TO.N,D3*%
X100000000Y-152540000D03*
%TO.N,D4*%
X100000000Y-155080000D03*
%TO.N,D22*%
X100000000Y-157620000D03*
%TD*%
D11*
%TO.N,D7*%
%TO.C,J7A*%
X34000000Y-70000000D03*
D12*
%TO.N,D8*%
X34000000Y-72540000D03*
%TO.N,D6*%
X34000000Y-75080000D03*
%TO.N,D5*%
X34000000Y-77620000D03*
%TO.N,D12*%
X34000000Y-80160000D03*
%TO.N,D11*%
X34000000Y-82700000D03*
%TO.N,D10*%
X34000000Y-85240000D03*
%TO.N,D9*%
X34000000Y-87780000D03*
%TD*%
D10*
%TO.N,POT3_W*%
%TO.C,R12*%
X125000000Y-30000000D03*
%TO.N,A8*%
X125000000Y-19840000D03*
%TD*%
%TO.N,D9*%
%TO.C,R9*%
X8000000Y-143000000D03*
%TO.N,LED4_A*%
X18160000Y-143000000D03*
%TD*%
D13*
%TO.N,+5V*%
%TO.C,RV10*%
X76000000Y-94000000D03*
D14*
%TO.N,POT10_W*%
X78500000Y-94000000D03*
%TO.N,GND*%
X81000000Y-94000000D03*
D15*
%TO.N,N/C*%
X74100000Y-87000000D03*
X82900000Y-87000000D03*
%TD*%
D17*
%TO.N,VIN_RAW*%
%TO.C,J3*%
X170000000Y-10000000D03*
D18*
%TO.N,GND*%
X164000000Y-10000000D03*
D19*
%TO.N,N/C*%
X167000000Y-14700000D03*
%TD*%
D10*
%TO.N,A1*%
%TO.C,C6*%
X64000000Y-60000000D03*
%TO.N,GND*%
X64000000Y-55000000D03*
%TD*%
%TO.N,POT16_W*%
%TO.C,R25*%
X159000000Y-120000000D03*
%TO.N,MUX_CH0*%
X159000000Y-109840000D03*
%TD*%
%TO.N,OPTO_VO*%
%TO.C,R5*%
X85000000Y-5000000D03*
%TO.N,+5V*%
X95160000Y-5000000D03*
%TD*%
%TO.N,+5V*%
%TO.C,C1*%
X96000000Y-9000000D03*
%TO.N,GND*%
X101000000Y-9000000D03*
%TD*%
%TO.N,A5*%
%TO.C,C3*%
X98000000Y-30000000D03*
%TO.N,GND*%
X98000000Y-25000000D03*
%TD*%
D11*
%TO.N,GND*%
%TO.C,J5*%
X150000000Y-9000000D03*
D12*
%TO.N,+5V*%
X150000000Y-11540000D03*
%TO.N,D21_SCL*%
X150000000Y-14080000D03*
%TO.N,D20_SDA*%
X150000000Y-16620000D03*
%TD*%
D10*
%TO.N,MUX_CH0*%
%TO.C,C17*%
X166000000Y-120000000D03*
%TO.N,GND*%
X166000000Y-115000000D03*
%TD*%
%TO.N,A12*%
%TO.C,C5*%
X166000000Y-30000000D03*
%TO.N,GND*%
X166000000Y-25000000D03*
%TD*%
D13*
%TO.N,GND*%
%TO.C,D6*%
X28000000Y-143000000D03*
D14*
%TO.N,LED4_A*%
X30540000Y-143000000D03*
%TD*%
D10*
%TO.N,POT8_W*%
%TO.C,R17*%
X159000000Y-60000000D03*
%TO.N,A13*%
X159000000Y-49840000D03*
%TD*%
D16*
%TO.N,D8*%
%TO.C,SW3*%
X12000000Y-50000000D03*
X18500000Y-50000000D03*
%TO.N,GND*%
X12000000Y-54500000D03*
X18500000Y-54500000D03*
%TD*%
D10*
%TO.N,A6*%
%TO.C,C11*%
X98000000Y-90000000D03*
%TO.N,GND*%
X98000000Y-85000000D03*
%TD*%
%TO.N,POT15_W*%
%TO.C,R24*%
X125000000Y-120000000D03*
%TO.N,A11*%
X125000000Y-109840000D03*
%TD*%
%TO.N,MIDI_IN_4*%
%TO.C,R1*%
X62000000Y-9000000D03*
%TO.N,OPTO_ANODE*%
X72160000Y-9000000D03*
%TD*%
D13*
%TO.N,GND*%
%TO.C,D3*%
X28000000Y-104000000D03*
D14*
%TO.N,LED1_A*%
X30540000Y-104000000D03*
%TD*%
D10*
%TO.N,MUX_CH1*%
%TO.C,C18*%
X60000000Y-150000000D03*
%TO.N,GND*%
X65000000Y-150000000D03*
%TD*%
D13*
%TO.N,+5V*%
%TO.C,RV9*%
X42000000Y-94000000D03*
D14*
%TO.N,POT9_W*%
X44500000Y-94000000D03*
%TO.N,GND*%
X47000000Y-94000000D03*
D15*
%TO.N,N/C*%
X40100000Y-87000000D03*
X48900000Y-87000000D03*
%TD*%
D13*
%TO.N,+5V*%
%TO.C,RV1*%
X42000000Y-34000000D03*
D14*
%TO.N,POT1_W*%
X44500000Y-34000000D03*
%TO.N,GND*%
X47000000Y-34000000D03*
D15*
%TO.N,N/C*%
X40100000Y-27000000D03*
X48900000Y-27000000D03*
%TD*%
D16*
%TO.N,D5*%
%TO.C,SW5*%
X12000000Y-82000000D03*
X18500000Y-82000000D03*
%TO.N,GND*%
X12000000Y-86500000D03*
X18500000Y-86500000D03*
%TD*%
D20*
%TO.N,*%
%TO.C,SW1*%
X102900000Y-6000000D03*
X111100000Y-6000000D03*
D21*
%TO.N,OPTO_VO*%
X105000000Y-6000000D03*
D22*
%TO.N,D0_RX*%
X107000000Y-6000000D03*
%TO.N,N/C*%
X109000000Y-6000000D03*
%TD*%
D13*
%TO.N,+5V*%
%TO.C,RV13*%
X42000000Y-124000000D03*
D14*
%TO.N,POT13_W*%
X44500000Y-124000000D03*
%TO.N,GND*%
X47000000Y-124000000D03*
D15*
%TO.N,N/C*%
X40100000Y-117000000D03*
X48900000Y-117000000D03*
%TD*%
D10*
%TO.N,MIDI_OUT_5*%
%TO.C,R3*%
X132000000Y-13000000D03*
%TO.N,D1_TX*%
X142160000Y-13000000D03*
%TD*%
%TO.N,A10*%
%TO.C,C12*%
X132000000Y-90000000D03*
%TO.N,GND*%
X132000000Y-85000000D03*
%TD*%
D11*
%TO.N,N/C*%
%TO.C,J2*%
X120000000Y-8000000D03*
D12*
%TO.N,GND*%
X120000000Y-10540000D03*
%TO.N,N/C*%
X120000000Y-13080000D03*
%TO.N,MIDI_OUT_4*%
X120000000Y-15620000D03*
%TO.N,MIDI_OUT_5*%
X120000000Y-18160000D03*
%TD*%
D10*
%TO.N,POT11_W*%
%TO.C,R20*%
X125000000Y-90000000D03*
%TO.N,A10*%
X125000000Y-79840000D03*
%TD*%
D11*
%TO.N,A3*%
%TO.C,J6D*%
X186000000Y-124000000D03*
D12*
%TO.N,A7*%
X186000000Y-126540000D03*
%TO.N,A11*%
X186000000Y-129080000D03*
%TO.N,A15*%
X186000000Y-131620000D03*
%TD*%
D10*
%TO.N,A13*%
%TO.C,C9*%
X166000000Y-60000000D03*
%TO.N,GND*%
X166000000Y-55000000D03*
%TD*%
D11*
%TO.N,A0*%
%TO.C,J6A*%
X186000000Y-34000000D03*
D12*
%TO.N,A5*%
X186000000Y-36540000D03*
%TO.N,A8*%
X186000000Y-39080000D03*
%TO.N,A12*%
X186000000Y-41620000D03*
%TD*%
D13*
%TO.N,+5V*%
%TO.C,RV16*%
X144000000Y-124000000D03*
D14*
%TO.N,POT16_W*%
X146500000Y-124000000D03*
%TO.N,GND*%
X149000000Y-124000000D03*
D15*
%TO.N,N/C*%
X142100000Y-117000000D03*
X150900000Y-117000000D03*
%TD*%
D10*
%TO.N,POT13_W*%
%TO.C,R22*%
X57000000Y-120000000D03*
%TO.N,A3*%
X57000000Y-109840000D03*
%TD*%
D23*
%TO.N,OPTO_ANODE*%
%TO.C,D1*%
X62000000Y-17000000D03*
D10*
%TO.N,OPTO_CATHODE*%
X69620000Y-17000000D03*
%TD*%
D11*
%TO.N,D20_SDA*%
%TO.C,J7C*%
X150000000Y-162000000D03*
D12*
%TO.N,D21_SCL*%
X150000000Y-164540000D03*
%TD*%
D13*
%TO.N,+5V*%
%TO.C,RV5*%
X42000000Y-64000000D03*
D14*
%TO.N,POT5_W*%
X44500000Y-64000000D03*
%TO.N,GND*%
X47000000Y-64000000D03*
D15*
%TO.N,N/C*%
X40100000Y-57000000D03*
X48900000Y-57000000D03*
%TD*%
D13*
%TO.N,+5V*%
%TO.C,RV14*%
X76000000Y-124000000D03*
D14*
%TO.N,POT14_W*%
X78500000Y-124000000D03*
%TO.N,GND*%
X81000000Y-124000000D03*
D15*
%TO.N,N/C*%
X74100000Y-117000000D03*
X82900000Y-117000000D03*
%TD*%
D10*
%TO.N,A9*%
%TO.C,C8*%
X132000000Y-60000000D03*
%TO.N,GND*%
X132000000Y-55000000D03*
%TD*%
D13*
%TO.N,+5V*%
%TO.C,RV7*%
X110000000Y-64000000D03*
D14*
%TO.N,POT7_W*%
X112500000Y-64000000D03*
%TO.N,GND*%
X115000000Y-64000000D03*
D15*
%TO.N,N/C*%
X108100000Y-57000000D03*
X116900000Y-57000000D03*
%TD*%
D10*
%TO.N,A4*%
%TO.C,C7*%
X98000000Y-60000000D03*
%TO.N,GND*%
X98000000Y-55000000D03*
%TD*%
D11*
%TO.N,A1*%
%TO.C,J6B*%
X186000000Y-64000000D03*
D12*
%TO.N,A4*%
X186000000Y-66540000D03*
%TO.N,A9*%
X186000000Y-69080000D03*
%TO.N,A13*%
X186000000Y-71620000D03*
%TD*%
D23*
%TO.N,N/C*%
%TO.C,U1*%
X80000000Y-10000000D03*
D10*
%TO.N,OPTO_ANODE*%
X80000000Y-12540000D03*
%TO.N,OPTO_CATHODE*%
X80000000Y-15080000D03*
%TO.N,N/C*%
X80000000Y-17620000D03*
%TO.N,GND*%
X87620000Y-17620000D03*
%TO.N,OPTO_VO*%
X87620000Y-15080000D03*
%TO.N,OPTO_VB*%
X87620000Y-12540000D03*
%TO.N,+5V*%
X87620000Y-10000000D03*
%TD*%
%TO.N,POT14_W*%
%TO.C,R23*%
X91000000Y-120000000D03*
%TO.N,A7*%
X91000000Y-109840000D03*
%TD*%
D13*
%TO.N,+5V*%
%TO.C,RV11*%
X110000000Y-94000000D03*
D14*
%TO.N,POT11_W*%
X112500000Y-94000000D03*
%TO.N,GND*%
X115000000Y-94000000D03*
D15*
%TO.N,N/C*%
X108100000Y-87000000D03*
X116900000Y-87000000D03*
%TD*%
D10*
%TO.N,POT2_W*%
%TO.C,R11*%
X91000000Y-30000000D03*
%TO.N,A5*%
X91000000Y-19840000D03*
%TD*%
%TO.N,D10*%
%TO.C,R8*%
X8000000Y-130000000D03*
%TO.N,LED3_A*%
X18160000Y-130000000D03*
%TD*%
D13*
%TO.N,+5V*%
%TO.C,RV3*%
X110000000Y-34000000D03*
D14*
%TO.N,POT3_W*%
X112500000Y-34000000D03*
%TO.N,GND*%
X115000000Y-34000000D03*
D15*
%TO.N,N/C*%
X108100000Y-27000000D03*
X116900000Y-27000000D03*
%TD*%
D10*
%TO.N,A14*%
%TO.C,C13*%
X166000000Y-90000000D03*
%TO.N,GND*%
X166000000Y-85000000D03*
%TD*%
%TO.N,D11*%
%TO.C,R7*%
X8000000Y-117000000D03*
%TO.N,LED2_A*%
X18160000Y-117000000D03*
%TD*%
D13*
%TO.N,GND*%
%TO.C,D4*%
X28000000Y-117000000D03*
D14*
%TO.N,LED2_A*%
X30540000Y-117000000D03*
%TD*%
D16*
%TO.N,D7*%
%TO.C,SW2*%
X12000000Y-34000000D03*
X18500000Y-34000000D03*
%TO.N,GND*%
X12000000Y-38500000D03*
X18500000Y-38500000D03*
%TD*%
D11*
%TO.N,D0_RX*%
%TO.C,J7B*%
X130000000Y-162000000D03*
D12*
%TO.N,D1_TX*%
X130000000Y-164540000D03*
%TD*%
D11*
%TO.N,+5V*%
%TO.C,J8*%
X160000000Y-150000000D03*
D12*
%TO.N,GND*%
X160000000Y-152540000D03*
%TO.N,VIN_RAW*%
X160000000Y-155080000D03*
%TD*%
D23*
%TO.N,A15*%
%TO.C,U2*%
X70000000Y-150000000D03*
D10*
%TO.N,MUX_CH7*%
X70000000Y-152540000D03*
%TO.N,MUX_CH6*%
X70000000Y-155080000D03*
%TO.N,MUX_CH5*%
X70000000Y-157620000D03*
%TO.N,MUX_CH4*%
X70000000Y-160160000D03*
%TO.N,MUX_CH3*%
X70000000Y-162700000D03*
%TO.N,MUX_CH2*%
X70000000Y-165240000D03*
%TO.N,MUX_CH1*%
X70000000Y-167780000D03*
%TO.N,MUX_CH0*%
X70000000Y-170320000D03*
%TO.N,D2*%
X70000000Y-172860000D03*
%TO.N,D3*%
X70000000Y-175400000D03*
%TO.N,GND*%
X70000000Y-177940000D03*
%TO.N,D22*%
X85240000Y-177940000D03*
%TO.N,D4*%
X85240000Y-175400000D03*
%TO.N,GND*%
X85240000Y-172860000D03*
%TO.N,MUX_CH15*%
X85240000Y-170320000D03*
%TO.N,MUX_CH14*%
X85240000Y-167780000D03*
%TO.N,MUX_CH13*%
X85240000Y-165240000D03*
%TO.N,MUX_CH12*%
X85240000Y-162700000D03*
%TO.N,MUX_CH11*%
X85240000Y-160160000D03*
%TO.N,MUX_CH10*%
X85240000Y-157620000D03*
%TO.N,MUX_CH9*%
X85240000Y-155080000D03*
%TO.N,MUX_CH8*%
X85240000Y-152540000D03*
%TO.N,+5V*%
X85240000Y-150000000D03*
%TD*%
D24*
%TO.N,+5V*%
%TO.C,D2*%
X188000000Y-6000000D03*
D25*
%TO.N,VIN_RAW*%
X198160000Y-6000000D03*
%TD*%
D10*
%TO.N,POT6_W*%
%TO.C,R15*%
X91000000Y-60000000D03*
%TO.N,A4*%
X91000000Y-49840000D03*
%TD*%
D11*
%TO.N,JACK_W*%
%TO.C,J10*%
X25000000Y-150000000D03*
D12*
%TO.N,+5V*%
X25000000Y-152540000D03*
%TO.N,GND*%
X25000000Y-155080000D03*
%TD*%
D26*
%TO.N,+5V*%
X147014000Y-146127800D03*
%TO.N,A8*%
X136088100Y-39080000D03*
%TO.N,A11*%
X135497500Y-129080000D03*
%TO.N,MUX_CH0*%
X153852100Y-166510000D03*
%TD*%
%TO.N,+5V*%
D27*
X76000000Y-122798300D02*
X76406200Y-122392100D01*
X144406200Y-122392100D02*
X144406200Y-95607900D01*
X42000000Y-94000000D02*
X42000000Y-92798300D01*
X110406200Y-92392100D02*
X110406200Y-65607900D01*
X76406200Y-92392100D02*
X76406200Y-65607900D01*
X188000000Y-6000000D02*
X188000000Y-10540000D01*
X144000000Y-94000000D02*
X144000000Y-92798300D01*
X110000000Y-124000000D02*
X110000000Y-122798300D01*
X76406200Y-122392100D02*
X76406200Y-95607900D01*
X42000000Y-64000000D02*
X42000000Y-62798300D01*
X110000000Y-92798300D02*
X110406200Y-92392100D01*
X188000000Y-10540000D02*
X195000000Y-17540000D01*
X145201700Y-16338300D02*
X145201700Y-31596600D01*
X25000000Y-152540000D02*
X42000000Y-135540000D01*
X42000000Y-94000000D02*
X42000000Y-95201700D01*
X144000000Y-92798300D02*
X144406200Y-92392100D01*
X144000000Y-125201700D02*
X147014000Y-128215700D01*
X110000000Y-34000000D02*
X110000000Y-32798300D01*
X42000000Y-122798300D02*
X42406200Y-122392100D01*
X144406200Y-35607900D02*
X144000000Y-35201700D01*
X42406200Y-122392100D02*
X42406200Y-95607900D01*
X110000000Y-34000000D02*
X110000000Y-35201700D01*
X145201700Y-31596600D02*
X144000000Y-32798300D01*
X96000000Y-9000000D02*
X96000000Y-5840000D01*
X76000000Y-94000000D02*
X76000000Y-95201700D01*
X144000000Y-124000000D02*
X144000000Y-122798300D01*
X76000000Y-64000000D02*
X76000000Y-65201700D01*
X110406200Y-95607900D02*
X110000000Y-95201700D01*
X110000000Y-94000000D02*
X110000000Y-92798300D01*
X110449800Y-62348500D02*
X110449800Y-35651500D01*
X144000000Y-34000000D02*
X144000000Y-32798300D01*
X42000000Y-135540000D02*
X42000000Y-124000000D01*
X144406200Y-62392100D02*
X144406200Y-35607900D01*
X76000000Y-34000000D02*
X76000000Y-35201700D01*
X144000000Y-122798300D02*
X144406200Y-122392100D01*
X144406200Y-92392100D02*
X144406200Y-65607900D01*
X110000000Y-62798300D02*
X110449800Y-62348500D01*
X150000000Y-11540000D02*
X145201700Y-16338300D01*
X76000000Y-62798300D02*
X76406200Y-62392100D01*
X144406200Y-65607900D02*
X144000000Y-65201700D01*
X110000000Y-94000000D02*
X110000000Y-95201700D01*
X76406200Y-95607900D02*
X76000000Y-95201700D01*
X42000000Y-64000000D02*
X42000000Y-65201700D01*
X42406200Y-92392100D02*
X42406200Y-65607900D01*
X144000000Y-64000000D02*
X144000000Y-62798300D01*
X42406200Y-35607900D02*
X42000000Y-35201700D01*
X76406200Y-65607900D02*
X76000000Y-65201700D01*
X96000000Y-18798300D02*
X110000000Y-32798300D01*
X76406200Y-62392100D02*
X76406200Y-35607900D01*
X42000000Y-62798300D02*
X42406200Y-62392100D01*
X42406200Y-95607900D02*
X42000000Y-95201700D01*
X110449800Y-35651500D02*
X110000000Y-35201700D01*
X76000000Y-140760000D02*
X76000000Y-124000000D01*
X144406200Y-95607900D02*
X144000000Y-95201700D01*
X96000000Y-9000000D02*
X96000000Y-18798300D01*
X147014000Y-128215700D02*
X147014000Y-146127800D01*
X42000000Y-92798300D02*
X42406200Y-92392100D01*
X42406200Y-65607900D02*
X42000000Y-65201700D01*
X144000000Y-94000000D02*
X144000000Y-95201700D01*
X110000000Y-122798300D02*
X110406200Y-122392100D01*
X96000000Y-5840000D02*
X95160000Y-5000000D01*
X76000000Y-124000000D02*
X76000000Y-122798300D01*
X110406200Y-65607900D02*
X110000000Y-65201700D01*
X110000000Y-64000000D02*
X110000000Y-62798300D01*
X76000000Y-94000000D02*
X76000000Y-92798300D01*
X85240000Y-150000000D02*
X76000000Y-140760000D01*
X110000000Y-64000000D02*
X110000000Y-65201700D01*
X144000000Y-62798300D02*
X144406200Y-62392100D01*
X110406200Y-122392100D02*
X110406200Y-95607900D01*
X42406200Y-62392100D02*
X42406200Y-35607900D01*
X76000000Y-64000000D02*
X76000000Y-62798300D01*
X144000000Y-124000000D02*
X144000000Y-125201700D01*
X144000000Y-64000000D02*
X144000000Y-65201700D01*
X76000000Y-92798300D02*
X76406200Y-92392100D01*
X42000000Y-124000000D02*
X42000000Y-122798300D01*
X76406200Y-35607900D02*
X76000000Y-35201700D01*
X42000000Y-34000000D02*
X42000000Y-35201700D01*
X144000000Y-34000000D02*
X144000000Y-35201700D01*
%TO.N,A0*%
X64000000Y-30000000D02*
X57000000Y-23000000D01*
X57000000Y-23000000D02*
X57000000Y-19840000D01*
%TO.N,A5*%
X98000000Y-30000000D02*
X91000000Y-23000000D01*
X91000000Y-23000000D02*
X91000000Y-19840000D01*
%TO.N,A8*%
X132000000Y-30000000D02*
X125000000Y-23000000D01*
X136088100Y-34088100D02*
X136088100Y-39080000D01*
X125000000Y-23000000D02*
X125000000Y-19840000D01*
X132000000Y-30000000D02*
X136088100Y-34088100D01*
%TO.N,A12*%
X166000000Y-30000000D02*
X159000000Y-23000000D01*
X159000000Y-23000000D02*
X159000000Y-19840000D01*
%TO.N,A4*%
X91000000Y-53000000D02*
X91000000Y-49840000D01*
X98000000Y-60000000D02*
X91000000Y-53000000D01*
%TO.N,A9*%
X125000000Y-53000000D02*
X125000000Y-49840000D01*
X132000000Y-60000000D02*
X125000000Y-53000000D01*
%TO.N,A13*%
X166000000Y-60000000D02*
X159000000Y-53000000D01*
X159000000Y-53000000D02*
X159000000Y-49840000D01*
%TO.N,A6*%
X98000000Y-90000000D02*
X91000000Y-83000000D01*
X91000000Y-83000000D02*
X91000000Y-79840000D01*
%TO.N,A10*%
X132000000Y-90000000D02*
X125000000Y-83000000D01*
X125000000Y-83000000D02*
X125000000Y-79840000D01*
%TO.N,A14*%
X159000000Y-83000000D02*
X159000000Y-79840000D01*
X166000000Y-90000000D02*
X159000000Y-83000000D01*
%TO.N,A3*%
X64000000Y-120000000D02*
X57000000Y-113000000D01*
X57000000Y-113000000D02*
X57000000Y-109840000D01*
%TO.N,A7*%
X98000000Y-120000000D02*
X91000000Y-113000000D01*
X91000000Y-113000000D02*
X91000000Y-109840000D01*
%TO.N,A11*%
X132000000Y-120000000D02*
X125000000Y-113000000D01*
X125000000Y-113000000D02*
X125000000Y-109840000D01*
X135497500Y-123497500D02*
X135497500Y-129080000D01*
X132000000Y-120000000D02*
X135497500Y-123497500D01*
%TO.N,MUX_CH0*%
X153852100Y-132147900D02*
X153852100Y-166510000D01*
X159000000Y-113000000D02*
X159000000Y-109840000D01*
X166000000Y-120000000D02*
X159000000Y-113000000D01*
X166000000Y-120000000D02*
X153852100Y-132147900D01*
%TO.N,D7*%
X34000000Y-70000000D02*
X34000000Y-49500000D01*
X34000000Y-49500000D02*
X18500000Y-34000000D01*
%TO.N,D8*%
X21699800Y-53199800D02*
X18500000Y-50000000D01*
X21699800Y-60239800D02*
X21699800Y-53199800D01*
X34000000Y-72540000D02*
X21699800Y-60239800D01*
%TO.N,D12*%
X10160000Y-104000000D02*
X8000000Y-104000000D01*
X34000000Y-80160000D02*
X10160000Y-104000000D01*
%TO.N,D11*%
X8000000Y-108700000D02*
X8000000Y-117000000D01*
X34000000Y-82700000D02*
X8000000Y-108700000D01*
%TO.N,D10*%
X8000000Y-130000000D02*
X14005400Y-123994600D01*
X14005400Y-105234600D02*
X34000000Y-85240000D01*
X14005400Y-123994600D02*
X14005400Y-105234600D01*
%TO.N,D9*%
X34000000Y-117000000D02*
X8000000Y-143000000D01*
X34000000Y-87780000D02*
X34000000Y-117000000D01*
%TO.N,OPTO_ANODE*%
X62000000Y-17000000D02*
X70000000Y-9000000D01*
X70000000Y-9000000D02*
X72160000Y-9000000D01*
%TO.N,OPTO_VO*%
X87620000Y-15080000D02*
X85000000Y-12460000D01*
X85000000Y-12460000D02*
X85000000Y-5000000D01*
%TO.N,D0_RX*%
X113750000Y-14301700D02*
X113750000Y-144598300D01*
X107000000Y-6000000D02*
X107000000Y-7551700D01*
X107000000Y-7551700D02*
X113750000Y-14301700D01*
X113750000Y-144598300D02*
X130000000Y-160848300D01*
X130000000Y-162000000D02*
X130000000Y-160848300D01*
%TO.N,MIDI_OUT_4*%
X130620000Y-5000000D02*
X132000000Y-5000000D01*
X120000000Y-15620000D02*
X130620000Y-5000000D01*
%TO.N,D1_TX*%
X136699000Y-18461000D02*
X142160000Y-13000000D01*
X130000000Y-164540000D02*
X136699000Y-157841000D01*
X136699000Y-157841000D02*
X136699000Y-18461000D01*
%TO.N,D21_SCL*%
X150000000Y-164540000D02*
X147776800Y-162316800D01*
X147776800Y-162316800D02*
X147776800Y-16303200D01*
X147776800Y-16303200D02*
X150000000Y-14080000D01*
%TO.N,D20_SDA*%
X150000000Y-160848300D02*
X153230000Y-157618300D01*
X150000000Y-162000000D02*
X150000000Y-160848300D01*
X153230000Y-19850000D02*
X150000000Y-16620000D01*
X153230000Y-157618300D02*
X153230000Y-19850000D01*
%TO.N,VIN_RAW*%
X198160000Y-6000000D02*
X198160000Y-19460000D01*
X177895100Y-39724900D02*
X195000000Y-22620000D01*
X160000000Y-155080000D02*
X177895100Y-137184900D01*
X198160000Y-19460000D02*
X195000000Y-22620000D01*
X177895100Y-137184900D02*
X177895100Y-39724900D01*
%TO.N,D2*%
X70000000Y-172860000D02*
X81430000Y-161430000D01*
X100000000Y-150000000D02*
X98848300Y-150000000D01*
X81430000Y-161430000D02*
X87418300Y-161430000D01*
X87418300Y-161430000D02*
X98848300Y-150000000D01*
%TO.N,D3*%
X88570000Y-163970000D02*
X100000000Y-152540000D01*
X70000000Y-175400000D02*
X81430000Y-163970000D01*
X81430000Y-163970000D02*
X88570000Y-163970000D01*
%TO.N,D4*%
X100000000Y-155080000D02*
X95372900Y-159707100D01*
X95372900Y-159707100D02*
X95372900Y-165267100D01*
X95372900Y-165267100D02*
X85240000Y-175400000D01*
%TO.N,D22*%
X100000000Y-163180000D02*
X100000000Y-157620000D01*
X85240000Y-177940000D02*
X100000000Y-163180000D01*
%TO.N,MUX_CH1*%
X70000000Y-167780000D02*
X60000000Y-157780000D01*
X60000000Y-157780000D02*
X60000000Y-150000000D01*
%TD*%
M02*
