%TF.GenerationSoftware,KiCad,Pcbnew,10.0.3*%
%TF.CreationDate,2026-06-08T01:19:39+02:00*%
%TF.ProjectId,SysEx_Patcher,53797345-785f-4506-9174-636865722e6b,rev?*%
%TF.SameCoordinates,Original*%
%TF.FileFunction,Soldermask,Bot*%
%TF.FilePolarity,Negative*%
%FSLAX46Y46*%
G04 Gerber Fmt 4.6, Leading zero omitted, Abs format (unit mm)*
G04 Created by KiCad (PCBNEW 10.0.3) date 2026-06-08 01:19:39*
%MOMM*%
%LPD*%
G01*
G04 APERTURE LIST*
G04 Aperture macros list*
%AMRoundRect*
0 Rectangle with rounded corners*
0 $1 Rounding radius*
0 $2 $3 $4 $5 $6 $7 $8 $9 X,Y pos of 4 corners*
0 Add a 4 corners polygon primitive as box body*
4,1,4,$2,$3,$4,$5,$6,$7,$8,$9,$2,$3,0*
0 Add four circle primitives for the rounded corners*
1,1,$1+$1,$2,$3*
1,1,$1+$1,$4,$5*
1,1,$1+$1,$6,$7*
1,1,$1+$1,$8,$9*
0 Add four rect primitives between the rounded corners*
20,1,$1+$1,$2,$3,$4,$5,0*
20,1,$1+$1,$4,$5,$6,$7,0*
20,1,$1+$1,$6,$7,$8,$9,0*
20,1,$1+$1,$8,$9,$2,$3,0*%
G04 Aperture macros list end*
%ADD10C,1.600000*%
%ADD11R,1.800000X1.800000*%
%ADD12C,1.800000*%
%ADD13RoundRect,0.750000X-1.250000X-0.750000X1.250000X-0.750000X1.250000X0.750000X-1.250000X0.750000X0*%
%ADD14R,1.700000X1.700000*%
%ADD15C,1.700000*%
%ADD16RoundRect,0.250000X-0.550000X-0.550000X0.550000X-0.550000X0.550000X0.550000X-0.550000X0.550000X0*%
%ADD17C,2.600000*%
%ADD18C,2.400000*%
%ADD19C,2.000000*%
%ADD20R,3.500000X3.500000*%
%ADD21RoundRect,0.750000X-0.750000X-1.000000X0.750000X-1.000000X0.750000X1.000000X-0.750000X1.000000X0*%
%ADD22RoundRect,0.875000X-0.875000X-0.875000X0.875000X-0.875000X0.875000X0.875000X-0.875000X0.875000X0*%
%ADD23RoundRect,0.249999X-0.850001X-0.850001X0.850001X-0.850001X0.850001X0.850001X-0.850001X0.850001X0*%
%ADD24C,2.200000*%
%ADD25C,3.000000*%
G04 APERTURE END LIST*
D10*
%TO.C,R17*%
X157000000Y-98000000D03*
X167160000Y-98000000D03*
%TD*%
%TO.C,R2*%
X92000000Y-60000000D03*
X102160000Y-60000000D03*
%TD*%
D11*
%TO.C,RV4*%
X146000000Y-80000000D03*
D12*
X148500000Y-80000000D03*
X151000000Y-80000000D03*
D13*
X144100000Y-73000000D03*
X152900000Y-73000000D03*
%TD*%
D10*
%TO.C,C16*%
X125000000Y-151000000D03*
X130000000Y-151000000D03*
%TD*%
D14*
%TO.C,JMX1*%
X128980000Y-91080000D03*
D15*
X131520000Y-91080000D03*
X128980000Y-93620000D03*
X131520000Y-93620000D03*
X128980000Y-96160000D03*
X131520000Y-96160000D03*
X128980000Y-98700000D03*
X131520000Y-98700000D03*
X128980000Y-101240000D03*
X131520000Y-101240000D03*
X128980000Y-103780000D03*
X131520000Y-103780000D03*
X128980000Y-106320000D03*
X131520000Y-106320000D03*
X128980000Y-108860000D03*
X131520000Y-108860000D03*
X128980000Y-111400000D03*
X131520000Y-111400000D03*
X128980000Y-113940000D03*
X131520000Y-113940000D03*
X128980000Y-116480000D03*
X131520000Y-116480000D03*
X128980000Y-119020000D03*
X131520000Y-119020000D03*
X128980000Y-121560000D03*
X131520000Y-121560000D03*
X128980000Y-124100000D03*
X131520000Y-124100000D03*
X128980000Y-126640000D03*
X131520000Y-126640000D03*
X128980000Y-129180000D03*
X131520000Y-129180000D03*
X128980000Y-131720000D03*
X131520000Y-131720000D03*
X128980000Y-134260000D03*
X131520000Y-134260000D03*
%TD*%
D14*
%TO.C,JMA2*%
X108660000Y-86000000D03*
D15*
X106120000Y-86000000D03*
X103580000Y-86000000D03*
X101040000Y-86000000D03*
X98500000Y-86000000D03*
X95960000Y-86000000D03*
X93420000Y-86000000D03*
X90880000Y-86000000D03*
%TD*%
D10*
%TO.C,R12*%
X125000000Y-74000000D03*
X135160000Y-74000000D03*
%TD*%
D16*
%TO.C,D1*%
X34000000Y-59000000D03*
D10*
X41620000Y-59000000D03*
%TD*%
D11*
%TO.C,D9*%
X35000000Y-160000000D03*
D12*
X37540000Y-160000000D03*
%TD*%
D10*
%TO.C,C1*%
X80000000Y-62000000D03*
X85000000Y-62000000D03*
%TD*%
%TO.C,R18*%
X61000000Y-122000000D03*
X71160000Y-122000000D03*
%TD*%
D16*
%TO.C,U2*%
X50000000Y-180000000D03*
D10*
X52540000Y-180000000D03*
X55080000Y-180000000D03*
X57620000Y-180000000D03*
X60160000Y-180000000D03*
X62700000Y-180000000D03*
X65240000Y-180000000D03*
X67780000Y-180000000D03*
X70320000Y-180000000D03*
X72860000Y-180000000D03*
X75400000Y-180000000D03*
X77940000Y-180000000D03*
X77940000Y-164760000D03*
X75400000Y-164760000D03*
X72860000Y-164760000D03*
X70320000Y-164760000D03*
X67780000Y-164760000D03*
X65240000Y-164760000D03*
X62700000Y-164760000D03*
X60160000Y-164760000D03*
X57620000Y-164760000D03*
X55080000Y-164760000D03*
X52540000Y-164760000D03*
X50000000Y-164760000D03*
%TD*%
D11*
%TO.C,RV1*%
X50000000Y-80000000D03*
D12*
X52500000Y-80000000D03*
X55000000Y-80000000D03*
D13*
X48100000Y-73000000D03*
X56900000Y-73000000D03*
%TD*%
D14*
%TO.C,JMA1*%
X85800000Y-86000000D03*
D15*
X83260000Y-86000000D03*
X80720000Y-86000000D03*
X78180000Y-86000000D03*
X75640000Y-86000000D03*
X73100000Y-86000000D03*
X70560000Y-86000000D03*
X68020000Y-86000000D03*
%TD*%
D10*
%TO.C,R29*%
X43000000Y-100000000D03*
X43000000Y-89840000D03*
%TD*%
D17*
%TO.C,J1*%
X39000000Y-28300000D03*
X49000000Y-28300000D03*
D18*
X36700000Y-38000000D03*
X44000000Y-38000000D03*
X51300000Y-38000000D03*
X49000000Y-40500000D03*
X39000000Y-40500000D03*
%TD*%
D19*
%TO.C,SW5*%
X168000000Y-156000000D03*
X174500000Y-156000000D03*
X168000000Y-160500000D03*
X174500000Y-160500000D03*
%TD*%
D11*
%TO.C,D5*%
X178000000Y-132000000D03*
D12*
X180540000Y-132000000D03*
%TD*%
D19*
%TO.C,SW8*%
X26000000Y-160000000D03*
X32500000Y-160000000D03*
X26000000Y-164500000D03*
X32500000Y-164500000D03*
%TD*%
%TO.C,SW2*%
X168000000Y-84000000D03*
X174500000Y-84000000D03*
X168000000Y-88500000D03*
X174500000Y-88500000D03*
%TD*%
D16*
%TO.C,U1*%
X48000000Y-54000000D03*
D10*
X48000000Y-56540000D03*
X48000000Y-59080000D03*
X48000000Y-61620000D03*
X55620000Y-61620000D03*
X55620000Y-59080000D03*
X55620000Y-56540000D03*
X55620000Y-54000000D03*
%TD*%
%TO.C,C3*%
X93000000Y-79000000D03*
X98000000Y-79000000D03*
%TD*%
%TO.C,C4*%
X125000000Y-79000000D03*
X130000000Y-79000000D03*
%TD*%
D11*
%TO.C,RV5*%
X50000000Y-104000000D03*
D12*
X52500000Y-104000000D03*
X55000000Y-104000000D03*
D13*
X48100000Y-97000000D03*
X56900000Y-97000000D03*
%TD*%
D10*
%TO.C,R11*%
X93000000Y-74000000D03*
X103160000Y-74000000D03*
%TD*%
D11*
%TO.C,D7*%
X178000000Y-60000000D03*
D12*
X180540000Y-60000000D03*
%TD*%
D14*
%TO.C,J5*%
X166000000Y-32000000D03*
D15*
X168540000Y-32000000D03*
X171080000Y-32000000D03*
X173620000Y-32000000D03*
%TD*%
D20*
%TO.C,J3*%
X138000000Y-38000000D03*
D21*
X138000000Y-32000000D03*
D22*
X133300000Y-35000000D03*
%TD*%
D17*
%TO.C,J2*%
X67000000Y-28300000D03*
X77000000Y-28300000D03*
D18*
X64700000Y-38000000D03*
X72000000Y-38000000D03*
X79300000Y-38000000D03*
X77000000Y-40500000D03*
X67000000Y-40500000D03*
%TD*%
D11*
%TO.C,RV8*%
X146000000Y-104000000D03*
D12*
X148500000Y-104000000D03*
X151000000Y-104000000D03*
D13*
X144100000Y-97000000D03*
X152900000Y-97000000D03*
%TD*%
D10*
%TO.C,C6*%
X61000000Y-103000000D03*
X66000000Y-103000000D03*
%TD*%
%TO.C,C11*%
X93000000Y-127000000D03*
X98000000Y-127000000D03*
%TD*%
%TO.C,R28*%
X186000000Y-60000000D03*
X186000000Y-49840000D03*
%TD*%
D11*
%TO.C,RV11*%
X114000000Y-128000000D03*
D12*
X116500000Y-128000000D03*
X119000000Y-128000000D03*
D13*
X112100000Y-121000000D03*
X120900000Y-121000000D03*
%TD*%
D10*
%TO.C,R30*%
X43000000Y-160000000D03*
X43000000Y-149840000D03*
%TD*%
D14*
%TO.C,JMD2*%
X80720000Y-134260000D03*
D15*
X78180000Y-134260000D03*
X75640000Y-134260000D03*
X73100000Y-134260000D03*
X70560000Y-134260000D03*
X68020000Y-134260000D03*
X65480000Y-134260000D03*
X62940000Y-134260000D03*
%TD*%
D10*
%TO.C,R6*%
X186000000Y-84000000D03*
X186000000Y-73840000D03*
%TD*%
%TO.C,R23*%
X93000000Y-146000000D03*
X103160000Y-146000000D03*
%TD*%
%TO.C,R25*%
X157000000Y-146000000D03*
X167160000Y-146000000D03*
%TD*%
D11*
%TO.C,RV2*%
X82000000Y-80000000D03*
D12*
X84500000Y-80000000D03*
X87000000Y-80000000D03*
D13*
X80100000Y-73000000D03*
X88900000Y-73000000D03*
%TD*%
D11*
%TO.C,RV10*%
X82000000Y-128000000D03*
D12*
X84500000Y-128000000D03*
X87000000Y-128000000D03*
D13*
X80100000Y-121000000D03*
X88900000Y-121000000D03*
%TD*%
D10*
%TO.C,R1*%
X34000000Y-65000000D03*
X44160000Y-65000000D03*
%TD*%
%TO.C,R8*%
X186000000Y-132000000D03*
X186000000Y-121840000D03*
%TD*%
%TO.C,C7*%
X93000000Y-103000000D03*
X98000000Y-103000000D03*
%TD*%
D11*
%TO.C,RV6*%
X82000000Y-104000000D03*
D12*
X84500000Y-104000000D03*
X87000000Y-104000000D03*
D13*
X80100000Y-97000000D03*
X88900000Y-97000000D03*
%TD*%
D23*
%TO.C,D2D*%
X150000000Y-52000000D03*
D24*
X160160000Y-52000000D03*
%TD*%
D11*
%TO.C,D8*%
X35000000Y-100000000D03*
D12*
X37540000Y-100000000D03*
%TD*%
D11*
%TO.C,RV15*%
X114000000Y-152000000D03*
D12*
X116500000Y-152000000D03*
X119000000Y-152000000D03*
D13*
X112100000Y-145000000D03*
X120900000Y-145000000D03*
%TD*%
D11*
%TO.C,RV7*%
X114000000Y-104000000D03*
D12*
X116500000Y-104000000D03*
X119000000Y-104000000D03*
D13*
X112100000Y-97000000D03*
X120900000Y-97000000D03*
%TD*%
D10*
%TO.C,C2*%
X61000000Y-79000000D03*
X66000000Y-79000000D03*
%TD*%
D11*
%TO.C,RV12*%
X146000000Y-128000000D03*
D12*
X148500000Y-128000000D03*
X151000000Y-128000000D03*
D13*
X144100000Y-121000000D03*
X152900000Y-121000000D03*
%TD*%
D11*
%TO.C,D6*%
X178000000Y-156000000D03*
D12*
X180540000Y-156000000D03*
%TD*%
D10*
%TO.C,R10*%
X61000000Y-74000000D03*
X71160000Y-74000000D03*
%TD*%
D11*
%TO.C,D3*%
X178000000Y-84000000D03*
D12*
X180540000Y-84000000D03*
%TD*%
D19*
%TO.C,SW6*%
X168000000Y-60000000D03*
X174500000Y-60000000D03*
X168000000Y-64500000D03*
X174500000Y-64500000D03*
%TD*%
D11*
%TO.C,RV14*%
X82000000Y-152000000D03*
D12*
X84500000Y-152000000D03*
X87000000Y-152000000D03*
D13*
X80100000Y-145000000D03*
X88900000Y-145000000D03*
%TD*%
D10*
%TO.C,R3*%
X92000000Y-66000000D03*
X102160000Y-66000000D03*
%TD*%
%TO.C,R7*%
X186000000Y-108000000D03*
X186000000Y-97840000D03*
%TD*%
D14*
%TO.C,JMP1*%
X62940000Y-86000000D03*
D15*
X60400000Y-86000000D03*
X57860000Y-86000000D03*
X55320000Y-86000000D03*
X52780000Y-86000000D03*
X50240000Y-86000000D03*
X47700000Y-86000000D03*
X45160000Y-86000000D03*
%TD*%
D14*
%TO.C,J4*%
X136000000Y-60000000D03*
D15*
X138540000Y-60000000D03*
X141080000Y-60000000D03*
X143620000Y-60000000D03*
%TD*%
D10*
%TO.C,C14*%
X61000000Y-151000000D03*
X66000000Y-151000000D03*
%TD*%
%TO.C,C9*%
X157000000Y-103000000D03*
X162000000Y-103000000D03*
%TD*%
D14*
%TO.C,JMD3*%
X103580000Y-134260000D03*
D15*
X101040000Y-134260000D03*
X98500000Y-134260000D03*
X95960000Y-134260000D03*
X93420000Y-134260000D03*
X90880000Y-134260000D03*
X88340000Y-134260000D03*
X85800000Y-134260000D03*
%TD*%
D10*
%TO.C,R13*%
X157000000Y-74000000D03*
X167160000Y-74000000D03*
%TD*%
%TO.C,R20*%
X125000000Y-122000000D03*
X135160000Y-122000000D03*
%TD*%
D11*
%TO.C,RV3*%
X114000000Y-80000000D03*
D12*
X116500000Y-80000000D03*
X119000000Y-80000000D03*
D13*
X112100000Y-73000000D03*
X120900000Y-73000000D03*
%TD*%
D10*
%TO.C,C15*%
X93000000Y-151000000D03*
X98000000Y-151000000D03*
%TD*%
%TO.C,C8*%
X122000000Y-103000000D03*
X127000000Y-103000000D03*
%TD*%
%TO.C,R22*%
X61000000Y-146000000D03*
X71160000Y-146000000D03*
%TD*%
D11*
%TO.C,D4*%
X178000000Y-108000000D03*
D12*
X180540000Y-108000000D03*
%TD*%
D11*
%TO.C,RV13*%
X50000000Y-152000000D03*
D12*
X52500000Y-152000000D03*
X55000000Y-152000000D03*
D13*
X48100000Y-145000000D03*
X56900000Y-145000000D03*
%TD*%
D10*
%TO.C,R24*%
X125000000Y-146000000D03*
X135160000Y-146000000D03*
%TD*%
D11*
%TO.C,RV9*%
X50000000Y-128000000D03*
D12*
X52500000Y-128000000D03*
X55000000Y-128000000D03*
D13*
X48100000Y-121000000D03*
X56900000Y-121000000D03*
%TD*%
D10*
%TO.C,C13*%
X157000000Y-127000000D03*
X162000000Y-127000000D03*
%TD*%
%TO.C,C10*%
X61000000Y-127000000D03*
X66000000Y-127000000D03*
%TD*%
D19*
%TO.C,SW4*%
X168000000Y-132000000D03*
X174500000Y-132000000D03*
X168000000Y-136500000D03*
X174500000Y-136500000D03*
%TD*%
D10*
%TO.C,R4*%
X68000000Y-59000000D03*
X78160000Y-59000000D03*
%TD*%
D16*
%TO.C,C19*%
X162000000Y-64000000D03*
D10*
X164500000Y-64000000D03*
%TD*%
D19*
%TO.C,SW7*%
X26000000Y-100000000D03*
X32500000Y-100000000D03*
X26000000Y-104500000D03*
X32500000Y-104500000D03*
%TD*%
D10*
%TO.C,C18*%
X136000000Y-172000000D03*
X141000000Y-172000000D03*
%TD*%
D11*
%TO.C,RV16*%
X146000000Y-152000000D03*
D12*
X148500000Y-152000000D03*
X151000000Y-152000000D03*
D13*
X144100000Y-145000000D03*
X152900000Y-145000000D03*
%TD*%
D10*
%TO.C,R15*%
X93000000Y-98000000D03*
X103160000Y-98000000D03*
%TD*%
%TO.C,R9*%
X186000000Y-156000000D03*
X186000000Y-145840000D03*
%TD*%
D19*
%TO.C,SW3*%
X168000000Y-108000000D03*
X174500000Y-108000000D03*
X168000000Y-112500000D03*
X174500000Y-112500000D03*
%TD*%
D14*
%TO.C,JMD1*%
X53796000Y-134260000D03*
D15*
X51256000Y-134260000D03*
X48716000Y-134260000D03*
X46176000Y-134260000D03*
X43636000Y-134260000D03*
X41096000Y-134260000D03*
X38556000Y-134260000D03*
X36016000Y-134260000D03*
X33476000Y-134260000D03*
X30936000Y-134260000D03*
%TD*%
D10*
%TO.C,C12*%
X122000000Y-127000000D03*
X127000000Y-127000000D03*
%TD*%
%TO.C,R14*%
X61000000Y-98000000D03*
X71160000Y-98000000D03*
%TD*%
%TO.C,R27*%
X112000000Y-172000000D03*
X122160000Y-172000000D03*
%TD*%
%TO.C,R5*%
X68000000Y-65000000D03*
X78160000Y-65000000D03*
%TD*%
%TO.C,R16*%
X125000000Y-98000000D03*
X135160000Y-98000000D03*
%TD*%
%TO.C,R19*%
X93000000Y-122000000D03*
X103160000Y-122000000D03*
%TD*%
D25*
%TO.C,J10*%
X102130000Y-38850000D03*
D19*
X100000000Y-32500000D03*
X111430000Y-32500000D03*
D25*
X111430000Y-29300000D03*
X100000000Y-35650000D03*
X111430000Y-35650000D03*
X100000000Y-29300000D03*
X100000000Y-42000000D03*
X111430000Y-42000000D03*
%TD*%
D10*
%TO.C,C17*%
X157000000Y-151000000D03*
X162000000Y-151000000D03*
%TD*%
%TO.C,R21*%
X157000000Y-122000000D03*
X167160000Y-122000000D03*
%TD*%
%TO.C,C5*%
X157000000Y-79000000D03*
X162000000Y-79000000D03*
%TD*%
M02*
