%TF.GenerationSoftware,KiCad,Pcbnew,10.0.3*%
%TF.CreationDate,2026-06-08T01:19:39+02:00*%
%TF.ProjectId,SysEx_Patcher,53797345-785f-4506-9174-636865722e6b,rev?*%
%TF.SameCoordinates,Original*%
%TF.FileFunction,Copper,L2,Inr*%
%TF.FilePolarity,Positive*%
%FSLAX46Y46*%
G04 Gerber Fmt 4.6, Leading zero omitted, Abs format (unit mm)*
G04 Created by KiCad (PCBNEW 10.0.3) date 2026-06-08 01:19:39*
%MOMM*%
%LPD*%
G01*
G04 APERTURE LIST*
G04 Aperture macros list*
%AMRoundRect*
0 Rectangle with rounded corners*
0 $1 Rounding radius*
0 $2 $3 $4 $5 $6 $7 $8 $9 X,Y pos of 4 corners*
0 Add a 4 corners polygon primitive as box body*
4,1,4,$2,$3,$4,$5,$6,$7,$8,$9,$2,$3,0*
0 Add four circle primitives for the rounded corners*
1,1,$1+$1,$2,$3*
1,1,$1+$1,$4,$5*
1,1,$1+$1,$6,$7*
1,1,$1+$1,$8,$9*
0 Add four rect primitives between the rounded corners*
20,1,$1+$1,$2,$3,$4,$5,0*
20,1,$1+$1,$4,$5,$6,$7,0*
20,1,$1+$1,$6,$7,$8,$9,0*
20,1,$1+$1,$8,$9,$2,$3,0*%
G04 Aperture macros list end*
%TA.AperFunction,ComponentPad*%
%ADD10C,1.600000*%
%TD*%
%TA.AperFunction,ComponentPad*%
%ADD11R,1.800000X1.800000*%
%TD*%
%TA.AperFunction,ComponentPad*%
%ADD12C,1.800000*%
%TD*%
%TA.AperFunction,ComponentPad*%
%ADD13RoundRect,0.750000X-1.250000X-0.750000X1.250000X-0.750000X1.250000X0.750000X-1.250000X0.750000X0*%
%TD*%
%TA.AperFunction,ComponentPad*%
%ADD14R,1.700000X1.700000*%
%TD*%
%TA.AperFunction,ComponentPad*%
%ADD15C,1.700000*%
%TD*%
%TA.AperFunction,ComponentPad*%
%ADD16RoundRect,0.250000X-0.550000X-0.550000X0.550000X-0.550000X0.550000X0.550000X-0.550000X0.550000X0*%
%TD*%
%TA.AperFunction,ComponentPad*%
%ADD17C,2.600000*%
%TD*%
%TA.AperFunction,ComponentPad*%
%ADD18C,2.400000*%
%TD*%
%TA.AperFunction,ComponentPad*%
%ADD19C,2.000000*%
%TD*%
%TA.AperFunction,ComponentPad*%
%ADD20R,3.500000X3.500000*%
%TD*%
%TA.AperFunction,ComponentPad*%
%ADD21RoundRect,0.750000X-0.750000X-1.000000X0.750000X-1.000000X0.750000X1.000000X-0.750000X1.000000X0*%
%TD*%
%TA.AperFunction,ComponentPad*%
%ADD22RoundRect,0.875000X-0.875000X-0.875000X0.875000X-0.875000X0.875000X0.875000X-0.875000X0.875000X0*%
%TD*%
%TA.AperFunction,ComponentPad*%
%ADD23RoundRect,0.249999X-0.850001X-0.850001X0.850001X-0.850001X0.850001X0.850001X-0.850001X0.850001X0*%
%TD*%
%TA.AperFunction,ComponentPad*%
%ADD24C,2.200000*%
%TD*%
%TA.AperFunction,ComponentPad*%
%ADD25C,3.000000*%
%TD*%
%TA.AperFunction,ViaPad*%
%ADD26C,0.600000*%
%TD*%
%TA.AperFunction,Conductor*%
%ADD27C,0.200000*%
%TD*%
G04 APERTURE END LIST*
D10*
%TO.N,POT8_W*%
%TO.C,R17*%
X157000000Y-98000000D03*
%TO.N,A13*%
X167160000Y-98000000D03*
%TD*%
%TO.N,MIDI_OUT_4*%
%TO.C,R2*%
X92000000Y-60000000D03*
%TO.N,+5V*%
X102160000Y-60000000D03*
%TD*%
D11*
%TO.N,+5V*%
%TO.C,RV4*%
X146000000Y-80000000D03*
D12*
%TO.N,POT4_W*%
X148500000Y-80000000D03*
%TO.N,GND*%
X151000000Y-80000000D03*
D13*
%TO.N,N/C*%
X144100000Y-73000000D03*
X152900000Y-73000000D03*
%TD*%
D10*
%TO.N,A11*%
%TO.C,C16*%
X125000000Y-151000000D03*
%TO.N,GND*%
X130000000Y-151000000D03*
%TD*%
D14*
%TO.N,GND*%
%TO.C,JMX1*%
X128980000Y-91080000D03*
D15*
X131520000Y-91080000D03*
%TO.N,D52*%
X128980000Y-93620000D03*
%TO.N,D53*%
X131520000Y-93620000D03*
%TO.N,D50*%
X128980000Y-96160000D03*
%TO.N,D51*%
X131520000Y-96160000D03*
%TO.N,D48*%
X128980000Y-98700000D03*
%TO.N,D49*%
X131520000Y-98700000D03*
%TO.N,D46*%
X128980000Y-101240000D03*
%TO.N,D47*%
X131520000Y-101240000D03*
%TO.N,D44*%
X128980000Y-103780000D03*
%TO.N,D45*%
X131520000Y-103780000D03*
%TO.N,D42*%
X128980000Y-106320000D03*
%TO.N,D43*%
X131520000Y-106320000D03*
%TO.N,D40*%
X128980000Y-108860000D03*
%TO.N,D41*%
X131520000Y-108860000D03*
%TO.N,D38*%
X128980000Y-111400000D03*
%TO.N,D39*%
X131520000Y-111400000D03*
%TO.N,D36*%
X128980000Y-113940000D03*
%TO.N,D37*%
X131520000Y-113940000D03*
%TO.N,D34*%
X128980000Y-116480000D03*
%TO.N,D35*%
X131520000Y-116480000D03*
%TO.N,D32*%
X128980000Y-119020000D03*
%TO.N,D33*%
X131520000Y-119020000D03*
%TO.N,D30*%
X128980000Y-121560000D03*
%TO.N,D31*%
X131520000Y-121560000D03*
%TO.N,D28*%
X128980000Y-124100000D03*
%TO.N,D29*%
X131520000Y-124100000D03*
%TO.N,D26*%
X128980000Y-126640000D03*
%TO.N,D27*%
X131520000Y-126640000D03*
%TO.N,D24*%
X128980000Y-129180000D03*
%TO.N,D25*%
X131520000Y-129180000D03*
%TO.N,D22*%
X128980000Y-131720000D03*
%TO.N,D23*%
X131520000Y-131720000D03*
%TO.N,+5V*%
X128980000Y-134260000D03*
X131520000Y-134260000D03*
%TD*%
D14*
%TO.N,A8*%
%TO.C,JMA2*%
X108660000Y-86000000D03*
D15*
%TO.N,A9*%
X106120000Y-86000000D03*
%TO.N,A10*%
X103580000Y-86000000D03*
%TO.N,A11*%
X101040000Y-86000000D03*
%TO.N,A12*%
X98500000Y-86000000D03*
%TO.N,A13*%
X95960000Y-86000000D03*
%TO.N,A14*%
X93420000Y-86000000D03*
%TO.N,A15*%
X90880000Y-86000000D03*
%TD*%
D10*
%TO.N,POT3_W*%
%TO.C,R12*%
X125000000Y-74000000D03*
%TO.N,A8*%
X135160000Y-74000000D03*
%TD*%
D16*
%TO.N,OPTO_ANODE*%
%TO.C,D1*%
X34000000Y-59000000D03*
D10*
%TO.N,OPTO_CATHODE*%
X41620000Y-59000000D03*
%TD*%
D11*
%TO.N,GND*%
%TO.C,D9*%
X35000000Y-160000000D03*
D12*
%TO.N,LED7_A*%
X37540000Y-160000000D03*
%TD*%
D10*
%TO.N,+5V*%
%TO.C,C1*%
X80000000Y-62000000D03*
%TO.N,GND*%
X85000000Y-62000000D03*
%TD*%
%TO.N,POT9_W*%
%TO.C,R18*%
X61000000Y-122000000D03*
%TO.N,A2*%
X71160000Y-122000000D03*
%TD*%
D16*
%TO.N,A15*%
%TO.C,U2*%
X50000000Y-180000000D03*
D10*
%TO.N,MUX_CH7*%
X52540000Y-180000000D03*
%TO.N,MUX_CH6*%
X55080000Y-180000000D03*
%TO.N,MUX_CH5*%
X57620000Y-180000000D03*
%TO.N,MUX_CH4*%
X60160000Y-180000000D03*
%TO.N,MUX_CH3*%
X62700000Y-180000000D03*
%TO.N,MUX_CH2*%
X65240000Y-180000000D03*
%TO.N,MUX_CH1*%
X67780000Y-180000000D03*
%TO.N,MUX_CH0*%
X70320000Y-180000000D03*
%TO.N,D2*%
X72860000Y-180000000D03*
%TO.N,D3*%
X75400000Y-180000000D03*
%TO.N,GND*%
X77940000Y-180000000D03*
%TO.N,D13*%
X77940000Y-164760000D03*
%TO.N,D4*%
X75400000Y-164760000D03*
%TO.N,GND*%
X72860000Y-164760000D03*
%TO.N,MUX_CH15*%
X70320000Y-164760000D03*
%TO.N,MUX_CH14*%
X67780000Y-164760000D03*
%TO.N,MUX_CH13*%
X65240000Y-164760000D03*
%TO.N,MUX_CH12*%
X62700000Y-164760000D03*
%TO.N,MUX_CH11*%
X60160000Y-164760000D03*
%TO.N,MUX_CH10*%
X57620000Y-164760000D03*
%TO.N,MUX_CH9*%
X55080000Y-164760000D03*
%TO.N,MUX_CH8*%
X52540000Y-164760000D03*
%TO.N,+5V*%
X50000000Y-164760000D03*
%TD*%
D11*
%TO.N,+5V*%
%TO.C,RV1*%
X50000000Y-80000000D03*
D12*
%TO.N,POT1_W*%
X52500000Y-80000000D03*
%TO.N,GND*%
X55000000Y-80000000D03*
D13*
%TO.N,N/C*%
X48100000Y-73000000D03*
X56900000Y-73000000D03*
%TD*%
D14*
%TO.N,A0*%
%TO.C,JMA1*%
X85800000Y-86000000D03*
D15*
%TO.N,A1*%
X83260000Y-86000000D03*
%TO.N,A2*%
X80720000Y-86000000D03*
%TO.N,A3*%
X78180000Y-86000000D03*
%TO.N,A4*%
X75640000Y-86000000D03*
%TO.N,A5*%
X73100000Y-86000000D03*
%TO.N,A6*%
X70560000Y-86000000D03*
%TO.N,A7*%
X68020000Y-86000000D03*
%TD*%
D10*
%TO.N,D25*%
%TO.C,R29*%
X43000000Y-100000000D03*
%TO.N,LED6_A*%
X43000000Y-89840000D03*
%TD*%
D17*
%TO.N,*%
%TO.C,J1*%
X39000000Y-28300000D03*
X49000000Y-28300000D03*
D18*
%TO.N,N/C*%
X36700000Y-38000000D03*
%TO.N,GND*%
X44000000Y-38000000D03*
%TO.N,N/C*%
X51300000Y-38000000D03*
%TO.N,MIDI_IN_4*%
X49000000Y-40500000D03*
%TO.N,OPTO_CATHODE*%
X39000000Y-40500000D03*
%TD*%
D19*
%TO.N,D5*%
%TO.C,SW5*%
X168000000Y-156000000D03*
X174500000Y-156000000D03*
%TO.N,GND*%
X168000000Y-160500000D03*
X174500000Y-160500000D03*
%TD*%
D11*
%TO.N,GND*%
%TO.C,D5*%
X178000000Y-132000000D03*
D12*
%TO.N,LED3_A*%
X180540000Y-132000000D03*
%TD*%
D19*
%TO.N,D26*%
%TO.C,SW8*%
X26000000Y-160000000D03*
X32500000Y-160000000D03*
%TO.N,GND*%
X26000000Y-164500000D03*
X32500000Y-164500000D03*
%TD*%
%TO.N,D7*%
%TO.C,SW2*%
X168000000Y-84000000D03*
X174500000Y-84000000D03*
%TO.N,GND*%
X168000000Y-88500000D03*
X174500000Y-88500000D03*
%TD*%
D16*
%TO.N,N/C*%
%TO.C,U1*%
X48000000Y-54000000D03*
D10*
%TO.N,OPTO_ANODE*%
X48000000Y-56540000D03*
%TO.N,OPTO_CATHODE*%
X48000000Y-59080000D03*
%TO.N,N/C*%
X48000000Y-61620000D03*
%TO.N,GND*%
X55620000Y-61620000D03*
%TO.N,D0_RX*%
X55620000Y-59080000D03*
%TO.N,OPTO_VB*%
X55620000Y-56540000D03*
%TO.N,+5V*%
X55620000Y-54000000D03*
%TD*%
%TO.N,A5*%
%TO.C,C3*%
X93000000Y-79000000D03*
%TO.N,GND*%
X98000000Y-79000000D03*
%TD*%
%TO.N,A8*%
%TO.C,C4*%
X125000000Y-79000000D03*
%TO.N,GND*%
X130000000Y-79000000D03*
%TD*%
D11*
%TO.N,+5V*%
%TO.C,RV5*%
X50000000Y-104000000D03*
D12*
%TO.N,POT5_W*%
X52500000Y-104000000D03*
%TO.N,GND*%
X55000000Y-104000000D03*
D13*
%TO.N,N/C*%
X48100000Y-97000000D03*
X56900000Y-97000000D03*
%TD*%
D10*
%TO.N,POT2_W*%
%TO.C,R11*%
X93000000Y-74000000D03*
%TO.N,A5*%
X103160000Y-74000000D03*
%TD*%
D11*
%TO.N,GND*%
%TO.C,D7*%
X178000000Y-60000000D03*
D12*
%TO.N,LED5_A*%
X180540000Y-60000000D03*
%TD*%
D14*
%TO.N,GND*%
%TO.C,J5*%
X166000000Y-32000000D03*
D15*
%TO.N,+5V*%
X168540000Y-32000000D03*
%TO.N,D21_SCL*%
X171080000Y-32000000D03*
%TO.N,D20_SDA*%
X173620000Y-32000000D03*
%TD*%
D20*
%TO.N,VIN_RAW*%
%TO.C,J3*%
X138000000Y-38000000D03*
D21*
%TO.N,GND*%
X138000000Y-32000000D03*
D22*
%TO.N,N/C*%
X133300000Y-35000000D03*
%TD*%
D17*
%TO.N,*%
%TO.C,J2*%
X67000000Y-28300000D03*
X77000000Y-28300000D03*
D18*
%TO.N,N/C*%
X64700000Y-38000000D03*
%TO.N,GND*%
X72000000Y-38000000D03*
%TO.N,N/C*%
X79300000Y-38000000D03*
%TO.N,MIDI_OUT_4*%
X77000000Y-40500000D03*
%TO.N,MIDI_OUT_5*%
X67000000Y-40500000D03*
%TD*%
D11*
%TO.N,+5V*%
%TO.C,RV8*%
X146000000Y-104000000D03*
D12*
%TO.N,POT8_W*%
X148500000Y-104000000D03*
%TO.N,GND*%
X151000000Y-104000000D03*
D13*
%TO.N,N/C*%
X144100000Y-97000000D03*
X152900000Y-97000000D03*
%TD*%
D10*
%TO.N,A1*%
%TO.C,C6*%
X61000000Y-103000000D03*
%TO.N,GND*%
X66000000Y-103000000D03*
%TD*%
%TO.N,A6*%
%TO.C,C11*%
X93000000Y-127000000D03*
%TO.N,GND*%
X98000000Y-127000000D03*
%TD*%
%TO.N,D23*%
%TO.C,R28*%
X186000000Y-60000000D03*
%TO.N,LED5_A*%
X186000000Y-49840000D03*
%TD*%
D11*
%TO.N,+5V*%
%TO.C,RV11*%
X114000000Y-128000000D03*
D12*
%TO.N,POT11_W*%
X116500000Y-128000000D03*
%TO.N,GND*%
X119000000Y-128000000D03*
D13*
%TO.N,N/C*%
X112100000Y-121000000D03*
X120900000Y-121000000D03*
%TD*%
D10*
%TO.N,D27*%
%TO.C,R30*%
X43000000Y-160000000D03*
%TO.N,LED7_A*%
X43000000Y-149840000D03*
%TD*%
D14*
%TO.N,D7*%
%TO.C,JMD2*%
X80720000Y-134260000D03*
D15*
%TO.N,D6*%
X78180000Y-134260000D03*
%TO.N,D5*%
X75640000Y-134260000D03*
%TO.N,D4*%
X73100000Y-134260000D03*
%TO.N,D3*%
X70560000Y-134260000D03*
%TO.N,D2*%
X68020000Y-134260000D03*
%TO.N,D1_TX*%
X65480000Y-134260000D03*
%TO.N,D0_RX*%
X62940000Y-134260000D03*
%TD*%
D10*
%TO.N,D12*%
%TO.C,R6*%
X186000000Y-84000000D03*
%TO.N,LED1_A*%
X186000000Y-73840000D03*
%TD*%
%TO.N,POT14_W*%
%TO.C,R23*%
X93000000Y-146000000D03*
%TO.N,A7*%
X103160000Y-146000000D03*
%TD*%
%TO.N,POT16_W*%
%TO.C,R25*%
X157000000Y-146000000D03*
%TO.N,MUX_CH0*%
X167160000Y-146000000D03*
%TD*%
D11*
%TO.N,+5V*%
%TO.C,RV2*%
X82000000Y-80000000D03*
D12*
%TO.N,POT2_W*%
X84500000Y-80000000D03*
%TO.N,GND*%
X87000000Y-80000000D03*
D13*
%TO.N,N/C*%
X80100000Y-73000000D03*
X88900000Y-73000000D03*
%TD*%
D11*
%TO.N,+5V*%
%TO.C,RV10*%
X82000000Y-128000000D03*
D12*
%TO.N,POT10_W*%
X84500000Y-128000000D03*
%TO.N,GND*%
X87000000Y-128000000D03*
D13*
%TO.N,N/C*%
X80100000Y-121000000D03*
X88900000Y-121000000D03*
%TD*%
D10*
%TO.N,MIDI_IN_4*%
%TO.C,R1*%
X34000000Y-65000000D03*
%TO.N,OPTO_ANODE*%
X44160000Y-65000000D03*
%TD*%
%TO.N,D10*%
%TO.C,R8*%
X186000000Y-132000000D03*
%TO.N,LED3_A*%
X186000000Y-121840000D03*
%TD*%
%TO.N,A4*%
%TO.C,C7*%
X93000000Y-103000000D03*
%TO.N,GND*%
X98000000Y-103000000D03*
%TD*%
D11*
%TO.N,+5V*%
%TO.C,RV6*%
X82000000Y-104000000D03*
D12*
%TO.N,POT6_W*%
X84500000Y-104000000D03*
%TO.N,GND*%
X87000000Y-104000000D03*
D13*
%TO.N,N/C*%
X80100000Y-97000000D03*
X88900000Y-97000000D03*
%TD*%
D23*
%TO.N,+5V*%
%TO.C,D2D*%
X150000000Y-52000000D03*
D24*
%TO.N,VIN_RAW*%
X160160000Y-52000000D03*
%TD*%
D11*
%TO.N,GND*%
%TO.C,D8*%
X35000000Y-100000000D03*
D12*
%TO.N,LED6_A*%
X37540000Y-100000000D03*
%TD*%
D11*
%TO.N,+5V*%
%TO.C,RV15*%
X114000000Y-152000000D03*
D12*
%TO.N,POT15_W*%
X116500000Y-152000000D03*
%TO.N,GND*%
X119000000Y-152000000D03*
D13*
%TO.N,N/C*%
X112100000Y-145000000D03*
X120900000Y-145000000D03*
%TD*%
D11*
%TO.N,+5V*%
%TO.C,RV7*%
X114000000Y-104000000D03*
D12*
%TO.N,POT7_W*%
X116500000Y-104000000D03*
%TO.N,GND*%
X119000000Y-104000000D03*
D13*
%TO.N,N/C*%
X112100000Y-97000000D03*
X120900000Y-97000000D03*
%TD*%
D10*
%TO.N,A0*%
%TO.C,C2*%
X61000000Y-79000000D03*
%TO.N,GND*%
X66000000Y-79000000D03*
%TD*%
D11*
%TO.N,+5V*%
%TO.C,RV12*%
X146000000Y-128000000D03*
D12*
%TO.N,POT12_W*%
X148500000Y-128000000D03*
%TO.N,GND*%
X151000000Y-128000000D03*
D13*
%TO.N,N/C*%
X144100000Y-121000000D03*
X152900000Y-121000000D03*
%TD*%
D11*
%TO.N,GND*%
%TO.C,D6*%
X178000000Y-156000000D03*
D12*
%TO.N,LED4_A*%
X180540000Y-156000000D03*
%TD*%
D10*
%TO.N,POT1_W*%
%TO.C,R10*%
X61000000Y-74000000D03*
%TO.N,A0*%
X71160000Y-74000000D03*
%TD*%
D11*
%TO.N,GND*%
%TO.C,D3*%
X178000000Y-84000000D03*
D12*
%TO.N,LED1_A*%
X180540000Y-84000000D03*
%TD*%
D19*
%TO.N,D22*%
%TO.C,SW6*%
X168000000Y-60000000D03*
X174500000Y-60000000D03*
%TO.N,GND*%
X168000000Y-64500000D03*
X174500000Y-64500000D03*
%TD*%
D11*
%TO.N,+5V*%
%TO.C,RV14*%
X82000000Y-152000000D03*
D12*
%TO.N,POT14_W*%
X84500000Y-152000000D03*
%TO.N,GND*%
X87000000Y-152000000D03*
D13*
%TO.N,N/C*%
X80100000Y-145000000D03*
X88900000Y-145000000D03*
%TD*%
D10*
%TO.N,MIDI_OUT_5*%
%TO.C,R3*%
X92000000Y-66000000D03*
%TO.N,D1_TX*%
X102160000Y-66000000D03*
%TD*%
%TO.N,D11*%
%TO.C,R7*%
X186000000Y-108000000D03*
%TO.N,LED2_A*%
X186000000Y-97840000D03*
%TD*%
D14*
%TO.N,N/C*%
%TO.C,JMP1*%
X62940000Y-86000000D03*
D15*
X60400000Y-86000000D03*
X57860000Y-86000000D03*
X55320000Y-86000000D03*
%TO.N,+5V*%
X52780000Y-86000000D03*
%TO.N,GND*%
X50240000Y-86000000D03*
X47700000Y-86000000D03*
%TO.N,VIN_RAW*%
X45160000Y-86000000D03*
%TD*%
D14*
%TO.N,GND*%
%TO.C,J4*%
X136000000Y-60000000D03*
D15*
%TO.N,+5V*%
X138540000Y-60000000D03*
%TO.N,GND*%
X141080000Y-60000000D03*
%TO.N,VIN_RAW*%
X143620000Y-60000000D03*
%TD*%
D10*
%TO.N,A3*%
%TO.C,C14*%
X61000000Y-151000000D03*
%TO.N,GND*%
X66000000Y-151000000D03*
%TD*%
%TO.N,A13*%
%TO.C,C9*%
X157000000Y-103000000D03*
%TO.N,GND*%
X162000000Y-103000000D03*
%TD*%
D14*
%TO.N,D14*%
%TO.C,JMD3*%
X103580000Y-134260000D03*
D15*
%TO.N,D15*%
X101040000Y-134260000D03*
%TO.N,D16*%
X98500000Y-134260000D03*
%TO.N,D17*%
X95960000Y-134260000D03*
%TO.N,D18*%
X93420000Y-134260000D03*
%TO.N,D19*%
X90880000Y-134260000D03*
%TO.N,D20_SDA*%
X88340000Y-134260000D03*
%TO.N,D21_SCL*%
X85800000Y-134260000D03*
%TD*%
D10*
%TO.N,POT4_W*%
%TO.C,R13*%
X157000000Y-74000000D03*
%TO.N,A12*%
X167160000Y-74000000D03*
%TD*%
%TO.N,POT11_W*%
%TO.C,R20*%
X125000000Y-122000000D03*
%TO.N,A10*%
X135160000Y-122000000D03*
%TD*%
D11*
%TO.N,+5V*%
%TO.C,RV3*%
X114000000Y-80000000D03*
D12*
%TO.N,POT3_W*%
X116500000Y-80000000D03*
%TO.N,GND*%
X119000000Y-80000000D03*
D13*
%TO.N,N/C*%
X112100000Y-73000000D03*
X120900000Y-73000000D03*
%TD*%
D10*
%TO.N,A7*%
%TO.C,C15*%
X93000000Y-151000000D03*
%TO.N,GND*%
X98000000Y-151000000D03*
%TD*%
%TO.N,A9*%
%TO.C,C8*%
X122000000Y-103000000D03*
%TO.N,GND*%
X127000000Y-103000000D03*
%TD*%
%TO.N,POT13_W*%
%TO.C,R22*%
X61000000Y-146000000D03*
%TO.N,A3*%
X71160000Y-146000000D03*
%TD*%
D11*
%TO.N,GND*%
%TO.C,D4*%
X178000000Y-108000000D03*
D12*
%TO.N,LED2_A*%
X180540000Y-108000000D03*
%TD*%
D11*
%TO.N,+5V*%
%TO.C,RV13*%
X50000000Y-152000000D03*
D12*
%TO.N,POT13_W*%
X52500000Y-152000000D03*
%TO.N,GND*%
X55000000Y-152000000D03*
D13*
%TO.N,N/C*%
X48100000Y-145000000D03*
X56900000Y-145000000D03*
%TD*%
D10*
%TO.N,POT15_W*%
%TO.C,R24*%
X125000000Y-146000000D03*
%TO.N,A11*%
X135160000Y-146000000D03*
%TD*%
D11*
%TO.N,+5V*%
%TO.C,RV9*%
X50000000Y-128000000D03*
D12*
%TO.N,POT9_W*%
X52500000Y-128000000D03*
%TO.N,GND*%
X55000000Y-128000000D03*
D13*
%TO.N,N/C*%
X48100000Y-121000000D03*
X56900000Y-121000000D03*
%TD*%
D10*
%TO.N,A14*%
%TO.C,C13*%
X157000000Y-127000000D03*
%TO.N,GND*%
X162000000Y-127000000D03*
%TD*%
%TO.N,A2*%
%TO.C,C10*%
X61000000Y-127000000D03*
%TO.N,GND*%
X66000000Y-127000000D03*
%TD*%
D19*
%TO.N,D6*%
%TO.C,SW4*%
X168000000Y-132000000D03*
X174500000Y-132000000D03*
%TO.N,GND*%
X168000000Y-136500000D03*
X174500000Y-136500000D03*
%TD*%
D10*
%TO.N,OPTO_VB*%
%TO.C,R4*%
X68000000Y-59000000D03*
%TO.N,GND*%
X78160000Y-59000000D03*
%TD*%
D16*
%TO.N,+5V*%
%TO.C,C19*%
X162000000Y-64000000D03*
D10*
%TO.N,GND*%
X164500000Y-64000000D03*
%TD*%
D19*
%TO.N,D24*%
%TO.C,SW7*%
X26000000Y-100000000D03*
X32500000Y-100000000D03*
%TO.N,GND*%
X26000000Y-104500000D03*
X32500000Y-104500000D03*
%TD*%
D10*
%TO.N,MUX_CH1*%
%TO.C,C18*%
X136000000Y-172000000D03*
%TO.N,GND*%
X141000000Y-172000000D03*
%TD*%
D11*
%TO.N,+5V*%
%TO.C,RV16*%
X146000000Y-152000000D03*
D12*
%TO.N,POT16_W*%
X148500000Y-152000000D03*
%TO.N,GND*%
X151000000Y-152000000D03*
D13*
%TO.N,N/C*%
X144100000Y-145000000D03*
X152900000Y-145000000D03*
%TD*%
D10*
%TO.N,POT6_W*%
%TO.C,R15*%
X93000000Y-98000000D03*
%TO.N,A4*%
X103160000Y-98000000D03*
%TD*%
%TO.N,D9*%
%TO.C,R9*%
X186000000Y-156000000D03*
%TO.N,LED4_A*%
X186000000Y-145840000D03*
%TD*%
D19*
%TO.N,D8*%
%TO.C,SW3*%
X168000000Y-108000000D03*
X174500000Y-108000000D03*
%TO.N,GND*%
X168000000Y-112500000D03*
X174500000Y-112500000D03*
%TD*%
D14*
%TO.N,D21_SCL*%
%TO.C,JMD1*%
X53796000Y-134260000D03*
D15*
%TO.N,D20_SDA*%
X51256000Y-134260000D03*
%TO.N,AREF*%
X48716000Y-134260000D03*
%TO.N,GND*%
X46176000Y-134260000D03*
%TO.N,D13*%
X43636000Y-134260000D03*
%TO.N,D12*%
X41096000Y-134260000D03*
%TO.N,D11*%
X38556000Y-134260000D03*
%TO.N,D10*%
X36016000Y-134260000D03*
%TO.N,D9*%
X33476000Y-134260000D03*
%TO.N,D8*%
X30936000Y-134260000D03*
%TD*%
D10*
%TO.N,A10*%
%TO.C,C12*%
X122000000Y-127000000D03*
%TO.N,GND*%
X127000000Y-127000000D03*
%TD*%
%TO.N,POT5_W*%
%TO.C,R14*%
X61000000Y-98000000D03*
%TO.N,A1*%
X71160000Y-98000000D03*
%TD*%
%TO.N,JACK_W*%
%TO.C,R27*%
X112000000Y-172000000D03*
%TO.N,MUX_CH1*%
X122160000Y-172000000D03*
%TD*%
%TO.N,D0_RX*%
%TO.C,R5*%
X68000000Y-65000000D03*
%TO.N,+5V*%
X78160000Y-65000000D03*
%TD*%
%TO.N,POT7_W*%
%TO.C,R16*%
X125000000Y-98000000D03*
%TO.N,A9*%
X135160000Y-98000000D03*
%TD*%
%TO.N,POT10_W*%
%TO.C,R19*%
X93000000Y-122000000D03*
%TO.N,A6*%
X103160000Y-122000000D03*
%TD*%
D25*
%TO.N,GND*%
%TO.C,J10*%
X111430000Y-29300000D03*
%TO.N,+5V*%
X100000000Y-35650000D03*
%TO.N,N/C*%
X111430000Y-35650000D03*
%TO.N,GND*%
X100000000Y-29300000D03*
%TO.N,JACK_W*%
X100000000Y-42000000D03*
%TO.N,N/C*%
X111430000Y-42000000D03*
%TD*%
D10*
%TO.N,MUX_CH0*%
%TO.C,C17*%
X157000000Y-151000000D03*
%TO.N,GND*%
X162000000Y-151000000D03*
%TD*%
%TO.N,POT12_W*%
%TO.C,R21*%
X157000000Y-122000000D03*
%TO.N,A14*%
X167160000Y-122000000D03*
%TD*%
%TO.N,A12*%
%TO.C,C5*%
X157000000Y-79000000D03*
%TO.N,GND*%
X162000000Y-79000000D03*
%TD*%
D26*
%TO.N,+5V*%
X114406200Y-134204500D03*
%TO.N,D26*%
X126124700Y-157956500D03*
%TO.N,D27*%
X123813300Y-148886200D03*
%TO.N,D24*%
X42622300Y-131581400D03*
%TO.N,D25*%
X46121000Y-132009300D03*
%TO.N,A14*%
X147241500Y-100619400D03*
%TO.N,D13*%
X43636000Y-137173500D03*
%TO.N,A7*%
X83627900Y-96986300D03*
%TO.N,D7*%
X155714100Y-122818500D03*
%TO.N,D21_SCL*%
X92640500Y-48103500D03*
%TO.N,D20_SDA*%
X103657900Y-54041500D03*
%TO.N,D12*%
X45136500Y-129664400D03*
%TD*%
%TO.N,POT8_W*%
D27*
X152840900Y-99659100D02*
X155340900Y-99659100D01*
X148500000Y-104000000D02*
X152840900Y-99659100D01*
X155340900Y-99659100D02*
X157000000Y-98000000D01*
%TO.N,MIDI_OUT_4*%
X77000000Y-40500000D02*
X92000000Y-55500000D01*
X92000000Y-55500000D02*
X92000000Y-60000000D01*
%TO.N,+5V*%
X168540000Y-57460000D02*
X162000000Y-64000000D01*
X168540000Y-32000000D02*
X168540000Y-57460000D01*
X82406200Y-126392100D02*
X82000000Y-126798300D01*
X82000000Y-104000000D02*
X82000000Y-105201700D01*
X146406200Y-129607900D02*
X146000000Y-129201700D01*
X146000000Y-150798300D02*
X146406200Y-150392100D01*
X50406200Y-105607900D02*
X50000000Y-105201700D01*
X50000000Y-164760000D02*
X50000000Y-152000000D01*
X82414000Y-129615700D02*
X82000000Y-129201700D01*
X80000000Y-62000000D02*
X78160000Y-63840000D01*
X82000000Y-128000000D02*
X82000000Y-129201700D01*
X51201700Y-77596600D02*
X51201700Y-58418300D01*
X50000000Y-102798300D02*
X52780000Y-100018300D01*
X50000000Y-104000000D02*
X50000000Y-105201700D01*
X114406200Y-150392100D02*
X114406200Y-134204500D01*
X114000000Y-128000000D02*
X114000000Y-129201700D01*
X77793700Y-65366300D02*
X78160000Y-65000000D01*
X78160000Y-63840000D02*
X78160000Y-65000000D01*
X77793700Y-74592000D02*
X77793700Y-65366300D01*
X114000000Y-152000000D02*
X114000000Y-150798300D01*
X50000000Y-83220000D02*
X50000000Y-80000000D01*
X82414000Y-150384300D02*
X82414000Y-129615700D01*
X50406200Y-126392100D02*
X50406200Y-105607900D01*
X146000000Y-80000000D02*
X146000000Y-78798300D01*
X50406200Y-150392100D02*
X50000000Y-150798300D01*
X114406200Y-129607900D02*
X114000000Y-129201700D01*
X146000000Y-78798300D02*
X138540000Y-71338300D01*
X82000000Y-80000000D02*
X82000000Y-78798300D01*
X50000000Y-104000000D02*
X50000000Y-102798300D01*
X82000000Y-78798300D02*
X77793700Y-74592000D01*
X102160000Y-60000000D02*
X98186300Y-56026300D01*
X82000000Y-105201700D02*
X82406200Y-105607900D01*
X52780000Y-100018300D02*
X52780000Y-86000000D01*
X150000000Y-52000000D02*
X162000000Y-64000000D01*
X50000000Y-126798300D02*
X50406200Y-126392100D01*
X50000000Y-80000000D02*
X50000000Y-78798300D01*
X146000000Y-152000000D02*
X146000000Y-150798300D01*
X50000000Y-138908800D02*
X50406200Y-139315000D01*
X146000000Y-104000000D02*
X146000000Y-105201700D01*
X98186300Y-37463700D02*
X100000000Y-35650000D01*
X82000000Y-150798300D02*
X82414000Y-150384300D01*
X114000000Y-150798300D02*
X114406200Y-150392100D01*
X146406200Y-150392100D02*
X146406200Y-129607900D01*
X50000000Y-78798300D02*
X51201700Y-77596600D01*
X82406200Y-105607900D02*
X82406200Y-126392100D01*
X50406200Y-139315000D02*
X50406200Y-150392100D01*
X50000000Y-128000000D02*
X50000000Y-138908800D01*
X146000000Y-128000000D02*
X146000000Y-129201700D01*
X50000000Y-128000000D02*
X50000000Y-126798300D01*
X146406200Y-126392100D02*
X146406200Y-105607900D01*
X51201700Y-58418300D02*
X55620000Y-54000000D01*
X146406200Y-105607900D02*
X146000000Y-105201700D01*
X138540000Y-71338300D02*
X138540000Y-60000000D01*
X50000000Y-152000000D02*
X50000000Y-150798300D01*
X98186300Y-56026300D02*
X98186300Y-37463700D01*
X82000000Y-128000000D02*
X82000000Y-126798300D01*
X82000000Y-152000000D02*
X82000000Y-150798300D01*
X146000000Y-126798300D02*
X146406200Y-126392100D01*
X146000000Y-128000000D02*
X146000000Y-126798300D01*
X52780000Y-86000000D02*
X50000000Y-83220000D01*
X114406200Y-134204500D02*
X114406200Y-129607900D01*
%TO.N,A11*%
X123237000Y-142744300D02*
X123237000Y-148047000D01*
X123149700Y-149149700D02*
X125000000Y-151000000D01*
X123149700Y-148134300D02*
X123149700Y-149149700D01*
X117750000Y-120242000D02*
X117750000Y-137257300D01*
X123237000Y-148047000D02*
X123149700Y-148134300D01*
X101040000Y-103532000D02*
X117750000Y-120242000D01*
X117750000Y-137257300D02*
X123237000Y-142744300D01*
X101040000Y-86000000D02*
X101040000Y-103532000D01*
%TO.N,D26*%
X125898300Y-126484400D02*
X125898300Y-127456300D01*
X126124700Y-127682700D02*
X126124700Y-157956500D01*
X128238300Y-125898300D02*
X126484400Y-125898300D01*
X128980000Y-126640000D02*
X128238300Y-125898300D01*
X125898300Y-127456300D02*
X126124700Y-127682700D01*
X126484400Y-125898300D02*
X125898300Y-126484400D01*
%TO.N,D27*%
X123813300Y-127608800D02*
X123813300Y-148886200D01*
X130131700Y-123602000D02*
X129457500Y-122927800D01*
X129457500Y-122927800D02*
X128494300Y-122927800D01*
X131520000Y-126640000D02*
X130131700Y-125251700D01*
X128494300Y-122927800D02*
X123813300Y-127608800D01*
X130131700Y-125251700D02*
X130131700Y-123602000D01*
%TO.N,D24*%
X42622300Y-110122300D02*
X42622300Y-131581400D01*
X32500000Y-100000000D02*
X42622300Y-110122300D01*
%TO.N,D25*%
X45736700Y-128651200D02*
X46121000Y-129035500D01*
X43000000Y-100000000D02*
X45736700Y-102736700D01*
X46121000Y-129035500D02*
X46121000Y-132009300D01*
X45736700Y-102736700D02*
X45736700Y-128651200D01*
%TO.N,D22*%
X130331700Y-128627400D02*
X131049100Y-127910000D01*
X130331700Y-130368300D02*
X130331700Y-128627400D01*
X165600200Y-65061100D02*
X166358600Y-64302700D01*
X132709900Y-111874300D02*
X165600200Y-78984000D01*
X166358600Y-64302700D02*
X166358600Y-61641400D01*
X132709900Y-127179600D02*
X132709900Y-111874300D01*
X131979500Y-127910000D02*
X132709900Y-127179600D01*
X128980000Y-131720000D02*
X130331700Y-130368300D01*
X166358600Y-61641400D02*
X168000000Y-60000000D01*
X165600200Y-78984000D02*
X165600200Y-65061100D01*
X131049100Y-127910000D02*
X131979500Y-127910000D01*
%TO.N,D23*%
X131520000Y-131720000D02*
X133311500Y-129928500D01*
X133311500Y-129928500D02*
X133311500Y-112688500D01*
X133311500Y-112688500D02*
X186000000Y-60000000D01*
%TO.N,A8*%
X108660000Y-86000000D02*
X118000000Y-86000000D01*
X118000000Y-86000000D02*
X125000000Y-79000000D01*
%TO.N,A9*%
X122000000Y-101880000D02*
X122000000Y-103000000D01*
X106120000Y-86000000D02*
X122000000Y-101880000D01*
%TO.N,A10*%
X103580000Y-86000000D02*
X103580000Y-95863100D01*
X118447400Y-110730500D02*
X118447400Y-123447400D01*
X103580000Y-95863100D02*
X118447400Y-110730500D01*
X118447400Y-123447400D02*
X122000000Y-127000000D01*
%TO.N,A14*%
X155330700Y-127000000D02*
X147241500Y-118910800D01*
X157000000Y-127000000D02*
X155330700Y-127000000D01*
X147241500Y-118910800D02*
X147241500Y-100619400D01*
%TO.N,A15*%
X66750000Y-133555900D02*
X76904800Y-123401100D01*
X66750000Y-146805900D02*
X66750000Y-133555900D01*
X90880000Y-86568000D02*
X90880000Y-86000000D01*
X76904800Y-123401100D02*
X76904800Y-104326200D01*
X83026100Y-94421900D02*
X90880000Y-86568000D01*
X83026100Y-98204900D02*
X83026100Y-94421900D01*
X50000000Y-180000000D02*
X63973800Y-166026200D01*
X63973800Y-149582100D02*
X66750000Y-146805900D01*
X63973800Y-166026200D02*
X63973800Y-149582100D01*
X76904800Y-104326200D02*
X83026100Y-98204900D01*
%TO.N,POT3_W*%
X123349200Y-75650800D02*
X125000000Y-74000000D01*
X116500000Y-80000000D02*
X120849200Y-75650800D01*
X120849200Y-75650800D02*
X123349200Y-75650800D01*
%TO.N,OPTO_ANODE*%
X48000000Y-56540000D02*
X44160000Y-60380000D01*
X44160000Y-60380000D02*
X44160000Y-65000000D01*
%TO.N,OPTO_CATHODE*%
X41620000Y-43120000D02*
X41620000Y-59000000D01*
X39000000Y-40500000D02*
X41620000Y-43120000D01*
%TO.N,LED7_A*%
X37540000Y-155300000D02*
X37540000Y-160000000D01*
X43000000Y-149840000D02*
X37540000Y-155300000D01*
%TO.N,A2*%
X80720000Y-86000000D02*
X74688200Y-92031800D01*
X74688200Y-92031800D02*
X74688200Y-118471800D01*
X74688200Y-118471800D02*
X71160000Y-122000000D01*
%TO.N,MUX_CH0*%
X162000000Y-146000000D02*
X167160000Y-146000000D01*
X157000000Y-151000000D02*
X162000000Y-146000000D01*
%TO.N,D2*%
X72860000Y-180000000D02*
X71590000Y-178730000D01*
X71590000Y-178730000D02*
X71590000Y-154448700D01*
X71590000Y-154448700D02*
X68020000Y-150878700D01*
X68020000Y-150878700D02*
X68020000Y-134260000D01*
%TO.N,D3*%
X74271500Y-178871500D02*
X74271500Y-137971500D01*
X75400000Y-180000000D02*
X74271500Y-178871500D01*
X74271500Y-137971500D02*
X70560000Y-134260000D01*
%TO.N,D13*%
X43636000Y-134260000D02*
X43636000Y-137173500D01*
%TO.N,D4*%
X75400000Y-136560000D02*
X73100000Y-134260000D01*
X75400000Y-164760000D02*
X75400000Y-136560000D01*
%TO.N,A0*%
X84648300Y-86000000D02*
X84648300Y-85712100D01*
X85800000Y-86000000D02*
X84648300Y-86000000D01*
X72936200Y-74000000D02*
X71160000Y-74000000D01*
X84648300Y-85712100D02*
X72936200Y-74000000D01*
%TO.N,A1*%
X82065000Y-84805000D02*
X83260000Y-86000000D01*
X79450000Y-86407900D02*
X79450000Y-85627400D01*
X79450000Y-85627400D02*
X80272400Y-84805000D01*
X71160000Y-98000000D02*
X71160000Y-94697900D01*
X80272400Y-84805000D02*
X82065000Y-84805000D01*
X71160000Y-94697900D02*
X79450000Y-86407900D01*
%TO.N,A3*%
X64886300Y-133021900D02*
X64136400Y-133771800D01*
X64136400Y-147863600D02*
X61000000Y-151000000D01*
X64136400Y-133771800D02*
X64136400Y-147863600D01*
X64886300Y-99293700D02*
X64886300Y-133021900D01*
X78180000Y-86000000D02*
X64886300Y-99293700D01*
%TO.N,A5*%
X98000000Y-74000000D02*
X103160000Y-74000000D01*
X93000000Y-79000000D02*
X98000000Y-74000000D01*
%TO.N,A7*%
X83271600Y-98527400D02*
X83627900Y-98171100D01*
X93000000Y-151000000D02*
X91413100Y-149413100D01*
X91413100Y-149413100D02*
X91413100Y-142255000D01*
X83271600Y-134113500D02*
X83271600Y-98527400D01*
X83627900Y-98171100D02*
X83627900Y-96986300D01*
X91413100Y-142255000D02*
X83271600Y-134113500D01*
%TO.N,LED6_A*%
X43000000Y-89840000D02*
X37540000Y-95300000D01*
X37540000Y-95300000D02*
X37540000Y-100000000D01*
%TO.N,MIDI_IN_4*%
X49000000Y-40500000D02*
X43059800Y-46440200D01*
X37217900Y-65000000D02*
X34000000Y-65000000D01*
X43059800Y-46440200D02*
X43059800Y-59158100D01*
X43059800Y-59158100D02*
X37217900Y-65000000D01*
%TO.N,LED3_A*%
X180540000Y-127300000D02*
X180540000Y-132000000D01*
X186000000Y-121840000D02*
X180540000Y-127300000D01*
%TO.N,D7*%
X158857700Y-113060200D02*
X155714100Y-116203800D01*
X158857700Y-93142300D02*
X158857700Y-113060200D01*
X155714100Y-116203800D02*
X155714100Y-122818500D01*
X168000000Y-84000000D02*
X158857700Y-93142300D01*
%TO.N,D0_RX*%
X64329800Y-132870200D02*
X62940000Y-134260000D01*
X64329800Y-68670200D02*
X64329800Y-132870200D01*
X68000000Y-65000000D02*
X64329800Y-68670200D01*
%TO.N,POT2_W*%
X84500000Y-80000000D02*
X88849200Y-75650800D01*
X88849200Y-75650800D02*
X91349200Y-75650800D01*
X91349200Y-75650800D02*
X93000000Y-74000000D01*
%TO.N,LED5_A*%
X186000000Y-54540000D02*
X180540000Y-60000000D01*
X186000000Y-49840000D02*
X186000000Y-54540000D01*
%TO.N,D21_SCL*%
X103261700Y-64392900D02*
X92640500Y-53771700D01*
X103261700Y-66456400D02*
X103261700Y-64392900D01*
X92640500Y-53771700D02*
X92640500Y-48103500D01*
X92050000Y-80747200D02*
X91884500Y-80581700D01*
X85750000Y-134210000D02*
X85750000Y-95190700D01*
X85800000Y-134260000D02*
X85750000Y-134210000D01*
X92050000Y-88890700D02*
X92050000Y-80747200D01*
X91884500Y-77833600D02*
X103261700Y-66456400D01*
X85750000Y-95190700D02*
X92050000Y-88890700D01*
X91884500Y-80581700D02*
X91884500Y-77833600D01*
%TO.N,D20_SDA*%
X94703000Y-127897000D02*
X94703000Y-84527300D01*
X94703000Y-84527300D02*
X104280100Y-74950200D01*
X104280100Y-54663700D02*
X103657900Y-54041500D01*
X104280100Y-74950200D02*
X104280100Y-54663700D01*
X88340000Y-134260000D02*
X94703000Y-127897000D01*
%TO.N,VIN_RAW*%
X138000000Y-54380000D02*
X143620000Y-60000000D01*
X138000000Y-38000000D02*
X138000000Y-54380000D01*
%TO.N,MIDI_OUT_5*%
X92000000Y-65500000D02*
X92000000Y-66000000D01*
X67000000Y-40500000D02*
X92000000Y-65500000D01*
%TO.N,D1_TX*%
X88718900Y-80429400D02*
X88718900Y-88078500D01*
X65480000Y-132994100D02*
X65480000Y-134260000D01*
X88718900Y-88078500D02*
X82624400Y-94173000D01*
X82624400Y-97959800D02*
X75289800Y-105294400D01*
X82624400Y-94173000D02*
X82624400Y-97959800D01*
X75289800Y-123184300D02*
X65480000Y-132994100D01*
X75289800Y-105294400D02*
X75289800Y-123184300D01*
X102160000Y-66000000D02*
X102160000Y-66988300D01*
X102160000Y-66988300D02*
X88718900Y-80429400D01*
%TO.N,D12*%
X45136500Y-130219500D02*
X41096000Y-134260000D01*
X45136500Y-129664400D02*
X45136500Y-130219500D01*
%TO.N,LED1_A*%
X180540000Y-79300000D02*
X180540000Y-84000000D01*
X186000000Y-73840000D02*
X180540000Y-79300000D01*
%TO.N,POT16_W*%
X152849200Y-147650800D02*
X155349200Y-147650800D01*
X155349200Y-147650800D02*
X157000000Y-146000000D01*
X148500000Y-152000000D02*
X152849200Y-147650800D01*
%TO.N,LED4_A*%
X180540000Y-151300000D02*
X180540000Y-156000000D01*
X186000000Y-145840000D02*
X180540000Y-151300000D01*
%TO.N,LED2_A*%
X180540000Y-103300000D02*
X180540000Y-108000000D01*
X186000000Y-97840000D02*
X180540000Y-103300000D01*
%TO.N,JACK_W*%
X104681800Y-46681800D02*
X100000000Y-42000000D01*
X104681800Y-75216400D02*
X104681800Y-46681800D01*
X112000000Y-172000000D02*
X99885900Y-159885900D01*
X99885900Y-80012300D02*
X104681800Y-75216400D01*
X99885900Y-159885900D02*
X99885900Y-80012300D01*
%TD*%
M02*
