%TF.GenerationSoftware,KiCad,Pcbnew,10.0.3*%
%TF.CreationDate,2026-07-28T16:30:04+02:00*%
%TF.ProjectId,SysEx_Patcher,53797345-785f-4506-9174-636865722e6b,rev?*%
%TF.SameCoordinates,Original*%
%TF.FileFunction,Copper,L3,Inr*%
%TF.FilePolarity,Positive*%
%FSLAX46Y46*%
G04 Gerber Fmt 4.6, Leading zero omitted, Abs format (unit mm)*
G04 Created by KiCad (PCBNEW 10.0.3) date 2026-07-28 16:30:04*
%MOMM*%
%LPD*%
G01*
G04 APERTURE LIST*
G04 Aperture macros list*
%AMRoundRect*
0 Rectangle with rounded corners*
0 $1 Rounding radius*
0 $2 $3 $4 $5 $6 $7 $8 $9 X,Y pos of 4 corners*
0 Add a 4 corners polygon primitive as box body*
4,1,4,$2,$3,$4,$5,$6,$7,$8,$9,$2,$3,0*
0 Add four circle primitives for the rounded corners*
1,1,$1+$1,$2,$3*
1,1,$1+$1,$4,$5*
1,1,$1+$1,$6,$7*
1,1,$1+$1,$8,$9*
0 Add four rect primitives between the rounded corners*
20,1,$1+$1,$2,$3,$4,$5,0*
20,1,$1+$1,$4,$5,$6,$7,0*
20,1,$1+$1,$6,$7,$8,$9,0*
20,1,$1+$1,$8,$9,$2,$3,0*%
G04 Aperture macros list end*
%TA.AperFunction,ComponentPad*%
%ADD10C,1.600000*%
%TD*%
%TA.AperFunction,ComponentPad*%
%ADD11R,1.700000X1.700000*%
%TD*%
%TA.AperFunction,ComponentPad*%
%ADD12C,1.700000*%
%TD*%
%TA.AperFunction,ComponentPad*%
%ADD13R,1.800000X1.800000*%
%TD*%
%TA.AperFunction,ComponentPad*%
%ADD14C,1.800000*%
%TD*%
%TA.AperFunction,ComponentPad*%
%ADD15RoundRect,0.750000X-1.250000X-0.750000X1.250000X-0.750000X1.250000X0.750000X-1.250000X0.750000X0*%
%TD*%
%TA.AperFunction,ComponentPad*%
%ADD16RoundRect,0.250000X-0.550000X-0.550000X0.550000X-0.550000X0.550000X0.550000X-0.550000X0.550000X0*%
%TD*%
%TA.AperFunction,ComponentPad*%
%ADD17C,2.600000*%
%TD*%
%TA.AperFunction,ComponentPad*%
%ADD18C,2.400000*%
%TD*%
%TA.AperFunction,ComponentPad*%
%ADD19C,2.000000*%
%TD*%
%TA.AperFunction,ComponentPad*%
%ADD20R,3.500000X3.500000*%
%TD*%
%TA.AperFunction,ComponentPad*%
%ADD21RoundRect,0.750000X-0.750000X-1.000000X0.750000X-1.000000X0.750000X1.000000X-0.750000X1.000000X0*%
%TD*%
%TA.AperFunction,ComponentPad*%
%ADD22RoundRect,0.875000X-0.875000X-0.875000X0.875000X-0.875000X0.875000X0.875000X-0.875000X0.875000X0*%
%TD*%
%TA.AperFunction,ComponentPad*%
%ADD23RoundRect,0.249999X-0.850001X-0.850001X0.850001X-0.850001X0.850001X0.850001X-0.850001X0.850001X0*%
%TD*%
%TA.AperFunction,ComponentPad*%
%ADD24C,2.200000*%
%TD*%
%TA.AperFunction,ViaPad*%
%ADD25C,0.600000*%
%TD*%
%TA.AperFunction,Conductor*%
%ADD26C,0.200000*%
%TD*%
G04 APERTURE END LIST*
D10*
%TO.N,POT8_W*%
%TO.C,R17*%
X157000000Y-98000000D03*
%TO.N,A13*%
X167160000Y-98000000D03*
%TD*%
D11*
%TO.N,D7*%
%TO.C,JMD2*%
X80720000Y-86000000D03*
D12*
%TO.N,D6*%
X78180000Y-86000000D03*
%TO.N,D5*%
X75640000Y-86000000D03*
%TO.N,D4*%
X73100000Y-86000000D03*
%TO.N,D3*%
X70560000Y-86000000D03*
%TO.N,D2*%
X68020000Y-86000000D03*
%TO.N,D1_TX*%
X65480000Y-86000000D03*
%TO.N,D0_RX*%
X62940000Y-86000000D03*
%TD*%
D10*
%TO.N,MIDI_OUT_4*%
%TO.C,R2*%
X92000000Y-60000000D03*
%TO.N,+5V*%
X102160000Y-60000000D03*
%TD*%
D13*
%TO.N,+5V*%
%TO.C,RV4*%
X146000000Y-80000000D03*
D14*
%TO.N,POT4_W*%
X148500000Y-80000000D03*
%TO.N,GND*%
X151000000Y-80000000D03*
D15*
%TO.N,N/C*%
X144100000Y-73000000D03*
X152900000Y-73000000D03*
%TD*%
D10*
%TO.N,A11*%
%TO.C,C16*%
X125000000Y-151000000D03*
%TO.N,GND*%
X130000000Y-151000000D03*
%TD*%
%TO.N,POT3_W*%
%TO.C,R12*%
X125000000Y-74000000D03*
%TO.N,A8*%
X135160000Y-74000000D03*
%TD*%
D16*
%TO.N,OPTO_ANODE*%
%TO.C,D1*%
X34000000Y-59000000D03*
D10*
%TO.N,OPTO_CATHODE*%
X41620000Y-59000000D03*
%TD*%
D13*
%TO.N,GND*%
%TO.C,D9*%
X35000000Y-160000000D03*
D14*
%TO.N,LED7_A*%
X37540000Y-160000000D03*
%TD*%
D10*
%TO.N,+5V*%
%TO.C,C1*%
X80000000Y-62000000D03*
%TO.N,GND*%
X85000000Y-62000000D03*
%TD*%
%TO.N,POT9_W*%
%TO.C,R18*%
X61000000Y-122000000D03*
%TO.N,A2*%
X71160000Y-122000000D03*
%TD*%
D16*
%TO.N,A15*%
%TO.C,U2*%
X50000000Y-180000000D03*
D10*
%TO.N,MUX_CH7*%
X52540000Y-180000000D03*
%TO.N,MUX_CH6*%
X55080000Y-180000000D03*
%TO.N,MUX_CH5*%
X57620000Y-180000000D03*
%TO.N,MUX_CH4*%
X60160000Y-180000000D03*
%TO.N,MUX_CH3*%
X62700000Y-180000000D03*
%TO.N,MUX_CH2*%
X65240000Y-180000000D03*
%TO.N,MUX_CH1*%
X67780000Y-180000000D03*
%TO.N,MUX_CH0*%
X70320000Y-180000000D03*
%TO.N,D2*%
X72860000Y-180000000D03*
%TO.N,D3*%
X75400000Y-180000000D03*
%TO.N,GND*%
X77940000Y-180000000D03*
%TO.N,D13*%
X77940000Y-164760000D03*
%TO.N,D4*%
X75400000Y-164760000D03*
%TO.N,GND*%
X72860000Y-164760000D03*
%TO.N,MUX_CH15*%
X70320000Y-164760000D03*
%TO.N,MUX_CH14*%
X67780000Y-164760000D03*
%TO.N,MUX_CH13*%
X65240000Y-164760000D03*
%TO.N,MUX_CH12*%
X62700000Y-164760000D03*
%TO.N,MUX_CH11*%
X60160000Y-164760000D03*
%TO.N,MUX_CH10*%
X57620000Y-164760000D03*
%TO.N,MUX_CH9*%
X55080000Y-164760000D03*
%TO.N,MUX_CH8*%
X52540000Y-164760000D03*
%TO.N,+5V*%
X50000000Y-164760000D03*
%TD*%
D13*
%TO.N,+5V*%
%TO.C,RV1*%
X50000000Y-80000000D03*
D14*
%TO.N,POT1_W*%
X52500000Y-80000000D03*
%TO.N,GND*%
X55000000Y-80000000D03*
D15*
%TO.N,N/C*%
X48100000Y-73000000D03*
X56900000Y-73000000D03*
%TD*%
D10*
%TO.N,D17*%
%TO.C,R29*%
X43000000Y-100000000D03*
%TO.N,LED6_A*%
X43000000Y-89840000D03*
%TD*%
D17*
%TO.N,*%
%TO.C,J1*%
X45000000Y-28300000D03*
X55000000Y-28300000D03*
D18*
%TO.N,N/C*%
X42700000Y-38000000D03*
%TO.N,GND*%
X50000000Y-38000000D03*
%TO.N,N/C*%
X57300000Y-38000000D03*
%TO.N,MIDI_IN_4*%
X55000000Y-40500000D03*
%TO.N,OPTO_CATHODE*%
X45000000Y-40500000D03*
%TD*%
D19*
%TO.N,D5*%
%TO.C,SW5*%
X168000000Y-156000000D03*
X174500000Y-156000000D03*
%TO.N,GND*%
X168000000Y-160500000D03*
X174500000Y-160500000D03*
%TD*%
D11*
%TO.N,D14*%
%TO.C,JMD3*%
X103580000Y-86000000D03*
D12*
%TO.N,D15*%
X101040000Y-86000000D03*
%TO.N,D16*%
X98500000Y-86000000D03*
%TO.N,D17*%
X95960000Y-86000000D03*
%TO.N,D18*%
X93420000Y-86000000D03*
%TO.N,D19*%
X90880000Y-86000000D03*
%TO.N,D20_SDA*%
X88340000Y-86000000D03*
%TO.N,D21_SCL*%
X85800000Y-86000000D03*
%TD*%
D13*
%TO.N,GND*%
%TO.C,D5*%
X178000000Y-132000000D03*
D14*
%TO.N,LED3_A*%
X180540000Y-132000000D03*
%TD*%
D19*
%TO.N,D18*%
%TO.C,SW8*%
X26000000Y-160000000D03*
X32500000Y-160000000D03*
%TO.N,GND*%
X26000000Y-164500000D03*
X32500000Y-164500000D03*
%TD*%
%TO.N,D7*%
%TO.C,SW2*%
X168000000Y-84000000D03*
X174500000Y-84000000D03*
%TO.N,GND*%
X168000000Y-88500000D03*
X174500000Y-88500000D03*
%TD*%
D16*
%TO.N,N/C*%
%TO.C,U1*%
X48000000Y-54000000D03*
D10*
%TO.N,OPTO_ANODE*%
X48000000Y-56540000D03*
%TO.N,OPTO_CATHODE*%
X48000000Y-59080000D03*
%TO.N,N/C*%
X48000000Y-61620000D03*
%TO.N,GND*%
X55620000Y-61620000D03*
%TO.N,D0_RX*%
X55620000Y-59080000D03*
%TO.N,OPTO_VB*%
X55620000Y-56540000D03*
%TO.N,+5V*%
X55620000Y-54000000D03*
%TD*%
%TO.N,A5*%
%TO.C,C3*%
X93000000Y-79000000D03*
%TO.N,GND*%
X98000000Y-79000000D03*
%TD*%
%TO.N,A8*%
%TO.C,C4*%
X125000000Y-79000000D03*
%TO.N,GND*%
X130000000Y-79000000D03*
%TD*%
D13*
%TO.N,+5V*%
%TO.C,RV5*%
X50000000Y-104000000D03*
D14*
%TO.N,POT5_W*%
X52500000Y-104000000D03*
%TO.N,GND*%
X55000000Y-104000000D03*
D15*
%TO.N,N/C*%
X48100000Y-97000000D03*
X56900000Y-97000000D03*
%TD*%
D10*
%TO.N,POT2_W*%
%TO.C,R11*%
X93000000Y-74000000D03*
%TO.N,A5*%
X103160000Y-74000000D03*
%TD*%
D13*
%TO.N,GND*%
%TO.C,D7*%
X178000000Y-60000000D03*
D14*
%TO.N,LED5_A*%
X180540000Y-60000000D03*
%TD*%
D11*
%TO.N,GND*%
%TO.C,J5*%
X166000000Y-32000000D03*
D12*
%TO.N,+5V*%
X168540000Y-32000000D03*
%TO.N,D21_SCL*%
X171080000Y-32000000D03*
%TO.N,D20_SDA*%
X173620000Y-32000000D03*
%TD*%
D11*
%TO.N,A8*%
%TO.C,JMA2*%
X108660000Y-134260000D03*
D12*
%TO.N,A9*%
X106120000Y-134260000D03*
%TO.N,A10*%
X103580000Y-134260000D03*
%TO.N,A11*%
X101040000Y-134260000D03*
%TO.N,A12*%
X98500000Y-134260000D03*
%TO.N,A13*%
X95960000Y-134260000D03*
%TO.N,A14*%
X93420000Y-134260000D03*
%TO.N,A15*%
X90880000Y-134260000D03*
%TD*%
D20*
%TO.N,VIN_RAW*%
%TO.C,J3*%
X138000000Y-38000000D03*
D21*
%TO.N,GND*%
X138000000Y-32000000D03*
D22*
%TO.N,N/C*%
X133300000Y-35000000D03*
%TD*%
D17*
%TO.N,*%
%TO.C,J2*%
X82000000Y-28300000D03*
X92000000Y-28300000D03*
D18*
%TO.N,N/C*%
X79700000Y-38000000D03*
%TO.N,GND*%
X87000000Y-38000000D03*
%TO.N,N/C*%
X94300000Y-38000000D03*
%TO.N,MIDI_OUT_4*%
X92000000Y-40500000D03*
%TO.N,MIDI_OUT_5*%
X82000000Y-40500000D03*
%TD*%
D13*
%TO.N,+5V*%
%TO.C,RV8*%
X146000000Y-104000000D03*
D14*
%TO.N,POT8_W*%
X148500000Y-104000000D03*
%TO.N,GND*%
X151000000Y-104000000D03*
D15*
%TO.N,N/C*%
X144100000Y-97000000D03*
X152900000Y-97000000D03*
%TD*%
D10*
%TO.N,A1*%
%TO.C,C6*%
X61000000Y-103000000D03*
%TO.N,GND*%
X66000000Y-103000000D03*
%TD*%
D13*
%TO.N,GND*%
%TO.C,J10*%
X114000000Y-40000000D03*
D14*
%TO.N,+5V*%
X112730000Y-37460000D03*
%TO.N,JACK_W*%
X110190000Y-37460000D03*
%TO.N,SW_BEND*%
X108920000Y-40000000D03*
%TO.N,N/C*%
X111460000Y-40000000D03*
%TD*%
D10*
%TO.N,A6*%
%TO.C,C11*%
X93000000Y-127000000D03*
%TO.N,GND*%
X98000000Y-127000000D03*
%TD*%
%TO.N,D15*%
%TO.C,R28*%
X186000000Y-60000000D03*
%TO.N,LED5_A*%
X186000000Y-49840000D03*
%TD*%
D13*
%TO.N,+5V*%
%TO.C,RV11*%
X114000000Y-128000000D03*
D14*
%TO.N,POT11_W*%
X116500000Y-128000000D03*
%TO.N,GND*%
X119000000Y-128000000D03*
D15*
%TO.N,N/C*%
X112100000Y-121000000D03*
X120900000Y-121000000D03*
%TD*%
D11*
%TO.N,N/C*%
%TO.C,JMP1*%
X62940000Y-134260000D03*
D12*
X60400000Y-134260000D03*
X57860000Y-134260000D03*
X55320000Y-134260000D03*
%TO.N,+5V*%
X52780000Y-134260000D03*
%TO.N,GND*%
X50240000Y-134260000D03*
X47700000Y-134260000D03*
%TO.N,VIN_RAW*%
X45160000Y-134260000D03*
%TD*%
D10*
%TO.N,D19*%
%TO.C,R30*%
X43000000Y-160000000D03*
%TO.N,LED7_A*%
X43000000Y-149840000D03*
%TD*%
D11*
%TO.N,A0*%
%TO.C,JMA1*%
X85800000Y-134260000D03*
D12*
%TO.N,A1*%
X83260000Y-134260000D03*
%TO.N,A2*%
X80720000Y-134260000D03*
%TO.N,A3*%
X78180000Y-134260000D03*
%TO.N,A4*%
X75640000Y-134260000D03*
%TO.N,A5*%
X73100000Y-134260000D03*
%TO.N,A6*%
X70560000Y-134260000D03*
%TO.N,A7*%
X68020000Y-134260000D03*
%TD*%
D10*
%TO.N,D12*%
%TO.C,R6*%
X186000000Y-84000000D03*
%TO.N,LED1_A*%
X186000000Y-73840000D03*
%TD*%
%TO.N,POT14_W*%
%TO.C,R23*%
X93000000Y-146000000D03*
%TO.N,A7*%
X103160000Y-146000000D03*
%TD*%
%TO.N,POT16_W*%
%TO.C,R25*%
X157000000Y-146000000D03*
%TO.N,MUX_CH0*%
X167160000Y-146000000D03*
%TD*%
D13*
%TO.N,+5V*%
%TO.C,RV2*%
X82000000Y-80000000D03*
D14*
%TO.N,POT2_W*%
X84500000Y-80000000D03*
%TO.N,GND*%
X87000000Y-80000000D03*
D15*
%TO.N,N/C*%
X80100000Y-73000000D03*
X88900000Y-73000000D03*
%TD*%
D13*
%TO.N,+5V*%
%TO.C,RV10*%
X82000000Y-128000000D03*
D14*
%TO.N,POT10_W*%
X84500000Y-128000000D03*
%TO.N,GND*%
X87000000Y-128000000D03*
D15*
%TO.N,N/C*%
X80100000Y-121000000D03*
X88900000Y-121000000D03*
%TD*%
D10*
%TO.N,MIDI_IN_4*%
%TO.C,R1*%
X34000000Y-65000000D03*
%TO.N,OPTO_ANODE*%
X44160000Y-65000000D03*
%TD*%
%TO.N,D10*%
%TO.C,R8*%
X186000000Y-132000000D03*
%TO.N,LED3_A*%
X186000000Y-121840000D03*
%TD*%
%TO.N,A4*%
%TO.C,C7*%
X93000000Y-103000000D03*
%TO.N,GND*%
X98000000Y-103000000D03*
%TD*%
D13*
%TO.N,+5V*%
%TO.C,RV6*%
X82000000Y-104000000D03*
D14*
%TO.N,POT6_W*%
X84500000Y-104000000D03*
%TO.N,GND*%
X87000000Y-104000000D03*
D15*
%TO.N,N/C*%
X80100000Y-97000000D03*
X88900000Y-97000000D03*
%TD*%
D23*
%TO.N,+5V*%
%TO.C,D2D*%
X150000000Y-52000000D03*
D24*
%TO.N,VIN_RAW*%
X160160000Y-52000000D03*
%TD*%
D13*
%TO.N,GND*%
%TO.C,D8*%
X35000000Y-100000000D03*
D14*
%TO.N,LED6_A*%
X37540000Y-100000000D03*
%TD*%
D13*
%TO.N,+5V*%
%TO.C,RV15*%
X114000000Y-152000000D03*
D14*
%TO.N,POT15_W*%
X116500000Y-152000000D03*
%TO.N,GND*%
X119000000Y-152000000D03*
D15*
%TO.N,N/C*%
X112100000Y-145000000D03*
X120900000Y-145000000D03*
%TD*%
D13*
%TO.N,+5V*%
%TO.C,RV7*%
X114000000Y-104000000D03*
D14*
%TO.N,POT7_W*%
X116500000Y-104000000D03*
%TO.N,GND*%
X119000000Y-104000000D03*
D15*
%TO.N,N/C*%
X112100000Y-97000000D03*
X120900000Y-97000000D03*
%TD*%
D10*
%TO.N,A0*%
%TO.C,C2*%
X61000000Y-79000000D03*
%TO.N,GND*%
X66000000Y-79000000D03*
%TD*%
D13*
%TO.N,+5V*%
%TO.C,RV12*%
X146000000Y-128000000D03*
D14*
%TO.N,POT12_W*%
X148500000Y-128000000D03*
%TO.N,GND*%
X151000000Y-128000000D03*
D15*
%TO.N,N/C*%
X144100000Y-121000000D03*
X152900000Y-121000000D03*
%TD*%
D13*
%TO.N,GND*%
%TO.C,D6*%
X178000000Y-156000000D03*
D14*
%TO.N,LED4_A*%
X180540000Y-156000000D03*
%TD*%
D10*
%TO.N,POT1_W*%
%TO.C,R10*%
X61000000Y-74000000D03*
%TO.N,A0*%
X71160000Y-74000000D03*
%TD*%
D13*
%TO.N,GND*%
%TO.C,D3*%
X178000000Y-84000000D03*
D14*
%TO.N,LED1_A*%
X180540000Y-84000000D03*
%TD*%
D19*
%TO.N,D14*%
%TO.C,SW6*%
X168000000Y-60000000D03*
X174500000Y-60000000D03*
%TO.N,GND*%
X168000000Y-64500000D03*
X174500000Y-64500000D03*
%TD*%
D13*
%TO.N,+5V*%
%TO.C,RV14*%
X82000000Y-152000000D03*
D14*
%TO.N,POT14_W*%
X84500000Y-152000000D03*
%TO.N,GND*%
X87000000Y-152000000D03*
D15*
%TO.N,N/C*%
X80100000Y-145000000D03*
X88900000Y-145000000D03*
%TD*%
D10*
%TO.N,MUX_CH2*%
%TO.C,R31*%
X108000000Y-182000000D03*
%TO.N,GND*%
X118160000Y-182000000D03*
%TD*%
%TO.N,MIDI_OUT_5*%
%TO.C,R3*%
X92000000Y-66000000D03*
%TO.N,D1_TX*%
X102160000Y-66000000D03*
%TD*%
%TO.N,D11*%
%TO.C,R7*%
X186000000Y-108000000D03*
%TO.N,LED2_A*%
X186000000Y-97840000D03*
%TD*%
D11*
%TO.N,GND*%
%TO.C,J4*%
X136000000Y-60000000D03*
D12*
%TO.N,+5V*%
X138540000Y-60000000D03*
%TO.N,GND*%
X141080000Y-60000000D03*
%TO.N,VIN_RAW*%
X143620000Y-60000000D03*
%TD*%
D10*
%TO.N,A3*%
%TO.C,C14*%
X61000000Y-151000000D03*
%TO.N,GND*%
X66000000Y-151000000D03*
%TD*%
%TO.N,A13*%
%TO.C,C9*%
X157000000Y-103000000D03*
%TO.N,GND*%
X162000000Y-103000000D03*
%TD*%
%TO.N,POT4_W*%
%TO.C,R13*%
X157000000Y-74000000D03*
%TO.N,A12*%
X167160000Y-74000000D03*
%TD*%
%TO.N,POT11_W*%
%TO.C,R20*%
X125000000Y-119000000D03*
%TO.N,A10*%
X125000000Y-108840000D03*
%TD*%
D13*
%TO.N,+5V*%
%TO.C,RV3*%
X114000000Y-80000000D03*
D14*
%TO.N,POT3_W*%
X116500000Y-80000000D03*
%TO.N,GND*%
X119000000Y-80000000D03*
D15*
%TO.N,N/C*%
X112100000Y-73000000D03*
X120900000Y-73000000D03*
%TD*%
D10*
%TO.N,A7*%
%TO.C,C15*%
X93000000Y-151000000D03*
%TO.N,GND*%
X98000000Y-151000000D03*
%TD*%
%TO.N,A9*%
%TO.C,C8*%
X138000000Y-104000000D03*
%TO.N,GND*%
X138000000Y-99000000D03*
%TD*%
%TO.N,POT13_W*%
%TO.C,R22*%
X61000000Y-146000000D03*
%TO.N,A3*%
X71160000Y-146000000D03*
%TD*%
D13*
%TO.N,GND*%
%TO.C,D4*%
X178000000Y-108000000D03*
D14*
%TO.N,LED2_A*%
X180540000Y-108000000D03*
%TD*%
D13*
%TO.N,+5V*%
%TO.C,RV13*%
X50000000Y-152000000D03*
D14*
%TO.N,POT13_W*%
X52500000Y-152000000D03*
%TO.N,GND*%
X55000000Y-152000000D03*
D15*
%TO.N,N/C*%
X48100000Y-145000000D03*
X56900000Y-145000000D03*
%TD*%
D10*
%TO.N,POT15_W*%
%TO.C,R24*%
X125000000Y-146000000D03*
%TO.N,A11*%
X135160000Y-146000000D03*
%TD*%
D13*
%TO.N,+5V*%
%TO.C,RV9*%
X50000000Y-128000000D03*
D14*
%TO.N,POT9_W*%
X52500000Y-128000000D03*
%TO.N,GND*%
X55000000Y-128000000D03*
D15*
%TO.N,N/C*%
X48100000Y-121000000D03*
X56900000Y-121000000D03*
%TD*%
D10*
%TO.N,A14*%
%TO.C,C13*%
X157000000Y-127000000D03*
%TO.N,GND*%
X162000000Y-127000000D03*
%TD*%
%TO.N,A2*%
%TO.C,C10*%
X61000000Y-127000000D03*
%TO.N,GND*%
X66000000Y-127000000D03*
%TD*%
D19*
%TO.N,D6*%
%TO.C,SW4*%
X168000000Y-132000000D03*
X174500000Y-132000000D03*
%TO.N,GND*%
X168000000Y-136500000D03*
X174500000Y-136500000D03*
%TD*%
D11*
%TO.N,D21_SCL*%
%TO.C,JMD1*%
X58876000Y-86000000D03*
D12*
%TO.N,D20_SDA*%
X56336000Y-86000000D03*
%TO.N,AREF*%
X53796000Y-86000000D03*
%TO.N,GND*%
X51256000Y-86000000D03*
%TO.N,D13*%
X48716000Y-86000000D03*
%TO.N,D12*%
X46176000Y-86000000D03*
%TO.N,D11*%
X43636000Y-86000000D03*
%TO.N,D10*%
X41096000Y-86000000D03*
%TO.N,D9*%
X38556000Y-86000000D03*
%TO.N,D8*%
X36016000Y-86000000D03*
%TD*%
D10*
%TO.N,OPTO_VB*%
%TO.C,R4*%
X68000000Y-59000000D03*
%TO.N,GND*%
X78160000Y-59000000D03*
%TD*%
D16*
%TO.N,+5V*%
%TO.C,C19*%
X162000000Y-64000000D03*
D10*
%TO.N,GND*%
X164500000Y-64000000D03*
%TD*%
D19*
%TO.N,D16*%
%TO.C,SW7*%
X26000000Y-100000000D03*
X32500000Y-100000000D03*
%TO.N,GND*%
X26000000Y-104500000D03*
X32500000Y-104500000D03*
%TD*%
D10*
%TO.N,MUX_CH1*%
%TO.C,C18*%
X136000000Y-172000000D03*
%TO.N,GND*%
X141000000Y-172000000D03*
%TD*%
D13*
%TO.N,+5V*%
%TO.C,RV16*%
X146000000Y-152000000D03*
D14*
%TO.N,POT16_W*%
X148500000Y-152000000D03*
%TO.N,GND*%
X151000000Y-152000000D03*
D15*
%TO.N,N/C*%
X144100000Y-145000000D03*
X152900000Y-145000000D03*
%TD*%
D10*
%TO.N,POT6_W*%
%TO.C,R15*%
X93000000Y-98000000D03*
%TO.N,A4*%
X103160000Y-98000000D03*
%TD*%
%TO.N,D9*%
%TO.C,R9*%
X186000000Y-156000000D03*
%TO.N,LED4_A*%
X186000000Y-145840000D03*
%TD*%
D19*
%TO.N,D8*%
%TO.C,SW3*%
X168000000Y-108000000D03*
X174500000Y-108000000D03*
%TO.N,GND*%
X168000000Y-112500000D03*
X174500000Y-112500000D03*
%TD*%
D10*
%TO.N,A10*%
%TO.C,C12*%
X138000000Y-128000000D03*
%TO.N,GND*%
X138000000Y-123000000D03*
%TD*%
%TO.N,POT5_W*%
%TO.C,R14*%
X61000000Y-98000000D03*
%TO.N,A1*%
X71160000Y-98000000D03*
%TD*%
%TO.N,JACK_W*%
%TO.C,R27*%
X112000000Y-172000000D03*
%TO.N,MUX_CH1*%
X122160000Y-172000000D03*
%TD*%
%TO.N,MUX_CH2*%
%TO.C,C20*%
X99000000Y-182000000D03*
%TO.N,GND*%
X104000000Y-182000000D03*
%TD*%
%TO.N,D0_RX*%
%TO.C,R5*%
X68000000Y-65000000D03*
%TO.N,+5V*%
X78160000Y-65000000D03*
%TD*%
%TO.N,POT7_W*%
%TO.C,R16*%
X125000000Y-95000000D03*
%TO.N,A9*%
X125000000Y-84840000D03*
%TD*%
%TO.N,POT10_W*%
%TO.C,R19*%
X93000000Y-122000000D03*
%TO.N,A6*%
X103160000Y-122000000D03*
%TD*%
%TO.N,MUX_CH0*%
%TO.C,C17*%
X157000000Y-151000000D03*
%TO.N,GND*%
X162000000Y-151000000D03*
%TD*%
%TO.N,POT12_W*%
%TO.C,R21*%
X157000000Y-122000000D03*
%TO.N,A14*%
X167160000Y-122000000D03*
%TD*%
%TO.N,A12*%
%TO.C,C5*%
X157000000Y-79000000D03*
%TO.N,GND*%
X162000000Y-79000000D03*
%TD*%
%TO.N,SW_BEND*%
%TO.C,R32*%
X86000000Y-182000000D03*
%TO.N,MUX_CH2*%
X96160000Y-182000000D03*
%TD*%
D25*
%TO.N,A13*%
X155801400Y-105316400D03*
X95960000Y-106061400D03*
%TO.N,D6*%
X80764500Y-92723700D03*
%TO.N,D5*%
X77795500Y-90390600D03*
X154705200Y-104798800D03*
%TO.N,D13*%
X45666700Y-157956500D03*
%TO.N,D17*%
X95609500Y-90593700D03*
%TO.N,D18*%
X94769100Y-91394000D03*
X44099900Y-101754700D03*
%TO.N,D19*%
X84410200Y-142531700D03*
%TO.N,A12*%
X106701600Y-87151700D03*
%TO.N,VIN_RAW*%
X112978600Y-124852600D03*
%TO.N,A1*%
X71105300Y-131235500D03*
%TO.N,A0*%
X72482500Y-129526300D03*
%TD*%
%TO.N,A13*%
D26*
X155801400Y-105316400D02*
X155056400Y-106061400D01*
X157000000Y-103000000D02*
X162000000Y-98000000D01*
X155056400Y-106061400D02*
X95960000Y-106061400D01*
X162000000Y-98000000D02*
X167160000Y-98000000D01*
%TO.N,D7*%
X94808300Y-86301000D02*
X93957600Y-87151700D01*
X99770000Y-86440900D02*
X99770000Y-85607400D01*
X98966400Y-84803800D02*
X95527500Y-84803800D01*
X101090500Y-87761400D02*
X99770000Y-86440900D01*
X93957600Y-87151700D02*
X92001400Y-87151700D01*
X80720000Y-86000000D02*
X81871700Y-86000000D01*
X91536100Y-87617000D02*
X83488700Y-87617000D01*
X174500000Y-84000000D02*
X168000000Y-84000000D01*
X168000000Y-84000000D02*
X128730900Y-84000000D01*
X95527500Y-84803800D02*
X94808300Y-85523000D01*
X128730900Y-84000000D02*
X124969500Y-87761400D01*
X99770000Y-85607400D02*
X98966400Y-84803800D01*
X83488700Y-87617000D02*
X81871700Y-86000000D01*
X94808300Y-85523000D02*
X94808300Y-86301000D01*
X124969500Y-87761400D02*
X101090500Y-87761400D01*
X92001400Y-87151700D02*
X91536100Y-87617000D01*
%TO.N,D6*%
X168000000Y-132000000D02*
X168709600Y-131290400D01*
X174500000Y-132000000D02*
X168000000Y-132000000D01*
X168709600Y-131290400D02*
X168709600Y-121367500D01*
X162984300Y-115642200D02*
X103683000Y-115642200D01*
X103683000Y-115642200D02*
X80764500Y-92723700D01*
X168709600Y-121367500D02*
X162984300Y-115642200D01*
%TO.N,D5*%
X94365600Y-90192000D02*
X94587600Y-89970000D01*
X152185300Y-102278900D02*
X154705200Y-104798800D01*
X121770000Y-89970000D02*
X134078900Y-102278900D01*
X134078900Y-102278900D02*
X152185300Y-102278900D01*
X77994100Y-90192000D02*
X94365600Y-90192000D01*
X94587600Y-89970000D02*
X121770000Y-89970000D01*
X77795500Y-90390600D02*
X77994100Y-90192000D01*
X174500000Y-156000000D02*
X168000000Y-156000000D01*
%TO.N,D1_TX*%
X91558600Y-73801600D02*
X91558600Y-73885600D01*
X76223500Y-75256500D02*
X65480000Y-86000000D01*
X102160000Y-66000000D02*
X99360200Y-66000000D01*
X99360200Y-66000000D02*
X91558600Y-73801600D01*
X91558600Y-73885600D02*
X90187700Y-75256500D01*
X90187700Y-75256500D02*
X76223500Y-75256500D01*
%TO.N,D0_RX*%
X55620000Y-59080000D02*
X62080000Y-59080000D01*
X62080000Y-59080000D02*
X68000000Y-65000000D01*
%TO.N,+5V*%
X143596600Y-105201700D02*
X144798300Y-104000000D01*
X82000000Y-152000000D02*
X83201700Y-152000000D01*
X115201700Y-104000000D02*
X115201700Y-104450600D01*
X146000000Y-104000000D02*
X144798300Y-104000000D01*
X143596600Y-153201700D02*
X144798300Y-152000000D01*
X64599300Y-54000000D02*
X72599300Y-62000000D01*
X50000000Y-128000000D02*
X51201700Y-128000000D01*
X112798300Y-152000000D02*
X111596600Y-153201700D01*
X91250500Y-61150300D02*
X101009700Y-61150300D01*
X82000000Y-128000000D02*
X80798300Y-128000000D01*
X146000000Y-152000000D02*
X144798300Y-152000000D01*
X51952700Y-129201700D02*
X51201700Y-128450700D01*
X115201700Y-104450600D02*
X115952800Y-105201700D01*
X114000000Y-152000000D02*
X115201700Y-152000000D01*
X90986300Y-60886100D02*
X91250500Y-61150300D01*
X115952800Y-153201700D02*
X143596600Y-153201700D01*
X115201700Y-152000000D02*
X115201700Y-152450600D01*
X81113900Y-60886100D02*
X90986300Y-60886100D01*
X150000000Y-52000000D02*
X146540000Y-52000000D01*
X115952800Y-105201700D02*
X143596600Y-105201700D01*
X51201700Y-128450700D02*
X51201700Y-128000000D01*
X146540000Y-52000000D02*
X138540000Y-60000000D01*
X111596600Y-153201700D02*
X83952700Y-153201700D01*
X55620000Y-54000000D02*
X64599300Y-54000000D01*
X83952700Y-153201700D02*
X83201700Y-152450700D01*
X115201700Y-152450600D02*
X115952800Y-153201700D01*
X73158000Y-128000000D02*
X71956300Y-129201700D01*
X83201700Y-152450700D02*
X83201700Y-152000000D01*
X71956300Y-129201700D02*
X51952700Y-129201700D01*
X114000000Y-152000000D02*
X112798300Y-152000000D01*
X72599300Y-62000000D02*
X80000000Y-62000000D01*
X101009700Y-61150300D02*
X102160000Y-60000000D01*
X114000000Y-104000000D02*
X115201700Y-104000000D01*
X80798300Y-128000000D02*
X73158000Y-128000000D01*
X80000000Y-62000000D02*
X81113900Y-60886100D01*
%TO.N,POT4_W*%
X155349200Y-75650800D02*
X157000000Y-74000000D01*
X148500000Y-80000000D02*
X152849200Y-75650800D01*
X152849200Y-75650800D02*
X155349200Y-75650800D01*
%TO.N,A11*%
X128281300Y-147718700D02*
X130000000Y-146000000D01*
X101040000Y-134260000D02*
X108371900Y-141591900D01*
X130000000Y-146000000D02*
X135160000Y-146000000D01*
X122154400Y-141591900D02*
X128281300Y-147718700D01*
X125000000Y-151000000D02*
X128281300Y-147718700D01*
X108371900Y-141591900D02*
X122154400Y-141591900D01*
%TO.N,POT3_W*%
X123865500Y-75134500D02*
X125000000Y-74000000D01*
X121365500Y-75134500D02*
X123865500Y-75134500D01*
X116500000Y-80000000D02*
X121365500Y-75134500D01*
%TO.N,OPTO_ANODE*%
X36460000Y-56540000D02*
X48000000Y-56540000D01*
X34000000Y-59000000D02*
X36460000Y-56540000D01*
%TO.N,OPTO_CATHODE*%
X41700000Y-59080000D02*
X41620000Y-59000000D01*
X48000000Y-59080000D02*
X41700000Y-59080000D01*
%TO.N,POT9_W*%
X52500000Y-128000000D02*
X56849200Y-123650800D01*
X59349200Y-123650800D02*
X61000000Y-122000000D01*
X56849200Y-123650800D02*
X59349200Y-123650800D01*
%TO.N,A2*%
X61000000Y-127000000D02*
X66000000Y-122000000D01*
X66000000Y-122000000D02*
X71160000Y-122000000D01*
%TO.N,MUX_CH2*%
X99000000Y-182000000D02*
X100107600Y-180892400D01*
X83397500Y-181564300D02*
X84095500Y-180866300D01*
X84095500Y-180866300D02*
X95026300Y-180866300D01*
X95026300Y-180866300D02*
X96160000Y-182000000D01*
X99000000Y-182000000D02*
X96160000Y-182000000D01*
X106892400Y-180892400D02*
X108000000Y-182000000D01*
X65240000Y-180000000D02*
X66804300Y-181564300D01*
X66804300Y-181564300D02*
X83397500Y-181564300D01*
X100107600Y-180892400D02*
X106892400Y-180892400D01*
%TO.N,MUX_CH1*%
X122160000Y-172000000D02*
X120292600Y-173867400D01*
X86072600Y-173867400D02*
X78787200Y-181152800D01*
X120292600Y-173867400D02*
X86072600Y-173867400D01*
X68932800Y-181152800D02*
X67780000Y-180000000D01*
X78787200Y-181152800D02*
X68932800Y-181152800D01*
X136000000Y-172000000D02*
X122160000Y-172000000D01*
%TO.N,MUX_CH0*%
X70320000Y-180000000D02*
X95751800Y-154568200D01*
X157000000Y-151000000D02*
X162000000Y-146000000D01*
X95751800Y-154568200D02*
X153431800Y-154568200D01*
X153431800Y-154568200D02*
X157000000Y-151000000D01*
X162000000Y-146000000D02*
X167160000Y-146000000D01*
%TO.N,D13*%
X71136500Y-157956500D02*
X45666700Y-157956500D01*
X77940000Y-164760000D02*
X71136500Y-157956500D01*
%TO.N,POT1_W*%
X59349200Y-75650800D02*
X61000000Y-74000000D01*
X56849200Y-75650800D02*
X59349200Y-75650800D01*
X52500000Y-80000000D02*
X56849200Y-75650800D01*
%TO.N,D17*%
X43000000Y-100000000D02*
X49981500Y-100000000D01*
X58989200Y-90992300D02*
X78044700Y-90992300D01*
X78443300Y-90593700D02*
X95609500Y-90593700D01*
X78044700Y-90992300D02*
X78443300Y-90593700D01*
X49981500Y-100000000D02*
X58989200Y-90992300D01*
%TO.N,D14*%
X161299000Y-60000000D02*
X144927500Y-76371500D01*
X112383900Y-85833600D02*
X104898100Y-85833600D01*
X117750000Y-80467500D02*
X112383900Y-85833600D01*
X104898100Y-85833600D02*
X104731700Y-86000000D01*
X144927500Y-76371500D02*
X120903900Y-76371500D01*
X117750000Y-79525400D02*
X117750000Y-80467500D01*
X103580000Y-86000000D02*
X104731700Y-86000000D01*
X168000000Y-60000000D02*
X161299000Y-60000000D01*
X120903900Y-76371500D02*
X117750000Y-79525400D01*
X174500000Y-60000000D02*
X168000000Y-60000000D01*
%TO.N,D15*%
X106099300Y-86400200D02*
X105318600Y-87180900D01*
X148801000Y-76773200D02*
X125427000Y-76773200D01*
X173742700Y-72257300D02*
X157124700Y-72257300D01*
X186000000Y-60000000D02*
X173742700Y-72257300D01*
X115800000Y-86400200D02*
X106099300Y-86400200D01*
X102234100Y-86780700D02*
X101820700Y-86780700D01*
X125427000Y-76773200D02*
X115800000Y-86400200D01*
X155413100Y-74073200D02*
X154305900Y-75180400D01*
X157124700Y-72257300D02*
X155413100Y-73968900D01*
X150393800Y-75180400D02*
X148801000Y-76773200D01*
X105318600Y-87180900D02*
X102634200Y-87180900D01*
X154305900Y-75180400D02*
X150393800Y-75180400D01*
X102234100Y-86780800D02*
X102234100Y-86780700D01*
X155413100Y-73968900D02*
X155413100Y-74073200D01*
X102634200Y-87180900D02*
X102234100Y-86780800D01*
X101820700Y-86780700D02*
X101040000Y-86000000D01*
%TO.N,D16*%
X50059500Y-86483700D02*
X51757800Y-88182000D01*
X32500000Y-100000000D02*
X32500000Y-87857900D01*
X92751100Y-88182000D02*
X93379700Y-87553400D01*
X96946600Y-87553400D02*
X98500000Y-86000000D01*
X50059500Y-85686400D02*
X50059500Y-86483700D01*
X93379700Y-87553400D02*
X96946600Y-87553400D01*
X35945600Y-84412300D02*
X48785400Y-84412300D01*
X32500000Y-87857900D02*
X35945600Y-84412300D01*
X51757800Y-88182000D02*
X92751100Y-88182000D01*
X48785400Y-84412300D02*
X50059500Y-85686400D01*
X32500000Y-100000000D02*
X26000000Y-100000000D01*
%TO.N,D18*%
X58016400Y-99450800D02*
X59413100Y-98054100D01*
X59413100Y-98054100D02*
X59413100Y-97968900D01*
X32500000Y-160000000D02*
X26000000Y-160000000D01*
X59413100Y-97968900D02*
X65988000Y-91394000D01*
X54157900Y-99450800D02*
X58016400Y-99450800D01*
X65988000Y-91394000D02*
X94769100Y-91394000D01*
X44099900Y-101754700D02*
X51854000Y-101754700D01*
X51854000Y-101754700D02*
X54157900Y-99450800D01*
%TO.N,D19*%
X43000000Y-159768800D02*
X49367100Y-153401700D01*
X79084100Y-142531700D02*
X84410200Y-142531700D01*
X49367100Y-153401700D02*
X68214100Y-153401700D01*
X43000000Y-160000000D02*
X43000000Y-159768800D01*
X68214100Y-153401700D02*
X79084100Y-142531700D01*
%TO.N,D20_SDA*%
X76910000Y-85623100D02*
X76910000Y-86386600D01*
X164885000Y-40735000D02*
X173620000Y-32000000D01*
X133605000Y-40735000D02*
X164885000Y-40735000D01*
X88340000Y-86000000D02*
X133605000Y-40735000D01*
X76910000Y-86386600D02*
X75721300Y-87575300D01*
X82962200Y-84799500D02*
X77733600Y-84799500D01*
X77733600Y-84799500D02*
X76910000Y-85623100D01*
X57911300Y-87575300D02*
X56336000Y-86000000D01*
X87159100Y-87180900D02*
X85343600Y-87180900D01*
X75721300Y-87575300D02*
X57911300Y-87575300D01*
X85343600Y-87180900D02*
X82962200Y-84799500D01*
X88340000Y-86000000D02*
X87159100Y-87180900D01*
%TO.N,D21_SCL*%
X171080000Y-32000000D02*
X162946700Y-40133300D01*
X85622800Y-84397800D02*
X67935000Y-84397800D01*
X61192500Y-87164800D02*
X60027700Y-86000000D01*
X66868300Y-85464500D02*
X66868300Y-86256300D01*
X65959800Y-87164800D02*
X61192500Y-87164800D01*
X66868300Y-86256300D02*
X65959800Y-87164800D01*
X85800000Y-84575000D02*
X85800000Y-86000000D01*
X85800000Y-84575000D02*
X85622800Y-84397800D01*
X58876000Y-86000000D02*
X60027700Y-86000000D01*
X67935000Y-84397800D02*
X66868300Y-85464500D01*
X162946700Y-40133300D02*
X130241700Y-40133300D01*
X130241700Y-40133300D02*
X85800000Y-84575000D01*
%TO.N,OPTO_VB*%
X55620000Y-56540000D02*
X65540000Y-56540000D01*
X65540000Y-56540000D02*
X68000000Y-59000000D01*
%TO.N,POT5_W*%
X58947500Y-100052500D02*
X61000000Y-98000000D01*
X52500000Y-104000000D02*
X56447500Y-100052500D01*
X56447500Y-100052500D02*
X58947500Y-100052500D01*
%TO.N,POT2_W*%
X91172800Y-75827200D02*
X93000000Y-74000000D01*
X88672800Y-75827200D02*
X91172800Y-75827200D01*
X84500000Y-80000000D02*
X88672800Y-75827200D01*
%TO.N,A10*%
X133757600Y-132242400D02*
X138000000Y-128000000D01*
X105597600Y-132242400D02*
X133757600Y-132242400D01*
X103580000Y-134260000D02*
X105597600Y-132242400D01*
%TO.N,A12*%
X157000000Y-79000000D02*
X162000000Y-74000000D01*
X106701600Y-87151700D02*
X115816300Y-87151700D01*
X120465600Y-82502400D02*
X153497600Y-82502400D01*
X115816300Y-87151700D02*
X120465600Y-82502400D01*
X153497600Y-82502400D02*
X157000000Y-79000000D01*
X162000000Y-74000000D02*
X167160000Y-74000000D01*
%TO.N,A14*%
X157000000Y-127000000D02*
X162000000Y-122000000D01*
X96538800Y-131697800D02*
X93976600Y-134260000D01*
X162000000Y-122000000D02*
X167160000Y-122000000D01*
X154798300Y-129201700D02*
X140907100Y-129201700D01*
X123812300Y-126880400D02*
X118994900Y-131697800D01*
X118994900Y-131697800D02*
X96538800Y-131697800D01*
X93976600Y-134260000D02*
X93420000Y-134260000D01*
X138585800Y-126880400D02*
X123812300Y-126880400D01*
X157000000Y-127000000D02*
X154798300Y-129201700D01*
X140907100Y-129201700D02*
X138585800Y-126880400D01*
%TO.N,VIN_RAW*%
X102259400Y-124852600D02*
X112978600Y-124852600D01*
X152160000Y-60000000D02*
X143620000Y-60000000D01*
X68472800Y-133073300D02*
X69290000Y-133890500D01*
X71068500Y-135432500D02*
X71948300Y-134552700D01*
X70019100Y-135432500D02*
X71068500Y-135432500D01*
X71948300Y-134552700D02*
X71948300Y-133729100D01*
X94085400Y-133026600D02*
X102259400Y-124852600D01*
X45160000Y-134260000D02*
X46346700Y-133073300D01*
X160160000Y-52000000D02*
X152160000Y-60000000D01*
X69290000Y-134703400D02*
X70019100Y-135432500D01*
X72650800Y-133026600D02*
X94085400Y-133026600D01*
X71948300Y-133729100D02*
X72650800Y-133026600D01*
X46346700Y-133073300D02*
X68472800Y-133073300D01*
X69290000Y-133890500D02*
X69290000Y-134703400D01*
%TO.N,A1*%
X61000000Y-103000000D02*
X66000000Y-98000000D01*
X66000000Y-98000000D02*
X71160000Y-98000000D01*
%TO.N,A6*%
X93000000Y-127000000D02*
X98000000Y-122000000D01*
X98000000Y-122000000D02*
X103160000Y-122000000D01*
X87541400Y-132458600D02*
X72361400Y-132458600D01*
X93000000Y-127000000D02*
X87541400Y-132458600D01*
X72361400Y-132458600D02*
X70560000Y-134260000D01*
%TO.N,POT11_W*%
X118672900Y-125827100D02*
X116500000Y-128000000D01*
X119592400Y-125827100D02*
X118672900Y-125827100D01*
X125000000Y-120419500D02*
X119592400Y-125827100D01*
X125000000Y-119000000D02*
X125000000Y-120419500D01*
%TO.N,A0*%
X66000000Y-74000000D02*
X71160000Y-74000000D01*
X61000000Y-79000000D02*
X66000000Y-74000000D01*
%TO.N,A3*%
X66000000Y-146000000D02*
X71160000Y-146000000D01*
X61000000Y-151000000D02*
X66000000Y-146000000D01*
%TO.N,A4*%
X98000000Y-98000000D02*
X103160000Y-98000000D01*
X93000000Y-103000000D02*
X98000000Y-98000000D01*
%TO.N,A7*%
X68020000Y-134260000D02*
X74778800Y-141018800D01*
X96281300Y-147718700D02*
X98000000Y-146000000D01*
X89581300Y-141018800D02*
X96281300Y-147718700D01*
X74778800Y-141018800D02*
X89581300Y-141018800D01*
X98000000Y-146000000D02*
X103160000Y-146000000D01*
X93000000Y-151000000D02*
X96281300Y-147718700D01*
%TO.N,D12*%
X93137900Y-88363200D02*
X125056400Y-88363200D01*
X125056400Y-88363200D02*
X126989600Y-86430000D01*
X183570000Y-86430000D02*
X186000000Y-84000000D01*
X46176000Y-86000000D02*
X48759700Y-88583700D01*
X126989600Y-86430000D02*
X183570000Y-86430000D01*
X92917400Y-88583700D02*
X93137900Y-88363200D01*
X48759700Y-88583700D02*
X92917400Y-88583700D01*
%TO.N,POT14_W*%
X91349200Y-147650800D02*
X93000000Y-146000000D01*
X88849200Y-147650800D02*
X91349200Y-147650800D01*
X84500000Y-152000000D02*
X88849200Y-147650800D01*
%TO.N,POT16_W*%
X152849200Y-147650800D02*
X155349200Y-147650800D01*
X148500000Y-152000000D02*
X152849200Y-147650800D01*
X155349200Y-147650800D02*
X157000000Y-146000000D01*
%TO.N,POT10_W*%
X88849200Y-123650800D02*
X91349200Y-123650800D01*
X91349200Y-123650800D02*
X93000000Y-122000000D01*
X84500000Y-128000000D02*
X88849200Y-123650800D01*
%TO.N,D10*%
X93416300Y-89788800D02*
X93636800Y-89568300D01*
X44884800Y-89788800D02*
X93416300Y-89788800D01*
X183335900Y-132000000D02*
X186000000Y-132000000D01*
X93636800Y-89568300D02*
X140904200Y-89568300D01*
X140904200Y-89568300D02*
X183335900Y-132000000D01*
X41096000Y-86000000D02*
X44884800Y-89788800D01*
%TO.N,POT15_W*%
X120849200Y-147650800D02*
X123349200Y-147650800D01*
X123349200Y-147650800D02*
X125000000Y-146000000D01*
X116500000Y-152000000D02*
X120849200Y-147650800D01*
%TO.N,POT12_W*%
X155349200Y-123650800D02*
X157000000Y-122000000D01*
X148500000Y-128000000D02*
X152849200Y-123650800D01*
X152849200Y-123650800D02*
X155349200Y-123650800D01*
%TO.N,D11*%
X43636000Y-86000000D02*
X46621400Y-88985400D01*
X93083700Y-88985400D02*
X93304200Y-88764900D01*
X126836000Y-87151700D02*
X168493100Y-87151700D01*
X125222800Y-88764900D02*
X126836000Y-87151700D01*
X168493100Y-87151700D02*
X186000000Y-104658600D01*
X186000000Y-104658600D02*
X186000000Y-108000000D01*
X93304200Y-88764900D02*
X125222800Y-88764900D01*
X46621400Y-88985400D02*
X93083700Y-88985400D01*
%TO.N,POT13_W*%
X52500000Y-152000000D02*
X56849200Y-147650800D01*
X59349200Y-147650800D02*
X61000000Y-146000000D01*
X56849200Y-147650800D02*
X59349200Y-147650800D01*
%TO.N,D9*%
X186000000Y-151887400D02*
X186000000Y-156000000D01*
X166565200Y-120568600D02*
X167342700Y-120568600D01*
X38556000Y-97142800D02*
X58800300Y-117387100D01*
X167342700Y-120568600D02*
X168307900Y-121533800D01*
X168307900Y-122700000D02*
X166697500Y-124310400D01*
X58800300Y-117387100D02*
X163383700Y-117387100D01*
X163383700Y-117387100D02*
X166565200Y-120568600D01*
X166697500Y-132584900D02*
X186000000Y-151887400D01*
X38556000Y-86000000D02*
X38556000Y-97142800D01*
X168307900Y-121533800D02*
X168307900Y-122700000D01*
X166697500Y-124310400D02*
X166697500Y-132584900D01*
%TO.N,D8*%
X93470500Y-89166600D02*
X141581300Y-89166600D01*
X45333900Y-89387100D02*
X93250000Y-89387100D01*
X41553400Y-84824700D02*
X42366000Y-85637300D01*
X141581300Y-89166600D02*
X160414700Y-108000000D01*
X42366000Y-85637300D02*
X42366000Y-86419200D01*
X93250000Y-89387100D02*
X93470500Y-89166600D01*
X160414700Y-108000000D02*
X168000000Y-108000000D01*
X37191300Y-84824700D02*
X41553400Y-84824700D01*
X42366000Y-86419200D02*
X45333900Y-89387100D01*
X174500000Y-108000000D02*
X168000000Y-108000000D01*
X36016000Y-86000000D02*
X37191300Y-84824700D01*
%TD*%
M02*
