%TF.GenerationSoftware,KiCad,Pcbnew,10.0.3*%
%TF.CreationDate,2026-06-05T22:03:57+02:00*%
%TF.ProjectId,SysEx_Patcher,53797345-785f-4506-9174-636865722e6b,rev?*%
%TF.SameCoordinates,Original*%
%TF.FileFunction,Copper,L1,Top*%
%TF.FilePolarity,Positive*%
%FSLAX46Y46*%
G04 Gerber Fmt 4.6, Leading zero omitted, Abs format (unit mm)*
G04 Created by KiCad (PCBNEW 10.0.3) date 2026-06-05 22:03:57*
%MOMM*%
%LPD*%
G01*
G04 APERTURE LIST*
G04 Aperture macros list*
%AMRoundRect*
0 Rectangle with rounded corners*
0 $1 Rounding radius*
0 $2 $3 $4 $5 $6 $7 $8 $9 X,Y pos of 4 corners*
0 Add a 4 corners polygon primitive as box body*
4,1,4,$2,$3,$4,$5,$6,$7,$8,$9,$2,$3,0*
0 Add four circle primitives for the rounded corners*
1,1,$1+$1,$2,$3*
1,1,$1+$1,$4,$5*
1,1,$1+$1,$6,$7*
1,1,$1+$1,$8,$9*
0 Add four rect primitives between the rounded corners*
20,1,$1+$1,$2,$3,$4,$5,0*
20,1,$1+$1,$4,$5,$6,$7,0*
20,1,$1+$1,$6,$7,$8,$9,0*
20,1,$1+$1,$8,$9,$2,$3,0*%
G04 Aperture macros list end*
%TA.AperFunction,ComponentPad*%
%ADD10C,1.600000*%
%TD*%
%TA.AperFunction,ComponentPad*%
%ADD11R,1.700000X1.700000*%
%TD*%
%TA.AperFunction,ComponentPad*%
%ADD12C,1.700000*%
%TD*%
%TA.AperFunction,ComponentPad*%
%ADD13R,1.800000X1.800000*%
%TD*%
%TA.AperFunction,ComponentPad*%
%ADD14C,1.800000*%
%TD*%
%TA.AperFunction,ComponentPad*%
%ADD15RoundRect,0.750000X-1.250000X-0.750000X1.250000X-0.750000X1.250000X0.750000X-1.250000X0.750000X0*%
%TD*%
%TA.AperFunction,ComponentPad*%
%ADD16C,2.000000*%
%TD*%
%TA.AperFunction,ComponentPad*%
%ADD17R,3.500000X3.500000*%
%TD*%
%TA.AperFunction,ComponentPad*%
%ADD18RoundRect,0.750000X-0.750000X-1.000000X0.750000X-1.000000X0.750000X1.000000X-0.750000X1.000000X0*%
%TD*%
%TA.AperFunction,ComponentPad*%
%ADD19RoundRect,0.875000X-0.875000X-0.875000X0.875000X-0.875000X0.875000X0.875000X-0.875000X0.875000X0*%
%TD*%
%TA.AperFunction,ComponentPad*%
%ADD20O,2.200000X3.500000*%
%TD*%
%TA.AperFunction,ComponentPad*%
%ADD21R,1.500000X2.500000*%
%TD*%
%TA.AperFunction,ComponentPad*%
%ADD22O,1.500000X2.500000*%
%TD*%
%TA.AperFunction,ComponentPad*%
%ADD23RoundRect,0.250000X-0.550000X-0.550000X0.550000X-0.550000X0.550000X0.550000X-0.550000X0.550000X0*%
%TD*%
%TA.AperFunction,ComponentPad*%
%ADD24RoundRect,0.249999X-0.850001X-0.850001X0.850001X-0.850001X0.850001X0.850001X-0.850001X0.850001X0*%
%TD*%
%TA.AperFunction,ComponentPad*%
%ADD25C,2.200000*%
%TD*%
%TA.AperFunction,ViaPad*%
%ADD26C,0.600000*%
%TD*%
G04 APERTURE END LIST*
D10*
%TO.P,C16,1*%
%TO.N,A11*%
X132000000Y-120000000D03*
%TO.P,C16,2*%
%TO.N,GND*%
X132000000Y-115000000D03*
%TD*%
%TO.P,C4,1*%
%TO.N,A8*%
X132000000Y-30000000D03*
%TO.P,C4,2*%
%TO.N,GND*%
X132000000Y-25000000D03*
%TD*%
D11*
%TO.P,J1,1*%
%TO.N,N/C*%
X45000000Y-8000000D03*
D12*
%TO.P,J1,2*%
%TO.N,GND*%
X45000000Y-10540000D03*
%TO.P,J1,3*%
%TO.N,N/C*%
X45000000Y-13080000D03*
%TO.P,J1,4*%
%TO.N,MIDI_IN_4*%
X45000000Y-15620000D03*
%TO.P,J1,5*%
%TO.N,OPTO_CATHODE*%
X45000000Y-18160000D03*
%TD*%
D10*
%TO.P,R18,1*%
%TO.N,POT9_W*%
X57000000Y-90000000D03*
%TO.P,R18,2*%
%TO.N,A2*%
X57000000Y-79840000D03*
%TD*%
D13*
%TO.P,RV4,1*%
%TO.N,+5V*%
X144000000Y-34000000D03*
D14*
%TO.P,RV4,2*%
%TO.N,POT4_W*%
X146500000Y-34000000D03*
%TO.P,RV4,3*%
%TO.N,GND*%
X149000000Y-34000000D03*
D15*
%TO.P,RV4,MP*%
%TO.N,N/C*%
X142100000Y-27000000D03*
X150900000Y-27000000D03*
%TD*%
D13*
%TO.P,RV2,1*%
%TO.N,+5V*%
X76000000Y-34000000D03*
D14*
%TO.P,RV2,2*%
%TO.N,POT2_W*%
X78500000Y-34000000D03*
%TO.P,RV2,3*%
%TO.N,GND*%
X81000000Y-34000000D03*
D15*
%TO.P,RV2,MP*%
%TO.N,N/C*%
X74100000Y-27000000D03*
X82900000Y-27000000D03*
%TD*%
D11*
%TO.P,J4,1*%
%TO.N,GND*%
X195000000Y-15000000D03*
D12*
%TO.P,J4,2*%
%TO.N,+5V*%
X195000000Y-17540000D03*
%TO.P,J4,3*%
%TO.N,GND*%
X195000000Y-20080000D03*
%TO.P,J4,4*%
%TO.N,VIN_RAW*%
X195000000Y-22620000D03*
%TD*%
D10*
%TO.P,R10,1*%
%TO.N,POT1_W*%
X57000000Y-30000000D03*
%TO.P,R10,2*%
%TO.N,A0*%
X57000000Y-19840000D03*
%TD*%
%TO.P,C10,1*%
%TO.N,A2*%
X64000000Y-90000000D03*
%TO.P,C10,2*%
%TO.N,GND*%
X64000000Y-85000000D03*
%TD*%
%TO.P,C15,1*%
%TO.N,A7*%
X98000000Y-120000000D03*
%TO.P,C15,2*%
%TO.N,GND*%
X98000000Y-115000000D03*
%TD*%
%TO.P,C14,1*%
%TO.N,A3*%
X64000000Y-120000000D03*
%TO.P,C14,2*%
%TO.N,GND*%
X64000000Y-115000000D03*
%TD*%
D11*
%TO.P,J6C,1*%
%TO.N,A2*%
X186000000Y-94000000D03*
D12*
%TO.P,J6C,2*%
%TO.N,A6*%
X186000000Y-96540000D03*
%TO.P,J6C,3*%
%TO.N,A10*%
X186000000Y-99080000D03*
%TO.P,J6C,4*%
%TO.N,A14*%
X186000000Y-101620000D03*
%TD*%
D16*
%TO.P,SW4,1*%
%TO.N,D6*%
X12000000Y-66000000D03*
X18500000Y-66000000D03*
%TO.P,SW4,2*%
%TO.N,GND*%
X12000000Y-70500000D03*
X18500000Y-70500000D03*
%TD*%
D13*
%TO.P,RV8,1*%
%TO.N,+5V*%
X144000000Y-64000000D03*
D14*
%TO.P,RV8,2*%
%TO.N,POT8_W*%
X146500000Y-64000000D03*
%TO.P,RV8,3*%
%TO.N,GND*%
X149000000Y-64000000D03*
D15*
%TO.P,RV8,MP*%
%TO.N,N/C*%
X142100000Y-57000000D03*
X150900000Y-57000000D03*
%TD*%
D10*
%TO.P,R4,1*%
%TO.N,OPTO_VB*%
X25000000Y-24000000D03*
%TO.P,R4,2*%
%TO.N,GND*%
X25000000Y-13840000D03*
%TD*%
%TO.P,R16,1*%
%TO.N,POT7_W*%
X125000000Y-60000000D03*
%TO.P,R16,2*%
%TO.N,A9*%
X125000000Y-49840000D03*
%TD*%
%TO.P,R21,1*%
%TO.N,POT12_W*%
X159000000Y-90000000D03*
%TO.P,R21,2*%
%TO.N,A14*%
X159000000Y-79840000D03*
%TD*%
%TO.P,R13,1*%
%TO.N,POT4_W*%
X159000000Y-30000000D03*
%TO.P,R13,2*%
%TO.N,A12*%
X159000000Y-19840000D03*
%TD*%
%TO.P,R27,1*%
%TO.N,JACK_W*%
X40000000Y-150000000D03*
%TO.P,R27,2*%
%TO.N,MUX_CH1*%
X50160000Y-150000000D03*
%TD*%
%TO.P,R14,1*%
%TO.N,POT5_W*%
X57000000Y-60000000D03*
%TO.P,R14,2*%
%TO.N,A1*%
X57000000Y-49840000D03*
%TD*%
%TO.P,R19,1*%
%TO.N,POT10_W*%
X91000000Y-90000000D03*
%TO.P,R19,2*%
%TO.N,A6*%
X91000000Y-79840000D03*
%TD*%
%TO.P,R6,1*%
%TO.N,D12*%
X8000000Y-104000000D03*
%TO.P,R6,2*%
%TO.N,LED1_A*%
X18160000Y-104000000D03*
%TD*%
D13*
%TO.P,RV12,1*%
%TO.N,+5V*%
X144000000Y-94000000D03*
D14*
%TO.P,RV12,2*%
%TO.N,POT12_W*%
X146500000Y-94000000D03*
%TO.P,RV12,3*%
%TO.N,GND*%
X149000000Y-94000000D03*
D15*
%TO.P,RV12,MP*%
%TO.N,N/C*%
X142100000Y-87000000D03*
X150900000Y-87000000D03*
%TD*%
D13*
%TO.P,D5,1*%
%TO.N,GND*%
X28000000Y-130000000D03*
D14*
%TO.P,D5,2*%
%TO.N,LED3_A*%
X30540000Y-130000000D03*
%TD*%
D13*
%TO.P,RV6,1*%
%TO.N,+5V*%
X76000000Y-64000000D03*
D14*
%TO.P,RV6,2*%
%TO.N,POT6_W*%
X78500000Y-64000000D03*
%TO.P,RV6,3*%
%TO.N,GND*%
X81000000Y-64000000D03*
D15*
%TO.P,RV6,MP*%
%TO.N,N/C*%
X74100000Y-57000000D03*
X82900000Y-57000000D03*
%TD*%
D13*
%TO.P,RV15,1*%
%TO.N,+5V*%
X110000000Y-124000000D03*
D14*
%TO.P,RV15,2*%
%TO.N,POT15_W*%
X112500000Y-124000000D03*
%TO.P,RV15,3*%
%TO.N,GND*%
X115000000Y-124000000D03*
D15*
%TO.P,RV15,MP*%
%TO.N,N/C*%
X108100000Y-117000000D03*
X116900000Y-117000000D03*
%TD*%
D10*
%TO.P,R2,1*%
%TO.N,MIDI_OUT_4*%
X132000000Y-5000000D03*
%TO.P,R2,2*%
%TO.N,+5V*%
X142160000Y-5000000D03*
%TD*%
%TO.P,C2,1*%
%TO.N,A0*%
X64000000Y-30000000D03*
%TO.P,C2,2*%
%TO.N,GND*%
X64000000Y-25000000D03*
%TD*%
D11*
%TO.P,J7D,1*%
%TO.N,D2*%
X100000000Y-150000000D03*
D12*
%TO.P,J7D,2*%
%TO.N,D3*%
X100000000Y-152540000D03*
%TO.P,J7D,3*%
%TO.N,D4*%
X100000000Y-155080000D03*
%TO.P,J7D,4*%
%TO.N,D22*%
X100000000Y-157620000D03*
%TD*%
D11*
%TO.P,J7A,1*%
%TO.N,D7*%
X34000000Y-70000000D03*
D12*
%TO.P,J7A,2*%
%TO.N,D8*%
X34000000Y-72540000D03*
%TO.P,J7A,3*%
%TO.N,D6*%
X34000000Y-75080000D03*
%TO.P,J7A,4*%
%TO.N,D5*%
X34000000Y-77620000D03*
%TO.P,J7A,5*%
%TO.N,D12*%
X34000000Y-80160000D03*
%TO.P,J7A,6*%
%TO.N,D11*%
X34000000Y-82700000D03*
%TO.P,J7A,7*%
%TO.N,D10*%
X34000000Y-85240000D03*
%TO.P,J7A,8*%
%TO.N,D9*%
X34000000Y-87780000D03*
%TD*%
D10*
%TO.P,R12,1*%
%TO.N,POT3_W*%
X125000000Y-30000000D03*
%TO.P,R12,2*%
%TO.N,A8*%
X125000000Y-19840000D03*
%TD*%
%TO.P,R9,1*%
%TO.N,D9*%
X8000000Y-143000000D03*
%TO.P,R9,2*%
%TO.N,LED4_A*%
X18160000Y-143000000D03*
%TD*%
D13*
%TO.P,RV10,1*%
%TO.N,+5V*%
X76000000Y-94000000D03*
D14*
%TO.P,RV10,2*%
%TO.N,POT10_W*%
X78500000Y-94000000D03*
%TO.P,RV10,3*%
%TO.N,GND*%
X81000000Y-94000000D03*
D15*
%TO.P,RV10,MP*%
%TO.N,N/C*%
X74100000Y-87000000D03*
X82900000Y-87000000D03*
%TD*%
D17*
%TO.P,J3,1*%
%TO.N,VIN_RAW*%
X170000000Y-10000000D03*
D18*
%TO.P,J3,2*%
%TO.N,GND*%
X164000000Y-10000000D03*
D19*
%TO.P,J3,3*%
%TO.N,N/C*%
X167000000Y-14700000D03*
%TD*%
D10*
%TO.P,C6,1*%
%TO.N,A1*%
X64000000Y-60000000D03*
%TO.P,C6,2*%
%TO.N,GND*%
X64000000Y-55000000D03*
%TD*%
%TO.P,R25,1*%
%TO.N,POT16_W*%
X159000000Y-120000000D03*
%TO.P,R25,2*%
%TO.N,MUX_CH0*%
X159000000Y-109840000D03*
%TD*%
%TO.P,R5,1*%
%TO.N,OPTO_VO*%
X85000000Y-5000000D03*
%TO.P,R5,2*%
%TO.N,+5V*%
X95160000Y-5000000D03*
%TD*%
%TO.P,C1,1*%
%TO.N,+5V*%
X96000000Y-9000000D03*
%TO.P,C1,2*%
%TO.N,GND*%
X101000000Y-9000000D03*
%TD*%
%TO.P,C3,1*%
%TO.N,A5*%
X98000000Y-30000000D03*
%TO.P,C3,2*%
%TO.N,GND*%
X98000000Y-25000000D03*
%TD*%
D11*
%TO.P,J5,1*%
%TO.N,GND*%
X150000000Y-9000000D03*
D12*
%TO.P,J5,2*%
%TO.N,+5V*%
X150000000Y-11540000D03*
%TO.P,J5,3*%
%TO.N,D21_SCL*%
X150000000Y-14080000D03*
%TO.P,J5,4*%
%TO.N,D20_SDA*%
X150000000Y-16620000D03*
%TD*%
D10*
%TO.P,C17,1*%
%TO.N,MUX_CH0*%
X166000000Y-120000000D03*
%TO.P,C17,2*%
%TO.N,GND*%
X166000000Y-115000000D03*
%TD*%
%TO.P,C5,1*%
%TO.N,A12*%
X166000000Y-30000000D03*
%TO.P,C5,2*%
%TO.N,GND*%
X166000000Y-25000000D03*
%TD*%
D13*
%TO.P,D6,1*%
%TO.N,GND*%
X28000000Y-143000000D03*
D14*
%TO.P,D6,2*%
%TO.N,LED4_A*%
X30540000Y-143000000D03*
%TD*%
D10*
%TO.P,R17,1*%
%TO.N,POT8_W*%
X159000000Y-60000000D03*
%TO.P,R17,2*%
%TO.N,A13*%
X159000000Y-49840000D03*
%TD*%
D16*
%TO.P,SW3,1*%
%TO.N,D8*%
X12000000Y-50000000D03*
X18500000Y-50000000D03*
%TO.P,SW3,2*%
%TO.N,GND*%
X12000000Y-54500000D03*
X18500000Y-54500000D03*
%TD*%
D10*
%TO.P,C11,1*%
%TO.N,A6*%
X98000000Y-90000000D03*
%TO.P,C11,2*%
%TO.N,GND*%
X98000000Y-85000000D03*
%TD*%
%TO.P,R24,1*%
%TO.N,POT15_W*%
X125000000Y-120000000D03*
%TO.P,R24,2*%
%TO.N,A11*%
X125000000Y-109840000D03*
%TD*%
%TO.P,R1,1*%
%TO.N,MIDI_IN_4*%
X62000000Y-9000000D03*
%TO.P,R1,2*%
%TO.N,OPTO_ANODE*%
X72160000Y-9000000D03*
%TD*%
D13*
%TO.P,D3,1*%
%TO.N,GND*%
X28000000Y-104000000D03*
D14*
%TO.P,D3,2*%
%TO.N,LED1_A*%
X30540000Y-104000000D03*
%TD*%
D10*
%TO.P,C18,1*%
%TO.N,MUX_CH1*%
X60000000Y-150000000D03*
%TO.P,C18,2*%
%TO.N,GND*%
X65000000Y-150000000D03*
%TD*%
D13*
%TO.P,RV9,1*%
%TO.N,+5V*%
X42000000Y-94000000D03*
D14*
%TO.P,RV9,2*%
%TO.N,POT9_W*%
X44500000Y-94000000D03*
%TO.P,RV9,3*%
%TO.N,GND*%
X47000000Y-94000000D03*
D15*
%TO.P,RV9,MP*%
%TO.N,N/C*%
X40100000Y-87000000D03*
X48900000Y-87000000D03*
%TD*%
D13*
%TO.P,RV1,1*%
%TO.N,+5V*%
X42000000Y-34000000D03*
D14*
%TO.P,RV1,2*%
%TO.N,POT1_W*%
X44500000Y-34000000D03*
%TO.P,RV1,3*%
%TO.N,GND*%
X47000000Y-34000000D03*
D15*
%TO.P,RV1,MP*%
%TO.N,N/C*%
X40100000Y-27000000D03*
X48900000Y-27000000D03*
%TD*%
D16*
%TO.P,SW5,1*%
%TO.N,D5*%
X12000000Y-82000000D03*
X18500000Y-82000000D03*
%TO.P,SW5,2*%
%TO.N,GND*%
X12000000Y-86500000D03*
X18500000Y-86500000D03*
%TD*%
D20*
%TO.P,SW1,*%
%TO.N,*%
X102900000Y-6000000D03*
X111100000Y-6000000D03*
D21*
%TO.P,SW1,1*%
%TO.N,OPTO_VO*%
X105000000Y-6000000D03*
D22*
%TO.P,SW1,2*%
%TO.N,D0_RX*%
X107000000Y-6000000D03*
%TO.P,SW1,3*%
%TO.N,N/C*%
X109000000Y-6000000D03*
%TD*%
D13*
%TO.P,RV13,1*%
%TO.N,+5V*%
X42000000Y-124000000D03*
D14*
%TO.P,RV13,2*%
%TO.N,POT13_W*%
X44500000Y-124000000D03*
%TO.P,RV13,3*%
%TO.N,GND*%
X47000000Y-124000000D03*
D15*
%TO.P,RV13,MP*%
%TO.N,N/C*%
X40100000Y-117000000D03*
X48900000Y-117000000D03*
%TD*%
D10*
%TO.P,R3,1*%
%TO.N,MIDI_OUT_5*%
X132000000Y-13000000D03*
%TO.P,R3,2*%
%TO.N,D1_TX*%
X142160000Y-13000000D03*
%TD*%
%TO.P,C12,1*%
%TO.N,A10*%
X132000000Y-90000000D03*
%TO.P,C12,2*%
%TO.N,GND*%
X132000000Y-85000000D03*
%TD*%
D11*
%TO.P,J2,1*%
%TO.N,N/C*%
X120000000Y-8000000D03*
D12*
%TO.P,J2,2*%
%TO.N,GND*%
X120000000Y-10540000D03*
%TO.P,J2,3*%
%TO.N,N/C*%
X120000000Y-13080000D03*
%TO.P,J2,4*%
%TO.N,MIDI_OUT_4*%
X120000000Y-15620000D03*
%TO.P,J2,5*%
%TO.N,MIDI_OUT_5*%
X120000000Y-18160000D03*
%TD*%
D10*
%TO.P,R20,1*%
%TO.N,POT11_W*%
X125000000Y-90000000D03*
%TO.P,R20,2*%
%TO.N,A10*%
X125000000Y-79840000D03*
%TD*%
D11*
%TO.P,J6D,1*%
%TO.N,A3*%
X186000000Y-124000000D03*
D12*
%TO.P,J6D,2*%
%TO.N,A7*%
X186000000Y-126540000D03*
%TO.P,J6D,3*%
%TO.N,A11*%
X186000000Y-129080000D03*
%TO.P,J6D,4*%
%TO.N,A15*%
X186000000Y-131620000D03*
%TD*%
D10*
%TO.P,C9,1*%
%TO.N,A13*%
X166000000Y-60000000D03*
%TO.P,C9,2*%
%TO.N,GND*%
X166000000Y-55000000D03*
%TD*%
D11*
%TO.P,J6A,1*%
%TO.N,A0*%
X186000000Y-34000000D03*
D12*
%TO.P,J6A,2*%
%TO.N,A5*%
X186000000Y-36540000D03*
%TO.P,J6A,3*%
%TO.N,A8*%
X186000000Y-39080000D03*
%TO.P,J6A,4*%
%TO.N,A12*%
X186000000Y-41620000D03*
%TD*%
D13*
%TO.P,RV16,1*%
%TO.N,+5V*%
X144000000Y-124000000D03*
D14*
%TO.P,RV16,2*%
%TO.N,POT16_W*%
X146500000Y-124000000D03*
%TO.P,RV16,3*%
%TO.N,GND*%
X149000000Y-124000000D03*
D15*
%TO.P,RV16,MP*%
%TO.N,N/C*%
X142100000Y-117000000D03*
X150900000Y-117000000D03*
%TD*%
D10*
%TO.P,R22,1*%
%TO.N,POT13_W*%
X57000000Y-120000000D03*
%TO.P,R22,2*%
%TO.N,A3*%
X57000000Y-109840000D03*
%TD*%
D23*
%TO.P,D1,1*%
%TO.N,OPTO_ANODE*%
X62000000Y-17000000D03*
D10*
%TO.P,D1,2*%
%TO.N,OPTO_CATHODE*%
X69620000Y-17000000D03*
%TD*%
D11*
%TO.P,J7C,1*%
%TO.N,D20_SDA*%
X150000000Y-162000000D03*
D12*
%TO.P,J7C,2*%
%TO.N,D21_SCL*%
X150000000Y-164540000D03*
%TD*%
D13*
%TO.P,RV5,1*%
%TO.N,+5V*%
X42000000Y-64000000D03*
D14*
%TO.P,RV5,2*%
%TO.N,POT5_W*%
X44500000Y-64000000D03*
%TO.P,RV5,3*%
%TO.N,GND*%
X47000000Y-64000000D03*
D15*
%TO.P,RV5,MP*%
%TO.N,N/C*%
X40100000Y-57000000D03*
X48900000Y-57000000D03*
%TD*%
D13*
%TO.P,RV14,1*%
%TO.N,+5V*%
X76000000Y-124000000D03*
D14*
%TO.P,RV14,2*%
%TO.N,POT14_W*%
X78500000Y-124000000D03*
%TO.P,RV14,3*%
%TO.N,GND*%
X81000000Y-124000000D03*
D15*
%TO.P,RV14,MP*%
%TO.N,N/C*%
X74100000Y-117000000D03*
X82900000Y-117000000D03*
%TD*%
D10*
%TO.P,C8,1*%
%TO.N,A9*%
X132000000Y-60000000D03*
%TO.P,C8,2*%
%TO.N,GND*%
X132000000Y-55000000D03*
%TD*%
D13*
%TO.P,RV7,1*%
%TO.N,+5V*%
X110000000Y-64000000D03*
D14*
%TO.P,RV7,2*%
%TO.N,POT7_W*%
X112500000Y-64000000D03*
%TO.P,RV7,3*%
%TO.N,GND*%
X115000000Y-64000000D03*
D15*
%TO.P,RV7,MP*%
%TO.N,N/C*%
X108100000Y-57000000D03*
X116900000Y-57000000D03*
%TD*%
D10*
%TO.P,C7,1*%
%TO.N,A4*%
X98000000Y-60000000D03*
%TO.P,C7,2*%
%TO.N,GND*%
X98000000Y-55000000D03*
%TD*%
D11*
%TO.P,J6B,1*%
%TO.N,A1*%
X186000000Y-64000000D03*
D12*
%TO.P,J6B,2*%
%TO.N,A4*%
X186000000Y-66540000D03*
%TO.P,J6B,3*%
%TO.N,A9*%
X186000000Y-69080000D03*
%TO.P,J6B,4*%
%TO.N,A13*%
X186000000Y-71620000D03*
%TD*%
D23*
%TO.P,U1,1*%
%TO.N,N/C*%
X80000000Y-10000000D03*
D10*
%TO.P,U1,2*%
%TO.N,OPTO_ANODE*%
X80000000Y-12540000D03*
%TO.P,U1,3*%
%TO.N,OPTO_CATHODE*%
X80000000Y-15080000D03*
%TO.P,U1,4*%
%TO.N,N/C*%
X80000000Y-17620000D03*
%TO.P,U1,5*%
%TO.N,GND*%
X87620000Y-17620000D03*
%TO.P,U1,6*%
%TO.N,OPTO_VO*%
X87620000Y-15080000D03*
%TO.P,U1,7*%
%TO.N,OPTO_VB*%
X87620000Y-12540000D03*
%TO.P,U1,8*%
%TO.N,+5V*%
X87620000Y-10000000D03*
%TD*%
%TO.P,R23,1*%
%TO.N,POT14_W*%
X91000000Y-120000000D03*
%TO.P,R23,2*%
%TO.N,A7*%
X91000000Y-109840000D03*
%TD*%
D13*
%TO.P,RV11,1*%
%TO.N,+5V*%
X110000000Y-94000000D03*
D14*
%TO.P,RV11,2*%
%TO.N,POT11_W*%
X112500000Y-94000000D03*
%TO.P,RV11,3*%
%TO.N,GND*%
X115000000Y-94000000D03*
D15*
%TO.P,RV11,MP*%
%TO.N,N/C*%
X108100000Y-87000000D03*
X116900000Y-87000000D03*
%TD*%
D10*
%TO.P,R11,1*%
%TO.N,POT2_W*%
X91000000Y-30000000D03*
%TO.P,R11,2*%
%TO.N,A5*%
X91000000Y-19840000D03*
%TD*%
%TO.P,R8,1*%
%TO.N,D10*%
X8000000Y-130000000D03*
%TO.P,R8,2*%
%TO.N,LED3_A*%
X18160000Y-130000000D03*
%TD*%
D13*
%TO.P,RV3,1*%
%TO.N,+5V*%
X110000000Y-34000000D03*
D14*
%TO.P,RV3,2*%
%TO.N,POT3_W*%
X112500000Y-34000000D03*
%TO.P,RV3,3*%
%TO.N,GND*%
X115000000Y-34000000D03*
D15*
%TO.P,RV3,MP*%
%TO.N,N/C*%
X108100000Y-27000000D03*
X116900000Y-27000000D03*
%TD*%
D10*
%TO.P,C13,1*%
%TO.N,A14*%
X166000000Y-90000000D03*
%TO.P,C13,2*%
%TO.N,GND*%
X166000000Y-85000000D03*
%TD*%
%TO.P,R7,1*%
%TO.N,D11*%
X8000000Y-117000000D03*
%TO.P,R7,2*%
%TO.N,LED2_A*%
X18160000Y-117000000D03*
%TD*%
D13*
%TO.P,D4,1*%
%TO.N,GND*%
X28000000Y-117000000D03*
D14*
%TO.P,D4,2*%
%TO.N,LED2_A*%
X30540000Y-117000000D03*
%TD*%
D16*
%TO.P,SW2,1*%
%TO.N,D7*%
X12000000Y-34000000D03*
X18500000Y-34000000D03*
%TO.P,SW2,2*%
%TO.N,GND*%
X12000000Y-38500000D03*
X18500000Y-38500000D03*
%TD*%
D11*
%TO.P,J7B,1*%
%TO.N,D0_RX*%
X130000000Y-162000000D03*
D12*
%TO.P,J7B,2*%
%TO.N,D1_TX*%
X130000000Y-164540000D03*
%TD*%
D11*
%TO.P,J8,1*%
%TO.N,+5V*%
X160000000Y-150000000D03*
D12*
%TO.P,J8,2*%
%TO.N,GND*%
X160000000Y-152540000D03*
%TO.P,J8,3*%
%TO.N,VIN_RAW*%
X160000000Y-155080000D03*
%TD*%
D23*
%TO.P,U2,1*%
%TO.N,A15*%
X70000000Y-150000000D03*
D10*
%TO.P,U2,2*%
%TO.N,MUX_CH7*%
X70000000Y-152540000D03*
%TO.P,U2,3*%
%TO.N,MUX_CH6*%
X70000000Y-155080000D03*
%TO.P,U2,4*%
%TO.N,MUX_CH5*%
X70000000Y-157620000D03*
%TO.P,U2,5*%
%TO.N,MUX_CH4*%
X70000000Y-160160000D03*
%TO.P,U2,6*%
%TO.N,MUX_CH3*%
X70000000Y-162700000D03*
%TO.P,U2,7*%
%TO.N,MUX_CH2*%
X70000000Y-165240000D03*
%TO.P,U2,8*%
%TO.N,MUX_CH1*%
X70000000Y-167780000D03*
%TO.P,U2,9*%
%TO.N,MUX_CH0*%
X70000000Y-170320000D03*
%TO.P,U2,10*%
%TO.N,D2*%
X70000000Y-172860000D03*
%TO.P,U2,11*%
%TO.N,D3*%
X70000000Y-175400000D03*
%TO.P,U2,12*%
%TO.N,GND*%
X70000000Y-177940000D03*
%TO.P,U2,13*%
%TO.N,D22*%
X85240000Y-177940000D03*
%TO.P,U2,14*%
%TO.N,D4*%
X85240000Y-175400000D03*
%TO.P,U2,15*%
%TO.N,GND*%
X85240000Y-172860000D03*
%TO.P,U2,16*%
%TO.N,MUX_CH15*%
X85240000Y-170320000D03*
%TO.P,U2,17*%
%TO.N,MUX_CH14*%
X85240000Y-167780000D03*
%TO.P,U2,18*%
%TO.N,MUX_CH13*%
X85240000Y-165240000D03*
%TO.P,U2,19*%
%TO.N,MUX_CH12*%
X85240000Y-162700000D03*
%TO.P,U2,20*%
%TO.N,MUX_CH11*%
X85240000Y-160160000D03*
%TO.P,U2,21*%
%TO.N,MUX_CH10*%
X85240000Y-157620000D03*
%TO.P,U2,22*%
%TO.N,MUX_CH9*%
X85240000Y-155080000D03*
%TO.P,U2,23*%
%TO.N,MUX_CH8*%
X85240000Y-152540000D03*
%TO.P,U2,24*%
%TO.N,+5V*%
X85240000Y-150000000D03*
%TD*%
D24*
%TO.P,D2,1*%
%TO.N,+5V*%
X188000000Y-6000000D03*
D25*
%TO.P,D2,2*%
%TO.N,VIN_RAW*%
X198160000Y-6000000D03*
%TD*%
D10*
%TO.P,R15,1*%
%TO.N,POT6_W*%
X91000000Y-60000000D03*
%TO.P,R15,2*%
%TO.N,A4*%
X91000000Y-49840000D03*
%TD*%
D11*
%TO.P,J10,1*%
%TO.N,JACK_W*%
X25000000Y-150000000D03*
D12*
%TO.P,J10,2*%
%TO.N,+5V*%
X25000000Y-152540000D03*
%TO.P,J10,3*%
%TO.N,GND*%
X25000000Y-155080000D03*
%TD*%
D26*
%TO.N,+5V*%
X147014000Y-146127800D03*
%TO.N,A8*%
X136088100Y-39080000D03*
%TO.N,A11*%
X135497500Y-129080000D03*
%TO.N,MUX_CH0*%
X153852100Y-166510000D03*
%TD*%
M02*
