%TF.GenerationSoftware,KiCad,Pcbnew,10.0.3*%
%TF.CreationDate,2026-06-06T15:23:53+02:00*%
%TF.ProjectId,SysEx_Patcher,53797345-785f-4506-9174-636865722e6b,rev?*%
%TF.SameCoordinates,Original*%
%TF.FileFunction,Copper,L1,Top*%
%TF.FilePolarity,Positive*%
%FSLAX46Y46*%
G04 Gerber Fmt 4.6, Leading zero omitted, Abs format (unit mm)*
G04 Created by KiCad (PCBNEW 10.0.3) date 2026-06-06 15:23:53*
%MOMM*%
%LPD*%
G01*
G04 APERTURE LIST*
G04 Aperture macros list*
%AMRoundRect*
0 Rectangle with rounded corners*
0 $1 Rounding radius*
0 $2 $3 $4 $5 $6 $7 $8 $9 X,Y pos of 4 corners*
0 Add a 4 corners polygon primitive as box body*
4,1,4,$2,$3,$4,$5,$6,$7,$8,$9,$2,$3,0*
0 Add four circle primitives for the rounded corners*
1,1,$1+$1,$2,$3*
1,1,$1+$1,$4,$5*
1,1,$1+$1,$6,$7*
1,1,$1+$1,$8,$9*
0 Add four rect primitives between the rounded corners*
20,1,$1+$1,$2,$3,$4,$5,0*
20,1,$1+$1,$4,$5,$6,$7,0*
20,1,$1+$1,$6,$7,$8,$9,0*
20,1,$1+$1,$8,$9,$2,$3,0*%
G04 Aperture macros list end*
%TA.AperFunction,ComponentPad*%
%ADD10RoundRect,0.250000X-0.550000X-0.550000X0.550000X-0.550000X0.550000X0.550000X-0.550000X0.550000X0*%
%TD*%
%TA.AperFunction,ComponentPad*%
%ADD11C,1.600000*%
%TD*%
%TA.AperFunction,ComponentPad*%
%ADD12R,1.700000X1.700000*%
%TD*%
%TA.AperFunction,ComponentPad*%
%ADD13C,1.700000*%
%TD*%
%TA.AperFunction,ComponentPad*%
%ADD14R,1.800000X1.800000*%
%TD*%
%TA.AperFunction,ComponentPad*%
%ADD15C,1.800000*%
%TD*%
%TA.AperFunction,ComponentPad*%
%ADD16RoundRect,0.750000X-1.250000X-0.750000X1.250000X-0.750000X1.250000X0.750000X-1.250000X0.750000X0*%
%TD*%
%TA.AperFunction,ComponentPad*%
%ADD17C,3.000000*%
%TD*%
%TA.AperFunction,ComponentPad*%
%ADD18C,2.000000*%
%TD*%
%TA.AperFunction,ComponentPad*%
%ADD19RoundRect,0.249999X-0.850001X-0.850001X0.850001X-0.850001X0.850001X0.850001X-0.850001X0.850001X0*%
%TD*%
%TA.AperFunction,ComponentPad*%
%ADD20C,2.200000*%
%TD*%
%TA.AperFunction,ComponentPad*%
%ADD21R,3.500000X3.500000*%
%TD*%
%TA.AperFunction,ComponentPad*%
%ADD22RoundRect,0.750000X-0.750000X-1.000000X0.750000X-1.000000X0.750000X1.000000X-0.750000X1.000000X0*%
%TD*%
%TA.AperFunction,ComponentPad*%
%ADD23RoundRect,0.875000X-0.875000X-0.875000X0.875000X-0.875000X0.875000X0.875000X-0.875000X0.875000X0*%
%TD*%
%TA.AperFunction,ComponentPad*%
%ADD24C,2.600000*%
%TD*%
%TA.AperFunction,ComponentPad*%
%ADD25C,2.400000*%
%TD*%
%TA.AperFunction,ViaPad*%
%ADD26C,0.600000*%
%TD*%
%TA.AperFunction,Conductor*%
%ADD27C,0.200000*%
%TD*%
G04 APERTURE END LIST*
D10*
%TO.P,D1,1*%
%TO.N,OPTO_ANODE*%
X34000000Y-59000000D03*
D11*
%TO.P,D1,2*%
%TO.N,OPTO_CATHODE*%
X41620000Y-59000000D03*
%TD*%
D12*
%TO.P,JMD2,1*%
%TO.N,D10*%
X66670000Y-134000000D03*
D13*
%TO.P,JMD2,2*%
%TO.N,D11*%
X69210000Y-134000000D03*
%TO.P,JMD2,3*%
%TO.N,D12*%
X71750000Y-134000000D03*
%TD*%
D14*
%TO.P,RV1,1*%
%TO.N,+5V*%
X50000000Y-80000000D03*
D15*
%TO.P,RV1,2*%
%TO.N,POT1_W*%
X52500000Y-80000000D03*
%TO.P,RV1,3*%
%TO.N,GND*%
X55000000Y-80000000D03*
D16*
%TO.P,RV1,MP*%
%TO.N,N/C*%
X48100000Y-73000000D03*
X56900000Y-73000000D03*
%TD*%
D11*
%TO.P,C10,1*%
%TO.N,A2*%
X61000000Y-127000000D03*
%TO.P,C10,2*%
%TO.N,GND*%
X66000000Y-127000000D03*
%TD*%
%TO.P,C2,1*%
%TO.N,A0*%
X61000000Y-79000000D03*
%TO.P,C2,2*%
%TO.N,GND*%
X66000000Y-79000000D03*
%TD*%
D14*
%TO.P,RV7,1*%
%TO.N,+5V*%
X114000000Y-104000000D03*
D15*
%TO.P,RV7,2*%
%TO.N,POT7_W*%
X116500000Y-104000000D03*
%TO.P,RV7,3*%
%TO.N,GND*%
X119000000Y-104000000D03*
D16*
%TO.P,RV7,MP*%
%TO.N,N/C*%
X112100000Y-97000000D03*
X120900000Y-97000000D03*
%TD*%
D14*
%TO.P,RV11,1*%
%TO.N,+5V*%
X114000000Y-128000000D03*
D15*
%TO.P,RV11,2*%
%TO.N,POT11_W*%
X116500000Y-128000000D03*
%TO.P,RV11,3*%
%TO.N,GND*%
X119000000Y-128000000D03*
D16*
%TO.P,RV11,MP*%
%TO.N,N/C*%
X112100000Y-121000000D03*
X120900000Y-121000000D03*
%TD*%
D11*
%TO.P,C17,1*%
%TO.N,MUX_CH0*%
X157000000Y-151000000D03*
%TO.P,C17,2*%
%TO.N,GND*%
X162000000Y-151000000D03*
%TD*%
%TO.P,R24,1*%
%TO.N,POT15_W*%
X125000000Y-146000000D03*
%TO.P,R24,2*%
%TO.N,A11*%
X135160000Y-146000000D03*
%TD*%
%TO.P,R3,1*%
%TO.N,MIDI_OUT_5*%
X92000000Y-66000000D03*
%TO.P,R3,2*%
%TO.N,D1_TX*%
X102160000Y-66000000D03*
%TD*%
D14*
%TO.P,D6,1*%
%TO.N,GND*%
X180000000Y-152000000D03*
D15*
%TO.P,D6,2*%
%TO.N,LED4_A*%
X180000000Y-149460000D03*
%TD*%
D11*
%TO.P,C5,1*%
%TO.N,A12*%
X157000000Y-79000000D03*
%TO.P,C5,2*%
%TO.N,GND*%
X162000000Y-79000000D03*
%TD*%
%TO.P,C6,1*%
%TO.N,A1*%
X61000000Y-103000000D03*
%TO.P,C6,2*%
%TO.N,GND*%
X66000000Y-103000000D03*
%TD*%
D17*
%TO.P,J10,G*%
%TO.N,GND*%
X111430000Y-29300000D03*
%TO.P,J10,R*%
%TO.N,+5V*%
X100000000Y-35650000D03*
%TO.P,J10,RN*%
%TO.N,N/C*%
X111430000Y-35650000D03*
%TO.P,J10,S*%
%TO.N,GND*%
X100000000Y-29300000D03*
%TO.P,J10,T*%
%TO.N,JACK_W*%
X100000000Y-42000000D03*
%TO.P,J10,TN*%
%TO.N,N/C*%
X111430000Y-42000000D03*
%TD*%
D12*
%TO.P,JMA2,1*%
%TO.N,A0*%
X71750000Y-86000000D03*
D13*
%TO.P,JMA2,2*%
%TO.N,A1*%
X74290000Y-86000000D03*
%TO.P,JMA2,3*%
%TO.N,A2*%
X76830000Y-86000000D03*
%TO.P,JMA2,4*%
%TO.N,A3*%
X79370000Y-86000000D03*
%TO.P,JMA2,5*%
%TO.N,A4*%
X81910000Y-86000000D03*
%TO.P,JMA2,6*%
%TO.N,A5*%
X84450000Y-86000000D03*
%TO.P,JMA2,7*%
%TO.N,A6*%
X86990000Y-86000000D03*
%TO.P,JMA2,8*%
%TO.N,A7*%
X89530000Y-86000000D03*
%TD*%
D11*
%TO.P,R11,1*%
%TO.N,POT2_W*%
X93000000Y-74000000D03*
%TO.P,R11,2*%
%TO.N,A5*%
X103160000Y-74000000D03*
%TD*%
%TO.P,C8,1*%
%TO.N,A9*%
X125000000Y-103000000D03*
%TO.P,C8,2*%
%TO.N,GND*%
X130000000Y-103000000D03*
%TD*%
D14*
%TO.P,RV5,1*%
%TO.N,+5V*%
X50000000Y-104000000D03*
D15*
%TO.P,RV5,2*%
%TO.N,POT5_W*%
X52500000Y-104000000D03*
%TO.P,RV5,3*%
%TO.N,GND*%
X55000000Y-104000000D03*
D16*
%TO.P,RV5,MP*%
%TO.N,N/C*%
X48100000Y-97000000D03*
X56900000Y-97000000D03*
%TD*%
D11*
%TO.P,C7,1*%
%TO.N,A4*%
X93000000Y-103000000D03*
%TO.P,C7,2*%
%TO.N,GND*%
X98000000Y-103000000D03*
%TD*%
D18*
%TO.P,SW4,1*%
%TO.N,D6*%
X30000000Y-130000000D03*
X36500000Y-130000000D03*
%TO.P,SW4,2*%
%TO.N,GND*%
X30000000Y-134500000D03*
X36500000Y-134500000D03*
%TD*%
D11*
%TO.P,R10,1*%
%TO.N,POT1_W*%
X61000000Y-74000000D03*
%TO.P,R10,2*%
%TO.N,A0*%
X71160000Y-74000000D03*
%TD*%
D14*
%TO.P,RV8,1*%
%TO.N,+5V*%
X146000000Y-104000000D03*
D15*
%TO.P,RV8,2*%
%TO.N,POT8_W*%
X148500000Y-104000000D03*
%TO.P,RV8,3*%
%TO.N,GND*%
X151000000Y-104000000D03*
D16*
%TO.P,RV8,MP*%
%TO.N,N/C*%
X144100000Y-97000000D03*
X152900000Y-97000000D03*
%TD*%
D11*
%TO.P,R14,1*%
%TO.N,POT5_W*%
X61000000Y-98000000D03*
%TO.P,R14,2*%
%TO.N,A1*%
X71160000Y-98000000D03*
%TD*%
D19*
%TO.P,D2D,1*%
%TO.N,+5V*%
X150000000Y-52000000D03*
D20*
%TO.P,D2D,2*%
%TO.N,VIN_RAW*%
X160160000Y-52000000D03*
%TD*%
D11*
%TO.P,R13,1*%
%TO.N,POT4_W*%
X157000000Y-74000000D03*
%TO.P,R13,2*%
%TO.N,A12*%
X167160000Y-74000000D03*
%TD*%
%TO.P,R15,1*%
%TO.N,POT6_W*%
X93000000Y-98000000D03*
%TO.P,R15,2*%
%TO.N,A4*%
X103160000Y-98000000D03*
%TD*%
D12*
%TO.P,JMD3,1*%
%TO.N,D1_TX*%
X81910000Y-134000000D03*
D13*
%TO.P,JMD3,2*%
%TO.N,D0_RX*%
X84450000Y-134000000D03*
%TD*%
D11*
%TO.P,R21,1*%
%TO.N,POT12_W*%
X157000000Y-122000000D03*
%TO.P,R21,2*%
%TO.N,A14*%
X167160000Y-122000000D03*
%TD*%
%TO.P,R2,1*%
%TO.N,MIDI_OUT_4*%
X92000000Y-60000000D03*
%TO.P,R2,2*%
%TO.N,+5V*%
X102160000Y-60000000D03*
%TD*%
%TO.P,C14,1*%
%TO.N,A3*%
X61000000Y-151000000D03*
%TO.P,C14,2*%
%TO.N,GND*%
X66000000Y-151000000D03*
%TD*%
%TO.P,C16,1*%
%TO.N,A11*%
X125000000Y-151000000D03*
%TO.P,C16,2*%
%TO.N,GND*%
X130000000Y-151000000D03*
%TD*%
%TO.P,C1,1*%
%TO.N,+5V*%
X80000000Y-62000000D03*
%TO.P,C1,2*%
%TO.N,GND*%
X85000000Y-62000000D03*
%TD*%
D10*
%TO.P,U1,1*%
%TO.N,N/C*%
X48000000Y-54000000D03*
D11*
%TO.P,U1,2*%
%TO.N,OPTO_ANODE*%
X48000000Y-56540000D03*
%TO.P,U1,3*%
%TO.N,OPTO_CATHODE*%
X48000000Y-59080000D03*
%TO.P,U1,4*%
%TO.N,N/C*%
X48000000Y-61620000D03*
%TO.P,U1,5*%
%TO.N,GND*%
X55620000Y-61620000D03*
%TO.P,U1,6*%
%TO.N,D0_RX*%
X55620000Y-59080000D03*
%TO.P,U1,7*%
%TO.N,OPTO_VB*%
X55620000Y-56540000D03*
%TO.P,U1,8*%
%TO.N,+5V*%
X55620000Y-54000000D03*
%TD*%
D18*
%TO.P,SW3,1*%
%TO.N,D8*%
X30000000Y-108000000D03*
X36500000Y-108000000D03*
%TO.P,SW3,2*%
%TO.N,GND*%
X30000000Y-112500000D03*
X36500000Y-112500000D03*
%TD*%
D10*
%TO.P,C19,1*%
%TO.N,+5V*%
X162000000Y-64000000D03*
D11*
%TO.P,C19,2*%
%TO.N,GND*%
X164500000Y-64000000D03*
%TD*%
%TO.P,C11,1*%
%TO.N,A6*%
X93000000Y-127000000D03*
%TO.P,C11,2*%
%TO.N,GND*%
X98000000Y-127000000D03*
%TD*%
%TO.P,R20,1*%
%TO.N,POT11_W*%
X125000000Y-122000000D03*
%TO.P,R20,2*%
%TO.N,A10*%
X135160000Y-122000000D03*
%TD*%
D14*
%TO.P,D4,1*%
%TO.N,GND*%
X180000000Y-108000000D03*
D15*
%TO.P,D4,2*%
%TO.N,LED2_A*%
X180000000Y-105460000D03*
%TD*%
D12*
%TO.P,JMA1,1*%
%TO.N,N/C*%
X48890000Y-86000000D03*
D13*
%TO.P,JMA1,2*%
X51430000Y-86000000D03*
%TO.P,JMA1,3*%
X53970000Y-86000000D03*
%TO.P,JMA1,4*%
X56510000Y-86000000D03*
%TO.P,JMA1,5*%
%TO.N,+5V*%
X59050000Y-86000000D03*
%TO.P,JMA1,6*%
%TO.N,GND*%
X61590000Y-86000000D03*
%TO.P,JMA1,7*%
X64130000Y-86000000D03*
%TO.P,JMA1,8*%
%TO.N,VIN_RAW*%
X66670000Y-86000000D03*
%TD*%
D11*
%TO.P,R12,1*%
%TO.N,POT3_W*%
X125000000Y-74000000D03*
%TO.P,R12,2*%
%TO.N,A8*%
X135160000Y-74000000D03*
%TD*%
%TO.P,R4,1*%
%TO.N,OPTO_VB*%
X68000000Y-59000000D03*
%TO.P,R4,2*%
%TO.N,GND*%
X78160000Y-59000000D03*
%TD*%
D14*
%TO.P,RV15,1*%
%TO.N,+5V*%
X114000000Y-152000000D03*
D15*
%TO.P,RV15,2*%
%TO.N,POT15_W*%
X116500000Y-152000000D03*
%TO.P,RV15,3*%
%TO.N,GND*%
X119000000Y-152000000D03*
D16*
%TO.P,RV15,MP*%
%TO.N,N/C*%
X112100000Y-145000000D03*
X120900000Y-145000000D03*
%TD*%
D14*
%TO.P,RV16,1*%
%TO.N,+5V*%
X146000000Y-152000000D03*
D15*
%TO.P,RV16,2*%
%TO.N,POT16_W*%
X148500000Y-152000000D03*
%TO.P,RV16,3*%
%TO.N,GND*%
X151000000Y-152000000D03*
D16*
%TO.P,RV16,MP*%
%TO.N,N/C*%
X144100000Y-145000000D03*
X152900000Y-145000000D03*
%TD*%
D21*
%TO.P,J3,1*%
%TO.N,VIN_RAW*%
X138000000Y-38000000D03*
D22*
%TO.P,J3,2*%
%TO.N,GND*%
X138000000Y-32000000D03*
D23*
%TO.P,J3,3*%
%TO.N,N/C*%
X133300000Y-35000000D03*
%TD*%
D11*
%TO.P,R18,1*%
%TO.N,POT9_W*%
X61000000Y-122000000D03*
%TO.P,R18,2*%
%TO.N,A2*%
X71160000Y-122000000D03*
%TD*%
D12*
%TO.P,JMD4,1*%
%TO.N,D20_SDA*%
X104770000Y-134000000D03*
D13*
%TO.P,JMD4,2*%
%TO.N,D21_SCL*%
X107310000Y-134000000D03*
%TD*%
D18*
%TO.P,SW2,1*%
%TO.N,D7*%
X30000000Y-86000000D03*
X36500000Y-86000000D03*
%TO.P,SW2,2*%
%TO.N,GND*%
X30000000Y-90500000D03*
X36500000Y-90500000D03*
%TD*%
D10*
%TO.P,U2,1*%
%TO.N,A15*%
X50000000Y-180000000D03*
D11*
%TO.P,U2,2*%
%TO.N,MUX_CH7*%
X52540000Y-180000000D03*
%TO.P,U2,3*%
%TO.N,MUX_CH6*%
X55080000Y-180000000D03*
%TO.P,U2,4*%
%TO.N,MUX_CH5*%
X57620000Y-180000000D03*
%TO.P,U2,5*%
%TO.N,MUX_CH4*%
X60160000Y-180000000D03*
%TO.P,U2,6*%
%TO.N,MUX_CH3*%
X62700000Y-180000000D03*
%TO.P,U2,7*%
%TO.N,MUX_CH2*%
X65240000Y-180000000D03*
%TO.P,U2,8*%
%TO.N,MUX_CH1*%
X67780000Y-180000000D03*
%TO.P,U2,9*%
%TO.N,MUX_CH0*%
X70320000Y-180000000D03*
%TO.P,U2,10*%
%TO.N,D2*%
X72860000Y-180000000D03*
%TO.P,U2,11*%
%TO.N,D3*%
X75400000Y-180000000D03*
%TO.P,U2,12*%
%TO.N,GND*%
X77940000Y-180000000D03*
%TO.P,U2,13*%
%TO.N,D13*%
X77940000Y-164760000D03*
%TO.P,U2,14*%
%TO.N,D4*%
X75400000Y-164760000D03*
%TO.P,U2,15*%
%TO.N,GND*%
X72860000Y-164760000D03*
%TO.P,U2,16*%
%TO.N,MUX_CH15*%
X70320000Y-164760000D03*
%TO.P,U2,17*%
%TO.N,MUX_CH14*%
X67780000Y-164760000D03*
%TO.P,U2,18*%
%TO.N,MUX_CH13*%
X65240000Y-164760000D03*
%TO.P,U2,19*%
%TO.N,MUX_CH12*%
X62700000Y-164760000D03*
%TO.P,U2,20*%
%TO.N,MUX_CH11*%
X60160000Y-164760000D03*
%TO.P,U2,21*%
%TO.N,MUX_CH10*%
X57620000Y-164760000D03*
%TO.P,U2,22*%
%TO.N,MUX_CH9*%
X55080000Y-164760000D03*
%TO.P,U2,23*%
%TO.N,MUX_CH8*%
X52540000Y-164760000D03*
%TO.P,U2,24*%
%TO.N,+5V*%
X50000000Y-164760000D03*
%TD*%
%TO.P,R1,1*%
%TO.N,MIDI_IN_4*%
X34000000Y-65000000D03*
%TO.P,R1,2*%
%TO.N,OPTO_ANODE*%
X44160000Y-65000000D03*
%TD*%
%TO.P,C15,1*%
%TO.N,A7*%
X93000000Y-151000000D03*
%TO.P,C15,2*%
%TO.N,GND*%
X98000000Y-151000000D03*
%TD*%
%TO.P,C3,1*%
%TO.N,A5*%
X93000000Y-79000000D03*
%TO.P,C3,2*%
%TO.N,GND*%
X98000000Y-79000000D03*
%TD*%
D14*
%TO.P,RV12,1*%
%TO.N,+5V*%
X146000000Y-128000000D03*
D15*
%TO.P,RV12,2*%
%TO.N,POT12_W*%
X148500000Y-128000000D03*
%TO.P,RV12,3*%
%TO.N,GND*%
X151000000Y-128000000D03*
D16*
%TO.P,RV12,MP*%
%TO.N,N/C*%
X144100000Y-121000000D03*
X152900000Y-121000000D03*
%TD*%
D14*
%TO.P,D3,1*%
%TO.N,GND*%
X180000000Y-86000000D03*
D15*
%TO.P,D3,2*%
%TO.N,LED1_A*%
X180000000Y-83460000D03*
%TD*%
D11*
%TO.P,C4,1*%
%TO.N,A8*%
X125000000Y-79000000D03*
%TO.P,C4,2*%
%TO.N,GND*%
X130000000Y-79000000D03*
%TD*%
%TO.P,R8,1*%
%TO.N,D10*%
X172000000Y-130000000D03*
%TO.P,R8,2*%
%TO.N,LED3_A*%
X172000000Y-119840000D03*
%TD*%
D14*
%TO.P,RV6,1*%
%TO.N,+5V*%
X82000000Y-104000000D03*
D15*
%TO.P,RV6,2*%
%TO.N,POT6_W*%
X84500000Y-104000000D03*
%TO.P,RV6,3*%
%TO.N,GND*%
X87000000Y-104000000D03*
D16*
%TO.P,RV6,MP*%
%TO.N,N/C*%
X80100000Y-97000000D03*
X88900000Y-97000000D03*
%TD*%
D24*
%TO.P,J2,*%
%TO.N,*%
X67000000Y-28300000D03*
X77000000Y-28300000D03*
D25*
%TO.P,J2,1*%
%TO.N,N/C*%
X64700000Y-38000000D03*
%TO.P,J2,2*%
%TO.N,GND*%
X72000000Y-38000000D03*
%TO.P,J2,3*%
%TO.N,N/C*%
X79300000Y-38000000D03*
%TO.P,J2,4*%
%TO.N,MIDI_OUT_4*%
X77000000Y-40500000D03*
%TO.P,J2,5*%
%TO.N,MIDI_OUT_5*%
X67000000Y-40500000D03*
%TD*%
D11*
%TO.P,R16,1*%
%TO.N,POT7_W*%
X125000000Y-98000000D03*
%TO.P,R16,2*%
%TO.N,A9*%
X135160000Y-98000000D03*
%TD*%
D12*
%TO.P,J4,1*%
%TO.N,GND*%
X136000000Y-60000000D03*
D13*
%TO.P,J4,2*%
%TO.N,+5V*%
X138540000Y-60000000D03*
%TO.P,J4,3*%
%TO.N,GND*%
X141080000Y-60000000D03*
%TO.P,J4,4*%
%TO.N,VIN_RAW*%
X143620000Y-60000000D03*
%TD*%
D11*
%TO.P,R23,1*%
%TO.N,POT14_W*%
X93000000Y-146000000D03*
%TO.P,R23,2*%
%TO.N,A7*%
X103160000Y-146000000D03*
%TD*%
%TO.P,C18,1*%
%TO.N,MUX_CH1*%
X136000000Y-172000000D03*
%TO.P,C18,2*%
%TO.N,GND*%
X141000000Y-172000000D03*
%TD*%
D14*
%TO.P,D5,1*%
%TO.N,GND*%
X180000000Y-130000000D03*
D15*
%TO.P,D5,2*%
%TO.N,LED3_A*%
X180000000Y-127460000D03*
%TD*%
D12*
%TO.P,JMD1,1*%
%TO.N,D2*%
X40000000Y-134000000D03*
D13*
%TO.P,JMD1,2*%
%TO.N,D3*%
X42540000Y-134000000D03*
%TO.P,JMD1,3*%
%TO.N,D4*%
X45080000Y-134000000D03*
%TO.P,JMD1,4*%
%TO.N,GND*%
X47620000Y-134000000D03*
%TO.P,JMD1,5*%
%TO.N,D13*%
X50160000Y-134000000D03*
%TO.P,JMD1,6*%
%TO.N,D5*%
X52700000Y-134000000D03*
%TO.P,JMD1,7*%
%TO.N,D6*%
X55240000Y-134000000D03*
%TO.P,JMD1,8*%
%TO.N,D7*%
X57780000Y-134000000D03*
%TO.P,JMD1,9*%
%TO.N,D8*%
X60320000Y-134000000D03*
%TO.P,JMD1,10*%
%TO.N,D9*%
X62860000Y-134000000D03*
%TD*%
D14*
%TO.P,RV3,1*%
%TO.N,+5V*%
X114000000Y-80000000D03*
D15*
%TO.P,RV3,2*%
%TO.N,POT3_W*%
X116500000Y-80000000D03*
%TO.P,RV3,3*%
%TO.N,GND*%
X119000000Y-80000000D03*
D16*
%TO.P,RV3,MP*%
%TO.N,N/C*%
X112100000Y-73000000D03*
X120900000Y-73000000D03*
%TD*%
D14*
%TO.P,RV10,1*%
%TO.N,+5V*%
X82000000Y-128000000D03*
D15*
%TO.P,RV10,2*%
%TO.N,POT10_W*%
X84500000Y-128000000D03*
%TO.P,RV10,3*%
%TO.N,GND*%
X87000000Y-128000000D03*
D16*
%TO.P,RV10,MP*%
%TO.N,N/C*%
X80100000Y-121000000D03*
X88900000Y-121000000D03*
%TD*%
D11*
%TO.P,R25,1*%
%TO.N,POT16_W*%
X157000000Y-146000000D03*
%TO.P,R25,2*%
%TO.N,MUX_CH0*%
X167160000Y-146000000D03*
%TD*%
%TO.P,R5,1*%
%TO.N,D0_RX*%
X68000000Y-65000000D03*
%TO.P,R5,2*%
%TO.N,+5V*%
X78160000Y-65000000D03*
%TD*%
D24*
%TO.P,J1,*%
%TO.N,*%
X39000000Y-28300000D03*
X49000000Y-28300000D03*
D25*
%TO.P,J1,1*%
%TO.N,N/C*%
X36700000Y-38000000D03*
%TO.P,J1,2*%
%TO.N,GND*%
X44000000Y-38000000D03*
%TO.P,J1,3*%
%TO.N,N/C*%
X51300000Y-38000000D03*
%TO.P,J1,4*%
%TO.N,MIDI_IN_4*%
X49000000Y-40500000D03*
%TO.P,J1,5*%
%TO.N,OPTO_CATHODE*%
X39000000Y-40500000D03*
%TD*%
D11*
%TO.P,R22,1*%
%TO.N,POT13_W*%
X61000000Y-146000000D03*
%TO.P,R22,2*%
%TO.N,A3*%
X71160000Y-146000000D03*
%TD*%
D14*
%TO.P,RV14,1*%
%TO.N,+5V*%
X82000000Y-152000000D03*
D15*
%TO.P,RV14,2*%
%TO.N,POT14_W*%
X84500000Y-152000000D03*
%TO.P,RV14,3*%
%TO.N,GND*%
X87000000Y-152000000D03*
D16*
%TO.P,RV14,MP*%
%TO.N,N/C*%
X80100000Y-145000000D03*
X88900000Y-145000000D03*
%TD*%
D12*
%TO.P,JMA3,1*%
%TO.N,A8*%
X94610000Y-86000000D03*
D13*
%TO.P,JMA3,2*%
%TO.N,A9*%
X97150000Y-86000000D03*
%TO.P,JMA3,3*%
%TO.N,A10*%
X99690000Y-86000000D03*
%TO.P,JMA3,4*%
%TO.N,A11*%
X102230000Y-86000000D03*
%TO.P,JMA3,5*%
%TO.N,A12*%
X104770000Y-86000000D03*
%TO.P,JMA3,6*%
%TO.N,A13*%
X107310000Y-86000000D03*
%TO.P,JMA3,7*%
%TO.N,A14*%
X109850000Y-86000000D03*
%TO.P,JMA3,8*%
%TO.N,A15*%
X112390000Y-86000000D03*
%TD*%
D11*
%TO.P,R6,1*%
%TO.N,D12*%
X172000000Y-86000000D03*
%TO.P,R6,2*%
%TO.N,LED1_A*%
X172000000Y-75840000D03*
%TD*%
D12*
%TO.P,J5,1*%
%TO.N,GND*%
X166000000Y-32000000D03*
D13*
%TO.P,J5,2*%
%TO.N,+5V*%
X168540000Y-32000000D03*
%TO.P,J5,3*%
%TO.N,D21_SCL*%
X171080000Y-32000000D03*
%TO.P,J5,4*%
%TO.N,D20_SDA*%
X173620000Y-32000000D03*
%TD*%
D14*
%TO.P,RV9,1*%
%TO.N,+5V*%
X50000000Y-128000000D03*
D15*
%TO.P,RV9,2*%
%TO.N,POT9_W*%
X52500000Y-128000000D03*
%TO.P,RV9,3*%
%TO.N,GND*%
X55000000Y-128000000D03*
D16*
%TO.P,RV9,MP*%
%TO.N,N/C*%
X48100000Y-121000000D03*
X56900000Y-121000000D03*
%TD*%
D11*
%TO.P,R9,1*%
%TO.N,D9*%
X172000000Y-152000000D03*
%TO.P,R9,2*%
%TO.N,LED4_A*%
X172000000Y-141840000D03*
%TD*%
%TO.P,R27,1*%
%TO.N,JACK_W*%
X112000000Y-172000000D03*
%TO.P,R27,2*%
%TO.N,MUX_CH1*%
X122160000Y-172000000D03*
%TD*%
%TO.P,R19,1*%
%TO.N,POT10_W*%
X93000000Y-122000000D03*
%TO.P,R19,2*%
%TO.N,A6*%
X103160000Y-122000000D03*
%TD*%
D18*
%TO.P,SW5,1*%
%TO.N,D5*%
X30000000Y-152000000D03*
X36500000Y-152000000D03*
%TO.P,SW5,2*%
%TO.N,GND*%
X30000000Y-156500000D03*
X36500000Y-156500000D03*
%TD*%
D11*
%TO.P,C13,1*%
%TO.N,A14*%
X157000000Y-127000000D03*
%TO.P,C13,2*%
%TO.N,GND*%
X162000000Y-127000000D03*
%TD*%
D14*
%TO.P,RV13,1*%
%TO.N,+5V*%
X50000000Y-152000000D03*
D15*
%TO.P,RV13,2*%
%TO.N,POT13_W*%
X52500000Y-152000000D03*
%TO.P,RV13,3*%
%TO.N,GND*%
X55000000Y-152000000D03*
D16*
%TO.P,RV13,MP*%
%TO.N,N/C*%
X48100000Y-145000000D03*
X56900000Y-145000000D03*
%TD*%
D11*
%TO.P,C12,1*%
%TO.N,A10*%
X125000000Y-127000000D03*
%TO.P,C12,2*%
%TO.N,GND*%
X130000000Y-127000000D03*
%TD*%
%TO.P,C9,1*%
%TO.N,A13*%
X157000000Y-103000000D03*
%TO.P,C9,2*%
%TO.N,GND*%
X162000000Y-103000000D03*
%TD*%
%TO.P,R17,1*%
%TO.N,POT8_W*%
X157000000Y-98000000D03*
%TO.P,R17,2*%
%TO.N,A13*%
X167160000Y-98000000D03*
%TD*%
%TO.P,R7,1*%
%TO.N,D11*%
X172000000Y-108000000D03*
%TO.P,R7,2*%
%TO.N,LED2_A*%
X172000000Y-97840000D03*
%TD*%
D14*
%TO.P,RV2,1*%
%TO.N,+5V*%
X82000000Y-80000000D03*
D15*
%TO.P,RV2,2*%
%TO.N,POT2_W*%
X84500000Y-80000000D03*
%TO.P,RV2,3*%
%TO.N,GND*%
X87000000Y-80000000D03*
D16*
%TO.P,RV2,MP*%
%TO.N,N/C*%
X80100000Y-73000000D03*
X88900000Y-73000000D03*
%TD*%
D14*
%TO.P,RV4,1*%
%TO.N,+5V*%
X146000000Y-80000000D03*
D15*
%TO.P,RV4,2*%
%TO.N,POT4_W*%
X148500000Y-80000000D03*
%TO.P,RV4,3*%
%TO.N,GND*%
X151000000Y-80000000D03*
D16*
%TO.P,RV4,MP*%
%TO.N,N/C*%
X144100000Y-73000000D03*
X152900000Y-73000000D03*
%TD*%
D26*
%TO.N,A11*%
X101978900Y-143062100D03*
%TO.N,D1_TX*%
X95500000Y-132159600D03*
%TO.N,A14*%
X155413100Y-84794800D03*
%TD*%
%TO.N,A5*%
D27*
X98000000Y-74000000D02*
X103160000Y-74000000D01*
X93000000Y-79000000D02*
X98000000Y-74000000D01*
%TD*%
M02*
